
<svg xmlns="http://www.w3.org/2000/svg" version="1.1" xmlns:xlink="http://www.w3.org/1999/xlink" preserveAspectRatio="none" x="0px" y="0px" width="2000px" height="2000px" viewBox="0 0 2000 2000">
<defs>
<g id="Layer1_0_FILL">
<path fill="#000000" stroke="none" d="
M 1913 886
Q 1913.25 885.35 1913.55 884.75
L 1916.05 884.65 1918.65 859.65 73.4 859.15
Q 73.4 859.4 73.35 859.45 71.75 859.7 70.15 859.7 69.35 859.95 68.55 860.25 67.45 860.75 66.5 861.45 65.55 862.1 64.75 862.95 63.95 863.75 63.25 864.6 62.6 865.35 62.15 866.25 61.8 866.95 61.5 867.8 61.25 868.6 61.1 869.4 61 870.2 60.85 871 60.7 871.85 60.7 872.65 60.7 873.45 60.85 874.3 61 875.05 61.15 875.9 61.25 876.7 61.55 877.5
L 66.25 882.6
Q 66.8 885.05 67.4 887.5 73.9 914.65 84.25 940.4 96.95 972 114.15 1001.6 126.85 1023.35 141.4 1043.75 155.5 1063.4 171.2 1081.7 187.05 1100.25 204.5 1117.45 222.25 1134.95 241.45 1151.1 259.75 1166.45 279.1 1180.45 298.7 1194.75 319.15 1207.7 356.9 1231.5 396.75 1251.35 440.35 1273 485.55 1290.95 519.2 1304.3 553.55 1316.1 597.35 1331.05 642.05 1343.35 686.75 1355.55 732.25 1365.15 777.8 1374.9 823.8 1381.75 884.9 1391.05 946.6 1395.2 993.95 1398.55 1041.5 1398.9 1102.05 1399.35 1162.35 1393.05 1231.7 1385.3 1299.85 1370.65 1346.25 1360.75 1391.6 1347.1 1431.15 1335.15 1469.5 1319.8 1504.7 1305.7 1538.25 1288.25 1570.25 1271.6 1600.3 1251.6 1628.35 1232.9 1654 1211.2 1656.85 1208.75 1659.7 1206.35 1662.65 1203.75 1665.6 1201.2 1668.7 1198.45 1671.8 1195.7 1676.75 1191.2 1681.55 1186.8 1683.25 1185.25 1684.9 1183.7 1686.65 1182.1 1688.35 1180.5 1690.1 1178.85 1691.8 1177.2 1693.6 1175.55 1695.4 1173.85 1700.1 1169.4 1704.75 1164.95 1709.4 1160.6 1714 1156.2 1718.5 1151.8 1722.95 1147.4 1727.35 1143.1 1731.7 1138.75 1736 1134.45 1740.25 1130.15 1744.45 1125.95 1748.6 1121.7 1756.6 1113.25 1764.55 1104.8 1772.2 1096.6 1779.7 1088.3 1786.9 1080.3 1793.95 1072.1 1800.75 1064.25 1807.4 1056.25 1813.75 1048.55 1819.9 1040.7 1827.45 1031.15 1834.75 1021.4 1841.85 1011.8 1848.65 1002.05 1855.3 992.5 1861.7 982.8 1864.85 978 1867.9 973.15 1870.9 968.3 1873.85 963.45 1876.7 958.65 1879.5 953.8 1882.3 949 1885 944.1 1887.65 939.3 1890.25 934.45 1892.8 929.6 1895.25 924.75 1897.7 919.9 1900.05 915.1 1902.35 910.25 1904.6 905.4 1906.8 900.55 1908.9 895.65 1910.95 890.85 1913 886
M 1882.3 885.05
L 1846.95 956.3 112.4 959.3 85.6 885.05 1882.3 885.05
M 1670.5 1160.35
Q 1662.6 1167.4 1654.65 1174.45 1624.65 1201.3 1591.55 1224.5 1559 1247.25 1523.45 1265.25 1485.05 1284.7 1444.6 1299.25 1436.75 1302.05 1428.8 1302.45 1390.1 1304.9 1351.3 1304.9 1312.45 1304.9 1273.6 1304.85 1247.8 1304.85 1221.8 1304.9 1182.85 1304.95 1144 1304.9 1107.2 1304.9 1070.4 1304.9 1033.55 1304.9 996.7 1304.9 959.85 1304.9 923.05 1304.9 884.7 1304.9 846.2 1304.9 819.2 1304.9 792.25 1305.55 769.5 1306.1 744.4 1305.85 703.5 1305.45 662.6 1305.6 637 1305.7 611.55 1304.05 598.15 1303.7 585.2 1300.35 560.5 1293.6 536.2 1285 496.1 1270.9 457.05 1253.9 418.25 1237.15 381 1217.15
L 291.85 1162.45 1670.5 1160.35
M 1764.35 1064.1
Q 1724 1110.1 1679.4 1151.65
L 275.9 1150.9
Q 248.2 1130.25 222.9 1106.85 194.8 1080.75 170.55 1051 145.45 1020.1 125.9 985.3
L 116.15 966.95 1838.7 969.25
Q 1823.7 991.8 1806.8 1013.1 1786.25 1039.05 1764.35 1064.1
M 1396.85 1315.7
Q 1380.95 1320.95 1364.75 1325.5 1326.75 1336.4 1288.1 1344.75 1247.6 1353.35 1206.5 1359.4 1170.85 1364.65 1135 1367.65 1098.95 1370.85 1062.75 1371.9 1026.2 1373 989.6 1371.95 946.6 1370.75 903.9 1367.05 867.85 1363.75 832 1358.6 795.6 1353.5 759.55 1346.35
L 630.2 1315.2 1396.85 1315.7
M 497.95 1102.75
Q 498.55 1103.25 499.2 1103.3 538.6 1107.6 578.5 1108.9 616.4 1110.65 654.35 1111.3 692.25 1111.95 730.15 1112.3 768.1 1112.6 805.9 1111.85
L 819 1108 497.95 1102.75
M 353.9 1068.35
Q 354.4 1068.9 355 1068.95 396.5 1073 438.15 1075.05 478.7 1077 519.25 1078.95 559.85 1080.35 600.45 1081.4 641.05 1082.5 681.65 1083.25
L 691.4 1080.25 358.3 1065.45 353.9 1068.35
M 1400.65 1101.7
Q 1400.4 1101.7 1400.25 1101.8 1396.65 1104.65 1400.7 1107.5 1415.55 1113.1 1431.3 1114.7 1455.05 1117.3 1478.95 1115.65 1496.2 1114.25 1512.9 1109.9 1521.9 1107.4 1525.15 1102.2 1503.05 1108.8 1479.95 1109.75 1469.6 1110 1459.5 1110.8 1428.5 1114 1400.65 1101.7
M 1307.5 1043.35
L 1308.1 1043
Q 1300.1 1040 1288.2 1040.2 1253.25 1040.7 1218.15 1043.9 1182.5 1047 1147.75 1051.25 1163.2 1054.45 1180.4 1054.2 1220 1053.65 1259.5 1050.15 1283.7 1047.65 1307.5 1043.35
M 1427.1 1015.15
Q 1421.65 1017.25 1424.5 1020.25
L 1477.25 1013.7
Q 1507.1 1012.1 1536.45 1019.6 1540.7 1020.75 1544.15 1023.45 1551.85 1029.6 1560.75 1027.8 1559.8 1026.55 1558.6 1025.95 1523.6 1008.25 1483.7 1008.6 1475.65 1008.65 1467.55 1008.5 1446.35 1008.05 1427.1 1015.15
M 1637.85 1084
Q 1638.1 1083.15 1638.1 1082.3 1638.2 1078.65 1634.7 1077.75 1620.35 1073.6 1605.7 1071.65 1582.55 1068.65 1562.6 1056.95 1546.25 1047.25 1527.95 1042.45 1470.25 1027.2 1412.05 1042.6 1372.05 1053.1 1331.85 1062.45 1288.6 1072.7 1244.05 1073.65 1236.05 1073.8 1228.15 1073.75 1219.7 1073.65 1216 1079.7 1216.25 1081.9 1218.35 1082.2 1256.25 1085.6 1294.35 1080.65 1303.65 1079.55 1312.9 1077.3 1332.5 1072.35 1352.4 1072.5 1377.35 1072.65 1399.4 1084.25 1426.4 1098.35 1456.55 1101.55 1467.05 1102.75 1477.5 1100.45 1527.15 1090.25 1575.55 1074.8 1588.7 1080.8 1602.9 1083.1 1607.95 1084.1 1613 1085.4 1626.8 1088.95 1637.85 1084
M 1367.5 1065.4
Q 1374.7 1063.5 1381.95 1061.45 1421.9 1050.15 1463.3 1046.15 1503.95 1042.5 1541.5 1057.7
L 1557.35 1066.8
Q 1556.05 1067.15 1554.8 1067.65 1523.1 1078.5 1490.65 1086.45 1453.5 1095.6 1418.2 1080.5 1393.7 1070.15 1367.5 1065.4
M 930.8 1263.35
Q 942.35 1262.9 953.95 1263.2 973.9 1263.65 992 1258.75 987.9 1256.75 980.35 1255.85 939.5 1252.25 898.4 1255 855.4 1257.75 812.75 1262.3 770.1 1266.95 727.45 1267.5 721.25 1267.6 715.25 1266.45 705.6 1264.85 701.05 1270.65 701.3 1272.45 703.2 1272.9 712.5 1275.25 722.55 1275.65 754.75 1277.6 822.55 1261.3
L 930.8 1263.35
M 854 1224.95
L 852.45 1228.35 858.35 1230.75 1087.15 1230.55 1092.8 1227.7 854 1224.95
M 1540.85 1229.45
Q 1548.45 1229.25 1548.3 1225.75
L 1541.2 1223.45 1285.6 1214.85 1284.3 1211.95
Q 1283.75 1211.9 1283.3 1212.05 1278.6 1213.55 1280.25 1218.05 1280.85 1218.65 1281.5 1218.6 1397.15 1227.5 1513.45 1229.4 1514.9 1229.4 1516.35 1229.45 1520.15 1229.5 1523.85 1229.55 1532.3 1229.7 1540.85 1229.45 Z"/>

<path fill="#896138" stroke="none" d="
M 1364.75 1325.5
Q 1380.95 1320.95 1396.85 1315.7
L 630.2 1315.2 759.55 1346.35
Q 795.6 1353.5 832 1358.6 867.85 1363.75 903.9 1367.05 946.6 1370.75 989.6 1371.95 1026.2 1373 1062.75 1371.9 1098.95 1370.85 1135 1367.65 1170.85 1364.65 1206.5 1359.4 1247.6 1353.35 1288.1 1344.75 1326.75 1336.4 1364.75 1325.5
M 1679.4 1151.65
Q 1724 1110.1 1764.35 1064.1 1786.25 1039.05 1806.8 1013.1 1823.7 991.8 1838.7 969.25
L 116.15 966.95 125.9 985.3
Q 145.45 1020.1 170.55 1051 194.8 1080.75 222.9 1106.85 248.2 1130.25 275.9 1150.9
L 1679.4 1151.65
M 1638.1 1082.3
Q 1638.1 1083.15 1637.85 1084 1626.8 1088.95 1613 1085.4 1607.95 1084.1 1602.9 1083.1 1588.7 1080.8 1575.55 1074.8 1527.15 1090.25 1477.5 1100.45 1467.05 1102.75 1456.55 1101.55 1426.4 1098.35 1399.4 1084.25 1377.35 1072.65 1352.4 1072.5 1332.5 1072.35 1312.9 1077.3 1303.65 1079.55 1294.35 1080.65 1256.25 1085.6 1218.35 1082.2 1216.25 1081.9 1216 1079.7 1219.7 1073.65 1228.15 1073.75 1236.05 1073.8 1244.05 1073.65 1288.6 1072.7 1331.85 1062.45 1372.05 1053.1 1412.05 1042.6 1470.25 1027.2 1527.95 1042.45 1546.25 1047.25 1562.6 1056.95 1582.55 1068.65 1605.7 1071.65 1620.35 1073.6 1634.7 1077.75 1638.2 1078.65 1638.1 1082.3
M 1424.5 1020.25
Q 1421.65 1017.25 1427.1 1015.15 1446.35 1008.05 1467.55 1008.5 1475.65 1008.65 1483.7 1008.6 1523.6 1008.25 1558.6 1025.95 1559.8 1026.55 1560.75 1027.8 1551.85 1029.6 1544.15 1023.45 1540.7 1020.75 1536.45 1019.6 1507.1 1012.1 1477.25 1013.7
L 1424.5 1020.25
M 1308.1 1043
L 1307.5 1043.35
Q 1283.7 1047.65 1259.5 1050.15 1220 1053.65 1180.4 1054.2 1163.2 1054.45 1147.75 1051.25 1182.5 1047 1218.15 1043.9 1253.25 1040.7 1288.2 1040.2 1300.1 1040 1308.1 1043
M 1400.25 1101.8
Q 1400.4 1101.7 1400.65 1101.7 1428.5 1114 1459.5 1110.8 1469.6 1110 1479.95 1109.75 1503.05 1108.8 1525.15 1102.2 1521.9 1107.4 1512.9 1109.9 1496.2 1114.25 1478.95 1115.65 1455.05 1117.3 1431.3 1114.7 1415.55 1113.1 1400.7 1107.5 1396.65 1104.65 1400.25 1101.8
M 355 1068.95
Q 354.4 1068.9 353.9 1068.35
L 358.3 1065.45 691.4 1080.25 681.65 1083.25
Q 641.05 1082.5 600.45 1081.4 559.85 1080.35 519.25 1078.95 478.7 1077 438.15 1075.05 396.5 1073 355 1068.95
M 499.2 1103.3
Q 498.55 1103.25 497.95 1102.75
L 819 1108 805.9 1111.85
Q 768.1 1112.6 730.15 1112.3 692.25 1111.95 654.35 1111.3 616.4 1110.65 578.5 1108.9 538.6 1107.6 499.2 1103.3
M 1654.65 1174.45
Q 1662.6 1167.4 1670.5 1160.35
L 291.85 1162.45 381 1217.15
Q 418.25 1237.15 457.05 1253.9 496.1 1270.9 536.2 1285 560.5 1293.6 585.2 1300.35 598.15 1303.7 611.55 1304.05 637 1305.7 662.6 1305.6 703.5 1305.45 744.4 1305.85 769.5 1306.1 792.25 1305.55 819.2 1304.9 846.2 1304.9 884.7 1304.9 923.05 1304.9 959.85 1304.9 996.7 1304.9 1033.55 1304.9 1070.4 1304.9 1107.2 1304.9 1144 1304.9 1182.85 1304.95 1221.8 1304.9 1247.8 1304.85 1273.6 1304.85 1312.45 1304.9 1351.3 1304.9 1390.1 1304.9 1428.8 1302.45 1436.75 1302.05 1444.6 1299.25 1485.05 1284.7 1523.45 1265.25 1559 1247.25 1591.55 1224.5 1624.65 1201.3 1654.65 1174.45
M 1548.3 1225.75
Q 1548.45 1229.25 1540.85 1229.45 1532.3 1229.7 1523.85 1229.55 1520.15 1229.5 1516.35 1229.45 1514.9 1229.4 1513.45 1229.4 1397.15 1227.5 1281.5 1218.6 1280.85 1218.65 1280.25 1218.05 1278.6 1213.55 1283.3 1212.05 1283.75 1211.9 1284.3 1211.95
L 1285.6 1214.85 1541.2 1223.45 1548.3 1225.75
M 852.45 1228.35
L 854 1224.95 1092.8 1227.7 1087.15 1230.55 858.35 1230.75 852.45 1228.35
M 953.95 1263.2
Q 942.35 1262.9 930.8 1263.35
L 822.55 1261.3
Q 754.75 1277.6 722.55 1275.65 712.5 1275.25 703.2 1272.9 701.3 1272.45 701.05 1270.65 705.6 1264.85 715.25 1266.45 721.25 1267.6 727.45 1267.5 770.1 1266.95 812.75 1262.3 855.4 1257.75 898.4 1255 939.5 1252.25 980.35 1255.85 987.9 1256.75 992 1258.75 973.9 1263.65 953.95 1263.2
M 1846.95 956.3
L 1882.3 885.05 85.6 885.05 112.4 959.3 1846.95 956.3 Z"/>

<path fill="#1E1104" stroke="none" d="
M 1381.95 1061.45
Q 1374.7 1063.5 1367.5 1065.4 1393.7 1070.15 1418.2 1080.5 1453.5 1095.6 1490.65 1086.45 1523.1 1078.5 1554.8 1067.65 1556.05 1067.15 1557.35 1066.8
L 1541.5 1057.7
Q 1503.95 1042.5 1463.3 1046.15 1421.9 1050.15 1381.95 1061.45 Z"/>
</g>

<g id="Layer0_0_FILL">
<path fill="#000000" fill-opacity="0.2" stroke="none" d="
M 1883.55 866.4
Q 1879 863.05 1872.5 864 1866.5 864.85 1861.7 868.85 1857.8423828125 872.080859375 1854.4 877.45 1851.6640625 879.784765625 1849 883 1846.6 885.95 1841.85 892.95 1818.693359375 927.137109375 1787.15 964.35 1750.2919921875 964.0888671875 1713.4 963.85 1710.7 963.85 1708 963.85 1708 964.1 1708 964.4 1691.55 964.4 1675.1 964.4 1674.05 964.4 1672.95 964.4 1670 964.4 1667 964.4 1658.9 964.4 1650.8 964.4 1650.55 964.4 1650.3 964.4 1639.5 964.4 1628.7 964.4 1626 964.4 1623.3 964.4 1600.65 964.4 1577.95 964.4 1577.15 964.4 1576.35 964.4 1568 964.4 1559.6 964.4 1559.35 964.4 1559.1 964.4 1555.3 964.4 1551.5 964.4 1551 964.4 1550.45 964.4 1547.75 964.4 1545.05 964.4 1543.7 964.4 1542.35 964.4 1176.45 964.65 810.6 964.95 730.15 964.95 649.75 964.95 638.15 964.95 626.55 964.95 624.1 964.95 621.7 964.95 614.7 964.95 607.65 964.95 600.65 964.95 593.65 964.95 573.65 964.95 553.7 964.95 544 964.95 534.25 964.95 525.9 964.95 517.55 964.95 510 964.95 502.45 964.95 484.9 964.95 467.35 964.95 461.15 964.95 454.95 964.95 454.15 964.95 453.3 964.95 448.75 964.95 444.15 964.95 442.55 964.95 440.9 964.95 433.6 964.95 426.35 964.95 392.9 965.2 359.4 965.45 337.3 965.75 315.15 966 312.75 966 310.3 966 252.3 965.75 194.3 965.45 187.55 965.2 180.8 964.95 175.4 964.65 170 964.4 161.495703125 964.4 153 964.4 139.3572265625 947.4265625 127.55 928.95 127.0884765625 928.90546875 126.65 928.9 118.6388671875 912.260546875 108.4 889.9 106.1 884.8 104.5 882.3 101.95 878.25 98.9 876.1 95.25 873.55 90.75 873.8 86.05 874.1 83.75 877.5 82.05 880.1 82.3 884 82.5 886.75 83.8 890.9 108.85 971.75 161.1 1044.5 211.15 1114.15 280.75 1169 346.65 1220.95 428.15 1258.4 504.55 1293.55 591.7 1314.6 628.1 1323.4 684 1333.5 771.95 1349.45 776.7 1350.35 792.55 1353.45 824.2 1359.75 851.75 1365.05 871.9 1367.7 894.15 1370.7 921.2 1372.5 940.65 1373.75 970.7 1374.85 1031.05 1377 1074.1 1376.25 1130.15 1375.3 1177.1 1369.45 1235.7 1362.15 1299.4 1345 1354.95 1330 1418.2 1306.4 1434.224609375 1300.4234375 1448.85 1294.55 1506.7712890625 1276.7876953125 1556.05 1252.5 1588.2 1236.7 1623.15 1214.85 1652.1 1196.7 1678.45 1177.25 1684.6 1172.6 1687.6 1169.8 1692.4 1165.3 1694.85 1160.7 1697.75 1155.25 1697.5 1149.25 1697.3291015625 1144.875 1695.4 1141.6 1707.473828125 1130.1345703125 1720.7 1115.35 1730.45 1104.35 1749.6 1081.3
L 1819.25 997.3
Q 1834.9 978.4 1842.35 968.8 1854.85 952.65 1863.6 938.9 1876 919.45 1885.3 897.65 1889.3 888.25 1889.5 880.65 1889.75 870.95 1883.55 866.4
M 1650.3 980.6
Q 1650.55 980.6 1650.8 980.6 1658.9 980.6 1667 980.6 1670 980.6 1672.95 980.6 1674.05 980.6 1675.1 980.6 1691.55 980.85 1708 981.1 1710.7 981.1 1713.4 981.1 1743.23828125 980.9068359375 1773.05 980.7 1768.0337890625 986.446875 1762.8 992.25 1734.15 1023.95 1674.6 1084 1655.2 1103.55 1645.6 1112.75 1629.15 1128.45 1615.05 1139.8 1602.560546875 1149.873828125 1588.5 1159.35 1587.8373046875 1159.2904296875 1587.15 1159.2 1585.8 1158.95 1584.45 1158.65 1357.8 1158.65 1131.15 1158.65 1129.5 1158.65 1127.9 1158.65 1122.5 1158.65 1117.1 1158.65 1110.9 1158.65 1104.7 1158.65 1039.1 1158.65 973.55 1158.65 965.45 1158.65 957.35 1158.65 956 1158.65 954.65 1158.65 952.75 1158.65 950.9 1158.65 949.8 1158.65 948.75 1158.65 941.7 1158.65 934.7 1158.65 853.75 1158.4 772.8 1158.1 769.55 1158.1 766.3 1158.1 764.95 1158.1 763.6 1158.1 759.85 1158.1 756.05 1158.1 756.05 1158.4 756.05 1158.65 742.85 1158.65 729.65 1158.65 728 1158.65 726.4 1158.65 722.05 1158.65 717.75 1158.65 711.3 1158.65 704.8 1158.65 691.85 1158.65 678.9 1158.65 677.3 1158.65 675.65 1158.65 672.95 1158.65 670.25 1158.65 667.05 1158.65 663.8 1158.65 658.4 1158.65 653 1158.65 613.05 1158.65 573.15 1158.65 569.35 1158.65 565.55 1158.65 561 1158.65 556.4 1158.65 543.15 1158.65 529.95 1158.65 516.75 1158.95 503.5 1159.2 482.45 1159.45 461.4 1159.75 439.3 1160 417.15 1160.3 416.65 1160.3 416.1 1160.3 413.66953125 1160.3 411.25 1160.3 410.7 1159.45 410.15 1158.65 408.8 1157.85 407.45 1157.05 405.55 1156.5 403.65 1155.95 403.65 1156.0306640625 403.65 1156.1 400.954296875 1154.51640625 398.25 1152.9 339.7 1117.9 258.05 1058.9 239.8 1045.75 228.75 1037.3 212.9 1025.15 200.6 1014.25 182.57578125 998.3201171875 166.7 980.6 168.365625 980.6 170 980.6 175.4 980.3 180.8 980.05 187.55 979.75 194.3 979.5 252.3 979.25 310.3 978.95 312.75 978.95 315.15 978.95 337.3 979.25 359.4 979.5 392.9 979.75 426.35 980.05 433.6 980.05 440.9 980.05 442.55 980.05 444.15 980.05 448.75 980.05 453.3 980.05 454.15 980.05 454.95 980.05 461.15 980.05 467.35 980.05 484.9 980.05 502.45 980.05 510 980.05 517.55 980.05 525.9 980.05 534.25 980.05 544 980.05 553.7 980.05 573.65 980.05 593.65 980.05 600.65 980.05 607.65 980.05 614.7 980.05 621.7 980.05 624.1 980.05 626.55 980.05 638.15 980.05 649.75 980.05 730.15 980.05 810.6 980.05 1176.45 980.3 1542.35 980.6 1543.7 980.6 1545.05 980.6 1547.75 980.6 1550.45 980.6 1551 980.6 1551.5 980.6 1555.3 980.6 1559.1 980.6 1559.35 980.6 1559.6 980.6 1568 980.6 1576.35 980.6 1577.15 980.6 1577.95 980.6 1600.65 980.6 1623.3 980.6 1626 980.6 1628.7 980.6 1639.5 980.6 1650.3 980.6
M 1567.65 1172.7
Q 1562.2732421875 1175.9361328125 1556.7 1179.1 1528.65 1195 1493.45 1210.3 1481.1609375 1215.651171875 1468.75 1220.6
L 1426.3 1215.7
Q 1408.05 1213.6 1398.9 1212.7 1383.7 1211.25 1371.45 1210.7 1356.7 1210.1 1337.65 1210.45 1310 1210.95 1280.8 1213.2 1278.05 1213.4 1276.1 1214.6 1273.8 1216.05 1274.35 1218.1 1274.95 1220.1 1278.55 1221.05 1297.95 1226.6 1318.15 1228.2 1326.15 1228.85 1338.5 1229.1 1356.6 1229.45 1358.85 1229.55 1379.8533203125 1230.3333984375 1426.85 1236.3 1344.413671875 1264.82109375 1257.35 1277.35 1229.4 1281.4 1196.25 1284.35 1170.45 1286.65 1134.85 1288.8 1047.35 1294.05 982.2 1293.6 873.41328125 1292.797265625 766.2 1277.15 803.3048828125 1271.5419921875 841.1 1270 903.5 1267.5 965.05 1276.15 971.55 1277.05 974.75 1277.2 980.15 1277.35 984.25 1276.1 988.15 1274.8 988.9 1272.35 989.7 1269.75 987.05 1266.55 984.15 1263.05 979.35 1260.35 975.8 1258.4 970.1 1256.35 933.8 1243.35 887.2 1244.95 868 1245.6 845.35 1248.8 828.35 1251.2 803.85 1255.9 767.5322265625 1262.891796875 731 1271.6 715.6455078125 1269.007421875 700.3 1266.1 658.8 1258.25 624 1249.25 584.05 1239 549.35 1226.35 491.9298828125 1205.4701171875 430.05 1171.2 445.7453125 1171.4228515625 461.4 1171.6 482.45 1171.9 503.5 1172.15 516.75 1172.4 529.95 1172.7 543.15 1172.7 556.4 1172.7 561 1172.7 565.55 1172.7 569.35 1172.7 573.15 1172.7 613.05 1172.7 653 1172.7 658.4 1172.7 663.8 1172.7 667.05 1172.7 670.25 1172.7 672.95 1172.7 675.65 1172.7 677.3 1172.7 678.9 1172.7 691.85 1172.7 704.8 1172.7 711.3 1172.7 717.75 1172.7 722.05 1172.7 726.4 1172.7 728 1172.7 729.65 1172.7 742.85 1172.95 756.05 1173.25 759.85 1173.25 763.6 1173.25 764.95 1173.25 766.3 1173.25 769.55 1173.25 772.8 1173.25 853.75 1172.95 934.7 1172.7 941.7 1172.7 948.75 1172.7 949.8 1172.7 950.9 1172.7 952.75 1172.7 954.65 1172.7 956 1172.7 957.35 1172.7 965.45 1172.7 973.55 1172.7 1039.1 1172.7 1104.7 1172.7 1110.9 1172.7 1117.1 1172.7 1122.5 1172.7 1127.9 1172.7 1129.5 1172.7 1131.15 1172.7 1349.399609375 1172.7 1567.65 1172.7
M 970.75 1222.3
Q 955.65 1222.95 948.1 1223.1 935.5 1223.4 925.45 1222.95 901.4 1221.15 889.35 1220.7 868.4 1219.95 853.8 1223.7 851.5 1224.3 850.05 1225.35 848.2 1226.7 848.3 1228.5 848.45 1230.95 852.15 1232.5 855.9 1234 860.95 1234.3 863.95 1234.45 870 1234.15 901.8 1232.6 925.15 1234.95 929.6 1235.4 939.15 1236.6 948.3 1237.8 953.15 1238.25 963.35 1239.25 975.8 1239.6 984.55 1239.8 998.45 1239.7 1030.25 1239.5 1062.05 1237.9 1071.8 1237.45 1077.55 1236.9 1086.05 1236.15 1092.95 1234.85 1097.6 1233.95 1100.6 1232.7 1104.65 1231 1106.95 1228.3 1103.8 1225.15 1098.8 1223.3 1095 1221.9 1089.25 1221 1076.7 1219 1060.85 1218.9 1051 1218.8 1032.25 1219.65
L 970.75 1222.3
M 349.85 1066.9
Q 350.5 1069.55 355.6 1070.55
L 386.1 1076.1
Q 417.65 1081.8 433 1084.2 459.2 1088.25 480.25 1089.85 504.85 1091.75 554.75 1091.55 604.3 1091.35 629.2 1093.3 638.35 1094.05 656.65 1095.5 672.3 1096.25 683.95 1094.4 690.1 1093.35 691.4 1090.2 692.2 1088.2 691.1 1086 690.1 1083.95 688.05 1082.8 686.35 1081.85 683.9 1081.45 682.45 1081.2 679.45 1081.05 647.8 1079.7 616.35 1074.2 605.9 1072.3 600.7 1071.4 591.55 1069.85 584.95 1069.15 569.9 1067.65 549.3 1068.95 525.5 1070.95 513.6 1071.8 474.85 1074.7 436.05 1072.35 397.2 1070.05 359.2 1062.55 355.05 1061.75 353.1 1062.35 351.55 1062.8 350.6 1064.1 349.55 1065.45 349.85 1066.9
M 534.6 1111.2
Q 544.55 1111.55 564.4 1112.65 586.8 1113.6 617.15 1112.9 634.75 1112.5 670 1111.3 735.4 1109.4 775.15 1114.85 781.1 1115.7 792.9 1117.4 803.15 1118.7 810.8 1118.7 817.3 1118.8 820.85 1117 823.3 1115.8 824.75 1113.6 826.3 1111.25 826.05 1108.8 825.65 1104.35 820.35 1102.25 816.15 1100.6 810.15 1100.75
L 777.5 1101.5
Q 762.2 1101.8 755.35 1101.8 743 1101.75 733.2 1100.95 727.7 1100.55 718.6 1099.45 707.7 1098.15 704 1097.8 691.1 1096.55 674.9 1096.25 665.2 1096.05 645.75 1096.15
L 507.95 1096.95
Q 504.05 1097 502.15 1097.25 498.95 1097.7 496.75 1099 494.15 1100.55 493 1103.4 491.85 1106.4 493.3 1108.8 494.75 1111.2 498.35 1111.85 500.75 1112.25 504.9 1111.85 517.4 1110.6 534.6 1111.2
M 1430.55 1011.15
Q 1424.65 1012.3 1421.9 1014.35 1420.4 1015.4 1419.65 1016.9 1418.75 1018.6 1419.3 1020.1 1419.95 1021.9 1422.25 1022.6 1424.15 1023.15 1426.6 1022.85 1428.85 1022.6 1433.5 1021.65 1438 1020.7 1440.4 1020.45 1444.1 1020.05 1450.4 1020.25
L 1484.95 1020.95
Q 1490.35 1021.05 1493 1021.25 1496.65 1021.5 1503.5 1022.5
L 1535.35 1027.05
Q 1544.4 1028.35 1549.3 1028.3 1557.05 1028.3 1562.65 1025.65 1561 1020.4 1555.15 1017.2 1551.3 1015.1 1544.15 1013.7 1526.9 1010.25 1505.15 1009.2 1490.9 1008.5 1465.7 1008.7 1453.9 1008.8 1448.05 1009.1 1438.25 1009.65 1430.55 1011.15
M 1310.15 1039.45
Q 1309.85 1037.75 1307.5 1036.6 1305.4 1035.6 1302.5 1035.3 1300.75 1035.15 1297.25 1035.2
L 1238.7 1036.65
Q 1221.7 1037.05 1214.55 1037.35 1201.05 1037.9 1190.45 1038.8 1184 1039.3 1175.25 1040.35 1172.05 1040.75 1158.25 1042.7 1154.55 1043.25 1152.85 1043.75 1149.9 1044.55 1147.95 1046 1145.65 1047.75 1144.85 1050.5 1144 1053.4 1145.45 1055.6 1147.25 1058.4 1152.95 1059.1 1158.3 1059.65 1165.2 1059.05 1168.3 1058.8 1177.45 1057.55 1192.05 1055.65 1210.45 1054.5 1221.45 1053.8 1243.6 1052.9
L 1282.3 1051.3
Q 1291.3 1050.95 1296.4 1049.75 1304 1047.95 1308.4 1043.5 1310.5 1041.3 1310.15 1039.45
M 1409.45 1079.15
Q 1400.75 1074.65 1387.35 1069.65 1372.95 1064.3 1362.15 1062.1 1348.15 1059.25 1333.75 1060.15 1319.35 1061 1305.8 1065.5 1297.75 1068.2 1296.55 1072.9 1295.9 1075.55 1297.45 1078.2 1298.9 1080.7 1301.55 1082.1 1305.4 1084.05 1312.65 1083.55 1316.15 1083.3 1325.15 1082.05 1333 1081 1337.6 1080.85 1347.4 1080.6 1358.8 1083.4 1367.35 1085.5 1379.3 1090.1 1394.8 1096.1 1404.05 1101.6 1407.65 1103.75 1414.6 1108.25 1420.85 1112.15 1425.65 1113.85 1431.7 1116.1 1439.75 1116.7 1444.85 1117.1 1454.3 1116.9 1473 1116.55 1483.95 1115.5 1500.2 1113.95 1512.95 1110.05 1518.9 1108.25 1538.75 1100.1 1554.6 1093.6 1564.95 1091.8 1568.4 1091.2 1580.55 1090.1 1590.25 1089.2 1596 1087.6 1599.6 1086.6 1601.9 1084.75 1604.75 1082.45 1604.8 1079.5 1604.85 1076.45 1601.75 1074.1 1599.35 1072.2 1595.4 1071.1 1585.15 1068.2 1574.5 1067.8 1563.8 1067.35 1553.45 1069.5 1543.7 1071.45 1528.85 1077.25 1509.5 1084.8 1504.6 1086.35 1487.45 1091.75 1466.35 1093.45 1456.45 1094.25 1449.1 1093.85 1439.8 1093.3 1432.3 1090.7 1427.3 1089 1420.65 1085.4 1413.25 1081.15 1409.45 1079.15 Z"/>
</g>
</defs>

<g transform="matrix( 1, 0, 0, 1, 0,0) ">
<use xlink:href="#Layer1_0_FILL"/>
</g>

<g transform="matrix( 1, 0, 0, 1, 0,0) ">
<use xlink:href="#Layer0_0_FILL"/>
</g>
</svg>
