
<svg xmlns="http://www.w3.org/2000/svg" version="1.1" xmlns:xlink="http://www.w3.org/1999/xlink" preserveAspectRatio="none" x="0px" y="0px" width="2000px" height="2000px" viewBox="0 0 2000 2000">
<defs>
<g id="Layer19_0_FILL">
<path fill="#000000" stroke="none" d="
M 767.2 747.4
Q 720.7 768.3 674.05 788.1 605.95 817.05 536.6 842.2 466.1 867.75 395.95 894.4 348.95 912.4 388.1 939.1 451.75 982.45 511.5 1031.2 568.05 1077.35 623 1125.45 675.9 1171.8 733.6 1211.85 796.85 1255.8 862.2 1296.55 922.25 1334.1 979.9 1374.95 998.45 1388.05 1019.1 1382 1038.1 1376.55 1040.05 1353.25 1046.4 1276.1 1050.25 1198.65 1054 1122.5 1068.5 1047.55 1082.1 977.4 1093.8 907.05 1106.15 833 1115.15 758.7 1124.2 684.35 1112.35 612.8 1110.5 610.9 1108.35 609.45 1099.1 603.25 1088 605.6 1077.05 607.6 1067.75 613.9 1054.15 623.25 1038.6 628.35 981.25 647.35 927.8 676.95
L 767.2 747.4
M 1077.45 654.65
Q 1077.2 706.9 1072.55 759.05 1066.15 831 1054.5 902.35 1043.15 971.65 1029.55 1040.5 1014.75 1115.3 1011.5 1191.25 1008.45 1262.6 998.2 1333.35 963.9 1314.3 930.3 1294.15 874.3 1260.6 820.7 1223.2 786.2 1199.2 751.6 1175.25 700 1139.4 652.35 1098.3 545.6 1006.25 432.7 922 483.8 902.45 535.35 883.95 661.35 838.5 783.4 783.15
L 1077.45 654.65 Z"/>

<path fill="#333333" stroke="none" d="
M 1072.55 759.05
Q 1077.2 706.9 1077.45 654.65
L 783.4 783.15
Q 661.35 838.5 535.35 883.95 483.8 902.45 432.7 922 545.6 1006.25 652.35 1098.3 700 1139.4 751.6 1175.25 786.2 1199.2 820.7 1223.2 874.3 1260.6 930.3 1294.15 963.9 1314.3 998.2 1333.35 1008.45 1262.6 1011.5 1191.25 1014.75 1115.3 1029.55 1040.5 1043.15 971.65 1054.5 902.35 1066.15 831 1072.55 759.05 Z"/>
</g>

<g id="Layer19_1_FILL">
<path fill="#FFFFFF" stroke="none" d="
M 885.4 835
Q 866.55 799.05 836.35 836.9
L 709.85 985.9
Q 696.95 1001.3 683.75 1016.35 670.5 1031.4 687.5 1040 709.95 1051.4 724.95 1028.75
L 852.35 879.1
Q 856.7 935.05 858.95 991.1 859.7 1009.8 856.85 1028.25 851.2 1065.1 877.45 1083.6 885.55 1089.35 889.4 1080.05 910.55 1028.9 895.6 970.6 895.2 914.75 892.05 859 891.3 846.15 885.4 835 Z"/>
</g>

<g id="Layer19_2_FILL">
<path fill="#FFFFFF" stroke="none" d="
M 885.7 984.35
Q 889.8 977.35 883.5 973.4 840.1 946.35 782.55 950.45 739.05 953.45 759.8 986.6 764.25 989.45 769.35 990 807.35 992.5 844.45 1000.4 872.75 1006.45 885.7 984.35 Z"/>
</g>
</defs>

<g transform="matrix( 0.9958343505859375, -0.0911712646484375, 0.0911712646484375, 0.9958343505859375, 40.65,72.05) ">
<use xlink:href="#Layer19_0_FILL"/>
</g>

<g transform="matrix( 0.9958343505859375, -0.0911712646484375, 0.0911712646484375, 0.9958343505859375, 40.65,72.05) ">
<use xlink:href="#Layer19_1_FILL"/>
</g>

<g transform="matrix( 0.9958343505859375, -0.0911712646484375, 0.0911712646484375, 0.9958343505859375, 40.65,72.05) ">
<use xlink:href="#Layer19_2_FILL"/>
</g>
</svg>
