
<svg xmlns="http://www.w3.org/2000/svg" version="1.1" xmlns:xlink="http://www.w3.org/1999/xlink" preserveAspectRatio="none" x="0px" y="0px" width="2000px" height="2000px" viewBox="0 0 2000 2000">
<defs>
<g id="Layer19_0_FILL">
<path fill="#000000" stroke="none" d="
M 275.25 487.55
Q 285.1 476.05 274.45 464.9 267.25 457.35 256.6 457.6 231 458.15 207.2 468.35 181.2 479.5 159.55 497.7 135.75 517.65 119.55 544.3 104.7 568.55 97.15 596.15 89.3 624.9 92.3 654.4 95.4 684.6 119.25 703.65 143.8 723.3 173.85 732.2 203.55 740.8 234.3 739 241.1 738.55 246.95 735.35 260.1 728.2 256.45 713.3 255.3 708.7 251.4 706.1 237.25 696.75 219.7 699.5 205.6 699.8 191.55 696.5 161.5 689.5 139.55 668.25 135.15 663.95 133.65 658.05 128.25 636.35 133.35 614.05 139.75 586.35 155 562.35 171.35 536.65 196.2 519.1 210.85 508.8 227.75 503.45 243.8 498.2 260.6 495.7 269.4 494.3 275.25 487.55 Z"/>
</g>

<g id="Layer19_1_FILL">
<path fill="#000000" stroke="none" d="
M 292.85 628.85
Q 292.85 649.5 301.55 668.2 314.35 695.9 340.45 712.15 365.7 727.95 395.25 730.05 410.85 730.75 425.25 724.8 447.75 715.75 465.15 698.5 486.05 677.85 498.15 651.3 504.05 638.25 507.2 624.15 512.2 601.75 514.05 578.7 515.55 560.3 511 542.55 505.6 521.5 493.4 503.55 472.25 472.45 435.85 464.5 423.3 461.6 413.35 469.4 403.8 476.8 407.1 488.1 394.15 485.9 381.45 488.95 351.05 496.2 331.45 520.6 311.9 544.9 301.8 574.5 292.8 600.95 292.85 628.85
M 343.2 576.3
Q 354.65 548.05 378.55 530.35 393.6 526.05 409.5 528.25 423.7 530.2 437.75 532.6 451.2 534.95 456.9 523.2 464.3 531.9 469.6 542.15 473.15 548.9 473.5 556.6 474.8 583.2 470.1 609.4 467 626.75 458.1 642.05 443.2 667.85 418.5 685.15 415.6 687.2 412.3 687.95 382.55 693.85 357.85 676.05 331.1 656.6 332.75 623.7 333.95 599.05 343.2 576.3 Z"/>
</g>

<g id="Layer19_2_FILL">
<path fill="#000000" stroke="none" d="
M 708.95 533.55
Q 709.65 518.25 697.85 509.65 694.2 507.05 690.05 506.65 686.4 506.2 683 507.4 668.75 512.65 668.75 528.25 668.65 589.2 664.65 650.15 651.5 626.55 639.5 602.3 627.55 578.25 617.1 553.15 608.05 531.5 598.3 510.25 591.75 495.95 576.35 497.95 571.5 498.45 568.05 502.05 555.8 514.85 556 533.45 552.95 565.4 547.75 597.05 538.5 653.7 524.9 709.5 524.05 713 521.7 715.8 516.3 722.35 514.6 730.4 513.75 734.35 514.7 738.4 515.45 741.45 517.2 744.15 523.2 753.3 534.25 752.2 546.15 751.55 553.6 742.55 563.25 730.95 566.35 715.8 579.05 653.1 589.7 591.35 625.1 659 655.5 729.1 660.15 739.85 668.75 747.65 675 753.25 683.4 752.5 696.65 751.15 701.45 738.75 705.35 728.7 705.25 717.75 704.4 639.4 707.7 561.05 708.3 547.3 708.95 533.55 Z"/>
</g>

<g id="Layer19_3_FILL">
<path fill="#000000" stroke="none" d="
M 862.2 493.5
Q 859.7 493.25 857.25 493 841.25 494.35 825.25 494.4 787.55 494.6 749.9 494.25 741.05 494.15 733.15 497.75 720.15 503.55 722.05 517.5 723.05 524.9 729.15 529 737.9 534.9 748.6 534.65 782.8 533.9 817 534.4 840.65 534.75 864.1 531.4 871.7 530.5 876.05 524.3 885.8 510.4 873.7 498.3 868.7 494.4 862.2 493.5 Z"/>
</g>

<g id="Layer19_4_FILL">
<path fill="#000000" stroke="none" d="
M 821.8 506.35
Q 820 500.95 815.3 497.3 809.8 492.95 802.8 493.9 784.3 496.8 781.55 516 777.3 545.85 775.4 575.95 773.75 601.9 773.3 628.1 772.85 654.95 773.25 681.7 773.4 692.7 772 703.55 770.25 717 773.2 730 775.05 738.1 782.5 741.4 796.05 747.5 805.85 736.45 810.35 731.4 810.9 724.6 813.4 693.75 813 662.95 812.65 634.15 813.65 605.35 814.55 578.6 817.75 552.15 818.4 546.85 819.6 541.7 823.9 523.9 821.8 506.35 Z"/>
</g>

<g id="Layer19_5_FILL">
<path fill="#000000" stroke="none" d="
M 945.2 541.2
Q 945.5 523.45 936.55 508.8 934.1 506.05 930.85 504.55 920.05 499.7 910.65 507.3 902.65 513.85 903.45 524.35 905.2 547.8 906.15 571.3 907.3 599.4 904.9 627.3 902.3 657.75 895.65 687.3 893.05 698.9 899.2 708.7 904.55 717.25 914.65 717.1 927.3 716.9 932.2 705.55 936.8 694.9 938.45 683.3 942.85 652.9 944.8 622.3 946.7 591.9 945.45 561.45 945 551.3 945.2 541.2 Z"/>
</g>

<g id="Layer19_6_FILL">
<path fill="#000000" stroke="none" d="
M 1176.4 486.7
Q 1161.7 474.1 1147.45 487.35 1140.15 499.7 1142.35 514.4
L 1152.45 695.35
Q 1148.3 687.6 1144.2 679.85 1128.9 651.05 1113.15 622.6 1099.65 598.3 1085.5 574.3 1062.7 535.65 1034.9 500.5 1029.4 493.6 1020.75 492.95 1014.9 493.15 1010.85 497.1 996.2 511.1 999.05 532.2
L 1001.35 719.9
Q 1002 734.25 999.45 748.35 998 756.3 997.4 764.35 997 769.95 999.95 774.7 1006.35 784.95 1018.55 783.8 1026.15 782.8 1031.15 776.95 1043.2 762.9 1040.9 743.65
L 1039.55 574.55 1146.4 763.4
Q 1149.75 769.7 1154.5 775.1 1160.85 782.2 1170 780.85 1182.45 779.3 1187.8 768.15 1194.55 754.2 1194.15 738.5 1193.4 708.5 1191.6 678.5 1189.8 648.25 1187.6 618 1185.6 590.3 1184.5 562.7 1183.85 547 1184.3 531.2 1184.8 513.25 1181.65 495.8 1180.65 490.35 1176.4 486.7 Z"/>
</g>

<g id="Layer19_7_FILL">
<path fill="#000000" stroke="none" d="
M 1369.6 531.65
Q 1369.8 522.55 1365.35 514.65 1359.05 503.6 1346.25 506.1 1333.05 508.6 1330.95 522.25 1328.4 538.8 1328.7 555.6 1329.55 601 1320.15 645.35 1312.65 680.6 1286 703.75 1278.9 689.25 1271.7 674.65 1258.25 647.35 1254.45 617.05 1250.6 586.45 1251.75 555.6 1252.85 525.65 1251.1 495.6 1250.65 488.1 1246.85 481.75 1238.35 467.65 1222.85 473.35 1218.25 475.05 1215.75 479.25 1208.5 491.55 1211.35 506.1 1212.8 522.05 1212.65 538 1212.4 563.45 1212.45 589 1212.5 619.5 1220.75 648.65 1230.8 684.3 1247.85 717.15 1257.6 736 1276.6 745 1289.8 751.25 1302.05 743.45 1314.9 735.25 1324.5 723.25 1356.4 683.45 1363 633.2 1366.5 606.75 1367.85 580.3 1369.05 556 1369.6 531.65 Z"/>
</g>

<g id="Layer19_8_FILL">
<path fill="#000000" stroke="none" d="
M 1453.2 507.65
Q 1451.6 500.2 1444.95 496.5 1430.55 488.6 1420.15 501.3 1416.8 505.35 1416.7 510.45 1416.25 541.15 1411.2 571.55 1406.15 601.95 1397.9 631.8 1389.7 661.35 1383.25 691.35 1377.55 717.85 1374.5 744.85 1373.95 749.7 1376 754.25 1381 765.45 1393.6 764.3 1414.45 761.9 1435.15 759.1 1465.15 755.35 1494.95 749.75 1505.55 747.95 1514.4 742.15 1524.65 735.4 1521.95 723.4 1518.4 707.6 1501.8 707.85 1488.6 708.95 1475.65 712.35 1447.6 719.5 1418.6 720.75 1418.8 719.45 1419 718.15 1424 688.25 1431.85 658.95 1439.6 629.85 1446.45 600.4 1452.75 573.2 1455.4 545.15 1457.2 526.1 1453.2 507.65 Z"/>
</g>

<g id="Layer19_9_FILL">
<path fill="#000000" stroke="none" d="
M 1416.2 601.35
Q 1408.85 603.7 1405.7 610.85 1398.8 626.7 1413.2 635.95 1421.55 639.45 1430.65 639.3 1470.4 638.65 1510.2 639.35 1523.5 639.6 1535.45 634.25 1540.9 631.75 1543.55 626.5 1551.3 611.35 1537.05 601.5 1533.1 598.85 1528.35 598.85 1513 598.85 1497.75 599 1465.1 599.3 1432.45 599 1424.15 598.9 1416.2 601.35 Z"/>
</g>

<g id="Layer19_10_FILL">
<path fill="#000000" stroke="none" d="
M 1570.1 489.8
Q 1567 488.05 1563.7 487.45 1543.85 486.8 1524.15 485.05 1486.05 482.65 1448 479.55 1443.6 479.2 1439.4 479.15 1429.2 478.5 1421.2 484.65 1412.65 491.1 1414.7 501.65 1417.3 514.75 1430.6 517 1441.8 518.9 1453.2 519.4 1483.55 521.65 1513.8 524.35 1522.95 525 1532.1 526 1552.2 528.8 1571.05 523.3 1577.7 519.6 1579.6 512.3 1583.55 497.25 1570.1 489.8 Z"/>
</g>

<g id="Layer19_11_FILL">
<path fill="#000000" stroke="none" d="
M 2086.65 88.95
Q 2085.5 81.15 2081.25 74.45 2074.8 64.25 2062.2 64.2 2042.35 62.75 2022.55 61.35 1995 59.45 1967.4 57.8 1937.9 56.05 1908.3 55.5 1879.1 55 1849.8 56.2 1822.5 57.05 1795.1 58.75 1766.35 60.4 1737.65 62.55 1707.05 64.7 1676.45 66.55 1648.1 68.15 1619.75 68.8 1589.35 69.5 1559.05 69.45 1529.3 69.4 1499.6 69.05 1488.6 68.9 1477.8 71.35 1466.6 74 1465.15 85.65 1463.25 101 1463.65 116.4 1464.35 145.65 1464.6 175 1464.85 204.4 1465.3 233.6 1465.75 260.95 1466.4 288.15 1467.1 316.85 1468.7 345.6 1469.7 363.35 1486 368.9 1493.3 371.3 1500.9 371.55 1572.35 376.55 1643.85 380.75 1648.9 381.3 1649.9 386.2 1651.4 393.35 1651.15 401 1650.1 429.6 1647.9 457.85 1645.65 486.2 1641.8 514.35 1637.9 542.55 1632.3 570.5 1628 591.7 1624.65 612.95 1619.9 642.65 1620.15 672.95 1620.4 701.2 1620.05 729.4 1619.9 739.15 1623.7 747.95 1628 757.85 1638.4 760.1 1665.35 766.15 1693.05 769.65 1723.55 773.1 1754.15 774.65 1783.05 775.65 1811.95 774.55 1839 773.55 1866.05 771.6 1893.55 769.6 1921.15 767.5 1951.6 765.1 1981.95 764.8 2011.9 764.55 2041.75 762 2058.95 760.35 2072.65 749.95 2077.8 746.1 2079.85 740.05 2085.55 723.25 2086.45 705.3 2087.9 675.65 2088.15 646.1 2088.35 617.4 2088.5 588.7 2088.7 558.2 2090 527.8 2091.25 498.9 2092.8 470.1 2094.4 440.05 2095.7 410.05 2097 380 2097.55 350.05 2098.1 321.25 2098.2 292.3 2098.3 262.1 2098.1 231.95 2097.9 201.9 2097.6 171.9 2097.4 153.3 2094.15 135.05 2090.1 112.1 2086.65 88.95
M 2043.85 103.9
Q 2045.95 104.3 2046.75 106.15 2051.8 117.55 2053.65 130.2 2056.1 146.85 2057.25 163.9 2058.4 181.35 2058.35 198.75 2058.35 213.25 2058.45 227.65 2058.7 265.55 2058.5 303.45 2058.2 356.6 2055.95 409.8 2055.15 429.4 2054.1 449.05 2052.15 486.2 2050.4 523.4 2049.4 545 2049.45 566.6 2049.55 626.2 2047.15 685.85 2046.65 698.05 2045.25 710.35 2044.75 714.65 2042.1 718.25 2039 722.4 2033.6 722.55 1972.8 724.35 1911.95 727.85 1902.2 728.6 1892.3 729.65 1883.6 730.4 1875.1 731.35 1870.2 731.8 1865.3 732.25 1818.05 736.7 1770.75 735.5 1715.1 734.1 1660.05 724.9 1659.7 700.15 1659.9 675.45 1660.15 645.85 1664.15 616.6 1665.95 605.75 1668.25 594.8 1688.7 498.8 1690.2 400.4 1690.45 385.65 1690.15 370.8 1690.05 364.9 1688.3 359.35 1686.5 353.75 1681.75 350.4 1669.7 341.95 1654.7 342.1 1580.9 338.95 1507.25 331.95
L 1503.6 109.4
Q 1559.05 109.7 1614.3 108.55 1692.9 106.95 1771.3 100.7 1777.2 100.3 1783.05 99.85 1798.1 98.5 1813.35 97.35 1842.8 95.05 1872.35 95.1 1958.15 95.25 2043.85 103.9 Z"/>

<path fill="#333333" stroke="none" d="
M 2046.75 106.15
Q 2045.95 104.3 2043.85 103.9 1958.15 95.25 1872.35 95.1 1842.8 95.05 1813.35 97.35 1798.1 98.5 1783.05 99.85 1777.2 100.3 1771.3 100.7 1692.9 106.95 1614.3 108.55 1559.05 109.7 1503.6 109.4
L 1507.25 331.95
Q 1580.9 338.95 1654.7 342.1 1669.7 341.95 1681.75 350.4 1686.5 353.75 1688.3 359.35 1690.05 364.9 1690.15 370.8 1690.45 385.65 1690.2 400.4 1688.7 498.8 1668.25 594.8 1665.95 605.75 1664.15 616.6 1660.15 645.85 1659.9 675.45 1659.7 700.15 1660.05 724.9 1715.1 734.1 1770.75 735.5 1818.05 736.7 1865.3 732.25 1870.2 731.8 1875.1 731.35 1883.6 730.4 1892.3 729.65 1902.2 728.6 1911.95 727.85 1972.8 724.35 2033.6 722.55 2039 722.4 2042.1 718.25 2044.75 714.65 2045.25 710.35 2046.65 698.05 2047.15 685.85 2049.55 626.2 2049.45 566.6 2049.4 545 2050.4 523.4 2052.15 486.2 2054.1 449.05 2055.15 429.4 2055.95 409.8 2058.2 356.6 2058.5 303.45 2058.7 265.55 2058.45 227.65 2058.35 213.25 2058.35 198.75 2058.4 181.35 2057.25 163.9 2056.1 146.85 2053.65 130.2 2051.8 117.55 2046.75 106.15 Z"/>
</g>

<g id="Layer19_12_FILL">
<path fill="#FFFFFF" stroke="none" d="
M 2005.25 215.95
Q 1998.7 210.8 1990.35 212.45 1977.15 215.05 1974.55 228.6 1974.1 230.95 1974.3 233.25 1977.8 269.95 1976.75 306.75 1906.15 306.15 1835.55 306 1816.25 305.95 1797.2 302.9 1785.65 301.35 1774.5 303.3 1760.1 305.9 1757.75 319.85 1756.65 326.2 1760.35 331.55 1767.45 341.8 1780.15 343 1810.8 345.5 1841.45 345.6 1915.15 345.85 1988.9 346.65 1992.4 346.7 1995.75 346.45 2014.4 345.6 2015.4 327.1 2017.05 296.4 2016.15 265.65 2015.9 256.15 2016 246.35 2016.2 228.7 2005.25 215.95 Z"/>
</g>

<g id="Layer19_13_FILL">
<path fill="#FFFFFF" stroke="none" d="
M 1738.1 281.75
Q 1736.85 282.5 1735.55 283.2 1725.6 288.95 1721.25 299.55 1718.45 306.25 1721.05 312.6 1724.4 320.85 1732.05 325.85 1773.2 352.3 1813.85 379.55 1822.1 385.05 1831.45 387.95 1840.3 390.65 1847.85 385.45 1860.45 376.8 1854.95 362.15 1853.75 359.05 1851.1 357.15 1815.35 332.35 1778.8 308.5 1792 301.2 1806.1 296.25 1817.45 292.25 1822.3 281.55 1825.55 274.35 1821.7 267.65 1811.95 250.75 1793.65 258.45 1765.8 270.05 1738.1 281.75 Z"/>
</g>
</defs>

<g transform="matrix( 0.904541015625, 0, 0, 0.90447998046875, 28.65,532.9) ">
<use xlink:href="#Layer19_0_FILL"/>
</g>

<g transform="matrix( 0.904541015625, 0, 0, 0.90447998046875, 28.65,532.9) ">
<use xlink:href="#Layer19_1_FILL"/>
</g>

<g transform="matrix( 0.904541015625, 0, 0, 0.90447998046875, 28.65,532.9) ">
<use xlink:href="#Layer19_2_FILL"/>
</g>

<g transform="matrix( 0.904541015625, 0, 0, 0.90447998046875, 28.65,532.9) ">
<use xlink:href="#Layer19_3_FILL"/>
</g>

<g transform="matrix( 0.904541015625, 0, 0, 0.90447998046875, 28.65,532.9) ">
<use xlink:href="#Layer19_4_FILL"/>
</g>

<g transform="matrix( 0.904541015625, 0, 0, 0.90447998046875, 28.65,532.9) ">
<use xlink:href="#Layer19_5_FILL"/>
</g>

<g transform="matrix( 0.904541015625, 0, 0, 0.90447998046875, 28.65,532.9) ">
<use xlink:href="#Layer19_6_FILL"/>
</g>

<g transform="matrix( 0.904541015625, 0, 0, 0.90447998046875, 28.65,532.9) ">
<use xlink:href="#Layer19_7_FILL"/>
</g>

<g transform="matrix( 0.904541015625, 0, 0, 0.90447998046875, 28.65,532.9) ">
<use xlink:href="#Layer19_8_FILL"/>
</g>

<g transform="matrix( 0.904541015625, 0, 0, 0.90447998046875, 28.65,532.9) ">
<use xlink:href="#Layer19_9_FILL"/>
</g>

<g transform="matrix( 0.904541015625, 0, 0, 0.90447998046875, 28.65,532.9) ">
<use xlink:href="#Layer19_10_FILL"/>
</g>

<g transform="matrix( 0.904541015625, 0, 0, 0.90447998046875, 28.65,532.9) ">
<use xlink:href="#Layer19_11_FILL"/>
</g>

<g transform="matrix( 0.904541015625, 0, 0, 0.90447998046875, 28.65,532.9) ">
<use xlink:href="#Layer19_12_FILL"/>
</g>

<g transform="matrix( 0.904541015625, 0, 0, 0.90447998046875, 28.65,532.9) ">
<use xlink:href="#Layer19_13_FILL"/>
</g>
</svg>
