
<svg xmlns="http://www.w3.org/2000/svg" version="1.1" xmlns:xlink="http://www.w3.org/1999/xlink" preserveAspectRatio="none" x="0px" y="0px" width="2000px" height="2000px" viewBox="0 0 2000 2000">
<defs>
<g id="Layer17_0_FILL">
<path fill="#000000" stroke="none" d="
M 1300.9 1037.75
Q 1300.45 1034.7 1298.8 1027 1289.4 983.5 1284.05 938.75 1283.3 932.1 1281.9 928.35 1279.9 922.8 1275.85 920.45 1272.4 918.4 1267.45 918.85 1263.7 919.2 1258.65 921.05 1244.15 926.35 1217.3 942.6 1190.65 958.7 1175.85 963.95 1174.3 964.5 1165.05 967.5 1158.45 969.6 1154.35 971.4 1148.55 973.95 1145.75 977.1 1143.95 979.15 1143.15 981.6 1142.35 984.3 1142.95 986.7 1143.55 989.05 1145.5 991 1147.3 992.8 1149.8 993.85 1151.8 994.75 1154.65 995.4 1155.7 995.65 1159.7 996.35 1172.25 998.75 1183.85 1004.25 1186 1005.3 1190.35 1007.35 1191.349609375 1007.783984375 1192.3 1008.15 1185.250390625 1030.907421875 1174.55 1049.5 1162.3 1070.75 1145.75 1085.55 1127.85 1101.55 1105.7 1108.9 1082.35 1116.65 1060.1 1112.7 1046.35 1110.25 1039.65 1103.45 1036.1 1099.95 1033.6 1094.45 1031.75 1090.35 1030.1 1084.05 1027.3 1073.55 1025.55 1060.7 1024.2 1051 1023.15 1036.95 1015.65 939.45 1030.2 842.4 1031.099609375 841.915625 1033.6 841.25 1036.150390625 842.3486328125 1039.9 842.95 1051.75 844.9 1070 843.95 1098.55 842.45 1100.3 842.45 1107.1 842.45 1127.05 843.7 1143.75 844.75 1153.7 844.1 1157.95 843.85 1160.7 843 1164.45 841.85 1166.5 839.45 1168.95 836.65 1169.4 831.75 1169.55 830.05 1169.3 823 1169.1 818.45 1169.55 812.75 1169.8 809.65 1170.65 802.45
L 1173.5 779.3
Q 1174.1 774.4 1173.65 771.3 1173 766.9 1170.25 764.75 1168.7 763.55 1166.3 763 1164.7 762.65 1161.85 762.45 1138.65 760.8 1109.6 760.45 1092.15 760.2 1057.25 760.4 1044.2 760.5 1037.9 761.95 1035.986328125 754.1974609375 1037.35 746.2 1037.4728515625 746.1787109375 1037.6 746.15 1039.45 745.7 1042.25 744.35 1049.25 740.9 1053.5 738.55 1059.55 735.15 1064.1 731.75 1075.3 723.4 1083 711 1090.55 698.9 1093.5 684.9 1096.4 671.25 1094.75 656.8 1093.1 642.7 1087.4 629.55 1081.9 617 1073.4 607.05 1064.4 596.5 1053.1 590.2 1044.5 585.45 1032.55 582.1 1013.15 576.6 994 576.6 973.7 576.55 955.8 582.75 936.95 589.3 922.25 602.3 907 615.8 899.6 633.45 891.65 652.25 892.25 677.65 892.45 688.75 894.7 696.4 897.9 707.1 906.55 717.05 912.85 724.35 920.7 729.7 928.8 735.15 937.75 737.95 939.68828125 738.56328125 941.45 738.9 941.198046875 740.681640625 941.15 744.05 941.1 747.6 940.85 749.25 940.5 751.6 939.2 756.25 938.3 760.4 939.1 763.15
L 830.35 759.6
Q 825.95 759.45 823.45 759.9 819.7 760.5 817.5 762.6 814.8 765.15 814.25 770 814 772.45 814.4 778.75 814.75 784 814.35 790.5 814.1 794.4 813.3 802.2
L 810.35 830.75
Q 809.75 836.5 810.3 839.95 811 844.95 814.1 847.55 817.15 850.15 822.3 850.05 825.45 850 831.4 848.65 840.2 846.65 851.3 845.15 858.35 844.15 871.35 842.8
L 934.3 836.05
Q 937.8 835.7 939.7 835.35 939.859765625 835.3169921875 940 835.25 939.8998046875 839.7017578125 940.05 844.6 940.3 852.25 941.3 867.45 942.35 888.65 941.05 915.2 940.25 931.2 937.6 962.9
L 932.35 1025.75
Q 930.85 1043.45 929.55 1052.4 927.4 1067.1 923.65 1078.4 921.15 1085.8 917.95 1090.8 913.95 1097.05 908.55 1100.1 897.6 1106.3 880.25 1100.55 869.05 1096.8 857.6 1089.35 848.2 1083.25 837.5 1073.8 818.3 1056.95 802.35 1036.8 786.4 1016.7 774.35 994.2 773.259765625 992.1681640625 772.25 990.65 780.323828125 986.036328125 780.65 985.85 786.2 982.95 790.8 981.95 792.2 981.65 797.15 981.05 801.1 980.6 803.4 979.85 806.7 978.85 809 976.6 811.5 974.15 811.7 971.1 811.9 967.5 808.75 964.2 806.45 961.8 802 959.25
L 731.2 918.6
Q 720.4 912.4 715.45 908.6 710.15 904.6 707.8 903.4 703.2 901.05 699.4 902.2 696.55 903.05 694.2 906 692.65 907.95 690.7 911.8
L 646.6 998.1
Q 644.15 1003 643.55 1006.45 642.7 1011.3 645.2 1014.25 648.05 1017.65 653.85 1017.4 655.8 1017.3 658.5 1016.7 660.05 1016.35 663.15 1015.55 666.85 1014.7 672.4 1014.1 675.55 1013.75 681.75 1013.1 686.3 1012.5 689.25 1011.55 693.25 1010.3 695.85 1008 697.3583984375 1006.670703125 698.3 1005 699.92578125 1024.4111328125 707.1 1046.15 713.25 1064.95 725.7 1091 742.95 1127.1 759.45 1149.55 781.25 1179.3 807.7 1194.6 821.55 1202.65 853.15 1213.65 883.95 1224.45 898.35 1233.15 923.05 1248.15 942.25 1275.9 958.15 1298.9 970.8 1331.5 972.35 1335.35 973.65 1337.25 975.7 1340.15 978.45 1340.8 982.95 1341.9 986.5 1337 989.1 1333.4 991 1327 1003.95 1281.75 1062.65 1246.05 1068.3 1242.6 1111.2 1219.2 1140.7 1203.1 1157.8 1189.6 1189.45 1164.5 1215.15 1122.75 1233.85 1092.35 1255.05 1042.5 1255.958203125 1040.380859375 1256.55 1038.75
L 1268.95 1046.85
Q 1278.45 1053.15 1284.8 1056.8 1288.25 1058.75 1290.75 1059.4 1294.2 1060.25 1296.7 1058.95 1301.3 1056.6 1301.6 1048.6 1301.85 1043.8 1300.9 1037.75
M 943.2 611.45
Q 954.75 603.7 968.7 600.25 994.05 593.95 1024 601.75 1041.7 606.35 1052 614.55 1063.55 623.8 1070.4 640.7 1075.25 652.55 1076.35 664.7 1077.55 677.55 1074.4 689.25 1071.15 701.45 1063.35 711.25 1055.2 721.4 1044.15 726.45 1039.7 728.35 1037.55 729.4 1033.85 731.25 1031.85 733.55 1030.7728515625 734.803125 1030.2 736.25 1028.7955078125 737.2599609375 1028.05 738.9 1027.2 740.7 1027 743.25 1026.95 743.75 1026.9 747.85 1026.85 756.6 1023.95 764.85 1022.95 767.8 1022.7 768.8 1022.2 771.05 1022.7 772.8 1023.2 774.65 1024.85 776.1 1026.4 777.45 1028.45 778.05 1030.15 778.6 1032.45 778.65 1033.65 778.7 1036.55 778.6 1096.65 775.9 1157.6 779.55 1156.2 782.4 1155.7 786.45 1155.55 787.7 1155.15 793.75 1154.8 799.2 1153.5 810 1152.55 819.7 1153.35 826.2 1145.55 827.2 1134.2 826.35 1121.4 825.1 1115 824.7 1104.5 824.1 1080.5 825.2 1059.8724609375 826.1271484375 1047.9 825.2 1046.3890625 823.7056640625 1044.3 822.9 1041.35 821.75 1037.3 821.9 1034.85 822 1030.15 822.8 1024.95 823.7 1022.1 824.7 1017.8 826.3 1015.45 829.1 1013.75 831.2 1012.75 834.4 1012.15 836.55 1011.55 840.4 994.3 953.95 1008.1 1068.1 1009.35 1078.35 1010.65 1084.8 1012.45 1093.85 1015.25 1100.9 1018.6 1109.2 1023.7 1115.55 1029.3 1122.5 1036.4 1126.25 1043.1 1129.8 1052.45 1131.05 1058.65 1131.9 1069.55 1131.95 1081.7 1131.95 1089.1 1131.35 1099.85 1130.45 1108.3 1128 1122.85 1123.85 1137.45 1113.3 1148.75 1105.15 1162.25 1091.35 1173.8 1079.65 1179.55 1070.75 1182.75 1065.95 1185.95 1059.4 1187.85 1055.65 1191.45 1047.55
L 1208.75 1008.7
Q 1209.369140625 1007.3248046875 1209.8 1006.05 1210.0451171875 1005.81328125 1210.25 1005.55 1211.85 1003.55 1212.2 1000.8 1212.55 998.1 1211.5 995.7 1209.25 990.65 1200.8 987.75 1196.4 986.35 1194.3 985.5 1190.6 984.05 1188.35 982.15 1197.55 978.4 1202.3 976.3 1209.9 972.95 1215.8 969.7 1224.05 965.15 1239.95 954.65 1254.35 945.8 1265.5 943.05
L 1282.4 1037.05 1258.5 1024.6
Q 1255.3806640625 1022.9716796875 1253 1022.55 1251.48828125 1021.7892578125 1249.8 1021.9 1246.55 1022.1 1244 1025.4 1242.15 1027.75 1240.5 1032.05 1220.1 1084.5 1196.8 1120.05 1167.5 1164.65 1129.9 1189.3 1117.85 1197.2 1094.8 1208.85 1069.5 1221.55 1059.3 1227.75 1033.8 1243.2 1012.9 1264.9 992.05 1286.6 977.55 1312.65 959.95 1278.9 943.85 1258.3 922.2 1230.75 896.75 1217.2 885 1210.95 862 1203.25 837.2 1195 826.9 1190.05 801.55 1177.85 780.2 1154.95 761 1134.4 746.3 1106.6 734.15 1083.65 723.3 1052.4 717.75 1036.4 705.65 996 705.1 994.35 704.6 993.5 703.85 992.2 702.7 991.85 700.45 991.2 699.05 993.8 698.7814453125 994.303515625 698.55 994.85 698.445703125 994.6421875 698.3 994.45 696.2 991.75 692.2 991.05 688.8 990.5 684.8 991.45 680.05 992.8 677.7 993.4 673.5 994.4 670.5 994.1 686.55 960.1 705.1 926.1
L 782.3 969.8
Q 771.95 974.15 762.5 980.35 759.35 982.45 757.7 984.7 755.8125 987.3701171875 756.45 989.85 755.0783203125 992.4423828125 755.15 995.45 755.3 999.05 757.3 1003.1 758.55 1005.7 761.55 1010 776.15 1031.25 784.05 1041.9 796.95 1059.25 808.75 1072 838.65 1104.2 871.25 1117.6 880.15 1121.25 887.55 1122.55 896.6 1124.05 904.25 1122.2 913.8 1119.85 921.7 1112.1 928.9 1105 933.25 1095 936.9 1086.6 938.9 1075.3 940.15 1068.5 941.55 1054.85 948.95 982.6 951.2 946 954.9 885.45 952 836.95 951.65 831.35 951.15 828.3 951.0501953125 827.7076171875 950.9 827.1 951.1611328125 826.4060546875 951.25 825.65 951.6 822.25 949.2 819.15 946.9 816.25 943.35 815.05 940.35 814 936.35 814 934.05 814 929.2 814.5
L 832.25 825.5 835.35 782.45
Q 870.05 783.7 888.05 783.75 917.3 783.85 940.7 781.8 944.8 781.4 947.2 780.55 950.6 779.3 951.95 776.75 953 774.9 952.9 772 952.9 771.65 952.4 766.95 951.8 761.15 953.7 749.85 955.026171875 742.029296875 955.2 736.9 956.85234375 735.6533203125 958 733.75 960.1 730.15 958.9 726.75 957.8 723.65 954.05 721.55 951.85 720.3 946.9 718.75 928.85 713.2 920.7 703.1 914.9 695.95 912.9 685.45 911.15 676.55 912.25 665.7 914.3 645.7 923.65 631.05 931.05 619.6 943.2 611.45
M 963.75 643.5
Q 956.9 650.2 956.15 661.15 955.4 671.25 959.95 680.75 964.9 691.05 972.9 695.4 979.35 698.9 987.75 698.5 995.2 698.2 1003.05 694.95 1016.3 689.6 1022.65 680.3 1027.85 672.75 1029.25 661 1031 645.65 1024.7 635.5 1018.9 626.1 1007.1 623.35 995.3 620.6 985.9 626.4 983.55 627.85 980.15 630.75 975.75 634.5 974.6 635.35 974.1 635.7 969.05 639.25 965.65 641.6 963.75 643.5
M 969.4 666.9
Q 968.6 660.6 970.4 656.6 972.35 652.25 977.9 649.2 980.05 648.05 988.25 644.85 992.15 643.35 992.65 643.2 995.15 642.4 997.2 642.25 1002.15 641.9 1006.5 645.3 1010.7 648.6 1012.1 653.6 1013.4 658.4 1011.95 663.55 1010.55 668.5 1007.1 672.45 1000.95 679.5 989.7 682.25 983.05 683.9 978.8 682.25 974.7 680.6 972.2 676.05 970.05 672.15 969.4 666.9 Z"/>

<path fill="#612406" stroke="none" d="
M 968.7 600.25
Q 954.75 603.7 943.2 611.45 931.05 619.6 923.65 631.05 914.3 645.7 912.25 665.7 911.15 676.55 912.9 685.45 914.9 695.95 920.7 703.1 928.85 713.2 946.9 718.75 951.85 720.3 954.05 721.55 957.8 723.65 958.9 726.75 960.1 730.15 958 733.75 956.85234375 735.6533203125 955.2 736.9 955.026171875 742.029296875 953.7 749.85 951.8 761.15 952.4 766.95 952.9 771.65 952.9 772 953 774.9 951.95 776.75 950.6 779.3 947.2 780.55 944.8 781.4 940.7 781.8 917.3 783.85 888.05 783.75 870.05 783.7 835.35 782.45
L 832.25 825.5 929.2 814.5
Q 934.05 814 936.35 814 940.35 814 943.35 815.05 946.9 816.25 949.2 819.15 951.6 822.25 951.25 825.65 951.1611328125 826.4060546875 950.9 827.1 951.0501953125 827.7076171875 951.15 828.3 951.65 831.35 952 836.95 954.9 885.45 951.2 946 948.95 982.6 941.55 1054.85 940.15 1068.5 938.9 1075.3 936.9 1086.6 933.25 1095 928.9 1105 921.7 1112.1 913.8 1119.85 904.25 1122.2 896.6 1124.05 887.55 1122.55 880.15 1121.25 871.25 1117.6 838.65 1104.2 808.75 1072 796.95 1059.25 784.05 1041.9 776.15 1031.25 761.55 1010 758.55 1005.7 757.3 1003.1 755.3 999.05 755.15 995.45 755.0783203125 992.4423828125 756.45 989.85 755.8125 987.3701171875 757.7 984.7 759.35 982.45 762.5 980.35 771.95 974.15 782.3 969.8
L 705.1 926.1
Q 686.55 960.1 670.5 994.1 673.5 994.4 677.7 993.4 680.05 992.8 684.8 991.45 688.8 990.5 692.2 991.05 696.2 991.75 698.3 994.45 698.445703125 994.6421875 698.55 994.85 698.7814453125 994.303515625 699.05 993.8 700.45 991.2 702.7 991.85 703.85 992.2 704.6 993.5 705.1 994.35 705.65 996 717.75 1036.4 723.3 1052.4 734.15 1083.65 746.3 1106.6 761 1134.4 780.2 1154.95 801.55 1177.85 826.9 1190.05 837.2 1195 862 1203.25 885 1210.95 896.75 1217.2 922.2 1230.75 943.85 1258.3 959.95 1278.9 977.55 1312.65 992.05 1286.6 1012.9 1264.9 1033.8 1243.2 1059.3 1227.75 1069.5 1221.55 1094.8 1208.85 1117.85 1197.2 1129.9 1189.3 1167.5 1164.65 1196.8 1120.05 1220.1 1084.5 1240.5 1032.05 1242.15 1027.75 1244 1025.4 1246.55 1022.1 1249.8 1021.9 1251.48828125 1021.7892578125 1253 1022.55 1255.3806640625 1022.9716796875 1258.5 1024.6
L 1282.4 1037.05 1265.5 943.05
Q 1254.35 945.8 1239.95 954.65 1224.05 965.15 1215.8 969.7 1209.9 972.95 1202.3 976.3 1197.55 978.4 1188.35 982.15 1190.6 984.05 1194.3 985.5 1196.4 986.35 1200.8 987.75 1209.25 990.65 1211.5 995.7 1212.55 998.1 1212.2 1000.8 1211.85 1003.55 1210.25 1005.55 1210.0451171875 1005.81328125 1209.8 1006.05 1209.369140625 1007.3248046875 1208.75 1008.7
L 1191.45 1047.55
Q 1187.85 1055.65 1185.95 1059.4 1182.75 1065.95 1179.55 1070.75 1173.8 1079.65 1162.25 1091.35 1148.75 1105.15 1137.45 1113.3 1122.85 1123.85 1108.3 1128 1099.85 1130.45 1089.1 1131.35 1081.7 1131.95 1069.55 1131.95 1058.65 1131.9 1052.45 1131.05 1043.1 1129.8 1036.4 1126.25 1029.3 1122.5 1023.7 1115.55 1018.6 1109.2 1015.25 1100.9 1012.45 1093.85 1010.65 1084.8 1009.35 1078.35 1008.1 1068.1 994.3 953.95 1011.55 840.4 1012.15 836.55 1012.75 834.4 1013.75 831.2 1015.45 829.1 1017.8 826.3 1022.1 824.7 1024.95 823.7 1030.15 822.8 1034.85 822 1037.3 821.9 1041.35 821.75 1044.3 822.9 1046.3890625 823.7056640625 1047.9 825.2 1059.8724609375 826.1271484375 1080.5 825.2 1104.5 824.1 1115 824.7 1121.4 825.1 1134.2 826.35 1145.55 827.2 1153.35 826.2 1152.55 819.7 1153.5 810 1154.8 799.2 1155.15 793.75 1155.55 787.7 1155.7 786.45 1156.2 782.4 1157.6 779.55 1096.65 775.9 1036.55 778.6 1033.65 778.7 1032.45 778.65 1030.15 778.6 1028.45 778.05 1026.4 777.45 1024.85 776.1 1023.2 774.65 1022.7 772.8 1022.2 771.05 1022.7 768.8 1022.95 767.8 1023.95 764.85 1026.85 756.6 1026.9 747.85 1026.95 743.75 1027 743.25 1027.2 740.7 1028.05 738.9 1028.7955078125 737.2599609375 1030.2 736.25 1030.7728515625 734.803125 1031.85 733.55 1033.85 731.25 1037.55 729.4 1039.7 728.35 1044.15 726.45 1055.2 721.4 1063.35 711.25 1071.15 701.45 1074.4 689.25 1077.55 677.55 1076.35 664.7 1075.25 652.55 1070.4 640.7 1063.55 623.8 1052 614.55 1041.7 606.35 1024 601.75 994.05 593.95 968.7 600.25
M 956.15 661.15
Q 956.9 650.2 963.75 643.5 965.65 641.6 969.05 639.25 974.1 635.7 974.6 635.35 975.75 634.5 980.15 630.75 983.55 627.85 985.9 626.4 995.3 620.6 1007.1 623.35 1018.9 626.1 1024.7 635.5 1031 645.65 1029.25 661 1027.85 672.75 1022.65 680.3 1016.3 689.6 1003.05 694.95 995.2 698.2 987.75 698.5 979.35 698.9 972.9 695.4 964.9 691.05 959.95 680.75 955.4 671.25 956.15 661.15 Z"/>
</g>

<g id="Layer16_0_FILL">
<path fill="#000000" fill-opacity="0.2" stroke="none" d="
M 1082.2 669.5
Q 1081.15 671.35 1078.15 678.9 1073 691.75 1058.75 702.2 1053.4 706.05 1045.75 710.35 1044.85 710.8 1032.15 717.55 1027.1 720.2 1025.15 722.55 1023.7 724.3 1023.2 726.45 1022.7 728.75 1023.55 730.6 1024.5 732.7 1026.8 733.8 1028.95 734.8 1031.45 734.65 1033.55 734.5 1036.05 733.5 1037.55 732.9 1040.35 731.45 1056.45 723.05 1064.65 717.55 1077.55 708.95 1085.3 699.2 1092.8 689.9 1096.6 678.55 1097.65 675.45 1097.85 673.25 1098.1 670.25 1097 668.1 1096 666.05 1093.8 664.9 1091.65 663.75 1089.35 664.05 1085.1 664.6 1082.2 669.5
M 910.65 663.7
Q 908.15 662.35 906.2 663.5 903.5 665 903.8 670.15 904.35 679.35 909.75 688.95 914.1 696.6 921.95 705.05 933 716.95 945.45 726.1 943.35 732.25 943.7 736.1 944 738.75 945.35 740.9 946.85 743.25 949.15 744.1 951.7 745.05 954.55 744 957.25 743 959.1 740.75 961.95 737.3 963.05 730.35 964.7 719.9 960.95 714.4 959.65 712.45 957.25 710.55 956.05 709.6 952.8 707.45 935.05 695.35 922.4 677.95
L 918.5 672.4
Q 916.15 669.1 914.45 667 912.6 664.75 910.65 663.7
M 965.75 668.8
Q 965.8 666.55 965 665.15 963.85 663.1 961.2 662.7 958.7 662.25 956.55 663.55 952.9 665.8 951.8 671.5 950.7 677.5 953.15 684.05 955.35 689.9 959.95 695.15 967.95 704.3 979.7 708.35 991.6 712.55 1003.25 710 1015.1 707.45 1023.9 698.4 1032.8 689.25 1034.55 677.45 1035.75 668.95 1032.1 664.25 1029.95 661.45 1026.25 660.85 1022.4 660.2 1020.05 662.55 1018.6 664 1017.85 666.65 1017.4 668.15 1016.8 671.35 1015.3 678 1010.6 683.3 1005.95 688.65 999.55 691 993.15 693.35 986.15 692.3 979.1 691.3 973.65 687.2 970 684.45 967.9 680.85 965.5 676.85 965.55 672.75 965.75 670.1 965.75 668.8
M 1147.7 812.9
Q 1142.15 812.75 1134.25 812 1125.3 811.1 1120.8 810.7 1073.6 806.2 1026.05 813.2 1017.7 814.5 1016.6 818.9 1016.1 821.1 1017.55 823.3 1018.85 825.3 1021.15 826.3 1023.05 827.1 1025.7 827.25 1027.15 827.3 1030.45 827.15 1044.35 826.4 1061.6 826.55 1072.55 826.65 1092.75 827.3 1100.95 827.5 1105.8 828.1 1109.3 828.6 1116.25 829.9 1121.25 830.65 1127.4 831 1131.5 831.2 1138.65 831.35
L 1150.3 831.6
Q 1156.75 831.7 1159.75 830.7 1162.15 829.85 1163.85 828.2 1165.65 826.4 1166.1 824.15 1166.65 821.25 1164.7 818.45 1162.9 815.85 1159.9 814.55 1157.4 813.45 1153.95 813.15 1152.15 812.95 1147.7 812.9
M 951.35 808.9
Q 949.2 808.5 945.45 808.45 902.65 807.9 866.7 810.35 857.75 811 852.3 811.7 844.35 812.7 838.05 814.3 832.15 815.7 829.45 818.3 827.65 820.1 827.1 822.5 826.5 825.05 827.7 827.05 829.35 829.7 833.2 830.15 835.4 830.4 839.7 829.6
L 848.7 827.9
Q 858.4 826.1 863.35 825.85 866.9 825.7 871.7 826.05 874.45 826.25 880 826.75 890.15 827.6 902.7 827.75 910.8 827.85 925.45 827.65
L 947 827.4
Q 951.55 827.3 953.6 826.5 955.85 825.65 957.45 823.85 959.05 821.95 959.5 819.65 959.95 817.3 959.15 815 958.35 812.65 956.55 811.15 954.55 809.5 951.35 808.9
M 1303.8 1042.6
Q 1302.75 1041.25 1300.6 1039.5 1281.35 1023.75 1259.3 1012.7 1256.35 1011.2 1254.55 1010.6 1251.85 1009.7 1249.55 1009.75 1246.85 1009.8 1244.65 1011.25 1244.1998046875 1011.5564453125 1243.8 1011.9 1240.68359375 1011.107421875 1237.3 1012.65 1234.2 1014.05 1231.95 1016.9 1230.1 1019.25 1228.6 1022.85 1228 1024.35 1226.25 1029.3 1221.35 1043.15 1212.5 1058.7 1206.25 1069.7 1195.15 1086.3 1173.1 1119.2 1155.7 1138.85 1131.9 1165.75 1106.45 1181 1094.85 1187.95 1066.1 1200.65 1039.65 1212.3 1026.35 1221.15 1006.35 1234.45 991.7 1254.1 985.2974609375 1262.6658203125 980.3 1271.85 977.6765625 1267.43125 974.5 1262.5 967.85 1252.2 962.6 1245.3 955.75 1236.3 948.8 1229.7 931.25 1213 898.05 1199.15 860.1 1185 842.05 1176.25 805.7 1158.65 777.9 1129 749.7 1098.9 735.5 1061.8 734.3873046875 1058.922265625 728.8 1041.9 728.972265625 1039.3365234375 728.5 1036 724.85 1010.85 718.25 986.85 717.2 983.2 716.3 981.35 714.9 978.4 712.8 976.85 709.1 974.1 701.05 975.1 694.85 975.9 687.3 977.85 682.7 979.05 673.8 981.8 671.2 982.6 670 983.1 667.95 983.95 666.6 985.1 665 986.45 664.25 988.3 663.45 990.3 664 992.15 664.6 993.9 666.3 995.1 667.95 996.15 669.95 996.35 671.65 996.55 673.75 996.2 674.85 996 677.5 995.3
L 690.2 991.75
Q 690.360546875 992.987109375 690.65 993.75 691.45 995.65 694.35 998.15 697.85 1001.25 700.45 1001.75 700.614453125 1001.7833984375 700.75 1001.8 700.973828125 1002.2158203125 701.2 1002.65 704.769140625 1010.049609375 707.85 1020.7 709.29609375 1027.958984375 710.55 1035.2 711.25 1039.2 711.8 1041.05 712.75 1044.25 714.3 1046.35 714.383984375 1046.4634765625 714.45 1046.55 727.109765625 1092.6578125 758.15 1130.8 789.4 1169.2 832.35 1190.9 850 1199.8 887.1 1214.7 919.4 1229.1 936.35 1246.05 946.3 1256 955.1 1270.3 960.5607421875 1279.209765625 966.7 1291.9 963.684375 1295.7505859375 961.4 1299.45 957.95 1305.1 957.9 1308.95 957.85 1311.6 959.25 1313.85 960.7 1316.25 963.1 1316.9 966.15 1317.65 969.4 1315.3 970.8916015625 1314.2298828125 972.55 1312.35 974.6123046875 1313.70625 977.15 1313.75 980.2 1313.8 982.15 1311.9 982.540234375 1311.5212890625 982.85 1311.05 984.5333984375 1311.1833984375 986.2 1310.6 991.35 1308.8 991.95 1301.9 992.3431640625 1296.8318359375 990.3 1291.3 1008.27890625 1271.911328125 1029.8 1256.3 1032.85 1254.1 1034.3 1252.45 1035.5296875 1251.0525390625 1036.1 1249.6 1044.17421875 1244.553125 1045.8 1243.55 1057.05 1236.7 1063.95 1233.7 1067.2 1232.3 1074.7 1229.65 1081.7 1227.15 1085.4 1225.45 1094.15 1221.45 1094.5 1215.75 1094.6640625 1213.4197265625 1093.45 1211.4 1141.86640625 1189.4744140625 1182.7 1139.4 1199.85 1118.4 1216.95 1090.65 1229.45 1070.35 1246.4 1038.75 1248.85 1034.1 1249.85 1031.7 1251.019140625 1028.704296875 1251.35 1026.05 1251.727734375 1026.1970703125 1252.1 1026.35 1270.05 1033.95 1284.6 1046.4 1288.45 1049.65 1289.9 1050.6 1293.05 1052.75 1295.95 1053.25 1299.4 1053.9 1302.45 1051.85 1305.65 1049.8 1305.45 1046.55 1305.3 1044.55 1303.8 1042.6
M 756.55 983.95
Q 758.6 983.75 761.95 982.5 777.85 976.85 793.4 975.85 796.25 975.7 797.1 975.55 799.2 975.3 800.65 974.6 802.45 973.8 803.55 972.3 804.75 970.65 804.6 968.9 804.4 966.1 801.35 964.4 799.5 963.45 795.75 963.05 780.35 961.6 760.8 967.75 757.6 968.7 755.65 969.7 752.95 971.05 751.4 972.95 749.55 975.2 749.55 978.1 749.5 981.15 751.6 982.75 753.5 984.25 756.55 983.95
M 1193.8 974.55
Q 1192 973.65 1190.45 973.35 1187.75 972.8 1185.1 973.75 1182.95 974.5 1181.7 976.1 1180.3 978 1180.65 980.7 1180.95 983.2 1182.55 985.15 1183.95 986.85 1186.3 988.25 1187.85 989.15 1190.75 990.4 1196.75 992.9 1200.8 993.7 1203.45 994.2 1204.95 993.85 1206.7 993.45 1207.95 992 1209.2 990.6 1209.45 988.8 1209.75 987.05 1209.1 985.3 1208.5 983.55 1207.15 982.3 1206.05 981.25 1203.15 979.75
L 1197 976.3
Q 1194.6 974.9 1193.8 974.55 Z"/>
</g>
</defs>

<g transform="matrix( 1, 0, 0, 1, 0,0) ">
<use xlink:href="#Layer17_0_FILL"/>
</g>

<g transform="matrix( 1, 0, 0, 1, 0,0) ">
<use xlink:href="#Layer16_0_FILL"/>
</g>
</svg>
