
<svg xmlns="http://www.w3.org/2000/svg" version="1.1" xmlns:xlink="http://www.w3.org/1999/xlink" preserveAspectRatio="none" x="0px" y="0px" width="2000px" height="2000px" viewBox="0 0 2000 2000">
<defs>
<g id="Layer19_0_FILL">
<path fill="#000000" stroke="none" d="
M 1123 881.6
Q 1097.25 846.5 1056.25 833.9 979.75 810.35 916.2 864.9 897.65 881.5 886.35 903.7 847.4 980.2 894.75 1048.3 942.3 1116.65 1023.85 1107.75 1105.35 1098.85 1138.05 1022.85 1170.75 946.7 1123 881.6
M 1110.45 1022.55
Q 1069.85 1100.05 984.85 1083.8 943.75 1075.75 918.1 1042.55 866.15 975.15 911.9 900.5 928.65 874.8 956.35 861.45 1032.65 824.45 1091.65 884.15 1151.3 944.4 1110.45 1022.55
M 1002.8 1034.3
Q 1006.25 1035.9 1009.55 1037.75 1027.1 1047.9 1045.45 1040.65
L 1009.3 1028 1016.3 1015.6 1003.65 1025.4
Q 987.45 1017.9 976.15 1003.9
L 980.35 996.8 972.75 999.35
Q 968.45 993.35 967.1 986.15 965.3 976.45 957.8 974.9 957.6 990.05 965.95 1002.85
L 947.9 1011
Q 945.65 1006.85 943.05 1002.95 934.15 990 937.05 975.25
L 932 975.35
Q 931.2 976.35 931.1 977.6 929.55 996.3 938.8 1012.75
L 934.2 1011.9 934.7 1009.2 931.5 1008.15 927.75 1017.7 943.6 1021.7 951.8 1030.2 968.7 1044.4 956.8 1046.1 959.05 1051.15 976.5 1048.7
Q 982.4 1052.4 988.65 1055.4 1005.85 1063.4 1020.95 1056.2
L 986.95 1044.3 1002.8 1034.3
M 978.9 1018.4
Q 985.25 1024.6 992.9 1029.05 994.8 1030.1 996.75 1031.2
L 980.7 1041.1 952.55 1018.25 969.85 1008.55
Q 974.15 1013.8 978.9 1018.4 Z"/>

<path fill="#666666" stroke="none" d="
M 984.85 1083.8
Q 1069.85 1100.05 1110.45 1022.55 1151.3 944.4 1091.65 884.15 1032.65 824.45 956.35 861.45 928.65 874.8 911.9 900.5 866.15 975.15 918.1 1042.55 943.75 1075.75 984.85 1083.8
M 1009.05 889
Q 1000.55 871.85 1020.35 869.5 1074.9 862.7 1081.8 918 1083 927.45 1076.35 933 1031.95 934.85 1009.05 889
M 1076.15 958.4
Q 1080.2 953.9 1085.95 953.9 1091.7 953.9 1095.75 958.4 1099.8 962.95 1099.8 969.35 1099.8 975.75 1095.75 980.25 1091.7 984.8 1085.95 984.8 1080.2 984.8 1076.15 980.25 1072.1 975.75 1072.1 969.35 1072.1 962.95 1076.15 958.4
M 1009.55 1037.75
Q 1006.25 1035.9 1002.8 1034.3
L 986.95 1044.3 1020.95 1056.2
Q 1005.85 1063.4 988.65 1055.4 982.4 1052.4 976.5 1048.7
L 959.05 1051.15 956.8 1046.1 968.7 1044.4 951.8 1030.2 943.6 1021.7 927.75 1017.7 931.5 1008.15 934.7 1009.2 934.2 1011.9 938.8 1012.75
Q 929.55 996.3 931.1 977.6 931.2 976.35 932 975.35
L 937.05 975.25
Q 934.15 990 943.05 1002.95 945.65 1006.85 947.9 1011
L 965.95 1002.85
Q 957.6 990.05 957.8 974.9 965.3 976.45 967.1 986.15 968.45 993.35 972.75 999.35
L 980.35 996.8 976.15 1003.9
Q 987.45 1017.9 1003.65 1025.4
L 1016.3 1015.6 1009.3 1028 1045.45 1040.65
Q 1027.1 1047.9 1009.55 1037.75
M 992.9 1029.05
Q 985.25 1024.6 978.9 1018.4 974.15 1013.8 969.85 1008.55
L 952.55 1018.25 980.7 1041.1 996.75 1031.2
Q 994.8 1030.1 992.9 1029.05 Z"/>

<path fill="#999999" stroke="none" d="
M 1085.95 953.9
Q 1080.2 953.9 1076.15 958.4 1072.1 962.95 1072.1 969.35 1072.1 975.75 1076.15 980.25 1080.2 984.8 1085.95 984.8 1091.7 984.8 1095.75 980.25 1099.8 975.75 1099.8 969.35 1099.8 962.95 1095.75 958.4 1091.7 953.9 1085.95 953.9
M 1020.35 869.5
Q 1000.55 871.85 1009.05 889 1031.95 934.85 1076.35 933 1083 927.45 1081.8 918 1074.9 862.7 1020.35 869.5 Z"/>
</g>

<g id="Layer18_0_FILL">
<path fill="#000000" fill-opacity="0.2" stroke="none" d="
M 1019.7 1021.35
Q 1023.15 1016.8 1024.3 1012.45 1025.65 1007.1 1023.05 1003.45 1021.05 1000.7 1017.2 999.85 1013.65 999.05 1010.05 1000.2 1007.05 1001.15 1003.75 1003.5 1002.1 1004.65 998.15 1007.95 990.9580078125 1014.114453125 983.6 1019.95 979.2462890625 1015.726171875 977.1 1012.6 974.5 1008.3 973.05 1006.3 972.773828125 1005.9251953125 972 1005 975.0345703125 1002.3486328125 977.65 999.3 981.6 994.7 980.8 991.25 980.2 988.8 977.4 987.35 975.05 986.15 971.95 986 966.85 985.75 960.7 987.35 960.3142578125 987.4529296875 959.9 987.55 958.8828125 985.45 957.65 982.7 955.4 977.5 953.35 975.3 951.3 973.1 948.4 972.2 945.4 971.2 942.6 971.95 939.25 972.9 936.95 976.05 934.8 979.05 934.35 982.8 933.7244140625 988.2865234375 936.8 996.15 936.2197265625 996.42734375 935.7 996.65 927.9 999.95 922.05 1003.3 915.25 1007.2 914.75 1011.55 914.5 1013.45 915.35 1015.4 916.2 1017.25 917.75 1018.6 922.45 1022.65 932.65 1021.55 940.4126953125 1020.7267578125 947.6 1018.45 949.354296875 1021.5890625 951.3 1024.55 955.588671875 1031.0884765625 961.15 1037.4 961.0107421875 1037.617578125 960.85 1037.8 958 1040.95 957.75 1044.3 957.35 1049.05 961.8 1052.5 966 1055.75 971.2 1055.45 974.68046875 1055.2099609375 978.55 1053.5 981.9705078125 1055.9013671875 985.25 1057.45 989.1 1059.25 997.2 1062.05 1001.3 1063.7 1001.45 1063.75 1003.9 1064.7 1005.85 1065.15 1012.55 1066.75 1017.9 1064.25 1020.75 1062.95 1022.7 1060.5 1024.75 1057.95 1025.2 1055 1025.8 1050.9 1023.35 1046.75 1021.1 1043.05 1017.2 1040.45 1014.3 1038.55 1009.4 1036.45 1007.7455078125 1035.7625 1006.4 1035.2 1006.7681640625 1034.9265625 1007.1 1034.65 1014.15 1028.8 1019.7 1021.35 Z"/>
</g>
</defs>

<g transform="matrix( 1, 0, 0, 1, 0,0) ">
<use xlink:href="#Layer19_0_FILL"/>
</g>

<g transform="matrix( 1, 0, 0, 1, 0,0) ">
<use xlink:href="#Layer18_0_FILL"/>
</g>
</svg>
