
<svg xmlns="http://www.w3.org/2000/svg" version="1.1" xmlns:xlink="http://www.w3.org/1999/xlink" preserveAspectRatio="none" x="0px" y="0px" width="2000px" height="2000px" viewBox="0 0 2000 2000">
<defs>
<g id="Layer17_0_FILL">
<path fill="#000000" stroke="none" d="
M 1420.2 670.45
Q 1407.4 652.15 1394.8 639.5 1379.65 624.25 1363.25 615.55 1357.2 612.35 1352.3 611.15 1346 609.65 1340.9 611.25 1337.45 612.3 1333.85 615.05 1331.65 616.7 1327.75 620.45
L 1264.75 681.25
Q 1263.4787109375 682.481640625 1262.45 683.5 1258.0798828125 679.7443359375 1253.5 676.05 1211.65 642.25 1154.75 615.55 1131.05 604.45 1111.05 597.5 1097.4578125 592.769921875 1084.5 589.5 1084.8203125 586 1084.35 581.55 1083.3 574.5 1082.85 570.95 1081.8 562.4 1082.3 550.8 1083.2 537.35 1083.6 530.6 1084.2 520.65 1084.35 508.1 1084.4 500.6 1084.3 485.6 1084.3 482.3 1084.1 480.5 1083.75 477.7 1082.8 475.7 1080.6 471.15 1074.8 468.75 1070.5 467 1063.65 466.25 1052.25 464.95 1037.75 464.3 1029.75 463.9 1011.75 463.45 974.85 462.6 957.5 462.45 927.3 462.25 903.3 463.4 897.35 463.7 893.95 464.65 888.9 466.05 886.4 469.35 884.45 471.85 883.8 475.8 883.35 478.35 883.35 482.95
L 883.3 512.3
Q 883.3 537.25 884 548.45 884.65 558.7 887.05 579
L 888.75 593.5
Q 866.82734375 598.2427734375 848.75 605.4 832.05 612.05 814.35 622.3 799.5 630.95 782.2 643.25 758.55 660.05 740.35 676.45 719.3 695.4 703.85 715.25 702.6609375 716.78203125 701.5 718.35 699.328515625 716.27890625 696.05 713.8 687.35 707.25 675.65 700.35 668.5 696.15 654.2 688.5
L 595.65 657.1
Q 589.6 653.9 586.25 652.75 580.85 650.8 576.3 651.35 568.7 652.2 562.35 659.6 557.95 664.75 553.2 674.6
L 498 789.4
Q 494.35 796.95 493.2 801.7 491.5 808.8 493.6 814.25 494.95 817.7 498.15 821 500.35 823.3 504.45 826.35 516.55 835.35 532.2 844.4 543.7 851 561.45 860 583.35 871.1 622 889.6 628.9712890625 892.9197265625 633.7 894 633.328125 896.7421875 633 899.5 626.5 954.05 635.1 1006.05 636.63828125 1015.3583984375 638.65 1024.5 635.70390625 1024.7056640625 632.15 1025.55 575.75 1038.5 510.2 1066.55 504.45 1069 501.35 1071.05 496.8 1074.05 494.75 1077.9 491.65 1083.9 494.15 1092.1 495.9 1097.85 501.05 1105.95
L 516.15 1129.8
Q 525.5 1144.65 530.95 1152.9 539.35 1165.55 546.75 1175.4 547.1 1175.85 557.9 1189.7 564.6 1198.3 568.65 1204.3 574.1 1212.35 582.2 1226.65 591.65 1243.35 595.35 1249.25 598.05 1253.5 600.2 1255.75 603.25 1259 606.7 1260.1 611.5 1261.65 617.4 1259.2 621.35 1257.55 627.3 1253.25 666.65 1224.75 709.05 1198.95 714.95 1195.4 717.8 1192.95 722.125 1189.2080078125 723.75 1184.95 727.7033203125 1188.99609375 731.8 1192.9 768.1 1227.55 817.55 1252.05 846.672265625 1266.465234375 879.5 1276.9 879.3033203125 1277.528125 879.1 1278.15 877.4 1283.35 876.9 1290.3 876.65 1293.9 876.65 1302.7 876.8 1354.45 870.8 1405.75 870.05 1412.1 870.2 1415.5 870.4 1420.95 872.45 1424.75 874.9 1429.25 880.4 1432.25 884.5 1434.55 891.05 1436.25 907.25 1440.5 928.15 1441.65 940.85 1442.3 965.85 1441.9
L 1067.25 1440.2
Q 1072.55 1440.15 1075.55 1439.55 1080.1 1438.7 1082.9 1436.35 1086.75 1433.15 1087.85 1426.9 1088.65 1422.7 1088.25 1415.5 1085.25 1357.45 1083.9 1305.2 1083.8078125 1301.6306640625 1083.5 1298.75 1104.2509765625 1296.4349609375 1124.3 1292.1 1176.7 1280.75 1222.55 1255.95 1238.2849609375 1247.446875 1252.65 1237.65 1253.12578125 1238.3056640625 1253.65 1238.95 1255.15 1240.8 1258.35 1243.95 1271.6 1256.8 1301.7 1284.15 1330.15 1310 1344.9 1324.55 1348.8 1328.4 1350.75 1330.05 1354.15 1333 1357.3 1334.65 1361.05 1336.65 1364.95 1337.1 1369.2 1337.6 1372.7 1336.05 1376.3 1334.45 1379.25 1330.6 1381.25 1328 1383.8 1323 1394.7 1301.6 1414.7 1251.75 1433.4 1205.05 1446.45 1181 1451 1172.7 1452.5 1168.2 1454.95 1160.75 1453.3 1154.8 1452 1150.1 1447.8 1145.6 1445.2 1142.8 1439.45 1138.3
L 1383.95 1095.25
Q 1378.1 1090.75 1374.5 1088.8 1371.79296875 1087.3498046875 1369.2 1086.6 1383.16328125 1045.3728515625 1383 1003.2 1382.95 990.6 1381.6 975.2 1380.65 964.7 1378.5 947.3 1371.1 887.5 1362.55 851.75 1361.413671875 847.017578125 1360.2 842.4 1363.7755859375 842.0611328125 1367.7 840.65 1373.65 838.5 1382.85 832.6 1422.55 807.15 1462.6 784.4 1467.3 781.75 1469.55 780.1 1473.2 777.35 1475.1 774.3 1477.7 770.1 1477.7 764.5 1477.75 759.4 1475.65 754.3 1473.95 750.1 1470.65 745.3 1469.35 743.4 1464.4 736.95 1455.45 725.15 1442 703.95 1426.25 679.1 1420.2 670.45
M 1345.9 640.1
Q 1360.2 648.9 1373.45 663.45 1384.1 675.2 1395.5 692.45 1396.5 693.95 1414.9 723.25 1426.55 741.8 1435.5 753.2 1437.65 755.85 1437.25 757.6 1436.85 759.2 1434.25 760.75 1410.5 775.15 1397.9 782.15 1384.5865234375 789.5572265625 1372.6 795.25 1370.7189453125 796.3966796875 1367.75 797.9 1341.5087890625 811.2267578125 1324 822.5 1327.8265625 833.40625 1331.15 845.15 1340.2 877.4 1348.2 928.25 1352.9 958.2 1354.55 977.5 1356.85 1004.65 1355 1027 1351.9283203125 1064.35234375 1336.85 1099.85 1345.4740234375 1109.194921875 1357.35 1120 1359.2716796875 1121.7591796875 1362 1124.15 1362.3876953125 1124.4859375 1362.8 1124.8
L 1412.1 1162
Q 1415.1 1164.25 1415.55 1166.1 1415.85 1167.35 1415.4 1168.85 1415.15 1169.75 1414.35 1171.55 1386.15 1230.65 1363.5 1291.35 1362.1 1295.4 1359.9 1296.2 1357.15 1297.25 1352.95 1293.5 1313.25 1257.8 1270.5 1225.1 1270.3439453125 1224.980859375 1270.2 1224.85 1271.4515625 1223.89375 1272.7 1222.9
L 1253.3 1207.95
Q 1219.4427734375 1234.4693359375 1177.2 1251.55 1131.05 1270.2 1079.75 1275.75 1068.3765625 1276.9849609375 1056.8 1277.55
L 1057 1297.15
Q 1057.25 1333.7 1056.95 1366.9 1056.85 1376.4 1057.55 1381.05 1058.5 1387.8 1058.55 1388.8 1058.7 1393.25 1056.95 1396.05 1056.8951171875 1396.1333984375 1056.85 1396.2
L 1057.35 1408.1 983.2 1410.65
Q 956.75 1411.5 943.95 1411.4 922.05 1411.25 904.8 1409 903.05 1408.75 902.15 1408.45 900.75 1408 900 1407.05 898.5 1405.25 899.45 1400.9 903.8 1378.75 903 1344.05 902.4 1324.9 902.15 1315.35 901.65 1298.35 902.05 1286.65 902.1134765625 1284.8912109375 902.15 1283.55 903.12578125 1283.8123046875 904.1 1284.05 904.0875 1282.9498046875 904.05 1282 903.85 1277.35 903.15 1270.4
L 902.65 1264.25
Q 902.5515625 1262.330859375 902.55 1259.05 892.0013671875 1256.0974609375 881.35 1252.7 837.25 1238.75 805.45 1220.6 759.7080078125 1194.4873046875 725.05 1152.5
L 704.95 1163.8
Q 705.260546875 1164.14453125 705.55 1164.5 703.206640625 1165.0599609375 700.7 1166.25 700.4375 1166.3708984375 700.15 1166.5 698.580078125 1167.2822265625 696.5 1168.55 694.6177734375 1169.7107421875 692.3 1171.3
L 621.8 1219.35
Q 619.85 1220.65 618.65 1221.1 616.75 1221.85 615.25 1221.3 614 1220.85 612.95 1219.55 612.3 1218.75 611.35 1217 599.05 1193.75 568.9 1154.7 552.5 1133.45 546.05 1124.5 533.65 1107.35 525.4 1092.9 545.8 1081.25 579.8 1069.7 589.15 1066.55 608.05 1060.4 624.75 1054.8 636.05 1050.4 640.5 1048.65 643 1047.3 643.6564453125 1046.9314453125 644.25 1046.55 644.416796875 1047.0388671875 644.55 1047.5 650.83359375 1044.37734375 659.7 1040.35 662.298046875 1039.1677734375 664.7 1038.05 664.450390625 1037.1884765625 664.2 1036.3 648.25 979.75 652.6 918.55 654.2357421875 895.590625 658.6 873.2 655.4357421875 871.068359375 651.75 868.6
L 639.55 860.4
Q 639.0931640625 862.68125 638.6 864.95 626.6845703125 858.771484375 608.75 850.95 588.4 842.2 578.35 837.7 541.8 821.45 521 805.6
L 550.85 740.35
Q 559.05 722.4 563.35 713.55 570.55 698.8 577.2 687.45 578.9 684.55 580.6 683.9 582.8 683 586.75 685.2
L 664.9 727.3
Q 665.9080078125 727.3783203125 666.95 727.6 670.3 728.4 675.05 731.3 686.098828125 737.8587890625 706.3 751.2 710.4486328125 744.694140625 714.85 738.6 753.3 685.4 825.45 643.2 838.4 635.65 848.4 630.9 861.1 624.85 872.6 621.5 883.25 618.45 896.95 616.5 901.965234375 615.8134765625 909.8 615 909.8158203125 605.9134765625 909.75 591.65 909.745703125 590.6423828125 909.75 589.65 908.774609375 589.7994140625 907.8 589.95 907.85 588.9419921875 907.85 587.8
L 908.25 490.6
Q 918.1 487.6 931.75 487.85 934.65 487.9 955.75 489.4 960.25 489.75 1006.6 491.2 1037.3 492.15 1056.95 496.25 1058.1 510.3 1055.8 540.5 1054.6240234375 556.0015625 1054.55 567.55 1058.4431640625 590.6865234375 1059.4 613.8 1061.5802734375 614.219921875 1063.7 614.65 1081.65 618.3 1101.3 625.2 1117.9 630.95 1137.55 639.75 1209.846875 672.048828125 1255.45 715.35 1260.765234375 711.0953125 1267.9 705.85 1278.522265625 698.1037109375 1286.05 693.4 1315.5109375 667.799609375 1345.9 640.1
M 677.8 775.55
Q 680.1232421875 777.4685546875 681.5 778.4 685.8 781.25 689.25 781.25 689.3666015625 781.25 689.5 781.25 689.5076171875 781.210546875 689.5 781.15 689.4927734375 781.1671875 689.45 781.15 682.899609375 778.5220703125 677.8 775.55 Z"/>

<path fill="#7A5050" stroke="none" d="
M 1373.45 663.45
Q 1360.2 648.9 1345.9 640.1 1315.5109375 667.799609375 1286.05 693.4 1278.522265625 698.1037109375 1267.9 705.85 1260.765234375 711.0953125 1255.45 715.35 1209.846875 672.048828125 1137.55 639.75 1117.9 630.95 1101.3 625.2 1081.65 618.3 1063.7 614.65 1061.5802734375 614.219921875 1059.4 613.8 1058.4431640625 590.6865234375 1054.55 567.55 1054.6240234375 556.0015625 1055.8 540.5 1058.1 510.3 1056.95 496.25 1037.3 492.15 1006.6 491.2 960.25 489.75 955.75 489.4 934.65 487.9 931.75 487.85 918.1 487.6 908.25 490.6
L 907.85 587.8
Q 907.85 588.9419921875 907.8 589.95 908.774609375 589.7994140625 909.75 589.65 909.745703125 590.6423828125 909.75 591.65 909.8158203125 605.9134765625 909.8 615 901.965234375 615.8134765625 896.95 616.5 883.25 618.45 872.6 621.5 861.1 624.85 848.4 630.9 838.4 635.65 825.45 643.2 753.3 685.4 714.85 738.6 710.4486328125 744.694140625 706.3 751.2 686.098828125 737.8587890625 675.05 731.3 670.3 728.4 666.95 727.6 665.9080078125 727.3783203125 664.9 727.3
L 586.75 685.2
Q 582.8 683 580.6 683.9 578.9 684.55 577.2 687.45 570.55 698.8 563.35 713.55 559.05 722.4 550.85 740.35
L 521 805.6
Q 541.8 821.45 578.35 837.7 588.4 842.2 608.75 850.95 626.6845703125 858.771484375 638.6 864.95 639.0931640625 862.68125 639.55 860.4
L 651.75 868.6
Q 655.4357421875 871.068359375 658.6 873.2 654.2357421875 895.590625 652.6 918.55 648.25 979.75 664.2 1036.3 664.450390625 1037.1884765625 664.7 1038.05 662.298046875 1039.1677734375 659.7 1040.35 650.83359375 1044.37734375 644.55 1047.5 644.416796875 1047.0388671875 644.25 1046.55 643.6564453125 1046.9314453125 643 1047.3 640.5 1048.65 636.05 1050.4 624.75 1054.8 608.05 1060.4 589.15 1066.55 579.8 1069.7 545.8 1081.25 525.4 1092.9 533.65 1107.35 546.05 1124.5 552.5 1133.45 568.9 1154.7 599.05 1193.75 611.35 1217 612.3 1218.75 612.95 1219.55 614 1220.85 615.25 1221.3 616.75 1221.85 618.65 1221.1 619.85 1220.65 621.8 1219.35
L 692.3 1171.3
Q 694.6177734375 1169.7107421875 696.5 1168.55 698.580078125 1167.2822265625 700.15 1166.5 700.4375 1166.3708984375 700.7 1166.25 703.206640625 1165.0599609375 705.55 1164.5 705.260546875 1164.14453125 704.95 1163.8
L 725.05 1152.5
Q 759.7080078125 1194.4873046875 805.45 1220.6 837.25 1238.75 881.35 1252.7 892.0013671875 1256.0974609375 902.55 1259.05 902.5515625 1262.330859375 902.65 1264.25
L 903.15 1270.4
Q 903.85 1277.35 904.05 1282 904.0875 1282.9498046875 904.1 1284.05 903.12578125 1283.8123046875 902.15 1283.55 902.1134765625 1284.8912109375 902.05 1286.65 901.65 1298.35 902.15 1315.35 902.4 1324.9 903 1344.05 903.8 1378.75 899.45 1400.9 898.5 1405.25 900 1407.05 900.75 1408 902.15 1408.45 903.05 1408.75 904.8 1409 922.05 1411.25 943.95 1411.4 956.75 1411.5 983.2 1410.65
L 1057.35 1408.1 1056.85 1396.2
Q 1056.8951171875 1396.1333984375 1056.95 1396.05 1058.7 1393.25 1058.55 1388.8 1058.5 1387.8 1057.55 1381.05 1056.85 1376.4 1056.95 1366.9 1057.25 1333.7 1057 1297.15
L 1056.8 1277.55
Q 1068.3765625 1276.9849609375 1079.75 1275.75 1131.05 1270.2 1177.2 1251.55 1219.4427734375 1234.4693359375 1253.3 1207.95
L 1272.7 1222.9
Q 1271.4515625 1223.89375 1270.2 1224.85 1270.3439453125 1224.980859375 1270.5 1225.1 1313.25 1257.8 1352.95 1293.5 1357.15 1297.25 1359.9 1296.2 1362.1 1295.4 1363.5 1291.35 1386.15 1230.65 1414.35 1171.55 1415.15 1169.75 1415.4 1168.85 1415.85 1167.35 1415.55 1166.1 1415.1 1164.25 1412.1 1162
L 1362.8 1124.8
Q 1362.3876953125 1124.4859375 1362 1124.15 1359.2716796875 1121.7591796875 1357.35 1120 1345.4740234375 1109.194921875 1336.85 1099.85 1351.9283203125 1064.35234375 1355 1027 1356.85 1004.65 1354.55 977.5 1352.9 958.2 1348.2 928.25 1340.2 877.4 1331.15 845.15 1327.8265625 833.40625 1324 822.5 1341.5087890625 811.2267578125 1367.75 797.9 1370.7189453125 796.3966796875 1372.6 795.25 1384.5865234375 789.5572265625 1397.9 782.15 1410.5 775.15 1434.25 760.75 1436.85 759.2 1437.25 757.6 1437.65 755.85 1435.5 753.2 1426.55 741.8 1414.9 723.25 1396.5 693.95 1395.5 692.45 1384.1 675.2 1373.45 663.45
M 681.5 778.4
Q 680.1232421875 777.4685546875 677.8 775.55 682.899609375 778.5220703125 689.45 781.15 689.4927734375 781.1671875 689.5 781.15 689.5076171875 781.210546875 689.5 781.25 689.3666015625 781.25 689.25 781.25 685.8 781.25 681.5 778.4 Z"/>
</g>

<g id="Layer16_0_FILL">
<path fill="#000000" fill-opacity="0.2" stroke="none" d="
M 1356.25 639.75
Q 1348.3 635.3 1340.9 636.2 1335.9 636.8 1330.45 640.1 1327 642.25 1321.3 647
L 1260.85 697.15
Q 1259.4546875 698.3095703125 1258.2 699.35 1221.875 662.2732421875 1171.45 639.55 1122.55 617.5 1067.55 612.05 1065.800390625 611.8873046875 1064.3 611.8 1063.3677734375 591.75234375 1065.35 558.65 1067.8 518.45 1067.85 505.1 1067.9 498.7 1067.15 494.8 1066 489.2 1062.95 485.75 1060.1 482.55 1055 480.8 1051.5 479.6 1045.5 478.75 1018.35 474.9 984.1 474.8 963.2 474.75 922.35 476.55 914.1 476.9 909.4 478.1 902.4 479.9 898.7 484.25 894.8 488.85 894.25 496.4 893.9 501.3 895.1 510.15 900.55 551.75 900.8 605.95 900.8 606.2216796875 900.8 606.45 891.721484375 605.8724609375 881.3 608.4 870.4 611.1 854.85 618.3 805.55 641.1 761.65 673.55 741.95 688.1 728.9 701.05 715.1041015625 714.8037109375 706.1 729.2 705.2087890625 728.86953125 704.25 728.55 702.15 727.9 695.85 726.15 670.25 719.1 645.55 708.8 626.45 700.8 600.25 687.35 595.85 685.1 593.65 684.25 589.85 682.75 586.65 682.6 582.85 682.4 579.55 684.2 576.0748046875 686.0369140625 574.95 689.3 573.7376953125 690.65859375 572.5 692.45 567.15 700.15 558.4 715
L 518.3 782.7
Q 514.25 789.5 512.75 793.8 510.45 800.3 511.65 805.65 512.7 810.15 516.4 814.4 519.2 817.55 524.1 821.2 536.1 830.05 552.4 837.75 563.75 843.1 582.95 850.35 607.3 859.55 613.95 862.3 631.25 869.5 643.6 876.9 638.25 915.65 640.7 954.85 643.15 994.15 653.35 1031.9 603.5 1062.4 548 1082.15 539 1085.35 534.9 1087.4 534.5072265625 1087.594921875 534.1 1087.8 534.0369140625 1087.7958984375 533.95 1087.8 531.25 1087.95 528.95 1089.8 527.1701171875 1091.248828125 526.1 1093.3 524.9046875 1094.441796875 523.9 1095.65 519.25 1101.3 519.4 1108.85 519.6 1116.75 525.35 1120.3 529.6 1122.9 535.75 1122.15 536.3431640625 1122.07421875 536.95 1121.95 540.4154296875 1127.0533203125 542.8 1130.2 549.7 1139.5 561.55 1152.4 580.15 1172.75 581.15 1173.9 596.9220703125 1192.11640625 609.75 1212.1 609.40703125 1213.0833984375 609.2 1214.05 608.4 1218.05 610.2 1221.7 612.15 1225.6 615.8 1226.5 617.72890625 1226.9822265625 619.95 1226.5 624.5447265625 1231.1033203125 629.7 1231.9 635.8 1232.85 640.95 1228.25 646.1 1223.65 645.85 1217.45 645.7462890625 1215.2732421875 644.95 1212.95 675.1404296875 1194.4876953125 702.8 1172.7 706.65 1169.7 709.05 1168.5 712.75 1166.6 716.05 1167.05 718.25 1167.35 720.6 1168.8 722.15 1169.7 724.6 1171.75 735.05 1180.4 755.4 1198.35 773.85 1214.2 787.4 1223.3 807.4 1236.75 836.9 1249.6 854.1 1257.1 889.1 1270.8 890.8099609375 1271.494140625 892.2 1272 892.1859375 1275.211328125 891.85 1279.2 891.75 1279.95 890.95 1287.55 889.15 1304.75 889.2 1329.5 889.2 1343.5 889.55 1371.55 889.55 1383.25 888.65 1390.15 887.4 1400.25 887.35 1401.1 887.05 1407.35 889 1411.6 890.6 1415.05 893.75 1417.3 897 1419.6 900.7 1419.75 900.87890625 1419.759375 901.05 1419.75 902.9908203125 1420.648828125 905.3 1421.4 919.2 1426.05 936.8 1426.5 949 1426.85 969.2 1425 994.8 1422.6 1001.9 1422.3 1020.35 1421.5 1034.25 1424 1037.6 1424.6 1044.3 1425.95 1050.15 1426.95 1054.45 1426.75 1059.9 1426.5 1064.4 1424.25 1069.35 1421.75 1071.55 1417.45 1073.5 1413.75 1073.4 1408.5 1073.35 1405.3 1072.3 1399.1 1062.45 1342.5 1064.55 1285.15 1115.55 1281.9 1164.35 1264.65 1211.6578125 1247.9759765625 1252.35 1219.75 1252.443359375 1219.820703125 1252.5 1219.9 1267.05 1240.4 1289.2 1261.4 1305.05 1276.45 1331.45 1297.6 1336 1301.25 1338.7 1303.15 1342.9 1306 1346.7 1307.45 1351.2 1309.2 1355.65 1309.2 1360.55 1309.2 1364.3 1307 1367.75 1305.05 1370.6 1300.95 1372.45 1298.4 1375.05 1293.2
L 1425.65 1193.2
Q 1430.8 1183.05 1432.45 1176.6 1435 1167 1432.2 1159.6 1430.4 1154.95 1426.2 1150.55 1423.1 1147.35 1417.7 1143.4 1408.45 1136.6 1384.35 1121.85 1362.75 1108.6 1351.6 1099.55 1348.4380859375 1096.9794921875 1346.2 1095.25 1358.78828125 1069.0875 1363.8 1037.85 1369.15 1004.75 1365.65 968.3 1362.6 936.45 1352.7 900.1 1345 871.7 1331.15 833.85 1348.45 821.1 1375.4 807.25 1390.75 799.4 1421.8 784.15 1429.4 780.2 1433.5 776.85 1439.3 771.95 1440.95 766.1 1442.65 760.15 1440.15 752.75 1438.45 747.85 1433.9 740.15 1414.95 708.2 1404.5 692.85 1387 667.3 1369.35 650 1362.3 643.1 1356.25 639.75
M 1344.6 671.2
Q 1378.35 710.8 1404.9 755.05
L 1313.75 804.75
Q 1307.55 808.15 1304.55 810.45 1299.75 814.05 1297.55 818.3 1294 825.1 1296.1 834.75 1297.35 840.45 1302.1 851.45 1312.65 875.8 1320.65 907.9 1325.5 927.55 1332.85 966.3 1335.75 981.45 1336.8 989.3 1338.6 1002.1 1338.5 1012.45 1338.35 1029.6 1333.1 1049.35 1329.05 1064.5 1320.85 1084.9 1319.175390625 1089.0685546875 1318.3 1091.75 1316.1076171875 1093.3501953125 1314.5 1095.55 1311.65 1099.5 1311.15 1104.5 1310.6 1109.55 1312.6 1113.95 1314.4 1117.95 1318.4 1121.65 1321.05 1124.1 1326.2 1127.6 1358.45 1149.85 1392.75 1168.65 1394.5 1169.65 1395.3 1170.25 1396.6 1171.3 1397.05 1172.5 1397.7 1174 1397.15 1176 1396.8 1177.4 1395.7 1179.5
L 1349.8 1268.6
Q 1309.5 1239.05 1275.7 1202.5 1272.15 1198.65 1270.45 1197.1 1269.430859375 1196.1630859375 1268.4 1195.35 1267.5822265625 1192.2431640625 1265.15 1189.35 1260.35 1183.65 1253.7 1183.75 1249.4 1183.8 1244.55 1186.4 1241.75 1187.95 1236.4 1191.9 1198.35 1220.1 1153.05 1236.25 1107.8 1252.4 1060.45 1254.7 1052.35 1255.1 1048.4 1256.05 1041.8 1257.6 1038.3 1261.55 1035.35 1264.85 1034.2 1270.35 1033.45 1273.8 1033.2 1280.45 1032.15 1314.85 1032.4 1334.65 1032.8 1364.55 1035.95 1388.65 1015.05 1384.2 979.25 1388.7 952.3 1392.1 950.6 1392.3 934.25 1393.95 921.95 1393.35 919.9998046875 1393.248046875 918.4 1393.15 918.45 1391.34140625 918.45 1389.15
L 918.45 1333
Q 918.45 1316.3 919.05 1307.95 919.95 1297.75 920.25 1292.6 920.95 1279.55 919.4 1267.9 919.3478515625 1267.490625 919.3 1267.1 920.7994140625 1263.4845703125 919.75 1258.95 918.5 1253.25 914.15 1249.2 910.55 1245.85 904.75 1243.35 901.7 1242 894.1 1239.55 850.1 1225.55 810.3 1201.2 770.6 1176.85 738 1144.05 733.4 1139.35 730.75 1137.35 726.35 1134.05 722.1 1133.35 718.15 1132.7 713.55 1134.1 710 1135.15 705.45 1137.65 693.1 1144.45 674.4 1160.35 653.2 1178.4 644.1 1184.4 639.8818359375 1187.163671875 631.35 1192.25 628.7236328125 1188.420703125 627.3 1186.35 613.6 1166.5 588 1139.7 573.8 1125.05 566.75 1117.7 564.3267578125 1115.1802734375 562.05 1112.8 583.893359375 1103.6642578125 607.4 1092.15 633.75 1079.25 666.3 1061.25 672.1 1058.1 675.15 1055.8 679.75 1052.35 682.1 1048.4 685.7 1042.3 685.1 1033.35 684.7 1027.8 682.05 1017.45 672.85 982.4 670.3 954.4 667.1 919.95 673.2 891 675.55 880.05 675.9 875.95 676.55 867.45 673.6 861.55 670.75 855.85 664.05 851.55 659.75 848.8 651.15 845.25
L 539.5 799.3
Q 564.89453125 754.7025390625 585.7 707.95 587.2833984375 709.148046875 589.05 710.35 592.2 712.45 598.05 715.95 646.35 744.5 690.45 763.55 696.5 766.15 700.2 767.1 703.984765625 768.06328125 707.3 768 707.48359375 768.056640625 707.65 768.1 711.75 769.15 716.25 767.3 720.35 765.55 723.55 761.95 726.05 759.15 728.55 754.6 731.35 749.3 732.75 746.65 743.65 726.45 767.1 707.95 776.85 700.25 811.05 678.05 846.5 655.1 855.1 650.35 880.8 636.1 902.95 632.35 907.5658203125 631.596484375 908.75 631.3 909.845703125 632.1572265625 911.05 632.75 915.45 634.9 920.55 633.5 925.65 632.1 928.35 628.05 931.25 623.6 930.9 616.45
L 929.3 603.9
Q 928.85 600.05 928.8 594.75 928.8 588.65 928.8 585.6 928.8 575.65 928.1 563.2 927.7 555.65 926.6 540.8
L 924.1 507.2
Q 983.2 502.5 1042.5 508.05 1043.75 524.7 1042.6 551.9 1041.15 585.9 1041.25 595.75 1041.35 604 1042 609.3 1042.7796875 615.3328125 1044.5 620.2 1044.2966796875 620.7482421875 1044.15 621.3 1043.1 625.4 1045.45 629.65 1047.65 633.55 1051.7 635.85 1055.05 637.75 1059.9 638.8 1062.4 639.3 1068.65 640.05 1108.25 644.8 1145.65 659.85 1183.05 674.9 1214.9 698.85 1220 702.65 1223.15 705.55 1227.45 709.4 1230.3 713.25 1233.05 716.95 1237.9 725.05 1240.6529296875 729.224609375 1243.55 731.85 1243.6001953125 731.9716796875 1243.65 732.1 1246.5 739.4 1253 741 1258.9 742.45 1265.5 738.45 1269.95 735.75 1276.1 729.4 1307.45 696.9 1344.6 671.2 Z"/>
</g>
</defs>

<g transform="matrix( 1, 0, 0, 1, 0,0) ">
<use xlink:href="#Layer17_0_FILL"/>
</g>

<g transform="matrix( 1, 0, 0, 1, 0,0) ">
<use xlink:href="#Layer16_0_FILL"/>
</g>
</svg>
