
<svg xmlns="http://www.w3.org/2000/svg" version="1.1" xmlns:xlink="http://www.w3.org/1999/xlink" preserveAspectRatio="none" x="0px" y="0px" width="2000px" height="2000px" viewBox="0 0 2000 2000">
<defs>
<g id="Layer13_0_FILL">
<path fill="#000000" stroke="none" d="
M 1342.45 1077.8
Q 1329.9 1076.5 1304.9 1073.8 1283.05 1071.55 1267.25 1070.65 1259.25 1070.2 1254.45 1070.85 1248.55 1071.6 1244.3 1074.05 1240.6 1072.6 1234.5 1077.05
L 1138.4 1146.35
Q 1132.75 1150.4 1129.8 1152.95 1125.3 1156.85 1122.55 1160.75 1118.7 1166.3 1116.65 1174.45 1115.35 1179.55 1114.05 1189.45
L 1085 1413.45
Q 1083.9 1421.85 1083.95 1426.35 1084.05 1433.55 1086.5 1438.7 1088.05 1442.05 1091.1 1445.5 1092.95 1447.65 1096.9 1451.4
L 1157.7 1509.8
Q 1161.2 1513.15 1163.3 1514.8 1165.6 1516.55 1167.8 1517.65 1168.2 1518.6 1168.7 1519.5 1172.45 1526.3 1182.3 1527.6 1189.3 1528.55 1200.25 1526.7 1233.45 1520.95 1275.25 1518.65 1301.3 1517.15 1350.85 1516.4 1402.5 1515.6 1426.55 1514.4 1468.6 1512.35 1501.65 1507.05 1506.9 1506.25 1509.85 1505.35 1514.3 1504.05 1517.3 1501.85 1521.8 1498.5 1524.55 1492 1526.4 1487.6 1528.1 1479.8 1534.45 1450.7 1540.45 1413.95 1544.05 1392.15 1550.6 1347.75
L 1586 1107.1
Q 1586.7 1102.45 1586.65 1099.9 1586.55 1095.9 1584.95 1093.15 1582.35 1088.65 1576 1087.05 1571.45 1085.9 1564.1 1086.15 1452.55 1089.25 1342.45 1077.8
M 1310.25 1100.95
Q 1395.8 1108.05 1438 1110.6 1509.1 1114.85 1566 1114.4 1555 1154.4 1546.6 1205.25 1541.35 1236.9 1533.55 1297.5 1525.45 1360.35 1520.75 1389.75 1512.5 1440.95 1501.95 1480.8 1461.15 1488.7 1402.75 1490.6 1386.6 1491.15 1352.7 1491.6 1319.6 1492.05 1302.65 1492.65 1248.5 1494.45 1195.25 1500.95 1202.55 1410.2 1221.25 1298 1232.55 1230.1 1258.7 1096.65
L 1310.25 1100.95
M 1139.85 1183.6
Q 1141.3 1178.3 1143.45 1174.45 1146.2 1169.55 1151.35 1164.75 1154.45 1161.9 1161.2 1156.8 1197.15 1129.55 1230.9 1099.55 1230.6 1101.25 1230.3 1103.1 1216.45 1191.95 1199.65 1278.7 1189.35 1331.9 1186.8 1346.7 1180.2 1385.2 1177.9 1415.2 1176.8 1429.05 1175.15 1456.8 1173.65 1475.15 1170.9 1489.3 1142.45 1464.7 1116.7 1438.1 1114 1435.3 1112.65 1433.55 1110.55 1430.9 1109.55 1428.35 1108.3 1425.1 1108.35 1420.75 1108.35 1418.05 1109 1412.9 1117.8 1339.6 1122.2 1302.9 1130.15 1236.95 1137.85 1193.3 1139 1186.85 1139.85 1183.6 Z"/>

<path fill="#655685" stroke="none" d="
M 1143.45 1174.45
Q 1141.3 1178.3 1139.85 1183.6 1139 1186.85 1137.85 1193.3 1130.15 1236.95 1122.2 1302.9 1117.8 1339.6 1109 1412.9 1108.35 1418.05 1108.35 1420.75 1108.3 1425.1 1109.55 1428.35 1110.55 1430.9 1112.65 1433.55 1114 1435.3 1116.7 1438.1 1142.45 1464.7 1170.9 1489.3 1173.65 1475.15 1175.15 1456.8 1176.8 1429.05 1177.9 1415.2 1180.2 1385.2 1186.8 1346.7 1189.35 1331.9 1199.65 1278.7 1216.45 1191.95 1230.3 1103.1 1230.6 1101.25 1230.9 1099.55 1197.15 1129.55 1161.2 1156.8 1154.45 1161.9 1151.35 1164.75 1146.2 1169.55 1143.45 1174.45
M 1438 1110.6
Q 1395.8 1108.05 1310.25 1100.95
L 1258.7 1096.65
Q 1232.55 1230.1 1221.25 1298 1202.55 1410.2 1195.25 1500.95 1248.5 1494.45 1302.65 1492.65 1319.6 1492.05 1352.7 1491.6 1386.6 1491.15 1402.75 1490.6 1461.15 1488.7 1501.95 1480.8 1512.5 1440.95 1520.75 1389.75 1525.45 1360.35 1533.55 1297.5 1541.35 1236.9 1546.6 1205.25 1555 1154.4 1566 1114.4 1509.1 1114.85 1438 1110.6 Z"/>
</g>

<g id="Layer12_0_FILL">
<path fill="#000000" fill-opacity="0.2" stroke="none" d="
M 1201.8 1117.75
Q 1197.35 1124.1 1190.35 1130.9 1186.25 1134.9 1177.35 1142.6
L 1148.9 1167.1
Q 1144.45 1170.95 1142.4 1173.1 1139 1176.6 1137.2 1180.05 1135.05 1184.1 1134.1 1189.8 1133.6 1192.9 1133.05 1200.15 1131.55 1220.3 1127.2 1245.65 1125.05 1258.2 1118.65 1290.85 1114.205859375 1313.53671875 1111.3 1332.25 1106.664453125 1332.247265625 1103.7 1335.5 1100.8 1338.65 1100.2 1344.4 1100.05 1345.85 1100.05 1354.55 1100.05 1362.05 1097.65 1374.5 1094.8 1389.1 1094.35 1394.4 1094 1398.55 1093.95 1407.55 1093.85 1416.1 1093.4 1420.65 1093.05 1423.9 1092.35 1430.45 1092.05 1436.05 1093.55 1439.95 1094.85 1443.4 1097.95 1446.8 1100.05 1449.1 1104.1 1452.35 1113.1 1459.65 1124.75 1468.2 1131.55 1473.25 1145.85 1483.45 1151.2 1487.25 1154.7 1488.75 1159.95 1490.95 1164.35 1489.9 1168 1489.05 1170.9 1485.95 1173.55 1483.15 1174.95 1479.25 1176.00859375 1476.2125 1176.5 1472.25 1177.4125 1470.1087890625 1177.85 1467.4 1178.7 1462.15 1177.8 1452.7 1177.7345703125 1452.01171875 1177.65 1451.3 1179.6576171875 1419.46796875 1185.6 1388.25
L 1189 1371.15
Q 1192.6 1352.2 1194.85 1333.15 1195.45 1328.35 1195.35 1325.65 1195.3 1321.5 1193.9 1318.45 1193.59296875 1317.761328125 1193.2 1317.1 1195.842578125 1308.925390625 1198.35 1299.2 1200.55 1290.75 1203.95 1275.9 1215.15 1227.05 1236.15 1129.05 1237.35 1123.3 1237.7 1120.5 1238.3 1115.7 1237.65 1111.9 1236.9 1107.35 1234.35 1103.85 1231.55 1100.05 1227.55 1098.9 1223.65 1097.75 1219.25 1099.35 1215.3 1100.8 1211.95 1104 1209.45 1106.45 1206.6 1110.6 1203.45 1115.45 1201.8 1117.75 Z"/>
</g>
</defs>

<g transform="matrix( 1, 0, 0, 1, 0,0) ">
<use xlink:href="#Layer13_0_FILL"/>
</g>

<g transform="matrix( 1, 0, 0, 1, 0,0) ">
<use xlink:href="#Layer12_0_FILL"/>
</g>
</svg>
