
<svg xmlns="http://www.w3.org/2000/svg" version="1.1" xmlns:xlink="http://www.w3.org/1999/xlink" preserveAspectRatio="none" x="0px" y="0px" width="2000px" height="2000px" viewBox="0 0 2000 2000">
<defs>
<g id="Layer13_0_FILL">
<path fill="#000000" stroke="none" d="
M 630.9 1223.6
Q 618.9 1221.2 612.65 1220.7 602.45 1219.95 594.65 1222.3 589.6 1223.85 583.55 1227.4 582.8 1227.85 573.15 1234 554.15 1246.1 520.9 1259.9 477.25 1277.95 467.05 1283 461.3 1285.8 458.1 1288.05 453.45 1291.3 451 1295.2 448.25 1299.5 446.65 1307.75 440.85 1337.8 446.95 1375.75 450.75 1399.3 463.2 1443.15 466.15 1453.35 468.4 1458.4 472.05 1466.55 477.35 1471.3 483.2 1476.55 492.65 1479.15 498.85 1480.85 510.2 1482 639.3 1495.35 769.5 1490.15 780.75 1489.7 787.15 1488.8 796.8 1487.45 804 1484.2 813.95 1479.7 825.55 1468.15 838.1 1454.75 844.9 1448.8 848.6 1445.6 856.35 1439.7 864.3 1433.7 867.9 1430.65 880.75 1419.6 884.35 1408.2 886.7 1400.6 885.8 1390.6 885.2 1384.4 882.55 1372.8
L 864.85 1296.55
Q 863.3 1289.65 861.95 1285.95 859.9 1280.25 856.75 1276.5 852.3 1271.25 844.25 1268.1 839.1 1266.1 829.15 1264.05
L 630.9 1223.6
M 591 1246.6
Q 595.7 1246 601.5 1246.7 605.15 1247.15 611.9 1248.55
L 823 1292.75 817.05 1297.65
Q 811.7 1302.15 809.9 1303.75 808.6 1305 805.95 1307.45 803.65 1309.6 801.75 1310.85 800.5 1311.7 797.95 1313.05 795.3 1314.45 794.1 1315.2 792.45 1316.25 790 1318.35 787.05 1320.9 786 1321.65 783.75 1323.3 777.1 1327 773.7 1328.9 765.25 1333.9 757.75 1338.35 753.35 1340.75 750 1342.55 748.65 1343.5 746.85 1344.7 745.65 1346.05 703.103125 1345.793359375 651 1338.4 616.9 1333.55 557.15 1321.95 515.2732421875 1313.9083984375 472.65 1305.35 474.3005859375 1304.3736328125 476.45 1303.25
L 570.5 1254.35
Q 576.95 1251 580.45 1249.55 586.15 1247.2 591 1246.6
M 528.95 1329.5
Q 601.1 1345.8 637.7 1352.45 698.45 1363.5 747.75 1366.2 748.3638671875 1366.2287109375 748.95 1366.25
L 750.95 1373.1
Q 758.95 1400.5 763.35 1413.5 765.2 1418.9 770 1432.4
L 779.85 1459.85
Q 775.3400390625 1460.4751953125 767.5 1460.8 633.75 1466.75 500.4 1453.65 496.25 1453.25 494 1452.65 490.55 1451.75 488.45 1449.85 486.2 1447.85 484.95 1444.25 484.15 1441.95 483.4 1437.6
L 464.55 1326.55
Q 463.75 1322.1 463.7 1319.6 463.6630859375 1316.76171875 464.35 1314.5 465.725 1314.9041015625 467.15 1315.3 471.65 1316.5 481.8 1318.85
L 528.95 1329.5
M 813 1318.45
Q 822.75 1310.5 827.7 1306.05 832.1947265625 1302.0103515625 835.95 1298.15 847.527734375 1342.91484375 856.2 1388.65 856.85 1392.15 856.95 1393.95 857.15 1396.95 856.5 1399.2 855.7 1401.85 853.45 1404.5 852.05 1406.15 848.95 1408.9
L 807.5 1445.5
Q 803.05 1449.45 800.6 1451.35 797.69765625 1453.5630859375 795 1455.1 790.353515625 1442.2083984375 781.5 1418.85
L 760.95 1363.95
Q 764.5048828125 1361.99140625 765.2 1358.4 765.6455078125 1356.2751953125 764.85 1354.15 765.0955078125 1353.989453125 765.35 1353.8 771.05 1349.6 772.7 1348.45 774.95 1346.9 779.55 1344.05 784.15 1341.15 786.35 1339.6 791.3 1336.3 799.8 1329.25
L 813 1318.45
M 1476 1333.85
Q 1474.4 1325.6 1471.65 1321.3 1469.2 1317.4 1464.55 1314.15 1461.35 1311.9 1455.6 1309.1 1445.4 1304.05 1401.75 1286 1368.5 1272.2 1349.5 1260.1 1339.85 1253.95 1339.1 1253.5 1333.05 1249.95 1328 1248.4 1320.2 1246.05 1310 1246.8 1303.75 1247.3 1291.75 1249.7
L 1093.5 1290.15
Q 1083.55 1292.2 1078.4 1294.2 1070.35 1297.35 1065.9 1302.6 1062.75 1306.35 1060.7 1312.05 1059.35 1315.75 1057.8 1322.65
L 1040.1 1398.9
Q 1037.45 1410.5 1036.85 1416.7 1035.95 1426.7 1038.3 1434.3 1041.9 1445.7 1054.75 1456.75 1058.35 1459.8 1066.3 1465.8 1074.05 1471.7 1077.75 1474.9 1084.55 1480.85 1097.1 1494.25 1108.7 1505.8 1118.65 1510.3 1125.85 1513.55 1135.5 1514.9 1141.9 1515.8 1153.15 1516.25 1283.35 1521.45 1412.45 1508.1 1423.8 1506.95 1430 1505.25 1439.45 1502.65 1445.3 1497.4 1450.6 1492.65 1454.25 1484.5 1456.5 1479.45 1459.45 1469.25 1471.9 1425.4 1475.7 1401.85 1481.8 1363.9 1476 1333.85
M 1458.95 1345.7
Q 1458.9 1348.2 1458.1 1352.65
L 1439.25 1463.7
Q 1438.5 1468.05 1437.7 1470.35 1436.45 1473.95 1434.2 1475.95 1432.1 1477.85 1428.65 1478.75 1426.4 1479.35 1422.25 1479.75 1288.9 1492.85 1155.15 1486.9 1147.3 1486.6 1142.75 1485.95
L 1152.65 1458.5
Q 1157.45 1445 1159.3 1439.6 1163.7 1426.6 1171.7 1399.2
L 1173.7 1392.35
Q 1174.3 1392.35 1174.9 1392.3 1224.2 1389.6 1284.95 1378.55 1321.55 1371.9 1393.7 1355.6
L 1440.85 1344.95
Q 1451 1342.6 1455.5 1341.4 1456.9 1341 1458.3 1340.6 1459 1342.85 1458.95 1345.7
M 1321.15 1272.8
Q 1326.95 1272.1 1331.65 1272.7 1336.5 1273.3 1342.2 1275.65 1345.7 1277.1 1352.15 1280.45
L 1446.2 1329.35
Q 1448.35 1330.45 1449.95 1331.45 1407.4 1340 1365.5 1348.05 1305.75 1359.65 1271.65 1364.5 1219.55 1371.9 1176.95 1372.15 1175.8 1370.8 1174 1369.6 1172.65 1368.65 1169.3 1366.85 1164.9 1364.45 1157.4 1360 1148.95 1355 1145.55 1353.1 1138.9 1349.4 1136.65 1347.75 1135.6 1347 1132.65 1344.45 1130.2 1342.35 1128.55 1341.3 1127.35 1340.55 1124.7 1339.15 1122.15 1337.8 1120.9 1336.95 1119 1335.7 1116.7 1333.55 1114.05 1331.1 1112.75 1329.85 1110.95 1328.25 1105.6 1323.75
L 1099.6 1318.85 1310.75 1274.65
Q 1317.5 1273.25 1321.15 1272.8
M 1143.1 1370.15
Q 1147.7 1373 1149.95 1374.55 1151.6 1375.7 1157.3 1379.9 1157.55 1380.1 1157.8 1380.3 1157 1382.4 1157.45 1384.5 1158.15 1388.1 1161.7 1390.1
L 1141.15 1444.95
Q 1132.3 1468.3 1127.65 1481.2 1124.95 1479.65 1122.05 1477.45 1119.6 1475.55 1115.15 1471.6
L 1073.7 1435
Q 1070.6 1432.25 1069.2 1430.6 1066.95 1427.95 1066.15 1425.3 1065.5 1423.05 1065.7 1420.05 1065.8 1418.25 1066.45 1414.75 1075.1 1369 1086.7 1324.3 1090.45 1328.1 1094.95 1332.15 1099.9 1336.6 1109.65 1344.55
L 1122.85 1355.35
Q 1131.35 1362.4 1136.3 1365.7 1138.5 1367.25 1143.1 1370.15 Z"/>

<path fill="#655685" stroke="none" d="
M 827.7 1306.05
Q 822.75 1310.5 813 1318.45
L 799.8 1329.25
Q 791.3 1336.3 786.35 1339.6 784.15 1341.15 779.55 1344.05 774.95 1346.9 772.7 1348.45 771.05 1349.6 765.35 1353.8 765.0955078125 1353.989453125 764.85 1354.15 765.6455078125 1356.2751953125 765.2 1358.4 764.5048828125 1361.99140625 760.95 1363.95
L 781.5 1418.85
Q 790.353515625 1442.2083984375 795 1455.1 797.69765625 1453.5630859375 800.6 1451.35 803.05 1449.45 807.5 1445.5
L 848.95 1408.9
Q 852.05 1406.15 853.45 1404.5 855.7 1401.85 856.5 1399.2 857.15 1396.95 856.95 1393.95 856.85 1392.15 856.2 1388.65 847.527734375 1342.91484375 835.95 1298.15 832.1947265625 1302.0103515625 827.7 1306.05
M 637.7 1352.45
Q 601.1 1345.8 528.95 1329.5
L 481.8 1318.85
Q 471.65 1316.5 467.15 1315.3 465.725 1314.9041015625 464.35 1314.5 463.6630859375 1316.76171875 463.7 1319.6 463.75 1322.1 464.55 1326.55
L 483.4 1437.6
Q 484.15 1441.95 484.95 1444.25 486.2 1447.85 488.45 1449.85 490.55 1451.75 494 1452.65 496.25 1453.25 500.4 1453.65 633.75 1466.75 767.5 1460.8 775.3400390625 1460.4751953125 779.85 1459.85
L 770 1432.4
Q 765.2 1418.9 763.35 1413.5 758.95 1400.5 750.95 1373.1
L 748.95 1366.25
Q 748.3638671875 1366.2287109375 747.75 1366.2 698.45 1363.5 637.7 1352.45
M 601.5 1246.7
Q 595.7 1246 591 1246.6 586.15 1247.2 580.45 1249.55 576.95 1251 570.5 1254.35
L 476.45 1303.25
Q 474.3005859375 1304.3736328125 472.65 1305.35 515.2732421875 1313.9083984375 557.15 1321.95 616.9 1333.55 651 1338.4 703.103125 1345.793359375 745.65 1346.05 746.85 1344.7 748.65 1343.5 750 1342.55 753.35 1340.75 757.75 1338.35 765.25 1333.9 773.7 1328.9 777.1 1327 783.75 1323.3 786 1321.65 787.05 1320.9 790 1318.35 792.45 1316.25 794.1 1315.2 795.3 1314.45 797.95 1313.05 800.5 1311.7 801.75 1310.85 803.65 1309.6 805.95 1307.45 808.6 1305 809.9 1303.75 811.7 1302.15 817.05 1297.65
L 823 1292.75 611.9 1248.55
Q 605.15 1247.15 601.5 1246.7
M 1149.95 1374.55
Q 1147.7 1373 1143.1 1370.15 1138.5 1367.25 1136.3 1365.7 1131.35 1362.4 1122.85 1355.35
L 1109.65 1344.55
Q 1099.9 1336.6 1094.95 1332.15 1090.45 1328.1 1086.7 1324.3 1075.1 1369 1066.45 1414.75 1065.8 1418.25 1065.7 1420.05 1065.5 1423.05 1066.15 1425.3 1066.95 1427.95 1069.2 1430.6 1070.6 1432.25 1073.7 1435
L 1115.15 1471.6
Q 1119.6 1475.55 1122.05 1477.45 1124.95 1479.65 1127.65 1481.2 1132.3 1468.3 1141.15 1444.95
L 1161.7 1390.1
Q 1158.15 1388.1 1157.45 1384.5 1157 1382.4 1157.8 1380.3 1157.55 1380.1 1157.3 1379.9 1151.6 1375.7 1149.95 1374.55
M 1331.65 1272.7
Q 1326.95 1272.1 1321.15 1272.8 1317.5 1273.25 1310.75 1274.65
L 1099.6 1318.85 1105.6 1323.75
Q 1110.95 1328.25 1112.75 1329.85 1114.05 1331.1 1116.7 1333.55 1119 1335.7 1120.9 1336.95 1122.15 1337.8 1124.7 1339.15 1127.35 1340.55 1128.55 1341.3 1130.2 1342.35 1132.65 1344.45 1135.6 1347 1136.65 1347.75 1138.9 1349.4 1145.55 1353.1 1148.95 1355 1157.4 1360 1164.9 1364.45 1169.3 1366.85 1172.65 1368.65 1174 1369.6 1175.8 1370.8 1176.95 1372.15 1219.55 1371.9 1271.65 1364.5 1305.75 1359.65 1365.5 1348.05 1407.4 1340 1449.95 1331.45 1448.35 1330.45 1446.2 1329.35
L 1352.15 1280.45
Q 1345.7 1277.1 1342.2 1275.65 1336.5 1273.3 1331.65 1272.7
M 1458.1 1352.65
Q 1458.9 1348.2 1458.95 1345.7 1459 1342.85 1458.3 1340.6 1456.9 1341 1455.5 1341.4 1451 1342.6 1440.85 1344.95
L 1393.7 1355.6
Q 1321.55 1371.9 1284.95 1378.55 1224.2 1389.6 1174.9 1392.3 1174.3 1392.35 1173.7 1392.35
L 1171.7 1399.2
Q 1163.7 1426.6 1159.3 1439.6 1157.45 1445 1152.65 1458.5
L 1142.75 1485.95
Q 1147.3 1486.6 1155.15 1486.9 1288.9 1492.85 1422.25 1479.75 1426.4 1479.35 1428.65 1478.75 1432.1 1477.85 1434.2 1475.95 1436.45 1473.95 1437.7 1470.35 1438.5 1468.05 1439.25 1463.7
L 1458.1 1352.65 Z"/>
</g>

<g id="Layer12_0_FILL">
<path fill="#000000" fill-opacity="0.2" stroke="none" d="
M 1073.55 1332.9
Q 1072.45 1334.3 1071.55 1335.95 1070.55 1337.15 1069.65 1338.55 1066.05 1344.2 1064.3 1354.25 1063.15 1360.5 1061.75 1373.3
L 1057.15 1414.55
Q 1056.6 1419.4 1056.6 1422.05 1056.55 1426.25 1057.5 1429.45 1059.4 1435.9 1066.4 1441.95 1070.4 1445.45 1079.3 1451.75 1084.6 1455.95 1091.45 1463.25 1095.25 1467.35 1102.9 1475.55 1106.05 1478.8 1108.5 1480.55 1111.8 1482.95 1115.15 1483.65 1116.7 1484 1118.3 1484 1120.55 1484.75 1122.7 1484.75 1126.55 1484.75 1130.25 1482.55 1133.65 1480.5 1136.2 1477.1 1138.35 1474.2 1140.05 1470.1 1141.2 1467.3 1142.65 1462.45 1148.05 1444.6 1151.55 1426.85 1152 1425.45 1152.3 1424.15 1153.1 1420.65 1153.55 1418.9 1153.8 1418 1154.05 1417.25 1157.55 1417.5 1160.85 1416.65 1164.7 1415.65 1167.6 1413.3 1170.6 1410.85 1172 1407.25 1173.5 1403.5 1172.75 1399.85 1172.2 1397.05 1170.2 1394.15 1168.85 1392.15 1166.15 1389.2 1137.7 1358.05 1101.55 1333.8 1095.55 1329.8 1091.3 1328.25 1085.25 1326.1 1080.4 1327.8 1076.45 1329.15 1073.55 1332.9
M 849.7 1309.4
Q 848.81484375 1308.00625 847.75 1306.8 846.9041015625 1305.1724609375 845.8 1303.75 842.9 1300 838.95 1298.65 834.1 1296.95 828.05 1299.1 823.8 1300.65 817.8 1304.65 781.65 1328.9 753.2 1360.05 750.5 1363 749.15 1365 747.15 1367.9 746.6 1370.7 745.85 1374.35 747.35 1378.1 748.75 1381.7 751.75 1384.15 754.65 1386.5 758.5 1387.5 761.78828125 1388.355859375 765.25 1388.05 765.5505859375 1388.86953125 765.8 1389.75 766.25 1391.5 767.05 1395 767.3728515625 1396.2830078125 767.8 1397.7 771.281640625 1415.4349609375 776.7 1433.3 778.15 1438.15 779.3 1440.95 781 1445.05 783.15 1447.95 785.7 1451.35 789.1 1453.4 792.8 1455.6 796.65 1455.6 798.8193359375 1455.576171875 801.05 1454.8 802.63828125 1454.8625 804.2 1454.5 807.55 1453.8 810.85 1451.4 813.3 1449.65 816.45 1446.4 824.1 1438.2 827.9 1434.1 834.75 1426.8 840.05 1422.6 848.95 1416.3 852.95 1412.8 859.95 1406.75 861.85 1400.3 862.8 1397.1 862.75 1392.9 862.75 1390.25 862.2 1385.4
L 857.6 1344.15
Q 856.2 1331.35 855.05 1325.1 853.3 1315.05 849.7 1309.4 Z"/>
</g>
</defs>

<g transform="matrix( 1, 0, 0, 1, 0,0) ">
<use xlink:href="#Layer13_0_FILL"/>
</g>

<g transform="matrix( 1, 0, 0, 1, 0,0) ">
<use xlink:href="#Layer12_0_FILL"/>
</g>
</svg>
