
<svg xmlns="http://www.w3.org/2000/svg" version="1.1" xmlns:xlink="http://www.w3.org/1999/xlink" preserveAspectRatio="none" x="0px" y="0px" width="2000px" height="2000px" viewBox="0 0 2000 2000">
<defs>
<g id="Layer11_0_FILL">
<path fill="#000000" stroke="none" d="
M 1363.3 634.9
Q 1345.95 613.05 1334 596 1311.85 562.7 1300 546.7 1279.5 519 1259.45 503.6 1232.25 482.75 1190.4 471.55 1165.4 464.9 1113.7 457.75 1074.85 452.4 1056.35 451.35 1024.25 449.6 999.35 455 986.95 457.7 968.1 464.3 942.5 473.3 937.15 474.9 922.1 479.45 899.8 483.9 874.6 488.7 862.05 491.3 831.85 497.55 787.5 510.15 761.45 517.5 746.9 523.1 724.95 531.5 709.3 542.4 692.9 553.8 677.6 571.85 665.7 585.95 652.05 607.2 624.95 649.35 598.1 706.05 582.05 739.9 552.65 809.35 543.5 831 539.55 841.75 532.8 860 529.55 875.2 526 891.95 524.85 913.05 524.1 927.05 524.25 951.35 524.85 1051.45 532.45 1122.55 542.35 1215 566.3 1289.65 571.15 1304.85 575.45 1314.15 581.45 1327.15 589.25 1336 599.6 1347.85 616.45 1356.3 629.4 1362.8 648.85 1368.45 669.35 1374.4 694.85 1379.6 712.7 1383.2 741.4 1388 806.15 1398.85 871.4 1407.8 925.95 1415.3 960.15 1417.65 1009.05 1421 1049.1 1417.05 1089.85 1413.1 1134.5 1400.45 1172.55 1389.7 1216.9 1371.65 1249.2 1358.55 1273.75 1345.85 1303.4 1330.55 1326.85 1313.4 1353.2 1294.1 1372.95 1271.45 1394.4 1246.85 1406.9 1219.55 1414.3 1203.4 1420.2 1182.45 1424.2 1168.2 1429.4 1144.05 1458.15 1011.75 1475.75 879 1478.2 860.8 1478.85 850.35 1479.9 834.45 1478.3 821.6 1476.15 804.15 1468.4 785.3 1462 769.75 1451 751.5 1432.15 720.15 1393.95 672.85 1373.4 647.65 1363.3 634.9
M 1335.9 653.95
Q 1345.2 664.6 1364 685.85 1394.2 721.25 1418.8 760.8 1429.75 778.45 1435.8 791.6 1443.75 809.05 1446.2 824.85 1446.2654296875 825.2638671875 1446.3 825.65
L 1331.35 879.25
Q 1328.6 880.5 1327.15 881.65 1325.05 883.25 1324.55 885.35 1324 887.6 1325.35 889.8 1326.65 891.9 1328.95 892.85 1332.85 894.4 1338.2 892.4 1339.85 891.8 1342.5 890.45 1345.6 888.9 1346.75 888.4 1348.6 887.6 1352.4 886.35 1356.2 885.1 1358.05 884.3 1359.65 883.55 1361.95 882.35 1363.2 881.65 1365.75 880.25 1368.85 878.65 1376.85 875.35 1386.1 871.55 1395.35 867.3 1400 865.15 1425.9 852.1 1438.0376953125 845.98203125 1447.55 841.8 1447.61796875 849.084375 1446.95 857.1 1446.05 868.05 1442.55 889.3
L 1409.35 1091.8
Q 1400.9 1143.15 1393.55 1169.2 1381.65 1211.35 1361.55 1240 1339.8537109375 1270.9103515625 1301.8 1296.25
L 1318.3 1150.5
Q 1323 1109.1 1324.7 1088.25 1327.5 1053.6 1327.05 1025.8 1326.8 1008.7 1324.65 978 1322.35 944.5 1321.9 930.2 1321.8 926.9 1321.5 925.2 1321.05 922.4 1319.8 920.55 1318.35 918.4 1315.75 917.7 1313 916.95 1311.2 918.55 1309.8 919.8 1309.45 922.15 1309.2 923.8 1309.5 926.45 1318.4 1015 1309.75 1103.3 1308.15 1119.65 1305.55 1140 1303.95 1152.35 1300.55 1176.55
L 1282.7 1304.3
Q 1282.364453125 1306.51484375 1282.2 1308.3 1254.3703125 1324.0845703125 1210.3 1343.1 1186 1353.65 1170.75 1359.55 1148.85 1368.1 1130.3 1373.45 1068.45 1391.35 989.75 1390.05 934.45 1389.1 847.1 1376.9 740.05 1361.95 658.1 1344.65 641.55 1341.15 632.65 1338.1 618.9 1333.35 609.8 1326 598.7 1317 590.8 1301.4 585.15 1290.2 579.6 1271.6 558.15 1200.35 549.2 1113.15 542.25 1044.95 541.75 951.2 541.65 932.2 542.1 921.1 542.8 904.5 545 891.15 548.25 870.95 556.85 846.75 562 832.25 574.05 803.85 603.25 735.1 619.8 701.25 647.15 645.2 675.7 604.3 686.55 588.75 695.75 578.45 707.55 565.25 719.85 556.7 730.1294921875 549.5603515625 743.75 543.7 744.5568359375 544.101171875 745.45 544.35 748 545.1 751.4 544.75 753.4 544.55 757.35 543.65 771.35 540.4 798.3 534.9 826.15 529.2 839.3 526.25 847.128515625 524.462890625 854.5 522.6 899.68203125 518.7400390625 927.1 517.8 981.9 515.85 1025.8 521.35 1046.8 524 1062.65 528.2 1082.2 533.35 1097.4 541.65 1110.05 548.5 1123.5 559.65 1132.9 567.45 1147 581.15 1171.9 605.4 1186.65 623.55 1206.6 648.15 1217.3 672.2 1221.35 681.3 1228.55 699.95 1235.45 716 1243.5 725.35 1248 730.6 1259.05 739.85 1269.75 748.9 1274.4 754.5 1282.4 764.2 1287 777.8 1290.6 788.35 1292.9 804.2 1294.25 813.35 1296.4 831.9 1298.65 848.2 1301.95 859 1303.1 862.8 1305.7 865.15 1308.65 867.9 1311.3 866.15 1314 864.4 1313.25 858.25
L 1308.9 823.6
Q 1305.55 797.15 1301.8 783.4 1295.9 761.6 1284.6 747.55 1279.7 741.5 1267.7 730.65 1255.95 720.05 1250.95 713.6 1243.9 704.45 1237.35 688.8 1230.5 671 1226.55 662.35 1216.9 641.25 1199 619.15 1186.55 603.85 1163.95 581.15 1144.55 561.6 1131.7 551 1113 535.5 1095.1 527 1079.3 519.5 1059.15 515 1043.4 511.5 1021.5 509.2 978.14609375 504.6146484375 931.65 505.55 939.094140625 502.8529296875 948.5 499.05 969.75 490.45 980.5 487.4 1000.35 481.85 1024.7 481.15 1043.75 480.55 1069.65 483 1124.6 488.15 1177.65 501.6 1195.35 506.1 1206.95 510.4 1222.55 516.2 1234.1 523.9 1255.25 538 1275.6 568.3 1280.55 575.65 1292.3 594.7 1302.75 611.6 1309.25 620.8 1319.25 634.95 1335.9 653.95
M 955.1 769.8
Q 945.7 776.15 940.8 783.35 935.95 790.45 933.9 800.45 932.25 808.45 932.25 819.2 932.15 842.6 939.05 861.65 946.95 883.5 962.9 895.65 969.9 901 979.4 905 987.05 908.25 997.55 911.05 1024.05 918.2 1051.7 919.25 1079.35 920.3 1106.25 915.1 1133.65 909.85 1156.65 898.7 1181.75 886.5 1199.4 868.25 1218.15 849.05 1219.3 830.1 1219.85 821.4 1216.65 811.6 1214.05 803.75 1208.7 794.35 1194.55 769.5 1175.25 754.8 1162.65 745.25 1146.7 739.15 1131.9 733.5 1115 731.2 1087.15 727.35 1049.75 732.45 1033.75 734.6 1021.65 737.65 1006.8 741.4 994.9 747.15 990.15 749.4 983.55 753.2 976.2 757.5 972.45 759.6 958.65 767.4 955.1 769.8
M 989.15 786.55
Q 995.35 778.9 1002.3 774.5 1008.6 770.55 1017.5 768.1 1023.2 766.5 1033.85 764.7 1054.25 761.25 1067 760.2 1085.35 758.65 1100.3 760.5 1117.85 762.65 1132.5 769.7 1148.5 777.45 1158.45 790 1169.15 803.5 1170.85 820.75 1172.6 838.75 1163.45 852.25 1157.4 861.2 1146.55 867.9 1137.9 873.25 1125.15 877.75 1087.9 891.05 1048.2 890.6 1036.2 890.45 1027 888.9 1015.7 886.95 1006.9 882.55 993.3 875.85 983.1 862.4 975.55 852.45 972.4 841.4 968.95 829.3 971.7 818.4 973.45 811.45 979.1 801.6 984.35 792.45 989.15 786.55
M 1052.2 770.25
Q 1038.4 774.75 1028.5 781.8 1016.9 790.05 1011.75 801.15 1009.3 806.4 1008 813.1 1007 818.3 1006.45 825.65 1006 832.45 1006.35 837 1006.9 843.2 1008.95 847.9 1011.15 852.75 1016.85 859.2 1020.9 863.8 1024.2 866.65 1028.45 870.4 1032.75 872.5 1036.7 874.4 1045.4 876.4 1061.1 880.1 1069.75 880.95 1088.7 882.75 1107.05 876.95 1117.15 873.75 1125.1 868.55 1133.95 862.75 1139.35 854.95 1143.9 848.35 1147.25 838.25 1152.55 822.65 1150.5 811.6 1149.4 805.3 1145.65 798.45 1141.5 790.8 1135.35 784.5 1129.2 778.2 1121.65 773.9 1106.85 765.4 1087.7 764.85 1070.35 764.35 1052.2 770.25
M 1097.85 790.75
Q 1098.9 791.1 1100.95 791.85 1102.4 792.35 1105.25 793.3 1107.75 794.2 1109.4 795.1 1111.3 796.2 1113.75 798.2 1125.1 807.35 1128.1 816.55 1129.9 822.15 1129.1 828.35 1128.3 834.35 1125.2 839.6 1122.25 844.6 1117.45 848.6 1112.85 852.35 1107.2 854.75 1103.8 856.15 1098.7 857.55 1092.95 859 1090.05 859.8 1085.15 861.25 1082.7 861.85 1078.45 862.9 1075.2 863 1072.65 863.05 1067.65 862.45 1058.55 861.35 1054.1 860.6 1046.65 859.3 1040.9 857.35 1037.35 856.15 1035.95 854.65 1034.8 853.45 1033.65 850.75
L 1029.25 840.65
Q 1027 835.25 1026.6 832.65 1026.1 828.8 1027.55 823.3 1030.1 812.8 1035.35 806.85 1040.1 801.35 1050.25 796.75 1069.95 787.8 1088.15 788.8 1092 789.05 1094.7 789.75 1096 790.1 1097.85 790.75
M 1095.45 833.3
Q 1095.75 831.05 1095.05 828.9 1093.95 825.25 1090.2 821.6 1086.55 818.1 1083.2 817.75 1082.15 817.7 1080.8 817.85 1078.85 818.15 1077.35 819.2 1075.2 820.8 1074.75 823.95 1074.35 826.65 1075.2 829.7 1077.25 836.8 1082.5 839.4 1085.4 840.85 1088.65 840.35 1092.05 839.75 1093.9 837.35 1095.2 835.65 1095.45 833.3
M 677.2 724.3
Q 666.6 728.25 658.45 733.15 641.4 743.4 627.8 761.5 612.55 782 607.6 806 602.3 831.7 610.7 853.75 614.15 862.8 621.1 873.65 629.25 886.45 638.1 895.2 654 910.85 676.7 918.3 698.5 925.45 721.7 923.5 743.7 921.65 765.35 911.9 785.75 902.7 803.7 887.45 833.35 862.25 844.05 831.8 850 814.9 849.35 797.55 848.7 779.3 840.8 764.3 835.4 753.95 824.6 742.45 809.75 726.6 794.75 719.05 774.3 708.7 746.8 709.55 725.3 710.2 697.05 718 685.25 721.25 677.2 724.3
M 666.25 763.3
Q 672.5 758.05 678.25 754.75 686.7 749.9 698.6 746.9 705.8 745.1 720.25 742.8 727.25 741.65 731.15 741.2 737.15 740.5 742.1 740.55 750.2 740.65 762.05 743.2 774.75 745.8 783.3 749.2 794.45 753.65 801.75 760.55 810.45 768.7 815.8 782.05 822.8 799.55 819.55 814.75 817.6 823.65 810.75 834.95 801.9 849.65 789.8 862.25 775.45 877.1 760.8 884.1 741.15 893.6 713.4 893 680.35 892.35 663.8 876.45 657.4 870.3 650.75 858.45 639.65 838.6 637.3 822.45 635.85 812.45 637.55 803.15 639.4 793.1 644.65 785.4 647.9 780.65 655.4 773.35 662.1 766.85 666.25 763.3
M 688.1 775.65
Q 682.1 779.45 677.8 783.45 672.75 788.1 669.5 793.45 665.9 799.3 664.85 805.4 663.3 814.55 667.3 827.65 669.9 836.1 673.3 842.2 680.35 855.05 693.45 863 706.55 870.9 721.2 871.2 728.7 871.35 737.8 869.5 743.5 868.3 754.05 865.25 759.15 863.8 761.85 862.8 766.1 861.3 769.25 859.45 774.15 856.55 778.75 851.55 782.35 847.7 786.4 841.7 790.75 835.25 793.2 830.1 796.35 823.5 797.25 817.4 798.25 810.9 796.9 804 795.65 797.5 792.45 791.3 786.95 780.55 777.1 772.95 767.2 765.35 755.35 762.85 750.3 761.8 743.75 761.5 739.85 761.3 732 761.35 725.75 761.4 722.35 761.65 717 762.1 712.9 763.25 708.05 764.6 699.4 769.15 692.45 772.9 688.1 775.65
M 706.25 786.65
Q 714.8 781.95 725.65 780.9 735.4 779.9 746.05 782 755.5 783.85 760.45 787.6 762.45 789.1 764.7 791.6 765.15 792.1 768.45 796.1 772.2 800.5 773.25 801.95 775.75 805.45 776.6 808.6 778.45 815.55 773.85 824.15 769.05 833.15 760.05 839.65 751.55 845.75 740.95 848.5 732.2 850.8 723.75 850.4 714.65 849.95 707.1 846.4 699.05 842.65 693.65 835.75 687.95 828.5 687.05 820.1 686 810.2 691.65 800.75 697.05 791.7 706.25 786.65
M 729.35 820.8
Q 732.5 819.7 733.8 817.25 734.4 816.05 734.7 812.9 735 810.2 735 809.35 735 807.3 734.35 805.9 733.35 803.7 730.6 802.3 728.7 801.3 725.35 800.5 724.95 800.75 724.25 800.85 721.95 801.4 720.2 803.2 718.5 804.9 717.75 807.25 716.35 811.8 718.55 816.55 719.15 817.8 719.8 818.6 721.4 820.55 724.15 821.15 726.8 821.7 729.35 820.8
M 619.7 1040.6
Q 608.45 1062.4 607.6 1081.9 607.15 1092.15 609.5 1105.85 617.1 1151.5 640.45 1180.25 649.65 1191.5 658.8 1195.95 667.85 1200.25 680.3 1200.15 693.9 1200.05 703.8 1195.15 715.7 1189.3 723.9 1175.85 730.7 1164.75 734.65 1149 739.180078125 1131.0955078125 740.15 1111.1 741.412109375 1111.20546875 742.8 1111.15
L 824.15 1108.9
Q 824.2513671875 1110.27265625 824.4 1112 824.75 1116.25 824.85 1118.6 825.15 1123.65 825.25 1133.85 825.5 1139.85 826.4 1149.1
L 829 1177.5
Q 829.5 1182.8 829.95 1185.35 830.7 1189.7 832.15 1192.9 834.35 1197.85 837.9 1198.8 840.55 1199.5 843.25 1197.75 845.75 1196.1 846.85 1193.25 847.8 1190.85 847.8 1187.65 847.8 1185.65 847.35 1181.85
L 838.1 1108.55 992.75 1104.3
Q 993.00703125 1109.595703125 993.3 1113.3 993.5 1115.75 993.9 1120.7 994.2 1125.05 994.25 1128.1 994.3 1131.15 994.05 1137.95 993.85 1144.35 993.95 1147.8 994.1 1153.05 995.3 1161.9 996.65 1172.1 996.95 1175.95 997.5 1183.45 998.05 1185.9 999.15 1191.4 1002.15 1194.5 1003.8 1196.25 1006.05 1196.85 1008.45 1197.45 1010.2 1196.2 1011.25 1195.45 1011.9 1193.9 1012.3 1192.95 1012.75 1191.05 1013.8 1186.4 1014.2 1184.05 1014.9 1180.2 1014.95 1177.05 1015.05 1173.85 1014.45 1169 1013.55 1161.65 1013.5 1161.05 1012.95 1155.25 1013.3 1143.55 1013.65 1131.85 1013.1 1126 1012.9 1123.8 1012.3 1119.75 1011.65 1115.45 1011.45 1113.5 1011.05 1109.65 1010.85 1104.25 1010.84453125 1104.023046875 1010.85 1103.8
L 1067.2 1102.25
Q 1077.95 1101.95 1083.25 1101.5 1089.7318359375 1100.9537109375 1095.1 1099.85 1094.173828125 1110.4685546875 1094.45 1119.35 1094.8 1130.35 1097.15 1142.9 1099 1152.95 1102.55 1166 1105.95 1178.3 1109.5 1185.55 1114.5 1195.75 1121.85 1201.3 1127.7 1205.7 1136.35 1208.1 1142.45 1209.8 1152.4 1211 1159.65 1211.9 1164.1 1211.85 1170.6 1211.75 1175.5 1209.85 1184.7 1206.35 1192.35 1195.45 1201.4 1182.55 1205.55 1164.25 1208.85 1149.9 1209.45 1130 1210.2 1106.3 1207.4 1087.1 1204.1 1064.35 1195.65 1046.15 1190.45 1034.95 1184.35 1028.55 1179.7 1023.65 1169.9 1017.3 1162.75 1012.7 1157.8 1010.6 1150.8 1007.6 1144.6 1007.65 1137.65 1007.7 1128.65 1011.9 1118.85 1016.3 1113.65 1022.1 1108.7 1027.55 1105.85 1036.2 1103.95 1041.95 1102.15 1052.3 1099.8 1066 1098.15 1076.8 1097.387109375 1081.7396484375 1096.8 1086 1095.4810546875 1085.9453125 1093.95 1086
L 1010.35 1088.45
Q 1010.0240234375 1081.5203125 1009.35 1073.5 1008.75 1066.35 1007.3 1052.1
L 1004.15 1021.2
Q 1003.75 1017.45 1002.8 1015.9 1002.05 1014.65 1000.8 1014 999.4 1013.3 998.15 1013.7 995.65 1014.5 994.9 1019.2 991.95 1036.2 991.7 1053.9 991.6 1058.75 991.8 1068.45
L 991.95 1078.4
Q 992.067578125 1084.0759765625 992.2 1089
L 836.25 1093.6 832.15 1061.1
Q 831.3 1053.85 831.15 1052.4 830.6 1044.9 830.85 1038.65 830.95 1035.8 830.85 1034.5 830.7 1032.25 829.85 1030.65 828.85 1028.75 826.75 1028 824.55 1027.2 823 1028.45 821.85 1029.35 821.15 1031.9 819.9 1036.8 820.4 1043.95 820.7 1048.05 821.55 1056.2 821.75 1059.7 821.65 1066.2 821.55 1073.1 821.7 1076.2 821.85 1079.3 822.45 1084.8 823.1 1090.85 823.3 1093.4 823.322265625 1093.69609375 823.35 1094 799.3265625 1094.7572265625 786 1095.5 761.35 1096.85 741.7 1099.5 741.053125 1099.588671875 740.45 1099.7 740.4435546875 1097.44140625 740.4 1095.15 739.9 1070 734.2 1040.95 732.65 1033.05 731.2 1027.9 729.25 1020.9 726.5 1015.45 719.25 1000.85 703.55 989.6 695.25 983.7 687.3 981.25 677.8 978.25 669.65 980.5 662.05 982.55 655 989.55 650.45 993.95 643.65 1003.4 626.85 1026.8 619.7 1040.6
M 1123.3 1050
Q 1125.45 1045.8 1127.85 1042.95 1130.65 1039.5 1134.25 1037.45 1138.15 1035.2 1142.15 1035.1 1146.65 1034.95 1152.2 1037.7 1158 1040.6 1162.65 1045.3 1167.3 1050 1170.15 1055.85 1171.5 1058.65 1173.35 1064.2 1184.65 1098.3 1182.35 1126.65 1181.85 1132.9 1180.55 1140.6 1179.75 1145.2 1177.9 1154.4 1176.1 1163.2 1174.45 1167.4 1172.35 1172.7 1168.7 1177.15 1165 1181.65 1161.1 1183.4 1156.15 1185.6 1147.4 1184.65 1143.55 1184.25 1141.05 1183.55 1137.65 1182.65 1135.3 1180.95 1132 1178.65 1128.85 1173.2 1122.6 1162.6 1118.5 1148.45 1115.45 1137.9 1112.75 1122 1111.55 1115.1 1111.15 1110.65 1110.6 1104.4 1111.2 1099.3 1111.3 1098.45 1112.4 1091.75 1113.15 1087.15 1113.05 1084.1 1113.05 1083.65 1112.7 1080.25 1112.5 1077.9 1112.65 1076.35 1112.9 1073.7 1115 1068.8
L 1119.8 1057.65
Q 1122 1052.5 1123.3 1050
M 626.9 1063.6
Q 629.75 1055.45 632.2 1050.1 637.35 1038.85 645.6 1029.15 653.7 1019.6 664.05 1012.4 671.2 1007.4 676.4 1007.2 682.15 1007 688.4 1011.55 700.2 1020 705.85 1037.1 708.05 1043.75 709.45 1052.4 710.3 1057.55 711.45 1068.05
L 713.05 1082.6
Q 713.75 1088.8 714 1091.95 714.35 1097.15 714.15 1101.35 714 1105.55 713.05 1112.2 711.45 1123.9 710.15 1131.1 708.2 1141.45 705.65 1149.65 703.6 1156.05 701.25 1160.4 698.2 1166 694.1 1169.35 687.85 1174.45 679.1 1174.75 670.55 1175.05 663.6 1170.6 659.3 1167.85 654.05 1161.85 641.05 1146.9 633.1 1128.45 625.1 1109.95 623.2 1090.25 622.4 1082.45 623.25 1076.6 623.9 1072.05 626.9 1063.6
M 1314.15 689.3
Q 1304.55 690.8 1298.8 692.75 1296.1 693.7 1290.1 696.4
L 1271.85 704.8
Q 1269.15 706.05 1268.5 707.5 1267.85 709.1 1269.15 712.05 1269.75 713.35 1270.35 713.6 1271.3 714.05 1273.1 712.9 1278.8 709.1 1291.15 703.4 1303.6 697.65 1309.25 693.95 1312.9 691.55 1314.15 689.3 Z"/>

<path fill="#999999" stroke="none" d="
M 1364 685.85
Q 1345.2 664.6 1335.9 653.95 1319.25 634.95 1309.25 620.8 1302.75 611.6 1292.3 594.7 1280.55 575.65 1275.6 568.3 1255.25 538 1234.1 523.9 1222.55 516.2 1206.95 510.4 1195.35 506.1 1177.65 501.6 1124.6 488.15 1069.65 483 1043.75 480.55 1024.7 481.15 1000.35 481.85 980.5 487.4 969.75 490.45 948.5 499.05 939.094140625 502.8529296875 931.65 505.55 978.14609375 504.6146484375 1021.5 509.2 1043.4 511.5 1059.15 515 1079.3 519.5 1095.1 527 1113 535.5 1131.7 551 1144.55 561.6 1163.95 581.15 1186.55 603.85 1199 619.15 1216.9 641.25 1226.55 662.35 1230.5 671 1237.35 688.8 1243.9 704.45 1250.95 713.6 1255.95 720.05 1267.7 730.65 1279.7 741.5 1284.6 747.55 1295.9 761.6 1301.8 783.4 1305.55 797.15 1308.9 823.6
L 1313.25 858.25
Q 1314 864.4 1311.3 866.15 1308.65 867.9 1305.7 865.15 1303.1 862.8 1301.95 859 1298.65 848.2 1296.4 831.9 1294.25 813.35 1292.9 804.2 1290.6 788.35 1287 777.8 1282.4 764.2 1274.4 754.5 1269.75 748.9 1259.05 739.85 1248 730.6 1243.5 725.35 1235.45 716 1228.55 699.95 1221.35 681.3 1217.3 672.2 1206.6 648.15 1186.65 623.55 1171.9 605.4 1147 581.15 1132.9 567.45 1123.5 559.65 1110.05 548.5 1097.4 541.65 1082.2 533.35 1062.65 528.2 1046.8 524 1025.8 521.35 981.9 515.85 927.1 517.8 899.68203125 518.7400390625 854.5 522.6 847.128515625 524.462890625 839.3 526.25 826.15 529.2 798.3 534.9 771.35 540.4 757.35 543.65 753.4 544.55 751.4 544.75 748 545.1 745.45 544.35 744.5568359375 544.101171875 743.75 543.7 730.1294921875 549.5603515625 719.85 556.7 707.55 565.25 695.75 578.45 686.55 588.75 675.7 604.3 647.15 645.2 619.8 701.25 603.25 735.1 574.05 803.85 562 832.25 556.85 846.75 548.25 870.95 545 891.15 542.8 904.5 542.1 921.1 541.65 932.2 541.75 951.2 542.25 1044.95 549.2 1113.15 558.15 1200.35 579.6 1271.6 585.15 1290.2 590.8 1301.4 598.7 1317 609.8 1326 618.9 1333.35 632.65 1338.1 641.55 1341.15 658.1 1344.65 740.05 1361.95 847.1 1376.9 934.45 1389.1 989.75 1390.05 1068.45 1391.35 1130.3 1373.45 1148.85 1368.1 1170.75 1359.55 1186 1353.65 1210.3 1343.1 1254.3703125 1324.0845703125 1282.2 1308.3 1282.364453125 1306.51484375 1282.7 1304.3
L 1300.55 1176.55
Q 1303.95 1152.35 1305.55 1140 1308.15 1119.65 1309.75 1103.3 1318.4 1015 1309.5 926.45 1309.2 923.8 1309.45 922.15 1309.8 919.8 1311.2 918.55 1313 916.95 1315.75 917.7 1318.35 918.4 1319.8 920.55 1321.05 922.4 1321.5 925.2 1321.8 926.9 1321.9 930.2 1322.35 944.5 1324.65 978 1326.8 1008.7 1327.05 1025.8 1327.5 1053.6 1324.7 1088.25 1323 1109.1 1318.3 1150.5
L 1301.8 1296.25
Q 1339.8537109375 1270.9103515625 1361.55 1240 1381.65 1211.35 1393.55 1169.2 1400.9 1143.15 1409.35 1091.8
L 1442.55 889.3
Q 1446.05 868.05 1446.95 857.1 1447.61796875 849.084375 1447.55 841.8 1438.0376953125 845.98203125 1425.9 852.1 1400 865.15 1395.35 867.3 1386.1 871.55 1376.85 875.35 1368.85 878.65 1365.75 880.25 1363.2 881.65 1361.95 882.35 1359.65 883.55 1358.05 884.3 1356.2 885.1 1352.4 886.35 1348.6 887.6 1346.75 888.4 1345.6 888.9 1342.5 890.45 1339.85 891.8 1338.2 892.4 1332.85 894.4 1328.95 892.85 1326.65 891.9 1325.35 889.8 1324 887.6 1324.55 885.35 1325.05 883.25 1327.15 881.65 1328.6 880.5 1331.35 879.25
L 1446.3 825.65
Q 1446.2654296875 825.2638671875 1446.2 824.85 1443.75 809.05 1435.8 791.6 1429.75 778.45 1418.8 760.8 1394.2 721.25 1364 685.85
M 1298.8 692.75
Q 1304.55 690.8 1314.15 689.3 1312.9 691.55 1309.25 693.95 1303.6 697.65 1291.15 703.4 1278.8 709.1 1273.1 712.9 1271.3 714.05 1270.35 713.6 1269.75 713.35 1269.15 712.05 1267.85 709.1 1268.5 707.5 1269.15 706.05 1271.85 704.8
L 1290.1 696.4
Q 1296.1 693.7 1298.8 692.75
M 607.6 1081.9
Q 608.45 1062.4 619.7 1040.6 626.85 1026.8 643.65 1003.4 650.45 993.95 655 989.55 662.05 982.55 669.65 980.5 677.8 978.25 687.3 981.25 695.25 983.7 703.55 989.6 719.25 1000.85 726.5 1015.45 729.25 1020.9 731.2 1027.9 732.65 1033.05 734.2 1040.95 739.9 1070 740.4 1095.15 740.4435546875 1097.44140625 740.45 1099.7 741.053125 1099.588671875 741.7 1099.5 761.35 1096.85 786 1095.5 799.3265625 1094.7572265625 823.35 1094 823.322265625 1093.69609375 823.3 1093.4 823.1 1090.85 822.45 1084.8 821.85 1079.3 821.7 1076.2 821.55 1073.1 821.65 1066.2 821.75 1059.7 821.55 1056.2 820.7 1048.05 820.4 1043.95 819.9 1036.8 821.15 1031.9 821.85 1029.35 823 1028.45 824.55 1027.2 826.75 1028 828.85 1028.75 829.85 1030.65 830.7 1032.25 830.85 1034.5 830.95 1035.8 830.85 1038.65 830.6 1044.9 831.15 1052.4 831.3 1053.85 832.15 1061.1
L 836.25 1093.6 992.2 1089
Q 992.067578125 1084.0759765625 991.95 1078.4
L 991.8 1068.45
Q 991.6 1058.75 991.7 1053.9 991.95 1036.2 994.9 1019.2 995.65 1014.5 998.15 1013.7 999.4 1013.3 1000.8 1014 1002.05 1014.65 1002.8 1015.9 1003.75 1017.45 1004.15 1021.2
L 1007.3 1052.1
Q 1008.75 1066.35 1009.35 1073.5 1010.0240234375 1081.5203125 1010.35 1088.45
L 1093.95 1086
Q 1095.4810546875 1085.9453125 1096.8 1086 1097.387109375 1081.7396484375 1098.15 1076.8 1099.8 1066 1102.15 1052.3 1103.95 1041.95 1105.85 1036.2 1108.7 1027.55 1113.65 1022.1 1118.85 1016.3 1128.65 1011.9 1137.65 1007.7 1144.6 1007.65 1150.8 1007.6 1157.8 1010.6 1162.75 1012.7 1169.9 1017.3 1179.7 1023.65 1184.35 1028.55 1190.45 1034.95 1195.65 1046.15 1204.1 1064.35 1207.4 1087.1 1210.2 1106.3 1209.45 1130 1208.85 1149.9 1205.55 1164.25 1201.4 1182.55 1192.35 1195.45 1184.7 1206.35 1175.5 1209.85 1170.6 1211.75 1164.1 1211.85 1159.65 1211.9 1152.4 1211 1142.45 1209.8 1136.35 1208.1 1127.7 1205.7 1121.85 1201.3 1114.5 1195.75 1109.5 1185.55 1105.95 1178.3 1102.55 1166 1099 1152.95 1097.15 1142.9 1094.8 1130.35 1094.45 1119.35 1094.173828125 1110.4685546875 1095.1 1099.85 1089.7318359375 1100.9537109375 1083.25 1101.5 1077.95 1101.95 1067.2 1102.25
L 1010.85 1103.8
Q 1010.84453125 1104.023046875 1010.85 1104.25 1011.05 1109.65 1011.45 1113.5 1011.65 1115.45 1012.3 1119.75 1012.9 1123.8 1013.1 1126 1013.65 1131.85 1013.3 1143.55 1012.95 1155.25 1013.5 1161.05 1013.55 1161.65 1014.45 1169 1015.05 1173.85 1014.95 1177.05 1014.9 1180.2 1014.2 1184.05 1013.8 1186.4 1012.75 1191.05 1012.3 1192.95 1011.9 1193.9 1011.25 1195.45 1010.2 1196.2 1008.45 1197.45 1006.05 1196.85 1003.8 1196.25 1002.15 1194.5 999.15 1191.4 998.05 1185.9 997.5 1183.45 996.95 1175.95 996.65 1172.1 995.3 1161.9 994.1 1153.05 993.95 1147.8 993.85 1144.35 994.05 1137.95 994.3 1131.15 994.25 1128.1 994.2 1125.05 993.9 1120.7 993.5 1115.75 993.3 1113.3 993.00703125 1109.595703125 992.75 1104.3
L 838.1 1108.55 847.35 1181.85
Q 847.8 1185.65 847.8 1187.65 847.8 1190.85 846.85 1193.25 845.75 1196.1 843.25 1197.75 840.55 1199.5 837.9 1198.8 834.35 1197.85 832.15 1192.9 830.7 1189.7 829.95 1185.35 829.5 1182.8 829 1177.5
L 826.4 1149.1
Q 825.5 1139.85 825.25 1133.85 825.15 1123.65 824.85 1118.6 824.75 1116.25 824.4 1112 824.2513671875 1110.27265625 824.15 1108.9
L 742.8 1111.15
Q 741.412109375 1111.20546875 740.15 1111.1 739.180078125 1131.0955078125 734.65 1149 730.7 1164.75 723.9 1175.85 715.7 1189.3 703.8 1195.15 693.9 1200.05 680.3 1200.15 667.85 1200.25 658.8 1195.95 649.65 1191.5 640.45 1180.25 617.1 1151.5 609.5 1105.85 607.15 1092.15 607.6 1081.9
M 658.45 733.15
Q 666.6 728.25 677.2 724.3 685.25 721.25 697.05 718 725.3 710.2 746.8 709.55 774.3 708.7 794.75 719.05 809.75 726.6 824.6 742.45 835.4 753.95 840.8 764.3 848.7 779.3 849.35 797.55 850 814.9 844.05 831.8 833.35 862.25 803.7 887.45 785.75 902.7 765.35 911.9 743.7 921.65 721.7 923.5 698.5 925.45 676.7 918.3 654 910.85 638.1 895.2 629.25 886.45 621.1 873.65 614.15 862.8 610.7 853.75 602.3 831.7 607.6 806 612.55 782 627.8 761.5 641.4 743.4 658.45 733.15
M 940.8 783.35
Q 945.7 776.15 955.1 769.8 958.65 767.4 972.45 759.6 976.2 757.5 983.55 753.2 990.15 749.4 994.9 747.15 1006.8 741.4 1021.65 737.65 1033.75 734.6 1049.75 732.45 1087.15 727.35 1115 731.2 1131.9 733.5 1146.7 739.15 1162.65 745.25 1175.25 754.8 1194.55 769.5 1208.7 794.35 1214.05 803.75 1216.65 811.6 1219.85 821.4 1219.3 830.1 1218.15 849.05 1199.4 868.25 1181.75 886.5 1156.65 898.7 1133.65 909.85 1106.25 915.1 1079.35 920.3 1051.7 919.25 1024.05 918.2 997.55 911.05 987.05 908.25 979.4 905 969.9 901 962.9 895.65 946.95 883.5 939.05 861.65 932.15 842.6 932.25 819.2 932.25 808.45 933.9 800.45 935.95 790.45 940.8 783.35 Z"/>

<path fill="#090909" stroke="none" d="
M 1002.3 774.5
Q 995.35 778.9 989.15 786.55 984.35 792.45 979.1 801.6 973.45 811.45 971.7 818.4 968.95 829.3 972.4 841.4 975.55 852.45 983.1 862.4 993.3 875.85 1006.9 882.55 1015.7 886.95 1027 888.9 1036.2 890.45 1048.2 890.6 1087.9 891.05 1125.15 877.75 1137.9 873.25 1146.55 867.9 1157.4 861.2 1163.45 852.25 1172.6 838.75 1170.85 820.75 1169.15 803.5 1158.45 790 1148.5 777.45 1132.5 769.7 1117.85 762.65 1100.3 760.5 1085.35 758.65 1067 760.2 1054.25 761.25 1033.85 764.7 1023.2 766.5 1017.5 768.1 1008.6 770.55 1002.3 774.5
M 1028.5 781.8
Q 1038.4 774.75 1052.2 770.25 1070.35 764.35 1087.7 764.85 1106.85 765.4 1121.65 773.9 1129.2 778.2 1135.35 784.5 1141.5 790.8 1145.65 798.45 1149.4 805.3 1150.5 811.6 1152.55 822.65 1147.25 838.25 1143.9 848.35 1139.35 854.95 1133.95 862.75 1125.1 868.55 1117.15 873.75 1107.05 876.95 1088.7 882.75 1069.75 880.95 1061.1 880.1 1045.4 876.4 1036.7 874.4 1032.75 872.5 1028.45 870.4 1024.2 866.65 1020.9 863.8 1016.85 859.2 1011.15 852.75 1008.95 847.9 1006.9 843.2 1006.35 837 1006 832.45 1006.45 825.65 1007 818.3 1008 813.1 1009.3 806.4 1011.75 801.15 1016.9 790.05 1028.5 781.8
M 678.25 754.75
Q 672.5 758.05 666.25 763.3 662.1 766.85 655.4 773.35 647.9 780.65 644.65 785.4 639.4 793.1 637.55 803.15 635.85 812.45 637.3 822.45 639.65 838.6 650.75 858.45 657.4 870.3 663.8 876.45 680.35 892.35 713.4 893 741.15 893.6 760.8 884.1 775.45 877.1 789.8 862.25 801.9 849.65 810.75 834.95 817.6 823.65 819.55 814.75 822.8 799.55 815.8 782.05 810.45 768.7 801.75 760.55 794.45 753.65 783.3 749.2 774.75 745.8 762.05 743.2 750.2 740.65 742.1 740.55 737.15 740.5 731.15 741.2 727.25 741.65 720.25 742.8 705.8 745.1 698.6 746.9 686.7 749.9 678.25 754.75
M 677.8 783.45
Q 682.1 779.45 688.1 775.65 692.45 772.9 699.4 769.15 708.05 764.6 712.9 763.25 717 762.1 722.35 761.65 725.75 761.4 732 761.35 739.85 761.3 743.75 761.5 750.3 761.8 755.35 762.85 767.2 765.35 777.1 772.95 786.95 780.55 792.45 791.3 795.65 797.5 796.9 804 798.25 810.9 797.25 817.4 796.35 823.5 793.2 830.1 790.75 835.25 786.4 841.7 782.35 847.7 778.75 851.55 774.15 856.55 769.25 859.45 766.1 861.3 761.85 862.8 759.15 863.8 754.05 865.25 743.5 868.3 737.8 869.5 728.7 871.35 721.2 871.2 706.55 870.9 693.45 863 680.35 855.05 673.3 842.2 669.9 836.1 667.3 827.65 663.3 814.55 664.85 805.4 665.9 799.3 669.5 793.45 672.75 788.1 677.8 783.45
M 632.2 1050.1
Q 629.75 1055.45 626.9 1063.6 623.9 1072.05 623.25 1076.6 622.4 1082.45 623.2 1090.25 625.1 1109.95 633.1 1128.45 641.05 1146.9 654.05 1161.85 659.3 1167.85 663.6 1170.6 670.55 1175.05 679.1 1174.75 687.85 1174.45 694.1 1169.35 698.2 1166 701.25 1160.4 703.6 1156.05 705.65 1149.65 708.2 1141.45 710.15 1131.1 711.45 1123.9 713.05 1112.2 714 1105.55 714.15 1101.35 714.35 1097.15 714 1091.95 713.75 1088.8 713.05 1082.6
L 711.45 1068.05
Q 710.3 1057.55 709.45 1052.4 708.05 1043.75 705.85 1037.1 700.2 1020 688.4 1011.55 682.15 1007 676.4 1007.2 671.2 1007.4 664.05 1012.4 653.7 1019.6 645.6 1029.15 637.35 1038.85 632.2 1050.1
M 1127.85 1042.95
Q 1125.45 1045.8 1123.3 1050 1122 1052.5 1119.8 1057.65
L 1115 1068.8
Q 1112.9 1073.7 1112.65 1076.35 1112.5 1077.9 1112.7 1080.25 1113.05 1083.65 1113.05 1084.1 1113.15 1087.15 1112.4 1091.75 1111.3 1098.45 1111.2 1099.3 1110.6 1104.4 1111.15 1110.65 1111.55 1115.1 1112.75 1122 1115.45 1137.9 1118.5 1148.45 1122.6 1162.6 1128.85 1173.2 1132 1178.65 1135.3 1180.95 1137.65 1182.65 1141.05 1183.55 1143.55 1184.25 1147.4 1184.65 1156.15 1185.6 1161.1 1183.4 1165 1181.65 1168.7 1177.15 1172.35 1172.7 1174.45 1167.4 1176.1 1163.2 1177.9 1154.4 1179.75 1145.2 1180.55 1140.6 1181.85 1132.9 1182.35 1126.65 1184.65 1098.3 1173.35 1064.2 1171.5 1058.65 1170.15 1055.85 1167.3 1050 1162.65 1045.3 1158 1040.6 1152.2 1037.7 1146.65 1034.95 1142.15 1035.1 1138.15 1035.2 1134.25 1037.45 1130.65 1039.5 1127.85 1042.95 Z"/>

<path fill="#6633CC" stroke="none" d="
M 1100.95 791.85
Q 1098.9 791.1 1097.85 790.75 1096 790.1 1094.7 789.75 1092 789.05 1088.15 788.8 1069.95 787.8 1050.25 796.75 1040.1 801.35 1035.35 806.85 1030.1 812.8 1027.55 823.3 1026.1 828.8 1026.6 832.65 1027 835.25 1029.25 840.65
L 1033.65 850.75
Q 1034.8 853.45 1035.95 854.65 1037.35 856.15 1040.9 857.35 1046.65 859.3 1054.1 860.6 1058.55 861.35 1067.65 862.45 1072.65 863.05 1075.2 863 1078.45 862.9 1082.7 861.85 1085.15 861.25 1090.05 859.8 1092.95 859 1098.7 857.55 1103.8 856.15 1107.2 854.75 1112.85 852.35 1117.45 848.6 1122.25 844.6 1125.2 839.6 1128.3 834.35 1129.1 828.35 1129.9 822.15 1128.1 816.55 1125.1 807.35 1113.75 798.2 1111.3 796.2 1109.4 795.1 1107.75 794.2 1105.25 793.3 1102.4 792.35 1100.95 791.85
M 1095.05 828.9
Q 1095.75 831.05 1095.45 833.3 1095.2 835.65 1093.9 837.35 1092.05 839.75 1088.65 840.35 1085.4 840.85 1082.5 839.4 1077.25 836.8 1075.2 829.7 1074.35 826.65 1074.75 823.95 1075.2 820.8 1077.35 819.2 1078.85 818.15 1080.8 817.85 1082.15 817.7 1083.2 817.75 1086.55 818.1 1090.2 821.6 1093.95 825.25 1095.05 828.9
M 725.65 780.9
Q 714.8 781.95 706.25 786.65 697.05 791.7 691.65 800.75 686 810.2 687.05 820.1 687.95 828.5 693.65 835.75 699.05 842.65 707.1 846.4 714.65 849.95 723.75 850.4 732.2 850.8 740.95 848.5 751.55 845.75 760.05 839.65 769.05 833.15 773.85 824.15 778.45 815.55 776.6 808.6 775.75 805.45 773.25 801.95 772.2 800.5 768.45 796.1 765.15 792.1 764.7 791.6 762.45 789.1 760.45 787.6 755.5 783.85 746.05 782 735.4 779.9 725.65 780.9
M 733.8 817.25
Q 732.5 819.7 729.35 820.8 726.8 821.7 724.15 821.15 721.4 820.55 719.8 818.6 719.15 817.8 718.55 816.55 716.35 811.8 717.75 807.25 718.5 804.9 720.2 803.2 721.95 801.4 724.25 800.85 724.95 800.75 725.35 800.5 728.7 801.3 730.6 802.3 733.35 803.7 734.35 805.9 735 807.3 735 809.35 735 810.2 734.7 812.9 734.4 816.05 733.8 817.25 Z"/>
</g>

<g id="Layer10_0_FILL">
<path fill="#000000" fill-opacity="0.2" stroke="none" d="
M 552.95 1226.4
Q 552.75 1229.9 554.4 1234.1 562.5 1254.3 572.35 1274.1 579.85 1289.2 586.3 1299.35 594.7 1312.6 604 1322 620.5 1338.7 646.3 1350.2 666 1359 695.45 1366.35 782.5 1388.1 890 1390.1 970.5 1391.65 1087.15 1381.55 1115.45 1379.1 1131.05 1376.6 1155.2 1372.75 1173.7 1365.95 1188.9 1360.35 1206.6 1350.45 1217.3 1344.4 1237.8 1331.45
L 1280.15 1304.65
Q 1286.9 1300.4 1290.35 1295.85 1294.85 1289.95 1292.8 1284.45 1291.35 1280.7 1287.25 1278.75 1283.4 1276.95 1279.05 1277.4 1275.35 1277.8 1271.2 1279.8 1268.45 1281.1 1263.95 1283.95 1229.3 1306.65 1211.55 1317.15 1181.05 1335.2 1155.9 1343.4 1139.45 1348.75 1118.65 1352.15 1104 1354.55 1080.55 1356.85 987.25 1366.05 904.5 1365.05 812.1 1363.95 729.25 1350.05 690.55 1343.55 665.55 1334.2 631.9 1321.6 611.3 1300.45 598.6 1287.4 586.4 1265.85 573.05 1240.35 566.25 1227.75 564.4 1224.25 562.1 1222.35 559.2 1219.9 556.4 1220.9 553.15 1222.05 552.95 1226.4
M 983.8 1018.75
Q 983.65 1021.2 983.8 1026.1 984.6 1047.2 987.9 1093.45
L 988.1 1096.3
Q 982.255078125 1096.3453125 976.15 1096.35 936.6 1096.4 925.9 1096.55 897.5 1097 875.7 1098.7 856.2078125 1100.744140625 841.45 1102.3
L 838.1 1068.1
Q 836.25 1050.2 834.6 1036.2 834 1031.15 833.35 1028.55 832.3 1024.35 830.3 1021.6 828.4 1019.05 825.7 1017.55 822.9 1015.95 819.9 1015.85 816.8 1015.8 814 1017.3 811.1 1018.9 809.7 1021.55 808.45 1023.85 808.3 1027.15 808.2 1029.1 808.55 1033
L 815.4 1105
Q 779.5630859375 1108.74765625 755.5 1108.1 750.35 1107.95 747.95 1108.15 743.7 1108.55 740.8 1110.1 737.35 1112 735.8 1115.7 734.2 1119.6 736.15 1122.65 737.6 1124.85 740.7 1126 742.85 1126.75 746.55 1127.2 775.6720703125 1130.3751953125 817.5 1127.1
L 823.95 1195.15
Q 824.25 1198.45 824.65 1200.3 825.2 1203.15 826.35 1205.15 828.2 1208.35 831.7 1210.15 835.15 1211.9 838.85 1211.5 842.55 1211.1 845.6 1208.6 848.6 1206.15 849.75 1202.6 850.55 1200.25 850.6 1197.15 850.6 1195.25 850.25 1191.55
L 843.65 1124.75
Q 848.4783203125 1124.2830078125 854 1123.75 876.75 1121.5 889.85 1120.65 918.7 1118.75 987.65 1118.95 988.6966796875 1118.9533203125 989.7 1118.95
L 991.7 1146.2
Q 992.3 1154.7 992.3 1158.9 992.3 1164.2 991.5 1174.8 991.1 1184.25 992.5 1190.5 994.7 1200 1000.85 1203.55 1005.35 1206.15 1010.85 1204.75 1016.3 1203.3 1019.05 1198.85 1021.35 1195.1 1021.45 1189.4 1021.45 1186.45 1020.55 1179.3 1019.7 1172.5 1018.7 1158.8
L 1016.2 1122.9
Q 1016.058203125 1120.8875 1015.9 1118.85 1058.667578125 1118.3408203125 1085.3 1115.75 1100.45 1114.25 1102.7 1106.25 1103.8 1102.1 1101.05 1098 1098.45 1094.15 1094.05 1092.55 1090.35 1091.2 1085.35 1091.25 1082.55 1091.25 1076.4 1092 1051.8607421875 1094.923046875 1014.35 1095.85 1013.616796875 1084.75 1012.85 1072.7
L 1011.4 1048.65
Q 1010.65 1037.05 1010.05 1025.4 1009.8 1020.5 1009.4 1017.95 1008.8 1013.85 1007.4 1010.85 1005.75 1007.3 1002.75 1005.05 999.5 1002.6 995.9 1002.75 992.4 1002.9 989.4 1005.55 986.65 1008 985.25 1011.6 984.1 1014.65 983.8 1018.75
M 1440.6 790.9
Q 1434.75 780.95 1422.1 763.05 1375.2 696.45 1350.8 663.35 1310.35 608.55 1275.25 566.85 1261.75 550.8 1252.3 541.3 1239.05 527.95 1226.15 519.3 1212.1 509.85 1193.45 502.65 1178.85 497 1158.2 491.55 1081.75 471.4 1003.1 470.4 994.65 470.3 989.85 470.95 982.6 471.9 977.45 474.8 971.45 478.2 968.6 484.5 968.31328125 485.135546875 968.05 485.75 955.7783203125 486.555859375 944.65 488.85 941.35 489.55 939.45 490.4 936.75 491.6 935.35 493.6 932.85 497.2 935.05 501.85 937.15 506.35 941.55 508.1 945.2 509.55 950.4 509.4 952.2 509.35 959.5 508.5 979.4 506.15 1004.25 510.15 1019.5 512.6 1048.45 520.1 1068.1 525.25 1077.65 528.4 1093.7 533.65 1105.45 540.25 1117.15 546.8 1129.5 557.25 1138.45 564.9 1151 577.55 1178.55 605.4 1203.45 635 1207.5 639.8 1209.6 642.8 1212.7 647.35 1214.3 651.5 1215.7 655.2 1216.6 661.2 1217.95 669.9 1218.2 671.1 1220.85 683.7 1230.2 697.1 1235.6 704.85 1248.9 719.7 1267.65 740.65 1277.65 754.4 1292.2 774.5 1299.35 793.4 1305.4 809.4 1308.45 830.65 1310.25 843.6 1311.95 869.1
L 1317.55 952.1
Q 1319.35 979.2 1319.9 991.95 1320.8 1014.1 1320.25 1031.75 1319.85 1044.75 1318.5 1060.75 1317.65 1071.1 1315.7 1089.65
L 1297.8 1263.8
Q 1296.8 1273 1298.05 1279.05 1299.75 1287.25 1305.6 1290.4 1309.6 1292.55 1314.65 1291.7 1319.35 1290.9 1323.25 1287.85 1326.65 1285.2 1329.5 1280.85 1331.65 1277.6 1334 1272.5 1340.65 1276.1 1349.05 1271.95 1356.1 1268.45 1361.9 1261 1372.05 1247.95 1379.5 1229.05 1384.6 1215.95 1390.45 1193.85 1392.9689453125 1184.3296875 1395.35 1174.75 1396.1072265625 1174.04609375 1396.95 1173.3 1403.7 1167.45 1404.8 1166.3 1411.05 1159.85 1415.2 1149.65 1418.1 1142.7 1421.1 1130.5 1430.25 1094.05 1437.95 1047.65 1442.6 1019.95 1450.4 963.9 1454.5 934.15 1456.1 919.8 1458.9 895.15 1459.55 875.45 1460.1 859.8 1459.15 847.95 1457.95 833.2 1454.3 821.05 1450 806.85 1440.6 790.9 Z"/>
</g>
</defs>

<g transform="matrix( 1, 0, 0, 1, 0,0) ">
<use xlink:href="#Layer11_0_FILL"/>
</g>

<g transform="matrix( 1, 0, 0, 1, 0,0) ">
<use xlink:href="#Layer10_0_FILL"/>
</g>
</svg>
