
<svg xmlns="http://www.w3.org/2000/svg" version="1.1" xmlns:xlink="http://www.w3.org/1999/xlink" preserveAspectRatio="none" x="0px" y="0px" width="2000px" height="2000px" viewBox="0 0 2000 2000">
<defs>
<g id="Layer19_0_FILL">
<path fill="#000000" stroke="none" d="
M 1436 280.85
Q 1414.25 266.45 1390.6 255.5 1368.75 245.3 1345.4 239.3 1321.7 233.15 1297.15 231.95 1276.9 230.95 1256.8 234.4 1194.7 244.9 1159.15 297.35 1124.6 348.25 1125.4 409.45 1121.25 405.7 1115.9 403.75 993.85 358.6 864.7 398.05 818.45 412.3 776 435.15 754.15 446.9 734.05 461.55 708.6 480.1 687 502.9 666.65 524.3 650.55 549.2 635.85 572.05 624.8 596.95 618.05 612.25 617.2 628.85 616.95 633.55 619.25 632.55 689.65 603.8 762.35 570.65 924.9 496.4 1102.35 474.75 1077 501.85 1054.75 531.45 1021.25 575.95 994.15 624.45 918.45 760.05 914.65 916.35 912.6 1001.85 930.9 1084.5 890.75 1099 852.75 1118.4 802.15 1144.25 756.7 1178.4 719.85 1206.15 687.45 1239.2 664.25 1262.8 644.05 1289 622 1317.55 604.35 1349.15 590.85 1373.25 580.55 1399 568.1 1430.3 560.55 1463 530.4 1593.5 528.3 1727.45 528.1 1740.9 539.4 1743.45 581.45 1757.05 627.15 1759.25 695.9 1762.6 764.75 1758.1 840.5 1752.95 916.55 1746.9 983.4 1741.8 1050.35 1742.1 1120.5 1742.4 1190.65 1741.8 1261.5 1741.15 1332.25 1737.4 1403.85 1733.4 1475.5 1731.45 1557.8 1728.6 1639.9 1734.45 1652.35 1735.25 1659.2 1725.1 1666.1 1714.9 1654.95 1709.4
L 1650.05 1573.9
Q 1649.6 1569.65 1649.05 1565.45 1642.8 1519 1628.5 1474.5 1616.45 1437.05 1599.55 1401.7 1573 1346.25 1541.75 1293.05 1516.35 1249.85 1488.9 1207.85 1476 1188.05 1460.1 1170.35 1447.3 1156.2 1431.9 1144.75 1358 1089.7 1268.9 1064.9 1185.85 1041.85 1099.6 1048.85 1071.7 935.9 1074.6 819.65 1076.75 732.85 1097.9 649.25
L 1101.2 648.9 1097.65 645.05
Q 1117.75 555.95 1149.85 470.5 1153.15 474.55 1156.55 478.5 1269.15 608.2 1294.7 776.15 1296.75 789.75 1307.6 793.6 1315.1 796.4 1319.45 789.4 1325.75 779.15 1330.35 768 1339.6 745.45 1346.35 721.95 1354.55 693.65 1357.6 664.3 1360.75 633.9 1356 603.85 1352.9 584.35 1345.6 566.2 1321.1 505.4 1267.45 467.25 1231.95 442.1 1188.65 436.5 1223.85 405.15 1267.8 388.15 1317 369.15 1369.5 362.75 1422.9 355.95 1475.35 366.35 1499 371.05 1522.05 377.5 1535.1 381.15 1530.75 369.8 1521.2 344.7 1499 326.95 1468.5 302.45 1436 280.85
M 1454.45 337.5
Q 1377.85 336.3 1303.55 353.95 1226.6 372.5 1167.95 425.3
L 1161.75 431.05
Q 1165.25 422.4 1169.65 414.1 1192.95 369.85 1235.3 343.45 1259.85 328.25 1288.25 323.45 1372 310 1454.45 337.5
M 1467.45 330.4
Q 1439.4 323.95 1411.6 316.35 1327.55 293.05 1249.7 328.2 1176.95 360.95 1151.3 436.4
L 1145.85 437.4
Q 1124.7 366.15 1172.15 303.9 1190.45 279.95 1217.2 266.85 1266.5 242.75 1320.2 255.55 1402.6 274.85 1467.45 330.4
M 1296.15 646.25
Q 1308.4 692.7 1309 740.7 1294.35 665.85 1256.3 599.85 1219.15 535.35 1171.95 477.6
L 1164.1 468.55
Q 1211.6 494.45 1243.95 537.85 1280.45 586.75 1296.15 646.25
M 1323 564.5
Q 1355.15 648.85 1321.35 733.05 1318 656.75 1286.3 586.95 1247.6 501.65 1164.5 459
L 1168.1 455.6
Q 1169.55 455.55 1171.05 455.55 1241.8 460.55 1289.9 514.95 1312.15 535.95 1323 564.5
M 882.2 501.2
Q 855 510.05 828.25 519.85 748 548.85 672.6 588.65 705.25 557.75 742.65 532.8 798.8 495.4 862.65 473.95 941.9 447.3 1025.7 448.95 1058.8 449.6 1091.55 454.75 1058.5 459.7 1025.55 465.65 952.95 479.25 882.2 501.2
M 965.35 441.1
Q 906.1 445.85 850.05 465.45 730.1 507.45 648.6 601.7
L 645.5 603.4
Q 657.2 574.05 675.6 548.45 720.1 486.3 788.3 451.55 855.55 417.2 930.7 407.1 968.3 402.05 1005.75 397.2 1089.05 386.4 1133.35 448.8 1049.9 434.15 965.35 441.1
M 961.85 736.35
Q 965 736.7 968.2 737.1 971.95 737.5 975.65 737.15 977.55 736.85 979.5 736.55 981.15 736.1 982.85 735.65 984.45 735.05 986.1 734.45 996.95 759.9 1014.75 781.65 1032.85 803.8 1053.55 823.65 1034.3 837.6 1013.55 849.35 985.3 865.3 955.05 877.05
L 937.9 848.1 940.45 826.55
Q 942.95 810.95 946.15 795.35 952.3 765.35 961.85 736.35
M 1117.1 481.3
L 1127.55 472.05 1137.45 470.85 1100.15 562.5 1060.7 584.8 1053.1 560.45
Q 1057.1 554.95 1061.05 549.45 1086.85 513.45 1117.1 481.3
M 1063.85 592.4
L 1097 574.6 1082.35 625.7 1069.9 605.1 1063.85 592.4
M 1048.05 567.7
L 1054.35 587.75 1028.05 598.1 1048.05 567.7
M 1057.25 595.3
L 1079.9 635.75 1070.2 681
Q 1042.6 701.35 1011.65 716.1 1001.15 721.15 990.05 724.55
L 976.4 697.55 996.2 654.45 1023.9 604.8
Q 1032.35 604.6 1040.4 601.8 1044.35 600.4 1048.2 598.85 1052.75 597.1 1057.25 595.3
M 1000.3 741.9
Q 997.2 736.7 994.6 731.3 1029.25 717.75 1060.4 696.95 1064.45 694.25 1068.55 691.55
L 1059.1 766.5 1056.4 812.3
Q 1023.65 780.7 1000.3 741.9
M 972.25 707.75
L 982.6 727.85 963.55 731.4 972.25 707.75
M 1044.35 987.45
Q 1005.4 957.9 979.55 916.4
L 958.25 882.25
Q 1009.95 862.2 1055.95 831.95 1055.15 904.9 1065.4 977.2
L 1048.4 990.5
Q 1046.35 988.95 1044.35 987.45
M 1069.85 1005.35
L 1055 995.3 1066.75 986.4 1069.85 1005.35
M 1077.2 1043.5
L 1079.5 1050.6 1004.35 1063 976.55 1043 1046.45 1001.75 1071.8 1016.25 1077.2 1043.5
M 1040.2 996.7
Q 1010.65 1019.45 977.2 1036.05 974.55 1037.3 971.9 1038.55 953.1 1019.8 938.1 997.9 937 996.3 935.85 994.8
L 934.2 916.8 935 890.6 949.05 885.55
Q 965.25 916.25 986.7 943.4 1010.25 973.2 1040.2 996.7
M 1148.6 1068.2
Q 1221.25 1071.1 1290.1 1093.9 1363.25 1118.1 1419.95 1169.7 1476.1 1220.75 1511.7 1288.4 1543 1347.9 1571.45 1408.85 1602.65 1475.65 1614.15 1548.45 1625.9 1622.75 1624.25 1698.3
L 1624.8 1706.45
Q 1513.25 1704.1 1401.8 1709.25 1281.85 1714.8 1161.95 1715.05 1011.25 1715.4 861.7 1731.9 813.15 1737.05 764.65 1739.9 680.95 1744.6 597.85 1734.3 570.85 1731.15 544.15 1734.2 544.2 1728.55 544.3 1722.9 545.9 1646.45 557.5 1570.8 567.35 1506.75 586.05 1444.85 608.05 1371.9 652.65 1310.1 694.45 1252.25 749.95 1207.6 805.4 1163.05 869.55 1132.15 933.8 1101.2 1003.1 1083.75 1074.8 1065.75 1148.6 1068.2
M 946.05 880.35
L 935.3 883.7 936.5 863.65 946.05 880.35
M 947.8 1077.5
L 943.4 1056.95 969.05 1046.4 993.5 1065.6 947.8 1077.5
M 963.7 1041.4
L 942.25 1050.85 936.75 1009.6 963.7 1041.4
M 1062.05 1625.5
Q 1058.95 1626.3 1056.95 1628.85 1046.75 1641.55 1061.8 1642.55
L 1066.9 1636.45
Q 1069.1 1633.15 1067.55 1629.75 1065.95 1626.35 1062.05 1625.5
M 1507.55 1626.05
Q 1506.7 1625.45 1505.5 1625.45 1504.3 1625.45 1503.45 1626.05 1502.6 1626.7 1502.6 1627.6 1502.6 1628.5 1503.45 1629.1 1504.3 1629.75 1505.5 1629.75 1506.7 1629.75 1507.55 1629.1 1508.4 1628.5 1508.4 1627.6 1508.4 1626.7 1507.55 1626.05
M 626.3 1595.75
Q 626.65 1595.45 626.85 1595.05
L 608.75 1582.9 605.25 1585.3 607.95 1593.3
Q 617.85 1603.6 626.3 1595.75
M 1461.85 1457.6
Q 1464 1459.1 1467 1459.1 1470 1459.1 1472.1 1457.6 1474.25 1456.15 1474.25 1454.05 1474.25 1451.95 1472.1 1450.45 1470 1449 1467 1449 1464 1449 1461.85 1450.45 1459.75 1451.95 1459.75 1454.05 1459.75 1456.15 1461.85 1457.6
M 1330.4 1331.35
Q 1329.55 1331.05 1328.7 1330.8 1311.65 1328.2 1294.5 1331.1 1292.15 1336.9 1297.4 1339.15 1318.9 1348.05 1330.4 1331.35
M 1360.8 1210.45
Q 1359.65 1209.35 1358.05 1209.35 1356.45 1209.35 1355.3 1210.45 1354.15 1211.6 1354.15 1213.2 1354.15 1214.8 1355.3 1215.9 1356.45 1217.05 1358.05 1217.05 1359.65 1217.05 1360.8 1215.9 1361.95 1214.8 1361.95 1213.2 1361.95 1211.6 1360.8 1210.45
M 1270.8 1527
Q 1271.05 1526.7 1271.3 1526.35
L 1259.05 1520.2 1251.5 1524.4 1259.05 1529.15
Q 1264.7 1531.55 1269.7 1528.05 1270 1527.85 1270.3 1527.6 1270.55 1527.3 1270.8 1527
M 1080.65 1368.95
Q 1081.55 1373.6 1086.45 1375.3 1102.35 1381.05 1114.2 1372.7 1113.9 1372.3 1113.55 1372.2 1099 1367.25 1083 1365.8
L 1080.65 1368.95
M 1155.95 1211.85
Q 1157.7 1210.5 1157.7 1208.6 1157.7 1206.7 1155.95 1205.35 1154.2 1204 1151.7 1204 1149.2 1204 1147.45 1205.35 1145.7 1206.7 1145.7 1208.6 1145.7 1210.5 1147.45 1211.85 1149.2 1213.2 1151.7 1213.2 1154.2 1213.2 1155.95 1211.85
M 808.6 1507.6
L 803.55 1506.8
Q 800.55 1520.8 819.25 1522.65 836.9 1524.7 846.75 1513.8
L 820.4 1513.7 808.9 1509.75 808.6 1507.6
M 800.1 1307.15
Q 798.8 1308.45 798.8 1310.3 798.8 1312.15 800.1 1313.45 801.4 1314.75 803.25 1314.75 805.1 1314.75 806.4 1313.45 807.7 1312.15 807.7 1310.3 807.7 1308.45 806.4 1307.15 805.1 1305.85 803.25 1305.85 801.4 1305.85 800.1 1307.15
M 912.7 1162.8
Q 914.25 1161.25 914.25 1159.1 914.25 1156.95 912.7 1155.4 911.2 1153.85 909.05 1153.85 906.9 1153.85 905.35 1155.4 903.85 1156.95 903.85 1159.1 903.85 1161.25 905.35 1162.8 906.9 1164.35 909.05 1164.35 911.2 1164.35 912.7 1162.8 Z"/>

<path fill="#E0872F" stroke="none" d="
M 942.25 1050.85
L 963.7 1041.4 936.75 1009.6 942.25 1050.85
M 943.4 1056.95
L 947.8 1077.5 993.5 1065.6 969.05 1046.4 943.4 1056.95
M 935.3 883.7
L 946.05 880.35 936.5 863.65 935.3 883.7
M 977.2 1036.05
Q 1010.65 1019.45 1040.2 996.7 1010.25 973.2 986.7 943.4 965.25 916.25 949.05 885.55
L 935 890.6 934.2 916.8 935.85 994.8
Q 937 996.3 938.1 997.9 953.1 1019.8 971.9 1038.55 974.55 1037.3 977.2 1036.05
M 1079.5 1050.6
L 1077.2 1043.5 1071.8 1016.25 1046.45 1001.75 976.55 1043 1004.35 1063 1079.5 1050.6
M 1055 995.3
L 1069.85 1005.35 1066.75 986.4 1055 995.3
M 979.55 916.4
Q 1005.4 957.9 1044.35 987.45 1046.35 988.95 1048.4 990.5
L 1065.4 977.2
Q 1055.15 904.9 1055.95 831.95 1009.95 862.2 958.25 882.25
L 979.55 916.4
M 982.6 727.85
L 972.25 707.75 963.55 731.4 982.6 727.85
M 994.6 731.3
Q 997.2 736.7 1000.3 741.9 1023.65 780.7 1056.4 812.3
L 1059.1 766.5 1068.55 691.55
Q 1064.45 694.25 1060.4 696.95 1029.25 717.75 994.6 731.3
M 1079.9 635.75
L 1057.25 595.3
Q 1052.75 597.1 1048.2 598.85 1044.35 600.4 1040.4 601.8 1032.35 604.6 1023.9 604.8
L 996.2 654.45 976.4 697.55 990.05 724.55
Q 1001.15 721.15 1011.65 716.1 1042.6 701.35 1070.2 681
L 1079.9 635.75
M 1054.35 587.75
L 1048.05 567.7 1028.05 598.1 1054.35 587.75
M 1097 574.6
L 1063.85 592.4 1069.9 605.1 1082.35 625.7 1097 574.6
M 1127.55 472.05
L 1117.1 481.3
Q 1086.85 513.45 1061.05 549.45 1057.1 554.95 1053.1 560.45
L 1060.7 584.8 1100.15 562.5 1137.45 470.85 1127.55 472.05
M 968.2 737.1
Q 965 736.7 961.85 736.35 952.3 765.35 946.15 795.35 942.95 810.95 940.45 826.55
L 937.9 848.1 955.05 877.05
Q 985.3 865.3 1013.55 849.35 1034.3 837.6 1053.55 823.65 1032.85 803.8 1014.75 781.65 996.95 759.9 986.1 734.45 984.45 735.05 982.85 735.65 981.15 736.1 979.5 736.55 977.55 736.85 975.65 737.15 971.95 737.5 968.2 737.1 Z"/>

<path fill="#FFCC99" stroke="none" d="
M 1290.1 1093.9
Q 1221.25 1071.1 1148.6 1068.2 1074.8 1065.75 1003.1 1083.75 933.8 1101.2 869.55 1132.15 805.4 1163.05 749.95 1207.6 694.45 1252.25 652.65 1310.1 608.05 1371.9 586.05 1444.85 567.35 1506.75 557.5 1570.8 545.9 1646.45 544.3 1722.9 544.2 1728.55 544.15 1734.2 570.85 1731.15 597.85 1734.3 680.95 1744.6 764.65 1739.9 813.15 1737.05 861.7 1731.9 1011.25 1715.4 1161.95 1715.05 1281.85 1714.8 1401.8 1709.25 1513.25 1704.1 1624.8 1706.45
L 1624.25 1698.3
Q 1625.9 1622.75 1614.15 1548.45 1602.65 1475.65 1571.45 1408.85 1543 1347.9 1511.7 1288.4 1476.1 1220.75 1419.95 1169.7 1363.25 1118.1 1290.1 1093.9
M 914.25 1159.1
Q 914.25 1161.25 912.7 1162.8 911.2 1164.35 909.05 1164.35 906.9 1164.35 905.35 1162.8 903.85 1161.25 903.85 1159.1 903.85 1156.95 905.35 1155.4 906.9 1153.85 909.05 1153.85 911.2 1153.85 912.7 1155.4 914.25 1156.95 914.25 1159.1
M 798.8 1310.3
Q 798.8 1308.45 800.1 1307.15 801.4 1305.85 803.25 1305.85 805.1 1305.85 806.4 1307.15 807.7 1308.45 807.7 1310.3 807.7 1312.15 806.4 1313.45 805.1 1314.75 803.25 1314.75 801.4 1314.75 800.1 1313.45 798.8 1312.15 798.8 1310.3
M 803.55 1506.8
L 808.6 1507.6 808.9 1509.75 820.4 1513.7 846.75 1513.8
Q 836.9 1524.7 819.25 1522.65 800.55 1520.8 803.55 1506.8
M 1157.7 1208.6
Q 1157.7 1210.5 1155.95 1211.85 1154.2 1213.2 1151.7 1213.2 1149.2 1213.2 1147.45 1211.85 1145.7 1210.5 1145.7 1208.6 1145.7 1206.7 1147.45 1205.35 1149.2 1204 1151.7 1204 1154.2 1204 1155.95 1205.35 1157.7 1206.7 1157.7 1208.6
M 1086.45 1375.3
Q 1081.55 1373.6 1080.65 1368.95
L 1083 1365.8
Q 1099 1367.25 1113.55 1372.2 1113.9 1372.3 1114.2 1372.7 1102.35 1381.05 1086.45 1375.3
M 1271.3 1526.35
Q 1271.05 1526.7 1270.8 1527 1270.55 1527.3 1270.3 1527.6 1270 1527.85 1269.7 1528.05 1264.7 1531.55 1259.05 1529.15
L 1251.5 1524.4 1259.05 1520.2 1271.3 1526.35
M 1358.05 1209.35
Q 1359.65 1209.35 1360.8 1210.45 1361.95 1211.6 1361.95 1213.2 1361.95 1214.8 1360.8 1215.9 1359.65 1217.05 1358.05 1217.05 1356.45 1217.05 1355.3 1215.9 1354.15 1214.8 1354.15 1213.2 1354.15 1211.6 1355.3 1210.45 1356.45 1209.35 1358.05 1209.35
M 1328.7 1330.8
Q 1329.55 1331.05 1330.4 1331.35 1318.9 1348.05 1297.4 1339.15 1292.15 1336.9 1294.5 1331.1 1311.65 1328.2 1328.7 1330.8
M 1467 1459.1
Q 1464 1459.1 1461.85 1457.6 1459.75 1456.15 1459.75 1454.05 1459.75 1451.95 1461.85 1450.45 1464 1449 1467 1449 1470 1449 1472.1 1450.45 1474.25 1451.95 1474.25 1454.05 1474.25 1456.15 1472.1 1457.6 1470 1459.1 1467 1459.1
M 626.85 1595.05
Q 626.65 1595.45 626.3 1595.75 617.85 1603.6 607.95 1593.3
L 605.25 1585.3 608.75 1582.9 626.85 1595.05
M 1505.5 1625.45
Q 1506.7 1625.45 1507.55 1626.05 1508.4 1626.7 1508.4 1627.6 1508.4 1628.5 1507.55 1629.1 1506.7 1629.75 1505.5 1629.75 1504.3 1629.75 1503.45 1629.1 1502.6 1628.5 1502.6 1627.6 1502.6 1626.7 1503.45 1626.05 1504.3 1625.45 1505.5 1625.45
M 1056.95 1628.85
Q 1058.95 1626.3 1062.05 1625.5 1065.95 1626.35 1067.55 1629.75 1069.1 1633.15 1066.9 1636.45
L 1061.8 1642.55
Q 1046.75 1641.55 1056.95 1628.85 Z"/>

<path fill="#009900" stroke="none" d="
M 850.05 465.45
Q 906.1 445.85 965.35 441.1 1049.9 434.15 1133.35 448.8 1089.05 386.4 1005.75 397.2 968.3 402.05 930.7 407.1 855.55 417.2 788.3 451.55 720.1 486.3 675.6 548.45 657.2 574.05 645.5 603.4
L 648.6 601.7
Q 730.1 507.45 850.05 465.45
M 828.25 519.85
Q 855 510.05 882.2 501.2 952.95 479.25 1025.55 465.65 1058.5 459.7 1091.55 454.75 1058.8 449.6 1025.7 448.95 941.9 447.3 862.65 473.95 798.8 495.4 742.65 532.8 705.25 557.75 672.6 588.65 748 548.85 828.25 519.85
M 1321.35 733.05
Q 1355.15 648.85 1323 564.5 1312.15 535.95 1289.9 514.95 1241.8 460.55 1171.05 455.55 1169.55 455.55 1168.1 455.6
L 1164.5 459
Q 1247.6 501.65 1286.3 586.95 1318 656.75 1321.35 733.05
M 1309 740.7
Q 1308.4 692.7 1296.15 646.25 1280.45 586.75 1243.95 537.85 1211.6 494.45 1164.1 468.55
L 1171.95 477.6
Q 1219.15 535.35 1256.3 599.85 1294.35 665.85 1309 740.7
M 1411.6 316.35
Q 1439.4 323.95 1467.45 330.4 1402.6 274.85 1320.2 255.55 1266.5 242.75 1217.2 266.85 1190.45 279.95 1172.15 303.9 1124.7 366.15 1145.85 437.4
L 1151.3 436.4
Q 1176.95 360.95 1249.7 328.2 1327.55 293.05 1411.6 316.35
M 1303.55 353.95
Q 1377.85 336.3 1454.45 337.5 1372 310 1288.25 323.45 1259.85 328.25 1235.3 343.45 1192.95 369.85 1169.65 414.1 1165.25 422.4 1161.75 431.05
L 1167.95 425.3
Q 1226.6 372.5 1303.55 353.95 Z"/>
</g>

<g id="Layer18_0_FILL">
<path fill="#000000" fill-opacity="0.2" stroke="none" d="
M 823.6 520.85
Q 833.85 524.75 837.65 515.65 980.35 469.3 1130.35 467.45 1097.9 516.65 1078.35 572.6 1053 645.15 1044.2 721.5 1036.4 789.2 1039.05 857.25 1042.4 942.75 1052.15 1027.55 1053.65 1040.75 1060.1 1051.95 1072.8 1074 1080.75 1050.35 1087.9 1029.1 1083.7 1006.2 1070.85 935.85 1067.95 864.4 1065.15 796.55 1073.35 729.25 1082.65 653.4 1105.9 580.7 1116.7 546.9 1134.85 516.85 1155.2 483.05 1143.7 457.8
L 1144.45 455.1
Q 1144.55 454.4 1144.5 453.7 1144.2 445.6 1136.7 443.1 1098.55 430.8 1056.85 433.95 905.55 445.45 769 508.95 714.75 534.25 666.35 569.4 647.35 583.2 642.15 603.55 640.85 608.55 645.05 606.25 731.55 559 823.6 520.85
M 1546.65 1312.35
Q 1539.05 1305 1529.5 1307.45 1486.85 1318.05 1446.1 1338.45 1377.8 1372.5 1303.45 1390.9 1229.6 1409.05 1154.15 1416.6 1077.15 1424.4 999.75 1422.85 922.9 1421.35 846.75 1411.45 775 1402.05 704.4 1386.5 685.75 1382.55 668.85 1374.6 636.25 1359.05 606 1353
L 606.4 1364.2
Q 591.9 1393.55 582.2 1424.95 560.3 1495.65 550.6 1568.8 540.85 1642.5 542.15 1716.95 542.4 1732.85 556.45 1737.8 613.25 1758.3 675.5 1756.6 750.25 1753.75 825.05 1751.7 901.85 1749.55 976.45 1731.8 1006.55 1724.75 1037.15 1726.9 1114.25 1730.85 1191.6 1729.05 1258.8 1727.45 1325.3 1718.6 1401.3 1708.3 1477.95 1711.15 1552.1 1714.2 1626.05 1713.4 1641.5 1713.25 1645.75 1699.1 1657 1661.75 1649.3 1621.85 1636.8 1557.3 1619.05 1493.8 1606.7 1449.5 1596.75 1404.85 1584.35 1349.25 1546.65 1312.35
M 1307.75 754.45
Q 1315.2 756.2 1316.55 748.9 1330.95 672.8 1281.2 605.8 1284 557.9 1241.7 522.6 1230.05 512.8 1221.35 501.25 1199.35 471.95 1169.4 462.7 1163.45 466.15 1166.95 470.8 1232.95 558.25 1271.25 660.25 1281.6 687.85 1281.85 717.2 1282.15 748.3 1307.75 754.45
M 1402.25 354.2
Q 1420.15 354.2 1436.7 359.75 1466 369.45 1484.9 353.1 1489.8 348.85 1485.6 345.1 1451.95 314.55 1397.6 316 1371.5 315.85 1345.5 313.4 1263.5 305.85 1209.15 366.3 1192.7 384.65 1173.25 399.5 1146.65 419.8 1152.05 446.1 1153.1 451.3 1156.45 449.05 1204 416.95 1256.55 389.65 1324.9 354.3 1402.25 354.2 Z"/>
</g>
</defs>

<g transform="matrix( 1, 0, 0, 1, 0,0) ">
<use xlink:href="#Layer19_0_FILL"/>
</g>

<g transform="matrix( 1, 0, 0, 1, 0,0) ">
<use xlink:href="#Layer18_0_FILL"/>
</g>
</svg>
