
<svg xmlns="http://www.w3.org/2000/svg" version="1.1" xmlns:xlink="http://www.w3.org/1999/xlink" preserveAspectRatio="none" x="0px" y="0px" width="2000px" height="2000px" viewBox="0 0 2000 2000">
<defs>
<g id="Layer19_0_FILL">
<path fill="#000000" stroke="none" d="
M 1234.4 938.55
Q 1229.25 929.85 1221.2 921.9 1207.95 908.85 1187.9 898.7 1173.2 891.25 1149.85 883.2 1114.65 871 1083.1 863.8 1050.4009765625 856.3705078125 1019.95 853.8 1016.528125 852.7578125 1011.8 852.8 997.05 853 987.75 854.95 974.75 857.65 966.4 864.5 956.45 872.65 951.75 887.7 948.2 898.95 947.2 916 944.95 954.5 950.6 992.85 956.2 1031.2 969.4 1067.4 938.7 1061.2 907.6 1062.85 876.4 1064.4 855.2 1074.3 840.55 1081.15 826 1093.95 815 1103.65 801.25 1119.45 791.65 1130.45 785.1 1139.3 776.85 1150.4 771.25 1160.8 759.3 1182.95 754.3 1211.25 750 1235.4 750.65 1264.85 750.75 1269.95 751.2 1272.95 751.9 1277.4 753.6 1280.6 754.142578125 1281.6431640625 754.8 1282.55 756.2302734375 1298.7052734375 760.6 1314.55 761.9 1319.25 763.25 1322.1 765.15 1326.05 767.95 1328.3 770.65 1330.5 774.9 1331.55 777.7 1332.25 782.65 1332.75 835.05 1337.8 900.95 1336.2 940.3 1335.2 1019.4 1330.1 1027.7 1329.55 1032.45 1328.15 1039.4 1326.1 1042.8 1321.4 1045 1318.4 1046.25 1313.15 1047.4 1307.05 1048.15 1304.1 1050.35 1295.7 1056.3 1288.95 1062.2 1282.2 1070.25 1278.9 1070.8205078125 1278.669921875 1071.4 1278.45 1081.15703125 1278.694921875 1090.9 1279 1092.08671875 1279.63203125 1093.15 1280.45 1097.1 1283.5 1099.45 1289.15 1101.2 1293.35 1102.45 1299.95 1105.05 1313.35 1105.75 1328.15 1105.95 1333.7 1106.5 1336.4 1107.45 1340.85 1109.95 1343.45 1112.3 1345.9 1116.35 1347 1119.1 1347.75 1123.9 1348.1 1151.25 1349.75 1178.1 1345.1 1183 1344.25 1185.9 1343.05 1190 1341.4 1192.05 1338.45 1193.8 1336 1194.3 1332.3 1194.6 1329.95 1194.5 1325.5
L 1193.45 1282.35
Q 1194.494140625 1281.911328125 1195.35 1281.3 1198.95 1278.75 1200.2 1273.35 1201.05 1269.6 1200.9 1263.3 1199.7 1199.05 1208.25 1135.2 1216.75 1071.3 1234.8 1009.7 1240 991.8 1241.45 984.1 1244.1 969.55 1242 958.2 1240.2 948.25 1234.4 938.55
M 1177 918.9
Q 1188.4 924.15 1196.55 930.4 1206.1 937.8 1211.9 947.25 1214.350390625 951.2318359375 1215.95 955.25 1214.4431640625 955.3357421875 1212.5 955.45 1191.2 956.95 1165.1 953 1147.85 950.4 1118.3 943.4 1075.6 933.25 1050.95 924.7 1014.5 912.1 988.5 894.7 976.9 886.95 978.65 879.3 978.792578125 878.70078125 979 878.15 980.8453125 876.845703125 982.9 875.9 988.6 873.25 1000.9 872.9 1001.6744140625 872.875390625 1002.4 872.85 1005.2486328125 873.63046875 1009.2 874.05 1044.4 877.6 1083.55 887.8 1116.25 896.25 1155.8 910.5 1169.15 915.25 1177 918.9
M 1157.2 967.2
Q 1171.4 969.45 1189.25 970.25 1199.62890625 970.67265625 1218.95 970.75 1218.969140625 976.11953125 1217.65 982.55 1216.75 986.75 1213.95 996.35 1195.4 1060.25 1186.45 1126.35 1177.45 1192.55 1178.25 1259 1075.1 1251.65 971.45 1255.65 873.1015625 1259.496484375 775.8 1273.45 776.1462890625 1269.5828125 775.85 1264.7 774.15 1237.45 779.4 1212.5 785.1 1185.7 798.4 1164.2 803.55 1155.9 810.8 1146.9 816.35 1140 824.75 1130.75 835.05 1119.4 842.3 1112.95 852.55 1103.85 862.55 1098.8 874.8 1092.65 891.75 1090 902.2 1088.4 922.6 1087.4 940.6 1086.5 950.45 1087.65 965.75 1089.4 975.9 1096.3 977.75 1097.55 981.25 1100.25 984.45 1102.55 986.95 1103.6 990.2 1105 993.5 1104.75 997.15 1104.45 999.3 1102.15 1002.2 1099.05 1001.45 1093.7 1000.9 1089.9 998.3 1084.45 979.95 1045.6 971.2 1003.1 962.5 960.6 964.05 917.65 964.728125 899.39375 970.2 888.65 970.7734375 890.6306640625 971.8 892.65 974.35 897.65 979.4 902.4 985.65 908.25 994.9 913.8 1000.5 917.1 1011.95 922.9 1025.7 929.85 1033.1 933.3 1044.95 938.8 1054.9 942.25 1061.85 944.65 1070.7 947.05 1076.05 948.45 1086.8 951.05
L 1124.15 960.1
Q 1145.5 965.35 1157.2 967.2
M 787.75 1318.05
Q 783.75 1317.85 781.7 1317.45 778.35 1316.8 776.2 1315.15 773.8 1313.35 772.25 1309.95 771.2 1307.55 770.25 1303.45 768.6935546875 1296.809375 767.65 1289.95 769.6384765625 1289.993359375 772.95 1289.7 908.1310546875 1276.4072265625 1043.9 1278 1042.54296875 1279.4853515625 1041.25 1281.1 1031.05 1293.95 1029.85 1309.4 909.05 1323.15 787.75 1318.05
M 1177.05 1314
Q 1177.25 1317.45 1177 1319.35 1176.65 1322.35 1175.2 1324.2 1173.75 1326.1 1170.95 1327.2 1168.95 1327.95 1165.6 1328.45 1143.65 1331.9 1121.2 1330.15 1121.2 1317.75 1120.8 1311.6 1120.05 1301.3 1117.8 1293.35 1115.6146484375 1285.8400390625 1111.75 1279.7 1144.49765625 1280.987109375 1177.25 1283.1 1176.2921875 1298.7234375 1177.05 1314
M 932.9 1217.95
Q 935 1218.55 939.15 1219.8 942.9 1220.85 945.45 1221.35 950.15 1222.3 959.7 1222.7
L 981.75 1223.65
Q 980.75 1222 977.55 1220.7 971.65 1218.3 959.35 1214.9 934.4 1208 916.65 1204.05 898.4 1200.15 889.3 1198.1 873.4 1194.5 862.3 1190.9 859.1 1189.85 857.6 1190 856.35 1190.1 855.3 1190.75 854.2 1191.5 853.9 1192.6 853.5 1194 854.45 1195.55 855.25 1196.8 856.75 1197.85 859.1 1199.4 862.35 1200.65 864.3 1201.35 868.4 1202.5
L 878.35 1205.25
Q 888.65 1208.15 895.3 1209.8 904.65 1212.1 915.45 1214.2 928.5 1216.75 932.9 1217.95
M 1076.35 1064.4
L 1069.55 1043.75
Q 1068.5 1040.6 1066.75 1040.2 1065.7 1040 1064.7 1040.75 1063.75 1041.45 1063.4 1042.6 1062.95 1044.2 1063.65 1047.05 1068.9 1069.95 1079.45 1095.95 1081.746875 1101.6197265625 1084.5 1107.95 1072.6140625 1111.5365234375 1061.55 1113.35 1059.9 1113.65 1058.85 1114.25 1057.5 1115.1 1057.6 1116.3 1057.75 1118 1060.3 1118.8 1065.35 1120.35 1072.2 1118.95 1073.2 1118.75 1084.15 1115.6 1084.205859375 1115.6 1087.55 1114.75 1093.3697265625 1127.5779296875 1100.95 1142.85 1102.1830078125 1145.3306640625 1103.35 1147.7 1094.880859375 1148.61953125 1087.55 1146.85 1082.45 1145.35 1079.85 1144.85 1079.1 1146.65 1079.75 1148.75 1080.35 1150.75 1081.9 1152.2 1084.25 1154.5 1089.1 1155.7 1098.05 1158.05 1108 1157.1 1108.083203125 1157.0923828125 1108.15 1157.05 1116.4662109375 1173.103515625 1123.2 1184.35 1136.45 1206.45 1150.5 1222.45 1152.4 1224.5 1153.8 1225.45 1155.85 1226.85 1157.8 1226.6 1156.3 1221.05 1152.7 1214.75 1150.75 1211.4 1145.6 1203.8 1129.928125 1180.5990234375 1116.5 1155.7 1121.530078125 1154.571875 1126.5 1152.6 1131.3943359375 1150.6765625 1136.3 1147.9 1136.9005859375 1149.08515625 1137.4 1150.05 1139.95 1154.9 1143.7 1160.6 1146.05 1164.2 1150.7 1170.75 1152.85 1173.75 1153.85 1175.05 1155.7 1177.35 1157.5 1178.85 1161.35 1182.05 1166.55 1183.55 1161.05 1172.3 1154.15 1161.55 1148.1 1152.2 1147 1150.3 1145.5333984375 1147.7013671875 1143.55 1143.45 1150.8859375 1138.5525390625 1158.3 1131.85 1159.75 1130.5 1160.35 1129.05 1161.05 1127.3 1160 1126.2 1153.35 1128.6 1142.45 1133.85 1141.12421875 1134.4892578125 1139.85 1135.05 1139.66953125 1134.5732421875 1139.45 1134.05
L 1125.85 1101.3
Q 1125.51875 1100.5048828125 1125.2 1099.75 1127.4365234375 1098.6759765625 1129 1097.65 1133 1095.05 1138.15 1088.55 1132.55 1089.35 1125.75 1091.95 1124.6669921875 1092.351171875 1122.5 1093.25 1121.1345703125 1089.8498046875 1120.4 1087.95 1118.05 1082 1115.25 1074.05
L 1108 1054 1109.45 1050.8
Q 1108.75 1049.55 1107.2 1049.3 1105.65 1049 1104.55 1049.9 1102.55 1051.55 1103.5 1056.4 1106 1069.05 1109.9 1081.7 1112.0345703125 1088.7333984375 1114.85 1096.55 1114.3138671875 1096.8013671875 1113.75 1097.05 1102.4720703125 1102.006640625 1091.85 1105.6 1088.1767578125 1097.5041015625 1085.5 1090.65 1082.25 1082.3 1076.35 1064.4
M 1117.4 1103.5
Q 1118.6638671875 1106.709765625 1120 1110.05 1123.9 1119.7 1131.75 1137.8 1131.953125 1138.2708984375 1132.15 1138.7 1127.5068359375 1140.881640625 1125 1141.9 1117.9888671875 1144.7697265625 1111.55 1146.3 1111.1328125 1145.448046875 1110.7 1144.6 1106.25 1135.75 1102.45 1127.9 1097.884375 1118.506640625 1095.2 1112.85 1101.4783203125 1111.267578125 1105.5 1109.6 1108.55 1108.35 1113.3 1105.75 1115.6935546875 1104.42734375 1117.4 1103.5 Z"/>

<path fill="#A37C1D" stroke="none" d="
M 1177 1319.35
Q 1177.25 1317.45 1177.05 1314 1176.2921875 1298.7234375 1177.25 1283.1 1144.49765625 1280.987109375 1111.75 1279.7 1115.6146484375 1285.8400390625 1117.8 1293.35 1120.05 1301.3 1120.8 1311.6 1121.2 1317.75 1121.2 1330.15 1143.65 1331.9 1165.6 1328.45 1168.95 1327.95 1170.95 1327.2 1173.75 1326.1 1175.2 1324.2 1176.65 1322.35 1177 1319.35
M 781.7 1317.45
Q 783.75 1317.85 787.75 1318.05 909.05 1323.15 1029.85 1309.4 1031.05 1293.95 1041.25 1281.1 1042.54296875 1279.4853515625 1043.9 1278 908.1310546875 1276.4072265625 772.95 1289.7 769.6384765625 1289.993359375 767.65 1289.95 768.6935546875 1296.809375 770.25 1303.45 771.2 1307.55 772.25 1309.95 773.8 1313.35 776.2 1315.15 778.35 1316.8 781.7 1317.45 Z"/>

<path fill="#734414" stroke="none" d="
M 1189.25 970.25
Q 1171.4 969.45 1157.2 967.2 1145.5 965.35 1124.15 960.1
L 1086.8 951.05
Q 1076.05 948.45 1070.7 947.05 1061.85 944.65 1054.9 942.25 1044.95 938.8 1033.1 933.3 1025.7 929.85 1011.95 922.9 1000.5 917.1 994.9 913.8 985.65 908.25 979.4 902.4 974.35 897.65 971.8 892.65 970.7734375 890.6306640625 970.2 888.65 964.728125 899.39375 964.05 917.65 962.5 960.6 971.2 1003.1 979.95 1045.6 998.3 1084.45 1000.9 1089.9 1001.45 1093.7 1002.2 1099.05 999.3 1102.15 997.15 1104.45 993.5 1104.75 990.2 1105 986.95 1103.6 984.45 1102.55 981.25 1100.25 977.75 1097.55 975.9 1096.3 965.75 1089.4 950.45 1087.65 940.6 1086.5 922.6 1087.4 902.2 1088.4 891.75 1090 874.8 1092.65 862.55 1098.8 852.55 1103.85 842.3 1112.95 835.05 1119.4 824.75 1130.75 816.35 1140 810.8 1146.9 803.55 1155.9 798.4 1164.2 785.1 1185.7 779.4 1212.5 774.15 1237.45 775.85 1264.7 776.1462890625 1269.5828125 775.8 1273.45 873.1015625 1259.496484375 971.45 1255.65 1075.1 1251.65 1178.25 1259 1177.45 1192.55 1186.45 1126.35 1195.4 1060.25 1213.95 996.35 1216.75 986.75 1217.65 982.55 1218.969140625 976.11953125 1218.95 970.75 1199.62890625 970.67265625 1189.25 970.25
M 1069.55 1043.75
L 1076.35 1064.4
Q 1082.25 1082.3 1085.5 1090.65 1088.1767578125 1097.5041015625 1091.85 1105.6 1102.4720703125 1102.006640625 1113.75 1097.05 1114.3138671875 1096.8013671875 1114.85 1096.55 1112.0345703125 1088.7333984375 1109.9 1081.7 1106 1069.05 1103.5 1056.4 1102.55 1051.55 1104.55 1049.9 1105.65 1049 1107.2 1049.3 1108.75 1049.55 1109.45 1050.8
L 1108 1054 1115.25 1074.05
Q 1118.05 1082 1120.4 1087.95 1121.1345703125 1089.8498046875 1122.5 1093.25 1124.6669921875 1092.351171875 1125.75 1091.95 1132.55 1089.35 1138.15 1088.55 1133 1095.05 1129 1097.65 1127.4365234375 1098.6759765625 1125.2 1099.75 1125.51875 1100.5048828125 1125.85 1101.3
L 1139.45 1134.05
Q 1139.66953125 1134.5732421875 1139.85 1135.05 1141.12421875 1134.4892578125 1142.45 1133.85 1153.35 1128.6 1160 1126.2 1161.05 1127.3 1160.35 1129.05 1159.75 1130.5 1158.3 1131.85 1150.8859375 1138.5525390625 1143.55 1143.45 1145.5333984375 1147.7013671875 1147 1150.3 1148.1 1152.2 1154.15 1161.55 1161.05 1172.3 1166.55 1183.55 1161.35 1182.05 1157.5 1178.85 1155.7 1177.35 1153.85 1175.05 1152.85 1173.75 1150.7 1170.75 1146.05 1164.2 1143.7 1160.6 1139.95 1154.9 1137.4 1150.05 1136.9005859375 1149.08515625 1136.3 1147.9 1131.3943359375 1150.6765625 1126.5 1152.6 1121.530078125 1154.571875 1116.5 1155.7 1129.928125 1180.5990234375 1145.6 1203.8 1150.75 1211.4 1152.7 1214.75 1156.3 1221.05 1157.8 1226.6 1155.85 1226.85 1153.8 1225.45 1152.4 1224.5 1150.5 1222.45 1136.45 1206.45 1123.2 1184.35 1116.4662109375 1173.103515625 1108.15 1157.05 1108.083203125 1157.0923828125 1108 1157.1 1098.05 1158.05 1089.1 1155.7 1084.25 1154.5 1081.9 1152.2 1080.35 1150.75 1079.75 1148.75 1079.1 1146.65 1079.85 1144.85 1082.45 1145.35 1087.55 1146.85 1094.880859375 1148.61953125 1103.35 1147.7 1102.1830078125 1145.3306640625 1100.95 1142.85 1093.3697265625 1127.5779296875 1087.55 1114.75 1084.205859375 1115.6 1084.15 1115.6 1073.2 1118.75 1072.2 1118.95 1065.35 1120.35 1060.3 1118.8 1057.75 1118 1057.6 1116.3 1057.5 1115.1 1058.85 1114.25 1059.9 1113.65 1061.55 1113.35 1072.6140625 1111.5365234375 1084.5 1107.95 1081.746875 1101.6197265625 1079.45 1095.95 1068.9 1069.95 1063.65 1047.05 1062.95 1044.2 1063.4 1042.6 1063.75 1041.45 1064.7 1040.75 1065.7 1040 1066.75 1040.2 1068.5 1040.6 1069.55 1043.75
M 939.15 1219.8
Q 935 1218.55 932.9 1217.95 928.5 1216.75 915.45 1214.2 904.65 1212.1 895.3 1209.8 888.65 1208.15 878.35 1205.25
L 868.4 1202.5
Q 864.3 1201.35 862.35 1200.65 859.1 1199.4 856.75 1197.85 855.25 1196.8 854.45 1195.55 853.5 1194 853.9 1192.6 854.2 1191.5 855.3 1190.75 856.35 1190.1 857.6 1190 859.1 1189.85 862.3 1190.9 873.4 1194.5 889.3 1198.1 898.4 1200.15 916.65 1204.05 934.4 1208 959.35 1214.9 971.65 1218.3 977.55 1220.7 980.75 1222 981.75 1223.65
L 959.7 1222.7
Q 950.15 1222.3 945.45 1221.35 942.9 1220.85 939.15 1219.8
M 1120 1110.05
Q 1118.6638671875 1106.709765625 1117.4 1103.5 1115.6935546875 1104.42734375 1113.3 1105.75 1108.55 1108.35 1105.5 1109.6 1101.4783203125 1111.267578125 1095.2 1112.85 1097.884375 1118.506640625 1102.45 1127.9 1106.25 1135.75 1110.7 1144.6 1111.1328125 1145.448046875 1111.55 1146.3 1117.9888671875 1144.7697265625 1125 1141.9 1127.5068359375 1140.881640625 1132.15 1138.7 1131.953125 1138.2708984375 1131.75 1137.8 1123.9 1119.7 1120 1110.05
M 1196.55 930.4
Q 1188.4 924.15 1177 918.9 1169.15 915.25 1155.8 910.5 1116.25 896.25 1083.55 887.8 1044.4 877.6 1009.2 874.05 1005.2486328125 873.63046875 1002.4 872.85 1001.6744140625 872.875390625 1000.9 872.9 988.6 873.25 982.9 875.9 980.8453125 876.845703125 979 878.15 978.792578125 878.70078125 978.65 879.3 976.9 886.95 988.5 894.7 1014.5 912.1 1050.95 924.7 1075.6 933.25 1118.3 943.4 1147.85 950.4 1165.1 953 1191.2 956.95 1212.5 955.45 1214.4431640625 955.3357421875 1215.95 955.25 1214.350390625 951.2318359375 1211.9 947.25 1206.1 937.8 1196.55 930.4 Z"/>
</g>

<g id="Layer18_0_FILL">
<path fill="#000000" fill-opacity="0.2" stroke="none" d="
M 1052.9 1267.5
Q 1051.5 1264.1 1048.45 1262.05 1045.25 1259.9 1041.8 1260.35 1038.3 1260.85 1035.3 1264 1033.1 1266.25 1030.75 1270.45 1021.35 1287.55 1016.2 1306.2 1015.05 1310.25 1014.7 1313 1014.2 1316.8 1014.9 1319.9 1015.7 1323.45 1018.2 1326 1020.9 1328.7 1024.2 1328.85 1026.95 1328.95 1029.55 1327.3 1031.9 1325.8 1033.6 1323.25 1034.95 1321.15 1036.1 1318.1 1036.4 1317.2 1037.85 1312.65 1041.05 1302.85 1045.95 1294 1048.3 1289.9 1049.45 1287.8 1051.4 1284.15 1052.45 1281.35 1055.35 1273.55 1052.9 1267.5
M 846.95 1182.85
Q 843.9 1183.75 841.85 1186.1 839.65 1188.6 839.7 1191.55 839.8 1194.95 842.95 1197.85 845.25 1199.95 849.5 1202 856.8 1205.55 863.9 1208.5 874.75 1212.95 896.95 1220.35
L 913.4 1225.8
Q 924.55 1229.5 929.9 1231.15 939.1 1234 946.6 1235.8 951.8 1237.05 965.05 1239.6 968.95 1240.35 970.9 1240.6 974.2 1241.05 976.85 1240.9 981.45 1240.7 985.8 1238.85 990.1 1237 993.45 1233.75 995.6 1231.7 995.5 1229.85 995.35 1227.9 992.25 1226.05 984.8 1221.6 973.95 1218.05 970.85 1217 954.55 1212.4 940.9 1208.55 918.6 1201.15 891.65 1192.15 882.75 1189.4 868.25 1184.95 859.05 1183.1 855.35 1182.35 852.95 1182.25 849.6 1182.05 846.95 1182.85
M 1214.65 934.7
Q 1211.55 931.25 1206.75 928.2 1203.35 926.1 1197.6 923.3 1175.85 912.7 1147.8 902.05 1130 895.25 1096.75 883.75 1084.75 879.6 1078.25 877.65 1067.85 874.55 1059.25 873.1 1052.35 871.95 1038.35 870.95
L 996 867.8
Q 991.8 867.5 989.65 867.5 986.15 867.55 983.4 868.2 980.15 869 977.65 870.85 974.9 872.85 973.75 875.65 971.65 880.75 975.05 886.7 977.75 891.45 983.35 895.9 989.8 900.95 998.5 906.25 1003.85 909.5 1014.45 915.4 1035.2 926.9 1045.55 932.05 1063.1 940.8 1077.9 945.7 1088.85 949.35 1106.75 953.5 1128.4 958.5 1141.55 960 1146.25 960.55 1160.45 961.6 1172.25 962.5 1179.25 963.6 1183 964.2 1190.5 965.45 1192.178515625 965.66953125 1193.75 965.8 1177.8083984375 1029.0451171875 1167 1093.8 1164.15 1111.4 1163.05 1121.4 1162.5888671875 1125.653125 1162.2 1130.15 1160.911328125 1129.644140625 1159.15 1129.4 1152.7 1128.5 1144.5 1129.9 1142.3728515625 1130.267578125 1138.45 1131.2 1135.5638671875 1124.66953125 1131.6 1114.85
L 1127.6 1104.95
Q 1126.3 1101.7 1125.3 1100 1125.26015625 1099.930859375 1125.2 1099.85 1127.9580078125 1098.0341796875 1129.8 1096.45 1133.25 1093.5 1135.1 1090.35 1136.85 1087.5 1135.6 1085.8 1134.6 1084.45 1131.65 1084.65 1124.964453125 1084.955078125 1116.6 1087.2 1113.00078125 1078.998828125 1110.35 1072.1 1106.55 1062.05 1103.6 1051.7 1101.45 1043.9 1097.25 1043.35 1095.3 1043.1 1093.5 1044.45 1091.8 1045.75 1091.05 1047.75 1089.95 1050.75 1091 1055.85 1091.85 1060 1093.5 1064.25 1094.35 1066.55 1096.2 1071.15 1097.05 1073.55 1097.95 1077.45 1099.2 1083 1099.4 1083.85 1100.217578125 1087.0546875 1102.15 1092.15 1100.69921875 1092.7283203125 1099.2 1093.35 1094.5005859375 1083.70703125 1088.3 1070.6
L 1075.85 1044.25
Q 1074 1040.3 1072.75 1038.35 1070.8 1035.2 1068.55 1033.35 1065.85 1031.15 1062.45 1030.7 1058.8 1030.25 1056.3 1032.15 1053 1034.65 1052.95 1039.8 1052.9 1043.85 1054.8 1049 1057.15 1055.35 1060.65 1063 1062.75 1067.6 1067.2 1076.7
L 1079.45 1101.65
Q 1072.334375 1104.3986328125 1066.65 1105.85 1064.2 1106.45 1063.05 1106.95 1061.1 1107.75 1060 1109 1057.75 1111.6 1059.25 1115.4 1060.65 1119.05 1064.05 1120.5 1067 1121.8 1071 1121.45 1073.7 1121.25 1078.05 1120.05 1082.72265625 1118.7748046875 1087.15 1117.35
L 1087.7 1118.45
Q 1094.181640625 1131.6873046875 1098.05 1138.7 1092.56953125 1138.890625 1087.55 1138.35 1083.7 1137.85 1081.75 1137.7 1078.35 1137.4 1075.9 1137.7 1072.85 1138.1 1070.35 1139.65 1067.65 1141.35 1066.6 1143.9 1065.5 1146.75 1066.55 1150.05 1067.55 1153.1 1070 1155.3 1073.8 1158.7 1081.45 1160.4 1096.3587890625 1163.8203125 1112.65 1162.05 1114.6744140625 1165.104296875 1116.9 1168.35 1126.55 1182.55 1132.8 1190.05 1142.25 1201.5 1152 1208.55 1157.61875 1212.5767578125 1162.65 1214.4 1162.7107421875 1215.2689453125 1162.75 1216.15 1164.15 1246.45 1164.05 1263.6 1163.85 1289.7 1160.8 1310.7 1156.75 1313 1150.05 1314.2 1144.3669921875 1315.0224609375 1140.85 1315.65 1140.73359375 1315.6380859375 1140.6 1315.6 1131.1 1312.95 1121.9 1316.55 1116.2 1318.8 1114.75 1322.75 1113.85 1325.45 1115.1 1328.35 1116.25 1331.15 1118.75 1332.9 1120.3015625 1333.990234375 1122.5 1334.75 1123.2150390625 1337.2970703125 1125.1 1339.75 1128.55 1344.2 1133.95 1346 1138.55 1347.55 1144.6 1347.4 1148.4 1347.35 1155.45 1346.35 1167.8 1344.6 1174.65 1341.95 1184.85 1338 1189.15 1330.5 1191.2 1326.9 1192.2 1321.95 1192.9 1318.5 1193.25 1312.8 1195.45 1283.1 1194.35 1220.65 1193.35 1160 1196 1128.55 1198.95 1094.4 1208.35 1049.15 1220.2 996.7 1226 970.5 1227.4 964.25 1227.8 960.7 1228.4 955.15 1227.45 950.85 1226.3 945.75 1222.85 942.05 1220.3375 939.369921875 1217.35 938.35 1216.20625 936.4482421875 1214.65 934.7
M 1160.15 1145.65
Q 1160.808203125 1145.1015625 1161.4 1144.5 1160.955859375 1155.9490234375 1161.1 1168.7 1161.154296875 1173.657421875 1161.4 1181.25 1160.8447265625 1179.62421875 1160.3 1177.5 1159.1 1172.7 1158.6 1171.25 1157.3 1167.6 1153.4 1160.9 1150.9068359375 1156.5677734375 1148.45 1152.2 1150.067578125 1151.50390625 1151.65 1150.75 1157 1148.2 1160.15 1145.65
M 1161.05 1184.9
Q 1161.29296875 1184.7849609375 1161.5 1184.65 1161.584375 1187.243359375 1161.65 1190.1 1159.433984375 1187.308984375 1156.1 1183.4 1157.8060546875 1184.868359375 1159.15 1185.1 1160.15 1185.3 1161.05 1184.9 Z"/>
</g>
</defs>

<g transform="matrix( 1, 0, 0, 1, 0,0) ">
<use xlink:href="#Layer19_0_FILL"/>
</g>

<g transform="matrix( 1, 0, 0, 1, 0,0) ">
<use xlink:href="#Layer18_0_FILL"/>
</g>
</svg>
