
<svg xmlns="http://www.w3.org/2000/svg" version="1.1" xmlns:xlink="http://www.w3.org/1999/xlink" preserveAspectRatio="none" x="0px" y="0px" width="2000px" height="2000px" viewBox="0 0 2000 2000">
<defs>
<g id="Layer19_0_FILL">
<path fill="#000000" stroke="none" d="
M 1309.2 1039.2
Q 1310.1 1035.15 1310.15 1032.75 1310.2 1029.15 1308.55 1026.8 1306.9 1024.5 1303.8 1023.55 1301 1022.75 1297.9 1023.3 1295.35 1023.8 1292.35 1025.25 1290.9 1025.95 1287.15 1028.1 1275.65 1034.65 1258.35 1041.75 1238.45 1049.5 1228.6 1053.55 1224.8 1055.1 1222.6 1056.3 1219.45 1058 1217.35 1060.05 1217.330078125 1060.069921875 1217.3 1060.1 1204.452734375 1037.5732421875 1197.25 1026.6 1186.2798828125 1009.8583984375 1175.15 997.75 1175.634375 997.1484375 1176.1 996.45
L 1190.4 975.6
Q 1195.55 968 1197.6 963.2 1200.75 955.9 1199.7 949.7 1198.8 944.5 1194.9 939.4 1192 935.65 1186.65 931.1 1164.4 912.3 1134.5 901.05 1107.1 890.75 1075.3 887.45 1062.6 886.15 1050.2 886 1000.6 885.35 959.8 902 957.55 902.9 956.25 904.25 954.618359375 905.881640625 955.15 907.6 951.2357421875 907.48671875 946.9 907.4 925.7 907 911.9 907.9 892.8 909.2 877.5 913.3 848.5 921.1 824.25 941 800.35 960.5 786.05 987.55 771.75 1014.45 768.65 1045.55 765.5 1076.65 774.15 1105.9 782.8 1135.15 802.3 1159.55 821.85 1183.95 848.45 1198.8 848.1923828125 1202.416796875 848.7 1206.8 849.1 1209.9 850.2 1215.3 851.85 1223.7 853 1227.9 854.95 1234.8 857.75 1239.75 859.5 1242.85 862.3 1246.35 864 1248.55 867.45 1252.4 873.65 1259.35 877.75 1263.25 883.65 1268.95 889.3 1272.6 893.2 1275.15 899.2 1278.05 906.05 1281.35 910.75 1282.45 916.3 1283.7 922.2 1282.95 927.9 1282.2 933.2 1279.7 943.45 1274.95 950.5 1264.85 953.7 1260.4 954.8 1256.35 955.45 1254.05 955.7 1251.1 955.8 1249.35 955.8 1245.8 955.8 1232.4 955.7 1225.75 955.6904296875 1224.982421875 955.65 1224.25 970.9828125 1224.9048828125 988.65 1224.7 1012.7919921875 1224.4408203125 1031.45 1223 1033.57265625 1234.446875 1040.85 1244.55 1050.25 1257.6 1064.45 1263.25 1071.2 1265.9 1076.45 1265.5 1084.65 1264.95 1091.1 1257.65 1096.75 1251.3 1099.45 1242 1101.85 1233.7 1101.95 1224.9 1102.073828125 1217.678515625 1100.6 1210.7 1123.3978515625 1203.769140625 1148.95 1192.05 1170 1182.4 1209.7 1160.9 1212.969140625 1159.12734375 1215.55 1157.1
L 1228.7 1179.45
Q 1235.2 1190.45 1238.6 1195.85 1244.3 1204.8 1249.55 1211.5 1253.1 1215.95 1255.85 1217.45 1257.9 1218.55 1260.05 1218.6 1262.4 1218.7 1264.1 1217.5 1265.7 1216.4 1266.75 1214.15 1267.4 1212.7 1268.1 1209.95
L 1277.4 1172.3
Q 1282.55 1151.95 1287.15 1132.95 1299.55 1082.05 1309.2 1039.2
M 1183.8 944.45
Q 1187.85 949.2 1188.05 953.1 1188.2 955.95 1186.5 959.1 1185.45 961 1182.8 964.4 1173.61640625 976.3244140625 1166.05 988.65 1151.6962890625 975.4068359375 1132.55 963.9 1149.8818359375 946.333203125 1168.1 931.15 1178.1564453125 937.8658203125 1183.8 944.45
M 976.15 906.65
Q 990 902.65 990.8 902.45 1002.65 899.55 1020.1 898.4 1054.1255859375 896.1232421875 1084.6 900.65 1079.8107421875 902.4166015625 1074.15 907.75 1065.45 915.95 1064.1 916.95 1060.95 919.2 1060.15 920.1 1059.65 920.7 1058.75 922.05 1057.9 923.4 1057.35 924 1056.85 924.65 1055.4 926 1054.1 927.2 1053.55 928 1053.45 928.141015625 1053.35 928.25 1038.1849609375 922.5943359375 1028.3 919.4 1011.6 914.05 997.5 911.5 986.05 909.45 972.3 908.45 971.170703125 908.3685546875 969.95 908.3 972.87421875 907.59921875 976.15 906.65
M 980.8 930.05
Q 1001.9 933.3 1029.1 940.25 1067.8 950.2 1095.1 962.05 1129.65 977.1 1153.6 998.05 1168.3 1010.85 1182.85 1029.4 1193.35 1042.75 1207.75 1064.45 1209.9775390625 1067.79140625 1213.25 1069.4 1213.3365234375 1070.709765625 1213.75 1071.95 1214.95 1075.55 1218.85 1077.5 1222.5 1079.35 1226.6 1078.95 1230.1 1078.65 1234.15 1076.85 1236.5 1075.8 1241.15 1073.15 1265.2 1059.45 1289.15 1048.2
L 1279.6 1089.15
Q 1279.37109375 1087.48359375 1277.55 1086.45 1275.95 1085.55 1273.85 1085.4 1269.25 1085.05 1261.95 1086.8 1252.65 1089.1 1250.1 1089.4 1248.15 1089.6 1247.2 1089.75 1245.55 1090 1244.4 1090.45 1243 1091.1 1242.1 1092.25 1241.1 1093.5 1241.2 1094.85 1241.25 1095.95 1242.05 1096.95 1242.75 1097.9 1243.85 1098.45 1245.55 1099.25 1248.35 1099.35 1254.15 1099.6 1261.25 1098.05 1265.55 1097.1 1273.85 1094.55 1276.45 1093.8 1277.75 1092.85 1278.5947265625 1092.211328125 1279.05 1091.45
L 1268.8 1135.5
Q 1267.4451171875 1135.2318359375 1265.4 1135.05 1262.3 1134.8 1261.75 1134.75 1258.75 1134.4 1254.7 1133 1250.15 1131.3 1247.8 1130.5 1242.9 1128.8 1240.95 1131.15 1240.1 1132.1 1240.15 1133.55 1240.2 1134.9 1240.95 1136.05 1242.05 1137.8 1245.05 1139.3 1250 1141.9 1256.6 1143.3 1260.6255859375 1144.1474609375 1266.6 1144.8
L 1254.8 1195.5 1232.3 1157.45
Q 1227.1359375 1148.7107421875 1223.3 1143.6 1223.0642578125 1141.9927734375 1222.1 1140.45 1219 1135.45 1211.5 1136.5 1205.6 1137.35 1198.75 1141.45 1159.05 1165.5 1121.7 1180.05 1079.25 1196.55 1038.75 1201.2 1020.3 1203.3 997.5 1203.4 982.15 1203.45 956.05 1202.45 936.25 1201.7 925.75 1200.75 909 1199.2 895.85 1195.85 858.5 1186.4 830 1158.45 811.4869140625 1140.291015625 801.05 1118.5 826.3314453125 1126.148828125 855.9 1131.45 884.45 1136.6 926.05 1141 949.6 1143.5 996.8 1148.15 1037.7 1152.7 1067 1158.4 1070.35 1159.05 1072.1 1159.15 1074.9 1159.3 1077.05 1158.55 1079.55 1157.6 1080.9 1155.2 1082.25 1152.7 1081.15 1150.5 1080.4 1149 1078.5 1148.05 1077.25 1147.4 1074.9 1146.75 1061.9 1143.4 1045.25 1141.1 1035.4 1139.7 1015.25 1137.65 951.25 1131.1 921 1127.6 868.6 1121.6 827.1 1115.2 816.65 1113.65 810.75 1112.35 802.940234375 1110.6048828125 796.7 1108.2 793.9533203125 1100.944140625 792.05 1093.3 786.9052734375 1072.610546875 788.55 1051.7 792.4380859375 1057.0228515625 798 1062.35 806.75 1070.65 814.6 1074.45 820.8 1077.4 828.7 1078.75 835.15 1079.8 843.55 1079.95 868.7 1080.3 884.3 1071.2 890.6 1067.6 897.85 1060.75 905.45 1053.65 910.1 1047 915.75 1038.8 917.6 1030.55 919.3 1022.8 917.85 1014.4 916.45 1006.45 912.5 999 905.65 986.15 891.25 974.6 885.25 969.85 880.2 967.2 874.7 964.3 865.95 962 853.05 958.65 842.3 958.8 839.041015625 958.8353515625 835.85 959.15 837.5291015625 957.801953125 839.25 956.5 858.2 942.2 883 934.6 905.85 927.6 931.7 926.75 954.5 926.05 980.8 930.05
M 1080.5 911.75
Q 1084.35 908.9 1087.95 907.55 1088 906.6 1089.4 904.85 1090.65 903.25 1090.5 902.15 1090.46953125 901.85546875 1090.35 901.6 1093.099609375 902.0728515625 1095.8 902.6 1131.8669921875 909.630859375 1160.35 926.3
L 1126.15 959.3
Q 1125.83984375 959.5951171875 1125.55 959.85 1122.423828125 958.11796875 1119.15 956.4 1097.7833984375 945.1849609375 1060.85 931.1 1062.91328125 928.034375 1065.85 924.85 1068.55 922.05 1073.9 917.25 1078.15 913.45 1080.5 911.75
M 812.45 984.4
Q 815.160546875 982.3224609375 818.7 980.65 822.2 979 827.4 977.35 831.3 976.15 833.35 976.3 834.35 976.4 835.75 976.8 836.55 977 838.1 977.45 841.8 978.45 848.95 978.45 856.55 978.45 859.9 979.1 863.85 979.9 868.9 982.35 877.45 986.6 884.5 993.25 891.5 999.85 896.2 1008.15 899.7 1014.25 900.2 1019.1 900.95 1026.5 895.6 1035.5 890.2 1044.45 881.6 1050.8 873 1057.15 862.9 1059.6 854.8 1061.6 842.9 1061.6 837.2 1061.65 833.35 1061.2 828.2 1060.6 824.15 1058.95 818.65 1056.75 812.3 1051 800.4 1040.15 797.35 1028.3 796.35 1024.45 796.35 1021.25 796.35 1018.2 797.25 1013.7 797.2591796875 1013.65546875 797.25 1013.6 803.2771484375 997.6013671875 812.45 984.4
M 944.2 1223.65
Q 944.161328125 1224.1705078125 944.15 1224.7 944.15 1225.85 944.35 1228.9 945.1 1237.9 944.25 1244.5 943.15 1252.95 939.4 1258.95 935.3 1265.5 928.2 1268.9 920.9 1272.4 913.65 1270.95 910.05 1270.2 903.7 1267.1 894.85 1262.8 890.8 1259.8 886.4 1256.55 880.2 1249.5 874.15 1242.7 870.55 1237.3 865.85 1230.3 863.6 1223.55 862.8 1221.15 861.4 1215.3 860.1 1209.95 859 1207.05 858.15859375 1204.816796875 857.75 1203.6 883.3009765625 1215.7412109375 916.3 1220.75 928.95390625 1222.6751953125 944.2 1223.65
M 1085.05 1215
Q 1087.2857421875 1214.4572265625 1089.55 1213.85 1089.6427734375 1214.24921875 1089.75 1214.65 1091.2 1219.9 1091.3 1220.55 1091.95 1224.45 1091.05 1229.4 1090.45 1232.5 1088.7 1238.1 1087.25 1242.65 1086.2 1244.95 1084.45 1248.6 1082.05 1250.75 1078.7 1253.75 1073.75 1254.35 1069.1 1254.9 1064.55 1253.2 1057.15 1250.4 1050.4 1241.5 1045.35 1234.8 1042.2 1226.9 1041.2837890625 1224.5875 1040.55 1222.25 1064.74921875 1219.9115234375 1085.05 1215
M 809.7 1014.1
Q 808.15 1016.45 808.25 1020.1 808.35 1022.7 809.2 1024.3 811.4 1028.35 818.45 1028.95 825.25 1029.55 828.5 1026.35 830.1 1024.75 830.5 1022.4 830.9 1020 829.95 1017.95 828.5 1014.95 824.05 1012.8 819.7 1010.75 816 1010.75 816.2 1011.05 815.8 1011.2 815.45 1011.4 815 1011.35 813.5 1011.2 812 1012 810.6 1012.75 809.7 1014.1
M 1124.45 1025.75
Q 1121.1 1020 1118.15 1016.1 1114.3 1011.15 1110.15 1007.85 1106.95 1005.35 1102.55 1003.1 1099.45 1001.5 1094.3 999.4 1085.75 995.85 1079.9 994.8 1071.7 993.35 1065.5 995.8 1064.7 996.1 1061.55 997.65 1059.1 998.8 1057.5 999.2 1056 999.6 1054 999.65 1053 999.7 1050.4 999.65 1041.1 999.55 1033.2 1000.75 1013.2 1003.75 1005.55 1015.35 1003.55 1018.4 1002.15 1022.6 1001.15 1025.65 1000.15 1030.45 998.75 1036.75 998.7 1040.75 998.5 1047.85 1001.9 1057.2 1006.7 1070.7 1014.15 1078.95 1020.5 1086 1030.4 1091.3 1038.15 1095.4 1049.6 1099.1 1057.95 1101.85 1063.3 1102.45 1066.55 1102.8 1071.75 1102.8
L 1088.15 1102.95
Q 1092.7 1103.05 1095.4 1102.65 1099.95 1101.95 1104.85 1099.15 1108.3 1097.2 1113.25 1093.3 1117.1 1090.35 1119.5 1088.1 1122.75 1085.1 1124.85 1082.05 1128.75 1076.5 1130.45 1068.6 1131.8 1062.35 1131.9 1053.8 1132.1 1045.55 1130.75 1040.15 1129.3 1034.25 1124.45 1025.75
M 1100.7 1025
Q 1102.65 1026.65 1105.35 1030.45 1109.4 1036.15 1111.5 1040.8 1114.15 1046.8 1114.3 1052.3 1114.4 1056.65 1112.5 1063.9 1111.2 1068.95 1109.8 1071.3 1108.55 1073.4 1106.25 1075.5 1104.8 1076.8 1101.95 1078.95 1099.3 1080.95 1097.8 1081.9 1095.45 1083.4 1093.25 1084.05 1091.5 1084.6 1089.2 1084.8 1088 1084.9 1085.05 1084.95
L 1074.2 1085.1
Q 1069.05 1085.2 1066.5 1084.95 1062.35 1084.55 1055.25 1082.65 1045.6 1079.95 1039.15 1076.65 1030.8 1072.45 1025.75 1066.5 1022.2 1062.35 1019.35 1056.1 1017.6 1052.4 1014.85 1044.6 1013.45 1040.8 1013.5 1038.7 1013.55 1037.7 1013.85 1036.25 1014.2 1034.65 1014.35 1033.8 1014.9 1029.3 1015.65 1027.15 1018.25 1019.25 1030.8 1015.3 1036.3 1013.5 1041.55 1012.8 1046.2 1012.2 1051.95 1012.3 1055.7 1012.35 1062.35 1012.85
L 1073.45 1013.6
Q 1076.9 1013.8 1078.8 1014.3 1080.75 1014.8 1084.1 1016.35
L 1092.55 1020.25
Q 1098.25 1022.85 1100.7 1025
M 1091.95 1046.2
Q 1089.35 1044.4 1086.4 1044.95 1086.45 1045.2 1085.8 1045.35 1084.3 1045.35 1083 1046.1 1081.65 1046.85 1080.9 1048.15 1079.75 1050 1079.75 1054.05 1079.85 1058.1 1081.35 1059.6 1082.7 1061.05 1085.8 1061.25
L 1088.25 1061.3
Q 1089.7 1061.35 1090.65 1061.55 1090.75 1060.95 1091.45 1060.35 1091.85 1060 1092.7 1059.35 1093.65 1058.45 1094.35 1056.3 1095.25 1053.2 1094.95 1051.05 1094.4 1048 1091.95 1046.2 Z"/>

<path fill="#7FCFCF" stroke="none" d="
M 1089.55 1213.85
Q 1087.2857421875 1214.4572265625 1085.05 1215 1064.74921875 1219.9115234375 1040.55 1222.25 1041.2837890625 1224.5875 1042.2 1226.9 1045.35 1234.8 1050.4 1241.5 1057.15 1250.4 1064.55 1253.2 1069.1 1254.9 1073.75 1254.35 1078.7 1253.75 1082.05 1250.75 1084.45 1248.6 1086.2 1244.95 1087.25 1242.65 1088.7 1238.1 1090.45 1232.5 1091.05 1229.4 1091.95 1224.45 1091.3 1220.55 1091.2 1219.9 1089.75 1214.65 1089.6427734375 1214.24921875 1089.55 1213.85
M 944.15 1224.7
Q 944.161328125 1224.1705078125 944.2 1223.65 928.95390625 1222.6751953125 916.3 1220.75 883.3009765625 1215.7412109375 857.75 1203.6 858.15859375 1204.816796875 859 1207.05 860.1 1209.95 861.4 1215.3 862.8 1221.15 863.6 1223.55 865.85 1230.3 870.55 1237.3 874.15 1242.7 880.2 1249.5 886.4 1256.55 890.8 1259.8 894.85 1262.8 903.7 1267.1 910.05 1270.2 913.65 1270.95 920.9 1272.4 928.2 1268.9 935.3 1265.5 939.4 1258.95 943.15 1252.95 944.25 1244.5 945.1 1237.9 944.35 1228.9 944.15 1225.85 944.15 1224.7
M 1087.95 907.55
Q 1084.35 908.9 1080.5 911.75 1078.15 913.45 1073.9 917.25 1068.55 922.05 1065.85 924.85 1062.91328125 928.034375 1060.85 931.1 1097.7833984375 945.1849609375 1119.15 956.4 1122.423828125 958.11796875 1125.55 959.85 1125.83984375 959.5951171875 1126.15 959.3
L 1160.35 926.3
Q 1131.8669921875 909.630859375 1095.8 902.6 1093.099609375 902.0728515625 1090.35 901.6 1090.46953125 901.85546875 1090.5 902.15 1090.65 903.25 1089.4 904.85 1088 906.6 1087.95 907.55
M 990.8 902.45
Q 990 902.65 976.15 906.65 972.87421875 907.59921875 969.95 908.3 971.170703125 908.3685546875 972.3 908.45 986.05 909.45 997.5 911.5 1011.6 914.05 1028.3 919.4 1038.1849609375 922.5943359375 1053.35 928.25 1053.45 928.141015625 1053.55 928 1054.1 927.2 1055.4 926 1056.85 924.65 1057.35 924 1057.9 923.4 1058.75 922.05 1059.65 920.7 1060.15 920.1 1060.95 919.2 1064.1 916.95 1065.45 915.95 1074.15 907.75 1079.8107421875 902.4166015625 1084.6 900.65 1054.1255859375 896.1232421875 1020.1 898.4 1002.65 899.55 990.8 902.45
M 1188.05 953.1
Q 1187.85 949.2 1183.8 944.45 1178.1564453125 937.8658203125 1168.1 931.15 1149.8818359375 946.333203125 1132.55 963.9 1151.6962890625 975.4068359375 1166.05 988.65 1173.61640625 976.3244140625 1182.8 964.4 1185.45 961 1186.5 959.1 1188.2 955.95 1188.05 953.1 Z"/>

<path fill="#FFFFFF" stroke="none" d="
M 818.7 980.65
Q 815.160546875 982.3224609375 812.45 984.4 803.2771484375 997.6013671875 797.25 1013.6 797.2591796875 1013.65546875 797.25 1013.7 796.35 1018.2 796.35 1021.25 796.35 1024.45 797.35 1028.3 800.4 1040.15 812.3 1051 818.65 1056.75 824.15 1058.95 828.2 1060.6 833.35 1061.2 837.2 1061.65 842.9 1061.6 854.8 1061.6 862.9 1059.6 873 1057.15 881.6 1050.8 890.2 1044.45 895.6 1035.5 900.95 1026.5 900.2 1019.1 899.7 1014.25 896.2 1008.15 891.5 999.85 884.5 993.25 877.45 986.6 868.9 982.35 863.85 979.9 859.9 979.1 856.55 978.45 848.95 978.45 841.8 978.45 838.1 977.45 836.55 977 835.75 976.8 834.35 976.4 833.35 976.3 831.3 976.15 827.4 977.35 822.2 979 818.7 980.65
M 808.25 1020.1
Q 808.15 1016.45 809.7 1014.1 810.6 1012.75 812 1012 813.5 1011.2 815 1011.35 815.45 1011.4 815.8 1011.2 816.2 1011.05 816 1010.75 819.7 1010.75 824.05 1012.8 828.5 1014.95 829.95 1017.95 830.9 1020 830.5 1022.4 830.1 1024.75 828.5 1026.35 825.25 1029.55 818.45 1028.95 811.4 1028.35 809.2 1024.3 808.35 1022.7 808.25 1020.1
M 1105.35 1030.45
Q 1102.65 1026.65 1100.7 1025 1098.25 1022.85 1092.55 1020.25
L 1084.1 1016.35
Q 1080.75 1014.8 1078.8 1014.3 1076.9 1013.8 1073.45 1013.6
L 1062.35 1012.85
Q 1055.7 1012.35 1051.95 1012.3 1046.2 1012.2 1041.55 1012.8 1036.3 1013.5 1030.8 1015.3 1018.25 1019.25 1015.65 1027.15 1014.9 1029.3 1014.35 1033.8 1014.2 1034.65 1013.85 1036.25 1013.55 1037.7 1013.5 1038.7 1013.45 1040.8 1014.85 1044.6 1017.6 1052.4 1019.35 1056.1 1022.2 1062.35 1025.75 1066.5 1030.8 1072.45 1039.15 1076.65 1045.6 1079.95 1055.25 1082.65 1062.35 1084.55 1066.5 1084.95 1069.05 1085.2 1074.2 1085.1
L 1085.05 1084.95
Q 1088 1084.9 1089.2 1084.8 1091.5 1084.6 1093.25 1084.05 1095.45 1083.4 1097.8 1081.9 1099.3 1080.95 1101.95 1078.95 1104.8 1076.8 1106.25 1075.5 1108.55 1073.4 1109.8 1071.3 1111.2 1068.95 1112.5 1063.9 1114.4 1056.65 1114.3 1052.3 1114.15 1046.8 1111.5 1040.8 1109.4 1036.15 1105.35 1030.45
M 1086.4 1044.95
Q 1089.35 1044.4 1091.95 1046.2 1094.4 1048 1094.95 1051.05 1095.25 1053.2 1094.35 1056.3 1093.65 1058.45 1092.7 1059.35 1091.85 1060 1091.45 1060.35 1090.75 1060.95 1090.65 1061.55 1089.7 1061.35 1088.25 1061.3
L 1085.8 1061.25
Q 1082.7 1061.05 1081.35 1059.6 1079.85 1058.1 1079.75 1054.05 1079.75 1050 1080.9 1048.15 1081.65 1046.85 1083 1046.1 1084.3 1045.35 1085.8 1045.35 1086.45 1045.2 1086.4 1044.95 Z"/>

<path fill="#00CCCC" stroke="none" d="
M 1029.1 940.25
Q 1001.9 933.3 980.8 930.05 954.5 926.05 931.7 926.75 905.85 927.6 883 934.6 858.2 942.2 839.25 956.5 837.5291015625 957.801953125 835.85 959.15 839.041015625 958.8353515625 842.3 958.8 853.05 958.65 865.95 962 874.7 964.3 880.2 967.2 885.25 969.85 891.25 974.6 905.65 986.15 912.5 999 916.45 1006.45 917.85 1014.4 919.3 1022.8 917.6 1030.55 915.75 1038.8 910.1 1047 905.45 1053.65 897.85 1060.75 890.6 1067.6 884.3 1071.2 868.7 1080.3 843.55 1079.95 835.15 1079.8 828.7 1078.75 820.8 1077.4 814.6 1074.45 806.75 1070.65 798 1062.35 792.4380859375 1057.0228515625 788.55 1051.7 786.9052734375 1072.610546875 792.05 1093.3 793.9533203125 1100.944140625 796.7 1108.2 802.940234375 1110.6048828125 810.75 1112.35 816.65 1113.65 827.1 1115.2 868.6 1121.6 921 1127.6 951.25 1131.1 1015.25 1137.65 1035.4 1139.7 1045.25 1141.1 1061.9 1143.4 1074.9 1146.75 1077.25 1147.4 1078.5 1148.05 1080.4 1149 1081.15 1150.5 1082.25 1152.7 1080.9 1155.2 1079.55 1157.6 1077.05 1158.55 1074.9 1159.3 1072.1 1159.15 1070.35 1159.05 1067 1158.4 1037.7 1152.7 996.8 1148.15 949.6 1143.5 926.05 1141 884.45 1136.6 855.9 1131.45 826.3314453125 1126.148828125 801.05 1118.5 811.4869140625 1140.291015625 830 1158.45 858.5 1186.4 895.85 1195.85 909 1199.2 925.75 1200.75 936.25 1201.7 956.05 1202.45 982.15 1203.45 997.5 1203.4 1020.3 1203.3 1038.75 1201.2 1079.25 1196.55 1121.7 1180.05 1159.05 1165.5 1198.75 1141.45 1205.6 1137.35 1211.5 1136.5 1219 1135.45 1222.1 1140.45 1223.0642578125 1141.9927734375 1223.3 1143.6 1227.1359375 1148.7107421875 1232.3 1157.45
L 1254.8 1195.5 1266.6 1144.8
Q 1260.6255859375 1144.1474609375 1256.6 1143.3 1250 1141.9 1245.05 1139.3 1242.05 1137.8 1240.95 1136.05 1240.2 1134.9 1240.15 1133.55 1240.1 1132.1 1240.95 1131.15 1242.9 1128.8 1247.8 1130.5 1250.15 1131.3 1254.7 1133 1258.75 1134.4 1261.75 1134.75 1262.3 1134.8 1265.4 1135.05 1267.4451171875 1135.2318359375 1268.8 1135.5
L 1279.05 1091.45
Q 1278.5947265625 1092.211328125 1277.75 1092.85 1276.45 1093.8 1273.85 1094.55 1265.55 1097.1 1261.25 1098.05 1254.15 1099.6 1248.35 1099.35 1245.55 1099.25 1243.85 1098.45 1242.75 1097.9 1242.05 1096.95 1241.25 1095.95 1241.2 1094.85 1241.1 1093.5 1242.1 1092.25 1243 1091.1 1244.4 1090.45 1245.55 1090 1247.2 1089.75 1248.15 1089.6 1250.1 1089.4 1252.65 1089.1 1261.95 1086.8 1269.25 1085.05 1273.85 1085.4 1275.95 1085.55 1277.55 1086.45 1279.37109375 1087.48359375 1279.6 1089.15
L 1289.15 1048.2
Q 1265.2 1059.45 1241.15 1073.15 1236.5 1075.8 1234.15 1076.85 1230.1 1078.65 1226.6 1078.95 1222.5 1079.35 1218.85 1077.5 1214.95 1075.55 1213.75 1071.95 1213.3365234375 1070.709765625 1213.25 1069.4 1209.9775390625 1067.79140625 1207.75 1064.45 1193.35 1042.75 1182.85 1029.4 1168.3 1010.85 1153.6 998.05 1129.65 977.1 1095.1 962.05 1067.8 950.2 1029.1 940.25
M 1118.15 1016.1
Q 1121.1 1020 1124.45 1025.75 1129.3 1034.25 1130.75 1040.15 1132.1 1045.55 1131.9 1053.8 1131.8 1062.35 1130.45 1068.6 1128.75 1076.5 1124.85 1082.05 1122.75 1085.1 1119.5 1088.1 1117.1 1090.35 1113.25 1093.3 1108.3 1097.2 1104.85 1099.15 1099.95 1101.95 1095.4 1102.65 1092.7 1103.05 1088.15 1102.95
L 1071.75 1102.8
Q 1066.55 1102.8 1063.3 1102.45 1057.95 1101.85 1049.6 1099.1 1038.15 1095.4 1030.4 1091.3 1020.5 1086 1014.15 1078.95 1006.7 1070.7 1001.9 1057.2 998.5 1047.85 998.7 1040.75 998.75 1036.75 1000.15 1030.45 1001.15 1025.65 1002.15 1022.6 1003.55 1018.4 1005.55 1015.35 1013.2 1003.75 1033.2 1000.75 1041.1 999.55 1050.4 999.65 1053 999.7 1054 999.65 1056 999.6 1057.5 999.2 1059.1 998.8 1061.55 997.65 1064.7 996.1 1065.5 995.8 1071.7 993.35 1079.9 994.8 1085.75 995.85 1094.3 999.4 1099.45 1001.5 1102.55 1003.1 1106.95 1005.35 1110.15 1007.85 1114.3 1011.15 1118.15 1016.1 Z"/>
</g>

<g id="Layer18_0_FILL">
<path fill="#000000" fill-opacity="0.2" stroke="none" d="
M 1099.4 1223.7
Q 1097.6 1220.3 1093.55 1219.25 1093.4353515625 1219.219921875 1093.3 1219.2 1094.1232421875 1216.48515625 1093.05 1214.05 1092.15 1212 1090.05 1210.6 1088.1 1209.35 1085.65 1208.9 1083.65 1208.55 1080.95 1208.65 1080.25 1208.7 1076.25 1209 1064.3 1210.1 1050.4 1208.9 1044.65 1208.4 1042.05 1208.8 1037.2 1209.7 1035.15 1213.05 1033.35 1216.05 1034.7 1219.9 1035.5337890625 1222.2091796875 1037.1 1223.9 1036.433203125 1227.1453125 1038.2 1232.35 1041.25 1241 1046.5 1247.6 1052.25 1254.8 1059.75 1258.4 1067.8 1262.25 1076.75 1261.1 1086.05 1259.9 1091.85 1253.75 1096.85 1248.5 1099.65 1238.3 1102.3 1228.95 1099.4 1223.7
M 1075.85 1228.55
Q 1080.1 1228.25 1082.5 1227.75 1083.617578125 1227.5326171875 1084.6 1227.2 1084.6142578125 1227.3384765625 1084.6 1227.45 1084 1231.75 1083.65 1233.6 1082.95 1236.95 1081.75 1239.45 1080.35 1242.4 1078 1244.35 1075.45 1246.5 1072.5 1246.8 1068.45 1247.25 1063.35 1243.9 1058.75 1240.85 1055.25 1236.45 1052.3654296875 1232.8650390625 1050.5 1228.7 1051.7513671875 1228.78984375 1053.15 1228.85 1064.55 1229.25 1075.85 1228.55
M 950.2 1236.95
Q 951.4 1234.15 951.9 1232.5 952.65 1229.95 952.6 1227.8 952.55 1225.3 951.3 1223.25 949.95 1221.05 947.75 1220.35 945.65 1219.7 943.3 1220.7 942.195703125 1221.1623046875 941.25 1221.9 938.923046875 1221.0759765625 935.75 1220.8 934.85 1220.75 929.6 1220.6 913 1220.25 897 1214.95 880.95 1209.6 867.5 1199.95 864.1 1197.55 863.1 1196.95 860.55 1195.35 858.35 1194.75 855.65 1194.05 853.05 1194.7 850.2 1195.45 848.85 1197.6 846.75 1200.8 848.85 1205.15 850.55 1208.65 854.35 1211.95 855.7814453125 1213.1755859375 857.25 1214.35 855.65 1217.6 859.1 1223.35 870.95 1243.25 888.55 1258.85 894.65 1264.25 899.8 1267.1 906.45 1270.8 912.75 1271.1 918.2314453125 1271.3951171875 923.65 1269.15 924.70234375 1269.036328125 925.7 1268.8 929.35 1268 935.8 1264.6 942.2 1261.3 944.95 1259.05 947.6 1256.9 950.85 1253 953.95 1249.4 953.65 1246.85 953.4 1244.4 950.8 1243.05 949.3529296875 1242.31171875 947.8 1242.2 948.9693359375 1239.784375 950.2 1236.95
M 918.15 1256.55
Q 915.437890625 1257.259375 913.95 1257.85 912.2853515625 1257.76171875 910.45 1257.15 907.85 1256.3 904.45 1254.2 894.9 1248.3 887.1 1240.05 881.3625 1233.9423828125 876.95 1226.95 883.6990234375 1230.3576171875 891.05 1232.95 910.9388671875 1239.9552734375 932 1240 929.55 1244.930078125 926.4 1249.6 924.2 1252.8 922.3 1254.6 921.5322265625 1255.2953125 920.75 1255.85 919.4650390625 1256.229296875 918.15 1256.55
M 802.65 1019.3
Q 798.8 1015.25 795.75 1014 793.6 1013.15 791.4 1013.5 789.05 1013.8 787.6 1015.35 786.35 1016.7 786.05 1018.8 785.8 1020.7 786.45 1022.65 787.25 1025.1 790.5 1029.15 797.05 1037.15 804.8 1044.9 809.65 1049.75 812.95 1052.25 822.25 1059.25 835.15 1062.05 846.55 1064.45 859.8 1063.4 866.35 1062.85 871.75 1061.8 881.35 1060.05 888.55 1056.95 894.25 1054.6 900.25 1050.7 904.65 1047.9 906.5 1045.25 907.75 1043.5 908.15 1041.45 908.55 1039.25 907.85 1037.4 906.75 1034.7 903.65 1033.45 900.75 1032.3 897.6 1032.9 895.05 1033.35 892 1034.95 890.25 1035.9 886.75 1038.05 872.6 1046.5 858.3 1047.05 849.85 1047.45 838.95 1044.95 833 1043.65 829 1041.95 822.1 1038.95 814.85 1032.05 814.45 1031.7 802.65 1019.3
M 1278 1137.95
Q 1277.5 1134.65 1275.1 1132.3 1271.6 1128.8 1263.6 1127.35 1259.4 1126.65 1257.35 1126.2 1253.75 1125.4 1251.35 1124.2 1251 1124.05 1247.9 1122.15 1245.8 1120.9 1244.25 1120.4 1241.5 1119.6 1238.6 1120.5 1235.7 1121.4 1233.9 1123.65 1232.1 1125.85 1231.85 1128.9 1231.55 1131.9 1232.9 1134.45 1235.05 1138.35 1241.9 1141.25 1253.55 1146.2 1266.35 1146.75 1273.7 1147.15 1276.5 1143.8 1278.5 1141.45 1278 1137.95
M 1250.2 1079.65
Q 1245.6 1080.35 1244.25 1080.7 1240.95 1081.6 1239 1083.4 1236.4 1085.8 1236.25 1089.7 1236.15 1093.55 1238.45 1096.3 1242 1100.4 1249.2 1100.65 1253.3 1100.8 1259.15 1099.55 1262.4 1098.85 1268.95 1097.35 1270.9 1097 1274.75 1096.3 1278.1 1095.6 1280.35 1094.5 1283.2 1093.1 1284.95 1090.8 1286.9 1088.2 1286.8 1085.4 1286.75 1083.05 1285.2 1080.95 1283.75 1078.95 1281.5 1077.8 1277.95 1075.85 1272.05 1076.05 1267.65 1076.15 1261.1 1077.5 1251.1 1079.5 1250.2 1079.65
M 1014.7 1155.55
Q 1030.8 1157.25 1039.5 1158.4 1053.15 1160.2 1064.05 1162.45 1074.35 1164.55 1076.95 1159.7 1078.05 1157.65 1077.3 1155.05 1076.55 1152.6 1074.6 1150.95 1072.9 1149.55 1070.35 1148.6 1068.7 1147.95 1065.6 1147.25 1051.25 1144 1033.15 1141.3 1021.9 1139.65 1000.35 1137.1
L 969.65 1133.45
Q 948.15 1130.85 937.25 1130.45 932.1 1130.25 922.75 1130.25 912.6 1130.25 908.25 1130.15 886.75 1129.55 858.95 1124.3 851.7 1122.95 810.2 1113.85 808.0328125 1113.37890625 806.45 1113.15 805.2611328125 1111.6849609375 804.1 1110.2 801.65 1107.05 800.4 1105.8 798.2 1103.5 795.9 1102.4 793.25 1101.05 790.3 1101.5 787.15 1102 785.65 1104.25 782.95 1108.3 787.3 1115.95 804.95 1147.2 836.25 1170.15 865.8 1191.8 902.45 1202.45 966.7 1221.15 1048.75 1206.15 1087.2 1199.1 1124 1185.85 1160.95 1172.55 1194.95 1153.55 1199.9 1150.8 1203 1149.95 1207.7 1148.6 1211.2 1150.2 1213.45 1151.2 1215.4 1153.6 1216.6 1155.1 1218.45 1158.2
L 1237.25 1190
Q 1240.85 1196.15 1243.35 1199.2 1247.15 1203.9 1251.5 1206.1 1256.6 1208.65 1262.25 1207.1 1268.2 1205.45 1269.8 1200.45 1270.95 1196.85 1269.3 1192.4 1268.2 1189.4 1265.25 1184.9
L 1235.65 1139.75
Q 1231.3 1133.1 1228.35 1129.85 1223.75 1124.8 1218.65 1122.9 1212.1 1120.5 1203.65 1122.65 1197.9 1124.15 1188.95 1128.6 1148.75 1148.65 1137.1 1153.95 1107.45 1167.45 1083.25 1174.3 1064.3 1179.7 1041.45 1183.15 1023.55 1185.9 998.9 1188 975.55 1190 960 1190 938.7 1190 921.35 1186.65 887.45 1180.15 856.2 1159.15 839.146875 1147.6837890625 824.2 1132.85
L 828.6 1134.2
Q 838.75 1137.25 843.85 1138.65 852.35 1140.95 859.3 1142.2 867.15 1143.65 877.25 1144.55 882.8 1145 895.3 1145.75
L 924.4 1147.35
Q 936.9 1148.05 943.35 1148.5 957.95 1149.55 987.45 1152.65
L 1014.7 1155.55
M 1087.15 1075.8
Q 1082.8 1076.1 1074.5 1075.95 1070.4 1075.9 1068.35 1075.8 1064.9 1075.55 1062.25 1075 1056.4 1073.75 1047.3 1068.85 1039.1 1064.4 1033.95 1060.6 1027.05 1055.5 1022.9 1049.75 1021.25 1047.3 1020.4 1046.05 1018.9 1043.85 1017.6 1042.5 1013.9 1038.6 1009.7 1038.95 1006.2 1039.25 1003.95 1042.65 1001.8 1045.85 1002.1 1049.65 1002.4 1052.95 1004.4 1056.5 1005.9 1059.15 1008.7 1062.45 1016.9 1072 1027.3 1079.4 1037.7 1086.8 1049.45 1091.4 1053.55 1093.05 1056.65 1093.75 1060.8 1094.7 1068.6 1095 1076.55 1095.35 1079.9 1095.45 1086.2 1095.55 1091.15 1095.2 1097.45 1094.75 1103.6 1093.55 1109.1 1092.4 1111.95 1090.85 1114.6 1089.4 1116.4 1087.25 1118.3 1084.9 1118.9 1082.2 1119.55 1079.35 1118.5 1076.6 1117.4 1073.7 1114.95 1072.3 1112 1070.55 1107.45 1071.4 1106.5 1071.6 1099.6 1073.7 1094.2 1075.35 1087.15 1075.8
M 1166.7 934.65
Q 1170.4 931.95 1172.15 929.65 1174.65 926.4 1173.9 923.3 1173.4 921.2 1171.45 919.7 1169.65 918.3 1167.35 917.95 1163.7 917.4 1158.65 919.5 1150.45 922.9 1141.05 931.45 1133.2353515625 939.1142578125 1128.2 943.65 1119.96328125 938.25625 1110.15 932.75 1091.15 922.1 1076.3 917.1 1075.828515625 916.940625 1075.3 916.75 1083.495703125 909.72578125 1093.15 904.45 1095.45 903.2 1096.2 902.75 1097.85 901.7 1098.9 900.6 1100.25 899.3 1100.85 897.7 1101.55 895.95 1101.2 894.35 1100.85 892.55 1099.3 891.2 1097.95 889.95 1096 889.35 1091.05 887.95 1085.45 890.7 1082.2 892.3 1076.65 897.05
L 1058.85 912.25
Q 1058.3568359375 912.12109375 1057.85 912 1042.95 908.45 1039.2 907.4 1023.35 902.5 1015.4 900.45 1001.55 896.95 991.15 897.65 985.9 898.05 983 899.75 981.1 900.85 979.9 902.6 978.6 904.5 978.55 906.55 978.55 908.75 980 910.75 981.35 912.6 983.5 913.8 985.3 914.75 987.8 915.35 989.1 915.65 992.35 916.2 1002.75 917.9 1015.7 920.95 1022.9 922.65 1038.85 926.8 1054.45 930.9 1060.5 932.75 1088.25 941.15 1109.25 954.35 1113.19453125 956.8275390625 1116.85 959.45 1117.11328125 961.7384765625 1118.65 963.8 1120.75 966.55 1123.85 967.15 1125.2970703125 967.432421875 1126.8 967.2 1139.00234375 977.7501953125 1147.5 990.3 1150.65 994.9 1151.85 996.25 1154.55 999.4 1157.55 1000.55 1162.3 1002.45 1167.2 999.35 1172.1 996.25 1172.45 991.1 1172.7 987.8 1170.95 984.15 1169.65 981.45 1166.9 978 1157.264453125 965.63125 1143.15 954.4 1152.7529296875 944.797265625 1166.7 934.65 Z"/>
</g>
</defs>

<g transform="matrix( 1, 0, 0, 1, 0,0) ">
<use xlink:href="#Layer19_0_FILL"/>
</g>

<g transform="matrix( 1, 0, 0, 1, 0,0) ">
<use xlink:href="#Layer18_0_FILL"/>
</g>
</svg>
