
<svg xmlns="http://www.w3.org/2000/svg" version="1.1" xmlns:xlink="http://www.w3.org/1999/xlink" preserveAspectRatio="none" x="0px" y="0px" width="2000px" height="2000px" viewBox="0 0 2000 2000">
<defs>
<g id="Layer19_0_FILL">
<path fill="#000000" stroke="none" d="
M 1305.8 967.8
Q 1303.75 961.35 1300.2 953.75 1297.85 948.65 1293.4 940.25 1286.15 926.55 1281.2 918.75 1273.85 907.25 1266.15 899.3 1259.7 892.75 1248.05 883.95 1238.05 876.4 1230.6 871.85 1220.75 865.85 1211.65 862.65 1201.1 858.95 1190.8 858.8 1183.43046875 858.6689453125 1176.9 860.35 1175.5958984375 830.9330078125 1160.45 802.55 1142.9 769.7 1112.3 747.95 1083.5 727.5 1046.15 718.4 1011.4 709.9 973.25 712.1 931.65 714.5 900.15 728.9 872.6 741.55 850.65 764.4 829.2 786.75 816.6 815.15 804.35 842.75 801.1 874.15 800.4146484375 880.892578125 800.15 887.65 793.816015625 884.823828125 784.15 883.45 763.75 880.5 743.15 884.1 722.5 887.75 704.35 897.5 685.35 907.7 672 923.25 657.7 939.85 652.85 959.3 649.4 973.35 650.9 987.35 651.4 991.5 652.75 993.4 654.65 995.9 658.3 996.15 661.75 996.4 664.75 994.65 667.1 993.3 669.8 990.5 672.7 987.2 674.2 985.6 679.85 979.65 688.5 974.9 694.9 971.35 705 967.5 731.9 957.2 752.75 954.9 779.85 951.85 801.45 960.5 805.15 961.95 805.7 962.15 808.2 963 810.15 963.15 810.530859375 963.1732421875 810.9 963.15 813.8134765625 971.9119140625 817.45 980.3 817.4171875 980.467578125 817.35 980.65 816.4 983.2 814.35 985.9 813 987.65 810.3 990.5 805.65 995.45 803 998.05 798.8 1002.1 795.1 1004.9 783.45 1013.7 764.25 1019.1 757.95 1020.85 747.4 1023.15 734.15 1026.1 730.45 1027 718.2 1030 716.85 1036.85 716.35 1039.3 717.35 1041.95 718.3 1044.35 720.25 1046.35 721.85 1048 724.35 1049.55 725.7 1050.4 728.95 1052.15
L 739.9 1057.75
Q 747.15 1061.5 750.85 1063.25 756.95 1066.2 762.1 1068.05 773.35 1072.1 788.25 1074.15 797.25 1075.35 815.1 1076.5 827 1077.3 833.05 1076.95 844.3 1076.25 857.3 1071.9 866.45 1068.8 880.45 1062.3 881.92421875 1061.620703125 883.15 1060.95 891.0775390625 1066.253125 899.6 1070.6 936.05 1089.15 979.45 1088.1 1021.85 1087.1 1059.1 1067.8 1095.3 1049 1122.4 1015.5 1129.0943359375 1007.1990234375 1134.9 998.4 1140.058203125 1012.5529296875 1141.15 1027.95 1141.95 1040.35 1139.1 1048.75 1138.68046875 1050.0083984375 1137.85 1052.1 1136.6623046875 1052.1935546875 1135.35 1052.4 1106.7 1056.95 1084.5 1062.95 1057.65 1070.25 1035.95 1080.75 1011.5 1092.55 992.45 1109 991.25859375 1110.0294921875 990.1 1111.05 989.83203125 1110.937109375 989.55 1110.8 980.55 1106.25 975.45 1104.9 969.65 1103.45 959.5 1103.35 948.25 1103.2 939.9 1103.85 929.35 1104.7 920.7 1107.05 910.8 1109.75 902.65 1114.6 893.85 1119.85 888 1127.2 881.7 1135.05 879.55 1144.75 877.3 1154.85 880.35 1163.9 883.7 1174.05 894.5 1183.95 901.3275390625 1190.20859375 911.8 1197.1 902.2650390625 1200.14609375 896.9 1203.05 888.4 1207.65 880.6 1216.35 874.7 1222.9 867.85 1233.5 865.3083984375 1237.453515625 863.75 1240.4 861.95546875 1238.9625 858.75 1237.8 851.85 1235.35 839.35 1233.75 803.2 1229.3 767.05 1232.3 765.3 1232.4 764.4 1232.3 762.95 1232.15 762.05 1231.4 761.15 1230.65 760.75 1229.2 760.55 1228.5 760.25 1226.55 759 1216 753.85 1205.75 749.05 1196.15 741.4 1187.75 728.25 1173.3 706.15 1162.1 702.35 1160.2 699.7 1159.65 696 1158.9 693.35 1160.4 689.5 1162.6 689.35 1168.25 689.2 1172.6 691.25 1178.3
L 704.75 1216.35
Q 689 1205.9 669.65 1203.2 650.35 1200.45 632.3 1206.2 627.35 1207.8 625.65 1210.15 624.15 1212.25 624.5 1215.25 624.8 1218 626.5 1220.35 627.95 1222.3 630.4 1224.1 631.85 1225.2 635.05 1227.05 671.3 1248.5 703.75 1275.3 706.85 1277.8 708.4 1279.65 710.7 1282.35 711.3 1285.1 711.9 1287.85 710.85 1292.75 708.25 1305.05 702.7 1316.65 700.75 1320.75 700.3 1321.9 699.05 1324.9 698.75 1327.4 698.45 1330.45 699.55 1333.1 700.7 1336.05 703.15 1337.3 705.75 1338.65 709.3 1337.8 711.95 1337.2 715.45 1335.25 730.1 1327.2 742.4 1315.6 754.75 1304 763.65 1289.8 764.1619140625 1288.9970703125 764.6 1288.2 765.932421875 1288.6970703125 767.5 1288.95 769.65 1289.3 773.25 1289.35 793.6 1289.7 818.85 1286.5 834 1284.55 864.05 1279.3 866.0703125 1278.9455078125 867.45 1278.55 868.1453125 1279.7931640625 868.9 1281.1 872.95 1288.2 876.25 1292.25 891.45 1310.85 924.6 1316.5 932.65 1317.85 939 1318 946.75 1318.15 953.25 1316.6 958.514453125 1315.35078125 961.2 1312.85 966.9091796875 1320.928515625 973.8 1328.25 989 1344.4 1008.15 1354.95 1013.25 1357.75 1017.55 1358.3 1021.80078125 1358.8796875 1024.65 1357.15 1026.11875 1360.9970703125 1027.45 1363.25 1028.719921875 1365.426953125 1030.2 1366.9 1017.4755859375 1371.230078125 1001.6 1375.65 991.2 1378.5 969.85 1383.95 963.95 1385.45 960.8 1385.9 955.75 1386.6 951.75 1385.95 948.05 1385.35 943.6 1383.2 941.85 1382.35 936 1379.1 921.4 1370.85 903.7 1363.9 888.7 1358.05 869.85 1352.5 866.35 1351.45 864.3 1351.1 861.15 1350.6 858.65 1351.05 855.7 1351.65 853.6 1353.7 851.3 1355.9 851.35 1358.65 851.35 1360.65 852.65 1362.8 853.5 1364.2 855.45 1366.35 866.4 1378.05 878.05 1386.4 859.7 1387.15 841.8 1392.15 837.1 1393.5 834.25 1395.55 830.55 1398.25 830.55 1401.9 830.55 1408.6 843.4 1412 855.85 1415.15 870.8 1421.15 879.75 1424.75 897.4 1432.7 897.85 1442.6 894.15 1452 891.4 1458.9 890.9 1461.85 889.95 1467.5 893.05 1470.5 895.45 1472.75 900.95 1473.25 918.8 1474.65 934.3 1463 949.8 1451.35 953.45 1433.8 1011.583984375 1424.3580078125 1068.5 1396.05 1069.75546875 1397.339453125 1072.1 1398.8 1089.65 1409.8 1107.15 1411.55 1119.05 1412.7 1130.8 1409.45 1142.55 1406.2 1152.15 1399.05 1156.9 1395.5 1163.15 1389.45 1167.3244140625 1385.3392578125 1170.05 1382.1 1184.7642578125 1383.737109375 1200.45 1380.6 1215.55 1377.55 1230.4 1370.3 1243.8 1363.8 1257.3 1353.7 1268.85 1345.05 1281.35 1333.05 1290.4 1324.35 1296.4 1317.15 1303.9 1308.05 1308.55 1299.15 1310.65 1295 1312.85 1289.55 1314.05 1286.55 1316.55 1279.7 1317.75 1276.3 1318.2 1274.6 1318.4087890625 1273.8064453125 1318.55 1273.05 1325.63046875 1273.5337890625 1334.4 1273.6 1341.75 1273.6 1345.75 1272.85 1349.35 1272.15 1353.6 1270.35 1356.25 1269.25 1361.05 1266.8 1369.4 1262.5 1373.85 1259.35 1380.5 1254.6 1384.15 1249.05 1387.75 1243.55 1389.3 1235.85 1390.45 1229.85 1390.5 1221.45 1390.5 1212.85 1389.3 1207.2 1386.95 1196.9 1378.7 1186.45 1373.45 1179.85 1362 1169.2 1355.95 1163.6 1352.8 1160.9 1347.55 1156.4 1342.95 1153.35 1342.2578125 1152.8884765625 1341.55 1152.4 1342.732421875 1149.1001953125 1342.4 1143.45 1341 1123.05 1329.65 1103.15 1319.35 1085.2 1302.3 1069.95 1300.60859375 1068.4546875 1298.95 1067.4 1307.4921875 1037.527734375 1309.7 1018.05 1312.9 989.8 1305.8 967.8
M 1304.6 1157.1
Q 1308.6 1158.25 1316.7 1160.4 1326.55 1163.65 1336.6 1171.1 1343.95 1176.55 1353.75 1186.2 1358.5 1190.9 1361.35 1194.15 1365.25 1198.65 1367.85 1202.85 1374.4 1213.5 1373.55 1223.6 1372.9 1231.85 1367.3 1239.1 1362.05 1245.9 1354.1 1249.85 1341.15 1256.35 1320.8 1255.2 1309.85 1254.55 1301.05 1252.15 1266.5 1242.7 1238.25 1201.15 1233.85 1194.55 1232.1 1190.35 1230.65 1186.85 1230.15 1185.95 1228.8 1183.65 1226.9 1182.9 1224.35 1181.9 1221.75 1183.75 1219.2 1185.5 1218.55 1188.35 1218 1190.85 1218.7 1193.9 1219.15 1195.95 1220.55 1199.3 1231.7 1225.3 1252.15 1244.45 1269.8 1261.05 1289.7 1267.75 1294.59765625 1269.42421875 1300.1 1270.6 1299.5521484375 1271.991796875 1298.75 1274.25 1290.9 1295.2 1275.7 1313.8 1261.35 1331.35 1241.95 1345.1 1224.95 1357.15 1207 1364.1 1191.772265625 1370.0109375 1176.7 1371.85 1177.456640625 1370.4169921875 1178.15 1368.85 1179.95 1364.65 1182.05 1358.2 1184.7 1350.15 1186.05 1344.35 1187.8 1336.7 1188 1330.1 1188.35 1319.7 1184.6 1312.6 1183.3 1310.1 1181.65 1309.75 1179.8 1309.4 1178.05 1311.35 1176.1 1313.5 1175.35 1317.1 1174.95 1319.05 1174.7 1323.7 1173.9 1339.4 1168.6 1354.6 1165.9 1362.4 1162.5 1368.3 1157.55 1376.85 1150 1383.45 1142.45 1390.05 1133.3 1393.85 1124.2 1397.6 1114.2 1398.25 1104.15 1398.9 1094.65 1396.35 1088.1505859375 1394.6107421875 1079.4 1390.45 1084.249609375 1387.9111328125 1089.1 1385.2 1093.95 1382.5 1096.65 1380.55 1100.55 1377.7 1102.8 1374.45 1105.45 1370.6 1105.75 1366.15 1106.05 1361.35 1103.4 1358.05 1099.6 1353.4 1090.1 1352.8 1077.35 1352 1061.15 1356.55 1057.954296875 1357.425 1043.3 1362.45 1043.1513671875 1362.1111328125 1042.95 1361.8 1042.45 1360.95 1041.25 1360 1039.65 1358.7 1039.35 1358.35 1038.1 1357.05 1036.65 1353.45
L 1032.65 1343.05
Q 1031.55 1340.15 1031.4 1338.7 1031.25 1337.6 1031.4 1335.65 1031.5 1333.5 1031.45 1332.6 1031.3 1331.15 1030.35 1328.45 1029.4 1325.65 1029.2 1324.3 1028.95 1322.4 1029.4 1319.95 1029.7 1318.6 1030.5 1315.7
L 1034.15 1303.6
Q 1035.5 1299.1 1036.3 1296.95 1037.65 1293.3 1039.25 1290.65 1040.8 1288.15 1043.25 1285.4 1044.65 1283.85 1047.9 1280.6 1052.3 1276.3 1054.95 1274.65 1055.95 1274.05 1064.1 1270.6 1069.65 1268.25 1071.9 1265.1 1070.6 1262.45 1067.6 1261.05 1064.85 1259.7 1061.65 1259.85 1056.8 1260.1 1050.3 1264 1044.55 1267.4 1040.7 1271.2 1038.75 1273.1 1035.2 1277.1 1034.2 1278.25 1032.05 1280.45 1030.25 1282.4 1029.15 1283.95 1026.3 1288.05 1024.2 1295.8 1021.45 1306.05 1020.55 1308.3 1020.1 1309.5 1019.05 1311.8 1018.25 1313.9 1017.95 1315.45 1017.6 1317.25 1017.75 1320.2 1017.95 1324.2 1017.9 1325 1017.9 1326.1 1017.75 1328.25 1017.7 1330.2 1018 1331.5 1018.2 1332.3 1018.7 1333.6 1019.25 1335.05 1019.45 1335.65 1019.5447265625 1335.9697265625 1019.6 1336.3 1019.1998046875 1336.06015625 1018.75 1335.8 1018.55 1335.65 1011.35 1331.9 988.3 1319.7 973.5 1293.75 960.4 1270.65 956.05 1241.15 954.15 1228.1 954.95 1219.25 955.4 1213.45 957.15 1206.35 958.25 1202 960.75 1193.75 964.35 1181.7 966.5 1175.55 969.95 1165.55 973.7 1157.95 984.1 1137.05 1003.3 1119.9 1020.8 1104.25 1044 1093.1 1063.9 1083.55 1089.65 1076.5 1108.4 1071.35 1137.25 1065.95 1137.420703125 1065.9169921875 1137.6 1065.85 1139.1044921875 1068.008984375 1141.45 1068.4 1143.292578125 1065.8349609375 1144.8 1063 1144.8578125 1062.9794921875 1144.9 1062.95 1148.65 1060.35 1147.9 1056.9 1147.8517578125 1056.672265625 1147.75 1056.45 1148.5634765625 1054.3859375 1149.2 1052.2 1151.65 1043.75 1151.75 1034.3 1152 1019.2 1145.9 998.75 1144.25 993.25 1142.75 989.75 1142.248828125 988.547265625 1141.7 987.4 1153.8962890625 966.4294921875 1161.4 942.8 1162.65 938.7 1163.1 936.3 1163.7 932.65 1163.25 929.7 1162.65 926.25 1160.4 923.65 1158.05 920.9 1154.85 920.55 1146.05 919.55 1141.05 935.9 1129.7 973.25 1105.35 1003.35 1080.15 1034.45 1046.35 1051.15 1011.45 1068.4 972.05 1067.55 931.75 1066.7 899.4 1047 870.45 1029.4 850.4 998.15 831.7 968.95 824.05 933.2 817.25 901.55 821.1 874.25 824.6 849.55 838.3 821.15 857.5 781.65 884.15 762 903.85 747.4 932.85 739.55 968.5 729.8 1006.1 732.8 1043.65 735.8 1077.35 751.05 1098.2 760.45 1114.25 773.35 1132 787.65 1142.6 805.25 1150.65 818.6 1155.6 835.65 1159.8 850.2 1161.95 868.3 1162.35 871.8 1162.75 873.4 1163.4 876.2 1164.65 878.05 1166.2 880.25 1168.7 881.15 1171.4 882.05 1173.5 880.75 1175.3 879.65 1176.1 877.15 1176.604296875 875.59140625 1176.8 872.95 1177.37890625 872.9001953125 1178.05 872.8 1194.1 870.55 1211.45 878.4 1226.15 885 1240.35 898.15 1256 912.6 1267.9 930.45 1279.8 948.3 1287.05 968.3 1290.45 977.7 1291.95 985.4 1295.35 1003.05 1291.1 1025.55 1288.7 1038.3 1280.4 1065.2 1279.45 1068.3 1279.15 1069.9 1278.6 1072.55 1278.75 1074.7 1278.95 1077.25 1280.15 1079.35 1281.5 1081.6 1283.65 1082.5 1286 1083.5 1288.75 1082.65 1290.2064453125 1082.1931640625 1291.45 1081.35 1292.5197265625 1082.33203125 1294.4 1084 1307.55 1095.9 1315.85 1112 1323.8486328125 1127.6578125 1325.9 1144.65 1314.794140625 1140.3591796875 1300.65 1137.6 1292.1 1135.9 1289.15 1139.75 1287.1 1142.5 1288.65 1146.35 1290.05 1149.85 1293.35 1152.15 1297.5 1155.1 1304.6 1157.1
M 976.1 1121.15
Q 977.8138671875 1121.4357421875 979.3 1121.65 967.6064453125 1134.226171875 959.45 1148.5 955.95 1154.6 952.25 1162.65 950.15 1167.3 945.9 1177.15 942.45 1185.25 940.9 1189.35 940.3556640625 1190.7841796875 939.85 1192.15 937.82421875 1190.2322265625 934.5 1188.4 921.15 1181.05 919.85 1180.3 911.7 1175.4 906.55 1170.35 902.3 1166.2 899.95 1161.7 897.25 1156.45 897.45 1151.35 897.65 1147.05 899.9 1142.9 902 1139.05 905.5 1135.95 910.9 1131.15 921.05 1127.4 926.8 1125.3 931.1 1124.3 933.65 1123.75 938.85 1122.85
L 946.15 1121.65
Q 952.9 1120.5 956.6 1120.1 962.4 1119.5 967.1 1119.85 969.65 1120.05 976.1 1121.15
M 678.35 962.75
Q 671.9 966.25 667.35 970.2 666.25 968.65 667.5 965.3 670.9 956.05 673.75 950.1 677.55 941.95 681.9 935.9 692.75 920.8 712.1 910.45 730.7 900.55 752.1 897.95 773.5 895.3 793.95 900.45 796.65 901.15 797.5 901.3 798.911328125 901.575390625 800.05 901.6 800.5609375 918.4205078125 803.7 935.3 804.596875 940.0705078125 805.7 944.75 793.6029296875 940.0388671875 779.65 938.6 764.9 937.05 749 939.25 734.85 941.2 719.15 946.2 706.3 950.25 690.45 957.05 682.9 960.25 678.35 962.75
M 781.65 1030.6
Q 786.4 1028.3 791.55 1024.7 795.45 1021.9 800.6 1017.6 806.7 1012.5 810.85 1008.2 816.05 1002.8 819.45 997.4 821.310546875 994.476171875 822.75 991.4 828.80859375 1003.2263671875 836.45 1014.3 849.95546875 1033.79921875 866.6 1048.3 857.0375 1052.4123046875 851.5 1054.3 840.8 1057.95 831.75 1058.6 826.25 1059.05 815.3 1058.35 802.25 1057.55 795.4 1056.8 784.4 1055.6 775.75 1053.4 760.4 1049.45 746.85 1041.15 749.2 1040.4 764.5 1036.45 775.25 1033.7 781.65 1030.6
M 893.2 1226.8
Q 897.95 1221.35 900.85 1219.2 903.45 1217.3 907.2 1215.75 909.4 1214.8 914 1213.3 921.1 1210.9 925.25 1209.85 930.7990234375 1208.38515625 935.55 1207.95 932.212109375 1227.151171875 936.6 1251.5 940.7 1274.1 949.3 1292.35 951.145703125 1296.26953125 953.2 1300.05 952.8697265625 1300.09375 952.5 1300.15 949.9 1300.7 948.6 1300.9 940.3 1302.35 930.25 1300.9 922.8 1299.8 912.2 1296.6 906.7 1294.95 903.45 1293.65 898.75 1291.75 895.4 1289.3 890.1 1285.45 885.7 1278.6 882.9 1274.25 878.8 1265.55 877.55 1262.9 877.05 1261.55 876.15 1259.3 876 1257.35 875.7 1253.15 878.2 1247.75 880.65 1242.55 884.95 1236.8 887.65 1233.15 893.2 1226.8
M 860.5 1250.15
Q 860.15 1252.514453125 860.15 1255 860.15 1258.8486328125 861.1 1262.95 858.6654296875 1262.962109375 854.2 1263.6
L 794.5 1272.45
Q 787.05 1273.55 783.3 1273.9 777.05 1274.45 772 1274.05 766.9 1273.6 764.5 1273.95 763.9083984375 1274.029296875 763.35 1274.15 761.7697265625 1273.391796875 759.65 1273.55 756.5 1273.8 753.95 1275.8 751.9 1277.45 750.05 1280.4 749.9 1280.65 747.05 1285.7 737.8 1302.55 722 1313.45 724.15 1301.45 725.9 1289.7 726.55 1285.55 726.6 1283.25 726.65 1279.6 725.7 1276.9 724.55 1273.65 721.5 1270.55 719.5 1268.6 715.45 1265.55 681.45 1240.2 644.95 1217.45 661.7 1212.7 679.2 1218.3 696.7 1223.85 707.6 1237.45 710.05 1240.45 710.15 1240.6 711.65 1242.3 713.05 1243.25 714.8 1244.45 716.8 1244.65 718.95 1244.9 720.55 1243.85 724.6 1241.1 722.35 1232.7 714.8 1203.15 702.6 1175.55 720.4 1182.55 733.1 1197.9 745.85 1213.2 749.5 1232 750.35 1236.35 750.85 1237.8 751.85 1240.95 753.8 1242.65 756 1244.65 759.8 1245.1 762.15 1245.35 766.65 1245 812.3 1241.15 857.25 1249.75 859.0595703125 1250.1150390625 860.5 1250.15
M 904.7 1380.7
Q 913 1383.9 917.25 1385.8 924.05 1388.9 929.15 1392.15 931.55 1393.7 936.3 1396.95 940.55 1399.6 944.05 1400.6 947.75 1401.65 953.55 1401.45 961.35 1401.2 970.85 1399.25 976.9 1398 987.85 1395.05
L 1049.05 1378.7
Q 1052.15 1377.85 1053.75 1377.25 1056.3 1376.3 1058.05 1375 1059.1 1374.25 1061.05 1372.3 1062.9 1370.4 1064.05 1369.6 1068.2 1366.7 1076.25 1366.95 1087.45 1367.35 1089.6 1367 1083.1 1373.55 1072.95 1378.95 1066.35 1382.4 1053.95 1387.3 1032.65 1395.7 1009.7 1404 1001.95 1406.8 997.5 1408.2 990.75 1410.35 985.15 1411.6 977.85 1413.2 967.55 1414.25 955.7 1415.3 949.75 1415.85 946.1 1416.2 944 1416.85 940.9 1417.85 939.4 1419.95 938.4 1421.3 937.85 1423.5 937.7 1424.25 937.2 1427.4 935.45 1438.45 927.95 1446.6 920 1455.3 909.75 1455.7
L 913.55 1436.2
Q 914.25 1432.65 914.35 1430.8 914.5 1427.8 913.55 1425.6 912.35 1422.75 909.1 1420.6 907.05 1419.2 902.85 1417.35
L 866.25 1401.85
Q 881.35 1402.1 895.7 1407.35 899.3 1408.7 900.15 1408.95 902.75 1409.8 904.75 1409.95 907.3 1410.1 909.45 1409.3 911.85 1408.4 913.15 1406.55 914.45 1404.65 914.35 1402.05 914.25 1399.65 913 1397.4 912 1395.55 910.15 1393.6 909 1392.4 906.6 1390.35
L 887.8 1374.15 904.7 1380.7
M 924.5 1246.5
Q 923.4 1244.6 921.5 1243.3 919.6 1242 917.45 1241.75
L 917.45 1242.3
Q 915.9 1242 914.4 1242.85 912.9 1243.7 912.35 1245.2 912 1246.15 912 1248.25 911.9 1249.35 912.15 1250.1 912.45 1250.95 913.35 1251.8 913.85 1252.3 914.9 1253.2 915.2 1253.5 915.75 1254.1 916.25 1254.65 916.65 1254.9 917.55 1255.45 919.4 1255.5 921.6 1255.6 922.3 1255.8 922.2 1255.2 923.3 1254.55 925.25 1253.3 925.5 1250.8 925.7 1248.6 924.5 1246.5
M 939.95 1132.9
Q 939.85 1132.35 939.65 1131.9 938.95 1130.5 937.6 1129.6 936.25 1128.65 934.7 1128.5
L 934.7 1129.05
Q 933.7 1128.6 932.5 1129.25 931.75 1129.65 930.8 1130.7 930.15 1131.35 930 1131.75 929.75 1132.4 929.75 1133.25 929.85 1135.4 930.65 1137.35 931.4 1138.95 932.3 1139.5 933.05 1139.95 934.5 1140.05 936.35 1140.15 936.85 1140.3 937.05 1139.6 937.95 1138.75 938.9 1137.75 939.15 1137.25 939.4 1136.7 939.5 1135.8 939.6 1134.5 939.65 1134.3 939.95 1133.35 939.95 1132.9
M 1088 1310.85
L 1088 1311.45
Q 1085.3 1311.65 1084.25 1312.4 1082.4 1313.75 1082.5 1316.65 1082.5 1320 1084.6 1322.15 1085.2 1322.85 1085.9 1323.05 1086.25 1323.2 1087.4 1323.3 1089.6 1323.4 1090.6 1322.9 1092.05 1322.25 1093.25 1319.55 1094.1 1317.55 1094 1316.2 1093.85 1314.2 1091.9 1312.6 1090.45 1311.45 1088 1310.85
M 1003.8 1199.15
L 1003.8 1199.75
Q 1002.15 1199.3 1000.6 1200.35 999.05 1201.35 998.55 1203.05 997.6 1206.3 1000.1 1209.5 1001 1210.6 1001.85 1210.9 1002.25 1211.1 1003.15 1211.2
L 1004.9 1211.45
Q 1005.55 1211.55 1005.9 1211.4 1006.25 1211.3 1006.8 1210.65 1007.3 1210.15 1008.85 1209.15 1010.25 1208.3 1010.8 1207.55 1011.85 1206.25 1011.65 1204.35 1011.45 1202.55 1010.2 1201.25 1007.85 1198.9 1003.8 1199.15
M 1223.95 1300.65
Q 1221.85 1300 1219.55 1302.2 1218.45 1303.2 1218.2 1304.1 1218.1 1304.35 1218 1305.7
L 1218 1308.5
Q 1218 1309.6 1218.2 1310.1 1218.4 1310.85 1219.5 1311.85 1220.45 1312.9 1221.2 1313.3 1222.15 1313.8 1223.85 1313.85 1226 1313.95 1226.65 1314.1 1226.55 1313.6 1227.45 1312.95 1229.9 1311.2 1230.4 1308.65 1230.75 1306.95 1230.15 1304.9 1229.8 1303.75 1229.2 1302.85 1227.9 1301.1 1223.95 1300.1
L 1223.95 1300.65
M 878.45 980.35
Q 877.8 981.6 878.25 983.2 878.7 984.7 879.85 985.7 880.55 986.3 881.05 986.4
L 883 986.55
Q 885 986.65 885.95 986.1 887.2 985.35 887.9 982.9 888.2 982.1 888.1 981.6 888.05 981.25 887.2 980.05 886.65 979.1 886.25 978.7 885.8 978.25 884.65 977.95 883.3 977.6 882.9 977.35
L 882.9 977.9
Q 879.55 978.2 878.45 980.35
M 1144.1 1125.25
L 1144.1 1125.8
Q 1141.2 1126 1140.05 1127 1138.7 1128.2 1138.6 1131.45 1138.5 1133.9 1139.1 1135.3 1139.6 1136.5 1140.65 1137.35 1141.75 1138.2 1143.05 1138.4 1144.3 1138.65 1145.65 1138.3 1146.9 1137.9 1147.9 1137 1150 1135.05 1150.1 1131.45 1150.1 1130.15 1149.8 1129.3 1149.45 1128.3 1148.45 1127.35 1146.6 1125.55 1144.1 1125.25
M 1233.15 1014.6
Q 1232.55 1013.95 1232.25 1013.65 1231.7 1013.05 1231.15 1012.9
L 1230.35 1013 1229.3 1013.3
Q 1229 1013.4 1228.9 1013.55
L 1228.7 1013.95 1228.3 1015.2
Q 1228.05 1017.05 1229.35 1018.35
L 1232.05 1017.8 1233.15 1014.6
M 1057.75 985.45
Q 1055.7 985.2 1054.05 986.3 1052.1 987.6 1051.8 989.95 1051.3 993.35 1055.1 996.95 1056.1 997.85 1056.85 998.2 1057.8 998.65 1059.65 998.7 1061.8 998.75 1062.55 998.95 1062.65 998.35 1063.55 997.65 1066.45 995.25 1066.4 992.95 1066.35 991.4 1065.2 989.85 1062.35 985.9 1057.75 984.9
L 1057.75 985.45
M 1084.3 837.5
Q 1080 826.65 1071.95 818.6 1066.85 813.5 1062.8 814.9 1061.45 820.9 1063.7 828.7 1064.35 830.95 1068.75 842.2 1071.85 850 1072.1 856.3 1072.45 864.25 1068.3 869.25 1065.2 873 1058.7 875.6 1050.85 878.85 1038.3 880.85 1012.4 884.95 986.05 881.85 959.7 878.8 935.4 868.9 930.5 866.9 927.65 865.05 923.65 862.45 921.8 859.05 919.8 855.4 920.1 850.7 920.4 846.45 922.5 842.3 924.25 838.85 927.45 835.15 929.4 832.9 933.5 828.9
L 949.9 812.9
Q 951.85 810.95 952.6 809.1 953.6 806.7 952.25 805.15 950.2 802.8 945.3 805.35 934.15 811.1 925.2 820.2 916.25 829.2 910.6 840.4 908.4 844.7 907.7 847.7 906.1 854.2 908.5 861.25 910.75 867.8 915.75 873 916.4138671875 873.7015625 917.1 874.35 916.7828125 875.470703125 916.4 876.9 913.65 887.15 913.4 892.8 912.8 903.95 918.9 917.85 920.95 922.65 923.25 924.75 924.55 926 926.55 927 927.7 927.6 930.25 928.6 934.25 930.15 935.7 928.4 936.5 927.5 936.3 925.4 936 922.9 934.45 919.7 932.55 916.15 931.65 914.3 930.45 911.8 928.65 906.5 927.5 903.1 927.05 901.4 926.3 898.5 926.15 896.15 925.95 892.1 927.7 885.25 928.1029296875 883.6482421875 928.4 882.25 933.0982421875 884.700390625 939.35 887.05 964.15 896.3 995.35 898.6 1015.5 900.1 1032.2 898.1 1049.7064453125 896.045703125 1064.15 890.15 1064.1943359375 890.326953125 1064.25 890.5 1066.4 897.1 1066.15 904.15 1065.85 911.2 1063.25 917.6 1062 920.65 1061.8 921.35 1061.1 923.55 1061.3 925.25 1061.55 927.3 1063.35 928.65 1065.15 930 1066.85 929.15 1068.55 927.85 1070.1 925.75 1071.2 924.35 1072.75 921.8 1074.9 918.35 1075.6 916.25 1076.35 913.75 1076.25 908.9
L 1075.9 896.9
Q 1075.8 894.15 1075.55 892.7 1075.15 890.35 1074.15 888.75 1073.7 888 1072.25 886.35
L 1072.25 886.3
Q 1078.84921875 882.6296875 1082.2 878.3 1087.6 871.35 1088.05 859.75 1088.55 848.4 1084.3 837.5
M 1211 917
L 1211 917.5
Q 1210 917.05 1208.75 917.7 1208 918.15 1207.05 919.2 1206.55 919.7 1206.3 920.15 1206.05 920.8 1206.15 921.85 1206.15 924.7 1206.35 925.45 1206.75 926.8 1207.8 927.8 1208.9 928.85 1210.3 929.1 1211.7 929.35 1213.1 928.8 1214.5 928.3 1215.35 927.15 1216.4 925.65 1216.5 923.6 1216.6 921.2 1215.45 919.55 1213.85 917.15 1211 917
M 890.45 788.95
L 890.45 789.6
Q 888.6 789.05 886.55 790.75 884.85 792.1 884.6 793.7 884.2 795.65 885.75 797.3 886.85 798.6 889.05 799.4 890.6 799.85 891.6 799.85 893.4 799.8 894.9 798.5 896.4 797.2 896.8 795.4 897.3 793.3 896.25 791.65 894.9 789.55 890.45 788.95
M 1323.7 1186.7
Q 1323.05 1185.65 1321.65 1184.95 1320.8 1184.55 1318.95 1184.05
L 1318.95 1184.6
Q 1317.55 1184.3 1316.15 1185.1 1314.8 1185.85 1314.3 1187.25 1314 1188.1 1314 1190 1314 1192.05 1314.3 1193.05 1314.7 1194.55 1316 1195.65 1317.3 1196.7 1318.9 1196.85 1320.5 1196.95 1321.9 1196.1 1323.35 1195.2 1323.95 1193.75 1324.5 1192.45 1324.4 1189.95 1324.3 1187.65 1323.7 1186.7 Z"/>

<path fill="#FFCC66" stroke="none" d="
M 917.25 1385.8
Q 913 1383.9 904.7 1380.7
L 887.8 1374.15 906.6 1390.35
Q 909 1392.4 910.15 1393.6 912 1395.55 913 1397.4 914.25 1399.65 914.35 1402.05 914.45 1404.65 913.15 1406.55 911.85 1408.4 909.45 1409.3 907.3 1410.1 904.75 1409.95 902.75 1409.8 900.15 1408.95 899.3 1408.7 895.7 1407.35 881.35 1402.1 866.25 1401.85
L 902.85 1417.35
Q 907.05 1419.2 909.1 1420.6 912.35 1422.75 913.55 1425.6 914.5 1427.8 914.35 1430.8 914.25 1432.65 913.55 1436.2
L 909.75 1455.7
Q 920 1455.3 927.95 1446.6 935.45 1438.45 937.2 1427.4 937.7 1424.25 937.85 1423.5 938.4 1421.3 939.4 1419.95 940.9 1417.85 944 1416.85 946.1 1416.2 949.75 1415.85 955.7 1415.3 967.55 1414.25 977.85 1413.2 985.15 1411.6 990.75 1410.35 997.5 1408.2 1001.95 1406.8 1009.7 1404 1032.65 1395.7 1053.95 1387.3 1066.35 1382.4 1072.95 1378.95 1083.1 1373.55 1089.6 1367 1087.45 1367.35 1076.25 1366.95 1068.2 1366.7 1064.05 1369.6 1062.9 1370.4 1061.05 1372.3 1059.1 1374.25 1058.05 1375 1056.3 1376.3 1053.75 1377.25 1052.15 1377.85 1049.05 1378.7
L 987.85 1395.05
Q 976.9 1398 970.85 1399.25 961.35 1401.2 953.55 1401.45 947.75 1401.65 944.05 1400.6 940.55 1399.6 936.3 1396.95 931.55 1393.7 929.15 1392.15 924.05 1388.9 917.25 1385.8
M 860.15 1255
Q 860.15 1252.514453125 860.5 1250.15 859.0595703125 1250.1150390625 857.25 1249.75 812.3 1241.15 766.65 1245 762.15 1245.35 759.8 1245.1 756 1244.65 753.8 1242.65 751.85 1240.95 750.85 1237.8 750.35 1236.35 749.5 1232 745.85 1213.2 733.1 1197.9 720.4 1182.55 702.6 1175.55 714.8 1203.15 722.35 1232.7 724.6 1241.1 720.55 1243.85 718.95 1244.9 716.8 1244.65 714.8 1244.45 713.05 1243.25 711.65 1242.3 710.15 1240.6 710.05 1240.45 707.6 1237.45 696.7 1223.85 679.2 1218.3 661.7 1212.7 644.95 1217.45 681.45 1240.2 715.45 1265.55 719.5 1268.6 721.5 1270.55 724.55 1273.65 725.7 1276.9 726.65 1279.6 726.6 1283.25 726.55 1285.55 725.9 1289.7 724.15 1301.45 722 1313.45 737.8 1302.55 747.05 1285.7 749.9 1280.65 750.05 1280.4 751.9 1277.45 753.95 1275.8 756.5 1273.8 759.65 1273.55 761.7697265625 1273.391796875 763.35 1274.15 763.9083984375 1274.029296875 764.5 1273.95 766.9 1273.6 772 1274.05 777.05 1274.45 783.3 1273.9 787.05 1273.55 794.5 1272.45
L 854.2 1263.6
Q 858.6654296875 1262.962109375 861.1 1262.95 860.15 1258.8486328125 860.15 1255
M 791.55 1024.7
Q 786.4 1028.3 781.65 1030.6 775.25 1033.7 764.5 1036.45 749.2 1040.4 746.85 1041.15 760.4 1049.45 775.75 1053.4 784.4 1055.6 795.4 1056.8 802.25 1057.55 815.3 1058.35 826.25 1059.05 831.75 1058.6 840.8 1057.95 851.5 1054.3 857.0375 1052.4123046875 866.6 1048.3 849.95546875 1033.79921875 836.45 1014.3 828.80859375 1003.2263671875 822.75 991.4 821.310546875 994.476171875 819.45 997.4 816.05 1002.8 810.85 1008.2 806.7 1012.5 800.6 1017.6 795.45 1021.9 791.55 1024.7
M 667.35 970.2
Q 671.9 966.25 678.35 962.75 682.9 960.25 690.45 957.05 706.3 950.25 719.15 946.2 734.85 941.2 749 939.25 764.9 937.05 779.65 938.6 793.6029296875 940.0388671875 805.7 944.75 804.596875 940.0705078125 803.7 935.3 800.5609375 918.4205078125 800.05 901.6 798.911328125 901.575390625 797.5 901.3 796.65 901.15 793.95 900.45 773.5 895.3 752.1 897.95 730.7 900.55 712.1 910.45 692.75 920.8 681.9 935.9 677.55 941.95 673.75 950.1 670.9 956.05 667.5 965.3 666.25 968.65 667.35 970.2 Z"/>

<path fill="#B88F65" stroke="none" d="
M 900.85 1219.2
Q 897.95 1221.35 893.2 1226.8 887.65 1233.15 884.95 1236.8 880.65 1242.55 878.2 1247.75 875.7 1253.15 876 1257.35 876.15 1259.3 877.05 1261.55 877.55 1262.9 878.8 1265.55 882.9 1274.25 885.7 1278.6 890.1 1285.45 895.4 1289.3 898.75 1291.75 903.45 1293.65 906.7 1294.95 912.2 1296.6 922.8 1299.8 930.25 1300.9 940.3 1302.35 948.6 1300.9 949.9 1300.7 952.5 1300.15 952.8697265625 1300.09375 953.2 1300.05 951.145703125 1296.26953125 949.3 1292.35 940.7 1274.1 936.6 1251.5 932.212109375 1227.151171875 935.55 1207.95 930.7990234375 1208.38515625 925.25 1209.85 921.1 1210.9 914 1213.3 909.4 1214.8 907.2 1215.75 903.45 1217.3 900.85 1219.2
M 921.5 1243.3
Q 923.4 1244.6 924.5 1246.5 925.7 1248.6 925.5 1250.8 925.25 1253.3 923.3 1254.55 922.2 1255.2 922.3 1255.8 921.6 1255.6 919.4 1255.5 917.55 1255.45 916.65 1254.9 916.25 1254.65 915.75 1254.1 915.2 1253.5 914.9 1253.2 913.85 1252.3 913.35 1251.8 912.45 1250.95 912.15 1250.1 911.9 1249.35 912 1248.25 912 1246.15 912.35 1245.2 912.9 1243.7 914.4 1242.85 915.9 1242 917.45 1242.3
L 917.45 1241.75
Q 919.6 1242 921.5 1243.3
M 979.3 1121.65
Q 977.8138671875 1121.4357421875 976.1 1121.15 969.65 1120.05 967.1 1119.85 962.4 1119.5 956.6 1120.1 952.9 1120.5 946.15 1121.65
L 938.85 1122.85
Q 933.65 1123.75 931.1 1124.3 926.8 1125.3 921.05 1127.4 910.9 1131.15 905.5 1135.95 902 1139.05 899.9 1142.9 897.65 1147.05 897.45 1151.35 897.25 1156.45 899.95 1161.7 902.3 1166.2 906.55 1170.35 911.7 1175.4 919.85 1180.3 921.15 1181.05 934.5 1188.4 937.82421875 1190.2322265625 939.85 1192.15 940.3556640625 1190.7841796875 940.9 1189.35 942.45 1185.25 945.9 1177.15 950.15 1167.3 952.25 1162.65 955.95 1154.6 959.45 1148.5 967.6064453125 1134.226171875 979.3 1121.65
M 939.65 1131.9
Q 939.85 1132.35 939.95 1132.9 939.95 1133.35 939.65 1134.3 939.6 1134.5 939.5 1135.8 939.4 1136.7 939.15 1137.25 938.9 1137.75 937.95 1138.75 937.05 1139.6 936.85 1140.3 936.35 1140.15 934.5 1140.05 933.05 1139.95 932.3 1139.5 931.4 1138.95 930.65 1137.35 929.85 1135.4 929.75 1133.25 929.75 1132.4 930 1131.75 930.15 1131.35 930.8 1130.7 931.75 1129.65 932.5 1129.25 933.7 1128.6 934.7 1129.05
L 934.7 1128.5
Q 936.25 1128.65 937.6 1129.6 938.95 1130.5 939.65 1131.9
M 1316.7 1160.4
Q 1308.6 1158.25 1304.6 1157.1 1297.5 1155.1 1293.35 1152.15 1290.05 1149.85 1288.65 1146.35 1287.1 1142.5 1289.15 1139.75 1292.1 1135.9 1300.65 1137.6 1314.794140625 1140.3591796875 1325.9 1144.65 1323.8486328125 1127.6578125 1315.85 1112 1307.55 1095.9 1294.4 1084 1292.5197265625 1082.33203125 1291.45 1081.35 1290.2064453125 1082.1931640625 1288.75 1082.65 1286 1083.5 1283.65 1082.5 1281.5 1081.6 1280.15 1079.35 1278.95 1077.25 1278.75 1074.7 1278.6 1072.55 1279.15 1069.9 1279.45 1068.3 1280.4 1065.2 1288.7 1038.3 1291.1 1025.55 1295.35 1003.05 1291.95 985.4 1290.45 977.7 1287.05 968.3 1279.8 948.3 1267.9 930.45 1256 912.6 1240.35 898.15 1226.15 885 1211.45 878.4 1194.1 870.55 1178.05 872.8 1177.37890625 872.9001953125 1176.8 872.95 1176.604296875 875.59140625 1176.1 877.15 1175.3 879.65 1173.5 880.75 1171.4 882.05 1168.7 881.15 1166.2 880.25 1164.65 878.05 1163.4 876.2 1162.75 873.4 1162.35 871.8 1161.95 868.3 1159.8 850.2 1155.6 835.65 1150.65 818.6 1142.6 805.25 1132 787.65 1114.25 773.35 1098.2 760.45 1077.35 751.05 1043.65 735.8 1006.1 732.8 968.5 729.8 932.85 739.55 903.85 747.4 884.15 762 857.5 781.65 838.3 821.15 824.6 849.55 821.1 874.25 817.25 901.55 824.05 933.2 831.7 968.95 850.4 998.15 870.45 1029.4 899.4 1047 931.75 1066.7 972.05 1067.55 1011.45 1068.4 1046.35 1051.15 1080.15 1034.45 1105.35 1003.35 1129.7 973.25 1141.05 935.9 1146.05 919.55 1154.85 920.55 1158.05 920.9 1160.4 923.65 1162.65 926.25 1163.25 929.7 1163.7 932.65 1163.1 936.3 1162.65 938.7 1161.4 942.8 1153.8962890625 966.4294921875 1141.7 987.4 1142.248828125 988.547265625 1142.75 989.75 1144.25 993.25 1145.9 998.75 1152 1019.2 1151.75 1034.3 1151.65 1043.75 1149.2 1052.2 1148.5634765625 1054.3859375 1147.75 1056.45 1147.8517578125 1056.672265625 1147.9 1056.9 1148.65 1060.35 1144.9 1062.95 1144.8578125 1062.9794921875 1144.8 1063 1143.292578125 1065.8349609375 1141.45 1068.4 1139.1044921875 1068.008984375 1137.6 1065.85 1137.420703125 1065.9169921875 1137.25 1065.95 1108.4 1071.35 1089.65 1076.5 1063.9 1083.55 1044 1093.1 1020.8 1104.25 1003.3 1119.9 984.1 1137.05 973.7 1157.95 969.95 1165.55 966.5 1175.55 964.35 1181.7 960.75 1193.75 958.25 1202 957.15 1206.35 955.4 1213.45 954.95 1219.25 954.15 1228.1 956.05 1241.15 960.4 1270.65 973.5 1293.75 988.3 1319.7 1011.35 1331.9 1018.55 1335.65 1018.75 1335.8 1019.1998046875 1336.06015625 1019.6 1336.3 1019.5447265625 1335.9697265625 1019.45 1335.65 1019.25 1335.05 1018.7 1333.6 1018.2 1332.3 1018 1331.5 1017.7 1330.2 1017.75 1328.25 1017.9 1326.1 1017.9 1325 1017.95 1324.2 1017.75 1320.2 1017.6 1317.25 1017.95 1315.45 1018.25 1313.9 1019.05 1311.8 1020.1 1309.5 1020.55 1308.3 1021.45 1306.05 1024.2 1295.8 1026.3 1288.05 1029.15 1283.95 1030.25 1282.4 1032.05 1280.45 1034.2 1278.25 1035.2 1277.1 1038.75 1273.1 1040.7 1271.2 1044.55 1267.4 1050.3 1264 1056.8 1260.1 1061.65 1259.85 1064.85 1259.7 1067.6 1261.05 1070.6 1262.45 1071.9 1265.1 1069.65 1268.25 1064.1 1270.6 1055.95 1274.05 1054.95 1274.65 1052.3 1276.3 1047.9 1280.6 1044.65 1283.85 1043.25 1285.4 1040.8 1288.15 1039.25 1290.65 1037.65 1293.3 1036.3 1296.95 1035.5 1299.1 1034.15 1303.6
L 1030.5 1315.7
Q 1029.7 1318.6 1029.4 1319.95 1028.95 1322.4 1029.2 1324.3 1029.4 1325.65 1030.35 1328.45 1031.3 1331.15 1031.45 1332.6 1031.5 1333.5 1031.4 1335.65 1031.25 1337.6 1031.4 1338.7 1031.55 1340.15 1032.65 1343.05
L 1036.65 1353.45
Q 1038.1 1357.05 1039.35 1358.35 1039.65 1358.7 1041.25 1360 1042.45 1360.95 1042.95 1361.8 1043.1513671875 1362.1111328125 1043.3 1362.45 1057.954296875 1357.425 1061.15 1356.55 1077.35 1352 1090.1 1352.8 1099.6 1353.4 1103.4 1358.05 1106.05 1361.35 1105.75 1366.15 1105.45 1370.6 1102.8 1374.45 1100.55 1377.7 1096.65 1380.55 1093.95 1382.5 1089.1 1385.2 1084.249609375 1387.9111328125 1079.4 1390.45 1088.1505859375 1394.6107421875 1094.65 1396.35 1104.15 1398.9 1114.2 1398.25 1124.2 1397.6 1133.3 1393.85 1142.45 1390.05 1150 1383.45 1157.55 1376.85 1162.5 1368.3 1165.9 1362.4 1168.6 1354.6 1173.9 1339.4 1174.7 1323.7 1174.95 1319.05 1175.35 1317.1 1176.1 1313.5 1178.05 1311.35 1179.8 1309.4 1181.65 1309.75 1183.3 1310.1 1184.6 1312.6 1188.35 1319.7 1188 1330.1 1187.8 1336.7 1186.05 1344.35 1184.7 1350.15 1182.05 1358.2 1179.95 1364.65 1178.15 1368.85 1177.456640625 1370.4169921875 1176.7 1371.85 1191.772265625 1370.0109375 1207 1364.1 1224.95 1357.15 1241.95 1345.1 1261.35 1331.35 1275.7 1313.8 1290.9 1295.2 1298.75 1274.25 1299.5521484375 1271.991796875 1300.1 1270.6 1294.59765625 1269.42421875 1289.7 1267.75 1269.8 1261.05 1252.15 1244.45 1231.7 1225.3 1220.55 1199.3 1219.15 1195.95 1218.7 1193.9 1218 1190.85 1218.55 1188.35 1219.2 1185.5 1221.75 1183.75 1224.35 1181.9 1226.9 1182.9 1228.8 1183.65 1230.15 1185.95 1230.65 1186.85 1232.1 1190.35 1233.85 1194.55 1238.25 1201.15 1266.5 1242.7 1301.05 1252.15 1309.85 1254.55 1320.8 1255.2 1341.15 1256.35 1354.1 1249.85 1362.05 1245.9 1367.3 1239.1 1372.9 1231.85 1373.55 1223.6 1374.4 1213.5 1367.85 1202.85 1365.25 1198.65 1361.35 1194.15 1358.5 1190.9 1353.75 1186.2 1343.95 1176.55 1336.6 1171.1 1326.55 1163.65 1316.7 1160.4
M 1321.65 1184.95
Q 1323.05 1185.65 1323.7 1186.7 1324.3 1187.65 1324.4 1189.95 1324.5 1192.45 1323.95 1193.75 1323.35 1195.2 1321.9 1196.1 1320.5 1196.95 1318.9 1196.85 1317.3 1196.7 1316 1195.65 1314.7 1194.55 1314.3 1193.05 1314 1192.05 1314 1190 1314 1188.1 1314.3 1187.25 1314.8 1185.85 1316.15 1185.1 1317.55 1184.3 1318.95 1184.6
L 1318.95 1184.05
Q 1320.8 1184.55 1321.65 1184.95
M 890.45 789.6
L 890.45 788.95
Q 894.9 789.55 896.25 791.65 897.3 793.3 896.8 795.4 896.4 797.2 894.9 798.5 893.4 799.8 891.6 799.85 890.6 799.85 889.05 799.4 886.85 798.6 885.75 797.3 884.2 795.65 884.6 793.7 884.85 792.1 886.55 790.75 888.6 789.05 890.45 789.6
M 1211 917.5
L 1211 917
Q 1213.85 917.15 1215.45 919.55 1216.6 921.2 1216.5 923.6 1216.4 925.65 1215.35 927.15 1214.5 928.3 1213.1 928.8 1211.7 929.35 1210.3 929.1 1208.9 928.85 1207.8 927.8 1206.75 926.8 1206.35 925.45 1206.15 924.7 1206.15 921.85 1206.05 920.8 1206.3 920.15 1206.55 919.7 1207.05 919.2 1208 918.15 1208.75 917.7 1210 917.05 1211 917.5
M 1071.95 818.6
Q 1080 826.65 1084.3 837.5 1088.55 848.4 1088.05 859.75 1087.6 871.35 1082.2 878.3 1078.84921875 882.6296875 1072.25 886.3
L 1072.25 886.35
Q 1073.7 888 1074.15 888.75 1075.15 890.35 1075.55 892.7 1075.8 894.15 1075.9 896.9
L 1076.25 908.9
Q 1076.35 913.75 1075.6 916.25 1074.9 918.35 1072.75 921.8 1071.2 924.35 1070.1 925.75 1068.55 927.85 1066.85 929.15 1065.15 930 1063.35 928.65 1061.55 927.3 1061.3 925.25 1061.1 923.55 1061.8 921.35 1062 920.65 1063.25 917.6 1065.85 911.2 1066.15 904.15 1066.4 897.1 1064.25 890.5 1064.1943359375 890.326953125 1064.15 890.15 1049.7064453125 896.045703125 1032.2 898.1 1015.5 900.1 995.35 898.6 964.15 896.3 939.35 887.05 933.0982421875 884.700390625 928.4 882.25 928.1029296875 883.6482421875 927.7 885.25 925.95 892.1 926.15 896.15 926.3 898.5 927.05 901.4 927.5 903.1 928.65 906.5 930.45 911.8 931.65 914.3 932.55 916.15 934.45 919.7 936 922.9 936.3 925.4 936.5 927.5 935.7 928.4 934.25 930.15 930.25 928.6 927.7 927.6 926.55 927 924.55 926 923.25 924.75 920.95 922.65 918.9 917.85 912.8 903.95 913.4 892.8 913.65 887.15 916.4 876.9 916.7828125 875.470703125 917.1 874.35 916.4138671875 873.7015625 915.75 873 910.75 867.8 908.5 861.25 906.1 854.2 907.7 847.7 908.4 844.7 910.6 840.4 916.25 829.2 925.2 820.2 934.15 811.1 945.3 805.35 950.2 802.8 952.25 805.15 953.6 806.7 952.6 809.1 951.85 810.95 949.9 812.9
L 933.5 828.9
Q 929.4 832.9 927.45 835.15 924.25 838.85 922.5 842.3 920.4 846.45 920.1 850.7 919.8 855.4 921.8 859.05 923.65 862.45 927.65 865.05 930.5 866.9 935.4 868.9 959.7 878.8 986.05 881.85 1012.4 884.95 1038.3 880.85 1050.85 878.85 1058.7 875.6 1065.2 873 1068.3 869.25 1072.45 864.25 1072.1 856.3 1071.85 850 1068.75 842.2 1064.35 830.95 1063.7 828.7 1061.45 820.9 1062.8 814.9 1066.85 813.5 1071.95 818.6
M 1054.05 986.3
Q 1055.7 985.2 1057.75 985.45
L 1057.75 984.9
Q 1062.35 985.9 1065.2 989.85 1066.35 991.4 1066.4 992.95 1066.45 995.25 1063.55 997.65 1062.65 998.35 1062.55 998.95 1061.8 998.75 1059.65 998.7 1057.8 998.65 1056.85 998.2 1056.1 997.85 1055.1 996.95 1051.3 993.35 1051.8 989.95 1052.1 987.6 1054.05 986.3
M 1232.25 1013.65
Q 1232.55 1013.95 1233.15 1014.6
L 1232.05 1017.8 1229.35 1018.35
Q 1228.05 1017.05 1228.3 1015.2
L 1228.7 1013.95 1228.9 1013.55
Q 1229 1013.4 1229.3 1013.3
L 1230.35 1013 1231.15 1012.9
Q 1231.7 1013.05 1232.25 1013.65
M 1144.1 1125.8
L 1144.1 1125.25
Q 1146.6 1125.55 1148.45 1127.35 1149.45 1128.3 1149.8 1129.3 1150.1 1130.15 1150.1 1131.45 1150 1135.05 1147.9 1137 1146.9 1137.9 1145.65 1138.3 1144.3 1138.65 1143.05 1138.4 1141.75 1138.2 1140.65 1137.35 1139.6 1136.5 1139.1 1135.3 1138.5 1133.9 1138.6 1131.45 1138.7 1128.2 1140.05 1127 1141.2 1126 1144.1 1125.8
M 878.25 983.2
Q 877.8 981.6 878.45 980.35 879.55 978.2 882.9 977.9
L 882.9 977.35
Q 883.3 977.6 884.65 977.95 885.8 978.25 886.25 978.7 886.65 979.1 887.2 980.05 888.05 981.25 888.1 981.6 888.2 982.1 887.9 982.9 887.2 985.35 885.95 986.1 885 986.65 883 986.55
L 881.05 986.4
Q 880.55 986.3 879.85 985.7 878.7 984.7 878.25 983.2
M 1219.55 1302.2
Q 1221.85 1300 1223.95 1300.65
L 1223.95 1300.1
Q 1227.9 1301.1 1229.2 1302.85 1229.8 1303.75 1230.15 1304.9 1230.75 1306.95 1230.4 1308.65 1229.9 1311.2 1227.45 1312.95 1226.55 1313.6 1226.65 1314.1 1226 1313.95 1223.85 1313.85 1222.15 1313.8 1221.2 1313.3 1220.45 1312.9 1219.5 1311.85 1218.4 1310.85 1218.2 1310.1 1218 1309.6 1218 1308.5
L 1218 1305.7
Q 1218.1 1304.35 1218.2 1304.1 1218.45 1303.2 1219.55 1302.2
M 1003.8 1199.75
L 1003.8 1199.15
Q 1007.85 1198.9 1010.2 1201.25 1011.45 1202.55 1011.65 1204.35 1011.85 1206.25 1010.8 1207.55 1010.25 1208.3 1008.85 1209.15 1007.3 1210.15 1006.8 1210.65 1006.25 1211.3 1005.9 1211.4 1005.55 1211.55 1004.9 1211.45
L 1003.15 1211.2
Q 1002.25 1211.1 1001.85 1210.9 1001 1210.6 1000.1 1209.5 997.6 1206.3 998.55 1203.05 999.05 1201.35 1000.6 1200.35 1002.15 1199.3 1003.8 1199.75
M 1088 1311.45
L 1088 1310.85
Q 1090.45 1311.45 1091.9 1312.6 1093.85 1314.2 1094 1316.2 1094.1 1317.55 1093.25 1319.55 1092.05 1322.25 1090.6 1322.9 1089.6 1323.4 1087.4 1323.3 1086.25 1323.2 1085.9 1323.05 1085.2 1322.85 1084.6 1322.15 1082.5 1320 1082.5 1316.65 1082.4 1313.75 1084.25 1312.4 1085.3 1311.65 1088 1311.45 Z"/>
</g>

<g id="Layer18_0_FILL">
<path fill="#000000" fill-opacity="0.2" stroke="none" d="
M 819.75 1280.2
L 848.35 1279.1
Q 852.5 1278.95 854.6 1278.75 858 1278.4 860.65 1277.6 867.55 1275.6 870.45 1270.5 873.05 1266.1 871.8 1260.8 871.1 1257.95 869.35 1255.65 867.55 1253.3 865.05 1252.1 862.5 1250.9 859 1250.8 856.8 1250.75 852.6 1251.2 809.7 1256.1 765.85 1257.4 761.05 1257.5 758.55 1257.85 754.5 1258.35 751.6 1259.8 748.55 1261.3 745.65 1264.25 743.5 1266.45 740.85 1270.15 737.8 1274.4 731.9 1283.1 726.6 1290.6 721.9 1295.15 720.2 1296.8 716.7 1300.1 713.75 1303.05 712.5 1305.75 710.95 1309.1 711.3 1312.9 711.7 1316.75 713.9 1319.6 716.2 1322.5 719.9 1323.65 723.65 1324.75 727.05 1323.5 729.85 1322.45 733.25 1319.3 751.25 1303.3 762.55 1282.25 788.2 1281.45 819.75 1280.2
M 890.4 1141.9
Q 887.6 1145.05 887.55 1149.15 887.55 1152.7 889.4 1156.6 890.8 1159.55 893.65 1163.3 901.45 1173.65 910.7 1181 920.8 1189.05 931.9 1192.95 937.3 1194.85 940.8 1194.45 943.15 1194.2 945.1 1193 947.2 1191.75 948.15 1189.75 949.35 1187.15 948.3 1184.05 947.35 1181.2 945 1179.1 943.1 1177.4 940.05 1175.9 939.7 1175.75 934.6 1173.55 925.85 1169.8 919.3 1164.45 911.95 1158.45 907.95 1151 904.6 1144.7 903.65 1143.35 900.75 1139.4 897.1 1139 893.35 1138.55 890.4 1141.9
M 1077.9 837.25
Q 1075.3 835.35 1071.85 835.8 1068.4 836.25 1066.4 838.7 1063.75 841.9 1064.05 849.1 1064.45 857.75 1063.5 860.55 1061.65 865.85 1055.65 868.85 1051.6 870.95 1044.45 872.05 1034.55 873.75 1025.05 873.9 1015.85 873.95 1004.45 872.3 997.75 871.3 984.05 868.55 970.4 865.85 963 863.75 947.81484375 859.4173828125 934.95 852 934.9326171875 851.9779296875 934.9 851.95 931.35 848.95 930.5 846.2 930.2 845.15 930 841.75 929.85 838.95 929 837.5 927.85 835.55 925.3 835.05 922.85 834.5 920.75 835.6 916.75 837.5 915.35 842.85 914.8228515625 844.684375 914.65 846.6 914.401171875 846.8837890625 914.15 847.2 913 848.7 912.85 850.8 912.7 852.8 913.5 854.7 914.6 857.4 918.25 860.95 918.6603515625 861.3419921875 919.05 861.7 922.9287109375 867.49921875 930.45 873.05 929.6201171875 872.95 928.95 872.95 924.25 872.95 921.85 875.75 919.75 878.15 920.3 881.85 920.75 885.3 923.2 887.8 925.3 889.95 928.65 891.5 930.9 892.5 934.95 893.7 952.7 899.05 970.2 902.8 978.3 904.6 984.35 905.5 995.5 907.1 1009.6 907.35 1022.7 907.65 1030.85 906.4 1036.05 905.6 1045.75 903
L 1064 898.2
Q 1068.8 896.9 1071.45 895.4 1075.3 893.2 1076.35 889.85 1077.55 885.95 1074.65 882.15 1074.00234375 881.3173828125 1073.25 880.6 1079.353515625 875.9447265625 1080.95 869.8 1081.6 867.4 1081.65 863.75 1081.6 859.7 1081.7 857.65 1081.75 856.65 1082.15 852.2 1082.45 848.9 1082.35 846.8 1081.9 840.15 1077.9 837.25
M 1171.65 938.2
Q 1171.65 930.804296875 1170.1 925.6 1170.241015625 922.921875 1169.7 920.5 1168.35 914.45 1162.9 910.6 1157.45 906.75 1151.3 907.45 1144.45 908.25 1138.3 914.45 1134.4 918.4 1128.8 927.1 1113 951.75 1096.3 970.65 1077.25 992.2 1056.35 1007.15 1033.4 1023.55 1008.1 1031.95 981.05 1040.85 954.8 1039.45 934.85 1038.35 917.4 1031.4 890.1 1020.35 864.55 992 855.25 981.7 843.65 966.2 830.6 948.3 823.95 939.4 820.3 934.45 817.05 935.2 816.3400390625 935.3775390625 815.75 935.75 814.13515625 933.20859375 811.4 931.2 807.45 928.3 801.7 926.55 797.85 925.4 791 924.25 773.85 921.35 761.7 921.15 735.3 920.7 702.5 931.6 692.35 935 686.75 938.15 682.95 940.3 677.85 944.15 674.95 946.3 669.25 950.7 665.9 953.15 664.7 954.25 662.3 956.4 661.3 958.7 659.75 962.35 660.9 967.35 661.75 970.9 663.7 973.4 665.9 976.3 668.95 977 672.7 977.9 677.15 975.35 678.3 974.7 684.55 969.95 688.4 967.05 693.65 964.45 697.45 962.6 703.5 960.3 754.1 941.1 792.6 949.7 798.55 951.05 799.65 951.25 803.65 951.95 806.75 951.6 810.55 951.2 813.5 949.15 814.0361328125 948.7646484375 814.5 948.35 819.426171875 973.8470703125 834 997.75 847.624609375 1020.19609375 868 1038.45 867.19453125 1038.208984375 866.35 1038.05 863.3 1037.45 859.25 1038 857.65 1038.2 852.15 1039.3 830.25 1043.7 806.1 1041.7 783.85 1039.85 760.6 1032.65 756.9 1031.5 755.45 1031.2 752.55 1030.5 750.2 1030.6 747.35 1030.7 745 1031.95 742.45 1033.3 741.35 1035.6 740.4 1037.6 740.7 1040.1 741 1042.4 742.25 1044.5 744.15 1047.6 748.85 1050.95 763.6 1061.4 784.2 1065.9 800.3 1069.4 822.65 1069.5 838.15 1069.5 849.15 1067.8 856.9 1066.6 862.25 1064.45 869.1 1061.7 873.1 1057 876.45 1053.2 876.6 1049.3 876.710546875 1047.091015625 875.75 1045.1 898.605078125 1063.531640625 922.55 1071.65 945.15 1079.3 969.05 1078.25 977.95 1077.85 988.45 1076.05 996.25 1074.75 1007.65 1072.15 1020.55 1069.2 1029.35 1066.7 1041 1063.3 1050.35 1059.25 1074.3 1049 1098.75 1027.8 1117.009375 1011.91640625 1132.25 992.9 1133.9525390625 994.644921875 1136.6 995.75 1142.1 998.05 1147.55 996.2 1156.65 993.1 1162.85 980.8 1171.55 963.55 1171.65 938.2
M 1389.75 1234.3
Q 1389.75 1228.2 1386 1224.4 1383.05 1221.45 1378.3 1220.6 1374.1 1219.85 1369.4 1220.85 1366 1221.65 1361.05 1223.7 1353.4 1226.9 1352.9 1227.1 1338.7 1232.5 1321.95 1231.05 1306.6 1229.7 1291.35 1222.9 1278.25 1217.05 1264.25 1206.8 1254.15 1199.4 1239.75 1186.65 1237.15 1184.35 1235.65 1183.3 1233.25 1181.6 1231 1180.95 1228.3 1180.2 1225.7 1181.05 1222.9 1181.95 1221.8 1184.25 1220.6 1186.75 1221.9 1190.15 1222.8 1192.5 1225.25 1195.7
L 1235.05 1208.4
Q 1243.15 1218.85 1247.45 1223.3 1253.45 1229.45 1261.8 1235.6 1267.85 1240 1277.55 1246.1 1282.3544921875 1249.1333984375 1286.4 1251.4 1286.0470703125 1251.3970703125 1285.7 1251.4 1280.75 1251.45 1275.55 1255.15 1272.65 1257.2 1267.05 1262.8 1252.2 1277.6 1233.8 1288.15 1215.4 1298.75 1195.1 1304.05 1189 1305.6 1185.7 1307.55 1180.9 1310.35 1180.3 1314.65 1180.2 1315.5 1180.35 1318.7 1180.4240234375 1319.908203125 1180.3 1320.85 1178.50859375 1318.569140625 1175.95 1317.6 1170.95 1315.65 1164.75 1318.8 1162.65 1319.85 1159.85 1321.9 1158.25 1323 1155.1 1325.3 1147.65 1330.35 1138.4 1333 1129.65 1335.45 1120.1 1335.55 1103.4 1335.7 1083.9 1328.55 1056.55 1318.5 1045.3 1300.9 1042.75 1297 1041.6 1295.75 1040.540625 1294.60234375 1039.4 1293.9 1039.9103515625 1292.8875 1040.2 1291.75 1040.9 1288.95 1040.35 1286.2 1039.8 1283.45 1038.05 1281.15 1036.3 1278.9 1033.85 1277.6 1031.5 1276.4 1028.25 1276 1026.3 1275.75 1022.3 1275.7 1010.05 1275.5 1001.95 1274.1 991 1272.25 982.95 1267.75 978.9 1265.5 974 1261.55 968.45 1256.9 965.65 1254.55 962.7 1252.1 960.45 1251 957.3 1249.45 954.55 1249.95 952 1250.45 950.1 1252.6 948.3 1254.65 947.8 1257.35 946.95 1262.35 950.2 1267.5 952.05 1270.55 957.15 1275.55
L 962 1280.3
Q 958.5216796875 1279.2474609375 954.15 1278.8 951.65 1278.55 942.85 1278.3 928.45 1277.9 917.7 1275.15 904.4 1271.7 895.35 1264.4 889.15 1259.35 886.75 1258.05 881.55 1255.2 877.45 1257 873.15 1258.9 872.3 1264.6 871.55 1269.6 873.6 1274.9 877.55 1285 886.6 1292.9 894.95 1300.25 906.05 1304.45 915.7 1308.1 927.95 1309.6 937.25 1310.7 950.55 1310.8 955.2 1310.8 957.9 1310.55 961.95 1310.2 965.05 1309.1 968.5734375 1307.8451171875 971.15 1305.5 972.8576171875 1308.46484375 975.5 1311.9 985.75 1325.3 997.45 1335.2 1001.25 1338.45 1004.25 1339.95 1008.3 1342 1011.95 1341.6 1015.55 1341.2 1018.4 1338.5 1021.25 1335.85 1022.15 1332.2 1022.9 1329.35 1022.5 1324.3 1022 1318.35 1022.2 1316.25 1022.55 1312.7 1024.2 1309.45 1025.2107421875 1307.4880859375 1026.55 1305.85 1027.0953125 1307.430078125 1028.45 1308.6 1028.77578125 1308.87578125 1029.15 1309.1 1029.2263671875 1309.491796875 1029.3 1309.9 1026.5 1311.25 1024.7 1314.25 1023 1317 1022.6 1320.4 1022.25 1323.25 1022.8 1326.85 1023.05 1328.85 1024.05 1333.25 1025.5 1339.4 1026.3 1342.05 1027.8 1346.9 1029.7 1350.45 1031.95 1354.7 1035.2 1357.65 1038.75 1360.9 1042.9 1362.1 1048.1 1363.6 1055.75 1361.9 1060.05 1360.95 1068.7 1358.7 1075.5 1357.5 1082.45 1358.55 1089.4 1359.6 1095.55 1362.8 1101.6 1365.95 1102.55 1370.2 1100.34609375 1371.0095703125 1096.6 1371.8 1096.5734375 1370.9775390625 1096.4 1370.15 1095.55 1366.1 1091.65 1363.4 1088 1360.9 1083.45 1360.7 1079.6 1360.55 1075 1362 1072 1362.95 1066.95 1365.25 1055.05 1370.9 1049.1 1373.65 1038.55 1378.55 1030.95 1381.4 1021.6 1384.9 1007.35 1388.75 978.45 1396.6 948.7 1401.8 943.15 1402.75 940.4 1403.65 935.9 1405.05 933.15 1407.55 930.95 1409.5 928.95 1412.95 927.8 1414.9 925.75 1419.05 921.05 1428.05 913.4 1435.25 911.65 1436.9 908 1440.15 904.95 1443.1 903.4 1445.8 901.45 1449.15 901.55 1452.85 901.6 1456.9 904.15 1459.3 907.3 1462.2 912.45 1461.35 916.7 1460.7 921.25 1457.8 935.8 1448.7 944.75 1434 946.95 1430.45 947.2 1430.15 948.65 1428.05 950.2 1426.9 952.05 1425.5 954.9 1424.7 956.5 1424.2 960 1423.65 1020.1248046875 1413.9080078125 1078.6 1389.4 1079.0251953125 1390.3939453125 1079.65 1391.4 1082.45 1395.85 1087.3 1397.6 1091.5 1399.15 1097.05 1398.85 1098.5404296875 1398.7904296875 1100.4 1398.55 1101.66953125 1400.040234375 1103.45 1401.25 1107.1 1403.7 1111.7 1404.15 1118.9 1404.75 1128.55 1400.3 1134.4 1397.65 1151.5 1387.15 1165.55 1378.55 1175.05 1375.65 1177.65 1374.85 1182.45 1373.75 1187.65 1372.55 1189.85 1371.9 1194.45 1370.6 1200 1368.2 1203.05 1366.9 1209.8 1363.65 1230.2 1353.9 1240.5 1348 1257.1 1338.5 1268.45 1328.25 1286.6 1311.85 1296.8 1289.7 1299.7 1283.4 1300.9 1278.4 1302.4 1272.05 1301.45 1266.65 1300.4416015625 1260.743359375 1296.4 1256.4 1296.4447265625 1256.4275390625 1296.5 1256.45 1304.5 1259.7 1315.8 1261.75 1324.8 1263.5 1332.4 1263.9 1341.3 1264.4 1349.05 1263.15 1358.2 1261.75 1368.7 1257.35 1374.65 1254.85 1378.6 1252.3 1383.6 1248.95 1386.5 1244.8 1389.75 1240.05 1389.75 1234.3
M 1135.7 1358
Q 1136.25 1357.95 1136.6 1357.7
L 1137.45 1357
Q 1137.85 1356.65 1139.25 1356.2 1139.3 1356.8 1138.6 1357.7 1138.35 1358.15 1138 1358.35
L 1137.5 1358.55 1135.1 1359.3
Q 1134.55 1359.4 1133.7 1359.2 1132.6 1358.9 1132.25 1358.9
L 1135.7 1358 Z"/>
</g>
</defs>

<g transform="matrix( 1, 0, 0, 1, 0,0) ">
<use xlink:href="#Layer19_0_FILL"/>
</g>

<g transform="matrix( 1, 0, 0, 1, 0,0) ">
<use xlink:href="#Layer18_0_FILL"/>
</g>
</svg>
