
<svg xmlns="http://www.w3.org/2000/svg" version="1.1" xmlns:xlink="http://www.w3.org/1999/xlink" preserveAspectRatio="none" x="0px" y="0px" width="2000px" height="2000px" viewBox="0 0 2000 2000">
<defs>
<g id="Layer19_0_FILL">
<path fill="#000000" stroke="none" d="
M 1704.15 890.05
Q 1704.2 887.2 1702.2 884.25 1700.75 882.15 1697.85 879.5 1681.2 864.1 1661.6 852.35 1642 840.65 1620.55 833.25 1581.5 819.7 1548.1 825 1529.35 827.95 1513.4 837 1496.6 846.55 1486.2 861.1 1476.65 874.55 1472.1 892.85 1469.15 904.8 1469.15 916.3 1469.15 925.5958984375 1471.05 934.05 1470.58203125 934.1048828125 1470.1 934.15 1416.05 939.2 1348.25 939.25 1307.5 939.25 1226.15 936.75 1202.73671875 936.023046875 1182.45 935.3 1179.03046875 931.303125 1177.4 929.3 1172.8 923.7 1171.25 915.8 1169.85 908.5 1171.35 900.75 1173.7 888.45 1184.05 873.6 1190.15 864.85 1196.15 859 1203.45 851.8 1211.4 848.1 1219.45 844.35 1221.15 843.25 1226.25 839.85 1226.8 835.35 1227.8 827.55 1215.65 821.15 1203.45 814.8 1186.35 809.6 1148.85 798.25 1109.3 798.7 1069.5 799.1 1032.55 811.35 995.4 823.65 963.55 847.2 931.5 870.85 909.1 902.7 907.35 905.2 906.5 906.85 906.1373046875 907.575390625 905.85 908.25 851.93359375 897.34609375 800.05 881.15 803.555078125 880.502734375 806.95 879.5 817.1 876.45 825.3 870.8 832.75 865.6 836.35 859.7 839.1 855.2 840.6 849.1 842.6 841.25 842.7 831.15 842.8 824.85 841.95 812.95 841.35 804.15 840.25 799.45 838.75 793.55 834.1 784.7 826.65 770.45 819.15 762.45 808.85 751.5 796.55 748.6 791.85 747.5 785.25 747.4 777.6 747.5 773.75 747.45 767.05 747.3 763.65 747.35 757.85 747.45 753.7 748.4 745 750.4 736.4 757.5 730.55 762.4 722.4 772 714.7 781 711.45 786.6 707.15 794.05 704.85 803.45 703.55 808.8 703.2 813.55 702.65 822.05 705.25 830.75 707.75 839.05 712.75 846.45 714.367578125 848.8369140625 716.2 851.1 712.6234375 849.6376953125 709.05 848.15 582.85 795.6 480.65 714.2 478.9376953125 712.834765625 477.25 711.9 476.93671875 710.9130859375 476.25 710.2 473.8775390625 707.6822265625 470.35 710.1 468.13984375 710.375390625 466.85 712.2 465.8578125 713.6478515625 465.95 715.35 465.600390625 716.08046875 465.3 716.85 446.05 766.95 446.85 830.1 447.45 881.2 461.65 945.85 496.5 1104.55 574.6 1204.6 577.8 1208.75 580.2 1210.9 583.65 1214 587.3 1214.9 590.26953125 1215.60703125 593.05 1214.55 593.6955078125 1214.9576171875 594.55 1215.1 596.55 1215.45 598.55 1213.7 599.85 1212.55 601.5 1210 608.2 1199.55 619.05 1190 627.95 1182.2 640.75 1174.1 670.10546875 1155.6474609375 703.4 1144.95 703.626953125 1145.3228515625 703.9 1145.7 704.45 1146.45 705.95 1148.15 709.25 1151.95 713.8 1157.95 716.3 1161.3 721.3 1168 726.45 1174.55 736.15 1185.7
L 751.7 1203.5
Q 752.85859375 1204.8318359375 753.95 1205.9 731.7416015625 1203.6884765625 712.8 1204.35 709.3 1204.5 707.2 1205.05 704.15 1205.9 702.6 1207.85 700.35 1210.7 701.65 1214.7 702.9 1218.55 706.25 1220.6 708.2947265625 1221.8779296875 711.05 1222.5 759.2921875 1274.5107421875 796.55 1305.05 850.75 1349.45 904.85 1369.85 917.0912109375 1374.4658203125 930.05 1378.1 941.4005859375 1393.3064453125 957 1407.95 971.9 1421.95 992.6 1437.15 1000.1 1442.7 1005.5 1445.9 1012.45 1449.95 1024.45 1455 1043.35 1462.85 1057.25 1466 1075.65 1470.2 1091.15 1468 1097.8 1467.05 1100.7 1464.25 1103.9 1461.2 1104.35 1455.25 1104.95 1447.75 1101.05 1439.35 1098.3 1433.3 1092.2 1425.1 1082.59609375 1412.1255859375 1065.2 1392 1093.2728515625 1391.0064453125 1124.55 1387.45 1173.8 1381.85 1209.15 1371.9 1216.240234375 1369.9103515625 1223 1367.7 1227.4029296875 1371.1423828125 1232.3 1374.05 1236.9 1376.8 1247.25 1381.6 1279.4 1396.2 1304.35 1405.05 1309.65 1406.85 1311.95 1407.25 1314.6 1407.7 1319.15 1407.7
L 1330.5 1407.9
Q 1333.4 1408 1335.15 1407.7 1337.45 1407.3 1339.45 1406 1341.45 1404.75 1342.75 1402.85 1344.55 1400.25 1345.2 1396.4 1345.65 1393.8 1345.65 1389.3 1345.65 1381.8 1344.5 1377.7 1343.45 1373.65 1340.2 1368 1333.4 1356.25 1321.45 1342.6 1311.15234375 1331.4798828125 1304.55 1324.3 1311.534765625 1318.710546875 1318.65 1312.25 1331.3 1300.75 1347.55 1283.65 1439.469921875 1187.112109375 1506.6 1071.7
L 1513.8 1078.1
Q 1525.9931640625 1099.1255859375 1545.9 1114.45 1565.95 1129.8 1589.9 1136.4 1613.65 1142.95 1638.95 1140.2 1664 1137.5 1686.15 1126.2 1703.95 1117.05 1711.85 1105.25 1716.4 1098.5 1716.4 1092.4 1716.4 1088.8 1714.7 1085.75 1712.9 1082.45 1709.9 1081.05 1706.7 1079.55 1702 1080.2 1696.5 1081.4 1693.8 1081.95 1677.15 1085.55 1657.8 1077.05 1643.7 1070.85 1625.3 1056.5 1617.55 1050.45 1613.05 1046.4 1606.6 1040.6 1602.25 1034.95 1596.7 1027.85 1592.3 1018.3 1588.8 1010.65 1585.4 1000 1581.2 986.65 1579.5 975.9 1577.35 962.7 1578.55 951.25 1579.9 938.35 1585.55 927.45 1591.7 915.8 1601.55 909.05 1616.85 898.6 1643.75 899.25 1648.05 899.35 1665.7 900.6 1679.2 901.5 1687.65 901 1694.05 900.65 1698.6 898.1 1704.1 895.05 1704.15 890.05
M 1661.9 875.2
Q 1638.4 874.65 1625.45 876.3 1605.4 878.9 1591.7 887.45 1572.1 899.75 1563 924.75 1554.8 947.35 1557.25 973.3 1559.55 997.45 1569.6 1019.95 1579.7 1042.5 1596.15 1060.3 1612.6 1078.1 1634.3 1089.9 1655.95 1101.7 1679.85 1105.85 1661.7 1115.15 1641.75 1118.2 1621.2 1121.3 1601.8 1117.4 1581.8 1113.35 1564.8 1102.15 1547.4 1090.65 1536.65 1073.95 1532.65 1067.75 1532.1 1066.95 1529.3 1063.15 1526.3 1061.15 1522.65 1058.75 1518.3 1059 1516.7923828125 1059.097265625 1515.55 1059.5 1514.0443359375 1058.2302734375 1512.35 1056.8 1512.0583984375 1056.5607421875 1511.8 1056.35 1511.6478515625 1055.911328125 1511.45 1055.5 1509.95 1052.3 1505.95 1051.55 1502.15 1050.8 1498.75 1052.6 1495.9 1054.15 1493.35 1057.4 1491.85 1059.3 1489.3 1063.5 1421.9109375 1176.38359375 1344.7 1259.65 1344.390234375 1259.422265625 1344.05 1259.2 1335.55 1253.55 1324.1 1247.9 1317.15 1244.45 1303.25 1238.3 1263.65 1220.7 1242.15 1212.15 1207.85 1198.65 1179.2 1191.1 1141 1181.05 1091.95 1176.2 1061.95 1173.25 1003.35 1170.6 1000.8 1170.5 999.5 1170.6 997.4 1170.8 995.9 1171.6 994.6427734375 1172.282421875 993.9 1173.4 978.3912109375 1160.2716796875 958.5 1149.85 924.65 1132.1 879.75 1123.05 808.8 1108.7 745 1119.45 710.85 1125.25 680 1138.25 647.85 1151.8 621.65 1172.25 612.05 1179.75 605.5 1186.65 599.2810546875 1193.21875 595.05 1200 552.4498046875 1149.38359375 522.6 1080.1 497.05 1020.75 479.95 945.1 465.6 881.45 463.6 831.1 461.2943359375 773.734765625 474.35 726.1 575.448046875 806.9416015625 695.2 860 816.35 913.7 945.85 934.15 984.05 940.2 1030.25 944.35 1064.2 947.4 1115.1 950.4 1215.9 956.25 1316.85 958.8 1363.8 959.95 1392.9 959.4 1434.65 958.6 1468.7 954.35 1473.15 953.75 1475.4 953.2 1479 952.25 1481.45 950.5 1484.3 948.45 1485.5 945.15 1486.8 941.65 1485.3 938.75 1484.6244140625 937.4568359375 1483.5 936.5 1483.3166015625 934.139453125 1482.25 925.65 1479.45 903.2 1489.1 882.2 1498.95 860.6 1517.95 849.85 1536.3 839.45 1563.2 839.3 1590 839.1 1615.75 848.45 1641.5 857.8 1661.9 875.2
M 1338.4 1266.35
Q 1334.98359375 1269.9966796875 1331.55 1273.55 1315.65 1290.05 1302.95 1301.15 1295.4267578125 1307.7416015625 1288.05 1313.35 1287.8009765625 1313.448046875 1287.55 1313.55 1285.8208984375 1314.2544921875 1284.8 1315.8 1278.006640625 1320.820703125 1271.35 1325 1250.25 1338.2 1222.7 1347.95 1200.8 1355.65 1170.6 1362.5 1128.35 1372.05 1090.3 1375.9 1047.8 1380.15 1009.05 1377.55 967 1374.7 928.9 1363.6 888.35 1351.8 854.6 1331.3 839.3 1322.05 822.55 1309.2 809.55 1299.2 792.45 1284.45 758.2177734375 1255.0716796875 726 1223.45 754.315625 1224.451171875 790.7 1230.95 792.85 1231.35 860.05 1245.05 901.7 1253.55 929.2 1256 944.23828125 1257.336328125 958.25 1257.3 959.58125 1257.9978515625 960.95 1257.9 962.050390625 1257.81953125 963.05 1257.25 981.6033203125 1256.895703125 998.35 1254.1 1008.95 1252.35 1015.8 1249.05 1024.75 1244.75 1028.25 1237.45 1032 1229.65 1029.1 1219.5 1026.8 1211.35 1020.45 1202.35 1012.7322265625 1191.3541015625 1002.9 1181.65 1002.3416015625 1179.9787109375 1000.85 1178.95 1000.108984375 1178.41484375 999.25 1178.15 999.1498046875 1178.0671875 999.05 1177.95 1017.2083984375 1178.16171875 1039.2 1179.85 1053.95 1181 1084.75 1184.15 1104.45 1186.15 1115.1 1187.45 1131.9 1189.5 1145.3 1191.9 1192.7 1200.35 1245.05 1221.6 1286.2736328125 1238.2974609375 1338.4 1266.35
M 1311.9 1353.95
Q 1322.25 1365.85 1328.7 1377.65 1331.6 1383 1332.05 1386.45 1332.65 1390.6 1330.3 1392.2 1329.05 1393.1 1325.85 1393.1 1321.95 1393 1320.7 1392.9 1317.85 1392.75 1315.65 1392.4 1310.55 1391.6 1301.5 1388.3 1268.4 1376.3 1252 1369.9 1242.1 1366.05 1236.3 1363.3 1236.1314453125 1363.2203125 1235.95 1363.15 1264.2599609375 1352.47265625 1286.8 1337.4 1289.398828125 1335.6703125 1292 1333.8 1303.9068359375 1344.73828125 1311.9 1353.95
M 739.75 791.45
Q 742.85 787.1 744.85 784.85 747.9 781.4 751.05 779.45 754.15 777.5 758.55 776.25 761.35 775.45 766.55 774.45 772.6 773.35 775.55 773.05 780.6 772.55 784.6 773.2 793.6 774.75 801.25 782.3 807.7 788.7 812.45 798.6 817 807.95 817.1 814.95 817.25 821.3 813.85 829.65 809.8 839.75 803.95 844.6 793.35 853.25 773.3 849.9 760.65 847.85 753.1 842.5 746.7 837.9 742.1 829.65 738.45 823.2 735.55 813.6 734.6 810.4 734.25 808.5 733.75 805.65 734 803.35 734.35 800.4 736.1 797.1 737.3 794.85 739.75 791.45
M 1197.65 833.55
Q 1183.9 844.25 1174.55 855.05 1163.45 867.8 1157.85 881.4 1151.6 896.55 1152.6 912.4 1153.3638671875 924.6216796875 1158.4 934.4 1120.007421875 932.914453125 1095.25 931.45 1022.65 927.05 965 918.6 942.5228515625 915.296875 920.4 911.1 927.665234375 901.67734375 931.95 896.5 939.6 887.3 946.5 880.6 958.3 869.15 974.75 858.5 1023.55 826.9 1083.3 820.2 1143.1 813.5 1197.65 833.55
M 779.35 1130.95
Q 780.41875 1130.8830078125 781.45 1130.8 781.4681640625 1130.885546875 781.45 1130.95
L 766.9 1182.9
Q 764.75 1190.7 764.15 1194.8 763.873046875 1196.65546875 763.75 1198.4 763.1302734375 1197.6171875 762.2 1196.55
L 714.2 1141.7
Q 745.1345703125 1133.10625 779.35 1130.95
M 800.3 1131.6
Q 799.8587890625 1130.8830078125 799.45 1130.25 852.0666015625 1129.962109375 903.05 1145.5 900.879296875 1147.8193359375 898.7 1151.5 877.65 1186.9 854.1 1219.7 841.25 1203.75 825.9 1176.6 802.1 1134.55 800.3 1131.6
M 789.6 1147.65
Q 790.05 1146.05 790.9 1145.1 791.95 1143.85 793.15 1144.2 812.59765625 1183.498828125 837.35 1220.65 795.8828125 1211.9580078125 784.9 1210.1 777.9828125 1208.9330078125 771.3 1208
L 789.6 1147.65
M 910.4 1160.55
Q 913.1 1168.3 917.3 1177.55 920 1183.45 925.25 1194.1
L 946.55 1237.5
Q 937.5443359375 1237.2435546875 928.1 1236.4 903.3857421875 1234.196484375 867.7 1227 872.3396484375 1218.5935546875 880.8 1205.8
L 910.4 1160.55
M 929.1 1174.95
Q 923.6 1163.2 920.5 1153.35 920.115625 1152.1041015625 919.7 1151 922.1689453125 1151.893359375 924.6 1152.8 953.4 1163.55 973 1177.35 980.4275390625 1182.5740234375 986.65 1188.3 974.5521484375 1211.93359375 960.35 1235
L 939.65 1195.75
Q 932.3 1181.75 929.1 1174.95
M 965.5 1396.35
L 951.4 1383.4
Q 980.5650390625 1389.6974609375 1013.1 1391.6 1028.444921875 1392.5 1045 1392.45 1045.0255859375 1392.4947265625 1045.05 1392.55 1046 1394.7 1047.9 1396.9 1049.05 1398.2 1051.6 1400.6 1075 1423.05 1090.5 1451.5 1088.25 1453.2 1084.8 1453.65 1082.4 1453.95 1078.5 1453.65 1053.55 1451.85 1030.5 1441.75 1013.75 1434.45 996.25 1421.75 982.75 1411.9 965.5 1396.35
M 1000.1 1233.65
Q 988.49140625 1235.9177734375 975.9 1236.9
L 997 1199.15
Q 1003.7982421875 1207.3720703125 1008.45 1216.45 1012.35 1224.15 1009.95 1228.4 1008.7 1230.65 1005.75 1232 1003.7 1232.95 1000.1 1233.65
M 757.7 790.7
Q 757.9 790.9 757.6 791.05 757.35 791.2 757.05 791.15 754.1 790.85 751.9 793.15 749.95 795.2 749.6 798.3 749.35 800.35 749.95 801.85 750.55 803.15 752 804.35 755.2 807.05 759 806.6 761.4 806.35 763.35 804.7 765.3 803.05 765.95 800.75 766.6 798.4 765.7 796 764.8 793.6 762.8 792.3 761 791.2 757.7 790.7
M 1196.05 1073.8
Q 1197.7 1077.4 1200.95 1081.6 1202.85 1084.05 1206.85 1088.8 1219.5 1104.45 1226.1 1123.9 1232.65 1143.35 1232.1 1163.5 1232 1166 1232.1 1167.2 1232.25 1169.3 1232.95 1170.75 1233.8 1172.5 1235.55 1173.35 1237.4 1174.25 1239 1173.5 1241.4 1172.3 1241.8 1167.55 1244.15 1143.1 1235.3 1119.35 1226.5 1095.6 1208.85 1078.55 1201.5 1071.4 1196.05 1073.8
M 1270.7 1071
Q 1270.25 1069.95 1269.2 1069.35 1268.05 1068.75 1267.7 1069.7 1266.65 1072.9 1267.4 1077.15 1267.85 1079.7 1269.45 1084.55 1281.9 1122.95 1282.2 1163
L 1286.05 1163
Q 1289.25 1150 1288.1 1134.6 1287.15 1121.75 1283.05 1106.3 1278.15 1087.75 1270.7 1071
M 1084.3 1029.9
Q 1074.55 1022.7 1062.8 1019.35 1051.3 1016.15 1038.95 1016.8 1026.9 1017.45 1015.45 1021.75 1001.6 1026.9 990.15 1036.8 978.7 1046.65 971.55 1059.6 969 1064.3 968.1 1068 967.55 1070.3 967.45 1073.6 967.4 1075.5 967.35 1079.25 967.3 1081.95 967.05 1087.35 966.95 1092.05 967.5 1095.35 969.1 1105.25 978.7 1116.3 990.35 1129.7 1003.35 1134.45 1008 1136.1 1016 1137.6 1025.75 1139.4 1032.35 1140.05 1041.35 1140.95 1048.8 1140.35 1064.3 1139.1 1078.25 1131.3 1092.25 1123.5 1101.4 1110.95 1110.45 1098.6 1111.4 1086.25 1112.1 1077.5 1108.45 1065.7 1105.2 1055.1 1100.55 1047.5 1094.35 1037.3 1084.3 1029.9
M 1082.95 1065.45
Q 1084.35 1068.1 1086.25 1073.55 1088.15 1079.2 1089.45 1081.7 1090.3 1083.4 1090.5 1083.85 1090.95 1085.1 1090.9 1086.15 1090.8 1087.05 1090.2 1088.2 1089.9 1088.9 1089.15 1090.2 1088.5 1091.35 1087.75 1093.45 1086.9 1095.95 1086.5 1096.8 1084.8 1100.45 1079.8 1105.1 1065.45 1118.4 1051.65 1120.5 1048.2 1121.05 1042.15 1121.05 1026.6 1121.05 1016.35 1118.25 1002.45 1114.5 994.2 1105.4 992.5 1103.5 992.15 1102.05 991.9 1101 992.25 1099.6 992.35 1099.15 992.95 1097.15 994.4 1092.6 994.55 1087.45 994.55 1085.3 994.55 1084.25 994.6 1082.35 994.85 1081.05 995.2 1079.3 997.1 1075.15 998.9 1070.95 999.8 1068.85 1001.4 1065.15 1002.85 1062.75 1007.7 1054.85 1016 1050.8 1020 1048.85 1027.05 1047.1 1029.35 1046.55 1037.75 1044.8 1042.95 1043.7 1045.65 1043.7 1049.85 1043.65 1056.2 1045.7 1076.1 1052.35 1082.95 1065.45
M 1063.7 1083.75
Q 1061.9 1085 1061.3 1086.95 1061 1087.85 1060.9 1090.85 1060.9 1094.2 1060.9 1094.35 1061 1096.3 1061.55 1097.7 1062.4 1099.85 1064.5 1101.2 1066.6 1102.55 1068.95 1102.45 1071.3 1102.4 1073.3 1100.9 1075.3 1099.4 1076.1 1097.2 1076.4 1096.35 1076.65 1094.9 1076.95 1093.1 1077.1 1092.55 1077.65 1090.4 1077.65 1090.2 1077.8 1088.45 1076.35 1086.5 1075 1084.65 1072.95 1083.5 1070.9 1082.35 1068.55 1082.15 1068.55 1082.7 1067.5 1082.6 1065.5 1082.5 1063.7 1083.75
M 523.95 862
Q 520.7 861.45 518.9 863.55 516.15 866.7 519.35 873.7
L 522.4 880.1
Q 529.75 895 537.6 906.2 542.2 912.75 546.7 912.65 548.95 908.45 546.6 901.25 545 896.4 542.2 891.75 541.4 890.4 539.4 887.4 537.55 884.65 536.65 883.05 534.6 879.6 533.3 875.45 532.25 871.7 531.6 869.9 530.5 866.7 528.95 864.85 527 862.55 523.95 862
M 1329.35 1076.65
Q 1328.25 1074.95 1324.1 1069.15 1320.75 1064.6 1319.1 1061.5 1318.3 1061.8 1318.3 1062.95 1318.3 1063.9 1318.8 1064.95 1327.25 1082.1 1330.35 1101.3 1333.45 1120.45 1330.85 1139.4 1330.05 1144.95 1333 1145.75 1335.1 1146.35 1337.25 1143.6 1339.8 1140.3 1340.75 1135.25 1341.45 1131.65 1341.4 1125.9 1341.3 1111.55 1338.8 1100.25 1335.8 1086.7 1329.35 1076.65 Z"/>

<path fill="#FFFFFF" stroke="none" d="
M 975.9 1236.9
Q 988.49140625 1235.9177734375 1000.1 1233.65 1003.7 1232.95 1005.75 1232 1008.7 1230.65 1009.95 1228.4 1012.35 1224.15 1008.45 1216.45 1003.7982421875 1207.3720703125 997 1199.15
L 975.9 1236.9
M 920.5 1153.35
Q 923.6 1163.2 929.1 1174.95 932.3 1181.75 939.65 1195.75
L 960.35 1235
Q 974.5521484375 1211.93359375 986.65 1188.3 980.4275390625 1182.5740234375 973 1177.35 953.4 1163.55 924.6 1152.8 922.1689453125 1151.893359375 919.7 1151 920.115625 1152.1041015625 920.5 1153.35
M 917.3 1177.55
Q 913.1 1168.3 910.4 1160.55
L 880.8 1205.8
Q 872.3396484375 1218.5935546875 867.7 1227 903.3857421875 1234.196484375 928.1 1236.4 937.5443359375 1237.2435546875 946.55 1237.5
L 925.25 1194.1
Q 920 1183.45 917.3 1177.55
M 790.9 1145.1
Q 790.05 1146.05 789.6 1147.65
L 771.3 1208
Q 777.9828125 1208.9330078125 784.9 1210.1 795.8828125 1211.9580078125 837.35 1220.65 812.59765625 1183.498828125 793.15 1144.2 791.95 1143.85 790.9 1145.1
M 799.45 1130.25
Q 799.8587890625 1130.8830078125 800.3 1131.6 802.1 1134.55 825.9 1176.6 841.25 1203.75 854.1 1219.7 877.65 1186.9 898.7 1151.5 900.879296875 1147.8193359375 903.05 1145.5 852.0666015625 1129.962109375 799.45 1130.25
M 781.45 1130.8
Q 780.41875 1130.8830078125 779.35 1130.95 745.1345703125 1133.10625 714.2 1141.7
L 762.2 1196.55
Q 763.1302734375 1197.6171875 763.75 1198.4 763.873046875 1196.65546875 764.15 1194.8 764.75 1190.7 766.9 1182.9
L 781.45 1130.95
Q 781.4681640625 1130.885546875 781.45 1130.8
M 744.85 784.85
Q 742.85 787.1 739.75 791.45 737.3 794.85 736.1 797.1 734.35 800.4 734 803.35 733.75 805.65 734.25 808.5 734.6 810.4 735.55 813.6 738.45 823.2 742.1 829.65 746.7 837.9 753.1 842.5 760.65 847.85 773.3 849.9 793.35 853.25 803.95 844.6 809.8 839.75 813.85 829.65 817.25 821.3 817.1 814.95 817 807.95 812.45 798.6 807.7 788.7 801.25 782.3 793.6 774.75 784.6 773.2 780.6 772.55 775.55 773.05 772.6 773.35 766.55 774.45 761.35 775.45 758.55 776.25 754.15 777.5 751.05 779.45 747.9 781.4 744.85 784.85
M 757.6 791.05
Q 757.9 790.9 757.7 790.7 761 791.2 762.8 792.3 764.8 793.6 765.7 796 766.6 798.4 765.95 800.75 765.3 803.05 763.35 804.7 761.4 806.35 759 806.6 755.2 807.05 752 804.35 750.55 803.15 749.95 801.85 749.35 800.35 749.6 798.3 749.95 795.2 751.9 793.15 754.1 790.85 757.05 791.15 757.35 791.2 757.6 791.05
M 1331.55 1273.55
Q 1334.98359375 1269.9966796875 1338.4 1266.35 1286.2736328125 1238.2974609375 1245.05 1221.6 1192.7 1200.35 1145.3 1191.9 1131.9 1189.5 1115.1 1187.45 1104.45 1186.15 1084.75 1184.15 1053.95 1181 1039.2 1179.85 1017.2083984375 1178.16171875 999.05 1177.95 999.1498046875 1178.0671875 999.25 1178.15 1000.108984375 1178.41484375 1000.85 1178.95 1002.3416015625 1179.9787109375 1002.9 1181.65 1012.7322265625 1191.3541015625 1020.45 1202.35 1026.8 1211.35 1029.1 1219.5 1032 1229.65 1028.25 1237.45 1024.75 1244.75 1015.8 1249.05 1008.95 1252.35 998.35 1254.1 981.6033203125 1256.895703125 963.05 1257.25 962.050390625 1257.81953125 960.95 1257.9 959.58125 1257.9978515625 958.25 1257.3 944.23828125 1257.336328125 929.2 1256 901.7 1253.55 860.05 1245.05 792.85 1231.35 790.7 1230.95 754.315625 1224.451171875 726 1223.45 758.2177734375 1255.0716796875 792.45 1284.45 809.55 1299.2 822.55 1309.2 839.3 1322.05 854.6 1331.3 888.35 1351.8 928.9 1363.6 967 1374.7 1009.05 1377.55 1047.8 1380.15 1090.3 1375.9 1128.35 1372.05 1170.6 1362.5 1200.8 1355.65 1222.7 1347.95 1250.25 1338.2 1271.35 1325 1278.006640625 1320.820703125 1284.8 1315.8 1285.8208984375 1314.2544921875 1287.55 1313.55 1287.8009765625 1313.448046875 1288.05 1313.35 1295.4267578125 1307.7416015625 1302.95 1301.15 1315.65 1290.05 1331.55 1273.55
M 1086.25 1073.55
Q 1084.35 1068.1 1082.95 1065.45 1076.1 1052.35 1056.2 1045.7 1049.85 1043.65 1045.65 1043.7 1042.95 1043.7 1037.75 1044.8 1029.35 1046.55 1027.05 1047.1 1020 1048.85 1016 1050.8 1007.7 1054.85 1002.85 1062.75 1001.4 1065.15 999.8 1068.85 998.9 1070.95 997.1 1075.15 995.2 1079.3 994.85 1081.05 994.6 1082.35 994.55 1084.25 994.55 1085.3 994.55 1087.45 994.4 1092.6 992.95 1097.15 992.35 1099.15 992.25 1099.6 991.9 1101 992.15 1102.05 992.5 1103.5 994.2 1105.4 1002.45 1114.5 1016.35 1118.25 1026.6 1121.05 1042.15 1121.05 1048.2 1121.05 1051.65 1120.5 1065.45 1118.4 1079.8 1105.1 1084.8 1100.45 1086.5 1096.8 1086.9 1095.95 1087.75 1093.45 1088.5 1091.35 1089.15 1090.2 1089.9 1088.9 1090.2 1088.2 1090.8 1087.05 1090.9 1086.15 1090.95 1085.1 1090.5 1083.85 1090.3 1083.4 1089.45 1081.7 1088.15 1079.2 1086.25 1073.55
M 1061.3 1086.95
Q 1061.9 1085 1063.7 1083.75 1065.5 1082.5 1067.5 1082.6 1068.55 1082.7 1068.55 1082.15 1070.9 1082.35 1072.95 1083.5 1075 1084.65 1076.35 1086.5 1077.8 1088.45 1077.65 1090.2 1077.65 1090.4 1077.1 1092.55 1076.95 1093.1 1076.65 1094.9 1076.4 1096.35 1076.1 1097.2 1075.3 1099.4 1073.3 1100.9 1071.3 1102.4 1068.95 1102.45 1066.6 1102.55 1064.5 1101.2 1062.4 1099.85 1061.55 1097.7 1061 1096.3 1060.9 1094.35 1060.9 1094.2 1060.9 1090.85 1061 1087.85 1061.3 1086.95 Z"/>

<path fill="#CCCCCC" stroke="none" d="
M 951.4 1383.4
L 965.5 1396.35
Q 982.75 1411.9 996.25 1421.75 1013.75 1434.45 1030.5 1441.75 1053.55 1451.85 1078.5 1453.65 1082.4 1453.95 1084.8 1453.65 1088.25 1453.2 1090.5 1451.5 1075 1423.05 1051.6 1400.6 1049.05 1398.2 1047.9 1396.9 1046 1394.7 1045.05 1392.55 1045.0255859375 1392.4947265625 1045 1392.45 1028.444921875 1392.5 1013.1 1391.6 980.5650390625 1389.6974609375 951.4 1383.4
M 1174.55 855.05
Q 1183.9 844.25 1197.65 833.55 1143.1 813.5 1083.3 820.2 1023.55 826.9 974.75 858.5 958.3 869.15 946.5 880.6 939.6 887.3 931.95 896.5 927.665234375 901.67734375 920.4 911.1 942.5228515625 915.296875 965 918.6 1022.65 927.05 1095.25 931.45 1120.007421875 932.914453125 1158.4 934.4 1153.3638671875 924.6216796875 1152.6 912.4 1151.6 896.55 1157.85 881.4 1163.45 867.8 1174.55 855.05
M 1328.7 1377.65
Q 1322.25 1365.85 1311.9 1353.95 1303.9068359375 1344.73828125 1292 1333.8 1289.398828125 1335.6703125 1286.8 1337.4 1264.2599609375 1352.47265625 1235.95 1363.15 1236.1314453125 1363.2203125 1236.3 1363.3 1242.1 1366.05 1252 1369.9 1268.4 1376.3 1301.5 1388.3 1310.55 1391.6 1315.65 1392.4 1317.85 1392.75 1320.7 1392.9 1321.95 1393 1325.85 1393.1 1329.05 1393.1 1330.3 1392.2 1332.65 1390.6 1332.05 1386.45 1331.6 1383 1328.7 1377.65
M 1625.45 876.3
Q 1638.4 874.65 1661.9 875.2 1641.5 857.8 1615.75 848.45 1590 839.1 1563.2 839.3 1536.3 839.45 1517.95 849.85 1498.95 860.6 1489.1 882.2 1479.45 903.2 1482.25 925.65 1483.3166015625 934.139453125 1483.5 936.5 1484.6244140625 937.4568359375 1485.3 938.75 1486.8 941.65 1485.5 945.15 1484.3 948.45 1481.45 950.5 1479 952.25 1475.4 953.2 1473.15 953.75 1468.7 954.35 1434.65 958.6 1392.9 959.4 1363.8 959.95 1316.85 958.8 1215.9 956.25 1115.1 950.4 1064.2 947.4 1030.25 944.35 984.05 940.2 945.85 934.15 816.35 913.7 695.2 860 575.448046875 806.9416015625 474.35 726.1 461.2943359375 773.734765625 463.6 831.1 465.6 881.45 479.95 945.1 497.05 1020.75 522.6 1080.1 552.4498046875 1149.38359375 595.05 1200 599.2810546875 1193.21875 605.5 1186.65 612.05 1179.75 621.65 1172.25 647.85 1151.8 680 1138.25 710.85 1125.25 745 1119.45 808.8 1108.7 879.75 1123.05 924.65 1132.1 958.5 1149.85 978.3912109375 1160.2716796875 993.9 1173.4 994.6427734375 1172.282421875 995.9 1171.6 997.4 1170.8 999.5 1170.6 1000.8 1170.5 1003.35 1170.6 1061.95 1173.25 1091.95 1176.2 1141 1181.05 1179.2 1191.1 1207.85 1198.65 1242.15 1212.15 1263.65 1220.7 1303.25 1238.3 1317.15 1244.45 1324.1 1247.9 1335.55 1253.55 1344.05 1259.2 1344.390234375 1259.422265625 1344.7 1259.65 1421.9109375 1176.38359375 1489.3 1063.5 1491.85 1059.3 1493.35 1057.4 1495.9 1054.15 1498.75 1052.6 1502.15 1050.8 1505.95 1051.55 1509.95 1052.3 1511.45 1055.5 1511.6478515625 1055.911328125 1511.8 1056.35 1512.0583984375 1056.5607421875 1512.35 1056.8 1514.0443359375 1058.2302734375 1515.55 1059.5 1516.7923828125 1059.097265625 1518.3 1059 1522.65 1058.75 1526.3 1061.15 1529.3 1063.15 1532.1 1066.95 1532.65 1067.75 1536.65 1073.95 1547.4 1090.65 1564.8 1102.15 1581.8 1113.35 1601.8 1117.4 1621.2 1121.3 1641.75 1118.2 1661.7 1115.15 1679.85 1105.85 1655.95 1101.7 1634.3 1089.9 1612.6 1078.1 1596.15 1060.3 1579.7 1042.5 1569.6 1019.95 1559.55 997.45 1557.25 973.3 1554.8 947.35 1563 924.75 1572.1 899.75 1591.7 887.45 1605.4 878.9 1625.45 876.3
M 1324.1 1069.15
Q 1328.25 1074.95 1329.35 1076.65 1335.8 1086.7 1338.8 1100.25 1341.3 1111.55 1341.4 1125.9 1341.45 1131.65 1340.75 1135.25 1339.8 1140.3 1337.25 1143.6 1335.1 1146.35 1333 1145.75 1330.05 1144.95 1330.85 1139.4 1333.45 1120.45 1330.35 1101.3 1327.25 1082.1 1318.8 1064.95 1318.3 1063.9 1318.3 1062.95 1318.3 1061.8 1319.1 1061.5 1320.75 1064.6 1324.1 1069.15
M 518.9 863.55
Q 520.7 861.45 523.95 862 527 862.55 528.95 864.85 530.5 866.7 531.6 869.9 532.25 871.7 533.3 875.45 534.6 879.6 536.65 883.05 537.55 884.65 539.4 887.4 541.4 890.4 542.2 891.75 545 896.4 546.6 901.25 548.95 908.45 546.7 912.65 542.2 912.75 537.6 906.2 529.75 895 522.4 880.1
L 519.35 873.7
Q 516.15 866.7 518.9 863.55
M 1062.8 1019.35
Q 1074.55 1022.7 1084.3 1029.9 1094.35 1037.3 1100.55 1047.5 1105.2 1055.1 1108.45 1065.7 1112.1 1077.5 1111.4 1086.25 1110.45 1098.6 1101.4 1110.95 1092.25 1123.5 1078.25 1131.3 1064.3 1139.1 1048.8 1140.35 1041.35 1140.95 1032.35 1140.05 1025.75 1139.4 1016 1137.6 1008 1136.1 1003.35 1134.45 990.35 1129.7 978.7 1116.3 969.1 1105.25 967.5 1095.35 966.95 1092.05 967.05 1087.35 967.3 1081.95 967.35 1079.25 967.4 1075.5 967.45 1073.6 967.55 1070.3 968.1 1068 969 1064.3 971.55 1059.6 978.7 1046.65 990.15 1036.8 1001.6 1026.9 1015.45 1021.75 1026.9 1017.45 1038.95 1016.8 1051.3 1016.15 1062.8 1019.35
M 1269.2 1069.35
Q 1270.25 1069.95 1270.7 1071 1278.15 1087.75 1283.05 1106.3 1287.15 1121.75 1288.1 1134.6 1289.25 1150 1286.05 1163
L 1282.2 1163
Q 1281.9 1122.95 1269.45 1084.55 1267.85 1079.7 1267.4 1077.15 1266.65 1072.9 1267.7 1069.7 1268.05 1068.75 1269.2 1069.35
M 1200.95 1081.6
Q 1197.7 1077.4 1196.05 1073.8 1201.5 1071.4 1208.85 1078.55 1226.5 1095.6 1235.3 1119.35 1244.15 1143.1 1241.8 1167.55 1241.4 1172.3 1239 1173.5 1237.4 1174.25 1235.55 1173.35 1233.8 1172.5 1232.95 1170.75 1232.25 1169.3 1232.1 1167.2 1232 1166 1232.1 1163.5 1232.65 1143.35 1226.1 1123.9 1219.5 1104.45 1206.85 1088.8 1202.85 1084.05 1200.95 1081.6 Z"/>
</g>

<g id="Layer18_0_FILL">
<path fill="#000000" fill-opacity="0.2" stroke="none" d="
M 723.9 1132.85
Q 720 1133.7 718.1 1134.35 714.9 1135.45 712.85 1137.1 710.4 1139.05 709.4 1142 708.35 1145.1 709.6 1147.65 712.45 1153.25 724.05 1151.85 759.8275390625 1147.5935546875 782.85 1145.8 780.0947265625 1155.9802734375 776.2 1171.65 773.85 1180.85 772.95 1185.7 771.45 1193.55 771.3 1199.95 771.2 1203.6 772.35 1206.25 773.75 1209.5 776.55 1209.9 778.15 1210.15 779.75 1209.3 781.2 1208.45 782.25 1207 783.55 1205.05 784.55 1200.7 788.25 1182.4 790.3 1173.3 791.8736328125 1166.327734375 793.6 1160.35 802.3044921875 1179.6892578125 809.55 1192.3 820.3 1211.05 832.5 1224.15 836.2 1228.05 838.9 1229.05 840.85 1229.8 842.9 1229.4 845.1 1229 846.3 1227.45 849.4 1223.4 843.5 1215.8 818.3 1183.3 801.35 1145.5 801.1578125 1145.07734375 800.95 1144.7 837.5423828125 1143.080078125 867.15 1146.95 889.4474609375 1149.9068359375 905.85 1155.7 904.884375 1156.69375 903.95 1157.9 902.35 1159.9 899.6 1164.65 885.25 1190.05 867.3 1213.1 864.5 1216.75 863.4 1219.1 861.75 1222.7 862.55 1225.75 863.25 1228.3 865.65 1229.9 868 1231.45 870.65 1231.15 873.15 1230.85 875.6 1228.8 877.25 1227.45 879.5 1224.6 896.226171875 1203.618359375 910.35 1180.9 915.9423828125 1193.2416015625 923.5 1207.45 929.1 1218 942.1 1240.75 943.65 1243.4 944.6 1244.7 946.15 1246.8 947.8 1248 949.85 1249.4 952.2 1249.55 954.75 1249.75 956.45 1248.3 958 1247 958.45 1244.75 958.85 1242.65 958.2 1240.5 957.7 1238.7 956.4 1236.7 955.85 1235.85 953.9 1233.2 950.5 1228.55 946.8 1222.35 944.65 1218.8 940.3 1211.05
L 931.1 1194.6
Q 925.45 1184.6 922.9 1179.2 920.034375 1173.158203125 918.3 1167.7 919.15 1166.1982421875 920 1164.7 920.86171875 1163.1724609375 921.3 1162.2 938.9115234375 1170.860546875 956.15 1184.9 969.8244140625 1196.0720703125 984.55 1211.8 983.8001953125 1212.97734375 983.05 1214.2 980.7 1218 976 1226.2 974.8 1228.3 974.35 1229.45 973.55 1231.35 973.55 1232.95 973.55 1235.9 975.85 1238.2 978.1 1240.5 981.15 1240.9 984 1241.35 987.05 1240.2 987.6638671875 1239.97265625 988.25 1239.7 989.6876953125 1240.856640625 991.1 1241.55 993.7 1242.85 996.7 1243 999.65 1243.15 1002.45 1242.2 1007.273046875 1240.577734375 1010.6 1236.4 1011.6275390625 1236.6556640625 1012.65 1236.75 1016.1 1237.1 1018.85 1235.65 1022.3 1233.8 1023.7 1229.5 1025.05 1225.55 1024.05 1221.35 1023.2 1217.8 1020.7 1213.95 1019.1 1211.45 1015.7 1207.4 1013.3037109375 1204.56953125 1010.9 1201.8 1009.856640625 1199.0955078125 1007.05 1197.25 1006.7337890625 1197.0421875 1006.4 1196.85 984.7283203125 1173.2099609375 961.45 1156.8 929.05 1134 895 1126.35 883.05 1123.7 867.75 1122.3 858.6 1121.45 840.15 1120.55 820.35 1119.6 809.35 1119.8 790.1 1120.2 766.35 1124.25 752.05 1126.65 723.9 1132.85
M 826.2 833.4
Q 826.2 830.6 823.75 828.45 821.45 826.4 818.4 826.05 815.85 825.7 812.6 826.45 810.9 826.85 806.95 828.2 774.1 839.1 753.7 828.45 743.85 823.3 735.1 811.8 733.35 809.55 732.4 808.65 730.7 807 728.9 806.65 726.15 806.1 723.75 808.4 721.45 810.65 721.25 813.65 720.95 818.35 725.35 824.4 732.7 834.35 744.15 840.95 751.355078125 845.04375 759.3 847.35 759.6384765625 847.841015625 760.05 848.3 761.2 849.65 762.95 850.45 765.15 851.45 770 851.85 781.25 852.6 788.3 851.3 793.1708984375 850.4166015625 797.15 848.65 807.328125 846.703515625 817.4 842.5 826.2 838.9 826.2 833.4
M 1281.8 1075.95
Q 1280.15 1073.35 1278.65 1073.05 1276.45 1072.55 1274.95 1074.95 1273.7 1077 1273.5 1079.85 1272.95 1089.45 1276.55 1112.6 1279.75 1133.45 1277.85 1145.15 1276.95 1150.7 1277.05 1153.2 1277.25 1157.65 1279.95 1159.75 1282.55 1161.8 1286.3 1160.8 1289.85 1159.8 1291.95 1156.85 1293.75 1154.35 1294.45 1150.55 1294.95 1148.05 1295.15 1143.6 1296 1123.5 1293.5 1108.45 1290.4 1089.6 1281.8 1075.95
M 1224.3 1081.5
Q 1221.4 1078.25 1218.45 1076.8 1214.7 1075 1211.95 1076.75 1209.85 1078.1 1209.4 1081 1209 1083.65 1210.2 1086.2 1211.1 1088.2 1213.15 1090.45 1214.35 1091.7 1216.85 1094.2 1222.55 1100.2 1227.05 1109.55 1229.9 1115.4 1233.95 1126.9 1236.45 1133.85 1237.3 1137.8 1238.6 1143.95 1237.65 1148.95 1237.2 1151.25 1235.5 1156.05 1233.85 1160.6 1233.45 1163.15 1232.9 1167.1 1234.5 1170.55 1236.3 1174.35 1239.75 1175.05 1243.8 1175.85 1247.25 1171.95 1250.15 1168.65 1251.45 1163.65 1254.2 1153.05 1253.2 1141.35 1252.3 1130.3 1248.2 1119.4 1241.05 1100.35 1224.3 1081.5
M 987.8 1087.45
Q 985.6 1086.05 983.3 1085.65 980.65 1085.25 978.65 1086.35 976.3 1087.6 975.4 1090.6 974.55 1093.4 975.4 1096.15 976.6 1100.25 981.95 1105 986.7 1109.25 991.15 1111.75 994.8 1113.85 1003.05 1117 1009.05 1119.25 1012.35 1120.15 1018.7 1121.7 1030.4 1122.1 1040.35 1122.55 1045.65 1122.5 1054.1 1122.4 1060.85 1121.3 1076.2 1118.7 1094.35 1108.75 1099 1106.25 1100.95 1103.9 1102.6 1101.85 1103.15 1099.2 1103.65 1096.5 1102.8 1094.05 1101.9 1091.55 1099.7 1089.9 1097.5 1088.25 1094.95 1088.15 1092.7 1088.1 1090.1 1089.25 1088.75 1089.85 1085.65 1091.7 1068.15 1102.1 1047.3 1104.25 1026.45 1106.35 1007.25 1099.7 999.55 1097.05 995.2 1093.65 994.55 1093.15 991.6 1090.45 989.4 1088.45 987.8 1087.45
M 1202.9 837.25
Q 1206.85 834.3 1208.2 831 1209.4 828.1 1208.75 824.85 1208.1 821.6 1205.9 819.4 1203.6 817 1199.95 816.2 1196.6 815.45 1193.05 816.25 1187.7 817.4 1180.95 822.65 1168.2 832.6 1155.35 851.65 1152.15 856.4 1150.35 859.6 1142.65 872.9 1139.05 890.75 1137.9 896.7 1137.35 901.65 1136.63046875 908.484765625 1136.9 914.5 1136.4779296875 914.51484375 1136.05 914.5
L 1093.3 913.25
Q 1061.85 912.3 1046.2 911.55 1020.05 910.25 999.2 908.1 963.85 904.5 927.9 896.7 914.6 893.8 911.15 900.15 909.8 902.6 910.45 905.7 911.05 908.6 913.15 910.85 916.1 914.05 923 916.75 945.65 925.75 974.8 930.45 995.7 933.85 1028.4 936.05 1049.05 937.45 1074.9 938.65 1090.4 939.4 1121.45 940.65
L 1145.9 941.65
Q 1146.087109375 941.657421875 1146.25 941.65 1146.556640625 941.9400390625 1146.85 942.2 1149.2 944.25 1152 945.25 1155.05 946.3 1157.9 945.85 1162.05 945.2 1164.85 941.5 1167.65 937.85 1167.15 933.65 1166.9 931.35 1165.4 928.3 1163.65 924.9 1162.9 923.15 1159.9 916.2 1160.8 906.8 1161.45 900.45 1164.4 890.1 1167.4 879.8 1169.55 874.95 1172.5 868.4 1178 860.5 1186.95 847.75 1195.75 841.95 1198.1 840.4 1202.9 837.25
M 517.25 864.15
Q 515.7 865 514.75 866.75 513.85 868.4 513.7 870.35 513.5 873.25 515.1 877.6 519.7 890.7 528.6 900.5 533.3 905.5 537.4 906.25 540.15 906.8 542.65 905.45 545.3 904.05 545.8 901.5 546.35 898.55 543.95 895.5 543.1 894.45 541.7 893.2 540.1 891.8 539.3 891.05 533.85 885.85 531.45 879 530.3 875.2 529.7 873.35 528.65 869.95 527.35 867.95 525.65 865.35 522.8 864.15 519.75 862.85 517.25 864.15
M 1302.5 1333.6
Q 1300.35 1331.7 1298.75 1330.8 1296.45 1329.55 1294.4 1329.8 1291.05 1330.2 1289.45 1333.8 1289.1935546875 1334.3896484375 1289 1334.95 1287.4078125 1335.4388671875 1285.6 1336.2 1284.55 1336.65 1280.7 1338.55 1272.25 1342.55 1263.25 1344.95 1255.45 1346.75 1251.6 1347.7 1244.7 1349.4 1240.25 1351.5 1233.35 1354.7 1232.9 1359.55 1232.7 1362 1234.3 1364.2 1235.8 1366.3 1238.25 1367.4 1241.65 1368.95 1248.2 1368.55 1250.6837890625 1368.3826171875 1253.25 1368.05 1265 1379.9 1283.05 1387.3 1297.85 1393.35 1317.95 1396.85 1321.9 1397.55 1324.2 1397.7 1327.65 1397.9 1330.4 1397.35 1333.65 1396.7 1336.15 1394.9 1338.9 1392.9 1339.9 1390.05 1341.1 1386.85 1339.95 1382.75 1339.1 1379.8 1336.8 1375.7 1323.25 1351.7 1302.5 1333.6
M 1298.6 1352.05
Q 1311.6744140625 1364.2021484375 1320.2 1379.8 1302.7 1378.15 1286.05 1371.8 1277.7998046875 1368.63828125 1270.15 1364.45 1278.8501953125 1361.97421875 1288.35 1358 1292.55 1356.2 1294.8 1354.9 1296.9857421875 1353.5951171875 1298.6 1352.05
M 1329.1 1065.55
Q 1327.1 1065.7 1325.6 1067.35 1324.2 1068.95 1323.85 1071.05 1323.3 1073.9 1324.8 1079.15 1329.2 1095.25 1330.3 1100.4 1332.75 1112.45 1332.15 1122 1331.8 1128 1331.9 1129.6 1332.2 1133.9 1334.3 1136.35 1336.6 1139 1340.5 1139.05 1344.4 1139.1 1346.7 1136.5 1348.25 1134.75 1349 1132 1349.5 1130 1349.7 1126.85 1350.55 1112.45 1347.2 1098.2 1343.85 1084 1336.7 1071.45 1333.1 1065.2 1329.1 1065.55
M 1674.95 1117.05
Q 1679.75 1115.45 1682.2 1114.3 1686.05 1112.45 1688.35 1109.9 1691.65 1106.2 1691.7 1100.9 1691.75 1095.5 1688.25 1092.2 1686 1090.05 1682.6 1089.2 1679.5 1088.45 1676.05 1088.85 1673.2 1089.15 1669.7 1090.3 1668.3 1090.75 1663.5 1092.55 1646.2 1099 1632.3 1100.3 1617.2 1101.65 1601 1097.7 1586.25 1094.1 1571.5 1086.3 1558.75 1079.6 1544.9 1069.3 1534.75 1061.75 1520.3 1049.35 1516.9 1046.45 1514.35 1045.25 1510.75 1043.5 1507.75 1044.55 1505 1045.55 1503.6 1048.55 1503.288671875 1049.2072265625 1503.05 1049.85 1501.9287109375 1049.8748046875 1500.7 1050.05 1499.2673828125 1049.4064453125 1497.6 1049.35 1492.25 1049.15 1487.55 1054.1 1485.9 1055.8 1484.05 1058.6 1482 1061.85 1480.9 1063.4 1478 1067.75 1473.8 1072.6 1470.95 1075.9 1465.95 1081.15 1455.35 1092.5 1449.15 1098.8 1439.7 1108.35 1431.55 1115.65 1424.7 1121.55 1421.4 1124.65 1417.05 1128.65 1412.5 1133.35 1409.35 1136.7 1408.35 1138.75 1407.4501953125 1140.6265625 1407.4 1142.3 1406.441015625 1143.2892578125 1405.35 1144.4 1386.25 1164 1362.15 1184.3 1342.35 1200.9 1315.9 1220.7 1288.2 1241.45 1267.4 1254.75 1240.35 1272 1215.6 1283.05 1195.45 1292 1171.35 1299.3 1151.2 1305.4 1125.6 1311.05 1054.9 1326.6 996.3 1325.85 926.15 1325 870.75 1301.05 842.35 1288.75 812.75 1268.1 788.9 1251.4 760.3 1226.3 757.05 1223.5 754.75 1222.4 751.35 1220.75 748.55 1221.75 745.85 1222.7 744.6 1225.8 744.4486328125 1226.166015625 744.3 1226.5 741.3251953125 1223.8431640625 738.5 1221.2 735.35 1218.25 733 1217 729.6 1215.25 726.75 1216.2 721.8 1217.95 722.75 1224.55 723.55 1230.4 727.7 1235.4 740.25 1250.55 758.95 1265.9 771.6 1276.3 794.15 1292.15 847.1 1329.4 883.6 1347.85 917.9880859375 1365.2435546875 950.3 1373.45 952.0740234375 1375.0896484375 954.25 1376.5 951.848046875 1376.8369140625 950 1378.15 947.9 1379.55 947.25 1381.7 946.6 1383.75 947.45 1386.05 948.25 1388.15 950.05 1389.75 951.55 1391.15 953.85 1392.2 955.35 1392.9 958.05 1393.8 960.48125 1394.628515625 962.9 1395.4 962.682421875 1396.6701171875 963.2 1398.25 964 1400.6 966.1 1402.9 968.9 1405.85 975.3 1410.95 980.3 1414.95 982.9 1416.85 994.05 1425.05 1007.65 1431.5 1012 1433.6 1020.9 1437.4
L 1027.45 1440.2
Q 1036.15 1443.9 1040.65 1445.45 1041.119140625 1445.614453125 1041.6 1445.75 1042.4755859375 1446.7017578125 1043.5 1447.2 1044.7 1447.8 1046.95 1448.1 1050.4990234375 1448.6916015625 1054.7 1449.3 1059.61640625 1450.2744140625 1064.65 1450.8 1066.8953125 1452.823046875 1069.75 1453.75 1072.6 1454.7 1077.4 1454.7 1083.8 1454.75 1085.25 1454.9 1088.05 1452.45 1089.35 1451.2 1091.7 1448.95 1091.9 1446.75 1092.2 1443.65 1089 1440.95 1088.6716796875 1440.670703125 1088.3 1440.4 1088.9134765625 1437.723828125 1088.55 1434.55 1088 1430.1 1084.85 1423.65 1081.45 1416.8 1076 1408.9 1072.9 1404.4 1065.75 1395
L 1058.95 1386.05
Q 1058.511328125 1385.4830078125 1058.1 1384.95 1088.4482421875 1381.7861328125 1132.05 1372.65 1133.35 1377.2 1137.8 1380.2 1141.95 1383 1147.05 1383.4 1151.45 1383.75 1156.75 1382.5 1160.4 1381.65 1166.15 1379.5 1209.8 1363.25 1259.15 1332.4 1289.25 1313.55 1345.45 1272.8 1352.4 1267.75 1355.75 1263.35 1360.4 1257.2 1359.2 1251.2 1359.1208984375 1250.810546875 1359 1250.4 1360.5609375 1249.0501953125 1362.1 1247.65 1398.3 1214.75 1437.25 1169.35 1463.85 1138.35 1505.5 1084.65 1509.25 1079.8 1510.9 1077.15 1512.75234375 1074.1658203125 1513.8 1071.35 1517.2216796875 1074.9421875 1521.2 1078.6 1526.85 1083.85 1535.35 1090.7 1551.9 1103.95 1564.15 1110.8 1584.45 1122.05 1607.95 1125.3 1631.5 1128.55 1654.05 1123.25 1661.65 1121.5 1674.95 1117.05
M 1061.15 1417.05
Q 1065.182421875 1422.4263671875 1072.4 1432.9 1069.912890625 1432.250390625 1066.8 1432.15 1064.65 1432.05 1060.45 1432.3 1056.15 1432.5 1054.1 1432.45 1048.6 1432.3 1048.25 1432.35 1047.023828125 1432.4056640625 1045.95 1432.6 1043.1904296875 1431.834375 1040.05 1430.9 1027.7 1427.25 1020.45 1424.55 1009.85 1420.65 1001.8 1416.1 992.1150390625 1410.5837890625 979.65 1400 1011.84140625 1407.655859375 1045.5 1405.9 1048.946875 1405.7314453125 1051.5 1405.05 1056.18046875 1410.4240234375 1061.15 1417.05
M 1029.9 1386.95
Q 1034.361328125 1386.8255859375 1038.9 1386.55 1038.9265625 1386.8060546875 1038.95 1387.05 1034.408984375 1387.0876953125 1029.9 1386.95
M 1637.2 878.35
Q 1642.4 879.4 1650.85 884 1660.05 888.95 1664.35 890.2 1668.95 891.5 1673.1 890.8 1677.85 890 1680.25 886.7 1682.3 883.9 1682 879.9 1681.75 876.2 1679.55 873.1 1676.2 868.35 1667.85 864.7 1655.2 859.35 1640.3 858.7 1626.45 858.15 1612.05 861.65 1594.75 865.9 1581.3 875.15 1566.45 885.3 1559.35 899.7 1557.5 903.5 1554.6 911.6 1552.3 918.15 1551.7 921.7 1550.95 925.7 1550.85 933.9 1550.7 944.05 1551.1 949.25 1551.8 957.8 1554.15 964.15 1556.35 970.15 1559.95 972.6 1562.2 974.15 1564.9 974.2 1567.75 974.2 1569.6 972.5 1572.9 969.4 1571.4 962.35 1570.9 960 1569 953.9 1567.35 948.6 1566.9 945.35 1566.4 941.8 1566.65 936.85 1567.5 922.05 1574.4 909.3 1581.7 895.9 1593.7 888.7 1601.45 884.1 1614.95 880.5 1621.55 878.7 1626 878.1 1632.15 877.35 1637.2 878.35 Z"/>
</g>
</defs>

<g transform="matrix( 1, 0, 0, 1, 0,0) ">
<use xlink:href="#Layer19_0_FILL"/>
</g>

<g transform="matrix( 1, 0, 0, 1, 0,0) ">
<use xlink:href="#Layer18_0_FILL"/>
</g>
</svg>
