
<svg xmlns="http://www.w3.org/2000/svg" version="1.1" xmlns:xlink="http://www.w3.org/1999/xlink" preserveAspectRatio="none" x="0px" y="0px" width="2000px" height="2000px" viewBox="0 0 2000 2000">
<defs>
<g id="Layer19_0_FILL">
<path fill="#000000" stroke="none" d="
M 1765.45 1024
Q 1756 1017.95 1744.35 1015.5 1733.95 1013.25 1721.75 1013.8 1711.6 1014.25 1699.15 1016.7 1668.25 1022.75 1639.7 1037 1611.2 1051.25 1587.75 1072.35 1579.7 1079.6 1574.6 1085.8 1570.5802734375 1090.73046875 1567.75 1095.7 1564.709765625 1092.9162109375 1560.75 1090 1541.1 1075.65 1513.4 1066.25 1492.7 1059.25 1461.3 1053.35 1450.6 1051.3 1443.8 1050.45 1434.1 1049.2 1426.1 1049.35 1413.95 1049.65 1409.15 1055.15 1406.6 1058.05 1405.95 1062.35 1405.35 1066.25 1406.4 1070.4 1407.35 1073.95 1409.55 1077.85 1411 1080.4 1413.95 1084.65 1425.2 1100.8 1434.35 1109.8 1444.05 1119.3 1458.4 1128.25 1467.35 1133.8 1485.1 1143.05 1496 1148.8 1502 1150.95 1508.7 1153.4 1520 1155.6 1532.7076171875 1158.1494140625 1545.5 1160.1 1545.4744140625 1166.4587890625 1546.05 1170.2 1546.25 1171.4 1546.75 1174.15 1547.25 1176.7 1547.45 1178.1 1547.8 1180.9 1548 1186.5 1548.25 1189.7 1549.05 1194.25 1550.3 1201.4 1553.55 1215
L 1555.15 1221.7
Q 1555.95 1224.75 1556.25 1226.95 1556.55 1229.25 1556.9 1233.75 1557.1 1235.25 1558.55 1241.55 1559.4 1245.4 1560.5 1253.2
L 1562.15 1264.95
Q 1562.95 1270.35 1563.45 1273 1564.2 1276.4 1565.1 1279.75
L 1566.15 1283.85
Q 1549.1126953125 1285.948046875 1530.15 1292.85 1520.9 1296.3 1514.1 1299.85 1505.75 1304.25 1499.65 1309.6 1494.95 1313.6 1493.6 1317.4 1492.75 1319.9 1493.25 1322.35 1493.8 1325.05 1495.65 1326.55 1497.75 1328.2 1500.85 1327.95 1503.65 1327.7 1506.2 1326.05 1508.05 1324.85 1510.4 1322.4 1514 1318.7 1514.35 1318.35 1518.4 1314.55 1524.6 1311.75 1528.95 1309.7 1536.15 1307.5 1550.95 1302.95 1562.55 1301.25 1577 1299.1 1589.35 1300.85 1613.25 1304.2 1636.85 1322.55 1646.2 1329.9 1656.3 1340.35 1663.3 1347.6 1674 1360
L 1677.2 1359.3
Q 1675 1347.85 1669.35 1337.85 1664.9 1329.85 1657.6 1321.8 1652 1315.55 1643.3 1307.85 1634.35 1299.9 1627.95 1295.9 1627.69453125 1295.737890625 1627.45 1295.55 1627.8943359375 1294.8005859375 1628.25 1294.35 1629.6 1292.7 1631.95 1291.4 1633.4 1290.6 1636.35 1289.45 1644.45 1286.4 1648.2 1285.2 1654.85 1283 1660.3 1282.05 1665.15 1281.2 1671.2 1280.9 1675.4 1280.7 1682.2 1280.7 1688.8 1280.7 1692.7 1280.95 1698.4 1281.3 1703 1282.35 1712.75 1284.55 1724.65 1291.95 1746.35 1305.35 1757.8 1323.25 1760.95 1328.15 1766.6 1338.45 1771.95 1347.25 1777.55 1351.65 1779.2 1352.95 1780.95 1353.3 1783 1353.7 1784 1352.35 1785.45 1346.65 1783.6 1339.55 1782.4 1335 1778.85 1327.1 1774.85 1318.3 1772.3 1314.2 1769.1 1309.15 1763.7 1303.15 1756.894921875 1295.4626953125 1750.1 1289.55 1750.22578125 1289.4423828125 1750.3 1289.4 1754.85 1286.8 1762.75 1287.55 1777.35 1288.8 1791.2 1296.7 1804.25 1304.15 1814.4 1316.15 1819.15 1321.8 1821.8 1323.9 1826.45 1327.65 1831 1327.2 1833.3 1324.5 1832.4 1320.15 1831.7 1316.7 1829.15 1312.8 1822.1 1301.95 1812.9 1293.65 1803.2 1284.85 1792.05 1279.7 1780.35 1274.35 1767.8 1273.3 1754.75 1272.25 1743 1276.05 1738.9541015625 1277.36484375 1736.05 1279.15 1734.1712890625 1277.9921875 1732.2 1276.9 1731.9060546875 1276.10234375 1731.3 1275.15 1728.92265625 1272.062890625 1727.45 1269.95 1727.2814453125 1267.321484375 1726.45 1264.4 1725.3 1260.15 1721.85 1253.1
L 1699.35 1207.1
Q 1697.998828125 1204.5263671875 1695.65 1200.3 1696.828515625 1200.95 1698.05 1201.6 1703.65 1204.55 1713.8 1209.2 1719.2 1211.65 1721.6 1212.3 1723.35 1212.8 1726.05 1213.25 1727.55 1213.5 1730.5 1214 1731.85 1214.25 1736.5 1215.4 1740.2 1216.35 1742.55 1216.65 1750.25 1217.65 1761.5 1214.9 1766.7 1213.7 1770.3 1212.3 1774.95 1210.5 1778.2 1207.9 1781.95 1204.9 1783.85 1200.75 1785.95 1196.25 1785.1 1191.95 1784.75 1190.2 1783.65 1187.55 1781.4 1182.15 1777.9 1175.9 1775.744921875 1172.0115234375 1771.8 1165.55 1773.532421875 1165.6009765625 1775.2 1165.55 1791.2 1165.05 1802.45 1158.1 1808.75 1154.2 1811.1 1149.3 1813.9 1143.45 1812 1134.35 1810.45 1126.65 1806.75 1119.6 1803.1 1112.55 1797.7 1106.8 1794.45 1103.4 1787.15 1097.4 1782.5 1093.55 1779.6 1091.7 1776.8470703125 1089.926953125 1773.1 1088.25 1776.7470703125 1085.637109375 1779.35 1082.55 1786.5 1074 1786.85 1061.75 1787.2 1049.95 1781.2 1039.9 1775.6 1030.5 1765.45 1024
M 1724.55 1034.2
Q 1733.9 1034.05 1740.5 1035.35 1749.05 1037 1754.9 1041.3 1761.55 1046.2 1763.75 1054.35 1766 1062.9 1761.45 1069.05 1759.2 1072.1 1755.2 1074.35 1752.1 1076.1 1747.45 1077.6 1737.5 1080.8 1714.05 1084.15 1692.2 1087.3 1680.95 1091.55 1674.9 1093.85 1674.05 1097.35 1673.25 1100.4 1675.9 1103.25 1678.2 1105.7 1681.85 1106.9 1687.2 1108.7 1694 1108.9 1699.1 1109.05 1706.45 1108.25 1731.15 1105.55 1754.5 1097.35 1757.7302734375 1096.214453125 1760.5 1095.05 1760.5994140625 1095.114453125 1760.7 1095.15 1773.1 1099.4 1783.55 1107.85 1790.45 1113.45 1794.9 1119.9 1799.9 1127.2 1801.3 1134.9 1802.05 1138.7 1801.15 1141.15 1799.05 1146.9 1788.7 1147.95 1770.85 1149.75 1748.65 1144 1736.55 1140.85 1709.8 1130.85 1701.25 1127.65 1696.05 1126.55 1688.25 1124.95 1682.05 1126.35 1679 1127.05 1678.05 1128.7 1677.05 1130.5 1678.35 1132.7 1679.4 1134.5 1681.6 1136.1 1690.6 1142.75 1701.1 1147 1703.6 1148 1708.4 1149.6 1713.4 1151.35 1715.65 1152.2 1717.6 1152.95 1723.3 1155.3 1728.05 1157.25 1730.95 1158.25 1736.55 1160.2 1746.85 1162.4 1753.119140625 1163.6615234375 1758.05 1164.4 1758.1197265625 1164.4732421875 1758.2 1164.55 1758.85 1165.15 1760.25 1166.25 1761.8 1167.65 1763.75 1170.75 1770.25 1181.45 1772.1 1193.85 1770.7 1196.25 1767.55 1197.6 1765.3 1198.55 1761.5 1199.15 1756 1200 1751.9 1200.25 1746.7 1200.5 1742.35 1199.85 1736.2 1198.95 1728.45 1195.5 1719.55 1191.25 1715.1 1189.2
L 1710.8 1187.25
Q 1708.25 1186.05 1706.55 1185.15 1698.3 1180.1 1694.15 1177.6 1686.8 1173.2 1681.05 1172.15 1680.3998046875 1172.0287109375 1679.8 1171.95
L 1678.45 1169.55
Q 1676.15 1165.55 1675.4 1163.05 1675.3 1162.65 1674.6 1159.75 1674.1 1157.8 1673.55 1156.6 1672.2 1153.75 1669.05 1152.55 1665.75 1151.35 1663.35 1153.15 1661 1154.9 1660.45 1159.05 1659.75 1164.75 1662.8 1169.75 1663.5 1170.95 1665.1 1172.95 1666.75 1175.1 1667.4 1176.1 1668.65 1178.1 1670.6 1182.5 1671.85 1184.95 1674.85 1189.55 1676.2 1191.9 1678.6 1196.7
L 1683.25 1206.2
Q 1689.45 1218.8 1692.7 1225 1697.35 1233.9 1698.65 1236.4 1700.1 1239.25 1702.8 1245.05
L 1706.1 1252
Q 1710.25 1260.65 1712.95 1264.35 1713.98046875 1265.7453125 1715.1 1267 1715.2810546875 1267.4078125 1715.5 1267.8 1715.9388671875 1268.6482421875 1716.7 1269.75 1705.826953125 1265.7416015625 1693.7 1263.95 1662.9 1259.4 1635.4 1270.75 1621.05 1276.65 1614 1285.2 1612.783984375 1286.6591796875 1611.9 1288.15 1608.446484375 1286.94375 1604.8 1286 1593.675 1283.137890625 1581.65 1283 1581.9580078125 1279.321875 1580.75 1273.05
L 1579.35 1265.4
Q 1578.45 1260.6 1578.25 1258.2 1578.15 1256.7 1578.15 1253.45 1578.15 1250.35 1578 1248.7 1577.8 1246.35 1577.2 1243.2 1576.45 1239.55 1576.05 1237.75 1575 1233.1 1574.25 1228.3 1572.75 1217.45 1571.75 1212.1 1571.55 1211.1 1569.25 1200.45 1564.6 1179.35 1563.4 1157.6 1563.2 1154.15 1563 1152.65 1562.6 1149.95 1561.7 1147.95 1560.6 1145.55 1558.7 1144.05 1556.55 1142.4 1554.2 1142.45 1551.9 1142.5 1549.9 1144.1 1549.5552734375 1144.3794921875 1549.25 1144.65 1548.8306640625 1144.618359375 1548.4 1144.55 1537.95 1142.85 1531.75 1141.55 1522.65 1139.6 1515.45 1137.05 1506.95 1134.05 1494.4 1127.65 1481.85 1121.35 1473.5 1116.45 1462.4 1109.9 1453.9 1103.25 1433.05 1086.9 1424.05 1067.05 1433.55 1065.85 1445.4 1067.6 1452.7 1068.7 1466.6 1072.05 1492.55 1078.35 1505.75 1082.65 1527.15 1089.7 1542.45 1099.1 1547.5 1102.15 1557.25 1108.75 1561.862890625 1111.6853515625 1565.9 1113.75 1566.516796875 1114.25625 1567.3 1114.55 1567.4697265625 1114.609375 1567.65 1114.65 1570.331640625 1115.9796875 1572.75 1116.9 1576.75 1118.4 1578.5 1116.8 1580.6 1114.85 1578.85 1110.6 1578.358203125 1109.391015625 1577.75 1108.2 1578.023046875 1107.8099609375 1578.3 1107.4 1586.9 1094.5 1602.25 1082.65 1611.8 1075.25 1631.4 1063.3 1646.3 1054.25 1653.9 1050.6 1660.15 1047.6 1666.65 1045.2 1694.45 1034.75 1724.55 1034.2 Z"/>

<path fill="#6699CC" stroke="none" d="
M 1740.5 1035.35
Q 1733.9 1034.05 1724.55 1034.2 1694.45 1034.75 1666.65 1045.2 1660.15 1047.6 1653.9 1050.6 1646.3 1054.25 1631.4 1063.3 1611.8 1075.25 1602.25 1082.65 1586.9 1094.5 1578.3 1107.4 1578.023046875 1107.8099609375 1577.75 1108.2 1578.358203125 1109.391015625 1578.85 1110.6 1580.6 1114.85 1578.5 1116.8 1576.75 1118.4 1572.75 1116.9 1570.331640625 1115.9796875 1567.65 1114.65 1567.4697265625 1114.609375 1567.3 1114.55 1566.516796875 1114.25625 1565.9 1113.75 1561.862890625 1111.6853515625 1557.25 1108.75 1547.5 1102.15 1542.45 1099.1 1527.15 1089.7 1505.75 1082.65 1492.55 1078.35 1466.6 1072.05 1452.7 1068.7 1445.4 1067.6 1433.55 1065.85 1424.05 1067.05 1433.05 1086.9 1453.9 1103.25 1462.4 1109.9 1473.5 1116.45 1481.85 1121.35 1494.4 1127.65 1506.95 1134.05 1515.45 1137.05 1522.65 1139.6 1531.75 1141.55 1537.95 1142.85 1548.4 1144.55 1548.8306640625 1144.618359375 1549.25 1144.65 1549.5552734375 1144.3794921875 1549.9 1144.1 1551.9 1142.5 1554.2 1142.45 1556.55 1142.4 1558.7 1144.05 1560.6 1145.55 1561.7 1147.95 1562.6 1149.95 1563 1152.65 1563.2 1154.15 1563.4 1157.6 1564.6 1179.35 1569.25 1200.45 1571.55 1211.1 1571.75 1212.1 1572.75 1217.45 1574.25 1228.3 1575 1233.1 1576.05 1237.75 1576.45 1239.55 1577.2 1243.2 1577.8 1246.35 1578 1248.7 1578.15 1250.35 1578.15 1253.45 1578.15 1256.7 1578.25 1258.2 1578.45 1260.6 1579.35 1265.4
L 1580.75 1273.05
Q 1581.9580078125 1279.321875 1581.65 1283 1593.675 1283.137890625 1604.8 1286 1608.446484375 1286.94375 1611.9 1288.15 1612.783984375 1286.6591796875 1614 1285.2 1621.05 1276.65 1635.4 1270.75 1662.9 1259.4 1693.7 1263.95 1705.826953125 1265.7416015625 1716.7 1269.75 1715.9388671875 1268.6482421875 1715.5 1267.8 1715.2810546875 1267.4078125 1715.1 1267 1713.98046875 1265.7453125 1712.95 1264.35 1710.25 1260.65 1706.1 1252
L 1702.8 1245.05
Q 1700.1 1239.25 1698.65 1236.4 1697.35 1233.9 1692.7 1225 1689.45 1218.8 1683.25 1206.2
L 1678.6 1196.7
Q 1676.2 1191.9 1674.85 1189.55 1671.85 1184.95 1670.6 1182.5 1668.65 1178.1 1667.4 1176.1 1666.75 1175.1 1665.1 1172.95 1663.5 1170.95 1662.8 1169.75 1659.75 1164.75 1660.45 1159.05 1661 1154.9 1663.35 1153.15 1665.75 1151.35 1669.05 1152.55 1672.2 1153.75 1673.55 1156.6 1674.1 1157.8 1674.6 1159.75 1675.3 1162.65 1675.4 1163.05 1676.15 1165.55 1678.45 1169.55
L 1679.8 1171.95
Q 1680.3998046875 1172.0287109375 1681.05 1172.15 1686.8 1173.2 1694.15 1177.6 1698.3 1180.1 1706.55 1185.15 1708.25 1186.05 1710.8 1187.25
L 1715.1 1189.2
Q 1719.55 1191.25 1728.45 1195.5 1736.2 1198.95 1742.35 1199.85 1746.7 1200.5 1751.9 1200.25 1756 1200 1761.5 1199.15 1765.3 1198.55 1767.55 1197.6 1770.7 1196.25 1772.1 1193.85 1770.25 1181.45 1763.75 1170.75 1761.8 1167.65 1760.25 1166.25 1758.85 1165.15 1758.2 1164.55 1758.1197265625 1164.4732421875 1758.05 1164.4 1753.119140625 1163.6615234375 1746.85 1162.4 1736.55 1160.2 1730.95 1158.25 1728.05 1157.25 1723.3 1155.3 1717.6 1152.95 1715.65 1152.2 1713.4 1151.35 1708.4 1149.6 1703.6 1148 1701.1 1147 1690.6 1142.75 1681.6 1136.1 1679.4 1134.5 1678.35 1132.7 1677.05 1130.5 1678.05 1128.7 1679 1127.05 1682.05 1126.35 1688.25 1124.95 1696.05 1126.55 1701.25 1127.65 1709.8 1130.85 1736.55 1140.85 1748.65 1144 1770.85 1149.75 1788.7 1147.95 1799.05 1146.9 1801.15 1141.15 1802.05 1138.7 1801.3 1134.9 1799.9 1127.2 1794.9 1119.9 1790.45 1113.45 1783.55 1107.85 1773.1 1099.4 1760.7 1095.15 1760.5994140625 1095.114453125 1760.5 1095.05 1757.7302734375 1096.214453125 1754.5 1097.35 1731.15 1105.55 1706.45 1108.25 1699.1 1109.05 1694 1108.9 1687.2 1108.7 1681.85 1106.9 1678.2 1105.7 1675.9 1103.25 1673.25 1100.4 1674.05 1097.35 1674.9 1093.85 1680.95 1091.55 1692.2 1087.3 1714.05 1084.15 1737.5 1080.8 1747.45 1077.6 1752.1 1076.1 1755.2 1074.35 1759.2 1072.1 1761.45 1069.05 1766 1062.9 1763.75 1054.35 1761.55 1046.2 1754.9 1041.3 1749.05 1037 1740.5 1035.35 Z"/>
</g>

<g id="Layer18_0_FILL">
<path fill="#000000" fill-opacity="0.2" stroke="none" d="
M 1422.25 1077.95
Q 1424.3 1080.4 1428.6 1084.2 1455.45 1107.75 1481.95 1123.65 1490.2 1128.55 1500.9 1134.2 1507 1137.45 1520.2 1144.15
L 1535.05 1151.65
Q 1538.75 1153.5 1540.5 1154.25 1543.65 1155.6 1546.25 1156.15 1552.2125 1157.4369140625 1556.6 1155.45 1556.5849609375 1156.3947265625 1556.6 1157.45 1556.85 1167.4 1558.1 1179.8 1558.85 1187.3 1560.7 1202.05
L 1570 1276.35
Q 1570.65 1281.2 1571 1283.2 1571.7 1287 1572.8 1289.85 1575.55 1297.25 1581.25 1300.35 1584.4 1302.05 1587.9 1301.9 1591.6 1301.75 1594.2 1299.6 1595.9705078125 1298.1466796875 1597 1295.95
L 1606.6 1298.9
Q 1610.7 1300.2 1612.9 1300.65 1616.45 1301.4 1619.35 1301.2 1622.8 1300.95 1625.6 1299.25 1628.65 1297.4 1629.75 1294.5 1630.95 1291.55 1629.9 1288.1 1629.8193359375 1287.837890625 1629.7 1287.55 1632.8677734375 1286.372265625 1636.65 1285.05 1640.25 1283.8 1647.4 1281.35 1659.8 1276.95 1663.85 1275.75 1671.7 1273.45 1679.5 1272.2 1688.5 1270.7 1693.8 1272.3 1695.35 1272.75 1699.9 1274.85 1703.65 1276.6 1706.1 1276.95 1709.4 1277.45 1712.65 1276.2 1715.85 1274.95 1717.95 1272.35 1720.1 1269.75 1720.7 1266.35 1721.3 1262.95 1720.15 1259.8 1717.65 1252.7 1707.65 1248.85 1698.2 1245.2 1686.2 1245.6 1676.6 1245.95 1664.35 1248.95 1654.1 1251.45 1634.1 1258.05 1626.1 1260.7 1622.05 1262.25 1615.45 1264.85 1610.6 1267.75 1606.42109375 1270.2263671875 1603.8 1272.95 1601.0666015625 1272.30859375 1598.4 1271.85 1597.6166015625 1271.715234375 1596.85 1271.6 1595.341796875 1259.4921875 1594.9 1256.4 1593.85 1248.2 1592.5 1239.2 1588.55 1213.05 1583 1184.05 1580.8 1172.45 1579.1 1166.1 1576.5 1156.3 1573 1148.9 1570.35 1143.25 1566.9 1142.3 1565.281640625 1141.846875 1563.65 1142.3 1563.3154296875 1140.20546875 1562.2 1138.3 1560.55 1135.5 1557.15 1133.2 1554.95 1131.75 1550.55 1129.75 1534.25 1122.2 1523.55 1116.85 1509 1109.6 1497.25 1102.8 1471 1087.6 1436.3 1061.2 1433.25 1058.85 1431.3 1057.9 1428.3 1056.45 1425.7 1056.7 1421.45 1057.15 1419.15 1061.6 1417 1065.85 1418.15 1070.3 1419.1 1074.1 1422.25 1077.95
M 1721.9 1071.75
Q 1716.45 1072.9 1704.65 1074.95
L 1687.4 1077.95
Q 1684 1078.55 1682.15 1079.2 1679.35 1080.2 1677.75 1082 1676.15 1083.85 1675.9 1086.3 1675.5 1089.6 1677.85 1092.6 1680 1095.45 1683.4 1096.65 1686.35 1097.75 1690.2 1097.75 1692.8 1097.75 1697.1 1097.2 1723.7 1094 1749.8 1086.65 1759.3 1083.95 1764.85 1081.6 1770.45 1079.2 1778 1074.85 1781.95 1072.55 1784.2 1070.9 1787.4 1068.45 1789.3 1065.75 1792.25 1061.45 1791.3 1057.7 1790.75 1055.5 1788.8 1054 1786.9 1052.5 1784.6 1052.45 1783.25 1052.45 1781.6 1053 1780.8 1053.25 1778.75 1054.1 1752.25 1065.6 1721.9 1071.75
M 1682.45 1127.7
Q 1683.85 1132.55 1689.1 1136.1 1692.45 1138.3 1699.05 1140.5 1742.4 1155 1777.55 1153 1786 1152.55 1790.9 1150.75 1798.15 1148.2 1801.5 1142.65 1802.85 1140.4 1802.45 1138.7 1802.15 1137.15 1800.15 1135.65 1798.15 1134.25 1795.2 1133.55 1793.25 1133.05 1789.75 1132.6 1786.75 1132.25 1766.75 1130.1 1752.75 1128.6 1743.75 1127.2 1721.5 1123.8 1700 1117.45 1695.15 1116 1692.3 1115.85 1687.95 1115.6 1685.25 1117.75 1683.15 1119.4 1682.45 1122.25 1681.7 1124.95 1682.45 1127.7
M 1670.75 1156.3
Q 1667.2 1156.3 1664.55 1158.2 1661.85 1160.2 1661.1 1163.7 1660.3 1167.25 1662.15 1169.95 1662.95 1171.15 1664.4 1172.25 1665.15 1172.8 1667.15 1174.05
L 1691.5 1188.7
Q 1696.8 1191.9 1700.2 1193.8 1711.7 1200.2 1727.85 1205.95 1737.6 1209.5 1744.2 1210.5 1751.75 1211.6 1761.75 1210.75 1767.3 1210.4 1770.4 1209.05 1775.15 1206.95 1776.3 1202.85 1777.1 1200.15 1775.85 1197.25 1774.65 1194.5 1772.2 1192.7 1768.2 1189.75 1761.1 1189.5 1759.65 1189.45 1755.3 1189.6 1751.65 1189.65 1749.45 1189.5 1743.25 1189.1 1733.4 1185.6 1711.25 1177.8 1690.35 1166.8 1684.9 1163.9 1682.3 1161.9 1680.65 1160.55 1679.8 1159.85 1678.25 1158.6 1677.1 1157.95 1674.15 1156.25 1670.75 1156.3 Z"/>
</g>
</defs>

<g transform="matrix( 1, 0, 0, 1, 0,0) ">
<use xlink:href="#Layer19_0_FILL"/>
</g>

<g transform="matrix( 1, 0, 0, 1, 0,0) ">
<use xlink:href="#Layer18_0_FILL"/>
</g>
</svg>
