
<svg xmlns="http://www.w3.org/2000/svg" version="1.1" xmlns:xlink="http://www.w3.org/1999/xlink" preserveAspectRatio="none" x="0px" y="0px" width="2000px" height="2000px" viewBox="0 0 2000 2000">
<defs>
<g id="Layer19_0_FILL">
<path fill="#000000" stroke="none" d="
M 1425 1513.95
Q 1426.7072265625 1515.862109375 1428.95 1517.5 1428.9146484375 1518.0853515625 1428.85 1518.7 1425.15 1553.7 1435.5 1589.3 1445.55 1623.85 1467.1 1653.15 1487.85 1681.35 1517.85 1703 1546.6 1723.75 1580.95 1736.35 1609.2 1746.7 1637.2 1750.05 1667.2 1753.6 1694.8 1748.75 1724.05 1743.65 1749.1 1729.2 1774.2810546875 1714.6873046875 1790.95 1693.2 1826.596484375 1709.5669921875 1861.9 1727.05 1872.35 1732.2 1876.55 1727.6 1879 1724.9 1877.9 1720.4 1877.05 1716.95 1874.25 1712.8
L 1790.1 1587.35
Q 1788.25 1584.55 1786.65 1583.15 1784.4 1581.15 1782 1581.2 1779.3 1581.3 1777.5 1583.9 1775.75 1586.3 1775.95 1589.25 1776.1 1591.75 1777.5 1594.55 1778.35 1596.3 1780.45 1599.35
L 1846.1 1696.2
Q 1693.86796875 1635.490625 1549.4 1558.45 1548.7880859375 1558.1521484375 1548.15 1557.8 1527.98203125 1547.0408203125 1507.95 1535.95 1485.701953125 1523.615234375 1476.65 1518.8 1475.64609375 1516.377734375 1474.35 1515.6 1473.15 1514.85 1471.6 1515.15 1470.9291015625 1515.2841796875 1470.3 1515.55 1455.6328125 1508.0978515625 1443.15 1503 1442.711328125 1499.3427734375 1440.2 1498.6 1438.8 1498.2 1437.2 1499 1436.238671875 1499.517578125 1435.35 1500.4 1433.04375 1499.926953125 1430.95 1499.95 1425.2 1500.05 1423 1504.05 1420.45 1508.8 1425 1513.95
M 1452.3 1582.65
Q 1442.93671875 1553.523828125 1442.55 1524.25 1454.0251953125 1529.4177734375 1467.7 1536.15 1467.987109375 1537.2599609375 1468.3 1538.5
L 1474.45 1562.25
Q 1481.55 1589.95 1485.85 1604 1489.5 1615.6 1492.85 1625 1496.1 1634.15 1498.85 1640.45 1501.25 1646.1 1506.45 1657.2 1511 1667.2 1513.15 1674.25 1513.297265625 1674.7166015625 1513.45 1675.3 1500.208203125 1663.71484375 1489.05 1650.1 1464.35 1620 1452.3 1582.65
M 1492.45 1569.3
Q 1487.5884765625 1553.159765625 1485.1 1544.85 1511.2611328125 1558.225 1544.2 1576.3 1545.0650390625 1580.1390625 1546.25 1585.1
L 1549.9 1600.2
Q 1553.05 1612.95 1554.25 1617.25 1556.5 1624.95 1560.65 1637.15 1569.5 1663.3 1575.95 1680.1 1584.37734375 1702.1626953125 1592.95 1720 1569.3599609375 1712.422265625 1547.65 1699.75 1541.0529296875 1695.9033203125 1534.8 1691.7 1535.220703125 1691.2837890625 1535.55 1690.8 1537.4 1688.1 1536.8 1684 1536.35 1681.15 1534.5 1676.9
L 1511 1622.2
Q 1501.35 1597.95 1492.45 1569.3
M 1670.25 1682.65
Q 1669.15 1679.65 1664.1 1666.5
L 1651.65 1634.05
Q 1651.2916015625 1633.1111328125 1650.95 1632.2 1654.211328125 1633.7416015625 1657.2 1635.1 1668.95 1640.4 1685.6 1647.4 1695.1 1651.4 1714.1 1659.35 1742.7056640625 1671.4095703125 1771.1 1684.15 1770.253125 1685.121484375 1769.25 1686.25 1756 1701 1737.75 1711.4 1720.25 1721.3 1700.1 1726.2 1693.653125 1727.75546875 1687 1728.8
L 1670.25 1682.65
M 1638.35 1626.15
L 1651.45 1664.8
Q 1662.25 1696.85 1668.3 1712.15 1670.75 1718.45 1673.7 1725.4 1674.842578125 1728.1203125 1675.9 1730.15 1649.1392578125 1732.5564453125 1619.65 1726.85 1613.6763671875 1725.6943359375 1607.8 1724.25 1607.717578125 1721.6572265625 1606.2 1718.05 1588.4 1674.35 1573.3 1631.25
L 1556.55 1583.1
Q 1607.02109375 1610.725 1638.35 1626.15 Z"/>

<path fill="#FFFFFF" stroke="none" d="
M 1651.45 1664.8
L 1638.35 1626.15
Q 1607.02109375 1610.725 1556.55 1583.1
L 1573.3 1631.25
Q 1588.4 1674.35 1606.2 1718.05 1607.717578125 1721.6572265625 1607.8 1724.25 1613.6763671875 1725.6943359375 1619.65 1726.85 1649.1392578125 1732.5564453125 1675.9 1730.15 1674.842578125 1728.1203125 1673.7 1725.4 1670.75 1718.45 1668.3 1712.15 1662.25 1696.85 1651.45 1664.8
M 1664.1 1666.5
Q 1669.15 1679.65 1670.25 1682.65
L 1687 1728.8
Q 1693.653125 1727.75546875 1700.1 1726.2 1720.25 1721.3 1737.75 1711.4 1756 1701 1769.25 1686.25 1770.253125 1685.121484375 1771.1 1684.15 1742.7056640625 1671.4095703125 1714.1 1659.35 1695.1 1651.4 1685.6 1647.4 1668.95 1640.4 1657.2 1635.1 1654.211328125 1633.7416015625 1650.95 1632.2 1651.2916015625 1633.1111328125 1651.65 1634.05
L 1664.1 1666.5
M 1485.1 1544.85
Q 1487.5884765625 1553.159765625 1492.45 1569.3 1501.35 1597.95 1511 1622.2
L 1534.5 1676.9
Q 1536.35 1681.15 1536.8 1684 1537.4 1688.1 1535.55 1690.8 1535.220703125 1691.2837890625 1534.8 1691.7 1541.0529296875 1695.9033203125 1547.65 1699.75 1569.3599609375 1712.422265625 1592.95 1720 1584.37734375 1702.1626953125 1575.95 1680.1 1569.5 1663.3 1560.65 1637.15 1556.5 1624.95 1554.25 1617.25 1553.05 1612.95 1549.9 1600.2
L 1546.25 1585.1
Q 1545.0650390625 1580.1390625 1544.2 1576.3 1511.2611328125 1558.225 1485.1 1544.85 Z"/>

<path fill="#131313" stroke="none" d="
M 1442.55 1524.25
Q 1442.93671875 1553.523828125 1452.3 1582.65 1464.35 1620 1489.05 1650.1 1500.208203125 1663.71484375 1513.45 1675.3 1513.297265625 1674.7166015625 1513.15 1674.25 1511 1667.2 1506.45 1657.2 1501.25 1646.1 1498.85 1640.45 1496.1 1634.15 1492.85 1625 1489.5 1615.6 1485.85 1604 1481.55 1589.95 1474.45 1562.25
L 1468.3 1538.5
Q 1467.987109375 1537.2599609375 1467.7 1536.15 1454.0251953125 1529.4177734375 1442.55 1524.25 Z"/>
</g>

<g id="Layer18_0_FILL">
<path fill="#000000" fill-opacity="0.2" stroke="none" d="
M 1492.2 1532.25
Q 1487.6 1530.45 1483.75 1530.1 1479.15 1529.7 1475.1 1531.4 1470.7 1533.2 1468.65 1536.85 1466.9 1540.1 1467.25 1544.2 1467.6 1548 1469.6 1551.5 1471.3 1554.5 1474.3 1557.45 1476.4 1559.55 1480.1 1562.45 1496.4 1575.3 1518.7 1588.65 1532.15 1596.7 1559.5 1611.55 1581.5 1623.55 1593.45 1629.3 1600.95 1632.95 1619.3 1641.2 1635.9 1648.65 1645.05 1653.25 1660.35 1661 1690.8 1679.5 1720.55 1697.6 1736.7 1705.6 1746.3 1710.4 1753.45 1711.7 1763.15 1713.5 1770.05 1709.6 1776.35 1706.05 1778.65 1698.45 1780.95 1690.9 1777.65 1684.4 1774.8 1678.7 1767.6 1674.25 1765.35 1672.85 1754.25 1667.45 1745.45 1663.2 1734.3 1655.95 1721.5 1647.35 1715.1 1643.05 1675.1 1616.4 1609.5 1586.25 1572.9 1569.75 1554.6 1561.5 1521.7 1546.7 1500.15 1535.95 1494.9 1533.35 1492.2 1532.25 Z"/>
</g>
</defs>

<g transform="matrix( 1, 0, 0, 1, 0,0) ">
<use xlink:href="#Layer19_0_FILL"/>
</g>

<g transform="matrix( 1, 0, 0, 1, 0,0) ">
<use xlink:href="#Layer18_0_FILL"/>
</g>
</svg>
