
<svg xmlns="http://www.w3.org/2000/svg" version="1.1" xmlns:xlink="http://www.w3.org/1999/xlink" preserveAspectRatio="none" x="0px" y="0px" width="2000px" height="2000px" viewBox="0 0 2000 2000">
<defs>
<g id="Layer19_0_FILL">
<path fill="#000000" stroke="none" d="
M 1327.6 819.85
Q 1326.3 819.4 1323.75 819 1304 815.85 1280.1 808.25 1265.7 803.7 1237.6 793.15 1229.8 790.2 1226.1 788.65 1219.8 785.9 1215.1 783.05 1204.45 776.6 1193.25 763.9 1184.966015625 753.7197265625 1179.4 746.95 1188.5373046875 747.6322265625 1197.95 746.05 1215.45 743.05 1229.45 733.05 1233.4 730.2 1235.3 726.75 1237.65 722.6 1235.75 719.3 1234.7 717.45 1232.4 716.25 1230.75 715.4 1227.9 714.65 1211.25 710.15 1174.85 705.9 1139.75 701.8 1121.95 696.55 1118.1130859375 695.40703125 1113.75 693.85
L 1113.8 693.85
Q 1116.9 691.85 1117.75 691.4 1119.2 690.6 1121.9 689.55 1124.9 688.35 1126.1 687.75 1130.05 685.75 1134.05 681.9 1136.5 679.55 1140.75 674.55
L 1148.2 665.7
Q 1151.8 661.5 1153.4 659.3 1156.2 655.25 1158.05 651.4 1159.6 648.15 1161.05 643.85 1161.8 641.55 1163.45 636 1165.75 628.05 1166.4 624.45 1167.35 619.2 1167.45 612.05 1167.7 593.4 1161 580.8 1158.95 577 1154.75 571.2 1154 570.15 1152.9 569.65 1151.6 569.1 1151.1 570.05 1156.75 589.2 1156.35 609.45 1156.2 616.4 1155.3 621.25 1154.6 624.9 1152.85 630.75 1149.7 641.45 1146.7 648.3 1143.15 656 1138.8 661.55 1136.95 664 1132.05 669.2 1127.75 673.7 1125.35 675.65 1123.3 677.3 1120.35 679 1119.25 679.65 1115.1 681.9 1108.15 685.65 1104.25 686.85 1101.6197265625 687.6330078125 1098.7 687.9 1090.066796875 684.2056640625 1080 679.35 1048.9 664.35 1038.7 660.35 1004.1 646.75 964.7 643.95 927.25 641.25 888.7 648.5 819 661.6 748.55 706.15 743.05 709.55 739.85 712.1 735.3 715.65 732.4 719.45 729.9912109375 722.649609375 728.75 726.15 722.38203125 732.0142578125 716.5 738.5 715.5478515625 739.55 714.6 740.6 714.233984375 740.4115234375 713.8 740.2 702.5 734.45 694.35 722.95 686.85 712.4 683.3 698.95 680.2 687.3 679.85 672.85 679.6 661.95 680.95 646.4 681.1 644.8 680.55 643.55 679.9 642.1 678.65 642.3 677.75 642.5 676.95 643.8 670.2 654.05 668.8 666.4 668.05 673.8 669.15 683.65 671.35 703.6 678.8 719.2 685.84375 733.9876953125 696.8 743 695.9703125 742.9615234375 695.15 742.9 687.95 742.3 682.85 740.7 679.95 739.75 674.35 737.25 668.45 734.7 665.2 732.75 663.6 731.85 661.4 730.35 658.95 728.6 657.7 727.75 652.85 724.3 651.05 722.8 648.65 720.8 645.05 717.2 640.3 712.65 637.55 709.6 634.95 706.75 631 701.7 627.6 697.55 625.85 694.65 624.25 692 622 686.8
L 613.7 667.7
Q 612.6 665.2 611.85 664.1 610.6 662.2 609.05 661.35 607.65 670.75 609.4 680.4 611.15 689.9 615.7 698.35 617.75 702.2 622.45 709.15 625.95 714.35 627.9 716.8 629.9 719.3 635.2 724.9 639.7 729.6 642.2 731.7 643.95 733.2 646.7 735.2 648.25 736.3 651.35 738.5 652.9 739.65 656 741.95 658.65 743.9 660.9 744.95 662.35 745.65 665.15 746.55 668.15 747.55 669.45 748.15 670.8 748.75 673.95 750.55 676.8 752.15 678.55 752.85 681 753.8 684.25 754.2 686.15 754.45 690.1 754.65 695.5 754.9 697.75 754.95 700.781640625 754.95 703.35 754.7 694.740625 766.5529296875 688.1 779.6 683.3 789.1 676.05 806.8 668.2 826.05 664.35 834.1 654.8 854 641.4 871.75 628.05 889.5 611.55 904.15 602.45 912.25 594.2 917.55 584.3 923.95 574.6 927.05 565.75 929.9 554.5 930.8 546.5 931.45 533.9 931.2 519.75 931 517.25 938 515.7 942.45 519.35 946.95 522.4 950.75 527.75 953.3 540.15 959.3 556.45 961.85 568.9 963.85 586.65 964.1 622.9 964.7 650.2 958 665.6400390625 954.2201171875 678.55 948.05 678.90703125 962.8728515625 680 990 681.35 1023.55 680.25 1043.85 679.15 1063.4 674.85 1092.35 672.3388671875 1109.203125 669.65 1119.05 669.4251953125 1119.103515625 669.2 1119.15 661.85 1120.65 653.85 1119.2 646.35 1117.85 639.2 1114.15 627.35 1108.05 615.25 1094.7 613.1 1092.3 610.85 1091.25 608.05 1090 606.3 1091.65 604.3 1093.55 605.9 1098.2 608.85 1106.55 614.9 1113.65 620.75 1120.55 628.65 1125.2 636.3 1129.65 645.35 1131.75 654.1 1133.8 663.25 1133.4 663.887109375 1133.36875 664.5 1133.3 661.6158203125 1139.578125 657.95 1144.65 651.95 1152.95 642.35 1160.2 634.65 1165.95 623.4 1171.95 618.15 1174.75 616.15 1176.1 612.25 1178.65 610.05 1181.55 607.4 1185 607.2 1189.3 606.95 1193.9 609.75 1196.7 612.25 1199.2 618.2 1200.35 628.9 1202.35 644.8 1201.75 653.4029296875 1201.41171875 670.4 1200.6
L 665.85 1214
Q 664.6 1217.7 663.6 1219.85 661.95 1223.3 657.45 1229.2
L 640.45 1251.2
Q 628.75 1266.3 623.35 1274.15 620.55 1278.25 620.25 1280.85 619.85 1284.1 622.05 1287.15 624.1 1290 627.45 1291.4 630.25 1292.6 634.05 1292.9 636.35 1293.1 640.95 1293 649.45 1292.8 654.15 1292.5 661.45 1292.05 667.3 1291.05 673.95 1289.9 682 1287.45 686.95 1285.95 696.4 1282.65 700.097265625 1281.362890625 702.9 1280.2 703.0833984375 1281.8630859375 703.8 1283.9 704.35 1285.45 705.6 1288.45 707.16015625 1292.432421875 708.4 1298.45 703.53828125 1296.5283203125 697.95 1295.85 689.9 1294.85 681.4 1296.5 667.8 1299.05 651 1309.3 627.5 1323.7 627.5 1340.5 639.95 1331.55 653.85 1323.05 665 1316.25 673 1313.2 684.1 1308.95 693.75 1309.55 699.45 1309.9 706.35 1312.15 708.244140625 1312.7580078125 711 1313.8
L 713.7 1330.3
Q 713.6328125 1330.647265625 713.6 1331 713.45 1332.7 714.1 1334.75 714.2546875 1335.2138671875 714.65 1336.15
L 715.25 1339.85
Q 715.95 1344.2 717.15 1346.1 717.95703125 1347.4451171875 719.2 1348.2
L 720.25 1351.5
Q 717.294921875 1352.1720703125 714.4 1352.95 697.5 1357.45 683.1 1365.5 667.7 1374.05 656.4 1385.9 650.45 1392.05 649.15 1397.2 648.25 1400.65 649.3 1404 650.4 1407.55 653.25 1409.2 656.15 1410.9 660 1410.15 663.45 1409.4 666.4 1407 668.55 1405.2 671.25 1401.85 675.4 1396.7 675.75 1396.3 680.45 1391.05 687.6 1387 693.4 1383.7 701.55 1380.75 737.7 1367.55 779.55 1370.5 818.65 1373.25 856.8 1389.5 870.15 1395.25 878.35 1400.8 884.25 1404.75 894.35 1413.8 897.4 1416.5 899.5 1417.65 902.6 1419.35 905.35 1418.85 908.8 1418.2 910.6 1414.55 912.35 1411.05 911.5 1407.35 910.75 1404.15 908.3 1400.95 906.5 1398.65 903.25 1395.65 899.9201171875 1392.61015625 896.4 1389.75 896.5955078125 1389.65390625 896.8 1389.55 927.7 1373.85 963.4 1372.3 999.05 1370.8 1031.2 1383.8 1060.15 1395.6 1076.6 1415.2 1080.4 1419.65 1080.95 1420.25 1083.55 1422.95 1086.1 1424.2 1089.2 1425.75 1092.6 1425.15 1096.25 1424.45 1097.7 1421.7 1100.1 1417.2 1094.95 1409.65 1086.8865234375 1397.9564453125 1076.2 1388.25 1077.496875 1387.0884765625 1078.6 1385.25 1079.25 1384.2 1080.75 1381.05 1089.6 1362.35 1105 1347.8 1120.35 1333.25 1139.55 1325.5 1149.6 1321.4 1158.3 1320.45 1167 1319.55 1177.45 1321.55 1185.1 1323 1196.1 1326.65 1208.9 1330.85 1217.9 1334.8 1229.4 1339.85 1238.25 1345.9 1258.4 1359.55 1273.25 1383.45 1274.9 1386.05 1275.5 1386.9 1276.85 1388.8 1278.25 1389.95 1279.9 1391.4 1281.9 1391.9 1284.05 1392.5 1285.9 1391.8 1288.3 1390.95 1289.5 1388.4 1290.65 1386 1290.3 1383.25 1290 1380.95 1288.65 1378.35 1287.75 1376.6 1285.85 1373.9 1273.35 1356.25 1257.85 1342.95 1253.1509765625 1338.905859375 1248.25 1335.35 1248.363671875 1335.280078125 1248.45 1335.2 1258.45 1325.75 1270.95 1319.45 1283.4 1313.2 1297 1310.75 1304.6 1309.4 1310.7 1309.55 1322.85 1309.8 1337.15 1315.7 1349.6 1320.8 1360.55 1328.65 1368.35 1334.2 1377.8 1343.25 1384.43046875 1349.7134765625 1389.85 1356.05 1394.1576171875 1361.118359375 1397.7 1366.1 1399.65 1368.85 1400.3 1369.7 1401.85 1371.6 1403.4 1372.8 1405.2 1374.25 1407.35 1374.7 1409.65 1375.25 1411.65 1374.5 1411.9 1367.95 1409.45 1361.1 1407.2 1354.9 1402.95 1349 1399.45 1344.05 1394 1338.65 1392.4095703125 1337.084765625 1389.85 1334.7 1387.3408203125 1332.41953125 1383.9 1329.35 1374.2 1320.75 1369 1316.9 1362.05 1311.85 1351.9 1306.4 1334.35 1297 1320.25 1294.55 1307.7 1292.35 1293.7 1294.65 1281.1 1296.65 1268 1302.2 1263.0482421875 1304.3265625 1258.65 1306.7 1258.528515625 1306.29453125 1258.45 1306 1258.1 1304.75 1257.9 1302.85 1257.8 1300.75 1257.65 1299.65 1257.405859375 1297.160546875 1256.25 1292.3 1267.2630859375 1290.4880859375 1277.8 1286.35 1283.45 1284.15 1294.35 1278.75 1299.95 1276.05 1303.2 1274.25 1314.75 1268.1 1325.1 1259.5 1329.95 1255.6 1331.3 1252.05 1332.4 1249.05 1331.4 1245.8 1330.4 1242.55 1327.8 1240.65 1326.05 1239.35 1323.25 1238.6 1321.95 1238.25 1318.2 1237.65 1305.6 1235.6 1291.25 1230.35 1280.45 1226.4 1265.45 1219.35 1257.15 1215.45 1252.5 1212.55 1249.8255859375 1210.8390625 1247.55 1209 1259.3173828125 1207.2759765625 1272.15 1202.3 1284.85 1197.4 1302.4 1187.6 1307.5 1184.75 1310.2 1182 1313.85 1178.2 1313.7 1174 1313.55 1171.2 1311.65 1168.6 1309.9 1166.25 1307.15 1164.65 1305 1163.4 1301.75 1162.25 1297.95 1161.1 1296.05 1160.45 1285.8 1157.05 1276.5 1150.2 1267.7 1143.7 1260.6 1134.75 1248 1118.9 1240.7 1095.35 1238.05 1086.85 1235.7 1075.95 1234.25 1069.15 1231.9 1056.2
L 1224.45 1015.45
Q 1227.75625 1012.373046875 1230.5 1005.75 1235.9 992.95 1238.6 976.4 1240.6 964.15 1241.6 945.8 1243.35 912.45 1240.55 888.75 1238.4818359375 871.2693359375 1233.75 856.3 1245.0826171875 858.3876953125 1258.15 857.7 1271.35 857 1287.9 853.3 1296.55 851.4 1302 849.25 1307.65 846.95 1314 842.8 1317.9 840.25 1325.1 834.8 1329.3 831.7 1330.65 829.35 1331.7 827.6 1331.8 825.6 1331.85 823.45 1330.7 821.95 1329.65 820.6 1327.6 819.85
M 1301.25 829.25
Q 1305.9 830.45 1308 831.8 1290.3 841.7 1269.7 844.75 1249.2 847.85 1229.3 843.6 1229.171875 843.5740234375 1229.05 843.55 1227.1373046875 839.069140625 1224.95 834.85 1222.25 829.55 1219.55 827.4 1217.6 825.85 1215.35 825.4 1212.85 824.95 1210.85 825.9 1208.15 827.2 1207.05 830.75 1206.15 833.7 1206.55 837.35 1207.05 841.35 1208.85 846.4 1208.95 846.8 1212.2 855.2 1222.35 881.9 1223.3 914.4 1223.65 925.2 1223 938.55 1222.55 947.05 1221.35 962.65 1220.8 969.85 1220.15 973.55 1219.15 979.5 1217 983.85 1213.1 965.75 1205.15 948.9 1197.2 932.05 1185.75 917.55 1169.671484375 897.2197265625 1142.95 877.35 1143.084375 874.18515625 1143.35 871.15 1143.75 866.65 1143.8 865.45 1143.95 862.2 1143.45 859.75 1142.7 856.9 1142.4 855.45 1141.9 852.95 1142.45 851.2 1140.6 850.05 1138.2 850.65 1135.95 851.25 1134.4 853 1132.15 855.5 1131 861.25 1127.65 877.3 1128.35 897.05 1128.9 911.65 1132.1 933.1 1133.6 943.05 1134.95 949.55 1136.8 958.5 1139.2 965.7 1141.75 973.25 1147.8 986.15 1156.2 1004.4 1162.1 1014.75 1138.05 1001.2 1117.2 982.85 1096.3 964.45 1079.8 942.35 1075.23125 936.2046875 1071.65 930.6 1076.571484375 912.2556640625 1079.2 893.6 1080.1 887.5 1079.5 884.2 1079.15 882.35 1078.2 879.9 1077.05 877.15 1076.5 875.75 1076 874.4 1075.75 873.95 1075.25 872.95 1074.55 872.45 1072.8 871.15 1070.05 872.15 1066.8 873.45 1064.65 877.25 1063.15 879.95 1061.8 884.75 1058.5 896.55 1053.15 916.45
L 1050.45 926.45
Q 1048.85 932.55 1047 939.1 1044.55 947.65 1042.15 954.8 1040.25 960.55 1038.35 965.5 1035.8 972.05 1030.1 984
L 1025.5 993.7
Q 1022 1001.1 1020 1004.3 1019.39296875 1005.302734375 1018.4 1006.8 1017.91328125 1004.2966796875 1017.25 1001.45 1011.8 978.45 1003.1 963.1 1000.1 957.95 996.65 953.05 974.8 921.5 943.5 898.9 940.9 897.05 930.65 890.1 929.740234375 889.4888671875 928.9 889 928.5634765625 888.0318359375 928 887.15 926.75 885.2 924.9 884.4 922.4 883.3 919.55 884.5 916.85 885.6 915.2 888.05 913.8 890.15 913.1 893.2 912.65 895.3 912.3 898.8 909.85 925.65 913.8 953.75 917.6 980.6 927 1007.2 928.65 1011.8 931.4 1019
L 935.95 1031.05
Q 922.15 1026.55 907.2 1016.2 898 1009.85 881.5 995.95
L 860.55 978.25
Q 853.5 972.3 850.2 968.45 845 962.45 843.55 956.35 843.271875 955.20625 843.05 954.5 845.0125 942.433984375 845.5 930.55 845.6 927.25 845.45 925.5 845.15 922.7 844.15 920.7 842.95 918.35 840.7 917.05 838.25 915.65 835.95 916.35 832.85 917.3 830.7 922.05 828.8 926.25 827.6 932.1 827.1 934.55 825.9 942.55 818.25 994.05 795.2 1031.5 783 1051.4 761.05 1075.1 756.55 1080.05 753.4 1082.75 748.9 1086.65 744.45 1088.55 746.35 1062.5 742.95 1036.4 739.6 1010.3 731.1 985.55 729.95 982.25 719 954.05 712.626171875 937.684765625 709.5 925.8 710.6921875 923.97890625 710.9 922.15 711.5 917.5 706.9 914.4 702.5 911.4 697.5 912.35 693.45 913.1 688.8 916.25 686.1 918.1 681 922.2 663.5 935.5 636.35 940.3 618.85 943.35 586.65 943.75 621.45 926.3 648.2 890.8 671.65 859.7 686.95 817.55 689.9 809.3 691.35 805.15 694 797.8 696.05 792.85 707.55 765.1 728.6 742.65 730.0234375 741.124609375 731.45 739.65 734.24765625 739.4775390625 737.25 737.25 739.75 735.4 744.65 729.85 750.05 723.6 758.4 718 764.25 714.1 774.25 708.9 803.8 693.45 830.5 683.15 860.95 671.4 889.65 665.55 921.2 659.15 951.2 659.7 983.4 660.3 1012.05 668.9 1030.05 674.3 1062.8 689.25 1096.65 704.7 1113.45 710.05 1135.9 717.2 1165.2 721 1182.8 723.3 1218.1 725.75 1208.05 733.75 1195.05 736.5 1182.05 739.25 1169.65 736 1169.5529296875 735.9748046875 1169.45 735.95 1168.253125 735.078125 1167.05 734.55 1164.65 733.5 1162.1 733.8 1159.35 734.2 1157.85 736.05 1156.65 737.55 1156.5 739.75 1156.35 741.7 1157.05 743.7 1158.05 746.25 1161.45 750.4 1179.55 772.6 1182.05 775.3 1194.35 788.85 1206.35 795.85 1212.75 799.6 1225.8 804.7 1262.9 819.05 1301.25 829.25
M 1301.6 1249.05
Q 1304.7 1249.95 1306.45 1251.45 1295.3 1260 1282.15 1265.35 1269 1270.7 1255.05 1272.4 1249.2 1273.1 1247.9 1273.3 1243.85 1274.05 1241.1 1275.5 1237.75 1277.35 1236 1280.6 1234.1 1284.1 1235.2 1287.35 1235.9 1289.5 1237.9 1291.05 1237.9318359375 1291.07578125 1237.95 1291.1 1238.2673828125 1292.8998046875 1238.85 1294.95 1239.65 1297.6 1241.25 1302.9 1241.75 1304.75 1242.55 1308.55 1243.35 1311.75 1244.75 1313.7 1245.231640625 1314.3861328125 1245.8 1314.95 1243.7052734375 1316.6212890625 1241.8 1318.35 1238.5701171875 1321.3587890625 1234.05 1326.25 1228.5197265625 1323.1970703125 1222.75 1320.7 1213.9 1316.8 1199.7 1312.5 1188.9 1309.25 1181.75 1307.85 1171.8 1305.9 1163.45 1306.15 1150.3 1306.55 1134.95 1312.75 1112 1322 1094.25 1339.5 1076.2 1357.3 1067.3 1379.9 1067.1484375 1380.2740234375 1067 1380.6 1065.3103515625 1379.3466796875 1063.55 1378.1 1045.15 1365.05 1023.4 1358.35 1002.3 1351.9 979.25 1351.7 956.95 1351.5 934.8 1357.15 915.6 1362.1 889.5 1373.7 886.15 1375.2 884.5 1376.15 882.4546875 1377.3462890625 881 1378.7 865.365625 1368.7935546875 846.65 1361.8 816.65 1350.6 781.45 1347.9 753.413671875 1345.777734375 729.95 1349.6 729.9041015625 1349.43515625 729.85 1349.25
L 725.05 1332.6
Q 722.7837890625 1316.1005859375 721.2 1307.25 718.45 1291.9 714.8 1279.9 713.740625 1276.4013671875 712.2 1274.55 712.526171875 1274.23828125 712.8 1273.9 714.9 1271.35 714.8 1268.6 714.7 1266.15 712.75 1264.1 710.95 1262.15 708.35 1261.4 704.3 1260.3 698.15 1261.9 694 1262.95 687.4 1265.3 679.15 1268.2 676.75 1268.95 669.2 1271.25 659.55 1272.85 653.5 1273.85 642 1275.15
L 654.75 1258.45
Q 659.85 1251.85 662.2 1247.8 665.3 1241.7 667.1 1238.8 668.05 1237.25 670.8 1233.35 673.15 1229.95 674.3 1227.85 675.6 1225.45 677.95 1219
L 684.05 1201.7
Q 685 1198.95 685.3 1197.7 685.31171875 1197.647265625 685.3 1197.6 686.6333984375 1196.5607421875 687.55 1195.1 689.3 1192.35 688.6 1189.65 687.7 1186 683.25 1184.4 679.9 1183.15 674.75 1183.2 653.35 1183.35 632.55 1185.35 646.65 1173.45 659.1 1161.4 668.05 1152.8 672.1 1146.9 676.4 1140.5 679.45 1131.75 681.7 1125.25 683.85 1115.4 692.55 1075.45 693.05 1024.5 693.3736328125 995.24296875 690.3 941.6 695.56328125 938.3669921875 700.3 934.6 701.1994140625 938.626171875 702.65 943 704.2 947.5 709.45 960.3 717.9 980.75 724.85 1003.25 729.75 1019.5 731.3 1030 732.55 1038.35 732.8 1048.95 732.9 1055 732.65 1067.95 732.45 1078.85 731.45 1084.65 731.25 1085.65 730.05 1091.15 729.15 1095.1 728.9 1097.7 728.5 1101.7 729.65 1104.95 730.95 1108.7 734 1110.05 738.4 1112 745.5 1107.75 746.4830078125 1107.175390625 747.45 1106.55 763.9076171875 1168.05703125 766.2 1232.15 766.35 1234.95 766.8 1236.5 767.5 1238.8 769.15 1239.75 771.9 1241.3 775 1238.8 777.5 1236.8 779.3 1233.05 795.05 1200.3 807.1 1165.2
L 832.2 1228.25
Q 833.4 1231.25 834.5 1232.8 836.15 1235.15 838.3 1235.7 841.9 1236.6 844.95 1233 847.35 1230.05 848.7 1225.3 866.15 1164.15 873 1101.2
L 910.3 1184.9
Q 911.6 1187.75 912.85 1189.25 914.6 1191.4 916.8 1191.65 921 1192.1 924.85 1185.15
L 984.35 1078.25
Q 984 1096.9 989.55 1115.1 995.15 1133.2 1005.9 1148.5 1008.8 1152.55 1011.8 1154.6 1015.7 1157.2 1019.25 1156.2 1021.75 1155.45 1023.8 1152.9 1025.15 1151.15 1026.8 1147.75 1043.7 1112.5 1052.35 1074.45 1067.2 1095.05 1078.25 1118.15 1089.3 1141.2 1096.05 1165.75 1097.1 1169.55 1098.1 1171.5 1099.65 1174.55 1102.05 1175.7 1104.6 1176.95 1107.75 1176 1110.65 1175.1 1112.75 1172.75 1114.5 1170.75 1115.75 1167.7 1116.6 1165.65 1117.6 1162 1125.9 1131.65 1128.8 1100.95
L 1149.35 1158.6
Q 1150.8 1162.75 1152.25 1164.95 1154.4 1168.2 1157.35 1169 1161.6 1170.2 1165.75 1166.55 1168.9 1163.75 1171.8 1158.45
L 1216.45 1075.5
Q 1217.6740234375 1073.22265625 1218.4 1071.35 1218.590625 1072.599609375 1218.75 1073.65 1220.15 1083 1221.8 1090.35 1223 1095.5 1224.25 1099.85 1231.65 1125.25 1246.6 1144.75 1262.9 1166 1284.85 1175.55 1262.75 1188.8 1236.95 1190.95 1231.55 1191.35 1228.65 1192.35 1224.25 1193.9 1222.95 1197.3 1221.85 1200.15 1223.35 1203.25 1224.75 1206.2 1227.6 1207.8 1229.1107421875 1208.676171875 1230.95 1209.15 1231.9419921875 1210.9037109375 1233.8 1212.8 1243.85 1223.1 1259 1231.6 1270.1 1237.8 1287.75 1244.95 1293.25 1247.15 1296.15 1247.85 1297.95 1248.3 1301.6 1249.05
M 1148.95 897.95
Q 1160.5 907.3 1167.1 915.3 1172.35 921.8 1178 931.65 1197.55 965.7 1205.1 1004.15 1206.2 1009.65 1207.5 1012.5 1209.107421875 1015.955859375 1211.65 1017.55
L 1215.45 1048.35
Q 1213.69609375 1048.080078125 1212.05 1048.6 1210 1049.25 1209 1050.85 1208.6 1051.5 1208 1053.3 1207.45 1054.85 1206.9 1055.6 1206.55 1056 1205.5 1056.85 1204.55 1057.65 1204.15 1058.2 1203.85 1058.7 1203.55 1059.6 1203.25 1060.75 1203.1 1061.05 1203.0599609375 1061.152734375 1203 1061.25 1201.3419921875 1062.6939453125 1199.8 1064.75 1198.25 1066.85 1195.8 1071.25
L 1159.25 1136.7
Q 1148.7 1105.4 1135.45 1074.45 1133.3 1069.4 1130.45 1066.6 1126.8 1062.95 1122.85 1064 1119.75 1064.85 1117.9 1068.45 1116.6 1071.05 1115.8 1075.5
L 1104.95 1136 1057.75 1057.8
Q 1055.6 1054.3 1053.35 1052.45 1050.35 1050.05 1047.5 1050.95 1045.4 1051.65 1044.05 1054.05 1043.05 1055.75 1042.25 1058.7 1032 1095.05 1018.9 1130.75 1017.75 1133.85 1016.05 1134.3 1013.85 1134.9 1011.35 1131.45 1002.85 1119.4 998.9 1104.85 995 1090.25 996.35 1075.55 997 1068.95 995.85 1064.65 994.35 1058.8 989.75 1058.15 985.15 1057.5 979.75 1063.85 973.05 1071.75 966.2 1082.75 962.2 1089.15 954.4 1103
L 918.2 1167.8
Q 899.3 1125.2 878.55 1085.45 873.85 1076.45 868.45 1077.4 863.25 1078.3 861.5 1087.9
L 838.45 1211.95 814.85 1150.6
Q 813.15 1146.1 810.85 1143.55 807.9 1140.2 804.4 1140.75 801.2 1141.25 799.3 1144.9 797.9 1147.5 797.05 1152.05 791 1183.4 774.45 1210.7 771.9080078125 1154.777734375 754.55 1101.75 760.6357421875 1097.3453125 766.95 1091.6 773.6 1085.55 786.05 1072.5 793.05 1065.15 796.4 1061.35 802 1055.05 805.85 1049.5 810.95 1042.25 816.7 1031.15 832.8455078125 999.91328125 840 969.8 840.283203125 970.26875 840.6 970.75 847.15 980.8 857.7 991.45 864.2 998 877.6 1009.75 887.1 1018.05 892.1 1021.9 903.15 1030.3 918.4 1038.4 927.85 1043.4 946.45 1051.95 949.6 1053.45 951.65 1053.9 954.65 1054.55 956.85 1053.55 959.2 1052.5 960.4 1049.85 961.55 1047.35 961.3 1044.55 961.05 1042.15 959.9 1039.4 959.25 1037.85 957.55 1034.55 943.8 1008.2 936.3 979.15 928.8 950.15 928.05 920.45 927.705078125 908.573046875 928.85 900 946.4990234375 911.299609375 958.7 922.6 968.7 931.95 977.1 942.9 993.5 964.45 1001.3 989.75
L 1003.45 997.2
Q 1004.75 1001.85 1005.45 1005.2 1005.95 1007.8 1006.85 1015.05
L 1008.3 1028.3
Q 1009.15 1036.5 1013.5 1037.55 1015.5 1038 1017.5 1036.75 1019.35 1035.6 1020.25 1033.55 1021.408984375 1030.964453125 1021.1 1026.35 1025.2080078125 1026.001171875 1029.6 1020.3 1033.1 1015.75 1036.7 1010.15 1039.9 1004.95 1045.05 995.5 1052.55 981.6 1055.95 974.5 1060 966 1063.45 956.75 1065.0587890625 952.4162109375 1066.4 948.35 1070.3978515625 954.65703125 1075.7 961.05 1083.1 970.05 1096.25 982.6 1111.25 997 1123.2 1006.35 1146.55 1024.7 1173.65 1036.75 1177.05 1038.25 1179.4 1038.6 1182.75 1039.1 1184.95 1037.6 1186.8 1036.4 1187.55 1034.05 1188.3 1031.9 1187.9 1029.5 1187.6 1027.5 1186.5 1025.2 1185.85 1023.8 1184.3 1021.2 1170.7 998.2 1165.25 987.5 1155.45 968.25 1151.05 951.8 1148.15 940.6 1145.9 923.75 1143.85 908.4 1143.15 897.45 1143.023046875 895.3130859375 1142.95 893.2 1145.1935546875 895.0013671875 1148.95 897.95
M 1029.9 1183.1
Q 1030.15 1184.45 1031.05 1186.85
L 1050.05 1238.4
Q 1044.05 1235 1034.5 1227.35 1023.85 1218.8 1019.2 1215.8 1006.5 1207.6 991.55 1204.5 987.25 1203.6 981.8 1203 978.55 1202.6 972 1202.05 966.85 1201.65 964.55 1201.6 960.45 1201.55 957.25 1202.2 950.55 1203.6 944.45 1208.35 940.55 1211.45 939.3 1214.3 938.6 1215.9 938.4 1218.1 938.25 1219.4 938.25 1222.05 938.3 1228.15 938.6 1231.2 939.05 1236.2 940.45 1240 942.95 1246.7 950.7 1254.75 962.35 1266.75 973.55 1269.7 977.25 1270.65 981.8 1270.85 985.35 1271 990.15 1270.75 1016.6 1269.3 1041.55 1260.9 1045.7 1259.5 1047.95 1259.95 1049.95 1260.4 1051.8 1262.2 1052.9 1263.3 1054.75 1265.85 1057.9 1270.05 1064.75 1278.1 1070.65 1285.4 1073.2 1291.2 1074.95 1295.15 1075.45 1296.05 1076.95 1298.6 1079 1299.5 1081.6 1300.65 1084.5 1299.25 1087.25 1297.9 1088.45 1295.2 1090.6 1290.3 1087.5 1284.05 1086.45 1281.9 1084.45 1279.2 1082.1 1276.15 1080.95 1274.6 1077.15 1269.35 1073.6 1262.1 1071.35 1257.5 1067.75 1248.8
L 1039.05 1179.85
Q 1038.25 1178 1037.6 1177.05 1036.6 1175.65 1035.3 1175.25 1033.55 1174.7 1031.8 1176.05 1030.2 1177.35 1029.75 1179.35 1029.4 1181 1029.9 1183.1
M 953.75 1222.45
Q 956.2 1217.65 966.1 1218.05 986.35 1219.1 1000.95 1224.75 1009.6 1228.1 1016.65 1233.2 1024.15 1238.65 1029.2 1245.65 1022.45 1248.8 1013.3 1250.6 1007.55 1251.7 996.6 1252.95 990.85 1253.55 988.25 1253.7 983.55 1253.9 979.9 1253.35 970.7 1252 963.4 1245.5 956.1 1239 953.6 1230.05 952.25 1225.3 953.75 1222.45 Z"/>

<path fill="#6699CC" stroke="none" d="
M 1167.1 915.3
Q 1160.5 907.3 1148.95 897.95 1145.1935546875 895.0013671875 1142.95 893.2 1143.023046875 895.3130859375 1143.15 897.45 1143.85 908.4 1145.9 923.75 1148.15 940.6 1151.05 951.8 1155.45 968.25 1165.25 987.5 1170.7 998.2 1184.3 1021.2 1185.85 1023.8 1186.5 1025.2 1187.6 1027.5 1187.9 1029.5 1188.3 1031.9 1187.55 1034.05 1186.8 1036.4 1184.95 1037.6 1182.75 1039.1 1179.4 1038.6 1177.05 1038.25 1173.65 1036.75 1146.55 1024.7 1123.2 1006.35 1111.25 997 1096.25 982.6 1083.1 970.05 1075.7 961.05 1070.3978515625 954.65703125 1066.4 948.35 1065.0587890625 952.4162109375 1063.45 956.75 1060 966 1055.95 974.5 1052.55 981.6 1045.05 995.5 1039.9 1004.95 1036.7 1010.15 1033.1 1015.75 1029.6 1020.3 1025.2080078125 1026.001171875 1021.1 1026.35 1021.408984375 1030.964453125 1020.25 1033.55 1019.35 1035.6 1017.5 1036.75 1015.5 1038 1013.5 1037.55 1009.15 1036.5 1008.3 1028.3
L 1006.85 1015.05
Q 1005.95 1007.8 1005.45 1005.2 1004.75 1001.85 1003.45 997.2
L 1001.3 989.75
Q 993.5 964.45 977.1 942.9 968.7 931.95 958.7 922.6 946.4990234375 911.299609375 928.85 900 927.705078125 908.573046875 928.05 920.45 928.8 950.15 936.3 979.15 943.8 1008.2 957.55 1034.55 959.25 1037.85 959.9 1039.4 961.05 1042.15 961.3 1044.55 961.55 1047.35 960.4 1049.85 959.2 1052.5 956.85 1053.55 954.65 1054.55 951.65 1053.9 949.6 1053.45 946.45 1051.95 927.85 1043.4 918.4 1038.4 903.15 1030.3 892.1 1021.9 887.1 1018.05 877.6 1009.75 864.2 998 857.7 991.45 847.15 980.8 840.6 970.75 840.283203125 970.26875 840 969.8 832.8455078125 999.91328125 816.7 1031.15 810.95 1042.25 805.85 1049.5 802 1055.05 796.4 1061.35 793.05 1065.15 786.05 1072.5 773.6 1085.55 766.95 1091.6 760.6357421875 1097.3453125 754.55 1101.75 771.9080078125 1154.777734375 774.45 1210.7 791 1183.4 797.05 1152.05 797.9 1147.5 799.3 1144.9 801.2 1141.25 804.4 1140.75 807.9 1140.2 810.85 1143.55 813.15 1146.1 814.85 1150.6
L 838.45 1211.95 861.5 1087.9
Q 863.25 1078.3 868.45 1077.4 873.85 1076.45 878.55 1085.45 899.3 1125.2 918.2 1167.8
L 954.4 1103
Q 962.2 1089.15 966.2 1082.75 973.05 1071.75 979.75 1063.85 985.15 1057.5 989.75 1058.15 994.35 1058.8 995.85 1064.65 997 1068.95 996.35 1075.55 995 1090.25 998.9 1104.85 1002.85 1119.4 1011.35 1131.45 1013.85 1134.9 1016.05 1134.3 1017.75 1133.85 1018.9 1130.75 1032 1095.05 1042.25 1058.7 1043.05 1055.75 1044.05 1054.05 1045.4 1051.65 1047.5 1050.95 1050.35 1050.05 1053.35 1052.45 1055.6 1054.3 1057.75 1057.8
L 1104.95 1136 1115.8 1075.5
Q 1116.6 1071.05 1117.9 1068.45 1119.75 1064.85 1122.85 1064 1126.8 1062.95 1130.45 1066.6 1133.3 1069.4 1135.45 1074.45 1148.7 1105.4 1159.25 1136.7
L 1195.8 1071.25
Q 1198.25 1066.85 1199.8 1064.75 1201.3419921875 1062.6939453125 1203 1061.25 1203.0599609375 1061.152734375 1203.1 1061.05 1203.25 1060.75 1203.55 1059.6 1203.85 1058.7 1204.15 1058.2 1204.55 1057.65 1205.5 1056.85 1206.55 1056 1206.9 1055.6 1207.45 1054.85 1208 1053.3 1208.6 1051.5 1209 1050.85 1210 1049.25 1212.05 1048.6 1213.69609375 1048.080078125 1215.45 1048.35
L 1211.65 1017.55
Q 1209.107421875 1015.955859375 1207.5 1012.5 1206.2 1009.65 1205.1 1004.15 1197.55 965.7 1178 931.65 1172.35 921.8 1167.1 915.3 Z"/>

<path fill="#CCCCCC" stroke="none" d="
M 1306.45 1251.45
Q 1304.7 1249.95 1301.6 1249.05 1297.95 1248.3 1296.15 1247.85 1293.25 1247.15 1287.75 1244.95 1270.1 1237.8 1259 1231.6 1243.85 1223.1 1233.8 1212.8 1231.9419921875 1210.9037109375 1230.95 1209.15 1229.1107421875 1208.676171875 1227.6 1207.8 1224.75 1206.2 1223.35 1203.25 1221.85 1200.15 1222.95 1197.3 1224.25 1193.9 1228.65 1192.35 1231.55 1191.35 1236.95 1190.95 1262.75 1188.8 1284.85 1175.55 1262.9 1166 1246.6 1144.75 1231.65 1125.25 1224.25 1099.85 1223 1095.5 1221.8 1090.35 1220.15 1083 1218.75 1073.65 1218.590625 1072.599609375 1218.4 1071.35 1217.6740234375 1073.22265625 1216.45 1075.5
L 1171.8 1158.45
Q 1168.9 1163.75 1165.75 1166.55 1161.6 1170.2 1157.35 1169 1154.4 1168.2 1152.25 1164.95 1150.8 1162.75 1149.35 1158.6
L 1128.8 1100.95
Q 1125.9 1131.65 1117.6 1162 1116.6 1165.65 1115.75 1167.7 1114.5 1170.75 1112.75 1172.75 1110.65 1175.1 1107.75 1176 1104.6 1176.95 1102.05 1175.7 1099.65 1174.55 1098.1 1171.5 1097.1 1169.55 1096.05 1165.75 1089.3 1141.2 1078.25 1118.15 1067.2 1095.05 1052.35 1074.45 1043.7 1112.5 1026.8 1147.75 1025.15 1151.15 1023.8 1152.9 1021.75 1155.45 1019.25 1156.2 1015.7 1157.2 1011.8 1154.6 1008.8 1152.55 1005.9 1148.5 995.15 1133.2 989.55 1115.1 984 1096.9 984.35 1078.25
L 924.85 1185.15
Q 921 1192.1 916.8 1191.65 914.6 1191.4 912.85 1189.25 911.6 1187.75 910.3 1184.9
L 873 1101.2
Q 866.15 1164.15 848.7 1225.3 847.35 1230.05 844.95 1233 841.9 1236.6 838.3 1235.7 836.15 1235.15 834.5 1232.8 833.4 1231.25 832.2 1228.25
L 807.1 1165.2
Q 795.05 1200.3 779.3 1233.05 777.5 1236.8 775 1238.8 771.9 1241.3 769.15 1239.75 767.5 1238.8 766.8 1236.5 766.35 1234.95 766.2 1232.15 763.9076171875 1168.05703125 747.45 1106.55 746.4830078125 1107.175390625 745.5 1107.75 738.4 1112 734 1110.05 730.95 1108.7 729.65 1104.95 728.5 1101.7 728.9 1097.7 729.15 1095.1 730.05 1091.15 731.25 1085.65 731.45 1084.65 732.45 1078.85 732.65 1067.95 732.9 1055 732.8 1048.95 732.55 1038.35 731.3 1030 729.75 1019.5 724.85 1003.25 717.9 980.75 709.45 960.3 704.2 947.5 702.65 943 701.1994140625 938.626171875 700.3 934.6 695.56328125 938.3669921875 690.3 941.6 693.3736328125 995.24296875 693.05 1024.5 692.55 1075.45 683.85 1115.4 681.7 1125.25 679.45 1131.75 676.4 1140.5 672.1 1146.9 668.05 1152.8 659.1 1161.4 646.65 1173.45 632.55 1185.35 653.35 1183.35 674.75 1183.2 679.9 1183.15 683.25 1184.4 687.7 1186 688.6 1189.65 689.3 1192.35 687.55 1195.1 686.6333984375 1196.5607421875 685.3 1197.6 685.31171875 1197.647265625 685.3 1197.7 685 1198.95 684.05 1201.7
L 677.95 1219
Q 675.6 1225.45 674.3 1227.85 673.15 1229.95 670.8 1233.35 668.05 1237.25 667.1 1238.8 665.3 1241.7 662.2 1247.8 659.85 1251.85 654.75 1258.45
L 642 1275.15
Q 653.5 1273.85 659.55 1272.85 669.2 1271.25 676.75 1268.95 679.15 1268.2 687.4 1265.3 694 1262.95 698.15 1261.9 704.3 1260.3 708.35 1261.4 710.95 1262.15 712.75 1264.1 714.7 1266.15 714.8 1268.6 714.9 1271.35 712.8 1273.9 712.526171875 1274.23828125 712.2 1274.55 713.740625 1276.4013671875 714.8 1279.9 718.45 1291.9 721.2 1307.25 722.7837890625 1316.1005859375 725.05 1332.6
L 729.85 1349.25
Q 729.9041015625 1349.43515625 729.95 1349.6 753.413671875 1345.777734375 781.45 1347.9 816.65 1350.6 846.65 1361.8 865.365625 1368.7935546875 881 1378.7 882.4546875 1377.3462890625 884.5 1376.15 886.15 1375.2 889.5 1373.7 915.6 1362.1 934.8 1357.15 956.95 1351.5 979.25 1351.7 1002.3 1351.9 1023.4 1358.35 1045.15 1365.05 1063.55 1378.1 1065.3103515625 1379.3466796875 1067 1380.6 1067.1484375 1380.2740234375 1067.3 1379.9 1076.2 1357.3 1094.25 1339.5 1112 1322 1134.95 1312.75 1150.3 1306.55 1163.45 1306.15 1171.8 1305.9 1181.75 1307.85 1188.9 1309.25 1199.7 1312.5 1213.9 1316.8 1222.75 1320.7 1228.5197265625 1323.1970703125 1234.05 1326.25 1238.5701171875 1321.3587890625 1241.8 1318.35 1243.7052734375 1316.6212890625 1245.8 1314.95 1245.231640625 1314.3861328125 1244.75 1313.7 1243.35 1311.75 1242.55 1308.55 1241.75 1304.75 1241.25 1302.9 1239.65 1297.6 1238.85 1294.95 1238.2673828125 1292.8998046875 1237.95 1291.1 1237.9318359375 1291.07578125 1237.9 1291.05 1235.9 1289.5 1235.2 1287.35 1234.1 1284.1 1236 1280.6 1237.75 1277.35 1241.1 1275.5 1243.85 1274.05 1247.9 1273.3 1249.2 1273.1 1255.05 1272.4 1269 1270.7 1282.15 1265.35 1295.3 1260 1306.45 1251.45
M 1031.05 1186.85
Q 1030.15 1184.45 1029.9 1183.1 1029.4 1181 1029.75 1179.35 1030.2 1177.35 1031.8 1176.05 1033.55 1174.7 1035.3 1175.25 1036.6 1175.65 1037.6 1177.05 1038.25 1178 1039.05 1179.85
L 1067.75 1248.8
Q 1071.35 1257.5 1073.6 1262.1 1077.15 1269.35 1080.95 1274.6 1082.1 1276.15 1084.45 1279.2 1086.45 1281.9 1087.5 1284.05 1090.6 1290.3 1088.45 1295.2 1087.25 1297.9 1084.5 1299.25 1081.6 1300.65 1079 1299.5 1076.95 1298.6 1075.45 1296.05 1074.95 1295.15 1073.2 1291.2 1070.65 1285.4 1064.75 1278.1 1057.9 1270.05 1054.75 1265.85 1052.9 1263.3 1051.8 1262.2 1049.95 1260.4 1047.95 1259.95 1045.7 1259.5 1041.55 1260.9 1016.6 1269.3 990.15 1270.75 985.35 1271 981.8 1270.85 977.25 1270.65 973.55 1269.7 962.35 1266.75 950.7 1254.75 942.95 1246.7 940.45 1240 939.05 1236.2 938.6 1231.2 938.3 1228.15 938.25 1222.05 938.25 1219.4 938.4 1218.1 938.6 1215.9 939.3 1214.3 940.55 1211.45 944.45 1208.35 950.55 1203.6 957.25 1202.2 960.45 1201.55 964.55 1201.6 966.85 1201.65 972 1202.05 978.55 1202.6 981.8 1203 987.25 1203.6 991.55 1204.5 1006.5 1207.6 1019.2 1215.8 1023.85 1218.8 1034.5 1227.35 1044.05 1235 1050.05 1238.4
L 1031.05 1186.85
M 1308 831.8
Q 1305.9 830.45 1301.25 829.25 1262.9 819.05 1225.8 804.7 1212.75 799.6 1206.35 795.85 1194.35 788.85 1182.05 775.3 1179.55 772.6 1161.45 750.4 1158.05 746.25 1157.05 743.7 1156.35 741.7 1156.5 739.75 1156.65 737.55 1157.85 736.05 1159.35 734.2 1162.1 733.8 1164.65 733.5 1167.05 734.55 1168.253125 735.078125 1169.45 735.95 1169.5529296875 735.9748046875 1169.65 736 1182.05 739.25 1195.05 736.5 1208.05 733.75 1218.1 725.75 1182.8 723.3 1165.2 721 1135.9 717.2 1113.45 710.05 1096.65 704.7 1062.8 689.25 1030.05 674.3 1012.05 668.9 983.4 660.3 951.2 659.7 921.2 659.15 889.65 665.55 860.95 671.4 830.5 683.15 803.8 693.45 774.25 708.9 764.25 714.1 758.4 718 750.05 723.6 744.65 729.85 739.75 735.4 737.25 737.25 734.24765625 739.4775390625 731.45 739.65 730.0234375 741.124609375 728.6 742.65 707.55 765.1 696.05 792.85 694 797.8 691.35 805.15 689.9 809.3 686.95 817.55 671.65 859.7 648.2 890.8 621.45 926.3 586.65 943.75 618.85 943.35 636.35 940.3 663.5 935.5 681 922.2 686.1 918.1 688.8 916.25 693.45 913.1 697.5 912.35 702.5 911.4 706.9 914.4 711.5 917.5 710.9 922.15 710.6921875 923.97890625 709.5 925.8 712.626171875 937.684765625 719 954.05 729.95 982.25 731.1 985.55 739.6 1010.3 742.95 1036.4 746.35 1062.5 744.45 1088.55 748.9 1086.65 753.4 1082.75 756.55 1080.05 761.05 1075.1 783 1051.4 795.2 1031.5 818.25 994.05 825.9 942.55 827.1 934.55 827.6 932.1 828.8 926.25 830.7 922.05 832.85 917.3 835.95 916.35 838.25 915.65 840.7 917.05 842.95 918.35 844.15 920.7 845.15 922.7 845.45 925.5 845.6 927.25 845.5 930.55 845.0125 942.433984375 843.05 954.5 843.271875 955.20625 843.55 956.35 845 962.45 850.2 968.45 853.5 972.3 860.55 978.25
L 881.5 995.95
Q 898 1009.85 907.2 1016.2 922.15 1026.55 935.95 1031.05
L 931.4 1019
Q 928.65 1011.8 927 1007.2 917.6 980.6 913.8 953.75 909.85 925.65 912.3 898.8 912.65 895.3 913.1 893.2 913.8 890.15 915.2 888.05 916.85 885.6 919.55 884.5 922.4 883.3 924.9 884.4 926.75 885.2 928 887.15 928.5634765625 888.0318359375 928.9 889 929.740234375 889.4888671875 930.65 890.1 940.9 897.05 943.5 898.9 974.8 921.5 996.65 953.05 1000.1 957.95 1003.1 963.1 1011.8 978.45 1017.25 1001.45 1017.91328125 1004.2966796875 1018.4 1006.8 1019.39296875 1005.302734375 1020 1004.3 1022 1001.1 1025.5 993.7
L 1030.1 984
Q 1035.8 972.05 1038.35 965.5 1040.25 960.55 1042.15 954.8 1044.55 947.65 1047 939.1 1048.85 932.55 1050.45 926.45
L 1053.15 916.45
Q 1058.5 896.55 1061.8 884.75 1063.15 879.95 1064.65 877.25 1066.8 873.45 1070.05 872.15 1072.8 871.15 1074.55 872.45 1075.25 872.95 1075.75 873.95 1076 874.4 1076.5 875.75 1077.05 877.15 1078.2 879.9 1079.15 882.35 1079.5 884.2 1080.1 887.5 1079.2 893.6 1076.571484375 912.2556640625 1071.65 930.6 1075.23125 936.2046875 1079.8 942.35 1096.3 964.45 1117.2 982.85 1138.05 1001.2 1162.1 1014.75 1156.2 1004.4 1147.8 986.15 1141.75 973.25 1139.2 965.7 1136.8 958.5 1134.95 949.55 1133.6 943.05 1132.1 933.1 1128.9 911.65 1128.35 897.05 1127.65 877.3 1131 861.25 1132.15 855.5 1134.4 853 1135.95 851.25 1138.2 850.65 1140.6 850.05 1142.45 851.2 1141.9 852.95 1142.4 855.45 1142.7 856.9 1143.45 859.75 1143.95 862.2 1143.8 865.45 1143.75 866.65 1143.35 871.15 1143.084375 874.18515625 1142.95 877.35 1169.671484375 897.2197265625 1185.75 917.55 1197.2 932.05 1205.15 948.9 1213.1 965.75 1217 983.85 1219.15 979.5 1220.15 973.55 1220.8 969.85 1221.35 962.65 1222.55 947.05 1223 938.55 1223.65 925.2 1223.3 914.4 1222.35 881.9 1212.2 855.2 1208.95 846.8 1208.85 846.4 1207.05 841.35 1206.55 837.35 1206.15 833.7 1207.05 830.75 1208.15 827.2 1210.85 825.9 1212.85 824.95 1215.35 825.4 1217.6 825.85 1219.55 827.4 1222.25 829.55 1224.95 834.85 1227.1373046875 839.069140625 1229.05 843.55 1229.171875 843.5740234375 1229.3 843.6 1249.2 847.85 1269.7 844.75 1290.3 841.7 1308 831.8 Z"/>

<path fill="#333333" stroke="none" d="
M 966.1 1218.05
Q 956.2 1217.65 953.75 1222.45 952.25 1225.3 953.6 1230.05 956.1 1239 963.4 1245.5 970.7 1252 979.9 1253.35 983.55 1253.9 988.25 1253.7 990.85 1253.55 996.6 1252.95 1007.55 1251.7 1013.3 1250.6 1022.45 1248.8 1029.2 1245.65 1024.15 1238.65 1016.65 1233.2 1009.6 1228.1 1000.95 1224.75 986.35 1219.1 966.1 1218.05 Z"/>
</g>

<g id="Layer18_0_FILL">
<path fill="#000000" fill-opacity="0.2" stroke="none" d="
M 839.05 913.2
Q 837.05 910.05 834 908.75 830.25 907.15 825.8 908.7 821.7 910.15 818.8 913.6 816.35 916.5 814.55 921 813.55 923.45 811.9 929.15 805.15 951.95 798.75 967.1 793.5 979.5 781.95 1001.25 771.15 1021.65 764.35 1033.1 754.15 1050.35 744.2 1063.25 741.45 1066.8 740.35 1068.45 738.35 1071.5 737.4 1074.2 736.3 1077.45 736.75 1080.65 737.2 1084.1 739.35 1086.3 741.5 1088.45 744.9 1089 748.05 1089.45 751.2 1088.35 755.75 1086.8 761.45 1081.2 774.25 1068.7 785.9 1049.75 793.25 1037.8 805 1014.4 817.85 989 824.15 974.65 830.6720703125 959.9587890625 835.2 946.7 838.3025390625 952.3607421875 842.8 958.4 842.39453125 958.2841796875 841.95 958.25 840.4 958.2 838.9 959 837.45 959.75 836.4 961.05 836.283203125 961.199609375 836.15 961.35 836.111328125 961.3765625 836.05 961.4 831.9 963.05 829.6 968.3 828.1 971.65 826.9 978.3 822.5 1003.15 810.3 1024.8 803.4 1037.15 792.95 1050.05 784.65 1060.25 772.4 1072.85 763.75 1081.7 758.25 1085.9 756.5 1087.3 752.85 1089.95 749.75 1092.4 747.95 1094.6 745.65 1097.4 744.8 1100.6 743.85 1104.15 744.95 1107.15 746.3 1110.75 750.25 1112.7 753.95 1114.45 758.1 1114 761.7 1113.65 765.6 1111.65 768.45 1110.15 772.3 1107.3 779.5 1101.95 787.55 1094.15 792.25 1089.6 801.65 1079.75 809.05 1071.95 812.25 1067.65 815.2 1063.75 819.65 1056.25 826.7 1044.7 829.9 1038.95 835.4 1029.2 838.95 1021 840.35 1017.8 842.3 1012.8 845.25 1005.2 845.5 1004.55 848.32578125 997.6234375 849.7 993.75 852.1607421875 996.4607421875 854.85 999.15 861.95 1006.25 872.65 1015.1 890.05 1029.55 905.45 1039.7 923.7 1051.75 941.35 1059.2 948 1062.05 953.05 1062.7 959.65 1063.55 964.25 1060.7 968.05 1058.4 969.7 1053.95 971.3 1049.5 970 1045.25 968.5 1040.45 963.45 1036.8 959.75 1034.1 953.45 1031.55 947.2044921875 1029.19609375 942.9 1027.55 942.999609375 1026.731640625 942.95 1025.85 942.75 1022.55 941 1019.6 939.55 1017.1 936.9 1014.6 935.2 1013.05 931.85 1010.45
L 891.6 979.45
Q 884.1 973.7 880.2 970.05 877.3 967.3 872 961.4
L 863.65 952.15
Q 858.7 946.55 857 944.6 853.35 940.3 850.8 936.7 847.75 932.4 847.2 931.75 845 929.05 842.75 927.65 841.887890625 927.1072265625 840.95 926.75 840.9876953125 926.6783203125 841 926.6 841.6 922.8 841.25 919.75 840.85 916.1 839.05 913.2
M 1225.15 1179.2
Q 1221.25 1180.6 1218.8 1182.65 1214.95 1185.8 1214.35 1191.05 1213.7 1196.5 1217.35 1199.35 1220.6 1201.9 1227.55 1201.5 1238.15 1200.9 1249.95 1197.3 1259.55 1194.4 1271.35 1189 1277.1 1186.4 1280.55 1184.25 1285.35 1181.3 1288.45 1177.8 1290.55 1175.45 1291.4 1172.9 1292.35 1169.9 1291.15 1167.55 1289.4 1164.1 1283.6 1163.3 1277.2 1162.45 1269.1 1164.75 1265.9 1165.65 1255 1169.85 1243.7 1174.25 1232.25 1177.15 1227.05 1178.5 1225.15 1179.2
M 1075.15 883.2
Q 1071.2 883.4 1069.45 890.45
L 1065.5 906.35
Q 1064.9955078125 908.3859375 1064.55 910.2 1063.38046875 910.464453125 1062.35 911.05 1060.5 912.15 1059.4 914.25 1058.35 916.2 1058.25 918.5 1058 921.95 1060 927.05 1060.58046875 928.525390625 1061.3 930.05 1061.414453125 932.9314453125 1062.2 935.05 1063.14140625 935.708984375 1064.3 935.75 1065.3390625 937.5623046875 1066.55 939.4 1064.6873046875 941.775390625 1062.35 946.45
L 1056.1 959
Q 1050.2 970.9 1046.8 976.55 1043.85 981.5 1040.45 986.25 1037.00234375 991.0482421875 1033.2 995.4 1033.016015625 994.3640625 1032.75 993.15
L 1030.55 982.7
Q 1028.75 973.95 1027.25 969.1 1023.6 957.2 1015.5 944.65 1009.45 935.3 999 922.8 992.25 914.75 987.4 910.25 981.75 905.05 973.65 899.8 968.8 896.7 958.7 890.9 952.1 887.1 948.3 885.35 942.4 882.55 937.3 881.4 932.2 880.3 929.05 881.5 927 882.3 925.8 884.1 924.45 885.95 924.75 887.95 925.1 890.45 927.9 892.25 929.2296875 893.1103515625 931.8 894.1 928.5328125 895.3916015625 927.2 898.2 926.1 900.45 926.5 903.25 926.85 905.8 928.3 908.15 929.5 910.05 931.65 912.1 932.7 913.1 935.55 915.55 953 930.45 967.25 948.6 981.5 966.8 991.75 987.3 1000.85 1005.5 1003.85 1020.6 1004.8 1025.6 1004.9 1026.2 1005.6 1029.4 1006.55 1031.65 1007.7 1034.45 1009.6 1036.5 1011.7 1038.75 1014.25 1039.55 1017.8 1040.65 1021.35 1038.85 1022.9912109375 1038.029296875 1024.1 1036.85 1028.1330078125 1035.8310546875 1031.95 1033.35 1035.15 1031.3 1038.9 1027.75 1041.05 1025.75 1045.25 1021.5 1047.05 1019.8 1050.65 1016.35 1053.7 1013.35 1055.6 1010.8 1056.85 1009.2 1058.9 1005.95 1061.1 1002.55 1062.2 1001.05 1063.15 999.8 1066.1 996.25 1068.55 993.3 1069.85 991.35 1071.85 988.25 1074.8 981.2
L 1075.25 980.05
Q 1076.70703125 981.6955078125 1078.25 983.35 1084.3 989.8 1095.6 999.75 1114 1015.95 1126.1 1024.5 1143.8 1036.9 1160.45 1042.65 1165.5 1044.35 1169.3 1044.95 1174.2 1045.7 1178.25 1044.8 1182.9 1043.75 1186.25 1040.45 1189.75 1036.95 1189.95 1032.55 1190.1 1028.9 1187.85 1025.4 1185.85 1022.25 1182.4 1020 1179.7 1018.2 1175.6 1016.65 1172.4666015625 1015.583984375 1170.3 1014.85 1169.973046875 1012.45859375 1168.7 1010.2 1167.4 1007.9 1165.1 1005.55 1163.9 1004.25 1160.75 1001.45 1150.55 992.4 1131.1 973.35
L 1111.85 954.45
Q 1100.9 943.75 1095.1 937.65 1086.05 928.15 1079.6 919.75 1077.4 916.8 1076.3 915.55 1076.0791015625 915.3068359375 1075.85 915.05 1078.2701171875 905.8044921875 1080 896.7 1081.1 891.35 1080.45 888.45 1080.05 886.3 1078.65 884.8 1077.05 883.1 1075.15 883.2
M 1143.8 864.2
Q 1140.85 863.45 1138.1 863.75 1135.1 864.1 1132.9 865.7 1130.55 867.45 1129.75 870.35 1128.9 873.35 1130.3 875.7 1131.6 877.85 1135.55 879.9 1140.16796875 882.384375 1142.75 883.85 1140.5455078125 883.269140625 1138.5 883.5 1135.05 883.9 1132.5 886.6 1129.9 889.3 1129.65 892.75 1129.4 896.4 1131.65 900.25 1133.35 903.1 1136.8 906.5 1138.45 908.1 1148.95 917.65 1156.4 924.4 1160.45 929.4 1163.7 933.5 1168.25 940.75 1175.6 952.2 1179 958.65 1180.75 961.9 1190.55 984.05 1197.4 999.5 1204 1008.2 1207.5 1012.75 1210.7 1013.8 1214.65 1015.05 1218.55 1012.25 1222.2 1009.55 1223.35 1005.25 1224.35 1001.55 1223.55 996.9 1223 993.65 1221.3 988.6 1221.245703125 988.44140625 1221.2 988.25 1222.959765625 987.290625 1224.15 985.25 1225.4 983.05 1225.6 980.35 1225.75 978.2 1225.3 975.35 1224.65 972 1224.35 970.3 1223.35 962.95 1222.55 959.35 1221.7 955.75 1220 951.45 1218.9 948.7 1216.6 943.85 1209.1 927.65 1202.1 914.9 1198.55 908.35 1195.75 904.7 1194 902.35 1191.4 899.7 1190 898.25 1186.65 895.05
L 1182.15 890.7
Q 1174.95 883.8 1171.1 880.7 1165.6 876.3 1153.95 869.15 1150.7 867.15 1149.05 866.3 1146.25 864.85 1143.8 864.2
M 638.15 1276.5
Q 640.95 1277.95 647.05 1278.55 667.7 1280.3 684.2 1276.5 693.1 1274.4 699.4 1270.5 706.9 1265.8 709.8 1258.9 711.05 1256.05 710.3 1254.1 709.45 1251.9 706.25 1250.85 701.3 1249.2 694.45 1251 686.5 1253.75 682.6 1255.05 675.25 1257.55 665.7 1258.75 659.6 1259.5 648.3 1260.1 641.75 1260.4 638.7 1261.8 636.3 1262.9 634.8 1264.85 633.15 1267 633.2 1269.35 633.2 1271.55 634.65 1273.55 636 1275.4 638.15 1276.5
M 623.9 1181.35
Q 624.7 1184.15 626.7 1186.4 628.7 1188.65 631.35 1189.8 633.8 1190.85 637.5 1191.15 639.6 1191.3 643.9 1191.4 646.75 1191.6 652.2 1192.45 657.75 1193.3 660.45 1193.5 670.4 1194.3 676.45 1190 678.35 1188.6 679.5 1186.8 680.75 1184.75 680.7 1182.7 680.7 1179.95 678.45 1177.55 676.6 1175.55 673.5 1174.35 671.25 1173.5 667.6 1172.8 661.75 1171.7 653.85 1170.85 644.65 1169.95 640.05 1169.5 634.45 1168.9 631.7 1169.35 626.9 1170.15 624.75 1173.5 622.6 1176.8 623.9 1181.35
M 583.2 927.7
Q 575.5 928.8 572.05 933.65 569.3 937.5 570.2 942.8 571 947.9 574.55 951.5 580.45 957.6 592.25 958.95 600.6 959.9 611.05 958.65 617.45 957.9 629.7 955.4 645.65 952.15 653.45 950.2 666.55 946.9 676.6 942.85 678.98359375 941.89140625 681.3 940.85 681.5921875 941.540625 681.9 942.25 682.3115234375 943.187890625 682.75 944.1 682.4212890625 945.1703125 682.45 946.35 682.5 948.4 683.55 950.1 684.4 951.4 686.05 952.7 686.90703125 953.3427734375 688.5 954.4 688.7228515625 954.7650390625 688.95 955.1 692.25 959.95 695.1 961.7 695.9744140625 962.2640625 696.9 962.65 699.2720703125 965.7802734375 702.2 970.6 716.2 993.5 724.85 1018.9 726.3 1023.2 729.15 1031.9 731.7 1039.4 734.15 1044.55 736 1048.4 737.9 1050 739.25 1051.1 740.9 1051.45 742.65 1051.8 744.1 1051.1 746.75 1049.85 747.5 1045.6 748.4 1041.05 747.2 1035.35 746.5 1031.8 744.2 1025.3 736.7 1003.8 731.55 991.95 728.85 985.65 725.6 979.25
L 722.1 972.6
Q 717.2814453125 963.74296875 712.6 957.55 713.1205078125 956.7423828125 713.5 955.8 714.95 952.25 714.25 948.6 713.7 945.7 711.3 941.85 707.5 935.85 707.3 935.45 705.2373046875 930.4994140625 704.1 927.8 706.31796875 926.19453125 707.7 924.85 710.4 922.35 711.7 919.7 713.2 916.75 713.25 913.3 713.3 909.85 711.9 906.85 710.55 903.8 708 901.55 705.45 899.25 702.25 898.25 696.85 896.5 689.85 898.4 685.65 899.55 677.75 903.2 646.15 917.65 612.2 924.95 602.2 927.05 596.2 927.25 591.85 927.3 589.7 927.3 585.8 927.3 583.2 927.7
M 1200.95 735.7
Q 1209.4 734 1214.1 731.85 1220.95 728.65 1223.45 723.2 1224.65 720.7 1224.35 718.45 1224.05 716.45 1222.5 714.75 1221.1 713.15 1219 712.25 1215.95 710.9 1211.8 710.8 1209.1 710.75 1204.3 711.4 1193.2 712.8 1186.25 714 1176.4 715.7 1168.5 718.05 1158.05 721.15 1156.4 727.1 1155.3 731.05 1158.05 734.9 1160.6 738.5 1164.8 739.9 1168.4 741.05 1173.1 740.75 1176.1 740.6 1181.55 739.5
L 1200.95 735.7
M 1303.9 1257
Q 1303.2 1254.7 1299.7 1253.45 1294.05 1251.4 1286.4 1252.45 1282.45 1252.95 1272.95 1255.5 1259.35 1259.25 1244.45 1261.9 1240.95 1262.5 1239.25 1263.05 1236.45 1263.95 1234.8 1265.6 1232.45 1267.9 1232.15 1271.6 1232.0826171875 1272.557421875 1232.15 1273.45 1231.49296875 1274.40078125 1231.05 1275.45 1230.25 1277.25 1230.05 1279.75 1229.9 1281.2 1229.95 1284.2
L 1230.2 1301.3
Q 1224.8287109375 1298.0447265625 1219.8 1298.3 1198.7986328125 1291.4923828125 1172.85 1293 1160.85 1293.7 1147.2 1296.25 1136.15 1298.3 1121.95 1302 1112.65 1304.5 1106.85 1306.5 1098.65 1309.35 1092.5 1312.9 1080.7 1319.65 1069.65 1332.5 1063.0958984375 1340.0990234375 1052.55 1355.5 1037.741796875 1347.3791015625 1018.05 1343.7 1006.9 1341.6 992.85 1340.8 983.85 1340.25 967.45 1340 953.85 1339.85 946.75 1340.25 935.3 1340.95 926.4 1343.35 921.15 1344.75 914.8 1347.35 911.1 1348.85 903.45 1352.3
L 898.1 1354.8
Q 897.8498046875 1354.558203125 897.6 1354.3 891.65 1348.3 882.95 1342.9 866.8 1332.95 846.95 1328 828.5 1323.4 808.05 1323.5 789.65 1323.55 769.15 1327.35 751.65 1330.6 731.15 1336.95 718.7 1340.8 717.7 1347.85 717.25 1350.9 719.1 1353.95 720.75 1356.7 723.65 1358.5 727.75 1361.05 733.75 1361.65 737.85 1362.05 744.55 1361.55 750.9 1361.1 768.35 1359.35 783.35 1357.9 792.2 1357.4 819.75 1355.9 839.2 1360.7 858.05390625 1365.4134765625 877 1377.15 878.81484375 1381.1240234375 882.75 1382.45 885.118359375 1383.239453125 887.95 1382.9 890.52890625 1383.6796875 892.8 1383.55 898.75 1383.25 902.55 1377.6
L 902.55 1377.55
Q 924.973046875 1368.273046875 953.9 1367.25 976.45 1366.45 1009.95 1371.25 1019.7 1372.65 1025.2 1374 1033.55 1376.1 1039.55 1379.55 1041.25 1380.55 1045.15 1383.15 1048.7 1385.5 1050.85 1386.65 1057.95 1390.35 1063.7 1388.95 1068.45 1387.7 1071.15 1383.05 1073.82734375 1378.389453125 1072.5 1373.65 1072.9626953125 1373.2294921875 1073.4 1372.75 1075.95 1369.95 1080.1 1363.95 1087.05 1353.8 1091.75 1348.55 1098.8 1340.5 1106.3 1336.25 1110.95 1333.6 1117.4 1331.5 1121.3 1330.25 1129.15 1328.3 1154.75 1321.95 1170 1320.5 1192.9 1318.35 1210.55 1323.95 1213.05 1324.75 1218 1326.45 1222.3 1327.75 1225.6 1327.95 1228.5287109375 1328.1244140625 1231.15 1327.45 1231.8583984375 1327.8041015625 1232.65 1328.2 1236.35 1330 1239.15 1330.7 1242.8 1331.6 1246.2 1331 1249.95 1330.35 1252.3 1328 1255 1325.35 1255.65 1320.55 1256.1 1317.45 1255.65 1311.9
L 1253.35 1285.55
Q 1255.6109375 1285.3853515625 1258.2 1285 1276.5 1282.5 1288.8 1275.75 1300.2 1269.55 1303.45 1260.85 1304.35 1258.5 1303.9 1257
M 1304.4 829
Q 1302.9 826.3 1300.25 824.6 1295.95 821.95 1288.6 821.75 1281.1 821.5 1266.4 823.65 1251.55 825.8 1244.2 825.65 1237.55 825.2 1234.2 825.2 1228.45 825.1 1224.5 826.5 1219.6 828.25 1216.85 832.8 1214 837.6 1216.1 841.85 1217.7 845 1221.75 846.75 1224.75 848 1229.5 848.6 1245.85 850.7 1261.5 849.8 1278 848.8 1293.05 844.5 1304.2 841.25 1305.4 834.75 1305.95 831.9 1304.4 829 Z"/>
</g>
</defs>

<g transform="matrix( 1, 0, 0, 1, 0,0) ">
<use xlink:href="#Layer19_0_FILL"/>
</g>

<g transform="matrix( 1, 0, 0, 1, 0,0) ">
<use xlink:href="#Layer18_0_FILL"/>
</g>
</svg>
