
<svg xmlns="http://www.w3.org/2000/svg" version="1.1" xmlns:xlink="http://www.w3.org/1999/xlink" preserveAspectRatio="none" x="0px" y="0px" width="2000px" height="2000px" viewBox="0 0 2000 2000">
<defs>
<g id="Layer19_0_FILL">
<path fill="#000000" stroke="none" d="
M 1614.95 763.15
Q 1602.3 763.5 1589.9 770.15 1578.55 776.25 1569.2 786.6 1561.15 795.45 1553.95 808.05 1548.75 817.1 1542.1 831.75 1533.9 849.8 1528.9 863.2 1524.161328125 875.909765625 1521.1 887.5 1514.8953125 876.032421875 1509.1 868.1 1499.9 855.5 1489.25 847.95 1475.65 838.3 1458.4 835.6 1441.4 832.95 1425.15 837.75 1409.2 842.45 1396 853.75 1383 864.85 1375.3 879.95 1370 890.4 1368.85 900.55 1367.55 912.15 1372.15 921.1 1358 918.35 1343.55 924.15 1329.55 929.75 1320.05 941.4 1311.05 952.5 1307.2 967.4 1303.55 981.6 1305.15 996.65 1308.15 1023.8 1327 1050.5 1341.95 1071.8 1362.1 1083.75 1384.7 1097.2 1407.2 1094.35 1420.6 1163.8 1431.6 1219.15 1432.45 1223.55 1434.25 1226.3 1434.339453125 1226.4349609375 1434.4 1226.55 1426.7322265625 1228.973046875 1419.75 1232.4 1401.5 1241.4 1391.1 1256 1388.45 1259.75 1388.95 1262.2 1389.4 1264.6 1392 1265.75 1394.5 1266.8 1397 1266.1 1399.15 1265.5 1401.4 1263.7 1402.3 1263 1405.15 1260.3 1419.7 1246.55 1439.55 1240.05 1459.25 1233.65 1479.35 1236 1499.25 1238.3 1517.2 1248.85 1534.95 1259.3 1547 1275.6 1552.95 1283.7 1557.9 1293.6 1560.8 1299.35 1563.15 1302.1 1566.75 1306.3 1571.05 1306.55 1573.3 1304.35 1574.05 1300.8 1574.75 1297.55 1574.05 1294.1 1573.4 1291.2 1571.75 1287.8 1570.8 1285.85 1568.45 1281.95 1563.3 1273.5 1560.75 1269.75 1556.3 1263.05 1552 1258.3 1546.5 1252.3 1538.9 1246.6 1538.3927734375 1246.220703125 1537.85 1245.8 1537.9802734375 1245.7197265625 1538.1 1245.6 1540.9 1242.8 1545.15 1240.15 1547.65 1238.65 1553.05 1235.9 1562.7 1231 1568.05 1228.95 1575.8525390625 1225.9958984375 1584.1 1224.85 1586.4822265625 1225.6279296875 1588.75 1225.25 1590.2595703125 1224.969140625 1591.55 1224.25 1592.49296875 1224.2109375 1593.45 1224.2 1606.7 1224.05 1618.95 1228.35 1631.2 1232.65 1641.45 1241 1651.7 1249.4 1658.35 1260.55 1659.35 1262.2 1661.25 1265.55 1662.95 1268.35 1664.55 1270.2 1669.05 1275.35 1674.4 1275.35 1675.5 1269.7 1674.15 1263.55 1672.9 1257.85 1669.75 1252.45 1664.85 1244.05 1654.05 1234.7 1635.4 1218.55 1617.8 1213.5 1609.3953125 1211.0986328125 1597.05 1210.3 1596.4396484375 1206.7513671875 1594.35 1202.75 1593.15 1200.55 1589.55 1195 1577.1 1175.75 1560.4 1138.05 1542.2 1096.9 1532.55 1080.35 1530.9 1077.7 1531.4 1076.1 1531.8 1074.7 1534.3 1073.25 1548.1 1065.05 1559 1052.85 1569.85 1040.65 1576.5 1026 1583.1 1011.35 1585.05 995.1 1586.841796875 979.8228515625 1584.3 964.85
L 1602.75 970
Q 1610.55 972.15 1614.2 973 1620.65 974.5 1625.9 975 1643.55 976.8 1666.85 969.2 1694.65 960.05 1712.95 944.2 1723.25 935.3 1730.3 924.4 1737.75 912.85 1740.7 900.35 1743.4 888.95 1741.65 878.35 1739.7 866.65 1732.6 858.95 1725.1 850.75 1712.3 847.5 1701.65 844.85 1688.05 845.75 1650.65 848.2 1609.75 870.5 1618.85 855.4 1627.1 840.25 1631.85 831.4 1634.45 825.7 1638.15 817.6 1640.05 810.5 1644.75 792.5 1639.3 778.5 1636.4 770.9 1631.1 767.1 1625 762.8 1614.95 763.15
M 1587 790.25
Q 1595.8 783.05 1605.55 779.75 1611.8 777.65 1617.5 778.55 1624.05 779.6 1626.45 784.5 1628 787.65 1627.3 792 1626.85 795 1625 799.6 1606.3 846.95 1575.8 888.3 1572.95 892.2 1571.8 894.15 1569.8 897.55 1569.25 900.6 1568.55 904.2 1570 907.6 1571.5 911.15 1574.7 912.3 1577.95 913.45 1582 911.6 1584.65 910.4 1588.65 907.15 1611.55 888.75 1636.45 877.8 1663.4 865.9 1690.4 863.85 1700.85 863.05 1708.5 865.2 1718.15 867.9 1722.1 875 1725.25 880.55 1724.45 888.35 1723.85 894.3 1720.75 902.1 1716 914.45 1710.05 921.85 1703.3 930.25 1692 936.5 1683.25 941.35 1670.1 945.7 1660.4 948.9 1652.95 950.45 1643.55 952.4 1635.35 952.35 1625.3 952.25 1606.5 947.85 1587.1 943.25 1577.65 942.9 1572.7 942.75 1569 944.2 1564.45 946.05 1563.6 949.85 1563.05 952.25 1564.25 954.8 1565.35 957.15 1567.5 958.8 1568.0609375 959.224609375 1568.7 959.6 1576.4390625 984.498046875 1557.35 1019.25 1550.65 1031.45 1543.7 1039.15 1534.85 1048.95 1524.6 1052.85 1523.55 1053.25 1518.75 1054.85 1515.1 1056 1513 1057.1 1510 1058.65 1508 1060.85 1505.75 1063.4 1505.3 1066.25 1504.95 1068.7 1505.85 1071.65 1506.4 1073.4 1507.95 1076.75
L 1572.4 1211.5
Q 1571.6517578125 1211.6638671875 1570.9 1211.85 1564.5 1213.5 1554.15 1218.35 1546.95 1221.65 1542.6 1224 1536.4 1227.3 1531.8 1230.8 1527.3724609375 1234.1763671875 1525.4 1237.6 1524.817578125 1237.2240234375 1524.2 1236.85 1511.35 1229.1 1502.5 1225.9 1482.4 1218.65 1456.25 1221.95 1450.6375 1222.6306640625 1445.3 1223.75 1446.10859375 1219.93828125 1445.2 1215.35
L 1421.25 1094.8
Q 1420.3 1090.15 1419.45 1087.75 1418.1 1083.95 1415.85 1081.65 1412.3 1078 1405.45 1077 1397.2 1076.5 1393.25 1076.15 1377.65 1074.85 1362.95 1063.9 1350.5 1054.6 1339.7 1039.3 1329.4 1024.7 1324.4 1010.55 1318.6 994 1320.35 978.95 1322.3 962.3 1334.1 949.95 1346.4 937 1362.1 937.1 1365.55 937.1 1368.25 938.1 1371.45 939.25 1372.95 941.65 1374.4 944 1374.2 947.55 1374.05 949.6 1373 953.75 1369.9 966.6 1370.6 976.5 1371.8 993.9 1384.15 1008.25 1396.25 1022.3 1413.5 1027.05 1430.3 1031.7 1448.3 1026.85 1465.8 1022.1 1479 1009.95 1491.75 998.2 1498.95 981.2 1505.85 964.8 1506.3 946.7 1506.75 930.9 1500.95 921.55 1494.7 911.5 1481.45 907.5 1469.75 903.95 1456.1 905.9 1448.2 907.05 1431.6 911.75 1415.75 916.25 1407.1 917.25 1396 918.45 1391.1 913.8 1387.3 910.2 1387.35 903.8 1387.35 898.5 1389.85 892.4 1395.1 879.85 1404.9 870.3 1414.9 860.55 1427.45 856.2 1440.3 851.75 1454 853.6 1467.95 855.5 1478.6 863.45 1486.25 869.1 1492.8 878.4 1497.8 885.5 1503.3 896.5 1505.6 901.15 1506.85 903.1 1509.1 906.65 1511.8 908.55 1514.95 910.85 1518.9 910.8 1523.05 910.75 1525.25 907.9 1525.3587890625 907.7619140625 1525.45 907.6 1525.5296875 907.610546875 1525.6 907.6 1528.4 907.15 1530.4 905.15 1532.1 903.45 1533.35 900.7 1534.1 898.95 1535.15 895.55 1543.45 868.75 1553.1 844.2 1557.85 832.15 1561.6 824.45 1566.7 813.9 1572.4 805.95 1579 796.75 1587 790.25
M 1474.7 925.1
Q 1479.55 925.75 1482.05 927.85 1483.8 929.45 1485 932.2 1488.9 940.8 1486.9 953.95 1485.45 963.4 1482 972.4 1480.6 975.95 1477.2 982.95 1474.9 987.75 1472.9 990.45 1469.95 994.4 1464.9 997.65 1461.2 1000.05 1455.25 1002.65 1440.35 1009.25 1429.05 1010 1421.9 1010.45 1415.45 1008.7 1408.4 1006.85 1403.3 1002.7 1400 1000.05 1396.25 995.25 1387.65 983.95 1387.75 974.4 1387.75 972.05 1388.35 968.75 1389.15 965 1389.45 963.1 1390.5 957 1390.4 949.25 1390.35 944.4 1389.65 935.3 1396.85 937.85 1404.65 937.7 1411 937.55 1419.3 935.3 1424.1 934 1433.65 930.95 1442.9 928.2 1451.55 926.55 1465.4 923.85 1474.7 925.1 Z"/>

<path fill="#6699CC" stroke="none" d="
M 1605.55 779.75
Q 1595.8 783.05 1587 790.25 1579 796.75 1572.4 805.95 1566.7 813.9 1561.6 824.45 1557.85 832.15 1553.1 844.2 1543.45 868.75 1535.15 895.55 1534.1 898.95 1533.35 900.7 1532.1 903.45 1530.4 905.15 1528.4 907.15 1525.6 907.6 1525.5296875 907.610546875 1525.45 907.6 1525.3587890625 907.7619140625 1525.25 907.9 1523.05 910.75 1518.9 910.8 1514.95 910.85 1511.8 908.55 1509.1 906.65 1506.85 903.1 1505.6 901.15 1503.3 896.5 1497.8 885.5 1492.8 878.4 1486.25 869.1 1478.6 863.45 1467.95 855.5 1454 853.6 1440.3 851.75 1427.45 856.2 1414.9 860.55 1404.9 870.3 1395.1 879.85 1389.85 892.4 1387.35 898.5 1387.35 903.8 1387.3 910.2 1391.1 913.8 1396 918.45 1407.1 917.25 1415.75 916.25 1431.6 911.75 1448.2 907.05 1456.1 905.9 1469.75 903.95 1481.45 907.5 1494.7 911.5 1500.95 921.55 1506.75 930.9 1506.3 946.7 1505.85 964.8 1498.95 981.2 1491.75 998.2 1479 1009.95 1465.8 1022.1 1448.3 1026.85 1430.3 1031.7 1413.5 1027.05 1396.25 1022.3 1384.15 1008.25 1371.8 993.9 1370.6 976.5 1369.9 966.6 1373 953.75 1374.05 949.6 1374.2 947.55 1374.4 944 1372.95 941.65 1371.45 939.25 1368.25 938.1 1365.55 937.1 1362.1 937.1 1346.4 937 1334.1 949.95 1322.3 962.3 1320.35 978.95 1318.6 994 1324.4 1010.55 1329.4 1024.7 1339.7 1039.3 1350.5 1054.6 1362.95 1063.9 1377.65 1074.85 1393.25 1076.15 1397.2 1076.5 1405.45 1077 1412.3 1078 1415.85 1081.65 1418.1 1083.95 1419.45 1087.75 1420.3 1090.15 1421.25 1094.8
L 1445.2 1215.35
Q 1446.10859375 1219.93828125 1445.3 1223.75 1450.6375 1222.6306640625 1456.25 1221.95 1482.4 1218.65 1502.5 1225.9 1511.35 1229.1 1524.2 1236.85 1524.817578125 1237.2240234375 1525.4 1237.6 1527.3724609375 1234.1763671875 1531.8 1230.8 1536.4 1227.3 1542.6 1224 1546.95 1221.65 1554.15 1218.35 1564.5 1213.5 1570.9 1211.85 1571.6517578125 1211.6638671875 1572.4 1211.5
L 1507.95 1076.75
Q 1506.4 1073.4 1505.85 1071.65 1504.95 1068.7 1505.3 1066.25 1505.75 1063.4 1508 1060.85 1510 1058.65 1513 1057.1 1515.1 1056 1518.75 1054.85 1523.55 1053.25 1524.6 1052.85 1534.85 1048.95 1543.7 1039.15 1550.65 1031.45 1557.35 1019.25 1576.4390625 984.498046875 1568.7 959.6 1568.0609375 959.224609375 1567.5 958.8 1565.35 957.15 1564.25 954.8 1563.05 952.25 1563.6 949.85 1564.45 946.05 1569 944.2 1572.7 942.75 1577.65 942.9 1587.1 943.25 1606.5 947.85 1625.3 952.25 1635.35 952.35 1643.55 952.4 1652.95 950.45 1660.4 948.9 1670.1 945.7 1683.25 941.35 1692 936.5 1703.3 930.25 1710.05 921.85 1716 914.45 1720.75 902.1 1723.85 894.3 1724.45 888.35 1725.25 880.55 1722.1 875 1718.15 867.9 1708.5 865.2 1700.85 863.05 1690.4 863.85 1663.4 865.9 1636.45 877.8 1611.55 888.75 1588.65 907.15 1584.65 910.4 1582 911.6 1577.95 913.45 1574.7 912.3 1571.5 911.15 1570 907.6 1568.55 904.2 1569.25 900.6 1569.8 897.55 1571.8 894.15 1572.95 892.2 1575.8 888.3 1606.3 846.95 1625 799.6 1626.85 795 1627.3 792 1628 787.65 1626.45 784.5 1624.05 779.6 1617.5 778.55 1611.8 777.65 1605.55 779.75 Z"/>
</g>

<g id="Layer18_0_FILL">
<path fill="#000000" fill-opacity="0.2" stroke="none" d="
M 1322.15 989
Q 1320.6 984.05 1319.65 979.2 1319.25 977.1 1318.8 976.05 1318.15 974.35 1316.9 973.65 1315.25 972.75 1313.3 973.6 1311.45 974.45 1310.55 976.25 1309.8 977.8 1309.7 979.95 1309.65 981.3 1309.9 983.75 1311.8 1003.55 1316.6 1017.35 1319.7 1026.5 1324.75 1035.15 1328.1 1040.9 1331.3 1044.4 1334.8 1048.25 1341.9 1053.35 1370.85 1074.35 1399.85 1084.3 1407.2931640625 1086.87890625 1411.95 1085.8 1412.1052734375 1086.3822265625 1412.25 1087
L 1431.95 1171.85
Q 1434.7 1183.4 1436.1 1188.95 1437.2716796875 1193.493359375 1438.45 1197.55
L 1440.8 1214.55
Q 1441.65 1220.3 1442.9 1223.5 1444.8 1228.2 1448.4 1230.05 1452 1231.95 1456.2 1230.2 1459.799609375 1228.74296875 1461.2 1225.7 1462.0244140625 1225.8033203125 1462.95 1225.9 1481.15 1227.75 1492.4 1230.85 1501.70390625 1233.4115234375 1509.1 1237.4 1508.987890625 1239.7884765625 1509.95 1241.8 1511.65 1245.3 1515.9 1246.65 1519.2373046875 1247.7484375 1522.75 1247.1 1522.996484375 1247.3373046875 1523.25 1247.55 1526 1249.7 1528.3 1250.75 1531.2 1252.1 1534.25 1251.95 1537.55 1251.75 1539.6 1249.75 1541.5 1247.95 1541.95 1244.95 1542.3 1242.15 1541.25 1239.5 1540.90703125 1238.5775390625 1540.35 1237.6 1551.3845703125 1230.9005859375 1561.8 1229.9 1563.9 1229.7 1568.4 1229.65 1572.7 1229.6 1574.95 1229.35 1582.85 1228.55 1586.95 1224.45 1589.35 1222.05 1590 1218.65 1590.65 1215.1 1588.85 1212.4 1586.9 1209.5 1581.7 1207.7 1573.75 1205 1564.85 1205.05 1556.4 1205.1 1547.9 1207.6 1534.437109375 1211.5359375 1521.1 1221.55 1511.343359375 1216.0853515625 1499.55 1212.95 1482.1373046875 1208.365234375 1462.9 1209.45 1462.79296875 1207.305078125 1462.1 1204.75 1461.65 1203.05 1460.35 1199.5 1456.05 1187.35 1452.2 1172.1 1449.55 1161.8 1445.75 1144.25 1441.95 1127.25 1440.65 1122.15 1435.8 1102.75 1428.8 1083.9 1426.9 1078.9 1425 1076.9 1422.5 1074.2 1418.55 1074.2 1418.3822265625 1074.2 1418.2 1074.2 1418.0548828125 1073.8216796875 1417.85 1073.45 1416.5 1070.95 1413.3 1069.2 1411.4 1068.2 1407.25 1066.75 1379.8 1057.35 1356.3 1041.15 1348.5 1035.85 1344.5 1031.3 1341.15 1027.5 1336.6 1019.5 1331.45 1010.55 1328.55 1004.65 1324.45 996.3 1322.15 989
M 1513.7 939.05
Q 1514.35 935.5 1514.5 932.65 1514.75 926.7 1512.55 917.85 1510.7 910.55 1508.25 906.45 1502.75 897.5 1488.55 892.35 1477.75 888.5 1466.45 887.75 1451.3 886.65 1439.95 891.55 1436.9 892.9 1429.95 896.85 1423.7 900.45 1419.9 901.85 1414.2 904 1407.95 904.1 1401.75 904.25 1395.9 902.35 1396.85 896.75 1396.2 893.6 1395.75 891.3 1394.45 889.55 1393.05 887.65 1391.05 886.9 1388.15 885.85 1384.9 887.45 1381.95 888.95 1380.05 891.9 1376.9 896.9 1377.65 903.4 1378.35 909.7 1382.25 914.55 1385.9 919.1 1391.75 921.8 1397.15 924.3 1403.5 924.85 1406.6 925.1 1410.6 924.95 1412.65 924.85 1417.65 924.4 1423.15 923.9 1425.85 923.3 1428.8 922.6 1435.2 920.1 1446.25 915.9 1454.8 914.5 1465.75 912.7 1474.75 914.9 1484.05 917.15 1487.15 923.15 1488.7 926.1 1488.9 931.3 1489.05 937.45 1487.55 944.95 1486.6 949.45 1484.1 958.3 1482.6 963.4 1482.75 966.05 1482.95 969.6 1485.25 972.6 1487.55 975.6 1490.95 976.7 1494.35 977.8 1498 976.7 1501.6 975.6 1503.85 972.8 1505.25 971 1506.25 968.4 1506.9 966.65 1507.65 963.5
L 1512.25 945.3
Q 1513.3 940.95 1513.7 939.05
M 1735.25 870.95
Q 1731.35 871.35 1728 873.75 1725.25 875.75 1722.6 879.25 1721.35 880.9 1718.25 885.7 1708.95 900.1 1697.1 912.7 1688.95 921.4 1682.1 925.1 1677.8 927.4 1672.15 928.85 1668 929.95 1661.6 930.95 1623.1 937.05 1584.1 933.95 1580.35 933.65 1578.65 933.65 1575.6 933.65 1573.3 934.4 1570.5 935.25 1568.6 937.2 1566.5 939.3 1566.3 941.9 1566.2556640625 942.3984375 1566.25 942.9 1565.6900390625 943.2134765625 1565.1 943.6 1561.05 946.25 1558.8 950.8 1556.95 954.55 1556.15 959.85 1555.8 962 1555.15 969.35 1554.45 976.85 1553.35 981.75 1551.7 989.3 1547.8 998.15 1545.45 1003.55 1540.1 1013.8 1536.4 1020.9 1533.95 1024.4 1529.95 1030.1 1523.1 1035.85 1519.9 1038.55 1510.4 1045.55 1504.85 1049.55 1502.9 1052.8 1501.5 1055.15 1501.35 1057.85 1501.25 1060.7 1502.75 1062.7 1504.1 1064.55 1506.5 1065.35 1508.7 1066.1 1511.2 1065.8 1514.5 1065.45 1519.95 1062.45 1527.25 1058.5 1532.3 1055 1538.65 1050.55 1543.1 1045.6 1546.15 1042.25 1549.2 1037.65 1551.35 1034.35 1554.35 1029
L 1562.8 1013.9
Q 1567.8 1004.95 1569.95 999.7 1571.8 995.2 1574.7 985.05
L 1581.25 961.85
Q 1582.5 957.5 1582.75 955.1 1582.9015625 953.8201171875 1582.85 952.65 1585.7798828125 952.759375 1589.7 952.7 1596.95 952.6 1600 952.8 1602.8 952.95 1613.5 954.5 1641.8 958.6 1663.4 955 1676.25 952.8 1687.4 947.85 1699.35 942.5 1708.35 934.4 1712.4 930.75 1716.9 925.5 1719.6 922.35 1724.7 915.85
L 1738.7 898.05
Q 1741.7 894.2 1742.9 892.25 1745.05 888.85 1745.9 885.8 1746.9 882.15 1746.05 878.65 1745.15 874.85 1742.4 872.8 1739.45 870.55 1735.25 870.95
M 1616.45 775.25
Q 1615.5 777.35 1615.25 781.05 1614.85 785.8 1614.6 787.05 1614.2 788.85 1613.25 791.2 1612.65 792.55 1611.45 795.25 1609.95 798.85 1608.25 805.65 1606.35 813.1 1605.25 816.1 1603.9 819.7 1601.7 823.95 1600.4 826.5 1597.55 831.5 1589.55 845.45 1585.75 851.85 1579.05 863.15 1573.25 871.8 1571.15 874.95 1570.25 876.6 1568.7 879.4 1568.25 881.9 1567.75 884.85 1568.75 887.55 1569.85 890.45 1572.3 891.65 1574.3 892.65 1576.85 892.2 1579.2 891.8 1581.2 890.35 1583.95 888.35 1587.25 883.2
L 1600.5 862.6
Q 1608.25 850.55 1611.9 843.8 1612.8 842.15 1616.35 835.3 1619.05 830.05 1620.95 826.85 1621.3 826.2 1624.9 820.4 1627.3 816.5 1628.65 813.85 1629.7 811.75 1631.05 808.55 1632.5 804.95 1633.25 803.15 1634.55 800 1634.8 799.3 1635.65 797.1 1635.95 795.3 1636.25 793.45 1636.25 790.85 1636.15 787.85 1636.1 786.35 1636.2 782.5 1636.15 780.6 1636 777.35 1634.95 775.15 1633.75 772.55 1631.15 770.9 1628.6 769.25 1625.7 769.25 1622.8 769.25 1620.2 770.9 1617.65 772.6 1616.45 775.25 Z"/>
</g>
</defs>

<g transform="matrix( 1, 0, 0, 1, 0,0) ">
<use xlink:href="#Layer19_0_FILL"/>
</g>

<g transform="matrix( 1, 0, 0, 1, 0,0) ">
<use xlink:href="#Layer18_0_FILL"/>
</g>
</svg>
