
<svg xmlns="http://www.w3.org/2000/svg" version="1.1" xmlns:xlink="http://www.w3.org/1999/xlink" preserveAspectRatio="none" x="0px" y="0px" width="2000px" height="2000px" viewBox="0 0 2000 2000">
<defs>
<g id="Layer19_0_FILL">
<path fill="#000000" stroke="none" d="
M 2030.4 785.2
Q 2030.15 785.35 2029.95 785.55 2025 792.55 2023.8 801 2022.65 809.35 2024.25 817.5
L 2010.6 821
Q 1970.2 824.85 1928.7 829.05 1813.5 841.1 1796.9 731.2 1795.85 724.25 1790.25 726.6 1749.35 742.85 1720.2 786.15 1674.9 853.65 1595.7 851.85 1541.25 850.65 1505.8 808.8 1463.1 758.35 1416.65 723.6 1403.6 778.8 1356.1 809.75 1272.4 864.35 1174.65 849.85 1067.85 833.8 1071.4 733.25 1071.7 724.3 1065.5 727 1017.95 747.8 974.8 785.4 898.9 851.45 802.55 829.45 774.25 823.1 756.35 800.75 728.35 765.6 705.85 732.1 670.85 779.8 624.5 818 566.8 865.5 492.7 860.65 381.8 852.75 322.15 756.55 320.05 751.6 316.2 748.1 310.6 743.05 309.05 747.85 268.85 871.05 144.25 911.15
L 141.45 902.8 135.1 913.8
Q 131.15 915 127.2 915.8 112.65 918.4 98.85 912.8 92.25 910.25 85.85 911.6 82.5 914.3 83.65 918.6 86.05 927.55 96.7 930.6 115.8 935.95 135.1 930.45
L 139.25 983.8 86.45 987.8 85.25 991.45
Q 90.35 994.85 96.55 995.25 118.3 997.2 139.65 992.4
L 140.1 1054.65 78.05 1052.45 79.2 1058.55
Q 108.8 1066.8 139.85 1063.7
L 134.55 1152.9 105.45 1558
Q 102.25 1558.4 99.05 1558.85 87.55 1560.25 76.1 1561.25 71 1561.75 70.05 1566.2 70.2 1567.55 70.9 1568.6 73.1 1571.7 76.8 1573.15 83.4 1575.8 90.75 1575.1 97.8 1574.8 104.3 1577.15 104.4 1578.55 104.55 1580 104.8 1581.9 105.8 1583.75 106.8 1585.45 108.25 1586.85 109.3 1588 110.7 1588.45 112.55 1589.1 114.3 1588.95 115.3 1588.8 116.15 1588.25
L 120.2 1574.45
Q 201.25 1562.8 282.7 1560.65 519.45 1554.4 756.45 1555.75 1400.05 1559.4 2043.4 1564.55 2101.95 1565 2069.3 1529.4 2054.1 1265.35 2047.65 1001.15 2056.25 998.65 2064.9 996.4 2073.25 994.25 2077.4 987.25 2079.3 984.1 2077.65 981.2 2071.55 978.9 2064.8 979.4 2055.25 979.65 2046.25 983.1
L 2041.6 919.45
Q 2049 916.6 2055.85 912.7 2058.9 910.95 2060.6 907.8 2061.85 905.4 2060.9 902.85 2060.15 901.3 2058.75 900.4 2056.65 899 2054.2 899.45 2047.05 900.05 2040.6 903.2
L 2038.1 831.2
Q 2063.55 824.2 2086.85 812.7 2097.4 807.6 2091.65 802.5 2071.05 784.25 2038.15 812.2 2038.25 807.4 2039.2 802.8 2041.05 793.7 2036.2 787 2034 783.9 2030.4 785.2
M 1777.25 758.7
Q 1778.15 761.65 1779.4 764.5 1820.7 860.4 1927 854.75 1976.5 850.2 2024.35 835.5
L 2027.05 908.3
Q 2008.15 914.65 1988.7 919 1858.5 948.5 1782.25 849.4 1776.95 842.45 1771.95 848.6 1708.55 926.15 1606.05 925.8 1501.05 925.45 1446.95 837.5 1444.15 833 1442.75 834.1 1345.35 908.05 1220.8 924.95 1096.95 941.45 1029.35 845.45 970.6 907.9 885.5 918.6 777.05 932.65 710.4 850 638.6 940.8 522.25 956.45 399.05 972.95 318.25 886.45 317.85 886.45 317.7 886.65 256.9 971.6 150.75 982
L 147.75 927.4
Q 264.75 892.3 313.9 780.4 338.75 810.5 368.75 835.4 415.3 874.2 474.85 878.35 619.8 888.35 702.8 766.65 713.5 789.1 730.55 807.35 776.1 856.25 842.1 854.25 963.8 850.6 1046.5 756.35 1046.95 759 1047.8 761.55 1091.55 887.45 1227.6 876.75 1360.7 866.4 1427.65 757.15 1481.7 845.8 1577.45 870.65 1611.85 879.5 1644.55 865.8 1724.6 832.05 1777.25 758.7
M 1775.9 941.05
Q 1770.75 936.4 1767.65 938.55 1705.5 982 1630.25 997.7 1529.5 1018.85 1464.8 939.2 1459.75 932.95 1455.8 936 1347.6 1019.75 1209.9 1012.4 1098.45 1005.65 1029.5 923.35 966.8 971.95 887.2 981.3 802.9 991.35 744.65 941.95 659.75 1033.3 535 1040.2 408.9 1047.95 315.45 967.4 314.5 967.75 313.85 968.45 247.2 1039.9 151.6 1053.55
L 151.1 990.35
Q 156.25 989.45 161.45 989.05 260.1 978.15 314.8 899.85 404.5 984.75 528.95 967.4 639.85 952.1 709.8 867.6 758.35 920.6 829.35 931.95 945.45 950.35 1023.95 862.55 1092.4 952.85 1208.05 945.1 1337.9 935.8 1433.6 848.55 1494.35 938.55 1602.55 941.4 1706.05 944.1 1771 866.4 1791.35 892.45 1820.4 908.6 1918.5 963.1 2026.15 924.95
L 2032.4 986.1
Q 2005.25 992.4 1977.75 997.3 1861.5 1018.05 1775.9 941.05
M 1646.05 1013.05
Q 1712.35 997.45 1761.85 950.6 1787.5 978.4 1822.55 992.4 1923.2 1032.65 2030.1 1005.65
L 2033.8 1004.8
Q 2039.75 1267.4 2046.1 1530.2
L 513.5 1533.8
Q 316.55 1530.1 121.35 1556.1
L 145.5 1178.7 151.4 1062.65
Q 184.45 1058.8 215.6 1047.05 273.6 1025.3 314.9 979.25 328.65 992.75 345.1 1002.5 476 1079.5 622.85 1035.7 693.2 1014.6 743.1 961.3 811.55 1003.6 892.2 995.45 967.75 988.2 1024.5 939.45 1140.75 1055 1306.9 1021.1 1388.4 1004.3 1450.45 949.05 1527.3 1041.35 1646.05 1013.05 Z"/>

<path fill="#0066CC" stroke="none" d="
M 1761.85 950.6
Q 1712.35 997.45 1646.05 1013.05 1527.3 1041.35 1450.45 949.05 1388.4 1004.3 1306.9 1021.1 1140.75 1055 1024.5 939.45 967.75 988.2 892.2 995.45 811.55 1003.6 743.1 961.3 693.2 1014.6 622.85 1035.7 476 1079.5 345.1 1002.5 328.65 992.75 314.9 979.25 273.6 1025.3 215.6 1047.05 184.45 1058.8 151.4 1062.65
L 145.5 1178.7 121.35 1556.1
Q 316.55 1530.1 513.5 1533.8
L 2046.1 1530.2
Q 2039.75 1267.4 2033.8 1004.8
L 2030.1 1005.65
Q 1923.2 1032.65 1822.55 992.4 1787.5 978.4 1761.85 950.6 Z"/>

<path fill="#6BA3DB" stroke="none" d="
M 1767.65 938.55
Q 1770.75 936.4 1775.9 941.05 1861.5 1018.05 1977.75 997.3 2005.25 992.4 2032.4 986.1
L 2026.15 924.95
Q 1918.5 963.1 1820.4 908.6 1791.35 892.45 1771 866.4 1706.05 944.1 1602.55 941.4 1494.35 938.55 1433.6 848.55 1337.9 935.8 1208.05 945.1 1092.4 952.85 1023.95 862.55 945.45 950.35 829.35 931.95 758.35 920.6 709.8 867.6 639.85 952.1 528.95 967.4 404.5 984.75 314.8 899.85 260.1 978.15 161.45 989.05 156.25 989.45 151.1 990.35
L 151.6 1053.55
Q 247.2 1039.9 313.85 968.45 314.5 967.75 315.45 967.4 408.9 1047.95 535 1040.2 659.75 1033.3 744.65 941.95 802.9 991.35 887.2 981.3 966.8 971.95 1029.5 923.35 1098.45 1005.65 1209.9 1012.4 1347.6 1019.75 1455.8 936 1459.75 932.95 1464.8 939.2 1529.5 1018.85 1630.25 997.7 1705.5 982 1767.65 938.55 Z"/>

<path fill="#FFFFFF" stroke="none" d="
M 1779.4 764.5
Q 1778.15 761.65 1777.25 758.7 1724.6 832.05 1644.55 865.8 1611.85 879.5 1577.45 870.65 1481.7 845.8 1427.65 757.15 1360.7 866.4 1227.6 876.75 1091.55 887.45 1047.8 761.55 1046.95 759 1046.5 756.35 963.8 850.6 842.1 854.25 776.1 856.25 730.55 807.35 713.5 789.1 702.8 766.65 619.8 888.35 474.85 878.35 415.3 874.2 368.75 835.4 338.75 810.5 313.9 780.4 264.75 892.3 147.75 927.4
L 150.75 982
Q 256.9 971.6 317.7 886.65 317.85 886.45 318.25 886.45 399.05 972.95 522.25 956.45 638.6 940.8 710.4 850 777.05 932.65 885.5 918.6 970.6 907.9 1029.35 845.45 1096.95 941.45 1220.8 924.95 1345.35 908.05 1442.75 834.1 1444.15 833 1446.95 837.5 1501.05 925.45 1606.05 925.8 1708.55 926.15 1771.95 848.6 1776.95 842.45 1782.25 849.4 1858.5 948.5 1988.7 919 2008.15 914.65 2027.05 908.3
L 2024.35 835.5
Q 1976.5 850.2 1927 854.75 1820.7 860.4 1779.4 764.5 Z"/>
</g>
</defs>

<g transform="matrix( 1, 0, 0, 1, 0,0) ">
<use xlink:href="#Layer19_0_FILL"/>
</g>
</svg>
