
<svg xmlns="http://www.w3.org/2000/svg" version="1.1" xmlns:xlink="http://www.w3.org/1999/xlink" preserveAspectRatio="none" x="0px" y="0px" width="2000px" height="2000px" viewBox="0 0 2000 2000">
<defs>
<g id="Layer19_0_FILL">
<path fill="#000000" stroke="none" d="
M 305.35 678.2
Q 294.9 676.55 284.6 674.95 256.8 670.75 231.35 681.75 213 689.7 215.4 709.5 216.8 721.05 219.35 732.25 230.15 779.35 233 827.35 235.25 864.95 236.1 902.55 236.8 934.6 237.95 966.65 238.6 984.55 242.2 1001.8 245.25 1016.55 260.1 1019.9 281.6 1024.55 303.75 1024.75 342.65 1025.1 377.85 1008.7 412.1 992.9 426.35 958.45 433 942.5 431.15 925.3 427.7 893.75 402.45 874.55 380.4 857.8 354.65 847.1 368.4 843.85 382.35 841.35 412.65 835.7 437.25 817.05 456.45 802.45 459.45 779 460.55 770.2 457.65 761.5 447.7 731.8 421 714.8 395 698.25 365.15 690.45 335.45 682.85 305.35 678.2
M 258.05 714.2
Q 279.1 713.2 299.85 717.1 329.9 723.05 359.95 729.55 364.15 730.5 368.05 732.2 393.65 743.05 414.3 761.7 416 763.25 417 765.45 422.65 777.65 412.25 787.45 409.15 790.7 404.8 792.35 340.45 815.7 271.95 814.95
L 258.05 714.2
M 367.4 898.15
Q 383.7 904.75 389.5 920.9 390.5 923.8 391.2 927.05 393.9 939.1 386.9 949.05 364.65 980.7 326 983.55 302.75 985.25 280.4 982.7
L 274.65 860.6
Q 289.45 865.15 304.45 869.8 333.75 878.75 360 894.5 363.6 896.6 367.4 898.15 Z"/>
</g>

<g id="Layer19_1_FILL">
<path fill="#000000" stroke="none" d="
M 677 725.25
Q 673.1 726.4 670.5 729.55 662 739.95 662.75 753.7 665.45 801.25 660.4 848.65 656.85 881.65 643.15 911.85 635.05 929.65 620.8 942.65 605 957.1 584.3 951.55 565.95 946.7 550.55 935.55 528.55 919.75 532 892.75
L 536.85 734.95
Q 539.7 718.05 526.6 708.6 523.45 706.3 519.55 705.8 501 705.6 497.45 723.8 495.6 733.15 495.85 742.8 496.6 772.8 495.35 802.8 494.15 831.65 493 860.5 491.75 890.95 494.35 921.45 495.55 935.2 504.5 945.6 519.2 962.65 538.25 975 564.3 991.8 595.05 993.3 617.3 993.8 635.6 981.4 653.35 969.4 665.5 951.4 682.9 925.75 691.5 895.85 699.35 868.4 701.1 839.85 702.85 810.6 703.25 781.35 703.3 776.45 703.9 771.6 706.35 751.2 699.4 732.55 690.8 721.5 677 725.25 Z"/>
</g>

<g id="Layer19_2_FILL">
<path fill="#000000" stroke="none" d="
M 788.5 714.9
Q 784.2 709.55 778.55 705.35 771.5 700.2 763.45 702.75 750 707.3 750.3 721.5 750.5 730.7 756.35 737.75 810.35 803.05 861.6 870.85 859.05 873.25 856.5 875.7 836.05 895.25 819.75 918.6 803.85 941.35 793.2 966.95 789.95 974.8 791.15 983.15 793.5 999.1 809.85 1000.4 814.7 1000.35 818.7 997.6 829.15 990.4 833.5 978 840.2 959 852.45 942.9 869.65 920.25 888 898.35 933.6 839.8 960.7 770.6 971 744.3 980.9 718.05 986.65 702.85 987.8 686.8 988.95 670.45 974.85 662.35 970.7 659.9 966.05 661.3 950.5 666.1 945.1 682.4
L 878.95 826.4
Q 833.7 770.65 788.5 714.9 Z"/>
</g>

<g id="Layer19_3_FILL">
<path fill="#000000" stroke="none" d="
M 1518.5 588.65
Q 1514.15 575.95 1500.4 575 1472.3 574 1444.15 575.6 1421.55 576 1398.95 576.35 1376.4 576.65 1353.85 576.85 1331.25 577.1 1308.7 577.2 1286.15 577.3 1263.65 577.3 1241.1 577.3 1218.6 577.2 1196.1 577.1 1173.6 576.85 1146.9 576.5 1120 576.4 1112.95 576.4 1106.45 579 1085.2 587.4 1083.05 610.85 1081 633.05 1081.6 655.25 1082.25 677.75 1082.15 700.25 1082.1 722.7 1081.8 745.2 1081.5 767.65 1080.95 790.15 1080.45 812.6 1079.65 835.05 1078.9 857.5 1077.9 879.95 1076.9 902.35 1075.65 924.8 1074.45 947.2 1073.1 969.55 1072.3 982.25 1070.8 994.85 1068.5 1013.95 1081.65 1026.4 1087.5 1029.65 1094.15 1029.55 1113 1029.3 1131.75 1028.05 1199.55 1025.3 1267.35 1025.05 1282.25 1025 1297.15 1024.95 1302.25 1024.95 1307.35 1024.95 1312.15 1024.95 1316.95 1024.95 1321.45 1024.95 1326 1024.95 1330.25 1024.95 1334.5 1024.95 1338.5 1024.95 1342.5 1024.95 1355.75 1024.95 1369 1024.95 1398.2 1025 1427.5 1024.6 1460.5 1024.15 1493.55 1022.95 1496.4 1022.75 1499.3 1022.6 1500.9 1022.35 1502.55 1022.2 1503.85 1021.95 1505.2 1021.7 1507 1021.25 1508.8 1020.65 1510.45 1020.25 1512.05 1019.5 1513.55 1018.9 1514.95 1018.1 1517.35 1016.8 1519 1014.7 1530.85 999.35 1528.35 979.3
L 1520.85 603.7
Q 1521 595.95 1518.5 588.65
M 1481.4 615.8
L 1488.95 983.9 1111.3 987.85
Q 1111.7 982.7 1112.1 977.55 1114.2 950.55 1115.7 923.3 1117.3 894.05 1118.4 864.9 1119.65 831.65 1120.4 798.5 1121 770.25 1121.3 742 1121.65 711.75 1121.85 681.5 1122.05 656.7 1122.15 631.95 1122.15 624.3 1122.15 616.65
L 1481.4 615.8 Z"/>

<path fill="#333333" stroke="none" d="
M 1488.95 983.9
L 1481.4 615.8 1122.15 616.65
Q 1122.15 624.3 1122.15 631.95 1122.05 656.7 1121.85 681.5 1121.65 711.75 1121.3 742 1121 770.25 1120.4 798.5 1119.65 831.65 1118.4 864.9 1117.3 894.05 1115.7 923.3 1114.2 950.55 1112.1 977.55 1111.7 982.7 1111.3 987.85
L 1488.95 983.9 Z"/>
</g>

<g id="Layer19_4_FILL">
<path fill="#FFFFFF" stroke="none" d="
M 1372.45 873.8
Q 1367.1 856.95 1349 858.4 1326.75 860.55 1304.55 861.7 1275.05 862.5 1245.65 861.65 1245.4 839.6 1244.75 817.8 1243.85 789 1242.95 760.2 1242.05 731.15 1239.85 702.15 1238.9 689.9 1227.6 685.9 1213.9 681.15 1205.15 693.2 1201.85 697.8 1201.65 703.3 1200.7 729.5 1202.45 755.85 1204.35 784.75 1205.1 813.65 1205.85 843.95 1205.75 874.25 1205.7 881.6 1208.3 888.4 1213.5 901.9 1228.45 901.8 1258.9 901.6 1289.3 901.65 1319.6 901.65 1349.85 898.3 1364.85 896.6 1371.6 883.55 1374.05 878.8 1372.45 873.8 Z"/>
</g>

<g id="Layer19_5_FILL">
<path fill="#FFFFFF" stroke="none" d="
M 1360.05 761.45
Q 1349.2 756.15 1337 756.4 1284.75 757.55 1232.55 756.95 1218.05 756.8 1205.95 764.35 1201.05 767.35 1199.6 772.8 1195.35 789.05 1210.7 796.4 1217.25 798.8 1224.4 798.35 1255.1 796.8 1285.7 796.75 1313.4 796.7 1341.15 797.25 1350.95 797.45 1359.4 793.15 1369.35 788.2 1369.65 777.3 1369.95 766.2 1360.05 761.45 Z"/>
</g>

<g id="Layer19_6_FILL">
<path fill="#FFFFFF" stroke="none" d="
M 1358.1 686.9
Q 1357.15 681.85 1353.3 678.45 1343.3 669.45 1329.5 670.65 1298.85 672.75 1268.25 675.8 1255.3 676.9 1242.45 677.95 1230.2 678.1 1218.3 680.85 1211.25 682.7 1207.85 689.15 1199.85 704.05 1213.05 714.8 1219.5 718.75 1227.1 718.65 1250.6 717.2 1273.95 714.95 1303.55 711.9 1333.35 711.3 1341.4 711.15 1348.4 707.4 1360.8 700.7 1358.1 686.9 Z"/>
</g>
</defs>

<g transform="matrix( 1, 0, 0, 1, 137.6,111) ">
<use xlink:href="#Layer19_0_FILL"/>
</g>

<g transform="matrix( 1, 0, 0, 1, 137.6,111) ">
<use xlink:href="#Layer19_1_FILL"/>
</g>

<g transform="matrix( 1, 0, 0, 1, 137.6,111) ">
<use xlink:href="#Layer19_2_FILL"/>
</g>

<g transform="matrix( 1, 0, 0, 1, 137.6,111) ">
<use xlink:href="#Layer19_3_FILL"/>
</g>

<g transform="matrix( 1, 0, 0, 1, 137.6,111) ">
<use xlink:href="#Layer19_4_FILL"/>
</g>

<g transform="matrix( 1, 0, 0, 1, 137.6,111) ">
<use xlink:href="#Layer19_5_FILL"/>
</g>

<g transform="matrix( 1, 0, 0, 1, 137.6,111) ">
<use xlink:href="#Layer19_6_FILL"/>
</g>
</svg>
