
<svg xmlns="http://www.w3.org/2000/svg" version="1.1" xmlns:xlink="http://www.w3.org/1999/xlink" preserveAspectRatio="none" x="0px" y="0px" width="2000px" height="2000px" viewBox="0 0 2000 2000">
<defs>
<g id="Layer19_0_FILL">
<path fill="#000000" stroke="none" d="
M 767.2 747.4
Q 720.7 768.3 674.05 788.1 605.95 817.05 536.6 842.2 466.1 867.75 395.95 894.4 348.95 912.4 388.1 939.1 451.75 982.45 511.5 1031.2 568.05 1077.35 623 1125.45 675.9 1171.8 733.6 1211.85 796.85 1255.8 862.2 1296.55 922.25 1334.1 979.9 1374.95 998.45 1388.05 1019.1 1382 1038.1 1376.55 1040.05 1353.25 1046.4 1276.1 1050.25 1198.65 1054 1122.5 1068.5 1047.55 1082.1 977.4 1093.8 907.05 1106.15 833 1115.15 758.7 1124.2 684.35 1112.35 612.8 1110.5 610.9 1108.35 609.45 1099.1 603.25 1088 605.6 1077.05 607.6 1067.75 613.9 1054.15 623.25 1038.6 628.35 981.25 647.35 927.8 676.95
L 767.2 747.4
M 1077.45 654.65
Q 1077.2 706.9 1072.55 759.05 1066.15 831 1054.5 902.35 1043.15 971.65 1029.55 1040.5 1014.75 1115.3 1011.5 1191.25 1008.45 1262.6 998.2 1333.35 963.9 1314.3 930.3 1294.15 874.3 1260.6 820.7 1223.2 786.2 1199.2 751.6 1175.25 700 1139.4 652.35 1098.3 545.6 1006.25 432.7 922 483.8 902.45 535.35 883.95 661.35 838.5 783.4 783.15
L 1077.45 654.65 Z"/>

<path fill="#333333" stroke="none" d="
M 1072.55 759.05
Q 1077.2 706.9 1077.45 654.65
L 783.4 783.15
Q 661.35 838.5 535.35 883.95 483.8 902.45 432.7 922 545.6 1006.25 652.35 1098.3 700 1139.4 751.6 1175.25 786.2 1199.2 820.7 1223.2 874.3 1260.6 930.3 1294.15 963.9 1314.3 998.2 1333.35 1008.45 1262.6 1011.5 1191.25 1014.75 1115.3 1029.55 1040.5 1043.15 971.65 1054.5 902.35 1066.15 831 1072.55 759.05 Z"/>
</g>

<g id="Layer19_1_FILL">
<path fill="#FFFFFF" stroke="none" d="
M 646.7 1078.6
Q 645.35 1088.95 645.55 1093.4 645.9 1101.6 650 1106.5 653.5 1110.65 659.9 1112.55 664.55 1113.95 671.9 1114.4 707.1 1116.75 734.1 1108.55 749.65 1103.85 762.65 1095.55 776.4 1086.7 785.85 1074.7 796.05 1061.65 803.7 1040.7 811 1020.7 813.4 1001.65 816 980.6 812.5 961.7 811.15 954.3 808.35 945.2 806.8 939.95 803 929 799.75 919.6 798.1 915.15 795.2 907.5 792.45 901.6 778.95 872.9 753.15 852.6 727.35 832.3 696.25 825.95 686.45 823.95 678.85 824.8 669.35 825.9 663.85 831.5 659.5 835.95 657.6 843.4 656.3 848.75 656 857.25 655.75 864.6 655.95 885.35 656.1 903.05 655.4 913.45 654.75 923.25 652.45 940 649.8 959.2 649.1 966.5 647.05 987.4 647.75 1017.05 648.35 1045.25 648.35 1047.9 648.4 1065.4 646.7 1078.6
M 695.25 866.3
Q 708.9 871.7 716.95 875.95 728.45 882.05 736.2 889.35 746.8 899.35 754.7 915.85 759.7 926.15 766.6 946.6 770.7 958.7 772.25 965.05 774.85 975.45 774.9 984 774.95 991.85 772.9 1001.5 771.65 1007.1 768.3 1018.6 765.8 1026.9 764.4 1030.8 762 1037.5 759.25 1042.45 754.2 1051.4 746.1 1058.45 738.2 1065.3 728.45 1069.35 719.05 1073.3 708.4 1074.55 698.15 1075.75 687.6 1074.35
L 687.35 994.35
Q 687.3 985.95 687.45 981.25 687.7 974 688.5 968.15 689 964.95 690.05 959.65 691.35 953.2 691.7 951.1 693.2 942.5 694.25 927.75 696.3 897.55 695.25 866.3 Z"/>
</g>
</defs>

<g transform="matrix( -0.9958343505859375, -0.0911712646484375, -0.0911712646484375, 0.9958343505859375, 1672.85,72.05) ">
<use xlink:href="#Layer19_0_FILL"/>
</g>

<g transform="matrix( 1, 0, 0, 1, 0,0) ">
<use xlink:href="#Layer19_1_FILL"/>
</g>
</svg>
