
<svg xmlns="http://www.w3.org/2000/svg" version="1.1" xmlns:xlink="http://www.w3.org/1999/xlink" preserveAspectRatio="none" x="0px" y="0px" width="2000px" height="2000px" viewBox="0 0 2000 2000">
<defs>
<g id="Layer19_0_FILL">
<path fill="#000000" stroke="none" d="
M 2177.65 566.15
Q 2173 564.7 2164.6 563.95 2090 557.75 2068.8 555.7 2014.8 550.35 1973.45 543.5 1958.5 541 1908.05 531.4 1867.5 523.65 1842.45 520.3 1816.75 516.85 1775.45 513.65 1721.45 509.5 1708.35 508.2 1679.55 505.35 1638.5 499.6 1592 492.85 1568.75 489.65 1414.55 468.35 1231.3 459.9 1088.95 453.3 892.25 453.3 672.85 453.35 491.05 460.6 278.5 469.05 90.9 488.25 40.3 493.4 22.5 494.75 -16 497.65 -46.05 496.8 -51.85 496.65 -55.15 497.35 -60.1 498.45 -62.4 501.65 -63.75 503.5 -64.3 506.35 -64.65 508.1 -64.8 511.55 -67.8 576 -68.65 608.35 -70.05 662.15 -68.6 705.15 -68.15 718.1 -67 743.95 -66.1 767.1 -66.2 782.75 -66.3 795.75 -67.1 812.2 -67.55 820.95 -68.8 841.6
L -78.25 991.6
Q -80.041015625 988.1900390625 -82.4 986.35 -85.4 984.05 -89.35 984.55 -93.5 985.1 -94.7 988.4 -95.35 990.05 -94.95 992.3 -94.7 993.75 -93.75 996.25 -85.5 1018.15 -77 1034.4 -66.6 1054.25 -54.25 1069.1 -35 1092.25 -6.75 1108.75 19.4 1124.1 50.9 1132.4 79.15 1139.8 112.4 1141.85 140.5 1143.6 174.8 1141.55 217.55 1139 252.85 1131.8 293.8 1123.45 327.55 1108.3 351.85 1097.45 382.5 1078.2 394.66328125 1070.630078125 406.45 1062.75 423.383984375 1091.7779296875 454.4 1114.25 484.85 1136.25 526.05 1150.05 569.35 1164.6 616.1 1167.85 662.05 1171.05 707.9 1163.2 753.8 1155.35 796.05 1137.05 839.05 1118.4 875.05 1090.3 888.1 1080.15 903.45 1066.2 912.65 1057.85 930.6 1040.7 932.023046875 1039.340234375 932.95 1038.25 938.7693359375 1047.1775390625 945.9 1055.65 967.5 1081.25 997.65 1099.05 1049.75 1129.9 1126.25 1137.3 1212.8 1145.7 1294.4 1121.75 1355.65390625 1103.8228515625 1404.75 1070.25 1405.2544921875 1071.9796875 1406.15 1073.75 1415.05 1091.35 1432.1 1107.3 1445.6 1119.85 1466.45 1133.3 1503.35 1157.3 1538.15 1170 1576.35 1184.05 1617.5 1186.9 1658.65 1189.75 1698.45 1181.1 1765.9 1166.45 1827.6 1119.6 1869.1873046875 1088.05234375 1905 1044.45
L 1912.9 1054.25
Q 1920.9 1064.15 1925.25 1068.85 1932.45 1076.6 1939.35 1081.55 1945.6 1086 1954.2 1089.95 1959.85 1092.6 1970.05 1096.45 1988.35 1103.25 1998.75 1106 2014 1110.15 2031.25 1112.2 2082.5 1118.3 2133.05 1105.35 2135.7529296875 1104.6421875 2137.75 1104 2137.7970703125 1104.3525390625 2137.85 1104.7 2139.3 1114.1 2146.25 1116.45 2150.85 1118 2155.75 1115.45 2160.4 1113.05 2163 1108.45 2165.15 1104.55 2166.1 1099 2166.65 1095.65 2167 1088.95
L 2191.55 592.8
Q 2191.9 586.15 2191.45 582.4 2190.75 576.7 2188.05 573 2184.65 568.3 2177.65 566.15
M 1961.15 563.8
Q 2007.45 571.65 2064.6 577.8 2103.25 581.95 2168.55 587.35
L 2143.85 1035.3
Q 2142.9 1052.45 2142.1 1061.5 2141.19609375 1071.9857421875 2139.8 1080.85 2139.686328125 1080.862109375 2139.55 1080.85 2136.75 1080.65 2133.2 1081.35 2131.45 1081.7 2126.95 1082.9 2092.75 1092.25 2056.8 1092.05 2020.9 1091.8 1986.75 1082.1 1973.3 1078.3 1963.15 1073.7 1950.95 1068.2 1941.9 1060.85 1938.05 1057.7 1933.6 1053.35 1930.95 1050.7 1925.8 1045.25
L 1914.25 1032.9
Q 1921.2349609375 1023.930078125 1928 1014.45 1930.6 1010.85 1931.85 1008.5 1933.7 1005.1 1934.1 1001.95 1934.6 998.3 1932.95 995.05 1931.2 991.6 1927.95 990.65 1920.9 988.6 1913.1 999.95 1860.6 1075.55 1796.3 1118.25 1760.45 1142.1 1721.4 1155.2 1680.25 1169 1639.55 1169.4 1596.75 1169.85 1552.6 1155.55 1511.6 1142.3 1472.6 1117.45 1454.75 1106.1 1442.75 1095.35 1427.75 1081.95 1419 1067.25 1417.2931640625 1064.3759765625 1415.6 1062.5 1428.9580078125 1052.6466796875 1441.35 1041.55 1453.4 1030.75 1462 1020.9 1472.25 1009.15 1479 997.25 1481 993.7 1481.95 991.2 1483.25 987.7 1483.2 984.65 1483.15 981.1 1481.25 978.25 1479.2 975.15 1476.05 974.5 1472.05 973.65 1467.95 976.85 1465.1 979.1 1461.7 983.9 1436.15 1019.8 1399.1 1047.7 1363.4 1074.6 1320.7 1091.4 1279.9 1107.45 1233.95 1114 1190.45 1120.2 1144.2 1117.65 1068.75 1113.45 1016.6 1086.35 986.15 1070.5 963.7 1046.8 939.8 1021.5 928.95 991.3 925.05 980.35 919.05 980.8 914.55 981.15 913.3 986.75 912.2 991.5 913.8 997 917.768359375 1010.5140625 924.25 1023.2 923.673828125 1023.28515625 923.1 1023.4 919.05 1024.25 915 1027.45 912.45 1029.45 908.2 1033.95 870.6 1073.4 823.65 1100.95 776.05 1128.85 723.85 1141.5 670.9 1154.4 616.45 1150.7 561.25 1146.95 511.5 1126.7 480.65 1114.1 458.1 1097 433.0298828125 1077.933203125 419.3 1054.05 455.5298828125 1029.040625 488.25 1001.2 493.95 996.4 496.4 990.95 499.35 984.4 495.5 980.25 491.95 976.5 485.6 978.25 480.6 979.65 475.1 983.9 418.2 1028.05 395.55 1043.65 349.65 1075.35 309.45 1092.3 265.1 1110.95 213.6 1118.4 165.95 1125.3 113.85 1122.4 89.35 1121 70.15 1117.65 46.95 1113.55 27.95 1106.05 -7.75 1091.95 -35.15 1063.45 -54.601171875 1043.290234375 -66.7 1019.25 -65.1837890625 1018.165625 -63.95 1016.2 -61.55 1012.4 -60.65 1006.65 -58.5 992.9 -56.95 975.6 -56.05 965.25 -54.65 944.4
L -47.95 843.65
Q -46.65 824.3 -46.1 814.5 -45.25 798.3 -45 785.3 -44.65 765.2 -45.7 736 -47 703.1 -47.5 686.65 -48.5 649.6 -47.6 603.25 -47.05 575.45 -45.1 519.85 162.8 502.8 265.5 495.65 438.25 483.65 576.5 479.4 690.4 475.85 857.05 475.6 1067.25 475.35 1206.25 481.05 1396.75 488.9 1553.85 510.3 1577.1 513.5 1623.6 520.2 1664.75 525.95 1693.45 528.8 1708.2 530.25 1762.75 534.5 1805.55 537.85 1831.9 541.3 1857.35 544.7 1896.65 551.95 1951.85 562.25 1961.15 563.8 Z"/>

<path fill="#999999" stroke="none" d="
M 2064.6 577.8
Q 2007.45 571.65 1961.15 563.8 1951.85 562.25 1896.65 551.95 1857.35 544.7 1831.9 541.3 1805.55 537.85 1762.75 534.5 1708.2 530.25 1693.45 528.8 1664.75 525.95 1623.6 520.2 1577.1 513.5 1553.85 510.3 1396.75 488.9 1206.25 481.05 1067.25 475.35 857.05 475.6 690.4 475.85 576.5 479.4 438.25 483.65 265.5 495.65 162.8 502.8 -45.1 519.85 -47.05 575.45 -47.6 603.25 -48.5 649.6 -47.5 686.65 -47 703.1 -45.7 736 -44.65 765.2 -45 785.3 -45.25 798.3 -46.1 814.5 -46.65 824.3 -47.95 843.65
L -54.65 944.4
Q -56.05 965.25 -56.95 975.6 -58.5 992.9 -60.65 1006.65 -61.55 1012.4 -63.95 1016.2 -65.1837890625 1018.165625 -66.7 1019.25 -54.601171875 1043.290234375 -35.15 1063.45 -7.75 1091.95 27.95 1106.05 46.95 1113.55 70.15 1117.65 89.35 1121 113.85 1122.4 165.95 1125.3 213.6 1118.4 265.1 1110.95 309.45 1092.3 349.65 1075.35 395.55 1043.65 418.2 1028.05 475.1 983.9 480.6 979.65 485.6 978.25 491.95 976.5 495.5 980.25 499.35 984.4 496.4 990.95 493.95 996.4 488.25 1001.2 455.5298828125 1029.040625 419.3 1054.05 433.0298828125 1077.933203125 458.1 1097 480.65 1114.1 511.5 1126.7 561.25 1146.95 616.45 1150.7 670.9 1154.4 723.85 1141.5 776.05 1128.85 823.65 1100.95 870.6 1073.4 908.2 1033.95 912.45 1029.45 915 1027.45 919.05 1024.25 923.1 1023.4 923.673828125 1023.28515625 924.25 1023.2 917.768359375 1010.5140625 913.8 997 912.2 991.5 913.3 986.75 914.55 981.15 919.05 980.8 925.05 980.35 928.95 991.3 939.8 1021.5 963.7 1046.8 986.15 1070.5 1016.6 1086.35 1068.75 1113.45 1144.2 1117.65 1190.45 1120.2 1233.95 1114 1279.9 1107.45 1320.7 1091.4 1363.4 1074.6 1399.1 1047.7 1436.15 1019.8 1461.7 983.9 1465.1 979.1 1467.95 976.85 1472.05 973.65 1476.05 974.5 1479.2 975.15 1481.25 978.25 1483.15 981.1 1483.2 984.65 1483.25 987.7 1481.95 991.2 1481 993.7 1479 997.25 1472.25 1009.15 1462 1020.9 1453.4 1030.75 1441.35 1041.55 1428.9580078125 1052.6466796875 1415.6 1062.5 1417.2931640625 1064.3759765625 1419 1067.25 1427.75 1081.95 1442.75 1095.35 1454.75 1106.1 1472.6 1117.45 1511.6 1142.3 1552.6 1155.55 1596.75 1169.85 1639.55 1169.4 1680.25 1169 1721.4 1155.2 1760.45 1142.1 1796.3 1118.25 1860.6 1075.55 1913.1 999.95 1920.9 988.6 1927.95 990.65 1931.2 991.6 1932.95 995.05 1934.6 998.3 1934.1 1001.95 1933.7 1005.1 1931.85 1008.5 1930.6 1010.85 1928 1014.45 1921.2349609375 1023.930078125 1914.25 1032.9
L 1925.8 1045.25
Q 1930.95 1050.7 1933.6 1053.35 1938.05 1057.7 1941.9 1060.85 1950.95 1068.2 1963.15 1073.7 1973.3 1078.3 1986.75 1082.1 2020.9 1091.8 2056.8 1092.05 2092.75 1092.25 2126.95 1082.9 2131.45 1081.7 2133.2 1081.35 2136.75 1080.65 2139.55 1080.85 2139.686328125 1080.862109375 2139.8 1080.85 2141.19609375 1071.9857421875 2142.1 1061.5 2142.9 1052.45 2143.85 1035.3
L 2168.55 587.35
Q 2103.25 581.95 2064.6 577.8 Z"/>
</g>

<g id="Layer18_0_FILL">
<path fill="#000000" fill-opacity="0.2" stroke="none" d="
M 1892.55 977.45
Q 1890.2 980.254296875 1887.9 982.95 1859.797265625 1002.5349609375 1829 1022.95 1792 1047.4 1768.45 1059.25 1733.65 1076.75 1702.45 1081.7 1670.45 1086.8 1632.7 1080.45 1602.7 1075.35 1564.45 1062 1536.2 1052.1 1517.4 1042.4 1498.5134765625 1032.5927734375 1484.3 1020.8 1484.9033203125 1019.7251953125 1485.45 1018.55 1494.07265625 1000.0255859375 1493.55 979.85 1495.6564453125 978.2634765625 1497.45 975.9 1502.7 968.95 1501.85 960.85 1501.1 953.1 1495.45 946.6 1490.15 940.5 1482.4 937.45 1469.35 932.4 1450.9 936.3 1433.15 940.05 1412.55 951.55 1404.5 956.05 1377.1 973.85 1325.7 1007.4 1279.85 1025.7 1224.8 1047.7 1173.65 1049.65 1117.45 1051.8 1059.55 1030.35 1006.15 1010.55 957.55 973.15 952.6 969.35 949.45 967.85 944.6 965.6 940.5 966.6 938.731640625 967.0470703125 937.25 968.05 935.2876953125 967.5689453125 933.25 967.45 931.0119140625 967.31328125 929 967.6 927.1193359375 967.028125 925.05 966.95 916.05 966.6 906.65 974.85 902.935546875 978.0908203125 899.85 981.85 895.1427734375 983.61171875 890 986.95 886.35 989.25 880.05 994.15 855.7 1013 843.85 1021.15 823.2 1035.45 805.1 1043.9 773 1058.8 730.75 1064.25 699.25 1068.3 652.8 1067.7 601 1067.05 565.75 1061.15 520.8638671875 1053.597265625 487.1 1035.95 489.6861328125 1033.3234375 491.3 1031.6 496.6 1026.1 499.55 1021.65 502.5 1017.25 505.1 1011.25 506.75 1007.5 509.4 1000.2 510.7 996.65 511.2 994.9 512.05 991.85 512.2 989.4 512.5 985.25 510.95 979.25 508.182421875 968.4103515625 502.7 963 500.7751953125 960.1955078125 498.1 957.85 491.35 951.9 481.4 950 472.35 948.2 462.45 950.05 454.25 951.55 444.5 955.7 439.35 957.85 427.35 963.8 319.8 1016.7 213.5 1034.65 177.8 1040.7 147.55 1041.6 112.35 1042.7 81.7 1037 47.8 1030.7 18.95 1015.9 -11.95 1000.05 -33.3 976.2 -38.85 970.05 -39.55 969.3 -43.3 965.6 -46.75 963.6 -51.05 961.2 -55.7 961.05 -60.75 960.95 -64.2 963.7 -70.15 968.5 -68.1 977.95 -66.574609375 984.948828125 -61.55 992 -61.98515625 992.4333984375 -62.4 992.95 -65.15 996.25 -65.45 1000.55 -65.7 1004.25 -64.25 1008.55 -63.25 1011.65 -60.95 1016.1 -60.6572265625 1016.66328125 -60.35 1017.2 -61.4462890625 1017.7677734375 -62.4 1018.6 -65 1020.85 -66.1 1024.5 -67.1 1027.9 -66.65 1031.6 -65.95 1037.05 -61.45 1044.75 -51 1062.65 -33.25 1078.95 -18.65 1092.35 2.45 1105.95 12.55 1112.45 19.45 1115.25 25.1 1117.55 36.2 1120.2 50.45 1123.7 57.7 1125.15 69.75 1127.55 79.5 1128.2 83.65 1128.45 86.45 1128.25 90.2 1128 93.1 1126.8 96.45 1125.45 98.65 1122.7 99.0939453125 1122.140234375 99.45 1121.55 143.0015625 1128.5794921875 194.15 1123.3 236.65 1118.9 290.8 1105.05 313.8 1099.2 331.1 1093.65 352.55 1086.8 370.25 1078.9 393.53515625 1068.5556640625 417.1 1053.5 418.278515625 1057.5109375 420.45 1062 428.25 1078.1 441.75 1092 454.3 1104.85 470.85 1114.9 485.65 1123.9 504.1 1131 519.6 1136.95 539.45 1142.2 596.05 1157.15 654.8 1158.75 699.65 1159.95 733.15 1151.9 764.3 1144.4 797.4 1126.35 823.6 1112.1 855.85 1088.3 881.65390625 1069.2423828125 902.05 1051.5 902.349609375 1051.50859375 902.65 1051.5 902.8056640625 1051.104296875 902.95 1050.7 906.278515625 1047.811328125 909.45 1044.95 916.5 1038.65 920.15 1034.35 925.55 1028.1 928 1021.85 929.3943359375 1018.3162109375 929.85 1014.75 941.4728515625 1030.1802734375 958.25 1045.15 973.85 1059.05 999.65 1077.15 1022.8 1093.3 1038.85 1102.15 1061.15 1114.45 1081.45 1119.8 1103.5 1125.55 1134.85 1126 1194.15 1126.95 1252.35 1112.35 1274.4494140625 1106.80625 1295.6 1099.2 1296.4158203125 1099.4619140625 1297.25 1099.65 1302.75 1100.95 1311 1099.2 1317.35 1097.85 1324 1095.4 1339.2 1089.95 1355.85 1080.5 1376 1068.95 1394 1053.8 1401.85 1047.2 1406.35 1041.7 1406.5876953125 1041.408203125 1406.8 1041.1 1407.9486328125 1040.3501953125 1409.05 1039.55 1408.9248046875 1040.240625 1408.8 1040.95 1407.05 1050.65 1411.15 1060.35 1416.6 1073.2 1428.25 1085.25 1437.2 1094.45 1451.8 1105 1485.45 1129.3 1522.7 1145.2 1561.15 1161.6 1600.8 1168 1641.65 1174.6 1682.25 1170.25 1723.85 1165.8 1761.05 1150.3 1808.75 1130.4 1856.05 1088.9 1879.36953125 1068.4568359375 1908.1 1037.25 1909.61328125 1039.724609375 1911.45 1042.25 1921 1055.3 1935.9 1065.15 1949.45 1074.1 1966.45 1079.8 1980.8 1084.65 1999.25 1087.7 2011.5 1089.75 2032.8 1092 2048.4 1093.65 2058.1 1094.4 2072.05 1095.45 2083.5 1095.5 2112.05 1095.65 2140.45 1089.8 2147.9 1088.2 2152.35 1086.55 2158.65 1084.15 2162.7 1080.45 2167.4 1076.2 2169.5 1069.95 2171.65 1063.7 2170.5 1057.45 2169.35 1051.2 2165.15 1046.1 2161.04140625 1041.159765625 2155.3 1038.8 2155.609765625 1038.5560546875 2155.9 1038.3 2159.45 1035.25 2161.25 1030.75 2163.1 1026.25 2162.7 1021.55 2162.35 1016.9 2159.8 1012.75 2157.3 1008.6 2153.3 1006.1 2148.6 1003.2 2141.8 1002.6 2136.95 1002.15 2129.4 1002.9 2115.95 1004.3 2096.6 1008 2074.85 1012.35 2063.95 1014.35 2024.5 1021.6 1998.6 1018.6 1971.709765625 1015.4384765625 1944.7 1001.65 1946.9666015625 997.144140625 1947.6 992.3 1947.8126953125 990.62265625 1947.8 989 1950.4876953125 983.091796875 1950.45 977.5 1950.4 968.95 1944.15 962.1 1937.9 955.3 1929.4 954.5 1919.3 953.6 1908.95 961.15 1901.95 966.25 1892.55 977.45
M 1433.95 1021.6
Q 1434.1216796875 1022.8572265625 1434.4 1024.1 1432.490234375 1026.077734375 1430.45 1027.9 1428.6322265625 1027.2033203125 1426.85 1026.85 1430.27734375 1024.3591796875 1433.95 1021.6 Z"/>
</g>
</defs>

<g transform="matrix( 1, 0, 0, 1, 0,0) ">
<use xlink:href="#Layer19_0_FILL"/>
</g>

<g transform="matrix( 1, 0, 0, 1, 0,0) ">
<use xlink:href="#Layer18_0_FILL"/>
</g>
</svg>
