
<svg xmlns="http://www.w3.org/2000/svg" version="1.1" xmlns:xlink="http://www.w3.org/1999/xlink" preserveAspectRatio="none" x="0px" y="0px" width="2000px" height="2000px" viewBox="0 0 2000 2000">
<defs>
<g id="Layer15_0_FILL">
<path fill="#000000" stroke="none" d="
M 1410.45 670.2
Q 1400.6 654.45 1391.8 643.3 1380.9 629.45 1369.35 619.7 1356.3 608.65 1341.7 602.3 1325.9 595.45 1310.2 595.05 1299.85 594.8 1287.2 597.4 1279.55 598.95 1264.65 603.2
L 1073.25 658.15
Q 1030 670.6 1008.5 678.2 973 690.75 946.9 705.7 880.05 744.05 827.05 822.8 816.4 838.65 809.4 851.8 800.8 867.9 795.95 882.9 789 904.4 787.25 931.9 786 951.25 787.2 982.05 788.25 1008.2 790.45 1024.45 793.55 1047.55 800.3 1065.45 811.05 1093.95 833.75 1118.2 854.85 1140.7 883.55 1156.85 909.25 1171.3 941.55 1181.1 968.65 1189.3 1003.15 1195 1024.45 1198.5 1040.2 1199.55 1060.35 1200.9 1077.4 1198.8 1094.35 1196.7 1112.85 1190.6 1128.5 1185.4 1146.75 1176.85 1197.2 1153.05 1239.1 1117.65 1251.15 1107.45 1265.45 1093.65 1273.7 1085.7 1290.75 1068.55
L 1339.3 1019.65
Q 1372.85 985.85 1389.4 968.15 1416.65 939 1436.35 913.8 1452.3 893.45 1460.6 877.4 1471.55 856.2 1472.9 836.4 1473.7 823.85 1470.75 809.05 1468.5 797.95 1463.35 782.35 1443.6 723.05 1410.45 670.2
M 1305.45 622.2
Q 1312.4 622.65 1316.7 623.35 1328.3 625.35 1339.55 631.65 1349.8 637.45 1359.05 646.4 1367.1 654.25 1374.9 665 1380.9 673.25 1388.3 685.55 1416.95 733.2 1435.9 785.1 1442.45 803.05 1444.5 815.45 1447.35 832.55 1443.4 846.15 1442.3 850.05 1440.15 851 1438.35 851.75 1434.9 850.45 1403.4 838.9 1375.95 818.9 1348.45 798.95 1327.75 772.5 1310.1 750 1295.05 719.55 1280.9 690.8 1275.15 666.55 1272.85 656.55 1272.55 649 1272.15 639.35 1274.75 631.65 1277.1 624.6 1281.7 622.25 1284.15 620.95 1287.75 620.95 1289.5 620.9 1294.15 621.4 1296.2 621.6 1305.45 622.2
M 1382.15 938.35
Q 1371 950.3 1353.4 967.6 1333.8 986.7 1324.15 996.3 1291.7 1029.75 1275.45 1046.4 1246.3 1076.35 1225.1 1094.85 1196.45 1119.85 1168.85 1136.45 1137 1155.6 1105.25 1164.45 1053.85 1178.8 995.9 1168.5 942.35 1158.95 891.7 1130.2 875.5 1120.95 864.15 1112.15 850.15 1101.25 841 1089.15 824 1066.7 817.55 1032.05 813.35 1009.5 812.4 968.6 811.8 943.95 812.6 930.75 813.8 909.8 818.7 893.7 823.6 877.55 834.2 859.45 841.1 847.7 855.2 827.8 870.2 806.65 879.65 794.8 893.8 777.05 907.3 764.5 931.05 742.35 964.25 725.15 991.95 710.75 1028.8 698.55 1048.4 692.05 1095.6 678.75 1138.6 666.6 1162.2 658.25 1183.85 650.55 1210.15 639.1 1225.95 632.2 1257.25 617.7 1252.35 632 1253.4 649.75 1254.2 664.05 1259.1 682.1 1276.6 746.55 1322.75 797.95 1368.95 849.4 1431.15 873.6 1414.1 904.2 1382.15 938.35
M 1083.8 976.3
Q 1085.05 959.3 1079.6 943.45 1074.2 927.85 1063 915.35 1051.7 902.75 1036.8 896 1021.75 889.2 1004.9 889.25 987.9 889.3 973.15 896.3 964.35 900.55 957.9 906.55 947.75 916 942.05 931.5 937.55 943.8 935.5 961.1 934.3 971.15 934.8 977.3 935.85 990.15 944.8 1006.25 952.2 1019.6 960.95 1028.1 972.9 1039.65 989.55 1044.55 1006.05 1049.4 1022.55 1046.35 1038.9 1043.35 1052.8 1033.05 1066.6 1022.85 1074.6 1008.1 1082.5 993.5 1083.8 976.3
M 1020.6 917.65
Q 1020.5916015625 917.6142578125 1020.55 917.55 1024.3123046875 918.91015625 1028 921.05 1035.2 925.2 1041.6 932.1 1051.35 942.6 1055.15 954.3 1057.7 961.95 1057.65 970.15 1057.6 978.3 1055 985.95 1053.1 991.4 1049.6 997.6 1043.65 1007.9 1037 1012.5 1035.1392578125 1013.8025390625 1032.8 1014.95 1033.3 1010.6 1032.95 1005.2 1032.7 1001.9 1031.85 995.4
L 1025.15 944.2
Q 1024 935.15 1022.95 929 1022 923.6 1020.6 917.65
M 976.9 914.35
Q 978.4291015625 913.4326171875 979.7 913 979.79140625 915.149609375 979.5 918.1 978.95 923.2 978.95 924.65 978.95 928.45 980.4 935.7 981.95 943.1 982 946.75 982.05 949.1 981.6 953.4 981.1 957.9 981.1 960 981.1 962.45 981.6 966.1 982.3 971.75 982.35 972.15 982.65 975.15 982.85 982.4 983 988.95 983.5 992.6 984.2 997.7 987.2 1007.6
L 990.8 1019.4
Q 991.0572265625 1020.246484375 991.3 1021 986.066796875 1020.078125 981.35 1018.1 974.75 1015.3 969.95 1010.75 967.1 1008.05 963.85 1003.45 955.85 992.05 953.3 980.8 952.1 975.55 952.25 970.75 952.3 967.65 953.2 961.65 954.75 950.75 956.3 944.85 958.85 935.1 963.75 927.45 969.25 919 976.9 914.35 Z"/>

<path fill="#6F6E7F" stroke="none" d="
M 1353.4 967.6
Q 1371 950.3 1382.15 938.35 1414.1 904.2 1431.15 873.6 1368.95 849.4 1322.75 797.95 1276.6 746.55 1259.1 682.1 1254.2 664.05 1253.4 649.75 1252.35 632 1257.25 617.7 1225.95 632.2 1210.15 639.1 1183.85 650.55 1162.2 658.25 1138.6 666.6 1095.6 678.75 1048.4 692.05 1028.8 698.55 991.95 710.75 964.25 725.15 931.05 742.35 907.3 764.5 893.8 777.05 879.65 794.8 870.2 806.65 855.2 827.8 841.1 847.7 834.2 859.45 823.6 877.55 818.7 893.7 813.8 909.8 812.6 930.75 811.8 943.95 812.4 968.6 813.35 1009.5 817.55 1032.05 824 1066.7 841 1089.15 850.15 1101.25 864.15 1112.15 875.5 1120.95 891.7 1130.2 942.35 1158.95 995.9 1168.5 1053.85 1178.8 1105.25 1164.45 1137 1155.6 1168.85 1136.45 1196.45 1119.85 1225.1 1094.85 1246.3 1076.35 1275.45 1046.4 1291.7 1029.75 1324.15 996.3 1333.8 986.7 1353.4 967.6
M 1079.6 943.45
Q 1085.05 959.3 1083.8 976.3 1082.5 993.5 1074.6 1008.1 1066.6 1022.85 1052.8 1033.05 1038.9 1043.35 1022.55 1046.35 1006.05 1049.4 989.55 1044.55 972.9 1039.65 960.95 1028.1 952.2 1019.6 944.8 1006.25 935.85 990.15 934.8 977.3 934.3 971.15 935.5 961.1 937.55 943.8 942.05 931.5 947.75 916 957.9 906.55 964.35 900.55 973.15 896.3 987.9 889.3 1004.9 889.25 1021.75 889.2 1036.8 896 1051.7 902.75 1063 915.35 1074.2 927.85 1079.6 943.45
M 1316.7 623.35
Q 1312.4 622.65 1305.45 622.2 1296.2 621.6 1294.15 621.4 1289.5 620.9 1287.75 620.95 1284.15 620.95 1281.7 622.25 1277.1 624.6 1274.75 631.65 1272.15 639.35 1272.55 649 1272.85 656.55 1275.15 666.55 1280.9 690.8 1295.05 719.55 1310.1 750 1327.75 772.5 1348.45 798.95 1375.95 818.9 1403.4 838.9 1434.9 850.45 1438.35 851.75 1440.15 851 1442.3 850.05 1443.4 846.15 1447.35 832.55 1444.5 815.45 1442.45 803.05 1435.9 785.1 1416.95 733.2 1388.3 685.55 1380.9 673.25 1374.9 665 1367.1 654.25 1359.05 646.4 1349.8 637.45 1339.55 631.65 1328.3 625.35 1316.7 623.35 Z"/>

<path fill="#7A5050" stroke="none" d="
M 979.7 913
Q 978.4291015625 913.4326171875 976.9 914.35 969.25 919 963.75 927.45 958.85 935.1 956.3 944.85 954.75 950.75 953.2 961.65 952.3 967.65 952.25 970.75 952.1 975.55 953.3 980.8 955.85 992.05 963.85 1003.45 967.1 1008.05 969.95 1010.75 974.75 1015.3 981.35 1018.1 986.066796875 1020.078125 991.3 1021 991.0572265625 1020.246484375 990.8 1019.4
L 987.2 1007.6
Q 984.2 997.7 983.5 992.6 983 988.95 982.85 982.4 982.65 975.15 982.35 972.15 982.3 971.75 981.6 966.1 981.1 962.45 981.1 960 981.1 957.9 981.6 953.4 982.05 949.1 982 946.75 981.95 943.1 980.4 935.7 978.95 928.45 978.95 924.65 978.95 923.2 979.5 918.1 979.79140625 915.149609375 979.7 913
M 1020.55 917.55
Q 1020.5916015625 917.6142578125 1020.6 917.65 1022 923.6 1022.95 929 1024 935.15 1025.15 944.2
L 1031.85 995.4
Q 1032.7 1001.9 1032.95 1005.2 1033.3 1010.6 1032.8 1014.95 1035.1392578125 1013.8025390625 1037 1012.5 1043.65 1007.9 1049.6 997.6 1053.1 991.4 1055 985.95 1057.6 978.3 1057.65 970.15 1057.7 961.95 1055.15 954.3 1051.35 942.6 1041.6 932.1 1035.2 925.2 1028 921.05 1024.3123046875 918.91015625 1020.55 917.55 Z"/>
</g>

<g id="Layer14_0_FILL">
<path fill="#000000" fill-opacity="0.2" stroke="none" d="
M 954.35 721.15
Q 950.6 721.2 946.25 723.25 927.4521484375 732.1634765625 910.15 747 907.9244140625 747.786328125 905.8 749.55 899.72109375 754.6619140625 894 762.5 874.617578125 783.11484375 856.25 812.95 833.2 850.55 820.25 887.6 805.8 928.9 804.35 968.35 802.8 1011.1 817 1049.95 832 1091 861.45 1118.4 879.6322265625 1135.2806640625 903.7 1147.25 914.0794921875 1153.9650390625 925.5 1157.55 929.659375 1158.835546875 933.3 1159.35 955.575390625 1166.720703125 981.05 1170.5 1015.1265625 1175.5453125 1050 1173.4 1065.687109375 1175.2197265625 1082.25 1176.6 1088.65 1177.1 1092 1176.95 1097.4 1176.65 1101.3 1174.85 1105.95 1172.75 1108.4 1168.25 1109.3970703125 1166.412109375 1109.75 1164.6 1130.9544921875 1159.6287109375 1151.65 1152 1192.8 1136.85 1228.7 1112.6 1265.3 1087.85 1293.6 1055.5 1304.5 1043.1 1299.9 1035.2 1297.8 1031.55 1293 1030.4 1288.55 1029.35 1284.15 1030.95 1280.5 1032.3 1276.65 1035.45 1274.6 1037.2 1270.15 1041.6 1213.8 1097.85 1135.4 1123.55 1085.2345703125 1140.005078125 1034.9 1141 1011.719921875 1137.71796875 1002.1 1135.85 982 1131.95 967.05 1126.1 935.05 1113.5 909.95 1086.4 885.95 1060.5 873.05 1026.7 860.95 994.95 859.15 958.15 857.5 924 864.75 888 871.25 855.65 885.2 820.85 888.31015625 813.0677734375 891.85 804.95 905.4154296875 784.5814453125 917.85 770.15 934.9 750.35 953.3 737.7 957.7 734.7 959.8 731.65 962.6 727.6 960.75 724.25 959 721.05 954.35 721.15
M 1345.85 622.6
Q 1330.8 612.85 1314.1 610.05 1296.1 607.05 1280.85 613.1 1272 616.55 1269.6 622.25 1268.45 625.05 1268.55 629.25 1268.6 631.65 1268.95 636.5 1269 639.8 1268.3 644.55 1267.9 647.25 1267.1 652.6 1265.15 668.95 1270.85 687.75 1275.3 702.5 1285.3 720.75 1304.55 755.9 1331.35 786.2 1358.15 816.4 1390.75 839.75 1398.45 845.25 1403.95 848.2 1411.5 852.25 1418.45 853.55 1426.5 855.05 1434 852.8 1442.05 850.35 1446.5 844.3 1452.85 835.6 1450.95 818.8 1449.4 805.35 1444.15 789.1 1441.05 779.6 1433.4 760.4
L 1421.35 730.4
Q 1416.85 719.25 1414.65 714 1410.75 704.95 1407.15 698 1401.55 687.15 1391.8 672.4 1380.9 655.95 1371.3 645.05 1359 631.15 1345.85 622.6 Z"/>
</g>
</defs>

<g transform="matrix( 1, 0, 0, 1, 0,0) ">
<use xlink:href="#Layer15_0_FILL"/>
</g>

<g transform="matrix( 1, 0, 0, 1, 0,0) ">
<use xlink:href="#Layer14_0_FILL"/>
</g>
</svg>
