
<svg xmlns="http://www.w3.org/2000/svg" version="1.1" xmlns:xlink="http://www.w3.org/1999/xlink" preserveAspectRatio="none" x="0px" y="0px" width="2000px" height="2000px" viewBox="0 0 2000 2000">
<defs>
<g id="Layer13_0_FILL">
<path fill="#000000" stroke="none" d="
M 1471.65 1318
Q 1469.2 1314.1 1464.55 1310.85 1461.35 1308.6 1455.6 1305.8 1445.4 1300.75 1401.75 1282.7 1368.5 1268.9 1349.5 1256.8 1339.85 1250.65 1339.1 1250.2 1333.05 1246.65 1328 1245.1 1320.2 1242.75 1310 1243.5 1303.75 1244 1291.75 1246.4
L 1093.5 1286.85
Q 1083.55 1288.9 1078.4 1290.9 1070.35 1294.05 1065.9 1299.3 1062.75 1303.05 1060.7 1308.75 1059.35 1312.45 1057.8 1319.35
L 1040.1 1395.6
Q 1037.45 1407.2 1036.85 1413.4 1035.95 1423.4 1038.3 1431 1041.9 1442.4 1054.75 1453.45 1058.35 1456.5 1066.3 1462.5 1074.05 1468.4 1077.75 1471.6 1084.55 1477.55 1097.1 1490.95 1108.7 1502.5 1118.65 1507 1125.85 1510.25 1135.5 1511.6 1141.9 1512.5 1153.15 1512.95 1283.35 1518.15 1412.45 1504.8 1423.8 1503.65 1430 1501.95 1439.45 1499.35 1445.3 1494.1 1450.6 1489.35 1454.25 1481.2 1456.5 1476.15 1459.45 1465.95 1471.9 1422.1 1475.7 1398.55 1481.8 1360.6 1476 1330.55 1474.4 1322.3 1471.65 1318
M 1458.95 1342.4
Q 1458.9 1344.9 1458.1 1349.35
L 1439.25 1460.4
Q 1438.5 1464.75 1437.7 1467.05 1436.45 1470.65 1434.2 1472.65 1432.1 1474.55 1428.65 1475.45 1426.4 1476.05 1422.25 1476.45 1288.9 1489.55 1155.15 1483.6 1147.3 1483.3 1142.75 1482.65
L 1152.65 1455.2
Q 1157.45 1441.7 1159.3 1436.3 1163.7 1423.3 1171.7 1395.9
L 1173.7 1389.05
Q 1174.3 1389.05 1174.9 1389 1224.2 1386.3 1284.95 1375.25 1321.55 1368.6 1393.7 1352.3
L 1440.85 1341.65
Q 1451 1339.3 1455.5 1338.1 1456.9 1337.7 1458.3 1337.3 1459 1339.55 1458.95 1342.4
M 1310.75 1271.35
Q 1317.5 1269.95 1321.15 1269.5 1326.95 1268.8 1331.65 1269.4 1336.5 1270 1342.2 1272.35 1345.7 1273.8 1352.15 1277.15
L 1446.2 1326.05
Q 1448.35 1327.15 1449.95 1328.15 1407.4 1336.7 1365.5 1344.75 1305.75 1356.35 1271.65 1361.2 1219.55 1368.6 1176.95 1368.85 1175.8 1367.5 1174 1366.3 1172.65 1365.35 1169.3 1363.55 1164.9 1361.15 1157.4 1356.7 1148.95 1351.7 1145.55 1349.8 1138.9 1346.1 1136.65 1344.45 1135.6 1343.7 1132.65 1341.15 1130.2 1339.05 1128.55 1338 1127.35 1337.25 1124.7 1335.85 1122.15 1334.5 1120.9 1333.65 1119 1332.4 1116.7 1330.25 1114.05 1327.8 1112.75 1326.55 1110.95 1324.95 1105.6 1320.45
L 1099.6 1315.55 1310.75 1271.35
M 1143.1 1366.85
Q 1147.7 1369.7 1149.95 1371.25 1151.6 1372.4 1157.3 1376.6 1157.55 1376.8 1157.8 1377 1157 1379.1 1157.45 1381.2 1158.15 1384.8 1161.7 1386.8
L 1141.15 1441.65
Q 1132.3 1465 1127.65 1477.9 1124.95 1476.35 1122.05 1474.15 1119.6 1472.25 1115.15 1468.3
L 1073.7 1431.7
Q 1070.6 1428.95 1069.2 1427.3 1066.95 1424.65 1066.15 1422 1065.5 1419.75 1065.7 1416.75 1065.8 1414.95 1066.45 1411.45 1075.1 1365.7 1086.7 1321 1090.45 1324.8 1094.95 1328.85 1099.9 1333.3 1109.65 1341.25
L 1122.85 1352.05
Q 1131.35 1359.1 1136.3 1362.4 1138.5 1363.95 1143.1 1366.85 Z"/>

<path fill="#655685" stroke="none" d="
M 1149.95 1371.25
Q 1147.7 1369.7 1143.1 1366.85 1138.5 1363.95 1136.3 1362.4 1131.35 1359.1 1122.85 1352.05
L 1109.65 1341.25
Q 1099.9 1333.3 1094.95 1328.85 1090.45 1324.8 1086.7 1321 1075.1 1365.7 1066.45 1411.45 1065.8 1414.95 1065.7 1416.75 1065.5 1419.75 1066.15 1422 1066.95 1424.65 1069.2 1427.3 1070.6 1428.95 1073.7 1431.7
L 1115.15 1468.3
Q 1119.6 1472.25 1122.05 1474.15 1124.95 1476.35 1127.65 1477.9 1132.3 1465 1141.15 1441.65
L 1161.7 1386.8
Q 1158.15 1384.8 1157.45 1381.2 1157 1379.1 1157.8 1377 1157.55 1376.8 1157.3 1376.6 1151.6 1372.4 1149.95 1371.25
M 1321.15 1269.5
Q 1317.5 1269.95 1310.75 1271.35
L 1099.6 1315.55 1105.6 1320.45
Q 1110.95 1324.95 1112.75 1326.55 1114.05 1327.8 1116.7 1330.25 1119 1332.4 1120.9 1333.65 1122.15 1334.5 1124.7 1335.85 1127.35 1337.25 1128.55 1338 1130.2 1339.05 1132.65 1341.15 1135.6 1343.7 1136.65 1344.45 1138.9 1346.1 1145.55 1349.8 1148.95 1351.7 1157.4 1356.7 1164.9 1361.15 1169.3 1363.55 1172.65 1365.35 1174 1366.3 1175.8 1367.5 1176.95 1368.85 1219.55 1368.6 1271.65 1361.2 1305.75 1356.35 1365.5 1344.75 1407.4 1336.7 1449.95 1328.15 1448.35 1327.15 1446.2 1326.05
L 1352.15 1277.15
Q 1345.7 1273.8 1342.2 1272.35 1336.5 1270 1331.65 1269.4 1326.95 1268.8 1321.15 1269.5
M 1458.1 1349.35
Q 1458.9 1344.9 1458.95 1342.4 1459 1339.55 1458.3 1337.3 1456.9 1337.7 1455.5 1338.1 1451 1339.3 1440.85 1341.65
L 1393.7 1352.3
Q 1321.55 1368.6 1284.95 1375.25 1224.2 1386.3 1174.9 1389 1174.3 1389.05 1173.7 1389.05
L 1171.7 1395.9
Q 1163.7 1423.3 1159.3 1436.3 1157.45 1441.7 1152.65 1455.2
L 1142.75 1482.65
Q 1147.3 1483.3 1155.15 1483.6 1288.9 1489.55 1422.25 1476.45 1426.4 1476.05 1428.65 1475.45 1432.1 1474.55 1434.2 1472.65 1436.45 1470.65 1437.7 1467.05 1438.5 1464.75 1439.25 1460.4
L 1458.1 1349.35 Z"/>
</g>

<g id="Layer12_0_FILL">
<path fill="#000000" fill-opacity="0.2" stroke="none" d="
M 1104.85 1327.45
Q 1098.85 1323.45 1094.6 1321.9 1088.55 1319.75 1083.7 1321.45 1079.75 1322.8 1076.85 1326.55 1075.75 1327.95 1074.85 1329.6 1073.85 1330.8 1072.95 1332.2 1069.35 1337.85 1067.6 1347.9 1066.45 1354.15 1065.05 1366.95
L 1060.45 1408.2
Q 1059.9 1413.05 1059.9 1415.7 1059.85 1419.9 1060.8 1423.1 1062.7 1429.55 1069.7 1435.6 1073.7 1439.1 1082.6 1445.4 1087.9 1449.6 1094.75 1456.9 1098.55 1461 1106.2 1469.2 1109.35 1472.45 1111.8 1474.2 1115.1 1476.6 1118.45 1477.3 1120 1477.65 1121.6 1477.65 1123.85 1478.4 1126 1478.4 1129.85 1478.4 1133.55 1476.2 1136.95 1474.15 1139.5 1470.75 1141.65 1467.85 1143.35 1463.75 1144.5 1460.95 1145.95 1456.1 1151.35 1438.25 1154.85 1420.5 1155.3 1419.1 1155.6 1417.8 1156.4 1414.3 1156.85 1412.55 1157.1 1411.65 1157.35 1410.9 1160.85 1411.15 1164.15 1410.3 1168 1409.3 1170.9 1406.95 1173.9 1404.5 1175.3 1400.9 1176.8 1397.15 1176.05 1393.5 1175.5 1390.7 1173.5 1387.8 1172.15 1385.8 1169.45 1382.85 1141 1351.7 1104.85 1327.45 Z"/>
</g>
</defs>

<g transform="matrix( 1, 0, 0, 1, 0,0) ">
<use xlink:href="#Layer13_0_FILL"/>
</g>

<g transform="matrix( 1, 0, 0, 1, 0,0) ">
<use xlink:href="#Layer12_0_FILL"/>
</g>
</svg>
