
<svg xmlns="http://www.w3.org/2000/svg" version="1.1" xmlns:xlink="http://www.w3.org/1999/xlink" preserveAspectRatio="none" x="0px" y="0px" width="2000px" height="2000px" viewBox="0 0 2000 2000">
<defs>
<g id="Layer13_0_FILL">
<path fill="#000000" stroke="none" d="
M 626.75 1063.45
Q 621.95 1062.8 613.95 1063.25 598.15 1064.15 576.3 1066.4 551.3 1069.1 538.75 1070.4 428.65 1081.85 317.1 1078.75 309.75 1078.5 305.2 1079.65 298.85 1081.25 296.25 1085.75 294.65 1088.5 294.55 1092.5 294.5 1095.05 295.2 1099.7
L 330.6 1340.35
Q 337.15 1384.75 340.75 1406.55 346.75 1443.3 353.1 1472.4 354.8 1480.2 356.65 1484.6 359.4 1491.1 363.9 1494.45 366.9 1496.65 371.35 1497.95 374.3 1498.85 379.55 1499.65 412.6 1504.95 454.65 1507 478.7 1508.2 530.35 1509 579.9 1509.75 605.95 1511.25 647.75 1513.55 680.95 1519.3 691.9 1521.15 698.9 1520.2 708.75 1518.9 712.5 1512.1 713 1511.2 713.4 1510.25 715.6 1509.15 717.9 1507.4 720 1505.75 723.5 1502.4
L 784.3 1444
Q 788.25 1440.25 790.1 1438.1 793.15 1434.65 794.7 1431.3 797.15 1426.15 797.25 1418.95 797.3 1414.45 796.2 1406.05
L 767.15 1182.05
Q 765.85 1172.15 764.55 1167.05 762.5 1158.9 758.65 1153.35 755.9 1149.45 751.4 1145.55 748.45 1143 742.8 1138.95
L 646.7 1069.65
Q 640.6 1065.2 636.9 1066.65 632.65 1064.2 626.75 1063.45
M 570.95 1093.55
L 622.5 1089.25
Q 648.65 1222.7 659.95 1290.6 678.65 1402.8 685.95 1493.55 632.7 1487.05 578.55 1485.25 561.6 1484.65 528.5 1484.2 494.6 1483.75 478.45 1483.2 420.05 1481.3 379.25 1473.4 368.7 1433.55 360.45 1382.35 355.75 1352.95 347.65 1290.1 339.85 1229.5 334.6 1197.85 326.2 1147 315.2 1107 372.1 1107.45 443.2 1103.2 485.4 1100.65 570.95 1093.55
M 650.9 1095.7
Q 650.6 1093.85 650.3 1092.15 684.05 1122.15 720 1149.4 726.75 1154.5 729.85 1157.35 735 1162.15 737.75 1167.05 739.9 1170.9 741.35 1176.2 742.2 1179.45 743.35 1185.9 751.05 1229.55 759 1295.5 763.4 1332.2 772.2 1405.5 772.85 1410.65 772.85 1413.35 772.9 1417.7 771.65 1420.95 770.65 1423.5 768.55 1426.15 767.2 1427.9 764.5 1430.7 738.75 1457.3 710.3 1481.9 707.55 1467.75 706.05 1449.4 704.4 1421.65 703.3 1407.8 701 1377.8 694.4 1339.3 691.85 1324.5 681.55 1271.3 664.75 1184.55 650.9 1095.7 Z"/>

<path fill="#655685" stroke="none" d="
M 650.3 1092.15
Q 650.6 1093.85 650.9 1095.7 664.75 1184.55 681.55 1271.3 691.85 1324.5 694.4 1339.3 701 1377.8 703.3 1407.8 704.4 1421.65 706.05 1449.4 707.55 1467.75 710.3 1481.9 738.75 1457.3 764.5 1430.7 767.2 1427.9 768.55 1426.15 770.65 1423.5 771.65 1420.95 772.9 1417.7 772.85 1413.35 772.85 1410.65 772.2 1405.5 763.4 1332.2 759 1295.5 751.05 1229.55 743.35 1185.9 742.2 1179.45 741.35 1176.2 739.9 1170.9 737.75 1167.05 735 1162.15 729.85 1157.35 726.75 1154.5 720 1149.4 684.05 1122.15 650.3 1092.15
M 622.5 1089.25
L 570.95 1093.55
Q 485.4 1100.65 443.2 1103.2 372.1 1107.45 315.2 1107 326.2 1147 334.6 1197.85 339.85 1229.5 347.65 1290.1 355.75 1352.95 360.45 1382.35 368.7 1433.55 379.25 1473.4 420.05 1481.3 478.45 1483.2 494.6 1483.75 528.5 1484.2 561.6 1484.65 578.55 1485.25 632.7 1487.05 685.95 1493.55 678.65 1402.8 659.95 1290.6 648.65 1222.7 622.5 1089.25 Z"/>
</g>

<g id="Layer12_0_FILL">
<path fill="#000000" fill-opacity="0.2" stroke="none" d="
M 646.85 1096.45
Q 644.3 1099.95 643.55 1104.5 642.9 1108.3 643.5 1113.1 643.85 1115.9 645.05 1121.65 666.05 1219.65 677.25 1268.5 680.65 1283.35 682.85 1291.8 685.35 1301.55 687.95 1309.75 687.6 1310.35 687.3 1311.05 685.9 1314.1 685.85 1318.25 685.75 1320.95 686.35 1325.75 688.6 1344.8 692.2 1363.75
L 695.6 1380.85
Q 701.55 1412.05 703.5 1443.95 703.45 1444.6 703.4 1445.3 702.5 1454.75 703.35 1460 703.8 1462.7 704.65 1464.9 705.2 1468.8 706.25 1471.85 707.65 1475.75 710.3 1478.55 713.2 1481.65 716.85 1482.5 721.25 1483.55 726.5 1481.35 730 1479.85 735.35 1476.05 749.65 1465.85 756.45 1460.8 768.1 1452.25 777.1 1444.95 781.15 1441.7 783.25 1439.4 786.35 1436 787.65 1432.55 789.15 1428.65 788.85 1423.05 788.15 1416.5 787.8 1413.25 787.35 1408.7 787.25 1400.15 787.2 1391.15 786.85 1387 786.4 1381.7 783.55 1367.1 781.15 1354.65 781.15 1347.15 781.15 1338.45 781 1337 780.4 1331.25 777.5 1328.1 774.55 1324.85 769.9 1324.9 767 1306.15 762.55 1283.45 756.15 1250.8 754 1238.25 749.65 1212.9 748.15 1192.75 747.6 1185.5 747.1 1182.4 746.15 1176.7 744 1172.65 742.2 1169.2 738.8 1165.7 736.75 1163.55 732.3 1159.7
L 703.85 1135.2
Q 694.95 1127.5 690.85 1123.5 683.85 1116.7 679.4 1110.35 677.75 1108.05 674.6 1103.2 671.75 1099.05 669.25 1096.6 665.9 1093.4 661.95 1091.95 657.55 1090.35 653.65 1091.5 649.65 1092.65 646.85 1096.45 Z"/>
</g>
</defs>

<g transform="matrix( 1, 0, 0, 1, 0,0) ">
<use xlink:href="#Layer13_0_FILL"/>
</g>

<g transform="matrix( 1, 0, 0, 1, 0,0) ">
<use xlink:href="#Layer12_0_FILL"/>
</g>
</svg>
