
<svg xmlns="http://www.w3.org/2000/svg" version="1.1" xmlns:xlink="http://www.w3.org/1999/xlink" preserveAspectRatio="none" x="0px" y="0px" width="2000px" height="2000px" viewBox="0 0 2000 2000">
<defs>
<g id="Layer13_0_FILL">
<path fill="#000000" stroke="none" d="
M 639.2 1467.1
Q 633.8 1478 631.7 1483.95 628.35 1493.6 628.6 1501.75 628.8 1507 630.65 1513.75 630.85 1514.65 634.3 1525.55 641.1 1547 645.8 1582.75 651.95 1629.55 654.2 1640.7 655.4 1647 656.75 1650.65 658.7 1656 661.8 1659.35 665.25 1663.15 672.85 1666.8 700.35 1680.2 738.6 1684.1 762.3 1686.55 807.9 1685.85 818.55 1685.65 823.95 1684.8 832.8 1683.35 838.75 1679.5 845.35 1675.2 850.3 1666.75 853.55 1661.2 857.6 1650.5 903.9 1529.25 932.6 1402.15 935.05 1391.2 935.8 1384.75 937 1375.1 935.75 1367.3 934 1356.5 925.85 1342.35 916.15 1326.75 912.15 1318.6 910 1314.25 906.3 1305.2 902.55 1296 900.55 1291.7 893.25 1276.45 883.1 1270 876.4 1265.8 866.5 1264.05 860.4 1263.05 848.5 1262.6
L 770.2 1259.95
Q 763.15 1259.7 759.25 1260.05 753.25 1260.55 748.75 1262.6 742.55 1265.5 737.45 1272.5 734.15 1276.95 729.6 1286.05
L 639.2 1467.1
M 862.25 1292.85
Q 865.2 1293.4 867.25 1294.6 869.6 1296.05 871.55 1298.9 872.8 1300.7 874.65 1304.4
L 899.25 1353.9
Q 901.9 1359.25 903.15 1362.1 904.55 1365.45 905.3 1368.45 891.65 1369.6 866.8 1372.1
L 808.5 1377.8
Q 807.5 1373.85 804.15 1372.25 802.3 1371.25 800.05 1371.5 799.9 1371.2 799.75 1370.9 797.2 1364.3 796.5 1362.4 795.6 1359.85 794.05 1354.65 792.45 1349.45 791.5 1346.9 789.6 1341.3 785 1331.3
L 778 1315.75
Q 772.8 1304.25 769.8 1298.35 767.05 1292.95 764.35 1288.3 810.55 1288.65 856.95 1292.15 860.5 1292.4 862.25 1292.85
M 758.95 1306.4
Q 761.9 1312.75 763 1314.9 763.85 1316.5 765.5 1319.7 767 1322.45 767.75 1324.6 768.2 1326.05 768.85 1328.85 769.5 1331.8 769.95 1333.15 770.55 1335 771.95 1337.9 773.65 1341.4 774.05 1342.6 775.05 1345.25 776.95 1352.6 777.85 1356.4 780.55 1365.85 782.9 1374.25 784.05 1379.1 784.95 1382.8 785.5 1384.35 786.2 1386.45 787.25 1387.9 775.95 1428.95 755.3 1477.35 741.8 1509.05 715.15 1563.75 696.55 1602.15 677.2 1641.05 676.7 1639.25 676.2 1636.85
L 653.3 1533.35
Q 651.75 1526.3 651.25 1522.5 650.45 1516.4 651.15 1511.55 651.75 1506.9 653.9 1501.4 655.3 1498.05 658.4 1491.9
L 755.75 1299.35 758.95 1306.4
M 807.2 1391.1
Q 807.4 1390.55 807.55 1389.95
L 814.7 1389.8
Q 843.25 1389.15 856.95 1388.3 862.6 1387.9 876.9 1386.75
L 906 1384.3
Q 905.45 1388.85 903.7 1396.55 874.85 1527.2 827.65 1652.7 826.2 1656.55 825.05 1658.55 823.3 1661.7 820.9 1663.2 818.35 1664.9 814.6 1665.15 812.15 1665.35 807.75 1664.9
L 695.6 1654.4
Q 691.1 1654.05 688.7 1653.45 685.95 1652.75 683.9 1651.45 684.65 1650.2 685.45 1648.95 687.75 1644.95 692.65 1635.75
L 715.15 1592.95
Q 749.55 1527.45 765.45 1493.85 791.85 1438.05 807.2 1391.1
M 1389.9 1469.65
Q 1390.4 1458.2 1390.4 1457.35 1390.45 1450.3 1389.3 1445.2 1387.4 1437.25 1381.65 1428.8 1378.1 1423.65 1370 1414.45
L 1235.9 1262.95
Q 1229.1 1255.4 1224.8 1251.95 1218.05 1246.5 1211.3 1245.3 1206.45 1244.45 1200.5 1245.5 1196.6 1246.2 1189.9 1248.3
L 1115 1271.1
Q 1103.6 1274.6 1097.95 1277.2 1088.8 1281.4 1083.45 1287.25 1075.35 1296.05 1072.2 1312.7 1071.35 1317.35 1070.15 1327.25 1068.9 1336.9 1068 1341.7 1066.25 1350.55 1060.9 1368.15 1056.7 1383.95 1057.75 1394.85 1058.55 1402.7 1062.25 1411.75 1064.65 1417.75 1069.85 1427.65 1130.45 1543.05 1206.6 1648.2 1213.25 1657.4 1217.85 1661.95 1224.8 1668.8 1232.3 1671.3 1239.05 1673.45 1247.9 1672.6 1253.4 1672 1263.7 1669.45 1307.9 1658.3 1330.2 1649.8 1366.1 1636.15 1389.25 1616.05 1395.6 1610.6 1397.95 1606.05 1400.1 1602 1400.6 1596.3 1400.95 1592.45 1400.45 1586.05 1399.8 1574.65 1393.55 1527.85 1388.9 1492.15 1389.9 1469.65
M 1364.7 1451.45
Q 1368.2 1456.15 1370.05 1460.5 1371.95 1465 1372.8 1471.1 1373.3 1474.85 1373.6 1482.1
L 1378.3 1588
Q 1378.4 1590.4 1378.3 1592.3 1349.65 1559.75 1321.75 1527.45 1281.8 1481.5 1260.55 1454.45 1228.1 1413 1206.55 1376.25 1207.2 1374.6 1207.3 1372.45 1207.45 1370.75 1207.35 1366.95 1207.25 1361.95 1207.35 1353.25 1207.4 1343.45 1207.35 1339.55 1207.25 1331.95 1207.55 1329.15 1207.7 1327.85 1208.4 1324 1209 1320.85 1209.1 1318.9 1209.15 1317.5 1209.05 1314.5 1208.9 1311.6 1209.05 1310.1 1209.2 1307.85 1209.9 1304.75 1210.65 1301.25 1211.1 1299.5 1211.6 1297.1 1212.85 1290.25
L 1214.05 1282.6 1357.9 1443.35
Q 1362.5 1448.5 1364.7 1451.45
M 1202.9 1274.15
Q 1201.45 1279.3 1200.2 1285.2 1198.85 1291.75 1196.8 1304.15
L 1194.05 1321
Q 1192.2 1331.9 1191.85 1337.85 1191.6 1340.5 1191.4 1345.9 1191.25 1351.35 1191 1354.05 1190.85 1356.1 1190.05 1363.1 1190 1363.45 1189.95 1363.75 1187.75 1364.1 1186.1 1365.55 1183.35 1367.95 1183.4 1372
L 1125.6 1381.65
Q 1101 1385.65 1087.45 1388.1 1087.45 1384.95 1087.9 1381.35 1088.35 1378.25 1089.55 1372.45
L 1100.55 1318.25
Q 1101.35 1314.2 1102.1 1312.15 1103.25 1308.85 1105.15 1306.85 1106.8 1305.15 1109.5 1303.85 1111.1 1303 1114.4 1301.85 1158.4 1286.5 1202.9 1274.15
M 1187.45 1383.5
Q 1187.75 1384.05 1188.1 1384.55 1215.1 1425.9 1255 1472.95 1279.1 1501.35 1329.3 1555.7
L 1362.05 1591.2
Q 1369.2 1598.8 1372.45 1602.1 1373.5 1603.1 1374.55 1604.15 1372.95 1605.85 1370.45 1607.25 1368.25 1608.45 1364 1609.95
L 1258.45 1649.2
Q 1254.3 1650.7 1251.9 1651.15 1248.15 1651.85 1245.3 1650.9 1242.6 1650.05 1240.1 1647.5 1238.5 1645.85 1236.05 1642.45 1158.05 1533.55 1096.3 1414.75 1092.65 1407.8 1090.9 1403.5
L 1119.65 1398.4
Q 1133.7 1395.8 1139.35 1394.7 1152.8 1392 1180.55 1385.25
L 1187.45 1383.5 Z"/>

<path fill="#655685" stroke="none" d="
M 807.55 1389.95
Q 807.4 1390.55 807.2 1391.1 791.85 1438.05 765.45 1493.85 749.55 1527.45 715.15 1592.95
L 692.65 1635.75
Q 687.75 1644.95 685.45 1648.95 684.65 1650.2 683.9 1651.45 685.95 1652.75 688.7 1653.45 691.1 1654.05 695.6 1654.4
L 807.75 1664.9
Q 812.15 1665.35 814.6 1665.15 818.35 1664.9 820.9 1663.2 823.3 1661.7 825.05 1658.55 826.2 1656.55 827.65 1652.7 874.85 1527.2 903.7 1396.55 905.45 1388.85 906 1384.3
L 876.9 1386.75
Q 862.6 1387.9 856.95 1388.3 843.25 1389.15 814.7 1389.8
L 807.55 1389.95
M 763 1314.9
Q 761.9 1312.75 758.95 1306.4
L 755.75 1299.35 658.4 1491.9
Q 655.3 1498.05 653.9 1501.4 651.75 1506.9 651.15 1511.55 650.45 1516.4 651.25 1522.5 651.75 1526.3 653.3 1533.35
L 676.2 1636.85
Q 676.7 1639.25 677.2 1641.05 696.55 1602.15 715.15 1563.75 741.8 1509.05 755.3 1477.35 775.95 1428.95 787.25 1387.9 786.2 1386.45 785.5 1384.35 784.95 1382.8 784.05 1379.1 782.9 1374.25 780.55 1365.85 777.85 1356.4 776.95 1352.6 775.05 1345.25 774.05 1342.6 773.65 1341.4 771.95 1337.9 770.55 1335 769.95 1333.15 769.5 1331.8 768.85 1328.85 768.2 1326.05 767.75 1324.6 767 1322.45 765.5 1319.7 763.85 1316.5 763 1314.9
M 867.25 1294.6
Q 865.2 1293.4 862.25 1292.85 860.5 1292.4 856.95 1292.15 810.55 1288.65 764.35 1288.3 767.05 1292.95 769.8 1298.35 772.8 1304.25 778 1315.75
L 785 1331.3
Q 789.6 1341.3 791.5 1346.9 792.45 1349.45 794.05 1354.65 795.6 1359.85 796.5 1362.4 797.2 1364.3 799.75 1370.9 799.9 1371.2 800.05 1371.5 802.3 1371.25 804.15 1372.25 807.5 1373.85 808.5 1377.8
L 866.8 1372.1
Q 891.65 1369.6 905.3 1368.45 904.55 1365.45 903.15 1362.1 901.9 1359.25 899.25 1353.9
L 874.65 1304.4
Q 872.8 1300.7 871.55 1298.9 869.6 1296.05 867.25 1294.6
M 1188.1 1384.55
Q 1187.75 1384.05 1187.45 1383.5
L 1180.55 1385.25
Q 1152.8 1392 1139.35 1394.7 1133.7 1395.8 1119.65 1398.4
L 1090.9 1403.5
Q 1092.65 1407.8 1096.3 1414.75 1158.05 1533.55 1236.05 1642.45 1238.5 1645.85 1240.1 1647.5 1242.6 1650.05 1245.3 1650.9 1248.15 1651.85 1251.9 1651.15 1254.3 1650.7 1258.45 1649.2
L 1364 1609.95
Q 1368.25 1608.45 1370.45 1607.25 1372.95 1605.85 1374.55 1604.15 1373.5 1603.1 1372.45 1602.1 1369.2 1598.8 1362.05 1591.2
L 1329.3 1555.7
Q 1279.1 1501.35 1255 1472.95 1215.1 1425.9 1188.1 1384.55
M 1200.2 1285.2
Q 1201.45 1279.3 1202.9 1274.15 1158.4 1286.5 1114.4 1301.85 1111.1 1303 1109.5 1303.85 1106.8 1305.15 1105.15 1306.85 1103.25 1308.85 1102.1 1312.15 1101.35 1314.2 1100.55 1318.25
L 1089.55 1372.45
Q 1088.35 1378.25 1087.9 1381.35 1087.45 1384.95 1087.45 1388.1 1101 1385.65 1125.6 1381.65
L 1183.4 1372
Q 1183.35 1367.95 1186.1 1365.55 1187.75 1364.1 1189.95 1363.75 1190 1363.45 1190.05 1363.1 1190.85 1356.1 1191 1354.05 1191.25 1351.35 1191.4 1345.9 1191.6 1340.5 1191.85 1337.85 1192.2 1331.9 1194.05 1321
L 1196.8 1304.15
Q 1198.85 1291.75 1200.2 1285.2
M 1370.05 1460.5
Q 1368.2 1456.15 1364.7 1451.45 1362.5 1448.5 1357.9 1443.35
L 1214.05 1282.6 1212.85 1290.25
Q 1211.6 1297.1 1211.1 1299.5 1210.65 1301.25 1209.9 1304.75 1209.2 1307.85 1209.05 1310.1 1208.9 1311.6 1209.05 1314.5 1209.15 1317.5 1209.1 1318.9 1209 1320.85 1208.4 1324 1207.7 1327.85 1207.55 1329.15 1207.25 1331.95 1207.35 1339.55 1207.4 1343.45 1207.35 1353.25 1207.25 1361.95 1207.35 1366.95 1207.45 1370.75 1207.3 1372.45 1207.2 1374.6 1206.55 1376.25 1228.1 1413 1260.55 1454.45 1281.8 1481.5 1321.75 1527.45 1349.65 1559.75 1378.3 1592.3 1378.4 1590.4 1378.3 1588
L 1373.6 1482.1
Q 1373.3 1474.85 1372.8 1471.1 1371.95 1465 1370.05 1460.5 Z"/>
</g>

<g id="Layer12_0_FILL">
<path fill="#000000" fill-opacity="0.2" stroke="none" d="
M 862.75 1286.95
Q 860.2 1286.25 855.4 1285.5
L 814.35 1279.3
Q 801.6 1277.35 795.3 1276.8 785.1 1275.9 778.75 1277.95 777.15 1278.45 775.75 1279.05 773.9 1279.55 772.3 1280.25 767.9 1282.05 765.55 1285.5 762.65 1289.75 763.2 1296.2 763.6 1300.7 765.9 1307.5 779.95 1348.7 802.65 1384.25 804.8 1387.6 806.4 1389.45 808.7 1392.15 811.25 1393.35 814.55 1395.05 818.6 1394.55 822.4 1394.15 825.6 1391.9 828.6 1389.7 830.6 1386.2 832.25 1383.3 832.9 1379.8 833.7 1379.75 834.65 1379.75 836.45 1379.8 840 1379.9 841.4 1379.95 842.85 1379.9 860.85 1381.1 879.5 1380.5 884.55 1380.35 887.55 1380 891.95 1379.4 895.3 1378.05 899.3 1376.5 902.15 1373.7 905.2 1370.75 906.2 1367 906.75 1364.95 906.65 1362.55 907.05 1361.05 907.1 1359.45 907.3 1356 905.85 1352.2 904.75 1349.4 902.45 1345.5 896.5 1336 893.55 1331.25 888.25 1322.75 885.6 1316.55 881.8 1306.3 879.45 1301.55 875.4 1293.25 869.7 1289.7 866.85 1288 862.75 1286.95
M 1165.75 1269.7
Q 1159.75 1271.9 1147.95 1277.05
L 1109.95 1293.7
Q 1105.5 1295.65 1103.2 1296.95 1099.5 1299 1097.25 1301.45 1092.6 1306.35 1090.85 1315.4 1089.85 1320.6 1088.85 1331.45 1087.85 1338.15 1084.9 1347.75 1083.25 1353.1 1080 1363.8 1078.75 1368.2 1078.5 1371.15 1078.05 1375.2 1079.1 1378.45 1079.6 1380 1080.4 1381.4 1080.85 1383.7 1081.95 1385.55 1083.85 1388.9 1087.6 1391 1091.1 1392.95 1095.3 1393.45 1098.9 1393.85 1103.3 1393.25 1106.3 1392.85 1111.2 1391.7 1129.35 1387.45 1146.5 1381.6 1147.95 1381.25 1149.25 1380.9 1152.65 1379.85 1154.4 1379.35 1155.3 1379.15 1156.05 1378.95 1157.6 1382.15 1160 1384.55 1162.8 1387.35 1166.3 1388.75 1169.9 1390.1 1173.7 1389.5 1177.7 1388.95 1180.45 1386.45 1182.65 1384.55 1184.15 1381.4 1185.2 1379.2 1186.4 1375.45 1199.15 1335.2 1202.1 1291.8 1202.55 1284.6 1201.8 1280.1 1200.6 1273.8 1196.7 1270.45 1193.55 1267.7 1188.85 1267.1 1187.1 1266.85 1185.2 1266.85 1183.65 1266.6 1182 1266.5 1175.3 1266.25 1165.75 1269.7 Z"/>
</g>
</defs>

<g transform="matrix( 1, 0, 0, 1, 0,0) ">
<use xlink:href="#Layer13_0_FILL"/>
</g>

<g transform="matrix( 1, 0, 0, 1, 0,0) ">
<use xlink:href="#Layer12_0_FILL"/>
</g>
</svg>
