
<svg xmlns="http://www.w3.org/2000/svg" version="1.1" xmlns:xlink="http://www.w3.org/1999/xlink" preserveAspectRatio="none" x="0px" y="0px" width="2000px" height="2000px" viewBox="0 0 2000 2000">
<defs>
<g id="Layer13_0_FILL">
<path fill="#000000" stroke="none" d="
M 630.9 1223.6
Q 618.9 1221.2 612.65 1220.7 602.45 1219.95 594.65 1222.3 589.6 1223.85 583.55 1227.4 582.8 1227.85 573.15 1234 554.15 1246.1 520.9 1259.9 477.25 1277.95 467.05 1283 461.3 1285.8 458.1 1288.05 453.45 1291.3 451 1295.2 448.25 1299.5 446.65 1307.75 440.85 1337.8 446.95 1375.75 450.75 1399.3 463.2 1443.15 466.15 1453.35 468.4 1458.4 472.05 1466.55 477.35 1471.3 483.2 1476.55 492.65 1479.15 498.85 1480.85 510.2 1482 639.3 1495.35 769.5 1490.15 780.75 1489.7 787.15 1488.8 796.8 1487.45 804 1484.2 813.95 1479.7 825.55 1468.15 838.1 1454.75 844.9 1448.8 848.6 1445.6 856.35 1439.7 864.3 1433.7 867.9 1430.65 880.75 1419.6 884.35 1408.2 886.7 1400.6 885.8 1390.6 885.2 1384.4 882.55 1372.8
L 864.85 1296.55
Q 863.3 1289.65 861.95 1285.95 859.9 1280.25 856.75 1276.5 852.3 1271.25 844.25 1268.1 839.1 1266.1 829.15 1264.05
L 630.9 1223.6
M 591 1246.6
Q 595.7 1246 601.5 1246.7 605.15 1247.15 611.9 1248.55
L 823 1292.75 817.05 1297.65
Q 811.7 1302.15 809.9 1303.75 808.6 1305 805.95 1307.45 803.65 1309.6 801.75 1310.85 800.5 1311.7 797.95 1313.05 795.3 1314.45 794.1 1315.2 792.45 1316.25 790 1318.35 787.05 1320.9 786 1321.65 783.75 1323.3 777.1 1327 773.7 1328.9 765.25 1333.9 757.75 1338.35 753.35 1340.75 750 1342.55 748.65 1343.5 746.85 1344.7 745.65 1346.05 703.103125 1345.793359375 651 1338.4 616.9 1333.55 557.15 1321.95 515.2732421875 1313.9083984375 472.65 1305.35 474.3005859375 1304.3736328125 476.45 1303.25
L 570.5 1254.35
Q 576.95 1251 580.45 1249.55 586.15 1247.2 591 1246.6
M 528.95 1329.5
Q 601.1 1345.8 637.7 1352.45 698.45 1363.5 747.75 1366.2 748.3638671875 1366.2287109375 748.95 1366.25
L 750.95 1373.1
Q 758.95 1400.5 763.35 1413.5 765.2 1418.9 770 1432.4
L 779.85 1459.85
Q 775.3400390625 1460.4751953125 767.5 1460.8 633.75 1466.75 500.4 1453.65 496.25 1453.25 494 1452.65 490.55 1451.75 488.45 1449.85 486.2 1447.85 484.95 1444.25 484.15 1441.95 483.4 1437.6
L 464.55 1326.55
Q 463.75 1322.1 463.7 1319.6 463.6630859375 1316.76171875 464.35 1314.5 465.725 1314.9041015625 467.15 1315.3 471.65 1316.5 481.8 1318.85
L 528.95 1329.5
M 827.7 1306.05
Q 832.1947265625 1302.0103515625 835.95 1298.15 847.527734375 1342.91484375 856.2 1388.65 856.85 1392.15 856.95 1393.95 857.15 1396.95 856.5 1399.2 855.7 1401.85 853.45 1404.5 852.05 1406.15 848.95 1408.9
L 807.5 1445.5
Q 803.05 1449.45 800.6 1451.35 797.69765625 1453.5630859375 795 1455.1 790.353515625 1442.2083984375 781.5 1418.85
L 760.95 1363.95
Q 764.5048828125 1361.99140625 765.2 1358.4 765.6455078125 1356.2751953125 764.85 1354.15 765.0955078125 1353.989453125 765.35 1353.8 771.05 1349.6 772.7 1348.45 774.95 1346.9 779.55 1344.05 784.15 1341.15 786.35 1339.6 791.3 1336.3 799.8 1329.25
L 813 1318.45
Q 822.75 1310.5 827.7 1306.05 Z"/>

<path fill="#655685" stroke="none" d="
M 835.95 1298.15
Q 832.1947265625 1302.0103515625 827.7 1306.05 822.75 1310.5 813 1318.45
L 799.8 1329.25
Q 791.3 1336.3 786.35 1339.6 784.15 1341.15 779.55 1344.05 774.95 1346.9 772.7 1348.45 771.05 1349.6 765.35 1353.8 765.0955078125 1353.989453125 764.85 1354.15 765.6455078125 1356.2751953125 765.2 1358.4 764.5048828125 1361.99140625 760.95 1363.95
L 781.5 1418.85
Q 790.353515625 1442.2083984375 795 1455.1 797.69765625 1453.5630859375 800.6 1451.35 803.05 1449.45 807.5 1445.5
L 848.95 1408.9
Q 852.05 1406.15 853.45 1404.5 855.7 1401.85 856.5 1399.2 857.15 1396.95 856.95 1393.95 856.85 1392.15 856.2 1388.65 847.527734375 1342.91484375 835.95 1298.15
M 637.7 1352.45
Q 601.1 1345.8 528.95 1329.5
L 481.8 1318.85
Q 471.65 1316.5 467.15 1315.3 465.725 1314.9041015625 464.35 1314.5 463.6630859375 1316.76171875 463.7 1319.6 463.75 1322.1 464.55 1326.55
L 483.4 1437.6
Q 484.15 1441.95 484.95 1444.25 486.2 1447.85 488.45 1449.85 490.55 1451.75 494 1452.65 496.25 1453.25 500.4 1453.65 633.75 1466.75 767.5 1460.8 775.3400390625 1460.4751953125 779.85 1459.85
L 770 1432.4
Q 765.2 1418.9 763.35 1413.5 758.95 1400.5 750.95 1373.1
L 748.95 1366.25
Q 748.3638671875 1366.2287109375 747.75 1366.2 698.45 1363.5 637.7 1352.45
M 601.5 1246.7
Q 595.7 1246 591 1246.6 586.15 1247.2 580.45 1249.55 576.95 1251 570.5 1254.35
L 476.45 1303.25
Q 474.3005859375 1304.3736328125 472.65 1305.35 515.2732421875 1313.9083984375 557.15 1321.95 616.9 1333.55 651 1338.4 703.103125 1345.793359375 745.65 1346.05 746.85 1344.7 748.65 1343.5 750 1342.55 753.35 1340.75 757.75 1338.35 765.25 1333.9 773.7 1328.9 777.1 1327 783.75 1323.3 786 1321.65 787.05 1320.9 790 1318.35 792.45 1316.25 794.1 1315.2 795.3 1314.45 797.95 1313.05 800.5 1311.7 801.75 1310.85 803.65 1309.6 805.95 1307.45 808.6 1305 809.9 1303.75 811.7 1302.15 817.05 1297.65
L 823 1292.75 611.9 1248.55
Q 605.15 1247.15 601.5 1246.7 Z"/>
</g>

<g id="Layer12_0_FILL">
<path fill="#000000" fill-opacity="0.2" stroke="none" d="
M 828.05 1299.1
Q 823.8 1300.65 817.8 1304.65 781.65 1328.9 753.2 1360.05 750.5 1363 749.15 1365 747.15 1367.9 746.6 1370.7 745.85 1374.35 747.35 1378.1 748.75 1381.7 751.75 1384.15 754.65 1386.5 758.5 1387.5 761.78828125 1388.355859375 765.25 1388.05 765.5505859375 1388.86953125 765.8 1389.75 766.25 1391.5 767.05 1395 767.3728515625 1396.2830078125 767.8 1397.7 771.281640625 1415.4349609375 776.7 1433.3 778.15 1438.15 779.3 1440.95 781 1445.05 783.15 1447.95 785.7 1451.35 789.1 1453.4 792.8 1455.6 796.65 1455.6 798.8193359375 1455.576171875 801.05 1454.8 802.63828125 1454.8625 804.2 1454.5 807.55 1453.8 810.85 1451.4 813.3 1449.65 816.45 1446.4 824.1 1438.2 827.9 1434.1 834.75 1426.8 840.05 1422.6 848.95 1416.3 852.95 1412.8 859.95 1406.75 861.85 1400.3 862.8 1397.1 862.75 1392.9 862.75 1390.25 862.2 1385.4
L 857.6 1344.15
Q 856.2 1331.35 855.05 1325.1 853.3 1315.05 849.7 1309.4 848.81484375 1308.00625 847.75 1306.8 846.9041015625 1305.1724609375 845.8 1303.75 842.9 1300 838.95 1298.65 834.1 1296.95 828.05 1299.1 Z"/>
</g>
</defs>

<g transform="matrix( 1, 0, 0, 1, 0,0) ">
<use xlink:href="#Layer13_0_FILL"/>
</g>

<g transform="matrix( 1, 0, 0, 1, 0,0) ">
<use xlink:href="#Layer12_0_FILL"/>
</g>
</svg>
