
<svg xmlns="http://www.w3.org/2000/svg" version="1.1" xmlns:xlink="http://www.w3.org/1999/xlink" preserveAspectRatio="none" x="0px" y="0px" width="2000px" height="2000px" viewBox="0 0 2000 2000">
<defs>
<g id="Layer19_0_FILL">
<path fill="#000000" stroke="none" d="
M 1335.85 985.7
Q 1333.9 984.5 1331.05 984.95 1329.05 985.25 1326.05 986.55 1297.6 998.6 1275 1005.9 1247.05 1014.95 1222.1 1018.8 1219.353125 1019.2029296875 1217.35 1020 1213.2669921875 1017.1359375 1207.45 1015.1 1204.4439453125 1014.06875 1201.05 1013.15 1202.0775390625 1011.4916015625 1202.4 1009.45 1202.85 1006.15 1201.7 1002.2 1200.9 999.45 1198.9 995.35 1181.6205078125 959.8724609375 1154.7 932.9 1156.003125 931.9177734375 1157.35 930.55
L 1186.15 901.65
Q 1190.2 897.6 1191.95 894.4 1194.45 889.9 1193.25 886.05 1192.1 882.4 1186.85 878.8 1177.05 872.15 1162.85 868.15 1153.95 865.65 1136.7 862.8 1123.6 860.7 1118.05 860.2 1110.6 859.55 1100.45 859.65 1065.7 860.1 1033.1 868.55 1025.3 870.6 1016.25 873.45 1013.732421875 874.2892578125 1012.05 875.15 992.737109375 875.5337890625 972 879.1 943 884.1 924.2 894.35 907.1 903.75 891.5 920.95 879.3 934.4 866 955.2 864.35 957.8 863.65 959.35 863.2373046875 960.3126953125 863 961.2 853.0970703125 962.7734375 843.25 964.9 834.65 966.75 829.55 969.4 822.45 973.05 820 978.95 818.05 983.55 819.15 989 820.2 994.15 823.55 998.4 828.9 1005.2 840.35 1010.15 845.666796875 1012.4654296875 851.8 1014.35 851.7265625 1015.0955078125 851.65 1015.95 850.8 1025.65 850.6 1030.2 850.2 1038.15 850.85 1044.4 851.8 1053.65 855.2 1064.1 857.8 1072.25 862.65 1083 881.55 1124.9 907.1 1152.6 921.65 1168.3 938.6 1179.55 954.5265625 1190.1380859375 971.5 1196.05 971.6736328125 1196.902734375 972 1197.8 972.55 1199.35 973.85 1201.7 983.65 1219 999.65 1231.6 1015.65 1244.15 1034.8 1249.6 1048.75 1253.6 1055.75 1248.15 1059.6 1245.2 1061.2 1239.6 1062.5 1234.95 1062.15 1228.95 1061.4564453125 1216.9283203125 1056.4 1206.1 1070.9599609375 1206.1849609375 1082.05 1205.5 1093.167578125 1204.79765625 1103.25 1203.25 1103.605078125 1203.7630859375 1104 1204.3 1113.7 1217.4 1126.6 1224.8 1140.9 1233.05 1155.3 1231.8 1160.4 1231.35 1164.35 1229.6 1168.95 1227.5 1171.35 1223.9 1174.9 1218.65 1173.95 1209.4 1172.65625 1195.0197265625 1164.25 1183.05 1169.5646484375 1180.574609375 1175.85 1177.5 1194.85 1168.2 1205.05 1162 1220.65 1152.5 1230.95 1141.95 1231.5392578125 1141.351171875 1232.05 1140.75 1232.4396484375 1141.0421875 1232.85 1141.35 1243.4 1149.25 1255.4 1162 1257.55 1164.3 1275.8 1184.9 1277.8 1187.1 1278.75 1188 1280.55 1189.65 1282.25 1190.5 1284.3 1191.5 1286.4 1191.5 1288.75 1191.45 1290.4 1190.2 1291.75 1189.15 1292.6 1187.2 1293.15 1185.9 1293.75 1183.5
L 1331.75 1031.9
Q 1334.65 1020.3 1335.95 1014.2 1338.05 1004.3 1338.9 996.2 1339.75 988.05 1335.85 985.7
M 1314.05 1003
Q 1317.35 1001.65 1319.3 1001.3 1322.25 1000.7 1324.5 1001.55
L 1308.7 1064.05
Q 1308.3517578125 1063.953515625 1307.95 1063.85 1302.4 1062.4 1289.8 1061.05 1277.95 1059.75 1271.8 1057.95 1269.25 1057.2 1268.1 1057.05 1265.95 1056.8 1264.55 1057.6 1262.35 1058.8 1262.3 1061.75 1262.25 1064.6 1264.1 1066.55 1265.7 1068.25 1268.4 1069.3 1270.25 1070 1273.45 1070.55 1290.35 1073.75 1304.55 1073.9 1305.5021484375 1073.9 1306.25 1073.85
L 1295.2 1117.5
Q 1293.55625 1116.7806640625 1291.65 1116.25 1287.85 1115.2 1282.45 1114.75 1276.3 1114.4 1273.25 1114.1 1267.95 1113.6 1264.2 1112.35 1260.1 1111 1259.35 1110.85 1256.5 1110.25 1254.6 1111.25 1253.2 1112 1252.4 1113.5 1251.65 1115 1251.8 1116.65 1251.9 1118.25 1252.85 1119.65 1253.75 1121.05 1255.15 1121.9 1256.75 1122.9 1259.25 1123.35 1260.65 1123.6 1263.6 1124 1264.75 1124.2 1267.25 1124.75 1269.6 1125.3 1270.9 1125.5 1273.4 1125.9 1277.45 1125.8 1282.7 1125.7 1284.05 1125.75 1286.99921875 1125.940234375 1292.95 1126.45
L 1281.75 1170.95 1266.7 1154.35
Q 1258.1 1144.9 1253.4 1140.05 1245.85 1132.3 1239.2 1126.7 1235.8 1123.9 1232.8 1122.9 1228.9 1121.55 1226.25 1123.45 1224.678125 1124.557421875 1224.05 1126.45 1222.86484375 1126.9513671875 1221.6 1127.7 1220.1 1128.6 1217.35 1130.65 1200.35 1143.4 1194.65 1147.45 1181.7 1156.65 1170.95 1162.65 1139.7 1180 1100.05 1186.4 1065.05 1192.1 1024.5 1189.15 1011.5 1188.2 1001.5 1186.6 989.25 1184.65 979.05 1181.3 959.4 1174.85 941.45 1161.65 924.65 1149.3 910.75 1132.1 887.1 1102.85 870.4 1057.3 865.7 1044.45 864.05 1035.6 862.2263671875 1025.712109375 863.3 1017.3 866.3876953125 1017.9708984375 869.65 1018.55 878.6 1020.15 894.2 1021.95 927.2 1025.9 944.4 1027.35 972.25 1029.65 994.7 1029.15 1001.9 1029 1006.5 1028.35 1012.95 1027.45 1017.85 1025.3 1023.55 1022.75 1027.35 1018.2 1031.45 1013.3 1031.9 1007.65 1032.7 998.5 1024.05 988.65 1017.2330078125 980.7400390625 1007.7 974.9 1014.179296875 975.1671875 1023 975 1028.55 974.9 1031.1 973.55 1034.9 971.5 1036.85 966.2 1038.4 962 1038.25 958.05 1038.1 952.85 1035.1 947.05 1033.2 943.4 1028.7 937.15
L 1020.8 926.35
Q 1018.2 922.75 1016.35 921.55 1014.85 920.65 1013.2 920.5 1011.4 920.35 1010.1 921.25 1008.75 922.1 1008.2 923.85 1007.7 925.45 1008 927.15 1008.4 929.3 1010.75 933.2
L 1022.75 952.3
Q 1024.55 955.2 1024.85 956.85 1025.1 958.15 1024.75 959.35 1024.35 960.65 1023.4 961.35 1022.25 962.3 1019.35 962.3 1010.6 962.5 1005 962.15 997.2 961.75 990.9 960.2 987 959.25 980.75 957.1 973.25 954.45 970.7 953.7 968.7 953.1 963.2 951.75 958.45 950.55 955.7 949.65 951.5 948.3 946.4 945.95 943.65 944.65 937.35 941.45
L 923.9 934.6
Q 920.05 932.6 917.9 933.5 916.05 934.25 915.6 936.55 915.15 938.75 916.25 940.6 917.15 942.2 919 943.5 920.25 944.4 922.6 945.6 936.1431640625 952.591015625 950.15 958.7 924.697265625 956.1681640625 898.75 957.5 887.5330078125 958.08203125 876.35 959.4 886.6912109375 942.0953125 899.55 929.15 916.15 912.45 935.6 904.45 943.9 901.05 954.25 898.65 962.2 896.8 973.5 895.15 1006.1 890.25 1030 891.85 1055.45 893.6 1079.7 902.55 1103.95 911.55 1124.4 926.85 1144.85 942.15 1160.3 962.9 1175.75 983.65 1184.55 1007.6 1185.0302734375 1008.9125 1185.5 1010 1181.3009765625 1009.34765625 1175.8 1008.6 1148.9 1005.1 1130.9 1004.3 1114.875 1003.608203125 1099.15 1004.45
L 1102.65 1002.7
Q 1107.95 1000.05 1111 998.3 1112.2 997.6 1116.15 995.1 1119.35 993.15 1121.35 992.05 1124.45 990.4 1135.6 985.95 1144.5 982.45 1149.2 978.95 1152.6 976.4 1153.65 974 1154.4 972.4 1154.3 970.7 1154.2 968.9 1153.15 967.65 1151.75 965.95 1149.05 965.7 1146.85 965.5 1144.2 966.3 1140.5 967.35 1133.6 970.65 1119.55 977.45 1105.5 985.2 1094.9 991.1 1092.1 992.55 1084.4 996.5 1078.1 998.7 1061.4 1004.55 1048.05 1000.8 1047.3 998.35 1048.95 993.2 1050.5 988.1 1049.65 985.6 1049.1 984.1 1047.85 983.1 1046.55 982.05 1045.05 982.05 1043.4 982 1041.85 983.2 1040.5 984.3 1039.65 986 1038.45 988.25 1038 991.4 1037.7 993.3 1037.55 997.15 1037.45 1000.45 1037.65 1002.2 1038 1005 1039.2 1006.85 1040.95 1009.55 1045 1011.35 1046.6916015625 1012.0935546875 1048.6 1012.6 1037.24296875 1016.1220703125 1026.3 1021.2 1011.05 1028.2 1009.8 1037.8 1009 1044.3 1014.1 1051.1 1021.05 1060.4 1034.5 1065.1 1039.9 1066.95 1046.65 1068.1 1051.75 1068.95 1059.15 1069.6 1065.59375 1070.209765625 1072.05 1070.6 1056.64296875 1073.765625 1045.25 1075.75 1005.6 1082.65 973.15 1083.85 955.85 1084.5 934.15 1083.7 921.7 1083.3 895.15 1081.75 904.5 1071.5 911.7 1060.05 913.9 1056.6 913.1 1054.6 912.5 1053.15 910.8 1052.6 909.15 1052.05 907.55 1052.65 905.4 1053.45 902.55 1056.8
L 886.55 1075.6
Q 884.7 1077.8 883.9 1079.15 882.7 1081.25 882.65 1083.2 882.6 1085.4 884.05 1087.4 885.4 1089.25 887.5 1090.35 890.25 1091.85 896.25 1092.55 908.746875 1094.0236328125 921.25 1094.9 921.85703125 1096.244140625 922.85 1097.85 933.65 1114.8 944.7 1126.85 957.85 1141.15 972.4 1149.8 989.75 1160.15 1010.55 1163.4 1030.95 1166.55 1051.15 1162.4 1070.9 1158.3 1088.85 1147.55 1106.5 1137 1120.1 1121.5 1137.4 1101.75 1146.1 1077.2 1147.743359375 1072.4630859375 1147.6 1068.6 1164.9021484375 1066.6138671875 1182 1063.2 1193 1061 1199.8 1058.6 1209.35 1055.25 1215.85 1050.15 1220.6 1046.5 1223.2 1041.9 1226.15 1036.65 1225.4 1031.6 1225.244921875 1030.6005859375 1224.95 1029.65 1270.6927734375 1020.2431640625 1314.05 1003
M 1150.95 878.7
Q 1153.659765625 879.291015625 1156.05 879.85 1155.62109375 880.1966796875 1155.2 880.55 1153.25 882.2 1150.45 885.2 1139.3 897.15 1129.85 910.05 1129.51015625 910.5142578125 1129.2 910.95 1113.4974609375 899.5115234375 1096.45 891.7 1096.5177734375 891.692578125 1096.55 891.65 1097.5 890.6 1101.05 887.7 1108.05 881.95 1113.3 875.3 1114.5333984375 873.70390625 1115 872.35 1120.537109375 872.9548828125 1126.45 873.9 1136.4 875.45 1150.95 878.7
M 1163.35 883.1
Q 1163.900390625 882.6193359375 1164.35 882.15 1165.1033203125 882.40703125 1165.8 882.65 1173.75 885.45 1179.1 889.75 1166.2 903.8 1151.2 915.55 1147.75 918.25 1146.3 919.65 1144.7830078125 921.1373046875 1143.75 922.65 1139.6802734375 919.064453125 1135.5 915.75 1135.5466796875 915.5900390625 1135.6 915.45 1136.55 913 1138.5 910.3 1139.6 908.8 1142.25 905.6 1148.7 897.85 1152.35 893.9 1158.1 887.6 1163.35 883.1
M 1088 882.9
Q 1086.05 884.5 1085.05 885.6 1084.564453125 886.11796875 1084.15 886.65 1078.1216796875 884.4025390625 1071.9 882.6 1059.638671875 879.067578125 1046.6 877.2 1063.783203125 874.190234375 1073.9 873 1089.15 871.2 1101.65 871.5 1101.91171875 871.5056640625 1102.15 871.5
L 1088 882.9
M 974.85 977.9
Q 988.85 980.65 997.85 984.8 1009.85 990.35 1015.9 999.3 1018.3 1002.8 1017.65 1005.25 1017.05 1007.65 1013.55 1009.5 1009.5 1011.6 1004.05 1012.35 1000.1 1012.9 993.9 1012.85 979.55 1012.85 961.8 1011.45 950.65 1010.6 929.75 1008.4 893.85 1004.7 875.95 1002.2 861.95 1000.2 853.7 997.3 841.9 993.15 835.3 985.45 869 975.05 904.6 973.1 940.2 971.2 974.85 977.9
M 1107.95 1022.55
Q 1120.65 1021.5 1126.1 1021.35 1132.35 1021.2 1140.15 1021.55 1144.85 1021.8 1154.2 1022.5
L 1172.3 1023.85
Q 1182 1024.55 1186.75 1025.4 1198.9 1027.5 1209.9 1033.45 1205.55 1039.5 1197.1 1043.15 1191.2 1045.75 1181.05 1047.85 1122.2 1060.05 1062.5 1055.05 1049.85 1054 1042.05 1051.55 1031.1 1048.1 1025.1 1041.1 1031.7 1033.3 1046.8 1029 1050.85 1027.85 1059 1025.8 1066.2 1023.9 1070.9 1021.7 1073 1020.7 1073.95 1020.4 1075.75 1019.8 1077.15 1020.05 1078.15 1020.25 1079.45 1021 1081.5 1022.15 1081.65 1022.2 1083.35 1023 1085.6 1023.3 1087.15 1023.5 1089.75 1023.5 1096.3 1023.5 1107.95 1022.55
M 1086.85 1086.7
L 1082.4 1088.9
Q 1082.1626953125 1088.5755859375 1081.85 1088.25 1079.0220703125 1085.1896484375 1077.15 1083.45 1079.87265625 1082.8783203125 1082.5 1082.3
L 1107.55 1076.85
Q 1107.38984375 1076.96796875 1107.2 1077.05 1100.1 1080.15 1086.85 1086.7
M 1066.05 1085.75
Q 1067.21875 1085.5162109375 1068.35 1085.25 1068.434765625 1085.4197265625 1068.5 1085.55 1069.6 1087.9 1072.8 1088.95 1074.9 1089.65 1075.35 1089.95 1075.8 1090.25 1076.8 1091.4 1076.8912109375 1091.501953125 1076.95 1091.6
L 1050.95 1104.5
Q 1050.4150390625 1103.3044921875 1048.8 1102
L 1035.2 1091
Q 1050.689453125 1088.81484375 1066.05 1085.75
M 1109.85 1088.4
Q 1109.8453125 1088.35 1109.85 1088.3 1118.7134765625 1084.6455078125 1124.55 1082.7 1119.3283203125 1095.0505859375 1112.2 1105.5 1111.9703125 1104.37421875 1111.55 1102.95 1110.6 1099.5 1110.35 1098.15 1110.05 1096.3 1110 1093.3 1109.95 1089.4 1109.85 1088.4
M 1035.9 1102.65
Q 1040.666015625 1106.367578125 1044.25 1107.8
L 1023.9 1117.9
Q 1019.6 1120 1017.25 1120.75 1013.4 1122 1010.25 1121.55 1006.8 1121.1 1003.25 1118.6 1000.9 1116.95 997.25 1113.4
L 979.4 1095.9
Q 980.40078125 1095.8896484375 981.4 1095.85 1002.0900390625 1095.0041015625 1022.55 1092.6 1023.310546875 1093.7259765625 1024.8 1094.75 1024.9 1094.85 1027.6 1096.5 1029.3 1097.55 1035.9 1102.65
M 1015.75 1129.7
Q 1017.2 1129.3 1019.9 1128.2
L 1036.45 1121.65 1036.35 1124.65
Q 1036.25 1127.55 1035.9 1128.9 1035.65 1129.9 1034.95 1131.8 1034.4 1133.55 1034.2 1137.2 1034 1141.05 1033.9 1148.7 1033.9 1151.4462890625 1034.45 1152.95 1020.662890625 1153.79765625 1006.35 1150.4 990.25 1146.5 975.55 1137.75 950.5587890625 1122.8291015625 931.9 1095.55 950.882421875 1096.54375 969.9 1096.15 974.9427734375 1102.28828125 981.75 1109.05 986.6 1113.85 995.75 1122.1 1000.1 1126.1 1003 1127.85 1007.35 1130.5 1011.45 1130.45 1013.4 1130.4 1015.75 1129.7
M 1045.05 1118.5
Q 1045.05 1118.3791015625 1045.05 1118.25
L 1058.1 1113.1
Q 1067.7630859375 1109.20078125 1072.9 1106.75
L 1072.8 1127.55
Q 1072.8 1131.5 1072.95 1133.45 1073.2 1136.75 1073.95 1139.25
L 1076.1 1139.25
Q 1077.15 1136.75 1077.5 1133.35 1077.7 1131.2 1077.7 1127.2
L 1077.75 1108.5
Q 1077.75 1105.85 1077.05 1104.75 1077.003125 1104.6775390625 1076.95 1104.6 1078.8197265625 1103.558984375 1081.3 1102.1 1086 1099.35 1088 1098.25 1094.080078125 1094.93359375 1105.45 1090.1 1105.15 1094.0576171875 1105.15 1098 1105.15 1100.7 1105.7 1101.9 1106.1 1102.85 1107.15 1104.65 1107.5 1105.6 1107.45 1107 1107.45 1107.8 1107.3 1109.4 1107.196484375 1110.850390625 1107.3 1112.25 1101.416015625 1119.8052734375 1094.45 1126.25 1082.85 1137 1068.9 1143.75 1055.9673828125 1149.9701171875 1042.5 1152.05 1042.9306640625 1150.7419921875 1043.1 1149.2 1043.45 1146.25 1042.9 1141.7 1042.4 1138.1 1042.85 1136.35 1043 1135.7 1043.45 1134.7 1044.05 1133.4 1044.15 1133.05 1045 1130.75 1045 1126.25 1045.1 1121.1 1045.05 1118.5
M 1160.95 1203.4
Q 1162.65 1207.45 1162.25 1211.45 1161.8 1215.95 1158.8 1218.3 1155.65 1220.85 1149.5 1220.55 1136.6 1220 1124.75 1210.8 1119.3904296875 1206.6314453125 1114.75 1201.1 1119.2388671875 1200.1630859375 1123.5 1199 1135.75 1195.6 1150.15 1189.45 1151.3201171875 1188.9537109375 1152.6 1188.4 1152.751953125 1188.8494140625 1152.95 1189.3 1154 1191.65 1157 1196.3 1159.85 1200.8 1160.95 1203.4
M 1039.9 1205.8
Q 1040.5353515625 1205.8189453125 1041.15 1205.8 1042.00859375 1209.1556640625 1044.3 1213.35 1048.55 1221.15 1049.05 1222.4 1051.15 1227.5 1049.95 1232.65 1048.7 1238.3 1044.1 1239.7 1041.95 1240.35 1039.2 1239.8 1037.3 1239.4 1034.35 1238.2 996.7306640625 1223.233203125 983.95 1199.75 994.751953125 1202.4009765625 1007.45 1203.8 1020 1205.2 1039.9 1205.8
M 1161.4 1023.75
Q 1161.2 1024.35 1159.7 1024.6 1156.55 1024.85 1154.8 1026.9 1153 1029 1153.1 1033.15 1153.1 1037.2 1155 1039.25 1156.1 1040.5 1158.45 1041.3 1161.65 1042.35 1164.85 1041.75 1168.25 1041.1 1170.1 1038.65 1171.6 1036.6 1171.55 1033.8 1171.5 1031.15 1170.05 1028.9 1168.65 1026.8 1166.3 1025.45 1164.05 1024.15 1161.4 1023.75
M 888.55 979.75
Q 885.9 978.1 882.9 978 883 978.25 882.7 978.4 882.4 978.5 882.1 978.45 879.65 978.25 877.35 979.7 875.15 981 873.85 983.3 872.4 985.85 872.45 988.95 872.5 992.05 874 994.55 875.55 997 877.6 998.05 878.8 998.7 880.45 999 881.25 999.15 883.45 999.35 885.05 999.45 885.85 999.25 886.65 999 887.7 998.25 890.3 996.5 891.45 995.2 893.35 992.95 893.65 989.8 893.95 986.7 892.6 984 891.2 981.4 888.55 979.75 Z"/>

<path fill="#7E7EB9" stroke="none" d="
M 1041.15 1205.8
Q 1040.5353515625 1205.8189453125 1039.9 1205.8 1020 1205.2 1007.45 1203.8 994.751953125 1202.4009765625 983.95 1199.75 996.7306640625 1223.233203125 1034.35 1238.2 1037.3 1239.4 1039.2 1239.8 1041.95 1240.35 1044.1 1239.7 1048.7 1238.3 1049.95 1232.65 1051.15 1227.5 1049.05 1222.4 1048.55 1221.15 1044.3 1213.35 1042.00859375 1209.1556640625 1041.15 1205.8
M 1162.25 1211.45
Q 1162.65 1207.45 1160.95 1203.4 1159.85 1200.8 1157 1196.3 1154 1191.65 1152.95 1189.3 1152.751953125 1188.8494140625 1152.6 1188.4 1151.3201171875 1188.9537109375 1150.15 1189.45 1135.75 1195.6 1123.5 1199 1119.2388671875 1200.1630859375 1114.75 1201.1 1119.3904296875 1206.6314453125 1124.75 1210.8 1136.6 1220 1149.5 1220.55 1155.65 1220.85 1158.8 1218.3 1161.8 1215.95 1162.25 1211.45
M 1085.05 885.6
Q 1086.05 884.5 1088 882.9
L 1102.15 871.5
Q 1101.91171875 871.5056640625 1101.65 871.5 1089.15 871.2 1073.9 873 1063.783203125 874.190234375 1046.6 877.2 1059.638671875 879.067578125 1071.9 882.6 1078.1216796875 884.4025390625 1084.15 886.65 1084.564453125 886.11796875 1085.05 885.6
M 1164.35 882.15
Q 1163.900390625 882.6193359375 1163.35 883.1 1158.1 887.6 1152.35 893.9 1148.7 897.85 1142.25 905.6 1139.6 908.8 1138.5 910.3 1136.55 913 1135.6 915.45 1135.5466796875 915.5900390625 1135.5 915.75 1139.6802734375 919.064453125 1143.75 922.65 1144.7830078125 921.1373046875 1146.3 919.65 1147.75 918.25 1151.2 915.55 1166.2 903.8 1179.1 889.75 1173.75 885.45 1165.8 882.65 1165.1033203125 882.40703125 1164.35 882.15
M 1156.05 879.85
Q 1153.659765625 879.291015625 1150.95 878.7 1136.4 875.45 1126.45 873.9 1120.537109375 872.9548828125 1115 872.35 1114.5333984375 873.70390625 1113.3 875.3 1108.05 881.95 1101.05 887.7 1097.5 890.6 1096.55 891.65 1096.5177734375 891.692578125 1096.45 891.7 1113.4974609375 899.5115234375 1129.2 910.95 1129.51015625 910.5142578125 1129.85 910.05 1139.3 897.15 1150.45 885.2 1153.25 882.2 1155.2 880.55 1155.62109375 880.1966796875 1156.05 879.85 Z"/>

<path fill="#FFFFFF" stroke="none" d="
M 1045.05 1118.25
Q 1045.05 1118.3791015625 1045.05 1118.5 1045.1 1121.1 1045 1126.25 1045 1130.75 1044.15 1133.05 1044.05 1133.4 1043.45 1134.7 1043 1135.7 1042.85 1136.35 1042.4 1138.1 1042.9 1141.7 1043.45 1146.25 1043.1 1149.2 1042.9306640625 1150.7419921875 1042.5 1152.05 1055.9673828125 1149.9701171875 1068.9 1143.75 1082.85 1137 1094.45 1126.25 1101.416015625 1119.8052734375 1107.3 1112.25 1107.196484375 1110.850390625 1107.3 1109.4 1107.45 1107.8 1107.45 1107 1107.5 1105.6 1107.15 1104.65 1106.1 1102.85 1105.7 1101.9 1105.15 1100.7 1105.15 1098 1105.15 1094.0576171875 1105.45 1090.1 1094.080078125 1094.93359375 1088 1098.25 1086 1099.35 1081.3 1102.1 1078.8197265625 1103.558984375 1076.95 1104.6 1077.003125 1104.6775390625 1077.05 1104.75 1077.75 1105.85 1077.75 1108.5
L 1077.7 1127.2
Q 1077.7 1131.2 1077.5 1133.35 1077.15 1136.75 1076.1 1139.25
L 1073.95 1139.25
Q 1073.2 1136.75 1072.95 1133.45 1072.8 1131.5 1072.8 1127.55
L 1072.9 1106.75
Q 1067.7630859375 1109.20078125 1058.1 1113.1
L 1045.05 1118.25
M 1044.25 1107.8
Q 1040.666015625 1106.367578125 1035.9 1102.65 1029.3 1097.55 1027.6 1096.5 1024.9 1094.85 1024.8 1094.75 1023.310546875 1093.7259765625 1022.55 1092.6 1002.0900390625 1095.0041015625 981.4 1095.85 980.40078125 1095.8896484375 979.4 1095.9
L 997.25 1113.4
Q 1000.9 1116.95 1003.25 1118.6 1006.8 1121.1 1010.25 1121.55 1013.4 1122 1017.25 1120.75 1019.6 1120 1023.9 1117.9
L 1044.25 1107.8
M 1109.85 1088.3
Q 1109.8453125 1088.35 1109.85 1088.4 1109.95 1089.4 1110 1093.3 1110.05 1096.3 1110.35 1098.15 1110.6 1099.5 1111.55 1102.95 1111.9703125 1104.37421875 1112.2 1105.5 1119.3283203125 1095.0505859375 1124.55 1082.7 1118.7134765625 1084.6455078125 1109.85 1088.3
M 1068.35 1085.25
Q 1067.21875 1085.5162109375 1066.05 1085.75 1050.689453125 1088.81484375 1035.2 1091
L 1048.8 1102
Q 1050.4150390625 1103.3044921875 1050.95 1104.5
L 1076.95 1091.6
Q 1076.8912109375 1091.501953125 1076.8 1091.4 1075.8 1090.25 1075.35 1089.95 1074.9 1089.65 1072.8 1088.95 1069.6 1087.9 1068.5 1085.55 1068.434765625 1085.4197265625 1068.35 1085.25
M 1082.4 1088.9
L 1086.85 1086.7
Q 1100.1 1080.15 1107.2 1077.05 1107.38984375 1076.96796875 1107.55 1076.85
L 1082.5 1082.3
Q 1079.87265625 1082.8783203125 1077.15 1083.45 1079.0220703125 1085.1896484375 1081.85 1088.25 1082.1626953125 1088.5755859375 1082.4 1088.9
M 1126.1 1021.35
Q 1120.65 1021.5 1107.95 1022.55 1096.3 1023.5 1089.75 1023.5 1087.15 1023.5 1085.6 1023.3 1083.35 1023 1081.65 1022.2 1081.5 1022.15 1079.45 1021 1078.15 1020.25 1077.15 1020.05 1075.75 1019.8 1073.95 1020.4 1073 1020.7 1070.9 1021.7 1066.2 1023.9 1059 1025.8 1050.85 1027.85 1046.8 1029 1031.7 1033.3 1025.1 1041.1 1031.1 1048.1 1042.05 1051.55 1049.85 1054 1062.5 1055.05 1122.2 1060.05 1181.05 1047.85 1191.2 1045.75 1197.1 1043.15 1205.55 1039.5 1209.9 1033.45 1198.9 1027.5 1186.75 1025.4 1182 1024.55 1172.3 1023.85
L 1154.2 1022.5
Q 1144.85 1021.8 1140.15 1021.55 1132.35 1021.2 1126.1 1021.35
M 1159.7 1024.6
Q 1161.2 1024.35 1161.4 1023.75 1164.05 1024.15 1166.3 1025.45 1168.65 1026.8 1170.05 1028.9 1171.5 1031.15 1171.55 1033.8 1171.6 1036.6 1170.1 1038.65 1168.25 1041.1 1164.85 1041.75 1161.65 1042.35 1158.45 1041.3 1156.1 1040.5 1155 1039.25 1153.1 1037.2 1153.1 1033.15 1153 1029 1154.8 1026.9 1156.55 1024.85 1159.7 1024.6
M 997.85 984.8
Q 988.85 980.65 974.85 977.9 940.2 971.2 904.6 973.1 869 975.05 835.3 985.45 841.9 993.15 853.7 997.3 861.95 1000.2 875.95 1002.2 893.85 1004.7 929.75 1008.4 950.65 1010.6 961.8 1011.45 979.55 1012.85 993.9 1012.85 1000.1 1012.9 1004.05 1012.35 1009.5 1011.6 1013.55 1009.5 1017.05 1007.65 1017.65 1005.25 1018.3 1002.8 1015.9 999.3 1009.85 990.35 997.85 984.8
M 882.9 978
Q 885.9 978.1 888.55 979.75 891.2 981.4 892.6 984 893.95 986.7 893.65 989.8 893.35 992.95 891.45 995.2 890.3 996.5 887.7 998.25 886.65 999 885.85 999.25 885.05 999.45 883.45 999.35 881.25 999.15 880.45 999 878.8 998.7 877.6 998.05 875.55 997 874 994.55 872.5 992.05 872.45 988.95 872.4 985.85 873.85 983.3 875.15 981 877.35 979.7 879.65 978.25 882.1 978.45 882.4 978.5 882.7 978.4 883 978.25 882.9 978 Z"/>

<path fill="#131313" stroke="none" d="
M 1019.9 1128.2
Q 1017.2 1129.3 1015.75 1129.7 1013.4 1130.4 1011.45 1130.45 1007.35 1130.5 1003 1127.85 1000.1 1126.1 995.75 1122.1 986.6 1113.85 981.75 1109.05 974.9427734375 1102.28828125 969.9 1096.15 950.882421875 1096.54375 931.9 1095.55 950.5587890625 1122.8291015625 975.55 1137.75 990.25 1146.5 1006.35 1150.4 1020.662890625 1153.79765625 1034.45 1152.95 1033.9 1151.4462890625 1033.9 1148.7 1034 1141.05 1034.2 1137.2 1034.4 1133.55 1034.95 1131.8 1035.65 1129.9 1035.9 1128.9 1036.25 1127.55 1036.35 1124.65
L 1036.45 1121.65 1019.9 1128.2 Z"/>

<path fill="#6666CC" stroke="none" d="
M 1319.3 1001.3
Q 1317.35 1001.65 1314.05 1003 1270.6927734375 1020.2431640625 1224.95 1029.65 1225.244921875 1030.6005859375 1225.4 1031.6 1226.15 1036.65 1223.2 1041.9 1220.6 1046.5 1215.85 1050.15 1209.35 1055.25 1199.8 1058.6 1193 1061 1182 1063.2 1164.9021484375 1066.6138671875 1147.6 1068.6 1147.743359375 1072.4630859375 1146.1 1077.2 1137.4 1101.75 1120.1 1121.5 1106.5 1137 1088.85 1147.55 1070.9 1158.3 1051.15 1162.4 1030.95 1166.55 1010.55 1163.4 989.75 1160.15 972.4 1149.8 957.85 1141.15 944.7 1126.85 933.65 1114.8 922.85 1097.85 921.85703125 1096.244140625 921.25 1094.9 908.746875 1094.0236328125 896.25 1092.55 890.25 1091.85 887.5 1090.35 885.4 1089.25 884.05 1087.4 882.6 1085.4 882.65 1083.2 882.7 1081.25 883.9 1079.15 884.7 1077.8 886.55 1075.6
L 902.55 1056.8
Q 905.4 1053.45 907.55 1052.65 909.15 1052.05 910.8 1052.6 912.5 1053.15 913.1 1054.6 913.9 1056.6 911.7 1060.05 904.5 1071.5 895.15 1081.75 921.7 1083.3 934.15 1083.7 955.85 1084.5 973.15 1083.85 1005.6 1082.65 1045.25 1075.75 1056.64296875 1073.765625 1072.05 1070.6 1065.59375 1070.209765625 1059.15 1069.6 1051.75 1068.95 1046.65 1068.1 1039.9 1066.95 1034.5 1065.1 1021.05 1060.4 1014.1 1051.1 1009 1044.3 1009.8 1037.8 1011.05 1028.2 1026.3 1021.2 1037.24296875 1016.1220703125 1048.6 1012.6 1046.6916015625 1012.0935546875 1045 1011.35 1040.95 1009.55 1039.2 1006.85 1038 1005 1037.65 1002.2 1037.45 1000.45 1037.55 997.15 1037.7 993.3 1038 991.4 1038.45 988.25 1039.65 986 1040.5 984.3 1041.85 983.2 1043.4 982 1045.05 982.05 1046.55 982.05 1047.85 983.1 1049.1 984.1 1049.65 985.6 1050.5 988.1 1048.95 993.2 1047.3 998.35 1048.05 1000.8 1061.4 1004.55 1078.1 998.7 1084.4 996.5 1092.1 992.55 1094.9 991.1 1105.5 985.2 1119.55 977.45 1133.6 970.65 1140.5 967.35 1144.2 966.3 1146.85 965.5 1149.05 965.7 1151.75 965.95 1153.15 967.65 1154.2 968.9 1154.3 970.7 1154.4 972.4 1153.65 974 1152.6 976.4 1149.2 978.95 1144.5 982.45 1135.6 985.95 1124.45 990.4 1121.35 992.05 1119.35 993.15 1116.15 995.1 1112.2 997.6 1111 998.3 1107.95 1000.05 1102.65 1002.7
L 1099.15 1004.45
Q 1114.875 1003.608203125 1130.9 1004.3 1148.9 1005.1 1175.8 1008.6 1181.3009765625 1009.34765625 1185.5 1010 1185.0302734375 1008.9125 1184.55 1007.6 1175.75 983.65 1160.3 962.9 1144.85 942.15 1124.4 926.85 1103.95 911.55 1079.7 902.55 1055.45 893.6 1030 891.85 1006.1 890.25 973.5 895.15 962.2 896.8 954.25 898.65 943.9 901.05 935.6 904.45 916.15 912.45 899.55 929.15 886.6912109375 942.0953125 876.35 959.4 887.5330078125 958.08203125 898.75 957.5 924.697265625 956.1681640625 950.15 958.7 936.1431640625 952.591015625 922.6 945.6 920.25 944.4 919 943.5 917.15 942.2 916.25 940.6 915.15 938.75 915.6 936.55 916.05 934.25 917.9 933.5 920.05 932.6 923.9 934.6
L 937.35 941.45
Q 943.65 944.65 946.4 945.95 951.5 948.3 955.7 949.65 958.45 950.55 963.2 951.75 968.7 953.1 970.7 953.7 973.25 954.45 980.75 957.1 987 959.25 990.9 960.2 997.2 961.75 1005 962.15 1010.6 962.5 1019.35 962.3 1022.25 962.3 1023.4 961.35 1024.35 960.65 1024.75 959.35 1025.1 958.15 1024.85 956.85 1024.55 955.2 1022.75 952.3
L 1010.75 933.2
Q 1008.4 929.3 1008 927.15 1007.7 925.45 1008.2 923.85 1008.75 922.1 1010.1 921.25 1011.4 920.35 1013.2 920.5 1014.85 920.65 1016.35 921.55 1018.2 922.75 1020.8 926.35
L 1028.7 937.15
Q 1033.2 943.4 1035.1 947.05 1038.1 952.85 1038.25 958.05 1038.4 962 1036.85 966.2 1034.9 971.5 1031.1 973.55 1028.55 974.9 1023 975 1014.179296875 975.1671875 1007.7 974.9 1017.2330078125 980.7400390625 1024.05 988.65 1032.7 998.5 1031.9 1007.65 1031.45 1013.3 1027.35 1018.2 1023.55 1022.75 1017.85 1025.3 1012.95 1027.45 1006.5 1028.35 1001.9 1029 994.7 1029.15 972.25 1029.65 944.4 1027.35 927.2 1025.9 894.2 1021.95 878.6 1020.15 869.65 1018.55 866.3876953125 1017.9708984375 863.3 1017.3 862.2263671875 1025.712109375 864.05 1035.6 865.7 1044.45 870.4 1057.3 887.1 1102.85 910.75 1132.1 924.65 1149.3 941.45 1161.65 959.4 1174.85 979.05 1181.3 989.25 1184.65 1001.5 1186.6 1011.5 1188.2 1024.5 1189.15 1065.05 1192.1 1100.05 1186.4 1139.7 1180 1170.95 1162.65 1181.7 1156.65 1194.65 1147.45 1200.35 1143.4 1217.35 1130.65 1220.1 1128.6 1221.6 1127.7 1222.86484375 1126.9513671875 1224.05 1126.45 1224.678125 1124.557421875 1226.25 1123.45 1228.9 1121.55 1232.8 1122.9 1235.8 1123.9 1239.2 1126.7 1245.85 1132.3 1253.4 1140.05 1258.1 1144.9 1266.7 1154.35
L 1281.75 1170.95 1292.95 1126.45
Q 1286.99921875 1125.940234375 1284.05 1125.75 1282.7 1125.7 1277.45 1125.8 1273.4 1125.9 1270.9 1125.5 1269.6 1125.3 1267.25 1124.75 1264.75 1124.2 1263.6 1124 1260.65 1123.6 1259.25 1123.35 1256.75 1122.9 1255.15 1121.9 1253.75 1121.05 1252.85 1119.65 1251.9 1118.25 1251.8 1116.65 1251.65 1115 1252.4 1113.5 1253.2 1112 1254.6 1111.25 1256.5 1110.25 1259.35 1110.85 1260.1 1111 1264.2 1112.35 1267.95 1113.6 1273.25 1114.1 1276.3 1114.4 1282.45 1114.75 1287.85 1115.2 1291.65 1116.25 1293.55625 1116.7806640625 1295.2 1117.5
L 1306.25 1073.85
Q 1305.5021484375 1073.9 1304.55 1073.9 1290.35 1073.75 1273.45 1070.55 1270.25 1070 1268.4 1069.3 1265.7 1068.25 1264.1 1066.55 1262.25 1064.6 1262.3 1061.75 1262.35 1058.8 1264.55 1057.6 1265.95 1056.8 1268.1 1057.05 1269.25 1057.2 1271.8 1057.95 1277.95 1059.75 1289.8 1061.05 1302.4 1062.4 1307.95 1063.85 1308.3517578125 1063.953515625 1308.7 1064.05
L 1324.5 1001.55
Q 1322.25 1000.7 1319.3 1001.3 Z"/>
</g>

<g id="Layer18_0_FILL">
<path fill="#000000" fill-opacity="0.2" stroke="none" d="
M 1054.9 1230.3
Q 1054.95 1229.95 1055 1221.35
L 1055.15 1216.95
Q 1055.2 1214.25 1055 1212.5 1054.25 1207.2 1050.95 1204.95 1050.33125 1204.5533203125 1049.65 1204.3 1049.044921875 1203.29609375 1048.05 1202.55 1045.8 1200.75 1041 1199.9 1035.7 1198.95 1017.8 1197.25 1003.3 1195.95 994.85 1193.4 991.45 1192.4 991.05 1192.3 988.85 1191.75 987.15 1191.8 985.1 1191.9 983.35 1192.85 981.5 1193.95 980.85 1195.7 980.25 1197.45 980.95 1199.4 981.6 1201.25 983.15 1202.6 983.7509765625 1203.1150390625 984.55 1203.6 985.013671875 1205.3857421875 986.2 1207.25 987.2 1208.75 989.15 1210.9 997.9 1220.55 1007.7 1227.75 1027.4 1242.3 1044.4 1240.35 1049.15 1239.8 1051.55 1237.75 1054.35 1235.3 1054.9 1230.3
M 1041.4 1212.85
Q 1042.137109375 1212.86015625 1042.8 1212.8 1042.9224609375 1213.33125 1043.05 1213.9 1044.7 1221.55 1043.1 1228.9 1029.35 1227.65 1017.05 1220.45 1008.780859375 1215.5759765625 1002.55 1208.8 1020.934375 1212.6267578125 1041.4 1212.85
M 1021.35 1010.8
Q 1020.3587890625 1010.12734375 1019.25 1009.65 1019.75703125 1009.51796875 1020.15 1009.4 1022.6 1008.65 1024.25 1007.45 1026.2 1006 1027.1 1003.8 1028.05 1001.45 1027.2 999.4 1026.55 997.85 1024.9 996.75 1023.45 995.75 1021.55 995.45 1019.1 995.1 1014.4 996
L 997.2 999.35
Q 981.65 1002.45 972.9 1003.3 959.7 1004.55 943.2 1003.15 933.15 1002.3 913.65 999.45 901.7 997.75 891.5 996.1 863.1 991.5 836.35 984.75 833.05 983.95 831.3 984.25 829.95 984.5 828.95 985.35 827.9 986.3 827.8 987.5 827.5 990.05 831.45 992.4 838.3 996.4 847.95 999.15 853.8 1000.8 865.45 1003.1 899.15 1009.65 915.85 1012 935.9578125 1014.8521484375 953.25 1015.45 927.1869140625 1016.7453125 913.75 1016.45 891.35 1016 873.9 1011.95 870.85 1011.25 869.45 1011.05 866.9 1010.7 864.95 1011.15 862.65 1011.65 861.05 1013.45 859.4 1015.35 859.7 1017.5 860 1019.8 863 1022.2 866.55 1025 871.5 1026.95 875.4 1028.45 880.95 1029.7 889.95 1031.75 900.75 1032.95 909.1 1033.9 920.75 1034.5 932.6 1035.15 962.05 1036 978.45 1036.45 986.9 1036 1000.65 1035.25 1011.25 1032.1 1018.35 1030.05 1021.75 1026.75 1024.05 1024.65 1025.05 1021.8 1026.15 1018.8 1025.35 1016.05 1024.45 1012.9 1021.35 1010.8
M 1093.3 1044.35
Q 1071.8 1044.45 1063.95 1044 1047.55 1043 1035.35 1039 1030.85 1037.5 1028.05 1037.45 1023.9 1037.3 1022 1039.9 1020.55 1041.9 1021.15 1044.65 1021.3279296875 1045.5078125 1021.65 1046.25 1018.3841796875 1044.8525390625 1016.05 1044.55 1012.25 1044 1010.15 1046.1 1008.2 1048.1 1008.65 1051.3 1009.05 1054.3 1011.25 1056.5 1012.95 1058.2 1016 1059.8 1017.7 1060.7 1021.25 1062.4 1023.45 1063.6 1027.3 1066.2 1031.4 1069 1033.35 1070.1 1039.4 1073.5 1047.65 1075.4 1052.966015625 1076.6267578125 1061.2 1077.5 1053.803515625 1077.9869140625 1047.95 1078.9 1042.8 1079.7 1032.95 1081.95 1022.85 1084.25 1017.9 1085.05 1006.5 1086.5 1000.8 1087.3 990.7 1088.7 984.15 1091.05 980.2 1092.45 979.2 1094.65 978.35 1096.6 979.55 1098.8 980.7 1100.85 982.8 1101.75 984.65 1102.5 987.15 1102.5 988.75 1102.5 991.6 1102.05
L 1016.85 1098.45
Q 1019.15 1098.2 1020.75 1097.75 1021.8 1097.45 1023.9 1096.8 1025.05 1096.6 1028.25 1096.6 1033 1096.65 1039.6 1095.35 1043.35 1094.6 1050.8 1093 1057.4 1091.8 1065.85 1091.25 1070.5 1090.95 1081 1090.65
L 1083.35 1090.6
Q 1082.6078125 1091.1595703125 1082 1091.6 1068.1 1101.6 1056.25 1102.8 1052.6 1103.05 1050.8 1103.2 1047.55 1103.45 1045.45 1104.2 1042.65 1105.15 1040.8 1107.15 1038.8 1109.35 1038.85 1111.95 1038.9 1116 1043.85 1119.5 1052.55 1125.8 1064.65 1125.65 1075.8 1125.55 1086.35 1120.15 1095.2 1115.6 1104.35 1107.15 1110 1101.9 1119.85 1090.9 1122.15 1088.3 1123.15 1086.95 1124.9 1084.65 1125.75 1082.55 1126.1568359375 1081.5814453125 1126.4 1080.6 1150.6384765625 1080.2486328125 1174.85 1077.65 1180.05 1077.05 1182.9 1076.6 1187.35 1075.8 1190.8 1074.6 1197.85 1072.2 1204.85 1066.6 1210.15 1062.45 1216.75 1055.3 1224.95 1046.45 1222.3 1040.35 1220.85 1037.05 1216.8 1035.8 1216.5431640625 1035.724609375 1216.25 1035.65 1217.0173828125 1034.1572265625 1217.05 1032.4 1217.1 1029.55 1215.15 1028 1212.75 1026.1 1207.55 1027.2 1202.25 1028.3 1194.85 1031 1186.6 1034.2 1182.4 1035.6 1163.85 1041.95 1138.45 1043.55 1128.8 1044.15 1093.3 1044.35
M 1084.55 1060.5
Q 1070.8267578125 1059.9734375 1059.15 1058.05 1062.6171875 1058.1568359375 1068.15 1058.2
L 1108.35 1058.45
Q 1130.45 1058.55 1142.3 1057.8 1161.1 1056.65 1175.75 1052.95 1182.75 1051.2 1191.35 1048.15 1192.1474609375 1047.8734375 1193.1 1047.5 1186.796484375 1052.3474609375 1181.3 1054.5 1177.1 1056.15 1171.7 1057.05 1168 1057.7 1161.75 1058.2 1147.5 1059.35 1122.1 1060.2 1097.4 1061 1084.55 1060.5
M 1007.9 954.65
Q 985.8 950.5 973.8 947.15 955.15 942 941.5 934.55
L 937.6 932.45
Q 935.35 931.3 933.55 930.8 931.25 930.15 929.15 930.3 926.8 930.45 925 931.5 923.05 932.7 922.15 934.85 921.25 937.05 922.05 939.05 922.7 940.65 924.5 941.95 925.7 942.8 928 943.8
L 931.55 945.35 917.35 940.9
Q 914.6 941.3 913.15 944.05 911.65 946.8 912.8 949.3 913.6 951.05 915.6 952.35 917 953.25 919.45 954.25 928.9 957.9 939.3 959.2 943.75 959.7 946 958.7 947.65 958 948.6 956.5 949.6 954.9 949.15 953.3 949.125390625 953.2150390625 949.1 953.1 957.8802734375 956.923046875 963.4 958.75 967.95 960.2 977.15 962.5
L 989.55 965.6
Q 996.15 967.25 999.05 967.8 1004.35 968.9 1008.65 969.25 1012.2 969.55 1017.6 969.55
L 1027.85 969.65
Q 1030.7 969.75 1032.25 969.2 1035.35 968.2 1036.35 964.6 1037.3 961 1035.15 958.5 1032.85 955.9 1028.25 955.65 1026.75 955.6 1024.45 955.8 1021.25 956.05 1020.6 956.05 1017.8 956.15 1014.25 955.7 1012.3 955.45 1007.9 954.65
M 1087.15 878.4
Q 1084.3 879.5 1083.7 879.8 1081.85 880.75 1080.9 882.05 1079.45 884.05 1079.85 886.8 1080.25 889.4 1082.05 891.4 1084.05 893.75 1087.05 894.75 1090.05 895.8 1093.05 895.2 1096.05 894.65 1100 892 1100.55 891.6 1103.55 889.5 1105.75 887.95 1107.2 887.1 1108.85 886.15 1112.1 884.65 1115.45 883.05 1116.95 882.2 1119.9 880.55 1121.65 878.35 1123.75 875.75 1123.6 873 1123.45 870.25 1121.1 868.2 1118.9 866.25 1115.9 865.85 1111.45 865.3 1105 868.55 1103.2 869.5 1096.15 873.7 1090.8 876.95 1087.15 878.4
M 1145.5 986.25
Q 1149.65 983.05 1151.35 980.2 1152.5 978.3 1152.8 976.25 1153.1 974 1152.3 972.1 1150.9 968.75 1146.75 967.75 1146.64453125 967.72421875 1146.55 967.7 1146.38515625 966.262109375 1145.6 965.1 1144.45 963.4 1142.25 962.65 1140.2 961.95 1137.95 962.25 1136.05 962.5 1133.85 963.5 1132.6 964.05 1130.05 965.5 1108.05 978 1094.45 983.5 1074.05 991.75 1056.25 992.2 1052.65 992.35 1051.9 992.4 1049.45 992.6 1047.7 993.3 1045.55 994.15 1044.2 995.9 1042.75 997.75 1042.9 999.85 1043.1 1002.95 1046.6 1004.75 1049.45 1006.25 1053.5 1006.45 1070.767578125 1007.4833984375 1090.45 1001.25 1092.1140625 1003.7876953125 1094.95 1004.95 1099.5 1006.8 1107.25 1005.05 1127.5 1000.55 1145.5 986.25
M 1172.85 874.2
Q 1170.9 873.8 1168.35 874.35 1148 878.65 1129.15 901.25 1125.6 905.5 1125.45 908.5 1125.3 910.8 1126.75 913.05 1128.05 915.1 1130.25 916.5 1133 918.3 1136.25 918.55 1139.7 918.8 1142.35 917.2 1144 916.25 1145.65 914.3 1146.65 913.15 1148.45 910.75 1151.55 906.75 1162.55 896.85 1171.75 888.5 1175.25 882.05 1177.15 878.55 1176.15 876.45 1175.3 874.65 1172.85 874.2
M 1297.75 1127.35
Q 1300.4 1125.9 1301.4 1122.65 1302.35 1119.5 1301.25 1116.5 1300.2 1113.7 1297.7 1111.5 1295.4 1109.5 1292.3 1108.35 1288.25 1106.85 1280.05 1106.35
L 1262.9 1105.15
Q 1258.1 1104.85 1255.55 1105.1 1253.159375 1105.306640625 1251.2 1105.95 1249.9083984375 1104.6751953125 1248.9 1103.85 1245.3 1100.95 1241.7 1100.35 1237.65 1099.65 1232.95 1101.6 1229.55 1103.05 1225.1 1106.35 1218.65 1111.05 1205.5 1122.25 1192.9 1132.9 1185.75 1138 1156.9 1158.55 1116.15 1167.5 1083.2 1174.7 1039.4 1174.85 1027.85 1174.85 1020 1174.35 1009.45 1173.7 1000.75 1171.95 978.1 1167.4 951.7 1151.85 942.2 1146.2 928.95 1137.25 914.1 1127.05 906.65 1122.05 903.4 1119.9 900.35 1119.4 896.6 1118.85 895.15 1121.4 893.25 1124.7 897.5 1129.75 903.9 1137.4 913.8 1145 919.85 1149.65 932.25 1157.85 950.05 1169.6 959.45 1174.75 975 1183.3 988.7 1186.9 998.8 1189.55 1011.75 1190.6 1019.75 1191.25 1035.2 1191.55 1079.55 1192.35 1102.85 1190.15 1118.5447265625 1188.66015625 1132.45 1185.6
L 1123.2 1188.75
Q 1120.55 1189.65 1119.2 1190.3 1118.7841796875 1190.5126953125 1118.4 1190.75 1117.7822265625 1190.632421875 1117.15 1190.6 1115.05 1190.5 1113.3 1191.25 1111.4 1192.05 1110.2 1193.65 1108.9 1195.3 1108.75 1197.25 1108.45 1201.75 1114.45 1206.65 1120.55 1211.7 1127.35 1215.35 1136.4 1220.35 1144.25 1221.2 1152.7 1222.2 1157.55 1218.1 1162.1 1214.25 1162.55 1206.8 1162.7 1204 1162.2 1200.5 1161.85 1198.2 1160.95 1194.25 1160.4 1191.7 1159.9 1190.35 1159.1 1188.2 1157.85 1186.95 1156.3 1185.35 1153.9 1184.8 1151.65 1184.3 1149.3 1184.9 1147.6521484375 1185.3068359375 1146.5 1186 1145.617578125 1184.98984375 1144.1 1184.3 1143.02265625 1183.8482421875 1141.35 1183.45 1155.45 1179.723828125 1167.55 1174.25 1184.8 1166.45 1203.65 1152.6 1216 1143.5 1236.45 1125.85
L 1267.1 1165.15
Q 1270.7 1169.7 1272.65 1171.75 1276 1175.2 1279.35 1176.95 1283.35 1179.1 1287.75 1178.85 1292.45 1178.6 1295.35 1175.7 1297.9 1173.1 1298.45 1169.05 1298.95 1165.25 1297.6 1161.45 1296.45 1158.25 1293.95 1154.8 1292.35 1152.6 1289.1 1148.9
L 1270.65 1127.9
Q 1272.3017578125 1128.0126953125 1273.7 1128.1 1283.5 1128.7 1291.4 1128.55 1295.75 1128.45 1297.75 1127.35
M 1138.75 1198.35
Q 1140.7 1197.85 1141.3 1197.65 1142.7 1197.15 1143.7 1196.55 1144.1794921875 1196.2267578125 1144.6 1195.85
L 1146.8 1205.2
Q 1142.3 1205.3 1137.9 1203.65 1134.7666015625 1202.53359375 1132.1 1200.65 1135.3142578125 1199.2912109375 1138.75 1198.35
M 1308 1072.7
Q 1309.75 1070.6 1310.15 1067.7 1310.55 1064.85 1309.55 1062.2 1307.65 1057.15 1302.1 1054.3 1299.1 1052.75 1294.95 1052.05 1292.35 1051.6 1287.4 1051.25
L 1270.15 1050
Q 1265.45 1049.65 1262.8 1049.95 1258.75 1050.45 1256.15 1052.45 1254 1054.15 1252.95 1056.9 1251.9 1059.55 1252.25 1062.35 1252.6 1065.1 1254.25 1067.5 1255.8 1069.85 1258.2 1071.35 1260.75 1073 1264.5 1073.8 1266.85 1074.3 1271.4 1074.7
L 1291.8 1076.45
Q 1297.35 1076.95 1300.65 1076.4 1305.5 1075.65 1308 1072.7 Z"/>
</g>
</defs>

<g transform="matrix( 1, 0, 0, 1, 0,0) ">
<use xlink:href="#Layer19_0_FILL"/>
</g>

<g transform="matrix( 1, 0, 0, 1, 0,0) ">
<use xlink:href="#Layer18_0_FILL"/>
</g>
</svg>
