
<svg xmlns="http://www.w3.org/2000/svg" version="1.1" xmlns:xlink="http://www.w3.org/1999/xlink" preserveAspectRatio="none" x="0px" y="0px" width="2000px" height="2000px" viewBox="0 0 2000 2000">
<defs>
<g id="Layer19_0_FILL">
<path fill="#000000" stroke="none" d="
M 1320.2 939.25
Q 1397.45 933.85 1455.65 989.6 1467.8 1001.3 1467.5 986.5 1466.35 929.15 1420.3 891.4 1373.9 853.3 1314.2 864 1252.85 874.9 1208.25 918.95 1191.55 917.65 1174.75 918 1160.2 918.3 1146.05 921.7 1143.2 903.7 1138.8 886.15 1119.95 811.1 1079.1 745.4 1039 680.95 979.4 634.05 918.25 586 840.15 587.65 784.35 588.85 735.1 614.35 668.35 649.05 635.05 718.45 601.25 788.7 615.3 866.15 628.9 940.95 682.55 994.45 736.25 1048.05 810.4 1065.25 884.15 1082.5 960 1075.9
L 1000.65 1072.3
Q 1012.05 1090.75 1000.25 1107.85 961 1164.9 971.85 1230.7 979.9 1279.45 1019.7 1309 1054.7 1334.85 1097.6 1333.85 1106.65 1333.65 1100.9 1326.15 1076.75 1294.6 1058.3 1259.6 1036.1 1217.65 1064.25 1180.7 1074.05 1229.7 1111.4 1263.1 1148.55 1296.25 1198.4 1299.75 1228.15 1302.25 1255.45 1291.3 1257.45 1288.45 1255.35 1285.95 1244.1 1272.95 1226.4 1264.45 1177.1 1240.85 1152 1193 1130.95 1153 1157.6 1119.1 1171.1 1101.95 1169.4 1081 1166.5 1046.05 1140.4 1020.2 1191.25 1005.95 1234.85 1036.6 1264.3 1057.2 1261.9 1095.2 1259.75 1130 1286.5 1150.2 1319.9 1175.4 1359.4 1159.85 1381.6 1151.05 1404.5 1154.1 1448.4 1159.45 1465.2 1202.25 1473.9 1224.5 1486.85 1243.95 1493.2 1253.5 1494.3 1242.35 1501.35 1169 1462.1 1107.5 1432.95 1061.85 1379 1068.25 1335.5 1073.6 1319 1030.8 1304.35 992.75 1287.7 955.3 1300.85 940.7 1320.2 939.25
M 1450.75 964.55
Q 1431.85 949.55 1411.45 936.9 1336.65 890.45 1274.6 941.95 1272.95 940.75 1271.3 939.6 1258.6 930.2 1243.45 925.55
L 1221.55 920.6
Q 1238.2 909.7 1255.25 899.35 1292.25 877 1335.05 878.3 1421.85 880.9 1450.75 964.55
M 1382.55 1087.2
Q 1394.2 1087.2 1405.2 1090.55 1473.4 1111.2 1474.45 1186.6 1468.45 1177.75 1462.35 1169 1440.8 1137.95 1404.05 1138.05 1375.6 1138.1 1347.95 1144.2 1274.75 1160.4 1275.8 1083.75 1276.15 1058.2 1259.35 1039.75 1204.95 980.25 1130.5 1013.85 1126.95 1015.4 1126.85 1017.4 1125.6 1040.75 1148 1063 1160.9 1075.8 1151 1087.45 1121.2 1122.55 1130.25 1167.7 1145.6 1244.6 1217.9 1282.95 1178.35 1288.7 1142.7 1269.05 1099.15 1244.95 1082.55 1198.8 1074.1 1175.25 1080.75 1151.8 1088.55 1124.35 1089.45 1096.3 1090.5 1065.2 1061.7 1053.15 1039.15 1043.75 1013.05 1048.35 912.85 1066.15 814.75 1042.75 662.25 1006.2 635.4 851.1 621.8 772.35 663 703.75 692.2 655 742.25 632.2 878.2 570.25 990.1 667.8 1057.8 726.9 1092.5 810.15 1032.45 789.35 1006.9 851.4 986.05 902.15 1030.5 929.35 1071.35 954.45 1098.35 920.4 1066.65 934.1 1034.4 919.8 1025.8 915.95 1020.05 908.25 1055.95 927.35 1089 903.1 1109.85 887.8 1113.35 862.5
L 1131.6 934.6
Q 1132.15 938.45 1134.95 940.05 1151.4 949.1 1172.9 944.6 1264.6 924.85 1288.75 1011.8 1309.75 1087.35 1382.55 1087.2
M 1070.1 823
Q 1087.1 823.1 1092.15 838.8 1109.3 891.85 1050.8 903.85 1040.75 904.15 1031.8 899.45 1021.75 894.15 1019.75 883.55 1008.3 822.65 1070.1 823
M 1060.3 1063.2
Q 1072.65 1070.35 1073.1 1083.6 1074.45 1122.75 1060.95 1161.3 1051.65 1168.7 1047.1 1179.8 1016.75 1253.6 1077.3 1316.25 1075.25 1315.8 1073.25 1315.2 992.15 1290.8 985.4 1206.8 983.4 1182.2 998.55 1162.25 1033.35 1116.6 1011.8 1071.05
L 1060.3 1063.2
M 1086.4 854.25
Q 1086.4 849.75 1083.5 846.55 1080.65 843.4 1076.6 843.4 1072.55 843.4 1069.65 846.55 1066.8 849.75 1066.8 854.25 1066.8 858.75 1069.65 861.9 1072.55 865.1 1076.6 865.1 1080.65 865.1 1083.5 861.9 1086.4 858.75 1086.4 854.25
M 1024.95 993.3
Q 1028.1 1005.7 1018.4 1013.85 1009.75 1021.1 1010.05 1031.7 1024.2 1033.35 1027.3 1019.25 1045.55 936.4 962.6 918.6 942.8 918.4 923.7 923 907.8 926.75 898.5 939.5 875.05 971.6 908.6 997.05 976.45 1048.35 1022.6 983.6 1023.75 988.45 1024.95 993.3
M 908.75 979.85
Q 899.15 970.85 904.95 960.3 924.5 924.95 969 933.2 1013.4 941.2 1008.7 977.25 963.85 1031.6 908.75 979.85
M 955.45 973.35
Q 955.45 969.4 953 966.6 950.55 963.85 947.05 963.85 943.55 963.85 941.1 966.6 938.65 969.4 938.65 973.35 938.65 977.3 941.1 980.05 943.55 982.85 947.05 982.85 950.55 982.85 953 980.05 955.45 977.3 955.45 973.35 Z"/>

<path fill="#FF3300" stroke="none" d="
M 1073.1 1083.6
Q 1072.65 1070.35 1060.3 1063.2
L 1011.8 1071.05
Q 1033.35 1116.6 998.55 1162.25 983.4 1182.2 985.4 1206.8 992.15 1290.8 1073.25 1315.2 1075.25 1315.8 1077.3 1316.25 1016.75 1253.6 1047.1 1179.8 1051.65 1168.7 1060.95 1161.3 1074.45 1122.75 1073.1 1083.6
M 1405.2 1090.55
Q 1394.2 1087.2 1382.55 1087.2 1309.75 1087.35 1288.75 1011.8 1264.6 924.85 1172.9 944.6 1151.4 949.1 1134.95 940.05 1132.15 938.45 1131.6 934.6
L 1113.35 862.5
Q 1109.85 887.8 1089 903.1 1055.95 927.35 1020.05 908.25 1025.8 915.95 1034.4 919.8 1066.65 934.1 1098.35 920.4 1071.35 954.45 1030.5 929.35 986.05 902.15 1006.9 851.4 1032.45 789.35 1092.5 810.15 1057.8 726.9 990.1 667.8 878.2 570.25 742.25 632.2 692.2 655 663 703.75 621.8 772.35 635.4 851.1 662.25 1006.2 814.75 1042.75 912.85 1066.15 1013.05 1048.35 1039.15 1043.75 1061.7 1053.15 1090.5 1065.2 1089.45 1096.3 1088.55 1124.35 1080.75 1151.8 1074.1 1175.25 1082.55 1198.8 1099.15 1244.95 1142.7 1269.05 1178.35 1288.7 1217.9 1282.95 1145.6 1244.6 1130.25 1167.7 1121.2 1122.55 1151 1087.45 1160.9 1075.8 1148 1063 1125.6 1040.75 1126.85 1017.4 1126.95 1015.4 1130.5 1013.85 1204.95 980.25 1259.35 1039.75 1276.15 1058.2 1275.8 1083.75 1274.75 1160.4 1347.95 1144.2 1375.6 1138.1 1404.05 1138.05 1440.8 1137.95 1462.35 1169 1468.45 1177.75 1474.45 1186.6 1473.4 1111.2 1405.2 1090.55
M 768.35 659.55
Q 773.75 649.15 785.5 645.4 865.7 620.25 930.1 674.55 958.55 698.55 929.35 705.6 869.3 670.55 798 684.05 751 692.75 768.35 659.55
M 985.15 753.6
Q 979.6 754.75 974.25 751.65 943.65 733.9 969 722.05 977.35 718.25 985.5 724.6 1014.4 747.1 985.15 753.6
M 1018.4 1013.85
Q 1028.1 1005.7 1024.95 993.3 1023.75 988.45 1022.6 983.6 976.45 1048.35 908.6 997.05 875.05 971.6 898.5 939.5 907.8 926.75 923.7 923 942.8 918.4 962.6 918.6 1045.55 936.4 1027.3 1019.25 1024.2 1033.35 1010.05 1031.7 1009.75 1021.1 1018.4 1013.85
M 1411.45 936.9
Q 1431.85 949.55 1450.75 964.55 1421.85 880.9 1335.05 878.3 1292.25 877 1255.25 899.35 1238.2 909.7 1221.55 920.6
L 1243.45 925.55
Q 1258.6 930.2 1271.3 939.6 1272.95 940.75 1274.6 941.95 1336.65 890.45 1411.45 936.9 Z"/>

<path fill="#FFFFFF" stroke="none" d="
M 1092.15 838.8
Q 1087.1 823.1 1070.1 823 1008.3 822.65 1019.75 883.55 1021.75 894.15 1031.8 899.45 1040.75 904.15 1050.8 903.85 1109.3 891.85 1092.15 838.8
M 1083.5 846.55
Q 1086.4 849.75 1086.4 854.25 1086.4 858.75 1083.5 861.9 1080.65 865.1 1076.6 865.1 1072.55 865.1 1069.65 861.9 1066.8 858.75 1066.8 854.25 1066.8 849.75 1069.65 846.55 1072.55 843.4 1076.6 843.4 1080.65 843.4 1083.5 846.55
M 904.95 960.3
Q 899.15 970.85 908.75 979.85 963.85 1031.6 1008.7 977.25 1013.4 941.2 969 933.2 924.5 924.95 904.95 960.3
M 953 966.6
Q 955.45 969.4 955.45 973.35 955.45 977.3 953 980.05 950.55 982.85 947.05 982.85 943.55 982.85 941.1 980.05 938.65 977.3 938.65 973.35 938.65 969.4 941.1 966.6 943.55 963.85 947.05 963.85 950.55 963.85 953 966.6
M 974.25 751.65
Q 979.6 754.75 985.15 753.6 1014.4 747.1 985.5 724.6 977.35 718.25 969 722.05 943.65 733.9 974.25 751.65
M 785.5 645.4
Q 773.75 649.15 768.35 659.55 751 692.75 798 684.05 869.3 670.55 929.35 705.6 958.55 698.55 930.1 674.55 865.7 620.25 785.5 645.4 Z"/>
</g>

<g id="Layer18_0_FILL">
<path fill="#000000" fill-opacity="0.2" stroke="none" d="
M 1085.85 1155.5
Q 1085.05 1151.8 1084.85 1151.05 1084.1 1148.6 1083.05 1146.95 1081.75 1144.95 1079.65 1143.9 1077.4 1142.85 1075.35 1143.55 1072.85 1144.35 1071 1148 1068.5 1153.15 1068.7 1160.15 1068.9 1165.35 1070.75 1172.7 1077.9 1201.5 1094.15 1226.85 1104.3 1242.6 1116.65 1254.25 1130.2 1267.1 1145.6 1274.15 1154.2 1278.1 1167.65 1281.85 1187 1287.25 1212.85 1291.85 1216.6 1292.55 1218.9 1292.75 1222.25 1293 1224.95 1292.5 1228.1 1291.85 1230.55 1290.05 1233.2 1288.05 1234.05 1285.3 1235.1 1282 1233.45 1278.4 1231.9 1275.1 1228.75 1272.95 1226.1 1271.15 1222.3 1270.05 1219.8 1269.35 1215.2 1268.55 1185.05 1263.35 1173.3 1260 1150.25 1253.35 1135.9 1241.5 1126.75 1233.95 1118.35 1222.05 1112.65 1213.95 1104.55 1199.45 1097.2 1186.3 1093.5 1178.1 1088.1 1166.05 1085.85 1155.5
M 989.05 1187.55
Q 987.8 1185.45 985.75 1185.05 983.85 1184.7 981.9 1186 980.2 1187.1 979 1189.05 976.9 1192.45 976.15 1197.25 975.6 1200.85 975.8 1206.15 976.6 1233.65 987.85 1254.4 993.75 1265.15 1003.5 1276.05 1016.85 1290.95 1033.45 1302.5 1050.05 1313.95 1068.75 1321.25 1072.35 1322.65 1074.85 1323.25 1078.3 1324.05 1081.2 1323.75 1084.55 1323.35 1087.15 1321.3 1089.9 1319.15 1090.4 1316.1 1090.75 1313.65 1089.6 1311.15 1088.5 1308.85 1086.45 1307.05 1084.75 1305.6 1082.15 1304.3 1080.8 1303.65 1077.4 1302.25 1052.4 1292.15 1036.35 1280.85 1015.55 1266.25 1004.8 1247.3 1000.3 1239.4 996.6 1228.65 994.3 1222.05 990.7 1209.1 989.15 1203.75 989.2 1200.65 989.25 1199.3 989.8 1196.25 990.3 1193.4 990.25 1191.85 990.2 1189.45 989.05 1187.55
M 1085.85 1078.95
Q 1087.95 1076.15 1088 1073.1 1088.05 1070.15 1086.25 1067.4 1084.55 1064.8 1081.75 1063.15 1077.4 1060.65 1069.95 1060.1 1061.45 1059.45 1047.65 1060.6 1030.05 1062 1025.25 1062.1 1018.5 1062.25 1017.35 1062.3 1012.85 1062.65 1009.65 1063.8 1005.7 1065.25 1003.15 1068.35 1000.35 1071.65 1000.5 1075.4 1000.6 1078.5 1002.8 1081.3 1004.8 1083.9 1007.9 1085.4 1010.55 1086.7 1014.1 1087.3 1016.65 1087.7 1020.65 1087.9 1041.1 1088.95 1068.5 1086 1072.7 1085.55 1074.9 1085.1 1078.4 1084.4 1080.95 1083.05 1083.95 1081.5 1085.85 1078.95
M 1009.4 973.85
Q 1009.25 973.95 1005.7 976.75 997.9 983.15 990.45 986.15 976.95 991.7 957.75 989.25 939.45 986.9 923.1 978.75 919.55 977 919.05 976.75 916.75 975.65 914.85 975.15 909.7 973.8 906.1 975.7 904.05 976.75 902.9 978.8 901.7 980.9 902.15 983.05 902.45 984.6 904.1 986.85 907.18203125 990.8330078125 912 994.15 911.601953125 994.8447265625 911.3 995.7 910.3 998.6 910.45 1001.75 910.55 1004.9 911.8 1007.7 913.35 1011.1 916.6 1014.15 919.05 1016.45 923.1 1019.15 936 1027.65 949.55 1032.15 964.25 1037.05 978.45 1036.75 991.6638671875 1036.4595703125 1002.6 1031.75 1006.586328125 1031.0404296875 1010.5 1029.15 1016 1026.5 1020.55 1022 1021.3216796875 1021.2431640625 1022.05 1020.4 1023.2076171875 1019.6095703125 1024.25 1018.8 1030.75 1013.75 1034.9 1008.15 1037.85 1004.2 1038.5 1001.05 1039.15 998 1038.05 994.95 1037.40390625 993.1583984375 1036.3 991.75 1036.3224609375 991.5470703125 1036.35 991.35 1037.1 985.8 1035.35 981.5 1033.4 976.6 1028.2 974.55 1026.701953125 973.948046875 1025.3 973.75 1023.862890625 972.2138671875 1021.9 971.4 1017.85 969.8 1013.45 971.5 1011.55 972.25 1009.4 973.85
M 936.05 1005.25
Q 941.505859375 1007.108984375 946.75 1008.4 946.63828125 1008.698828125 946.55 1009 946.294921875 1008.9591796875 946.05 1008.9 941.5 1007.8 938.05 1006.35 936.4470703125 1005.68203125 934.8 1004.8 935.419921875 1005.0369140625 936.05 1005.25
M 1078.45 876.85
Q 1075.35 878.5 1070.7 879.9 1065.3 881.4 1062.6 882.15 1055.65 884.45 1052.1 885.45 1046 887.2 1041.4 887.15 1035.8 887.1 1029.65 884.7 1024.75 882.8 1018.8 879.05 1016.95 877.9 1015.95 877.45 1014.25 876.65 1012.8 876.6 1010.8 876.5 1009 877.7 1007.2 878.85 1006.35 880.75 1005.5 882.55 1005.65 884.7 1005.8 886.75 1006.85 888.6 1008.15 890.95 1011.55 893.6 1016.0373046875 897.0298828125 1021.05 899.4 1019.7158203125 900.3619140625 1018.4 901.95 1015.55 905.3 1015.3 908.65 1014.95 913.1 1019.35 918.4 1023.1 922.9 1028.2 926.15 1033.25 929.35 1038.95 930.95 1040.15 931.3 1044.95 932.25 1049.55 933.1 1052 933.35 1055.9 933.75 1059.05 933.4 1061.15 933.15 1066.4 931.65 1077.7 928.2 1084.6 925 1091.45 921.85 1097.75 917.3 1108.2 909.8 1115 899.75 1122.3 888.9 1123.8 877.15 1125.05 866.85 1120.3 861.8 1118.1060546875 859.4291015625 1114.9 858.7 1115.6615234375 856.5171875 1115.9 854.95 1116.4 851.55 1115.15 849.15 1114.05 846.95 1111.65 845.8 1109.3 844.65 1106.75 844.95 1104.35 845.2 1102.15 846.7 1100.1 848.15 1098.75 850.35 1097.5 852.45 1096.1 857.4 1094.8 862.2 1093.4 864.35 1092.05 866.35 1088.35 869.55 1085.2 872.25 1083.6 873.45 1080.9 875.55 1078.45 876.85
M 1036.5 904.1
Q 1044.6212890625 905.3197265625 1052.65 904.05 1056.45 903.4 1062.35 901.85
L 1074.4 898.8
Q 1079.2 897.5 1081 896.85 1082.8939453125 896.1509765625 1084.85 895.1 1083.4712890625 896.2142578125 1081.9 897.3 1069.75 905.5 1058.65 907.4 1052.1 908.5 1045.9 907.35 1040.7642578125 906.455078125 1036.5 904.1
M 639.85 872
Q 635.85 868.15 631.65 866.7 626.55 864.95 623.55 868 620.7 870.9 621.6 877.2 622.65 885.45 627.25 894.85 630.15 900.75 636.7 911.1 660.25 947.9 676.45 967.95 700.55 997.7 726.25 1015.1 746.85 1029.1 775.1 1039.7 795.55 1047.35 827.8 1055.7 847.3 1060.75 860.7 1063.5 878.7 1067.25 894.05 1068.7 916.85 1070.95 945.5 1069.25 962.55 1068.25 996.9 1064.5
L 1054 1058.2
Q 1068.8 1056.55 1070.25 1048.7 1070.85 1045.7 1069.05 1042.65 1067.4 1039.8 1064.5 1038.1 1062 1036.65 1058.55 1035.95 1056.15 1035.45 1052.1 1035.1 1035.7 1033.85 1015.1 1034.8 1002.95 1035.35 978.05 1037.45 953.55 1039.55 940.95 1040.1 920.4 1040.95 903.95 1039.6 889.8 1038.45 873 1035.15 860.85 1032.8 842.4 1028.25 807.2 1019.65 786.1 1011.65 755.9 1000.2 735.15 983.95 722.05 973.7 708.9 958.5 699.65 947.75 686.25 929.45 668.4 905.1 664.2 899.65 651.35 883.15 639.85 872
M 1323.3 1133.75
Q 1311.7 1133.65 1304.6 1127.95 1295.05 1120.35 1293.05 1101.6 1292.9 1100.2 1291.8 1076.35 1291.05 1061.15 1288 1051.6 1283.45 1037.55 1271.25 1023.75 1246.4 995.8 1207.5 987.65 1168.55 979.45 1134.55 995 1131 996.65 1128.85 998.1 1125.85 1000.1 1124.15 1002.5 1122.15 1005.25 1122 1008.6 1121.85 1012.15 1123.9 1014.5 1126.7 1017.65 1132.1 1017.25 1135.7 1017 1141.65 1014.85 1162.4 1007.5 1185 1009.05 1207.55 1010.65 1227.1 1020.8 1238.2 1026.55 1246.45 1034.3 1255.55 1042.85 1260.3 1053 1264.95 1062.9 1266.75 1077.7 1267.75 1086.25 1268.8 1103.6 1271.8 1136.9 1288.7 1149.55 1298.65 1157 1314.25 1158 1324.55 1158.7 1342.45 1156.35
L 1391.9 1149.85
Q 1403.95 1148.3 1410.15 1148.25 1420.3 1148.1 1427.85 1150.85 1438.45 1154.65 1447.7 1165.05 1454.2 1172.4 1462.1 1185.85 1464.55 1190 1465.9 1191.9 1468.2 1195.15 1470.65 1197.15 1473.6 1199.5 1477.05 1200.25 1480.85 1201 1483.9 1199.55 1487.4 1197.9 1489.05 1193.8 1490.55 1190 1489.9 1185.85 1489.35 1182.3 1487.25 1178.35 1485.9 1175.75 1483 1171.5 1470.55 1153.4 1460.25 1143.45 1445.95 1129.7 1430.4 1125.45 1422.8 1123.4 1413.35 1123.15 1406.45 1123 1395.95 1123.85 1369.5 1126.15 1344.05 1131.1 1330.5 1133.8 1323.3 1133.75
M 1462.4 980.95
Q 1466.5 979.7 1468.3 976.45 1469.65 973.9 1469.3 970.65 1468.95 967.7 1467.3 965 1465.9 962.7 1463.45 960.45 1461.9 959 1458.85 956.6 1447.7 947.9 1440.3 942.55 1429.95 935.1 1420.95 929.7 1400.75 917.6 1378.7 910.1 1359.4 903.5 1344.65 903.45 1339 903.4 1331.95 904.35 1327.65 904.9 1319.3 906.4 1305.2 908.85 1298 910.95 1286.35 914.25 1278.3 919.55 1275.0375 921.6689453125 1270.3 925.7 1268.979296875 924.5623046875 1267.25 923.35 1253.1 913.5 1235.4 908.8 1227.7 906.75 1222.9 907.95 1219.65 908.8 1217.4 911.1 1214.95 913.6 1214.85 916.65 1214.75 920.1 1217.6 923.15 1219.95 925.7 1223.85 927.5 1227.3 929.1 1235.6 931.55 1243.3 933.85 1247.2 935.85 1248.1 936.3 1254.2 940 1257.539453125 942.0275390625 1260.15 943 1261.215625 944.9759765625 1263.7 946.25 1267.4 948.15 1271.4 947.3 1274.6 946.65 1278.45 944.3 1280.65 942.95 1284.95 940 1291.6 935.8 1300.65 932.9 1307.25 930.8 1317.55 928.75 1326.95 926.9 1333.2 926.2 1341.8 925.2 1348.95 925.7 1359.35 926.4 1372.65 930.9 1390.05 936.75 1405.4 945.9 1421.45 955.45 1441.65 972.65 1445.5 976 1447.75 977.55 1451.3 980 1454.65 980.95 1458.55 982.05 1462.4 980.95 Z"/>
</g>
</defs>

<g transform="matrix( 1, 0, 0, 1, 0,0) ">
<use xlink:href="#Layer19_0_FILL"/>
</g>

<g transform="matrix( 1, 0, 0, 1, 0,0) ">
<use xlink:href="#Layer18_0_FILL"/>
</g>
</svg>
