
<svg xmlns="http://www.w3.org/2000/svg" version="1.1" xmlns:xlink="http://www.w3.org/1999/xlink" preserveAspectRatio="none" x="0px" y="0px" width="1280px" height="720px" viewBox="0 0 1280 720">
<defs>
<g id="Symbol_1_0_Layer1_0_FILL">
<path fill="#000000" stroke="none" d="
M 54.2 -231.6
Q 51.65 -234.75 49.65 -235.85 49.55 -236.15 49.4 -236.45 48.4 -238.65 46.4 -239.25 42.65 -240.4 37.85 -234.75 -15.55 -171.65 -60.5 -102.4 -74.8 -80.45 -85.95 -61.05 -87.6 -58.2 -89.9 -54.05 -90.9 -54.25 -92.25 -54.3 -170.6 -57.6 -249.15 -51.5 -252.8 -51.2 -254.35 -50.25 -255.3 -49.65 -255.85 -48.7 -257.75 -48.05 -258.2 -46.25 -258.65 -44.15 -256.6 -42.35 -254.95 -40.95 -252.2 -40.1 -251.15 -39.75 -250.15 -39.4 -248.8 -37.6 -247.4 -35.5 -245.15 -32.15 -240.85 -25.35 -216.4 12.95 -168.4 63.6 -155.2 77.5 -128.45 105.15 -104.85 129.8 -89.55 147.7 -89.5 147.75 -89.5 147.8 -104.65 152.75 -127.45 160.5 -129.5 161.25 -130.5 161.85 -132.1 162.8 -132.7 164.15 -133.55 166.1 -132.2 168.2 -130.95 170.2 -128.8 170.85 -126.9 171.45 -124.5 171.15 -122.8 170.95 -120.2 170.2 -97.2 163.95 -51.7 149.3 -11.1 137.35 17.95 135.25 25.1 134.7 30.1 135 36.7 135.35 41.95 137.05 48.35 139.15 57.35 145.3 68.85 153.25 72.1 154.95 81.1 159.7 92.95 161.85 102.3 163.5 115.1 163.75 154.7 164.6 200.5 154.4 236 146.55 283.45 129.9 292 126.9 296.45 124.4 303.25 120.55 306.6 115.25 299.95 112.2 290.8 113.55 284.9 114.4 274.7 118 254.15 125.25 236.6 130.7 254.55 94.25 280.05 54.8 301.35 21.85 332 -19.3 341.95 -32.8 348.45 -40.15 353.6 -46 364.2 -57.7 372.85 -68.1 376.35 -77.4 376.5 -77.75 376.6 -78.1
L 376.65 -78.15
Q 380.1 -80.8 379.6 -84.15 379.15 -87.25 375.65 -88.85 372.55 -90.25 368.8 -89.9 366.35 -89.7 362.55 -88.8 275.75 -86.3 189.25 -74.3 187.35 -74.05 186.1 -73.7 172.2 -88.75 157.2 -106.2 140.75 -125.45 109.6 -163.65
L 54.2 -231.6
M 110.45 -136.55
Q 120.15 -124.15 133.15 -109.1 140.55 -100.6 156.8 -82.45
L 196.95 -37.65
Q 197 -37.6 197.1 -37.5 128.05 -14.95 59.2 9.35 58.4 -12.25 55.8 -45.1 52.2 -90.9 51.4 -107.5 50.3 -130.5 50.05 -167.55 49.8 -203.9 49.55 -219.8
L 87.4 -167.55
Q 102.05 -147.3 110.45 -136.55
M 214.1 -43
Q 213.2 -44.95 211.6 -47 210.35 -48.55 207.6 -51.3 202.9 -56 198.1 -61 254.3 -67.95 306.7 -72.15 260.35 -58 214.1 -43
M 44.3 -223
Q 42.1 -171.45 45 -108.45 46.9 -67.75 53.2 11.75 51.7 11.45 49.2 11.2 -26.9 3.65 -101.5 -11.25 -96.1 -19.3 -89.8 -30.85 -86.05 -37.7 -78.7 -51.65 -56.35 -92.95 -20.6 -140.9 -2.6 -165.05 44.3 -223
M 148.95 -8.55
Q 177.4 -17.7 235.65 -35
L 356.25 -70.8
Q 270.65 29.95 219.15 132.85 218.05 134.95 217.7 136.35 207.9 139.1 199.2 141.2 157.2 151.3 121.45 151.45 108.95 151.55 99.65 150.1 87.95 148.35 78.95 143.95 74.65 141.85 62.7 133.9 52.75 127.3 46 125 36.6 121.75 21.9 122.3 1.8 123.05 -26.1 129.6 -48.95 135 -76.9 143.75 -77.45 142.6 -78.35 141.45 -79.2 140.35 -81.1 138.35
L -141.35 75.65
Q -154.85 61.65 -161.5 54.55 -202.8 10.9 -241.9 -36.65 -242 -36.75 -242.05 -36.8 -130.4 -1.4 -14.75 16.95 3.9 19.9 17.9 21.65 35.5 23.85 50.65 24.8 56.6 25.2 59.25 23.2 59.35 23.2 59.45 23.15 61 22.7 63.6 21.65 101 6.85 148.95 -8.55
M -233.1 -43.65
L -190.7 -44.4
Q -158.25 -44.9 -143.6 -44.95 -117.35 -45.1 -96.55 -44.35 -95.9 -44.35 -95.35 -44.3 -96.1 -43 -96.85 -41.6
L -110.85 -16.3
Q -111.7 -14.8 -112.15 -13.45 -173.1 -26.1 -233.1 -43.65 Z"/>

<path fill="#999999" stroke="none" d="
M -190.7 -44.4
L -233.1 -43.65
Q -173.1 -26.1 -112.15 -13.45 -111.7 -14.8 -110.85 -16.3
L -96.85 -41.6
Q -96.1 -43 -95.35 -44.3 -95.9 -44.35 -96.55 -44.35 -117.35 -45.1 -143.6 -44.95 -158.25 -44.9 -190.7 -44.4
M 211.6 -47
Q 213.2 -44.95 214.1 -43 260.35 -58 306.7 -72.15 254.3 -67.95 198.1 -61 202.9 -56 207.6 -51.3 210.35 -48.55 211.6 -47 Z"/>

<path fill="#FFFFFF" stroke="none" d="
M 235.65 -35
Q 177.4 -17.7 148.95 -8.55 101 6.85 63.6 21.65 61 22.7 59.45 23.15 59.35 23.2 59.25 23.2 56.6 25.2 50.65 24.8 35.5 23.85 17.9 21.65 3.9 19.9 -14.75 16.95 -130.4 -1.4 -242.05 -36.8 -242 -36.75 -241.9 -36.65 -202.8 10.9 -161.5 54.55 -154.85 61.65 -141.35 75.65
L -81.1 138.35
Q -79.2 140.35 -78.35 141.45 -77.45 142.6 -76.9 143.75 -48.95 135 -26.1 129.6 1.8 123.05 21.9 122.3 36.6 121.75 46 125 52.75 127.3 62.7 133.9 74.65 141.85 78.95 143.95 87.95 148.35 99.65 150.1 108.95 151.55 121.45 151.45 157.2 151.3 199.2 141.2 207.9 139.1 217.7 136.35 218.05 134.95 219.15 132.85 270.65 29.95 356.25 -70.8
L 235.65 -35
M 45 -108.45
Q 42.1 -171.45 44.3 -223 -2.6 -165.05 -20.6 -140.9 -56.35 -92.95 -78.7 -51.65 -86.05 -37.7 -89.8 -30.85 -96.1 -19.3 -101.5 -11.25 -26.9 3.65 49.2 11.2 51.7 11.45 53.2 11.75 46.9 -67.75 45 -108.45 Z"/>

<path fill="#CCCCCC" stroke="none" d="
M 133.15 -109.1
Q 120.15 -124.15 110.45 -136.55 102.05 -147.3 87.4 -167.55
L 49.55 -219.8
Q 49.8 -203.9 50.05 -167.55 50.3 -130.5 51.4 -107.5 52.2 -90.9 55.8 -45.1 58.4 -12.25 59.2 9.35 128.05 -14.95 197.1 -37.5 197 -37.6 196.95 -37.65
L 156.8 -82.45
Q 140.55 -100.6 133.15 -109.1 Z"/>
</g>

<g id="Symbol_1_0_Layer0_0_FILL">
<path fill="#000000" stroke="none" d="
M -74.1 42.25
Q -75.5 40.5 -77.4 40.2 -78.9 40 -80.35 40.8 -81.75 41.5 -82.7 42.85 -84.2 44.95 -84.65 48.7 -85.4 54.05 -84.55 63.1 -83.5 73.9 -83.6 77.55 -88.9 69.3 -93 61.55 -94.7 58.25 -96.1 56.95 -97.3 55.8 -98.9 55.3 -100.55 54.75 -102.15 54.95 -103.8 55.15 -105.25 56.1 -106.65 57.05 -107.45 58.45 -108.5 60.3 -108.6 64.6
L -108.95 80.65
Q -110.9 79.2 -113.35 75.35
L -129.35 50.6
Q -130.8 48.35 -131.85 47.2 -133.4 45.45 -135.1 44.65 -137.1 43.75 -139.25 44.45 -141.55 45.2 -142 47.2 -142.4 48.75 -141.4 50.6 -140.75 51.8 -139.15 53.65 -135.4 58.05 -131.35 64.75 -129 68.65 -124.55 76.55 -120.05 84.3 -116 89.9 -112.65 94.5 -109.9 97.3 -105.3 101.9 -101.4 101.4 -99.3 101.1 -97.6 99.45 -96.05 97.95 -95.25 95.8 -94.6 93.95 -94.4 91.55 -94.3 90.05 -94.35 87.1 -93.45 88.25 -91.45 91.15 -89.65 93.75 -88.5 95.15 -84.65 99.7 -80.5 100.8 -78 101.4 -75.55 100.7 -72.95 99.95 -71.55 98 -70.05 95.85 -69.95 91.5 -69.8 87.75 -70.25 81.75 -70.85 74 -70.9 72.05 -71 65.45 -71.2 63.8 -71.3 62.8 -71.95 58.9 -72.45 55.9 -72.5 54 -72.5 53.45 -72.35 50 -72.25 47.5 -72.5 45.95 -72.85 43.8 -74.1 42.25
M -28.25 46.8
Q -30.15 44.85 -33.3 43.5 -44.05 38.9 -52.2 41.75 -55.4 42.9 -57.7 45.2 -58.65 45.5 -59.4 46.3 -60.25 47.2 -60.7 48.45 -60.9 49.1 -61 50.05 -62.4 53.4 -61.6 56.85 -61.3 58 -60.65 58.95
L -59.3 81.7
Q -58.9 88.4 -58.2 91.7 -57.35 95.7 -55 96.2 -53.8 96.45 -52.65 95.65 -51.6 94.95 -51.1 93.75 -50.45 92.1 -50.65 88.8
L -51.55 73.95
Q -50.85 74.9 -50.05 75.85 -45.55 81.05 -41.2 85.55 -38.5 88.45 -36.35 89.35 -34.85 90 -33.3 89.8 -31.6 89.65 -30.55 88.55 -29.45 87.45 -29.3 85.65 -29.15 84.05 -29.75 82.35 -30.95 78.8 -35.9 73.8 -41.15 68.5 -42.5 65.45 -36.1 62.1 -30.3 57.45 -26.7 54.45 -26.35 51.85 -25.95 49.2 -28.25 46.8
M -41.2 49.55
Q -41.3 50.35 -42.4 51.05 -43.6 51.85 -47.3 53.6 -50.45 55.05 -51.95 56.4 -52.5 57 -52.85 57.35 -53 56.75 -53.1 56.25 -53.45 55.05 -53.65 54.4 -53.35 53.5 -53 52.9 -51.4 50.3 -47.65 49.6 -45.75 49.25 -41.2 49.55
M 9.2 53.8
Q 10.7 52.4 10.7 50.75 10.7 47.95 7.05 46.15 3.3 44.35 -2.15 44.3 -3.7 44.3 -11.85 44.95 -15.6 45.2 -17.45 45.7 -19.2 46.2 -20.4 47.1 -20.75 47.25 -21.05 47.55 -21.35 47.85 -21.55 48.2 -21.7 48.35 -21.85 48.55 -22.85 50 -22.9 51.8 -22.95 53.1 -22.45 54.2
L -22.7 70.25
Q -22.8 76.3 -22.95 78 -23.05 79.5 -23.3 82.5 -23.45 85.05 -23.1 86.95 -22.6 89.55 -22.55 89.85 -22.5 90.3 -22.5 91.65 -22.5 92.75 -22.4 93.4 -22.2 94.95 -20.9 97.4 -19.2 100.6 -18.15 101.6 -16.05 103.7 -11.55 104.65 -8.2 105.35 -5.05 105.35 1.3 105.35 3.6 101.7 4.2 100.8 4.3 99.75 4.4 98.55 3.85 97.75 3.15 96.7 0.5 96.05
L -7.85 94.15
Q -12.45 93.1 -13.15 90.75 -13.3 90.15 -13.3 89.1 -13.3 87.85 -13.35 87.45 -13.45 86.7 -13.8 85.65 -14.4 84.05 -14.45 83.95 -14.75 83.1 -14.9 82.15 -13.95 82.4 -12.25 82.75 -8.5 83.5 -7 83.5 -3.95 83.5 -1.2 82.2 0.2 81.6 0.85 80.7 1.8 79.55 1.35 78.3 1 77.4 -0.35 76.65 -1.85 75.85 -4.55 75.1 -9.15 73.65 -12.05 73.05 -14 72.7 -15.35 72.8 -15.5 64.25 -15.5 58.45 -13.6 58.6 -10.4 58.3 -2 57.35 4.1 55.95 7.7 55.15 9.2 53.8
M 39.6 48.4
Q 37.65 46.8 34.5 46.9 30 46.95 25.7 50.1 22.75 52.2 18.9 56.7 17.2 58.8 16.5 59.95 15.85 61.05 14.7 63.85 13.05 67.95 12.55 69.85 11.7 73.1 11.45 76.75 11.05 81.55 11.5 86.1 12.25 93.25 15.2 98.05 16.65 100.4 19 102.9 20.45 104.4 23.55 107.2 25.7 109.25 27.3 109.75 28.55 110.15 30.7 110.15
L 35.9 110.2
Q 39.25 110.2 40.55 109.9 43.15 109.35 45.8 107.3 47.55 105.95 50.2 103.15 51.5 101.85 51.55 100.9 51.65 99.4 50.1 98.6 49.3 98.15 47.35 98.05 45.4 98 42.15 98.3 38.1 98.7 36.95 98.75 33.25 98.95 31.3 97.85 30.2 97.25 28.95 95.9 26.1 92.8 24.6 88.75 23.1 84.7 23.3 80.45 23.35 77.85 24.35 74.05 24.85 71.85 25.7 69.65 28.6 61.9 34.3 59.4 35.25 59 37.2 58.3 38.95 57.65 39.9 56.8 41.65 55.2 41.55 52.55 41.45 49.9 39.6 48.4
M 89 64.7
Q 89.45 62.65 88.8 60.75 88.1 58.65 86.4 57.8 83.15 56.1 78.35 59.45 75.15 61.65 71.8 65.05 69.45 67.45 66.05 71.55 65.7 71.95 65.4 72.35
L 63.85 54
Q 63.5 49 60.8 48.5 59.8 48.3 58.8 48.9 57.85 49.45 57.25 50.4 56.55 51.65 56.25 54.55 54.8 70.05 56.85 85.4 57.8 92.25 59.9 95.55 60.7 96.75 61.75 97.35 63 98 64 97.5 64.85 97.05 65.4 95.6 66.1 93.75 66.4 91.55 68.55 90.75 70.65 89.05 70.7 89 70.75 89 72.7 90.6 75.2 92.35 82.95 97.75 84.7 99.25 87.85 102.05 88.55 102.5 90.8 104.2 92.95 104.55 94.45 104.85 95.85 104.3 97.35 103.8 98.05 102.55 99.45 100.2 97.35 96.7 95.55 93.55 92.15 90.6 90 88.75 85.65 85.75
L 78.2 80.55 85.15 71.6
Q 86.8 69.45 87.45 68.35 88.65 66.45 89 64.7
M 145.05 34.95
Q 144.3 32.4 143 30.7 141.45 28.7 139.05 27.95 136.5 27.2 134.55 28.45 132.9 29.45 131.4 32.75 126.45 43.55 124.25 55.4 123.8 58 122.6 58.6
L 115.7 39.4
Q 114.65 36.4 113.65 34.9 112.2 32.55 110.15 31.8 107.95 30.95 105.55 32 103.25 33.05 102.05 35.2 100.85 37.3 100.35 41.85 99.45 49.45 99.3 53.35 99.15 56.7 99.15 62.45 99.2 69.1 99.15 71.55 99.1 73.25 98.95 76.65 98.85 79.65 98.9 81.75 99 84.25 99.5 89 100.15 94.65 100.75 97.55 101.7 102.25 103.45 105.65 104.55 107.75 106 109 107.8 110.5 109.65 110.25 111.1 110.05 112.3 108.9 113.4 107.8 113.85 106.25 114.4 104.3 114 100.2 112.2 83.6 112.05 81.55 111.15 70.95 111.7 62.9 113.55 69.25 116.55 74.9 118.35 78.2 119.85 79.55 122.3 81.75 125.05 81.45 128 81.1 130 77.85 131.15 75.85 132 71.8
L 136.4 52
Q 137.25 53.5 137.45 56.55
L 138.3 66.9
Q 139.15 76.2 139.95 80.05 140.8 84.3 142.55 86.15 143.55 87.2 144.85 87.6 146.25 88.1 147.45 87.65 149.05 87.05 149.85 85.05 150.5 83.4 150.5 81.2 150.5 80.3 150.25 76.05 148.7 57.35 146 39.7 145.55 36.7 145.05 34.95
M 175.6 35.85
Q 175 34.35 174.05 33.55 172.6 32.35 170.4 32.65 168.35 33 166.8 34.4 164.7 36.4 163.15 41.35 156.75 60.3 154.3 74.4
L 152.85 84.4
Q 152.1 90.75 152 93.85 151.85 99.15 152.95 103.15 153.85 106.55 155.85 107.2 157.2 107.65 158.6 106.85 159.95 106.1 160.6 104.7 161.15 103.55 161.4 101.95 161.45 101.35 161.65 99 161.9 96.35 162.8 91.5 163.8 86.35 164.05 84 164.15 82.85 164.2 82.05 165.6 81.85 167.35 81.05 168.65 80.5 169.65 79.95
L 171 97.7
Q 171.3 102.6 172.65 105 173.65 106.7 175.35 107.6 177.25 108.55 178.95 107.95 180.25 107.55 181.2 106.35 182.05 105.25 182.4 103.75 182.85 101.7 182.35 98.1 181.1 88.5 179.3 78.9 179.5 77.75 179.5 76.7 179.5 75.4 179.15 73.5 178.6 70.35 178.6 70.3 178.25 67.9 178.35 62.95 178.55 57.4 178.2 54.65 177.65 51.85 177.5 50.45 177.35 49.15 177.3 46.75 177.2 44.15 177.1 43 176.95 41.6 176.35 38.55 175.95 36.7 175.6 35.85
M 168.25 61.25
Q 168.25 61.4 168.25 61.6
L 168.65 66.85
Q 168.65 68.7 168.75 70.55 168.15 70.65 167.5 70.8 167.1 70.9 166.6 71.05 167.05 69.2 167.6 65.5
L 168.25 61.25
M 209.9 30.15
Q 208.65 29 206.4 28.75 204.45 28.5 201.4 29.15 198.25 29.85 197.05 30.05
L 191.75 30.4
Q 187.1 30.7 184.3 31.25 180.2 32.1 179.75 34.55 179.45 36.05 180.75 37.45 181.95 38.65 183.7 39.1 185.3 39.5 188.75 39.5
L 191.7 39.45
Q 191.1 42.45 190.85 46.6 190.05 56.95 190.15 68.55 190.15 71.75 190.45 73.35 190.5 73.6 190.9 75.15 191.15 76.25 191.25 77 191.4 78 191.3 79.8 191.25 81.8 191.3 82.65 191.6 86.85 194.75 89.75 196.45 91.45 198.2 91.25 199.9 91.05 201.45 88.75 202.9 86.5 202.85 84.95 202.85 84.4 202.65 83.55 202.35 82.6 202.25 82.15 201.9 80.7 202.05 77.8 202.15 74.75 201.9 73.4 201.3 71.45 201.1 70.5 200.9 69.4 200.9 66.45 201.15 56.15 200.25 46.4
L 199.95 42.75
Q 199.8 40.6 200.25 39.05 200.3 38.9 200.4 38.75 201.55 38.45 202.5 38 202.7 37.9 202.95 37.8 204.5 37.65 206.1 37.3 208.25 36.8 209.3 36.2 210.95 35.15 211.25 33.55 211.55 31.65 209.9 30.15
M 246.35 34.75
Q 246.1 33 243.85 31.55 240.85 29.6 235.9 28.7 230.2 27.9 227.35 27.35 224.95 26.85 223.75 26.65 221.65 26.35 220.1 26.55 218.15 26.75 216.65 27.8 215 29 214.6 30.7 214.2 32.35 215.15 34.1 215.35 34.45 215.55 34.8 215.45 35.05 215.35 35.4
L 211.4 47.1
Q 209.9 51.4 209.1 54.1 208.65 55.55 208.35 56.95 207.9 58.7 207.55 61.05 207.15 64.2 207.15 68.05 207.05 73.05 207.75 76.05 208.85 80.55 211.75 82.9 214.15 84.9 219.55 86.05 226.6 87.65 230.9 86.9 234.8 86.2 236.9 83.75 238.05 82.4 238.3 80.65 238.55 78.8 237.7 77.35 236.8 75.8 234.7 74.95 233.3 74.35 230.75 73.9
L 221.85 72.35
Q 220.05 72.05 219.5 71.35 218.95 70.65 218.95 69.1 218.95 65.85 219.95 59.25 220 58.8 220.1 58.35
L 228.85 58.5
Q 230.7 58.6 231.8 58.25 233.35 57.75 234.25 56.55 234.9 55.6 234.85 54.85 234.85 54.05 234.1 53.2 232.8 51.8 229.6 51.5 228.45 51.4 224.4 51.4
L 221.65 51.4
Q 222.4 48.85 222.8 47.4 223.6 44.5 224.35 38.65 224.4 38.65 224.45 38.65
L 233 39.9
Q 236.75 40.4 238.75 40.35 241.9 40.2 244.05 38.85 245.2 38.1 245.8 37.1 246.55 35.9 246.35 34.75 Z"/>
</g>
</defs>

<g transform="matrix( 1, 0, 0, 1, 582.5,372.85) ">
<g transform="matrix( 1, 0, 0, 1, 0,0) ">
<use xlink:href="#Symbol_1_0_Layer1_0_FILL"/>
</g>

<g transform="matrix( 1, 0, 0, 1, 0,0) ">
<use xlink:href="#Symbol_1_0_Layer0_0_FILL"/>
</g>
</g>
</svg>
