
<svg xmlns="http://www.w3.org/2000/svg" version="1.1" xmlns:xlink="http://www.w3.org/1999/xlink" preserveAspectRatio="none" x="0px" y="0px" width="2000px" height="2000px" viewBox="0 0 2000 2000">
<defs>
<g id="Layer19_0_FILL">
<path fill="#000000" stroke="none" d="
M 1461.55 1058.1
Q 1455.9 984.45 1437.45 913.05 1418.3 839.05 1367 782.45 1315.6 725.7 1240.95 709.5 1166.1 693.35 1089.05 693.85 1013.5 694.3 937.95 695.5 862.15 696.75 790.05 719.8 717 743.1 662.65 796.95 607.85 851.3 589.7 926.55 572.1 999.7 577.1 1075 581.95 1147.35 591.65 1219.35 601.6 1293 610 1366.9 612.45 1388.7 630.7 1394.55 692.9 1394.7 756.35 1390.5 920.15 1378.55 1084.45 1379.15 1204.7 1379.55 1324.9 1376.1 1381.75 1374.45 1438.35 1372.8 1480.65 1371.6 1468.35 1343.5 1469.8 1275.15 1468.55 1206.65 1467.2 1132.25 1461.55 1058.1
M 1317.55 768.85
L 1330.9 779.4 1341.9 789.35
Q 1311.15 789.05 1281.2 795.7 1222.3 808.5 1192.5 860 1157.7 920.25 1147.1 990.1
L 1103.75 995.95
Q 1097.65 938.55 1122.3 883.75 1142.45 838.9 1183 811.7 1243.4 771.3 1317.55 768.85
M 1352.75 800.4
Q 1355 802.95 1357.2 805.6 1394.65 850.1 1410.65 906.3
L 1422.5 951.45 1388.6 952.65
Q 1388.75 951.5 1388.8 950.35 1391.3 903.95 1357.3 872.6 1344.75 861 1329 854.25 1276.7 832.05 1238.7 870.15 1193.25 915.85 1197.5 980.9
L 1158.4 988.05
Q 1163.8 953.2 1172.45 919.25 1187.05 861.95 1234.65 830 1287.85 794.3 1352.75 800.4
M 1331.7 958.1
L 1298.3 962.85 1289 859.75
Q 1313.85 858 1334.75 871.5 1378.55 899.75 1379.6 953.25
L 1331.7 958.1
M 1426.1 967.7
L 1429.65 984.75
Q 1387.5 988.3 1345.7 994.35 1292.85 1001.75 1240.05 1010.6 1197.2 1017.8 1153.85 1022.55
L 1155.7 1006.7
Q 1216.65 993.9 1277.95 984.2 1351.7 972.45 1426.1 967.7
M 1432.45 999.05
L 1436.55 1024.65 1304.8 1036.85 1302.2 1035.45 1299.6 1038.2
Q 1247.7 1045.95 1196.3 1056.05 1186.2 1057.95 1176 1059.3 1163.45 1060.85 1151 1061.5
L 1152.85 1033.1
Q 1222.5 1022.85 1292.35 1014.25 1362.25 1005.9 1432.45 999.05
M 1390.65 1043.65
Q 1391.15 1060.8 1392.3 1078.05 1396.5 1140.1 1401.15 1202.35 1404.55 1248.35 1409.6 1294.25
L 1330.9 1302.55
Q 1330 1288.95 1329.15 1275.4 1324.55 1202.35 1317.3 1129.55 1313.35 1089.95 1307.45 1050.6
L 1390.65 1043.65
M 1398.5 1043.05
L 1438.25 1039.25 1440.65 1091.7 1445.2 1290.65 1425.6 1292 1398.5 1043.05
M 1446.6 1339.35
L 1447.25 1342.85 1187 1355.05 1180.45 1326.15
Q 1246.55 1323 1312.65 1319.35 1379.35 1316.5 1445.65 1309.1
L 1446.6 1339.35
M 1299.8 1051.35
L 1320.7 1303.35 1247.75 1307.8 1218 1308.1
Q 1217.9 1301.75 1217.5 1295.45 1212.4 1216.55 1204.55 1137.9 1202.4 1116.6 1201.8 1095.35 1201.6 1087.9 1201.5 1080.45 1201.4 1072.95 1201.4 1065.5
L 1299.8 1051.35
M 748.05 760.25
L 753.4 757.55 748.8 761.65
Q 697.8 804.2 665.95 861.75 623.05 939.15 625.65 1025.95
L 629 1026.5
Q 629.8 1026.4 629.9 1025.55 634.1 996.3 640.2 966.85 657.3 883.85 708.1 816.2 751.5 758.45 817.45 735.7 871.3 717.25 928.3 714.25 863.25 737.5 823.4 792.3 781.15 850.4 770.5 921.55 763.95 965.25 757 1007.45 740.95 1009.35 724.9 1011.3 676.8 1017.8 629.45 1028.45
L 598.4 1036
Q 598.95 1020.9 599.3 1005.85 601.15 928.7 639.95 862.8 679.2 796.15 748.05 760.25
M 850.15 779.85
Q 880.2 747.65 921.9 733.6 1006.45 704.85 1098.65 718.4 1050.45 742.35 1009.4 776.85 914.35 856.55 916.55 987.95 914.4 983.85 911.3 980.8 849.1 919.2 775.8 975.45
L 774.2 976.9
Q 774.1724609375 976.1748046875 774.15 975.45 773.242578125 947.1896484375 778.8 919.5 794.85 839 850.15 779.85
M 1065.75 745.2
Q 1086.2 735.55 1107.85 730.15 1182.6 711.45 1258.1 737.5
L 1304.1 759.65
Q 1294.25 760.35 1284.45 761.05 1234.85 764.65 1191.15 788.1 1151.2 809.55 1127.35 848.15 1084.6 917.35 1089.55 998.7 1007.85 1008.25 925.55 1005.8 926.25 994.35 927 982.9 931.65 911.95 961.9 848.15 994.6 779.15 1065.75 745.2
M 599.6 1062.85
L 598.35 1042.2
Q 641.4 1033.6 685.2 1028.25 699.75 1026.65 713.8 1028.85 753.1 1034.5 772.5 1009.75 772.8 1009.35 772.9 1008.8
L 775.15 1008 776.45 997.95
Q 788.75 978.3 810.6 970.9 843.5 959.85 875.6 968.8 877.1 969.1 878.45 969.9 900.35 982.1 905.85 1007.1 906.85 1011.55 910.05 1012.1 1021.7 1028.75 1136.8 1010.05 1141.4 1009.2 1146 1008.4
L 1144.2 1024.7 1134.35 1024 863.95 1042.65
Q 865.5 1040 866.25 1036.95 867.95 1029.8 862.9 1026.65 816.85 997.45 786.5 1046.3 785.95 1047.2 785.9 1048.4
L 599.6 1062.85
M 601.1 1112.3
L 600.55 1105.1 634.7 1105.8 666.8 1342.6 633.9 1345.65
Q 624.95 1300.95 618.45 1255.95 608.15 1184.4 601.1 1112.3
M 600.1 1094.75
L 598.75 1071.3 788.3 1057.65
Q 789.05 1058.95 789.8 1060.3 790.2 1060.95 790.7 1061.6 791.2 1062.35 791.8 1063.1 795.85 1067.8 801.5 1070.25 795.4 1086.25 791.8 1102.95 788.75 1117.05 800.05 1118.9 822.35 1122.45 845.8 1117.7 858.05 1115.15 856.6 1103.9 853.85 1082.6 844.65 1062.15
L 854.95 1053.55
Q 999.6 1048.75 1143.3 1034.55
L 1141.55 1061.7
Q 1113.45 1062.35 1085.4 1062.1 1004.15 1061.4 923.4 1070.3 921.2 1067.9 917.9 1067.35 915.6 1067.55 913.65 1068.95 911.8 1070.25 911.55 1072.45 909.15 1096 911.8 1119.6 891.7 1126.2 870.8 1128.75 821.3 1134.3 771.9 1138.65 768.7 1114.05 765.6 1089.5 765.15 1085.7 762.3 1083.35 750.7 1073.65 733.35 1078.15 667.1 1095.55 600.1 1094.75
M 642.5 1375.25
Q 641.9 1374.95 641.4 1374.6 640.8 1374.3 640.25 1373.95
L 635.15 1351.7 678.7 1351.1 679.7 1349.6 1166.1 1326.8 1171.55 1356.6
Q 1144.25 1358.5 1116.1 1358.55 1036.15 1358.75 956.35 1362.05 887.15 1363.8 818.5 1371.8 730.35 1382.2 642.5 1375.25
M 1246.9 876.3
Q 1260.35 861.15 1280.45 859.15
L 1287.8 964.7 1208.2 978.95
Q 1207.9 920.15 1246.9 876.3
M 1103.5 1110
L 1098.75 1079.05 1139.4 1075.9 1141.1 1075.9
Q 1141 1110.05 1142.9 1144.25 1146.35 1207.1 1156.1 1269.5 1157.2 1276.4 1158.4 1283.3 1160.8 1297.1 1163.3 1310.9
L 1126.85 1311.1 1126.95 1302.15 1103.5 1110
M 1150.65 1070.7
L 1195.6 1066.3
Q 1193.8 1116.65 1196.5 1167.05 1200.35 1237.85 1204.8 1308.7
L 1176.95 1310.5
Q 1169.3 1275.75 1163.35 1240.8 1154.7 1190.1 1151.8 1138.65 1149.9 1104.6 1150.65 1070.7
M 750.45 1093.55
Q 751.4 1107.45 750.6 1121.25 748.75 1152.85 773.15 1155.55 784 1243.6 780.75 1332.45
L 680.6 1341.3
Q 656.9 1223.85 641.75 1104.95
L 750.45 1093.55
M 785.05 1161.05
Q 784.85 1159 784.8 1156.95 784.8 1155.9 784.8 1154.85
L 912.05 1138.55 925.4 1321.4 842.45 1327.4 791.7 1330.1
Q 792.4 1245.3 785.05 1161.05
M 927.9 1086.3
Q 927.45 1083 926.9 1079.7
L 1091.25 1079.2 1114.95 1312.4 1059.9 1314.25 936.6 1320.7
Q 929.05 1248 923.45 1175.1 923.15 1171.5 922.55 1167.95 920.35 1154.35 919.55 1140.7 919.4 1138.35 920.5 1136.3 923.25 1134.95 924.7 1132.45 924.85 1132.1 925 1131.75 925.15 1131.35 925.25 1131 927.4 1123.3 928.2 1115.35 928.65 1110.55 928.75 1105.75 928.85 1099.3 928.5 1092.9 928.35 1089.55 927.9 1086.3 Z"/>

<path fill="#660000" stroke="none" d="
M 926.9 1079.7
Q 927.45 1083 927.9 1086.3 928.35 1089.55 928.5 1092.9 928.85 1099.3 928.75 1105.75 928.65 1110.55 928.2 1115.35 927.4 1123.3 925.25 1131 925.15 1131.35 925 1131.75 924.85 1132.1 924.7 1132.45 923.25 1134.95 920.5 1136.3 919.4 1138.35 919.55 1140.7 920.35 1154.35 922.55 1167.95 923.15 1171.5 923.45 1175.1 929.05 1248 936.6 1320.7
L 1059.9 1314.25 1114.95 1312.4 1091.25 1079.2 926.9 1079.7
M 784.8 1156.95
Q 784.85 1159 785.05 1161.05 792.4 1245.3 791.7 1330.1
L 842.45 1327.4 925.4 1321.4 912.05 1138.55 784.8 1154.85
Q 784.8 1155.9 784.8 1156.95
M 750.6 1121.25
Q 751.4 1107.45 750.45 1093.55
L 641.75 1104.95
Q 656.9 1223.85 680.6 1341.3
L 780.75 1332.45
Q 784 1243.6 773.15 1155.55 748.75 1152.85 750.6 1121.25
M 1280.45 859.15
Q 1260.35 861.15 1246.9 876.3 1207.9 920.15 1208.2 978.95
L 1287.8 964.7 1280.45 859.15
M 1107.85 730.15
Q 1086.2 735.55 1065.75 745.2 994.6 779.15 961.9 848.15 931.65 911.95 927 982.9 926.25 994.35 925.55 1005.8 1007.85 1008.25 1089.55 998.7 1084.6 917.35 1127.35 848.15 1151.2 809.55 1191.15 788.1 1234.85 764.65 1284.45 761.05 1294.25 760.35 1304.1 759.65
L 1258.1 737.5
Q 1182.6 711.45 1107.85 730.15
M 921.9 733.6
Q 880.2 747.65 850.15 779.85 794.85 839 778.8 919.5 773.242578125 947.1896484375 774.15 975.45
L 775.8 975.45
Q 849.1 919.2 911.3 980.8 914.4 983.85 916.55 987.95 914.35 856.55 1009.4 776.85 1050.45 742.35 1098.65 718.4 1006.45 704.85 921.9 733.6
M 928.3 714.25
Q 871.3 717.25 817.45 735.7 751.5 758.45 708.1 816.2 657.3 883.85 640.2 966.85 634.1 996.3 629.9 1025.55 629.8 1026.4 629 1026.5
L 629.45 1028.45
Q 676.8 1017.8 724.9 1011.3 740.95 1009.35 757 1007.45 763.95 965.25 770.5 921.55 781.15 850.4 823.4 792.3 863.25 737.5 928.3 714.25
M 1320.7 1303.35
L 1299.8 1051.35 1201.4 1065.5
Q 1201.4 1072.95 1201.5 1080.45 1201.6 1087.9 1201.8 1095.35 1202.4 1116.6 1204.55 1137.9 1212.4 1216.55 1217.5 1295.45 1217.9 1301.75 1218 1308.1
L 1247.75 1307.8 1320.7 1303.35
M 1392.3 1078.05
Q 1391.15 1060.8 1390.65 1043.65
L 1307.45 1050.6
Q 1313.35 1089.95 1317.3 1129.55 1324.55 1202.35 1329.15 1275.4 1330 1288.95 1330.9 1302.55
L 1409.6 1294.25
Q 1404.55 1248.35 1401.15 1202.35 1396.5 1140.1 1392.3 1078.05
M 1298.3 962.85
L 1331.7 958.1 1379.6 953.25
Q 1378.55 899.75 1334.75 871.5 1313.85 858 1289 859.75
L 1298.3 962.85 Z"/>

<path fill="#FFCC00" stroke="none" d="
M 1195.6 1066.3
L 1150.65 1070.7
Q 1149.9 1104.6 1151.8 1138.65 1154.7 1190.1 1163.35 1240.8 1169.3 1275.75 1176.95 1310.5
L 1204.8 1308.7
Q 1200.35 1237.85 1196.5 1167.05 1193.8 1116.65 1195.6 1066.3
M 1098.75 1079.05
L 1103.5 1110 1126.95 1302.15 1126.85 1311.1 1163.3 1310.9
Q 1160.8 1297.1 1158.4 1283.3 1157.2 1276.4 1156.1 1269.5 1146.35 1207.1 1142.9 1144.25 1141 1110.05 1141.1 1075.9
L 1139.4 1075.9 1098.75 1079.05
M 641.4 1374.6
Q 641.9 1374.95 642.5 1375.25 730.35 1382.2 818.5 1371.8 887.15 1363.8 956.35 1362.05 1036.15 1358.75 1116.1 1358.55 1144.25 1358.5 1171.55 1356.6
L 1166.1 1326.8 679.7 1349.6 678.7 1351.1 635.15 1351.7 640.25 1373.95
Q 640.8 1374.3 641.4 1374.6
M 598.75 1071.3
L 600.1 1094.75
Q 667.1 1095.55 733.35 1078.15 750.7 1073.65 762.3 1083.35 765.15 1085.7 765.6 1089.5 768.7 1114.05 771.9 1138.65 821.3 1134.3 870.8 1128.75 891.7 1126.2 911.8 1119.6 909.15 1096 911.55 1072.45 911.8 1070.25 913.65 1068.95 915.6 1067.55 917.9 1067.35 921.2 1067.9 923.4 1070.3 1004.15 1061.4 1085.4 1062.1 1113.45 1062.35 1141.55 1061.7
L 1143.3 1034.55
Q 999.6 1048.75 854.95 1053.55
L 844.65 1062.15
Q 853.85 1082.6 856.6 1103.9 858.05 1115.15 845.8 1117.7 822.35 1122.45 800.05 1118.9 788.75 1117.05 791.8 1102.95 795.4 1086.25 801.5 1070.25 795.85 1067.8 791.8 1063.1 791.2 1062.35 790.7 1061.6 790.2 1060.95 789.8 1060.3 789.05 1058.95 788.3 1057.65
L 598.75 1071.3
M 600.55 1105.1
L 601.1 1112.3
Q 608.15 1184.4 618.45 1255.95 624.95 1300.95 633.9 1345.65
L 666.8 1342.6 634.7 1105.8 600.55 1105.1
M 598.35 1042.2
L 599.6 1062.85 785.9 1048.4
Q 785.95 1047.2 786.5 1046.3 816.85 997.45 862.9 1026.65 867.95 1029.8 866.25 1036.95 865.5 1040 863.95 1042.65
L 1134.35 1024 1144.2 1024.7 1146 1008.4
Q 1141.4 1009.2 1136.8 1010.05 1021.7 1028.75 910.05 1012.1 906.85 1011.55 905.85 1007.1 900.35 982.1 878.45 969.9 877.1 969.1 875.6 968.8 843.5 959.85 810.6 970.9 788.75 978.3 776.45 997.95
L 775.15 1008 772.9 1008.8
Q 772.8 1009.35 772.5 1009.75 753.1 1034.5 713.8 1028.85 699.75 1026.65 685.2 1028.25 641.4 1033.6 598.35 1042.2
M 748.8 761.65
L 748.05 760.25
Q 679.2 796.15 639.95 862.8 601.15 928.7 599.3 1005.85 598.95 1020.9 598.4 1036
L 629.45 1028.45 629 1026.5 625.65 1025.95
Q 623.05 939.15 665.95 861.75 697.8 804.2 748.8 761.65
M 1447.25 1342.85
L 1446.6 1339.35 1445.65 1309.1
Q 1379.35 1316.5 1312.65 1319.35 1246.55 1323 1180.45 1326.15
L 1187 1355.05 1447.25 1342.85
M 1438.25 1039.25
L 1398.5 1043.05 1425.6 1292 1445.2 1290.65 1440.65 1091.7 1438.25 1039.25
M 1436.55 1024.65
L 1432.45 999.05
Q 1362.25 1005.9 1292.35 1014.25 1222.5 1022.85 1152.85 1033.1
L 1151 1061.5
Q 1163.45 1060.85 1176 1059.3 1186.2 1057.95 1196.3 1056.05 1247.7 1045.95 1299.6 1038.2
L 1302.2 1035.45 1304.8 1036.85 1436.55 1024.65
M 1429.65 984.75
L 1426.1 967.7
Q 1351.7 972.45 1277.95 984.2 1216.65 993.9 1155.7 1006.7
L 1153.85 1022.55
Q 1197.2 1017.8 1240.05 1010.6 1292.85 1001.75 1345.7 994.35 1387.5 988.3 1429.65 984.75
M 1357.2 805.6
Q 1355 802.95 1352.75 800.4 1287.85 794.3 1234.65 830 1187.05 861.95 1172.45 919.25 1163.8 953.2 1158.4 988.05
L 1197.5 980.9
Q 1193.25 915.85 1238.7 870.15 1276.7 832.05 1329 854.25 1344.75 861 1357.3 872.6 1391.3 903.95 1388.8 950.35 1388.75 951.5 1388.6 952.65
L 1422.5 951.45 1410.65 906.3
Q 1394.65 850.1 1357.2 805.6
M 1330.9 779.4
L 1317.55 768.85
Q 1243.4 771.3 1183 811.7 1142.45 838.9 1122.3 883.75 1097.65 938.55 1103.75 995.95
L 1147.1 990.1
Q 1157.7 920.25 1192.5 860 1222.3 808.5 1281.2 795.7 1311.15 789.05 1341.9 789.35
L 1330.9 779.4 Z"/>
</g>

<g id="Layer18_0_FILL">
<path fill="#000000" fill-opacity="0.2" stroke="none" d="
M 765.4 1146.55
Q 762 1148.2 760.7 1150.95 758.85 1154.75 761.4 1159 763.8 1163 768.1 1164.45 771.75 1165.7 776.65 1165.3 777.0599609375 1165.269140625 777.55 1165.2 777.7693359375 1171.417578125 778.3 1177.55 778.9 1184.15 780.6 1197.25
L 783.6 1220.45
Q 784.4 1226.6 784.65 1229.7 785.1 1234.85 784.9 1239 784.8 1242.3 784.1 1247.4 783.2 1254.3 783.05 1255.8 782.55 1261.45 782.65 1272.75
L 782.95 1297.65
Q 783.05 1308.8 783.55 1314.3 783.75 1316.55 784.25 1321 784.65 1324.95 784.7 1327.7 784.7 1330.65 784.75 1331.25 784.85 1333.25 785.45 1334.65 787 1338.35 791.6 1338.95 796.2 1339.55 798.6 1336.3 800.15 1334.25 800.4 1331.05 800.6 1328.9 800.15 1325.2 798.45 1309.65 798.05 1303.45 797 1287.9 798.15 1270.9 799.2 1259.55 799.7 1253.9 800.55 1243.75 800.6 1236.9 800.65 1229.9 799.85 1221.3 799.35 1215.75 798.1 1205.75
L 793.75 1169.8
Q 793.1685546875 1165.421875 792.55 1162.75 808.6953125 1160.3546875 824.85 1160.6
L 835.5 1160.8
Q 845.1 1160.95 856.95 1160.1 864.55 1159.55 878.35 1158.15 885.95 1157.5 890.2 1156.55 894.4 1155.65 900.9 1153.4 908.65 1150.75 915.1 1148.1 916.80390625 1147.39921875 918.25 1146.7
L 919.25 1154.5
Q 920.65 1164.9 921.05 1171.2 921.55 1178.8 921 1190 920.6 1198.25 920.6 1199.85 920.55 1205.4 921.3 1209.6 921.45 1210.4 922.05 1213.35 922.5 1215.65 922.65 1217.1 922.95 1219.7 922.7 1223.35 922.55 1225.45 922.15 1229.6 921.35 1240.45 923.7 1255.6 925.05 1264.2 928.15 1281.45 930.5 1297.35 930.5 1313.2 930.5 1316.5 930.65 1318 930.95 1320.65 931.85 1322.55 932.95 1324.8 935.15 1326 937.5 1327.3 939.65 1326.55 941.85 1324.5 942.8 1320.85 943.45 1318.3 943.65 1314.1 944.65 1290.15 939.05 1266.85 937.35 1260.05 936.55 1256.65 935.15 1250.7 934.75 1246.35 934.4 1242.2 934.65 1235.3 934.95 1227.05 934.85 1224.25 934.7 1219 933.5 1210.15 932.1 1199.9 931.8 1196.1 931.35 1190.45 931.55 1178.45 931.7 1166.8 931.15 1160.75 930.95 1158.2 930.25 1152.85
L 928.9 1142.95
Q 928.3634765625 1139.306640625 927.85 1136.85 928.1041015625 1135.5982421875 928 1134.35 927.7 1131.25 925.25 1128.8 922.9 1126.45 919.6 1125.65 914.6 1124.4 906.9 1126.6 904 1127.45 898.35 1129.45 892.65 1131.45 889.75 1132.25 883.15 1134.2 874.55 1135.3 869.45 1136 859.1 1136.85 848.2 1137.7 843.4 1137.95 834.6 1138.35 827.65 1138.1 818.8 1137.55 814.35 1137.6 808.45 1137.7 797.8 1139.45 784.05 1141.75 771.95 1144.5 767.8 1145.4 765.4 1146.55
M 646.95 1095.1
Q 645.05 1094.9 643.25 1096.05 641.6 1097.15 640.6 1098.95 640.4533203125 1099.2384765625 640.3 1099.55 639.77109375 1099.55 639.2 1099.55 631.5 1099.55 628.1 1099.85 627.55 1099.9 619.65 1101.05 614.5 1101.75 611.15 1101.6 607.95 1101.35 606.35 1101.35 603.55 1101.3 601.7 1102.05 599.25 1103.05 597.85 1105.45 596.45 1107.95 597 1110.45 597.5 1112.7 599.5 1114.5 601.3 1116.1 603.75 1116.85 605.8 1117.45 608.55 1117.5 610.2 1117.5 613.4 1117.25
L 639.7 1115.35
Q 639.8271484375 1116.20859375 639.95 1117.1 640.4 1120.35 641.7 1127.5
L 671.85 1292.9
Q 675.5 1315.3 676.05 1338.05 676.15 1341.9 677.4 1344.55 678.95 1347.9 681.8 1347.75 684.5 1347.65 685.9 1344.45 686.95 1341.95 686.95 1338.3
L 686.9 1315.4
Q 686.9 1303.7 686.4 1297.6 685.6 1287.75 683.05 1280.25 682.7 1279.2 681.1 1274.95 679.85 1271.65 679.25 1269.55 678.85 1268 677.8 1262.75
L 668.7 1211.15
Q 660.247265625 1162.788671875 654.6 1114.05 654.890234375 1114.001953125 655.15 1113.95 658.1380859375 1113.34296875 660.2 1112.05 667.41484375 1110.2380859375 676.15 1109.25 683 1108.5 696.25 1107.85
L 739.95 1105.75
Q 743.6 1105.55 745.35 1105.25 748.3 1104.8 750.45 1103.7 752.95 1102.4 754.4 1100.05 755.95 1097.55 755.5 1095 754.75 1091.3 750.35 1089.45 746.9 1088.05 741.8 1087.95 701.2599609375 1087.0935546875 653.85 1098.6 652.66875 1098.74765625 651.75 1098.85 649.988671875 1095.394140625 646.95 1095.1
M 1012.55 778.05
Q 1002.7 785.15 996.7 790.1 988.2 797 982.15 803.6 969.1 817.75 959.3 838.75 952 854.4 944.55 878.6 926.15 938.85 918.05 1000.8 917.65 1003.7 917.65 1005.35 917.65 1007.8 918.4 1009.7 919.25 1011.9 921.25 1013.15 923.35 1014.5 925.4 1013.9 929.45 1012.65 930.1 1004.65 931.45 988.4 935 968.2 937.1 956.35 942.15 932.1 945.4 916.6 947.3 908.95 950.4 896.15 953.9 886.2 957.7 875.55 966.9 855.6 973.1 842.2 976.7 835.6 982.7 824.7 989.2 817.25 994.65 811 1002.75 804.45 1007.65 800.45 1017.75 793.25 1041.25 776.55 1053.3 768.8 1073.45 755.8 1090.85 747.8 1096.25 745.35 1111.95 738.9 1125.25 733.5 1132.9 729.65 1135.8 728.2 1137.35 727.05 1139.65 725.4 1140.75 723.4 1142.05 721.05 1141.5 718.35 1140.9 715.55 1138.6 714.6 1136.7 713.8 1132.8 714.85 1102.45 723.15 1070.05 740.95 1044.4 755.05 1012.55 778.05
M 944.25 731.75
Q 959.1 725.15 968.15 719.4 970.75 717.8 972.25 716.5 974.3 714.7 975.4 712.75 976.7 710.45 976.6 707.9 976.5 705.2 974.8 703.5 970.95 699.6 961.55 703.85 935.6 715.5 922.8 721.8 901.55 732.25 885.5 742.35 844.75 768 823.25 799.8 817.45 808.4 808 825.95 794.05 851.95 787.5 866.55 777.15 889.5 772.65 909.25 768.95 925.5 767.9 944.45 767 960.4 767.95 980.1 768.15 984.85 769.45 987 770.45 988.55 772.2 989.3 774.05 990.05 775.55 989.3 777.75 983.45 778.15 974.85 778.2 964.9 778.35 959.95 778.5 952.3 780.3 939.75 786.9 895.25 803.45 864.75 805.6 860.8 810.55 852.5 815.35 844.55 817.65 840.2 822.6 830.45 825.1 825.6 829.55 816.85 833.3 811.45 837.25 805.75 842.9 799.8 847.2 795.25 853.8 789.3 887.65 758.5 919.6 742.8 921.55 741.85 944.25 731.75
M 763.3 747.25
Q 755.25 753.75 740.45 768.25 719.55 788.85 709.8 799.8 693.5 818.1 683.6 834.9 678.45 843.65 673.1 855.35 670.15 861.7 663.95 876.5 645.25 921.35 638 945.8 626.4 985.2 627.5 1017.95 627.7 1023.45 629.4 1027.2 631.6 1031.95 635.7 1032.5 638.5 1032.85 641.15 1030.95 643.55 1029.15 644.8 1026.3 645.8 1023.9 646.1 1020.55 646.25 1018.9 646.3 1014.6 646.55 986 657 951.7 663.35 930.75 679.6 891.15 686.05 875.45 689.75 867.25 695.75 854.1 701.65 844.15 711.1 828.25 726.3 810.75 735.4 800.3 754.8 780.35 767.65 767.2 774.55 760.8 785.85 750.3 796.05 743.25 807.8 735.1 823.1 728.1 825.6 727 826.85 726.1 828.7 724.75 829.35 723.05 830.45 720.25 828.2 717.5 826 714.85 822.8 714.45 820 714.15 816.75 715.3 814.65 716.05 811.05 717.95 794.4 726.85 786.45 731.55 773 739.5 763.3 747.25
M 1405.5 860.35
Q 1396.7 840.45 1385.45 825.9 1370.05 805.95 1352.15 799.6 1342.95 796.4 1331.25 796.25 1322.35 796.15 1309.8 797.9 1251.1 806.3 1217.7 835.35 1195.15 854.95 1180.3 887.4 1168.65 912.85 1160.4 949.9 1151.7650390625 988.91171875 1147.85 1028.65
L 1147.85 1028.65
Q 1144.6 1027.2 1140.1 1026.95 1137.3 1026.8 1132 1027.2
L 601.2 1067.05
Q 597.25 1067.35 594.65 1068.75 591.3 1070.5 591.45 1073.45 591.55 1076.15 594.65 1077.7 597.05 1078.95 600.65 1079.25 636.25 1082.4 681.65 1080.2 705.35 1079 762.65 1073.9 950.5 1057.15 1138.15 1049.35 1142.9216796875 1049.1208984375 1146.25 1048.25 1146.1265625 1050.29921875 1146 1052.35 1145.41875 1061.9443359375 1145.1 1071.5 1143.4330078125 1070.3576171875 1141.35 1069.75 1138.4 1068.9 1134.35 1069.05 1132.8 1069.1 1127.3 1069.7 1121.45 1070.4 1114.1 1070.85 1109.75 1071.1 1100.9 1071.45
L 1090.3 1071.85
Q 1089.7037109375 1071.4333984375 1089 1071.1 1086.35 1069.9 1081.2 1069.7 1067.05 1069.5 1060 1068.9 1057.1 1068.65 1052.4 1068.1 1046.35 1067.3 1044.8 1067.15 1035.97734375 1066.252734375 1018.3 1066.05 1016.9255859375 1065.507421875 1015.35 1065.2 1004.3 1063 987.05 1066.3
L 987 1066.3
Q 973.6 1066.95 957.05 1069.1 949.6705078125 1070.0498046875 937.15 1072 932.5232421875 1072.407421875 929.05 1073.25 928.9736328125 1073.2814453125 928.9 1073.3 928.0828125 1073.4169921875 927.25 1073.55 925.15 1073.9 924.1 1074.25 922.45 1074.8 921.5 1075.85 920.4357421875 1077.01796875 920.3 1078.45 919.6251953125 1079.623046875 919.35 1080.95 918.951171875 1081.4787109375 918.65 1082.1 917.85 1083.8 918.45 1085.4 919.6 1088.3 925.55 1088.6
L 973.55 1091.05
Q 986.6 1091.7 993.1 1091.9 1004 1092.25 1012.65 1092.1 1019.45 1091.95 1037.7 1090.85 1053.5 1089.85 1062.75 1089.9 1064.15 1089.9 1099.05 1091.6 1120.85 1092.65 1135.15 1090.45 1141.25 1089.5 1144.45 1087.6 1144.6287109375 1087.4927734375 1144.8 1087.35 1144.5373046875 1121.71171875 1147.85 1155.8 1149.9 1177 1153.95 1203.3 1156.35 1219.2 1161.75 1250.55
L 1176.6 1337.2
Q 1178.15 1346.1 1179.75 1350.75 1182.3 1358.05 1186.8 1362.2 1191.2 1366.25 1198.3 1368.25 1203.2 1369.6 1211.6 1370.35 1288.1 1377.25 1363.25 1361.45 1374.85 1359.05 1397.95 1353.85 1418.15 1349.7 1433.05 1349.05 1443.85 1348.55 1447.75 1347.8 1455.85 1346.2 1460.2 1341.55 1464.2 1337.25 1465.35 1329.95 1466.15 1325.2 1465.85 1316.65
L 1462.9 1243.25
Q 1458.3 1127.35 1452.2 1068.75 1442.05 972.25 1419.25 898.1 1412.4 875.85 1405.5 860.35
M 1296.8 900.2
L 1296.3 900.2
Q 1295.75 899.25 1295.75 897.4
L 1295.75 891.55
Q 1296.4 891.8 1296.3 892.95 1296.3 894.85 1296.35 895.2
L 1296.65 896.75
Q 1296.9 897.9 1296.8 900.2 Z"/>
</g>
</defs>

<g transform="matrix( 1, 0, 0, 1, 0,0) ">
<use xlink:href="#Layer19_0_FILL"/>
</g>

<g transform="matrix( 1, 0, 0, 1, 0,0) ">
<use xlink:href="#Layer18_0_FILL"/>
</g>
</svg>
