
<svg xmlns="http://www.w3.org/2000/svg" version="1.1" xmlns:xlink="http://www.w3.org/1999/xlink" preserveAspectRatio="none" x="0px" y="0px" width="2000px" height="2000px" viewBox="0 0 2000 2000">
<defs>
<g id="Layer5_0_FILL">
<path fill="#000000" stroke="none" d="
M 640.05 1002.45
Q 631.2 1002.95 615.65 1005.05 598.45 1007.35 591.3 1007.95 580.25 1008.85 545.15 1008.95 516.35 1008.95 499.25 1012 496.45 1012.5 494.6 1013.85 492.3 1015.5 492.9 1017.6 493.55 1019.9 497.65 1020.85 498.09296875 1020.9560546875 498.55 1021.05
L 498.55 1075.35
Q 498.55 1082.629296875 499.25 1086.85 497.755859375 1087.4177734375 496.6 1088.25 494.55 1089.7 493.4 1092 492.2 1094.3 492.25 1096.75 492.3 1099.25 493.5 1101.5 494.75 1103.75 496.8 1105.15 497.7767578125 1105.8244140625 498.95 1106.3 500.5318359375 1108.7521484375 503.65 1110.6 507.9 1113.1 514.45 1114.2 519.0384765625 1114.936328125 526.25 1115.65
L 527.45 1136
Q 528.05 1147.6 529.4 1153.65 532.3 1166.75 540.65 1174.65 545.15 1178.9 550.85 1181 556.8 1183.2 562.65 1182.45 568.35 1181.75 574.55 1178.05 578.5 1175.7 585.1 1170.4 587 1179.85 592.65 1187.05 598.8 1194.8 607.25 1197.15 613.05 1198.75 619.5 1197.55 625.5 1196.45 631.05 1193.15 640.6 1187.35 647.9 1175.35 651.3 1179.1 653.6 1181.25 656.85 1184.3 660.05 1186.2 663.75 1188.4 667.7 1189.15 672 1189.95 675.75 1188.85 681 1187.35 684.95 1182.3 688.3 1178 690.25 1171.75 692.5 1164.4 693.1 1154.8 693.45 1148.9 693.2 1137.5
L 692.9 1123.15
Q 692.8830078125 1122.1837890625 692.8 1121.25 697.4078125 1121.0255859375 701.85 1120.7 705.8 1120.4 708 1119.9 711.35 1119.1 713.45 1117.3 715.95 1115.15 717.15 1111.2 718.05 1108.45 718.45 1103.9 720.95 1077.55 718.8 1047.05 717.05 1022 711.8 990.5 709.95 979.45 708.3 972.95 705.8 963.45 702.05 956.35 700.65 953.75 698.9 952.35 696.7 950.6 694.6 951.3 692.25 952.05 691.65 955.15 691.2 957.55 691.9 960.85
L 695.5 978.7
Q 698.543359375 993.5826171875 700.25 1003.05 697.7771484375 1002.322265625 694.75 1002.1 692.05 1001.9 684.95 1002.1 678.45 1002.3 662.5 1002.15 648.15 1002 640.05 1002.45
M 503.6 1022
Q 510.3771484375 1023.14296875 519.45 1023.75 547.4 1025.7 606.65 1023.7 663.9 1021.8 693.8 1024.3 699.15 1024.75 702.2 1024.25 702.8404296875 1024.153515625 703.4 1024 704.40078125 1032.1857421875 704.8 1039.45 705.5 1053.4 704.45 1070.75 703.75 1081.6 701.7 1101.95 681.8 1102.2 657.1 1100.6 641.75 1099.6 612.6 1096.9
L 524.6 1088.8
Q 524.205859375 1088.276171875 523.7 1087.75 521.2 1085.1 517.9 1084.6 516.4 1084.4 514.35 1084.65 512 1084.95 510.8 1085.1 505.8 1085.5 503.35 1085.85 503.2296875 1085.8669921875 503.1 1085.85
L 503.6 1022
M 543.2 1118.95
Q 543.0728515625 1117.9626953125 542.9 1117 594.07734375 1120.7376953125 620.35 1121.7 649.7498046875 1122.7697265625 675.25 1122 675.2150390625 1123.8728515625 675.35 1128.1 676.4 1153.9 670.2 1171.65 666.95 1170.65 664.4 1167.7 662.15 1165.15 660.7 1161.5 659.75 1159 658.65 1154.6 657.35 1149.45 656.75 1147.6 655.2 1143.05 652.85 1140.75 651.35 1139.3 649.45 1138.65 647.45 1137.95 645.55 1138.4 641.15 1139.45 638.45 1147 638.35 1147.35 635.6 1156.4 633.85 1162.05 632.2 1165.6 629.95 1170.4 626.65 1173.7 622.95 1177.5 618.5 1178.8 612.85 1180.5 608.8 1177.75 605.65 1175.6 603.5 1169.5 601.15 1162.7 600.4 1155.55 600 1151.05 599.7 1148.85 599.2 1145 598.05 1142.4 596.55 1139.15 593.75 1137.25 590.7 1135.15 587.55 1135.8 583.9 1136.55 581.3 1140.95 579.8 1143.5 577.5 1149.2 573.9 1157.1 566.55 1161.9 563.65 1163.8 560.85 1164.4 557.5 1165.15 554.9 1163.95 551.75 1162.5 549 1157.25 543.65 1146.65 543.35 1134.8 543.3 1133.35 543.45 1126.85 543.6 1122 543.2 1118.95
M 1471.5 964.9
Q 1469 964.7 1465.15 964.95 1457.3 965.55 1443.5 968 1428.3 970.7 1421.9 971.4 1417.35 971.9 1410.6 972.35 1403.1 972.85 1399.3 973.1 1357.1 975.95 1309.7 988.4 1305.7833984375 989.44609375 1302.45 990.35
L 1303.35 981.95
Q 1304.05 975 1304.05 971.4 1304 965.55 1302.5 961.15 1301 957 1298.4 956.25 1295.7 955.55 1293.45 958.35 1291.6 960.65 1290.75 964.2 1288.3 974.6 1286.5 987.85 1285.4 995.8 1283.75 1011.8 1282.45 1024.5 1282.55 1031 1282.65 1035.35 1284.4 1050.2 1285.8 1062.1 1285.1 1069.35 1284.5 1076.05 1284.55 1077.55 1284.7 1082.15 1286.95 1084.8 1289.992578125 1088.303515625 1297.55 1088.65 1296.0205078125 1093.3099609375 1295.1 1097.2 1293.05 1105.6 1293.1 1112.9 1293.15 1121.3 1296 1128.6 1299.1 1136.55 1304.9 1141.5 1309.65 1145.65 1315.9 1147.4 1322.15 1149.15 1328.35 1148.1 1334.55 1147.05 1339.9 1143.35 1345.25 1139.65 1348.3 1134.2 1349.65 1134.45 1350.7 1135.9 1351.3 1136.7 1352.2 1138.75 1354.6 1143.9 1359.05 1147.7 1363.55 1151.5 1369 1153.05 1374.45 1154.6 1380.25 1153.7 1386.05 1152.8 1390.8 1149.65 1394.5 1147.2 1398.1 1142.95 1400.2 1140.4 1404.05 1134.9 1410.55 1144.25 1417.6 1148.3 1421.95 1150.8 1426.65 1151.5 1431.7 1152.2 1436.1 1150.6 1439.85 1149.25 1443.35 1146.05 1446.1 1143.5 1449.1 1139.4 1461.2 1122.65 1464.5 1102.1 1465.1 1098.3 1465.8 1090.8
L 1466.8 1079.7
Q 1466.9412109375 1078.3353515625 1467 1077.15 1467.40546875 1077.10390625 1467.75 1077.05 1472.75 1076.25 1476.15 1074 1480.15 1071.4 1481.55 1066.7 1483 1061.75 1480.2 1058.35 1479.7767578125 1057.8306640625 1479.25 1057.35 1479.6505859375 1056.2416015625 1479.3 1054.3 1473.4466796875 1018.2833984375 1471.8 981.75 1475.2021484375 981.3283203125 1477.2 980.5 1480.15 979.35 1481.35 977.2 1482.85 974.55 1481.5 971.35 1480.25 968.25 1477.4 966.65 1474.95 965.25 1471.5 964.9
M 1419.1 986.75
L 1436.1 985.35
Q 1455.54765625 983.70546875 1467.05 982.35 1468.65703125 1018.35390625 1473.95 1054.3 1474.0009765625 1054.6482421875 1474.05 1054.95 1473.865234375 1054.937109375 1473.65 1054.9 1470.7 1054.35 1465.75 1054.7
L 1438.55 1056.6
Q 1403 1059 1381.1 1060.9 1341.45 1064.3 1301.05 1069.7 1302.1 1061.9 1300.75 1049.1 1299.1 1033.15 1299.1 1028.4 1299.1 1023.05 1300.2 1012.35
L 1301.3 1001.85
Q 1312.68046875 1000.644921875 1330.75 997.65 1354.15 993.75 1360.15 992.9 1373.2 991 1389.55 989.4 1399.4 988.4 1419.1 986.75
M 1393.1 1080
Q 1415.5521484375 1078.7181640625 1445.6 1077.95 1444.8953125 1084.6693359375 1443.95 1095.25 1442.3 1107.85 1438.45 1116.1 1436.55 1120.15 1432.4 1126.45 1430.25 1129.75 1428.15 1129.95 1425.65 1130.15 1423.3 1126.65 1417.8 1118.9 1415.95 1109.3 1415.3 1105.2 1414.85 1103.2 1414.05 1099.75 1412.55 1097.65 1409.9 1093.95 1404.8 1093.55 1399.7 1093.15 1396.65 1096.45 1395 1098.25 1393.95 1101.3 1393.55 1102.3 1392.4 1106.8 1389.95 1116.45 1384.9 1125.4 1380.35 1133.3 1375 1132.7 1370.3 1132.05 1367.55 1125.1 1365.25 1118.9 1365.15 1112.6 1365.3 1108 1365.25 1105.7 1365.1 1101.75 1363.85 1099.15 1361.85 1094.95 1356.85 1093.6 1351.85 1092.3 1348 1094.9 1345.1 1096.85 1343 1101.15 1341.8 1103.65 1339.85 1108.95 1337.3 1115.25 1333.1 1120.55 1330.6 1123.7 1327.95 1125.3 1324.6 1127.3 1321.55 1126.55 1318.75 1125.9 1316.8 1123.05 1315.15 1120.6 1314.5 1117.2 1313.55 1112.05 1314.7 1105.5 1315.35 1101.85 1317.6 1093.9 1318.78125 1089.8564453125 1319.15 1087.2 1322.67578125 1086.7671875 1327.95 1086.05 1357.65 1082.05 1393.1 1080 Z"/>

<path fill="#85BE98" stroke="none" d="
M 542.9 1117
Q 543.0728515625 1117.9626953125 543.2 1118.95 543.6 1122 543.45 1126.85 543.3 1133.35 543.35 1134.8 543.65 1146.65 549 1157.25 551.75 1162.5 554.9 1163.95 557.5 1165.15 560.85 1164.4 563.65 1163.8 566.55 1161.9 573.9 1157.1 577.5 1149.2 579.8 1143.5 581.3 1140.95 583.9 1136.55 587.55 1135.8 590.7 1135.15 593.75 1137.25 596.55 1139.15 598.05 1142.4 599.2 1145 599.7 1148.85 600 1151.05 600.4 1155.55 601.15 1162.7 603.5 1169.5 605.65 1175.6 608.8 1177.75 612.85 1180.5 618.5 1178.8 622.95 1177.5 626.65 1173.7 629.95 1170.4 632.2 1165.6 633.85 1162.05 635.6 1156.4 638.35 1147.35 638.45 1147 641.15 1139.45 645.55 1138.4 647.45 1137.95 649.45 1138.65 651.35 1139.3 652.85 1140.75 655.2 1143.05 656.75 1147.6 657.35 1149.45 658.65 1154.6 659.75 1159 660.7 1161.5 662.15 1165.15 664.4 1167.7 666.95 1170.65 670.2 1171.65 676.4 1153.9 675.35 1128.1 675.2150390625 1123.8728515625 675.25 1122 649.7498046875 1122.7697265625 620.35 1121.7 594.07734375 1120.7376953125 542.9 1117
M 1445.6 1077.95
Q 1415.5521484375 1078.7181640625 1393.1 1080 1357.65 1082.05 1327.95 1086.05 1322.67578125 1086.7671875 1319.15 1087.2 1318.78125 1089.8564453125 1317.6 1093.9 1315.35 1101.85 1314.7 1105.5 1313.55 1112.05 1314.5 1117.2 1315.15 1120.6 1316.8 1123.05 1318.75 1125.9 1321.55 1126.55 1324.6 1127.3 1327.95 1125.3 1330.6 1123.7 1333.1 1120.55 1337.3 1115.25 1339.85 1108.95 1341.8 1103.65 1343 1101.15 1345.1 1096.85 1348 1094.9 1351.85 1092.3 1356.85 1093.6 1361.85 1094.95 1363.85 1099.15 1365.1 1101.75 1365.25 1105.7 1365.3 1108 1365.15 1112.6 1365.25 1118.9 1367.55 1125.1 1370.3 1132.05 1375 1132.7 1380.35 1133.3 1384.9 1125.4 1389.95 1116.45 1392.4 1106.8 1393.55 1102.3 1393.95 1101.3 1395 1098.25 1396.65 1096.45 1399.7 1093.15 1404.8 1093.55 1409.9 1093.95 1412.55 1097.65 1414.05 1099.75 1414.85 1103.2 1415.3 1105.2 1415.95 1109.3 1417.8 1118.9 1423.3 1126.65 1425.65 1130.15 1428.15 1129.95 1430.25 1129.75 1432.4 1126.45 1436.55 1120.15 1438.45 1116.1 1442.3 1107.85 1443.95 1095.25 1444.8953125 1084.6693359375 1445.6 1077.95 Z"/>

<path fill="#7A5050" stroke="none" d="
M 519.45 1023.75
Q 510.3771484375 1023.14296875 503.6 1022
L 503.1 1085.85
Q 503.2296875 1085.8669921875 503.35 1085.85 505.8 1085.5 510.8 1085.1 512 1084.95 514.35 1084.65 516.4 1084.4 517.9 1084.6 521.2 1085.1 523.7 1087.75 524.205859375 1088.276171875 524.6 1088.8
L 612.6 1096.9
Q 641.75 1099.6 657.1 1100.6 681.8 1102.2 701.7 1101.95 703.75 1081.6 704.45 1070.75 705.5 1053.4 704.8 1039.45 704.40078125 1032.1857421875 703.4 1024 702.8404296875 1024.153515625 702.2 1024.25 699.15 1024.75 693.8 1024.3 663.9 1021.8 606.65 1023.7 547.4 1025.7 519.45 1023.75
M 1436.1 985.35
L 1419.1 986.75
Q 1399.4 988.4 1389.55 989.4 1373.2 991 1360.15 992.9 1354.15 993.75 1330.75 997.65 1312.68046875 1000.644921875 1301.3 1001.85
L 1300.2 1012.35
Q 1299.1 1023.05 1299.1 1028.4 1299.1 1033.15 1300.75 1049.1 1302.1 1061.9 1301.05 1069.7 1341.45 1064.3 1381.1 1060.9 1403 1059 1438.55 1056.6
L 1465.75 1054.7
Q 1470.7 1054.35 1473.65 1054.9 1473.865234375 1054.937109375 1474.05 1054.95 1474.0009765625 1054.6482421875 1473.95 1054.3 1468.65703125 1018.35390625 1467.05 982.35 1455.54765625 983.70546875 1436.1 985.35 Z"/>
</g>
</defs>

<g transform="matrix( 1, 0, 0, 1, 0,0) ">
<use xlink:href="#Layer5_0_FILL"/>
</g>
</svg>
