
<svg xmlns="http://www.w3.org/2000/svg" version="1.1" xmlns:xlink="http://www.w3.org/1999/xlink" preserveAspectRatio="none" x="0px" y="0px" width="2000px" height="2000px" viewBox="0 0 2000 2000">
<defs>
<g id="Layer4_0_FILL">
<path fill="#000000" stroke="none" d="
M 1186.35 775.95
Q 1173.55 772.75 1155.6 770.8 1109.05 765.75 1051.4 769.45 1013.5 771.9 947.3 780.45 895.45 787.2 865.2 792.25 820.1 799.75 784.1 809.2 779.15 810.5 776 813.25 772.2 816.55 773.7 820.2 774.95 823.2 779.05 823.75 782.25 824.15 786.5 823.1 870.1 803.1 955.85 794.25 1041.6 785.35 1127.55 787.75 1170.65 788.95 1171.4 788.95 1196.45 789.15 1215.15 787.05 1202.75 780.05 1186.35 775.95
M 853.45 593.25
Q 835.55 590.3 821.45 591.2 810.75 591.9 795.6 595.3 778.55 599.5 770 601.3 764.1 602.55 745.6 605.65 730.4 608.25 721.35 610.55 693.1 617.8 677.9 633.05 665.75 645.2 661.2 662.75 656.75 680.1 661.15 696.95 665.5 713.55 677.7 726.85 689.75 739.95 706 746.15 716 750 728.7 751.55 738.4 752.75 752.2 752.85 790.05 753 827.55 746.45 865.05 739.85 900.6 726.85 911.55 722.8 918.6 719.35 928.15 714.65 935 709 942.95 702.55 947.85 694.35 953.15 685.45 953.75 676.1 954.4 666.95 950.5 657.2 947.15 648.75 940.65 640.3 925.9 621.2 901.8 608.85 880.15 597.75 853.45 593.25
M 789.15 622.45
Q 797.8 621.9 801.95 621.45 802.9 621.35 813 619.9 819.7 618.95 824.1 618.8 830.6 618.6 838.25 619.75 843.95 620.55 852.25 622.5 864.1 625.25 872.6 628.1 883.45 631.65 892 636.25 901.8 641.5 909.25 648.45 917.35 656 922.05 665 925.15 670.9 924.65 675.1 924.15 679.05 920.85 682.65 918.3 685.35 913.8 688.15 900.75 696.25 883.65 702.3 870.3 707 851.4 711.45 822.55 718.25 797.45 721.15 768.7 724.5 742.9 723.05 725.6 722.15 714.75 718.2 707.05 715.4 700.7 710.65 694.05 705.65 689.75 699.15 685.25 692.35 683.8 684.4 682.25 676.2 684.25 668.6 686.7 659.5 694.05 651.85 700.7 644.95 710.25 640.3 717.95 636.55 728.85 633.7 731.5 632.95 748.2 629.15 752.9 628.1 762.2 625.95 770.35 624.2 776.35 623.45 780.7 622.95 789.15 622.45
M 741.45 662.2
Q 737.85 662.05 734.75 662.95 731.3 664 729 666.2 726.35 668.75 725.25 672.8 724.3 676.35 724.6 680.6 725.15 687.3 728.5 690.3 730.15 691.8 732.75 692.6 734.6 693.2 737.65 693.6 740.95 694.05 742.95 694.05 745.85 694.05 748.1 693.25 752.15 691.85 754.75 687.85 757.2 684 757.4 679.45 757.65 674.7 755.45 670.45 753.15 666.05 749.1 664 745.9 662.35 741.45 662.2
M 1351.2 630.25
Q 1348.5 618.3 1340.6 608.55 1326.8 591.6 1300 583.1 1275.8 575.45 1244.1 575.8 1223.8 576 1187.1 580.55 1150.05 585.2 1130 590.9 1099.1 599.65 1079.7 616.55 1071.55 623.65 1066.65 631.4 1060.9 640.4 1060 649.6 1058.75 662 1065.95 674.05 1072.7 685.25 1084.3 692.35 1094.35 698.55 1108.2 701.9 1118.5 704.45 1133.9 705.95 1174.75 709.95 1215.85 706.35 1257 702.8 1296.55 691.75 1306.25 689.05 1312.8 686.55 1321.5 683.3 1328.15 679.2 1335.8 674.55 1341.3 668.4 1347.35 661.7 1350.1 654 1354.05 642.9 1351.2 630.25
M 1313.55 628.15
Q 1319.55 633.95 1319.1 639.35 1318.75 643.15 1314.85 647.6 1306.35 657.25 1291.6 663.15 1281.4 667.25 1263.8 670.9 1222.7 679.25 1190.3 680.95 1150.4 683.05 1116.9 675.65 1107.55 673.55 1101.6 670.9 1093.6 667.25 1089.1 661.6 1085.3 656.9 1085.65 652.4 1085.9 648.95 1089.2 644.4 1100.75 628.85 1124.1 619.8 1132.5 616.55 1144.7 613.35 1151.7 611.5 1165.7 608.05 1174.95 605.6 1178.35 604.95 1185.5 603.5 1191.2 603.65 1194.6 603.75 1199.85 604.65 1207.05 605.85 1208.45 606 1212.1 606.5 1216.95 606.7 1218.4 606.75 1225.5 606.95 1246.05 607.45 1262.6 609.4 1282.65 611.8 1295.6 617.05 1306.6 621.45 1313.55 628.15
M 1261.45 634.4
Q 1260.15 631.1 1257.55 629.1 1254.5 626.7 1249.5 626.1 1244.05 625.4 1239.1 627.25 1233.8 629.25 1231.25 633.55 1229.25 637 1229.1 641.65 1228.9 645.35 1230.2 647.7 1231.7 650.5 1235.9 652.6 1242.9 655.95 1249.35 654.9 1252.85 654.35 1255.8 652.4 1258.85 650.45 1260.6 647.5 1262.25 644.45 1262.5 641.05 1262.75 637.6 1261.45 634.4 Z"/>

<path fill="#FFFFFF" stroke="none" d="
M 801.95 621.45
Q 797.8 621.9 789.15 622.45 780.7 622.95 776.35 623.45 770.35 624.2 762.2 625.95 752.9 628.1 748.2 629.15 731.5 632.95 728.85 633.7 717.95 636.55 710.25 640.3 700.7 644.95 694.05 651.85 686.7 659.5 684.25 668.6 682.25 676.2 683.8 684.4 685.25 692.35 689.75 699.15 694.05 705.65 700.7 710.65 707.05 715.4 714.75 718.2 725.6 722.15 742.9 723.05 768.7 724.5 797.45 721.15 822.55 718.25 851.4 711.45 870.3 707 883.65 702.3 900.75 696.25 913.8 688.15 918.3 685.35 920.85 682.65 924.15 679.05 924.65 675.1 925.15 670.9 922.05 665 917.35 656 909.25 648.45 901.8 641.5 892 636.25 883.45 631.65 872.6 628.1 864.1 625.25 852.25 622.5 843.95 620.55 838.25 619.75 830.6 618.6 824.1 618.8 819.7 618.95 813 619.9 802.9 621.35 801.95 621.45
M 734.75 662.95
Q 737.85 662.05 741.45 662.2 745.9 662.35 749.1 664 753.15 666.05 755.45 670.45 757.65 674.7 757.4 679.45 757.2 684 754.75 687.85 752.15 691.85 748.1 693.25 745.85 694.05 742.95 694.05 740.95 694.05 737.65 693.6 734.6 693.2 732.75 692.6 730.15 691.8 728.5 690.3 725.15 687.3 724.6 680.6 724.3 676.35 725.25 672.8 726.35 668.75 729 666.2 731.3 664 734.75 662.95
M 1319.1 639.35
Q 1319.55 633.95 1313.55 628.15 1306.6 621.45 1295.6 617.05 1282.65 611.8 1262.6 609.4 1246.05 607.45 1225.5 606.95 1218.4 606.75 1216.95 606.7 1212.1 606.5 1208.45 606 1207.05 605.85 1199.85 604.65 1194.6 603.75 1191.2 603.65 1185.5 603.5 1178.35 604.95 1174.95 605.6 1165.7 608.05 1151.7 611.5 1144.7 613.35 1132.5 616.55 1124.1 619.8 1100.75 628.85 1089.2 644.4 1085.9 648.95 1085.65 652.4 1085.3 656.9 1089.1 661.6 1093.6 667.25 1101.6 670.9 1107.55 673.55 1116.9 675.65 1150.4 683.05 1190.3 680.95 1222.7 679.25 1263.8 670.9 1281.4 667.25 1291.6 663.15 1306.35 657.25 1314.85 647.6 1318.75 643.15 1319.1 639.35
M 1257.55 629.1
Q 1260.15 631.1 1261.45 634.4 1262.75 637.6 1262.5 641.05 1262.25 644.45 1260.6 647.5 1258.85 650.45 1255.8 652.4 1252.85 654.35 1249.35 654.9 1242.9 655.95 1235.9 652.6 1231.7 650.5 1230.2 647.7 1228.9 645.35 1229.1 641.65 1229.25 637 1231.25 633.55 1233.8 629.25 1239.1 627.25 1244.05 625.4 1249.5 626.1 1254.5 626.7 1257.55 629.1 Z"/>
</g>
</defs>

<g transform="matrix( 1, 0, 0, 1, 0,0) ">
<use xlink:href="#Layer4_0_FILL"/>
</g>
</svg>
