
<svg xmlns="http://www.w3.org/2000/svg" version="1.1" xmlns:xlink="http://www.w3.org/1999/xlink" preserveAspectRatio="none" x="0px" y="0px" width="2000px" height="2000px" viewBox="0 0 2000 2000">
<defs>
<g id="Layer5_0_FILL">
<path fill="#000000" stroke="none" d="
M 1244.65 749.9
L 1242.55 753.3
Q 1242.4 756.35 1243.75 758.95 1248.35 768.1 1247.8 777.95 1246.65 798.05 1228.05 804.75 1217.1 808.8 1205.35 808.4 1196.25 807.6 1193.8 814.15 1194.05 814.75 1194.5 815.3 1196.8 818.05 1200.75 818.35 1217.4 820.25 1232.55 813.9 1259.9 802.55 1258.3 773.25 1257.4 757.05 1244.65 749.9
M 1026.2 625.65
Q 1026.6 631.7 1028.8 637.2 1033.7 649.4 1044.4 653.4
L 1032.75 626.8 1034.65 619.8 1031 617.7 1026.2 625.65
M 944.15 631.5
Q 943.75 632.25 943.95 632.5 949.65 639.4 952.05 648.05 954 655.05 957.2 661
L 957.45 659.7
Q 959.4 649.85 955.9 640 952.35 630.1 944.15 631.5
M 803.2 748.85
Q 785.25 766.1 789.45 789.95 790.65 796.7 795.5 801.5 816.55 822.6 846.6 814.5 886.05 803.7 924.7 789.8 947.35 783.5 970.85 781 1011.05 777.15 1051.35 780.6 1094.05 784.55 1136.6 790.6 1159.4 793.6 1182.15 796.8 1202.9 799.85 1217.55 786.1 1222.85 781.05 1222.15 773.8 1220.7 758.35 1209.2 747.55 1178.35 718.7 1135.95 712 1096.5 705.6 1056.65 710.75 1014.3 715.85 971.6 718.3 966.55 718.6 961.7 717.85 919.55 710.35 876.45 715.05 833.75 719.45 803.2 748.85
M 828.8 745.25
L 873.55 791.45
Q 863.15 794.9 852.75 798.05 833.6 803.95 814.2 800.3 810.5 799.75 808.05 797.1 793.2 781.1 807.9 762.45
L 828.8 745.25
M 836.2 739.75
L 862.2 730.45 901.3 726.45 925 774.3 882.8 787.7 836.2 739.75
M 948.05 734.65
L 961.65 736.1 966.65 765.1 930.85 772.55 909.4 726.85 948.05 734.65
M 1018.15 730.7
Q 1017.4 734.4 1018.4 738.05 1019.35 741.55 1018.8 745.25 1017.35 755.55 1023.35 763.7
L 1006.05 763.4 972.95 763.9 968 734.05 1018.15 730.7
M 1026.75 763.3
L 1028.7 760.7 1023.8 729.65 1071.95 724.35 1086 769 1069.1 767.1 1026.75 763.3
M 1092.45 769.75
L 1076.2 723.85
Q 1108.15 721.75 1139.2 729.85
L 1137.65 774.35 1132.55 774.7 1092.45 769.75
M 1206.8 775.4
L 1196 779.95 1146.2 775 1146.15 731.4
Q 1169.15 735.95 1188.1 749.75 1202.35 760.05 1206.8 775.4
M 762.95 750.75
Q 759.55 750.15 757.75 753.4 742.45 781.2 757.9 809.1 773.45 837.3 804.65 838.4
L 810.45 833.9
Q 810.6 832.6 809.45 832 797.35 826.25 785.35 820.05 764.55 809.45 759.7 787.1 755.9 769.45 764.5 753.2
L 762.95 750.75
M 662 649.35
Q 659.2 653.6 660.15 658.45 665.45 685.6 692.15 694.4 741.05 710.3 792.7 710.85 802.35 710.95 812 710.65 871.85 708.95 924.7 680.25 932.1 676.3 936.25 669.1 944.75 654.5 930.4 645.5 908.75 632 883.1 627.65 860.7 623.85 838.3 620.55
L 914.65 622.2
Q 902.9 616.3 887.9 615.3 859.75 614.05 831.55 615.25 800.4 617.2 769.35 617.2 726.75 617.25 686.6 631.8 670.8 636.05 662 649.35
M 744.05 629.7
Q 746.75 633.05 751.2 632.85 769.05 631.45 786.95 631.05 846.1 629.7 902.9 646.15 915.55 649.7 921.8 654.55 920.6 655.45 919.3 656.25 906.2 663.6 891.2 665.8 838.8 673.35 785.85 670.85 734.75 669.65 684.55 661.85 674 660.4 670.1 653.65
L 680.65 644.8
Q 695.6 638.2 711.3 633.6 728.7 628.6 744.05 629.7
M 671.75 671.25
Q 672.45 671.5 673.2 671.75 714.85 681.1 757.65 682.45 798.15 684.7 838.7 684.55 879.85 684.4 918.4 671.3
L 925 667.95
Q 894.1 687.9 857.9 695.9 796.65 709.55 734.95 697.5 724.15 695.55 713.1 694.05 687.75 690.15 671.75 671.25
M 747.35 646.65
Q 745.15 644.45 742 644.45 738.85 644.45 736.65 646.65 734.45 648.85 734.45 651.95 734.45 655.05 736.65 657.25 738.85 659.45 742 659.45 745.15 659.45 747.35 657.25 749.55 655.05 749.55 651.95 749.55 648.85 747.35 646.65
M 1303.85 640.3
Q 1305.35 636.9 1304.75 633.25 1302.1 617.55 1285.65 612 1262.05 603.85 1236.95 601.8 1194.25 598 1151.25 599.8 1110.5 601.1 1070.45 608.8 1047.5 613.2 1045.05 636.2 1045.4 637.75 1046.15 639.1 1065 674.55 1104.65 684.55 1117.35 687.7 1130.4 688.1 1178.95 689.55 1227.15 683.15 1233.75 682.15 1240.45 682.05 1279.05 679.45 1299.5 648.45 1302.2 647.35 1304.9 646.15 1322.25 638.3 1324.65 619.9
L 1303.85 640.3
M 1056.55 634.9
Q 1062.25 623.4 1076.65 621.95 1119.4 618 1162.15 619.3 1166.95 618.6 1171.2 616.35 1172.6 615.65 1174 615.65 1221.95 615.75 1268.75 625.1 1280.1 627.35 1286.65 633.45 1281.7 639.15 1274.4 640.65 1223.2 651.4 1170.65 650.9 1123.15 650.45 1076.15 643.8 1064.15 642.3 1056.55 634.9
M 1065.2 653.25
Q 1085.45 658.95 1106.5 660.25 1149.3 663.9 1192.1 665.1 1233.85 666.6 1274.8 658.5
L 1278 657.8
Q 1268.2 665.3 1256.25 668.2 1209.2 679.15 1160.55 680.5 1137.75 681.1 1114.95 677.95 1086.15 673.6 1065.2 653.25
M 1222.2 639.45
Q 1224.2 637.45 1224.2 634.65 1224.2 631.85 1222.2 629.85 1220.2 627.85 1217.4 627.85 1214.6 627.85 1212.6 629.85 1210.6 631.85 1210.6 634.65 1210.6 637.45 1212.6 639.45 1214.6 641.45 1217.4 641.45 1220.2 641.45 1222.2 639.45 Z"/>

<path fill="#090909" stroke="none" d="
M 1196 779.95
L 1206.8 775.4
Q 1202.35 760.05 1188.1 749.75 1169.15 735.95 1146.15 731.4
L 1146.2 775 1196 779.95
M 873.55 791.45
L 828.8 745.25 807.9 762.45
Q 793.2 781.1 808.05 797.1 810.5 799.75 814.2 800.3 833.6 803.95 852.75 798.05 863.15 794.9 873.55 791.45 Z"/>

<path fill="#FFFFFF" stroke="none" d="
M 1076.2 723.85
L 1092.45 769.75 1132.55 774.7 1137.65 774.35 1139.2 729.85
Q 1108.15 721.75 1076.2 723.85
M 1028.7 760.7
L 1026.75 763.3 1069.1 767.1 1086 769 1071.95 724.35 1023.8 729.65 1028.7 760.7
M 1018.4 738.05
Q 1017.4 734.4 1018.15 730.7
L 968 734.05 972.95 763.9 1006.05 763.4 1023.35 763.7
Q 1017.35 755.55 1018.8 745.25 1019.35 741.55 1018.4 738.05
M 961.65 736.1
L 948.05 734.65 909.4 726.85 930.85 772.55 966.65 765.1 961.65 736.1
M 862.2 730.45
L 836.2 739.75 882.8 787.7 925 774.3 901.3 726.45 862.2 730.45
M 751.2 632.85
Q 746.75 633.05 744.05 629.7 728.7 628.6 711.3 633.6 695.6 638.2 680.65 644.8
L 670.1 653.65
Q 674 660.4 684.55 661.85 734.75 669.65 785.85 670.85 838.8 673.35 891.2 665.8 906.2 663.6 919.3 656.25 920.6 655.45 921.8 654.55 915.55 649.7 902.9 646.15 846.1 629.7 786.95 631.05 769.05 631.45 751.2 632.85
M 742 644.45
Q 745.15 644.45 747.35 646.65 749.55 648.85 749.55 651.95 749.55 655.05 747.35 657.25 745.15 659.45 742 659.45 738.85 659.45 736.65 657.25 734.45 655.05 734.45 651.95 734.45 648.85 736.65 646.65 738.85 644.45 742 644.45
M 1076.65 621.95
Q 1062.25 623.4 1056.55 634.9 1064.15 642.3 1076.15 643.8 1123.15 650.45 1170.65 650.9 1223.2 651.4 1274.4 640.65 1281.7 639.15 1286.65 633.45 1280.1 627.35 1268.75 625.1 1221.95 615.75 1174 615.65 1172.6 615.65 1171.2 616.35 1166.95 618.6 1162.15 619.3 1119.4 618 1076.65 621.95
M 1224.2 634.65
Q 1224.2 637.45 1222.2 639.45 1220.2 641.45 1217.4 641.45 1214.6 641.45 1212.6 639.45 1210.6 637.45 1210.6 634.65 1210.6 631.85 1212.6 629.85 1214.6 627.85 1217.4 627.85 1220.2 627.85 1222.2 629.85 1224.2 631.85 1224.2 634.65 Z"/>

<path fill="#666666" stroke="none" d="
M 673.2 671.75
Q 672.45 671.5 671.75 671.25 687.75 690.15 713.1 694.05 724.15 695.55 734.95 697.5 796.65 709.55 857.9 695.9 894.1 687.9 925 667.95
L 918.4 671.3
Q 879.85 684.4 838.7 684.55 798.15 684.7 757.65 682.45 714.85 681.1 673.2 671.75
M 1106.5 660.25
Q 1085.45 658.95 1065.2 653.25 1086.15 673.6 1114.95 677.95 1137.75 681.1 1160.55 680.5 1209.2 679.15 1256.25 668.2 1268.2 665.3 1278 657.8
L 1274.8 658.5
Q 1233.85 666.6 1192.1 665.1 1149.3 663.9 1106.5 660.25 Z"/>
</g>

<g id="Layer4_0_FILL">
<path fill="#000000" fill-opacity="0.2" stroke="none" d="
M 1017.25 618.15
Q 1012.35 622.75 1012.7 631.85 1013 639.45 1016.75 646.35 1020.45 653.25 1026.65 657.7 1030.45 660.3 1033 659.7 1035.2 659.2 1036.45 656.95 1037.6 654.8 1037.35 652.4 1037.1 650.4 1036.05 648 1035.55 646.95 1033.85 643.9 1030.45 637.75 1028.3 630.85 1029.65 628.7 1029.9 626.05 1030.15 623.4 1029.25 621 1028.5 619 1027.05 617.6 1025.45 616.1 1023.55 615.8 1020.3 615.3 1017.25 618.15
M 948.35 634.85
Q 949.9 636.9 950.55 638.05 952.1 640.8 953.3 645.35 953.95 647.9 955.25 653.05 956.15 656.2 957.9 658.2 959.95 660.6 962.55 660.45 964.9 660.3 966.65 658.1 968.1 656.2 968.8 653.45 970.6 646.3 968.35 639.3 967.55 636.8 965.95 633.75 965.7 633.2 963.05 628.4 961.1 624.85 960.15 623.5 958.35 620.9 956.2 619.7 954.6 618.75 952.7 618.55 950.75 618.35 949.05 618.95 947.3 619.6 946.05 621 944.7 622.45 944.35 624.25 943.6 627.55 946.1 631.6 946.75 632.7 948.35 634.85
M 1043.8 774.5
Q 1004.1 770.65 975.1 772.3 937.85 774.45 908.5 785.65 901.8 788.2 890.05 793.5 877.3 799.25 871.7 801.5 854.8 808.15 837.25 811.75 834.55 812.3 832.75 813.55 830.6 815.15 831.1 817.15 831.85 819.7 836.45 820.15 853.65 821.7 876.75 813.15 882.75 810.95 896.4 805.2 909 799.85 916 797.4 937.95 789.7 964.55 787.4 986.9 785.45 1014.45 787.25 1031.6 788.4 1064 792.25 1097.65 796.3 1113.55 797.45 1128.5 798.55 1147.3 799 1158.55 799.3 1181.1 799.5 1186.65 799.55 1190.6 797.8 1195.45 795.65 1195.4 791.5 1195.35 789.25 1193.65 787.3 1192.05 785.55 1189.65 784.75 1187.7 784.05 1185.05 784 1183.6 783.95 1180.3 784.15 1151.75 785.85 1112 782 1066.55 776.75 1043.8 774.5
M 1250.2 768.6
Q 1250.15 769.6 1250.55 777.1 1251.15 788.2 1243.75 797.65 1236.35 807.1 1225.45 809.15 1222.25 809.75 1213.85 810 1206.45 810.15 1202.4 811.4 1199.35 812.3 1197.35 814.25 1195.05 816.5 1195.4 819.1 1196.1 823.9 1205.1 825.25 1218.55 827.1 1226.15 826.85 1237.8 826.4 1245.7 821.5 1253.95 816.35 1260.75 804.35 1270.85 786.6 1268.25 772.3 1267.1 765.9 1263.45 762.7 1261.3 760.85 1258.5 760.5 1255.55 760.15 1253.4 761.7 1250.55 763.8 1250.2 768.6
M 753.75 761.5
Q 752.3 760 749.9 760.5 747.6 761 746.25 762.85 745.15 764.4 744.6 766.8 744.35 767.75 743.9 771.15 743.65 773.2 742.4 779.55 741.45 784.8 741.2 788 740.45 798.75 745.2 809.25 749.75 819.4 758.2 826.75 764.9 832.6 772.9 835.6 781.35 838.8 789.75 838.3 793.8 838.05 796.8 836.1 800.2 833.85 799.9 830.55 799.7 828.75 798.3 827.2 797.05 825.8 795.15 825.05 793.65 824.45 791.45 824.1 788.9 823.8 787.65 823.6 778.7 822.3 770.85 817.2 763 812.1 758.2 804.4 753.4 796.7 752.25 787.45 751.05 778.2 753.8 769.55 754.7 766.75 754.8 765.3 755 762.85 753.75 761.5
M 865.75 740.2
Q 872.35 738.75 882.7 740.65 897.5 743.4 899.9 743.55 904.55 743.85 912.35 743.15 921.6 742.3 924.75 742.25 930.15 742.15 937.3 743.05 941.5 743.55 949.8 744.85 999.9 752.05 1049.6 743.35 1055.45 742.35 1067.25 740.05 1077.9 738.1 1085.05 737.3 1105.35 735 1120.05 739.35 1122.2 740 1126.45 741.35 1130.15 742.45 1132.95 742.6 1136.55 742.75 1139.55 741.45 1142.9 740 1144.35 737.2 1145.85 734.45 1145.15 731 1144.5 727.8 1142.3 725.25 1138.95 721.3 1131.4 718.6 1118.1 713.9 1101.6 713.85 1088.3 713.8 1071.2 716.85 1051.3 720.95 1041.3 722.95 1023.5 726.55 1011.25 727.35 996.25 728.3 966.75 725.5 936.9 722.6 922.2 723.45 911.9 724.35 906.75 724.7 897.6 725.4 891.35 724.85 890.8 724.8 879.5 723.3 872.35 722.3 867.6 722.8 861.1 723.45 853.7 727.05 849.25 729.2 840.9 734.5 838.55 736.05 837.35 737 835.45 738.5 834.4 740.1 833.2 742.05 833.1 744.25 833 746.6 834.35 748.2 835.85 749.95 838.7 750.15 841 750.35 843.75 749.5 847.1 748.45 854.7 744.65 861.55 741.15 865.75 740.2 Z"/>
</g>
</defs>

<g transform="matrix( 1, 0, 0, 1, 0,0) ">
<use xlink:href="#Layer5_0_FILL"/>
</g>

<g transform="matrix( 1, 0, 0, 1, 0,0) ">
<use xlink:href="#Layer4_0_FILL"/>
</g>
</svg>
