
<svg xmlns="http://www.w3.org/2000/svg" version="1.1" xmlns:xlink="http://www.w3.org/1999/xlink" preserveAspectRatio="none" x="0px" y="0px" width="2000px" height="2000px" viewBox="0 0 2000 2000">
<defs>
<g id="Layer7_0_FILL">
<path fill="#000000" stroke="none" d="
M 1228.2 1368.3
Q 1233.75 1362.95 1236.25 1359.15 1239.95 1353.55 1239.65 1348.2 1239.35 1342.95 1235.2 1337.85 1232.2 1334.2 1226.4 1329.8 1167.95 1285.2 1106.2 1265.75 1101.6 1264.3 1098.85 1263.9 1094.75 1263.3 1091.5 1264.2 1083.65 1266.3 1078.1 1277.75 1073.65 1286.95 1070.95 1299.6 1069.45 1306.45 1067.15 1322.5 1057.25 1390.55 1040.15 1458.15 1038.35 1465.3 1038.1 1469.4 1037.7 1475.75 1040.1 1480.15 1044.65 1488.55 1060.3 1491.25 1070.65 1493 1083.75 1493.25 1091.65 1493.4 1107.4 1492.9 1156.3 1491.3 1180.8 1490.2 1221.5 1488.4 1254.05 1485.8 1260.4 1485.25 1263.7 1484.7 1269 1483.75 1272.9 1481.95 1277.55 1479.8 1280.65 1476.15 1284.05 1472.2 1284.55 1467.6 1285.25 1461.3 1280.45 1454.95 1277 1450.3 1270 1445.05 1254.55 1433.55 1233.9 1421.05 1221.55 1413.6 1196.3 1399.35
L 1228.2 1368.3
M 1201.5 1354.7
Q 1187.6 1367.05 1174.55 1380.85 1170.9 1384.7 1168.9 1387.2 1166 1390.85 1164.35 1394.3 1162.4 1398.3 1162.05 1402.45 1161.65 1406.95 1163.25 1410.65 1164.9 1414.5 1168.9 1417.9 1171.45 1420.05 1176.7 1423.25
L 1229.85 1455.6
Q 1216 1455.35 1198.65 1456.3 1188.2 1456.85 1167.5 1458.5
L 1114.35 1462.7
Q 1098.7 1464 1090.5 1464.1 1077.25 1464.25 1066.8 1462.3 1073.9 1433.75 1080.3 1396.7 1083.45 1378.7 1090.8 1330.5 1092.9 1317.1 1094.5 1310.25 1097.1 1299.1 1101.15 1290.9 1111.75 1297.8 1130.65 1306.65 1153.85 1317.55 1160.75 1321.35 1170.25 1326.55 1181.5 1334.1 1188.45 1338.75 1201.45 1348.05 1203.5 1349.5 1203.7 1350.75 1204 1352.55 1201.5 1354.7
M 959.5 1264.15
Q 956.75 1264.55 952.15 1266 890.4 1285.45 831.95 1330.05 826.15 1334.45 823.15 1338.1 819 1343.2 818.7 1348.45 818.4 1353.8 822.1 1359.4 824.6 1363.2 830.15 1368.55
L 862.05 1399.6
Q 836.8 1413.85 824.45 1421.3 803.8 1433.8 788.35 1445.3 781.35 1450.55 777.9 1455.2 773.1 1461.55 773.8 1467.85 774.3 1472.45 777.7 1476.4 780.8 1480.05 785.45 1482.2 789.35 1484 794.65 1484.95 797.95 1485.5 804.3 1486.05 836.85 1488.65 877.55 1490.45 902.05 1491.55 950.95 1493.15 966.7 1493.65 974.6 1493.5 987.7 1493.25 998.05 1491.5 1013.7 1488.8 1018.25 1480.4 1020.65 1476 1020.25 1469.65 1020 1465.55 1018.2 1458.4 1001.1 1390.8 991.2 1322.75 988.9 1306.7 987.4 1299.85 984.7 1287.2 980.25 1278 974.7 1266.55 966.85 1264.45 963.6 1263.55 959.5 1264.15
M 854.65 1351
Q 854.85 1349.75 856.9 1348.3 869.9 1339 876.85 1334.35 888.1 1326.8 897.6 1321.6 904.5 1317.8 927.7 1306.9 946.6 1298.05 957.2 1291.15 961.25 1299.35 963.85 1310.5 965.45 1317.35 967.55 1330.75 974.9 1378.95 978.05 1396.95 984.45 1434 991.55 1462.55 981.1 1464.5 967.85 1464.35 959.65 1464.25 944 1462.95
L 890.85 1458.75
Q 870.15 1457.1 859.7 1456.55 842.35 1455.6 828.5 1455.85
L 881.65 1423.5
Q 886.9 1420.3 889.45 1418.15 893.45 1414.75 895.1 1410.9 896.7 1407.2 896.3 1402.7 895.95 1398.55 894 1394.55 892.35 1391.1 889.45 1387.45 887.45 1384.95 883.8 1381.1 870.75 1367.3 856.85 1354.95 854.35 1352.8 854.65 1351 Z"/>

<path fill="#060606" stroke="none" d="
M 1174.55 1380.85
Q 1187.6 1367.05 1201.5 1354.7 1204 1352.55 1203.7 1350.75 1203.5 1349.5 1201.45 1348.05 1188.45 1338.75 1181.5 1334.1 1170.25 1326.55 1160.75 1321.35 1153.85 1317.55 1130.65 1306.65 1111.75 1297.8 1101.15 1290.9 1097.1 1299.1 1094.5 1310.25 1092.9 1317.1 1090.8 1330.5 1083.45 1378.7 1080.3 1396.7 1073.9 1433.75 1066.8 1462.3 1077.25 1464.25 1090.5 1464.1 1098.7 1464 1114.35 1462.7
L 1167.5 1458.5
Q 1188.2 1456.85 1198.65 1456.3 1216 1455.35 1229.85 1455.6
L 1176.7 1423.25
Q 1171.45 1420.05 1168.9 1417.9 1164.9 1414.5 1163.25 1410.65 1161.65 1406.95 1162.05 1402.45 1162.4 1398.3 1164.35 1394.3 1166 1390.85 1168.9 1387.2 1170.9 1384.7 1174.55 1380.85
M 856.9 1348.3
Q 854.85 1349.75 854.65 1351 854.35 1352.8 856.85 1354.95 870.75 1367.3 883.8 1381.1 887.45 1384.95 889.45 1387.45 892.35 1391.1 894 1394.55 895.95 1398.55 896.3 1402.7 896.7 1407.2 895.1 1410.9 893.45 1414.75 889.45 1418.15 886.9 1420.3 881.65 1423.5
L 828.5 1455.85
Q 842.35 1455.6 859.7 1456.55 870.15 1457.1 890.85 1458.75
L 944 1462.95
Q 959.65 1464.25 967.85 1464.35 981.1 1464.5 991.55 1462.55 984.45 1434 978.05 1396.95 974.9 1378.95 967.55 1330.75 965.45 1317.35 963.85 1310.5 961.25 1299.35 957.2 1291.15 946.6 1298.05 927.7 1306.9 904.5 1317.8 897.6 1321.6 888.1 1326.8 876.85 1334.35 869.9 1339 856.9 1348.3 Z"/>
</g>

<g id="Layer6_0_FILL">
<path fill="#000000" stroke="none" d="
M 1429.4 330.5
Q 1431.45 323.2 1431.9 320.45 1432.9 314.7 1431.85 310.35 1430.65 305.15 1426.2 301.9 1421.55 298.45 1416.9 300.15 1415.148828125 300.8037109375 1413.7 302.1 1339.50390625 279.6669921875 1254.55 273.3 1254.2 272.9490234375 1253.8 272.6 1252.25 271.25 1249.3 269.15 1198.8 233.05 1116.4 164.8 1062 119.65 1051.25 110.9 1014.15 80.6 985 58.45 969.25 46.45 959 39.85 944.25 30.3 930.9 24.85 926.35 23 922.65 23 920.483984375 22.9767578125 918.85 23.6 916.0658203125 22.6078125 913.3 23.5 910.65 24.35 908.05 26.8 906.4 28.3 903.8 31.55
L 755.7 216.1
Q 716.25 265.3 696.8 290.1 664.4 331.45 639.55 365.35 639.10859375 365.9466796875 638.7 366.5 613.089453125 373.4498046875 595.65 379.1 547.1849609375 394.80390625 510.9 414.6 510.829296875 414.5830078125 510.75 414.55 507.45 413.15 504.35 413.75 500.1 414.6 497.45 418.75 494.9 422.65 495 427.4 495.05 431.4 496.8 436.15 497.8 438.8 500.55 444.4 507.4 458.3 520.25 486.45 532.05 511.45 542 527.4 551 541.9 571.8 568.8 592.6 595.8 601.6 610.2 604.75 615.25 606.25 617.15 608.0919921875 619.508984375 610.05 621.1 605.0931640625 632.81171875 602.3 645.3 601.628125 646.57578125 600.9 647.9 567.25 709.4 552.15 741.5 527.2 794.55 515.35 839.85 510.6 857.95 506.35 880.8 503.65 895.05 499.3 922.2 492.65 963.45 489.95 984.35 485.4 1018.95 484.15 1046.85 481.7 1101.5 490.15 1162.85 497.35 1215.35 513.2 1277.1 515.5896484375 1286.375390625 520.15 1288.55 520.9076171875 1289.64140625 521.9 1290.7 523.5 1292.45 526.35 1294.55 537.75 1303.05 553.75 1309.35 565.3 1313.95 583.75 1318.85 690.7 1347.7 817.85 1354 923.7 1359.25 1055.65 1349.05 1179 1339.5 1276.65 1320.3 1393.55 1297.35 1489.65 1257.85 1497.75 1254.55 1502.35 1250.3 1508.35 1244.7 1507.35 1238.35 1506.751171875 1234.6767578125 1503.85 1231.9 1504.1408203125 1229.1849609375 1504.1 1226 1503.35 1138.75 1501.95 1092.5 1499.75 1018.35 1494.45 959.25 1481.1 811.7 1442.45 699.8 1433.7 674.5 1425.05 655.45 1419.9634765625 644.1626953125 1414.45 634 1413.8978515625 632.29296875 1413.25 630.6 1407.7 616.15 1396.45 601.95 1387.35 590.45 1373.2 577.65 1362.9326171875 568.3544921875 1352.2 560 1355.101171875 554.233984375 1358.7 544.65
L 1402.45 429.7
Q 1406.35 419.45 1408.05 414.6 1411.1 406.2 1413.1 399.35 1416.6 387.6 1421.35 364.95 1426.35 341.3 1429.4 330.5
M 1404.1 322.2
Q 1405.1560546875 322.51171875 1406.1 322.75
L 1394.15 375.1
Q 1390.45 390.85 1388.75 396.8 1385.75 407.15 1378.35 426.15 1370.45 446.6 1354.5 487.45 1341.37578125 522.0234375 1333.45 548.5 1316.6107421875 538.0064453125 1294.85 530.95 1274.25 524.25 1246.05 519.75 1192.25 511.15 1119.6 511 1094.1 510.95 1055.95 511.9 992.7 513.55 992.35 513.55 959.75 514.05 943.45 514.35 914.5 514.85 894.55 515.65 838.9 518 797.5 525.3 745.9 534.45 703.75 553.45 657.6888671875 574.1701171875 625.3 605.65 624.945703125 605.0240234375 624.55 604.35 616.1 590.05 599.6 567.35 580.1 540.6 573.75 530.85 559.5 509.15 545.9 481.6 535.45 460.55 522.55 429.9 521.9751953125 428.530859375 521.45 427.4 552.098046875 413.0994140625 591 401.1 608.8607421875 395.61640625 636.95 388.3 637.7861328125 388.898046875 638.75 389.25 644.4166015625 391.3994140625 650.95 384.75 661.8634765625 381.991796875 674.1 379 731.5 365 760.25 358.1 861 333.95 919.55 322.3 1007.85 304.65 1080.7 297.6 1262.55 279.95 1404.1 322.2
M 1324.05 564.25
Q 1324.24921875 564.678125 1324.45 565.1 1326.85 570.1 1332.35 575 1338.8 580.75 1352.1 592.2 1363.85 602.55 1371.15 610.3 1391.5 631.9 1396.65 653.55 1402.4 677.75 1391.2 705.75 1382.4 727.8 1362.7 752.85 1308.5 821.8 1231.15 867.3 1153.8 912.75 1067.2 926.55 1046.930859375 929.7916015625 1026.6 931.2 1025.0095703125 930.628515625 1023.3 930.6 1020.9685546875 930.6 1018.55 931.7 956.0244140625 935.0306640625 892.95 921.25 805.3 902.1 732.3 853.4 668.6 810.95 640.3 759.8 623.65 729.7 619.65 696.95 615.4 662.15 626.7 632.1 628.85 626.45 629.4 624.45 630.6 620.1 630.05 616.6 629.96328125 616.046484375 629.8 615.5 630.9001953125 614.844921875 631.95 613.95 661.5 589.3 700.2 572.1 735.2 556.55 776.8 547.5 812.4 539.75 856.3 535.95 887.65 533.25 936.7 531.8 954.85 531.25 1010 530 1069.25 528.8 1097.85 528.75 1146.7 528.6 1185.6 530.75 1231 533.2 1261.6 540.15 1297.5302734375 548.251953125 1324.05 564.25
M 1411.6 708.5
Q 1414.2740234375 701.065625 1416 693.65 1429.2533203125 727.997265625 1439.35 766.1 1431.965625 768.371875 1425.4 781.65 1386 860.9 1321.4 923.7 1256.75 986.55 1176.45 1023.65 1172.4486328125 1025.5025390625 1170.15 1026.75 1168.9978515625 1025.8689453125 1167 1024.4 1161.25 1020.1 1154.3 1013.9 1146.55 1006.95 1135.15 995.2 1121.05 980.55 1114 973.2 1101.4 960.15 1092.5 951.5 1088.6830078125 947.835546875 1084.85 944.25 1162.748046875 929.4767578125 1233.6 889.55 1313.1 844.75 1370.15 776 1384.35 758.95 1393.85 743.95 1405.3 725.95 1411.6 708.5
M 1427.65 828.25
Q 1445.85 799 1446.25 798.35 1446.6197265625 797.763671875 1446.95 797.2 1450.8275390625 814.472265625 1454.1 832.45 1463.85 886.1 1469.45 952.45 1473.3 998.05 1476.7 1073.35 1478.8 1119.25 1479.35 1147.4 1480.15 1188.1 1478.75 1221.45 1478.50390625 1227.2578125 1478.7 1230.2 1476.7412109375 1230.9275390625 1474.3 1231.9 1322.75 1292.65 1146.05 1316.45 1099.541796875 1322.7001953125 1051.5 1326.35 1051.5384765625 1326.1537109375 1051.55 1325.95 1053.95 1284.05 1054.8 1232.05 1055.35 1199.05 1055.45 1138.1 1055.55 1095.35 1055.45 1052.55 1055.45 1031.05 1055.2 1019.45 1054.8 1001.15 1053.55 986.45 1051.8646484375 967.1107421875 1048.45 949.75 1056.299609375 948.871875 1064.15 947.7 1064.523828125 948.558203125 1065.05 949.4 1066 950.95 1068.15 953.45
L 1085.4 973.7
Q 1102.25 993.4 1111.1 1003.2 1130.65 1024.8 1151.85 1044.35 1154.85 1047.15 1156.75 1048.55 1159.65 1050.7 1162.35 1051.55 1165.1 1052.45 1168.05 1052.2 1169.3115234375 1052.0931640625 1170.45 1051.75 1175.2912109375 1051.4626953125 1181.85 1048.5 1250.2 1017.55 1308.3 968.7 1366.4 919.8 1408.6 857.8 1416.5 846.2 1427.65 828.25
M 978.9 74.5
Q 1018.3 105 1109.2 179.9 1178.4662109375 236.9404296875 1223.35 271.5 1159.0205078125 268.97421875 1088.8 275.25 1032.5240234375 280.3212890625 968 291.45 967.828515625 290.0677734375 967.5 287.9
L 941.8 134.25
Q 938.4 113.35 935.9 101.2 934 91.9 930 74.55
L 921.9 39.85
Q 922.348046875 40.077734375 922.8 40.3 924.2 40.95 928.4 42.65 940.85 47.65 954.65 56.8 963.9 62.85 978.9 74.5
M 916.05 58.25
Q 917.55 66.85 921.3 84 925.8 106.5 928.95 143.8 932.85 190.35 934.65 203.85 936.05 214.45 939.05 232.2
L 948.5 289.15
Q 949.09921875 292.7912109375 949.6 294.7 937.7904296875 296.8931640625 925.7 299.25 862.8 311.5 764.55 335.15 726.75 344.2 687.55 353.9 679.1615234375 355.9759765625 671.3 357.95 715.37578125 299.250390625 787.05 207.9 874.461328125 96.4087890625 914.25 43.85 914.706640625 50.5517578125 916.05 58.25
M 598.8 680.1
Q 598.8544921875 684.7001953125 599.15 689.4 601.6 727.6 619.7 762.95 650.75 823.6 724.55 872.25 799.15 921.35 888.25 941 941.8 952.803125 995.05 952.75 983.5443359375 963.23046875 968.5 975.55 928.7 1008.1 925.55 1010.8 909.15 1024.9 893.5 1040.55 889.95 1044.1 888.25 1046.3 887.31640625 1047.5154296875 886.6 1048.7 885.486328125 1048.3216796875 884.3 1047.95 833.55 1032.3 784.95 1003.5 739.15 976.3 697.15 938.6 623.3 872.25 558.6 770.65 557.116015625 768.3376953125 555.75 766.8 566.08984375 743.180078125 581.65 713.15 592.2490234375 692.8474609375 598.8 680.1
M 547.2 787.7
Q 548.0314453125 789.0630859375 549 790.55 594.5 859.9 650.35 920.65 680.05 953 705.8 974.45 740.4 1003.2 786.3 1028.1 823.6 1048.4 874.4 1069.15 879.1 1071.1 881.9 1071.9 886.15 1073.05 889.7 1072.8 893.85 1072.55 897.1 1070.05 900.4162109375 1067.5865234375 901.05 1064.05 902.2666015625 1063.122265625 903.55 1061.9 904.55 1060.9 907.1 1058.15 914.05 1050.65 929.05 1036.85 944.3 1022.95 951.25 1017.15 956.55 1012.75 977.95 996.4 994.5 983.75 1003.95 974.85 1007.1 971.9 1013.25 965.8 1018.8 960.5 1022.95 957.25 1027.35 953.75 1027.9 953.3 1028.9384765625 952.39609375 1029.75 951.5 1029.9681640625 951.4857421875 1030.15 951.45 1030.180078125 951.7072265625 1030.2 951.95 1036.65 1030.9 1033.6 1137.25 1031.8 1199.15 1025.4 1322.85 1025.2830078125 1325.9482421875 1025.25 1328.15 919.1703125 1334.629296875 805.85 1328.65 725.65 1324.45 666.3 1314.25 591.6 1301.45 531.95 1276.8 531.9025390625 1276.0208984375 531.8 1275.2 531.55 1272.95 530.5 1268.8 516.55 1211.5 509.65 1167.65 500.95 1112.7 500.75 1065.05 500.55 1022.95 506.95 973.4 511.9 935.55 522.3 882.65 527.55 856.2 531.65 839.3 537.35 815.7 543.95 796.7 545.4498046875 792.373046875 547.2 787.7
M 944.15 1194.75
Q 937.95 1200.3 936.7 1209.25 935.5 1218.1 939.7 1225.45 943.75 1232.65 951.75 1236.6 959.55 1240.45 968.05 1239.75 977.25 1238.9 982.7 1233.5 986.7 1229.5 988.25 1223.1 989.55 1217.55 988.9 1210.95 988 1200.6 983 1195.1 979.75 1191.5 974.6 1189.65 970.05 1188 964.55 1187.9 958.75 1187.8 953.65 1189.45 948.05 1191.2 944.15 1194.75
M 981.45 1122.65
Q 987.2 1119.95 991.3 1113.9 995.2 1108.3 995.05 1102.95 994.85 1097.05 989.25 1090.05 982.9 1082.1 976.2 1079.3 970 1076.65 962.95 1078 955.95 1079.3 951.15 1084.05 946.05 1089.05 944.4 1096.45 942.85 1103.45 945.35 1110.25 947.9 1117.3 953.65 1120.95 958.8 1124.25 967.15 1124.85 975.75 1125.4 981.45 1122.65
M 1115.05 1177.35
Q 1109.45 1179.5 1105.15 1183.95 1100.85 1188.45 1099.05 1194.1 1097.25 1199.8 1098.3 1205.9 1099.35 1212.05 1102.95 1216.75 1107.6 1222.8 1116.25 1226.35 1124.3 1229.6 1130.7 1228.5 1135.85 1227.65 1140.2 1224.05 1144.35 1220.5 1146.5 1215.5 1148.55 1210.75 1148.65 1205.15 1148.75 1199.85 1147.05 1194.6 1145.05 1188.4 1141 1183.75 1136.65 1178.75 1131 1176.85 1127.2 1175.55 1123 1175.75 1118.95 1175.9 1115.05 1177.35
M 1129.45 1077.55
Q 1124.25 1077.15 1119.5 1078.8 1114.65 1080.45 1110.9 1084 1107.05 1087.6 1105.2 1092.3 1102.5 1099.1 1104.25 1107 1105.95 1114.45 1111 1120.45 1116.9 1127.5 1124 1128.65 1127.05 1129.15 1130.9 1128.45 1133.2 1128.05 1137.75 1126.75 1142.2 1125.45 1144.5 1124.45 1148.15 1122.85 1150.3 1120.55 1155 1115.7 1155 1106.9 1154.95 1098.6 1150.7 1091.3 1146.35 1083.8 1139.15 1080.2 1134.65 1077.9 1129.45 1077.55 Z"/>

<path fill="#003366" stroke="none" d="
M 549 790.55
Q 548.0314453125 789.0630859375 547.2 787.7 545.4498046875 792.373046875 543.95 796.7 537.35 815.7 531.65 839.3 527.55 856.2 522.3 882.65 511.9 935.55 506.95 973.4 500.55 1022.95 500.75 1065.05 500.95 1112.7 509.65 1167.65 516.55 1211.5 530.5 1268.8 531.55 1272.95 531.8 1275.2 531.9025390625 1276.0208984375 531.95 1276.8 591.6 1301.45 666.3 1314.25 725.65 1324.45 805.85 1328.65 919.1703125 1334.629296875 1025.25 1328.15 1025.2830078125 1325.9482421875 1025.4 1322.85 1031.8 1199.15 1033.6 1137.25 1036.65 1030.9 1030.2 951.95 1030.180078125 951.7072265625 1030.15 951.45 1029.9681640625 951.4857421875 1029.75 951.5 1028.9384765625 952.39609375 1027.9 953.3 1027.35 953.75 1022.95 957.25 1018.8 960.5 1013.25 965.8 1007.1 971.9 1003.95 974.85 994.5 983.75 977.95 996.4 956.55 1012.75 951.25 1017.15 944.3 1022.95 929.05 1036.85 914.05 1050.65 907.1 1058.15 904.55 1060.9 903.55 1061.9 902.2666015625 1063.122265625 901.05 1064.05 900.4162109375 1067.5865234375 897.1 1070.05 893.85 1072.55 889.7 1072.8 886.15 1073.05 881.9 1071.9 879.1 1071.1 874.4 1069.15 823.6 1048.4 786.3 1028.1 740.4 1003.2 705.8 974.45 680.05 953 650.35 920.65 594.5 859.9 549 790.55
M 991.3 1113.9
Q 987.2 1119.95 981.45 1122.65 975.75 1125.4 967.15 1124.85 958.8 1124.25 953.65 1120.95 947.9 1117.3 945.35 1110.25 942.85 1103.45 944.4 1096.45 946.05 1089.05 951.15 1084.05 955.95 1079.3 962.95 1078 970 1076.65 976.2 1079.3 982.9 1082.1 989.25 1090.05 994.85 1097.05 995.05 1102.95 995.2 1108.3 991.3 1113.9
M 936.7 1209.25
Q 937.95 1200.3 944.15 1194.75 948.05 1191.2 953.65 1189.45 958.75 1187.8 964.55 1187.9 970.05 1188 974.6 1189.65 979.75 1191.5 983 1195.1 988 1200.6 988.9 1210.95 989.55 1217.55 988.25 1223.1 986.7 1229.5 982.7 1233.5 977.25 1238.9 968.05 1239.75 959.55 1240.45 951.75 1236.6 943.75 1232.65 939.7 1225.45 935.5 1218.1 936.7 1209.25
M 1446.25 798.35
Q 1445.85 799 1427.65 828.25 1416.5 846.2 1408.6 857.8 1366.4 919.8 1308.3 968.7 1250.2 1017.55 1181.85 1048.5 1175.2912109375 1051.4626953125 1170.45 1051.75 1169.3115234375 1052.0931640625 1168.05 1052.2 1165.1 1052.45 1162.35 1051.55 1159.65 1050.7 1156.75 1048.55 1154.85 1047.15 1151.85 1044.35 1130.65 1024.8 1111.1 1003.2 1102.25 993.4 1085.4 973.7
L 1068.15 953.45
Q 1066 950.95 1065.05 949.4 1064.523828125 948.558203125 1064.15 947.7 1056.299609375 948.871875 1048.45 949.75 1051.8646484375 967.1107421875 1053.55 986.45 1054.8 1001.15 1055.2 1019.45 1055.45 1031.05 1055.45 1052.55 1055.55 1095.35 1055.45 1138.1 1055.35 1199.05 1054.8 1232.05 1053.95 1284.05 1051.55 1325.95 1051.5384765625 1326.1537109375 1051.5 1326.35 1099.541796875 1322.7001953125 1146.05 1316.45 1322.75 1292.65 1474.3 1231.9 1476.7412109375 1230.9275390625 1478.7 1230.2 1478.50390625 1227.2578125 1478.75 1221.45 1480.15 1188.1 1479.35 1147.4 1478.8 1119.25 1476.7 1073.35 1473.3 998.05 1469.45 952.45 1463.85 886.1 1454.1 832.45 1450.8275390625 814.472265625 1446.95 797.2 1446.6197265625 797.763671875 1446.25 798.35
M 1119.5 1078.8
Q 1124.25 1077.15 1129.45 1077.55 1134.65 1077.9 1139.15 1080.2 1146.35 1083.8 1150.7 1091.3 1154.95 1098.6 1155 1106.9 1155 1115.7 1150.3 1120.55 1148.15 1122.85 1144.5 1124.45 1142.2 1125.45 1137.75 1126.75 1133.2 1128.05 1130.9 1128.45 1127.05 1129.15 1124 1128.65 1116.9 1127.5 1111 1120.45 1105.95 1114.45 1104.25 1107 1102.5 1099.1 1105.2 1092.3 1107.05 1087.6 1110.9 1084 1114.65 1080.45 1119.5 1078.8
M 1105.15 1183.95
Q 1109.45 1179.5 1115.05 1177.35 1118.95 1175.9 1123 1175.75 1127.2 1175.55 1131 1176.85 1136.65 1178.75 1141 1183.75 1145.05 1188.4 1147.05 1194.6 1148.75 1199.85 1148.65 1205.15 1148.55 1210.75 1146.5 1215.5 1144.35 1220.5 1140.2 1224.05 1135.85 1227.65 1130.7 1228.5 1124.3 1229.6 1116.25 1226.35 1107.6 1222.8 1102.95 1216.75 1099.35 1212.05 1098.3 1205.9 1097.25 1199.8 1099.05 1194.1 1100.85 1188.45 1105.15 1183.95 Z"/>

<path fill="#7A5050" stroke="none" d="
M 599.15 689.4
Q 598.8544921875 684.7001953125 598.8 680.1 592.2490234375 692.8474609375 581.65 713.15 566.08984375 743.180078125 555.75 766.8 557.116015625 768.3376953125 558.6 770.65 623.3 872.25 697.15 938.6 739.15 976.3 784.95 1003.5 833.55 1032.3 884.3 1047.95 885.486328125 1048.3216796875 886.6 1048.7 887.31640625 1047.5154296875 888.25 1046.3 889.95 1044.1 893.5 1040.55 909.15 1024.9 925.55 1010.8 928.7 1008.1 968.5 975.55 983.5443359375 963.23046875 995.05 952.75 941.8 952.803125 888.25 941 799.15 921.35 724.55 872.25 650.75 823.6 619.7 762.95 601.6 727.6 599.15 689.4
M 1416 693.65
Q 1414.2740234375 701.065625 1411.6 708.5 1405.3 725.95 1393.85 743.95 1384.35 758.95 1370.15 776 1313.1 844.75 1233.6 889.55 1162.748046875 929.4767578125 1084.85 944.25 1088.6830078125 947.835546875 1092.5 951.5 1101.4 960.15 1114 973.2 1121.05 980.55 1135.15 995.2 1146.55 1006.95 1154.3 1013.9 1161.25 1020.1 1167 1024.4 1168.9978515625 1025.8689453125 1170.15 1026.75 1172.4486328125 1025.5025390625 1176.45 1023.65 1256.75 986.55 1321.4 923.7 1386 860.9 1425.4 781.65 1431.965625 768.371875 1439.35 766.1 1429.2533203125 727.997265625 1416 693.65 Z"/>

<path fill="#FFFFFF" stroke="none" d="
M 921.3 84
Q 917.55 66.85 916.05 58.25 914.706640625 50.5517578125 914.25 43.85 874.461328125 96.4087890625 787.05 207.9 715.37578125 299.250390625 671.3 357.95 679.1615234375 355.9759765625 687.55 353.9 726.75 344.2 764.55 335.15 862.8 311.5 925.7 299.25 937.7904296875 296.8931640625 949.6 294.7 949.09921875 292.7912109375 948.5 289.15
L 939.05 232.2
Q 936.05 214.45 934.65 203.85 932.85 190.35 928.95 143.8 925.8 106.5 921.3 84
M 1109.2 179.9
Q 1018.3 105 978.9 74.5 963.9 62.85 954.65 56.8 940.85 47.65 928.4 42.65 924.2 40.95 922.8 40.3 922.348046875 40.077734375 921.9 39.85
L 930 74.55
Q 934 91.9 935.9 101.2 938.4 113.35 941.8 134.25
L 967.5 287.9
Q 967.828515625 290.0677734375 968 291.45 1032.5240234375 280.3212890625 1088.8 275.25 1159.0205078125 268.97421875 1223.35 271.5 1178.4662109375 236.9404296875 1109.2 179.9
M 1406.1 322.75
Q 1405.1560546875 322.51171875 1404.1 322.2 1262.55 279.95 1080.7 297.6 1007.85 304.65 919.55 322.3 861 333.95 760.25 358.1 731.5 365 674.1 379 661.8634765625 381.991796875 650.95 384.75 644.4166015625 391.3994140625 638.75 389.25 637.7861328125 388.898046875 636.95 388.3 608.8607421875 395.61640625 591 401.1 552.098046875 413.0994140625 521.45 427.4 521.9751953125 428.530859375 522.55 429.9 535.45 460.55 545.9 481.6 559.5 509.15 573.75 530.85 580.1 540.6 599.6 567.35 616.1 590.05 624.55 604.35 624.945703125 605.0240234375 625.3 605.65 657.6888671875 574.1701171875 703.75 553.45 745.9 534.45 797.5 525.3 838.9 518 894.55 515.65 914.5 514.85 943.45 514.35 959.75 514.05 992.35 513.55 992.7 513.55 1055.95 511.9 1094.1 510.95 1119.6 511 1192.25 511.15 1246.05 519.75 1274.25 524.25 1294.85 530.95 1316.6107421875 538.0064453125 1333.45 548.5 1341.37578125 522.0234375 1354.5 487.45 1370.45 446.6 1378.35 426.15 1385.75 407.15 1388.75 396.8 1390.45 390.85 1394.15 375.1
L 1406.1 322.75 Z"/>

<path fill="#85BE98" stroke="none" d="
M 1324.45 565.1
Q 1324.24921875 564.678125 1324.05 564.25 1297.5302734375 548.251953125 1261.6 540.15 1231 533.2 1185.6 530.75 1146.7 528.6 1097.85 528.75 1069.25 528.8 1010 530 954.85 531.25 936.7 531.8 887.65 533.25 856.3 535.95 812.4 539.75 776.8 547.5 735.2 556.55 700.2 572.1 661.5 589.3 631.95 613.95 630.9001953125 614.844921875 629.8 615.5 629.96328125 616.046484375 630.05 616.6 630.6 620.1 629.4 624.45 628.85 626.45 626.7 632.1 615.4 662.15 619.65 696.95 623.65 729.7 640.3 759.8 668.6 810.95 732.3 853.4 805.3 902.1 892.95 921.25 956.0244140625 935.0306640625 1018.55 931.7 1020.9685546875 930.6 1023.3 930.6 1025.0095703125 930.628515625 1026.6 931.2 1046.930859375 929.7916015625 1067.2 926.55 1153.8 912.75 1231.15 867.3 1308.5 821.8 1362.7 752.85 1382.4 727.8 1391.2 705.75 1402.4 677.75 1396.65 653.55 1391.5 631.9 1371.15 610.3 1363.85 602.55 1352.1 592.2 1338.8 580.75 1332.35 575 1326.85 570.1 1324.45 565.1 Z"/>
</g>

<g id="Layer3_0_FILL">
<path fill="#000000" fill-opacity="0.2" stroke="none" d="
M 1069.1 293.3
Q 1072.9 292.95 1079.45 291.7 1089.4 289.85 1109.2 286.15 1126.25 283.15 1139.15 281.95 1173.3 278.7 1199.25 285.35 1201.9 286.05 1207.2 287.4 1211.8 288.45 1215.3 288.45 1219.7 288.5 1223.35 286.95 1227.45 285.25 1229.6 282 1232.1 278.25 1231.55 273.25 1230.95 268.5 1227.9 264.8 1225.8146484375 262.3099609375 1222.7 260.45 1223.094921875 258.1345703125 1222.35 255.9 1219.75 248 1205 246.5 1184.3 244.35 1159.55 245.55 1140.85 246.4 1114.15 249.65 1051.7501953125 257.0763671875 975.5 271.85 975.5099609375 271.81328125 975.5 271.75 969.45 233.35 965.85 213.7 959.9 181.6 953.15 156.35 950.75 147.6 949.6 143.2 947.65 135.6 946.55 129.9 945.45 124.3 944.05 113
L 935.5 45.45
Q 935.1 42.5 934.7 40.95 934.05 38.5 932.9 36.85 931.55 34.9 929.25 34.2 926.9 33.4 925 34.5 922.05 36.3 921.95 42.6 921.75 55.35 923.1 70.8 924 81.45 926.25 98.85 930.15 129.25 940.25 198.05
L 951.75 276.6
Q 903.47109375 286.471484375 816.6 306 750.75 320.8 718.6 328.9 700 333.55 689.8 337.45 674.25 343.3 663.85 351.75 660.05 354.8 658.25 358.15 656 362.3 657.6 365.75 659.55 370.15 665.75 370.25 670.55 370.35 676.7 368 699.5 359.25 729.1 351.65 746.9 347.05 782.65 339.3
L 909 311.95
Q 995.64609375 293.229296875 1043.35 285.4 1045.5115234375 287.9970703125 1048.75 289.9 1053.15 292.5 1058.65 293.25 1063.35 293.9 1069.1 293.3
M 535.85 417.85
Q 532.4 414.5 528.7 413.45 523.15 411.9 517.85 415.45 512.5 419.05 511.95 424.8 511.6 428.35 513.15 432.5 514.1 435.15 516.65 439.75
L 529.35 462.7
Q 554.15 507.45 566.7 529.75 587.6 566.9 604.85 596.3 608.2 601.95 610.25 604.6 613.6 609 617.35 611.25 621.75 613.95 627.1 614.05 632.5 614.2 636.95 611.65 641.45 609.05 643.9 604.25 646.4 599.4 645.75 594.3 645.4 591.3 643.8 587.85 642.8 585.65 640.55 581.8 609.45 528.5 592.95 501.85 565.75 457.95 541.35 424.5 538.1 420 535.85 417.85
M 1372 322.1
Q 1369.4 335.8 1366.1 346.1 1363.7 353.75 1358.15 367.25 1352.15 381.8 1349.95 388.3 1347 396.95 1342.95 412.85
L 1314.65 521.85
Q 1312.85 528.85 1312.25 532.65 1311.3 538.7 1311.95 543.6 1312.75 549.4 1316 553.9 1319.55 558.75 1324.65 560.1 1329.95 561.5 1335.55 558.85 1340.8 556.4 1344.35 551.5 1347.3 547.4 1349.4 541.35 1350.6 537.9 1352.5 530.3 1363.55 486.2 1380 443.9 1383.1 436.1 1384.6 432.15 1387.25 425.35 1388.95 420.4 1392.35 410.55 1399.2 385.25 1405.25 362.7 1410.15 350.3 1413.65 341.45 1413.8 340.95 1415.75 335.6 1416.25 331.3 1416.85 326 1415.45 321.3 1413.95 316.1 1410.3 313.05 1407.6 310.8 1402.7 309.2 1397.05 307.6 1394.35 306.6 1391.15 305.3 1389.55 304.75 1386.7 303.8 1384.55 303.95 1381.7 304.15 1379.2 306.15 1376.85 307.9 1375.35 310.7 1374.1 313 1373.25 316.25 1372.8 318 1372 322.1
M 1432.6 800.45
Q 1431.05 802.5 1428.4 806.9 1415 829.15 1405.65 842.5 1389.8 865 1366.45 890.2 1352.3 905.45 1323 934.35 1310.5 946.7 1304.05 952.6 1293.25 962.45 1283.75 969.25 1271.35 978.15 1245.35 992 1218.65 1006.15 1206.8 1014.45 1197.95 1020.65 1187.9 1029.3 1182.13046875 1034.3376953125 1173.1 1042.7 1172.73671875 1042.46171875 1172.35 1042.2 1152.25 1028.35 1130.25 1007.3 1116.85 994.55 1091.9 968.05
L 1070.95 945.85
Q 1068.7 943.45 1067.25 942.25 1065.05 940.4 1062.9 939.6 1060.35 938.65 1057.75 939.25 1055.976171875 939.66171875 1054.8 940.65 1052.9158203125 938.0466796875 1050.3 937.75 1048 937.45 1045.95 939.2 1044 940.8 1043.2 943.25 1042.55 945.3 1042.7 948.05 1042.8 949.6 1043.3 952.9 1056.3 1035.9 1051.9 1120.25 1051.2 1133.8 1049.1 1160.8
L 1038.75 1294.2
Q 1024.6603515625 1294.2525390625 1009.75 1294 904.9 1292.35 822.4 1279.3 722.85 1263.6 642.35 1229.65 604.45 1213.7 574.25 1194.95 539.95 1173.65 514.4 1148.05 511.5 1145.15 510.05 1144 507.5 1141.9 505.05 1141.05 502.15 1140.05 499.2 1140.8 496.05 1141.6 494.75 1144.1 492.2 1148.95 498.4 1156.65 500.165234375 1158.8732421875 501.95 1161.05 500.7431640625 1166.1220703125 502.75 1174.4
L 520.9 1248.95
Q 523.35 1259.1 525.3 1264.45 528.35 1272.85 532.85 1278.4 539.65 1286.85 552.2 1292 560.65 1295.45 575.85 1298.65 638.000390625 1311.7103515625 708.6 1320.6 710.1220703125 1320.9080078125 711.4 1321.05 712.378125 1321.15546875 713.3 1321.2 741.30078125 1324.64453125 770.6 1327.45 853.95 1335.45 967.4 1339.75 974.1 1339.95 977.25 1339.75 978.5138671875 1339.68046875 979.7 1339.55 989.67734375 1343.2990234375 1000.45 1344.2 1007.2 1344.75 1015.7 1344.2 1020.9 1343.85 1030.95 1342.65 1035.1712890625 1342.1544921875 1039 1341.65 1041.3123046875 1345.8169921875 1045.5 1346.9 1049.45 1348 1053.55 1345.65 1057.35 1343.5 1059.5 1339.55 1059.6810546875 1339.222265625 1059.85 1338.85 1062.8744140625 1338.4234375 1065.35 1338 1071.55 1336.95 1075.2 1335.45 1077.7501953125 1334.41015625 1079.65 1332.95 1107.257421875 1333.02734375 1138.75 1329.55 1170.15 1326.1 1225.2 1316.15 1301.9 1302.35 1345.8 1291.1 1411.6 1274.3 1461.6 1250.9 1471.05 1246.5 1476.45 1242.7 1484.05 1237.3 1487.55 1230.6 1491 1223.95 1491.5 1213.2 1491.5 1200.85 1491.95 1194.8 1492.9 1186.65 1493.35 1182.6 1494.1 1175.35 1493.4 1170.45 1493.0134765625 1167.6587890625 1492.05 1165.15 1492.6359375 1164.4498046875 1493.1 1163.8 1496.5 1159.05 1497.8 1154.55 1499.35 1149.25 1497.95 1144.05 1496.5 1138.5 1492.25 1135.8 1485.6 1131.55 1476.6 1136.1 1469.95 1139.45 1462.3 1147.45 1401.8 1210.5 1311.75 1247.6 1230.35 1281.1 1133.4 1290.25 1102.0453125 1293.189453125 1064.3 1293.95
L 1070.5 1172.95
Q 1074.35 1097.5 1073.15 1058.85 1071.63671875 1009.7271484375 1063.05 969.35 1064.9171875 971.5939453125 1066.8 973.65 1067.45 974.35 1072.3 979.5 1075.65 983.05 1077.65 985.45 1080.85 989.3 1086.75 997.45 1093.05 1005.85 1101.85 1015.45 1107.3 1021.4 1118.1 1032.4 1129.15 1043.7 1135.2 1049.2 1145 1058.2 1153.9 1064 1164.6 1070.85 1171.55 1068.2 1175.55 1066.65 1177.5 1062.35 1177.72734375 1061.848828125 1177.9 1061.35 1179.3107421875 1061.0291015625 1180.8 1060.45 1182.95 1059.55 1187.05 1057.3 1239.4 1028.1 1264.8 1011.5 1306.75 984.05 1334.9 955.6 1340.05 950.4 1349.4 940.3 1359.15 929.75 1363.85 924.95 1371.55 917.1 1387.55 901.95 1401.7 888.15 1410 877.85 1417.5 868.6 1429.2 850.5 1441.9 830.85 1448 822.8 1451.7 818 1453.05 816 1455.65 812 1456.65 808.45 1457.9 804.15 1456.8 800 1455.6 795.5 1452.15 793.4 1449.05 791.45 1444.9 792.05 1441.1 792.6 1437.85 795 1435.1 797.05 1432.6 800.45
M 1129.1 1176.45
Q 1121.95 1175.05 1115.2 1178.3 1108.2 1181.6 1105.55 1188.05 1104.55 1190.45 1103.9 1194.2 1103.55 1196.3 1102.9 1200.5 1102.3 1203.45 1100.7 1209.3 1099.45 1214.5 1099.75 1218.15 1100.2 1223.35 1103.6 1228.25 1106.55 1232.55 1111.35 1236.2 1120.7 1243.3 1129.15 1242.55 1134 1242.1 1138.5 1239.1 1142.6 1236.4 1145.8 1232.05 1151.75 1224.05 1152.9 1213.65 1154 1203.25 1149.9 1194.15 1146.9 1187.45 1141.5 1182.75 1135.85 1177.75 1129.1 1176.45
M 960.55 1189.35
Q 955.1 1190.4 948.75 1194.7 943.1 1198.55 939.35 1203.1 935.05 1208.35 933.65 1214.05 932.15 1220.4 934.15 1227 936.15 1233.5 940.95 1238.15 945.55 1242.7 952.1 1244.85 958.45 1246.95 965.1 1246.3 973.2 1245.45 978.5 1241.2 982.85 1237.65 985.9 1230.85 988.75 1224.45 989.2 1217.8 989.7 1210.7 987.25 1204.65 984.1 1196.8 976.45 1192.35 968.65 1187.75 960.55 1189.35
M 977.55 1133.55
Q 985.6 1129.5 989.45 1121.9 992.35 1116.05 992.95 1107.5 993.7 1097.7 990.4 1091.75 987.05 1085.75 979.65 1082.9 972.95 1080.35 965.2 1081.1 957.3 1081.85 953.2 1085.55 950.45 1088.05 948.6 1092.6 948.3 1093.35 945.9 1100.85 945.15 1103.35 943.5 1108.3 942.25 1112.6 942.3 1115.85 942.35 1123.2 948.05 1129.15 953.55 1134.85 961.15 1136.15 969.5 1137.6 977.55 1133.55
M 1124.3 1077.5
Q 1119 1078.75 1115.15 1082.6 1111.15 1086.65 1110.45 1091.75 1110.35 1092.65 1110.2 1095.55 1110.1 1097.9 1109.75 1099.3 1109.35 1100.8 1108.2 1102.9 1106.65 1105.7 1106.35 1106.4 1104.25 1111.25 1105.45 1117.2 1106.5 1122.55 1109.9 1127.45 1113.45 1132.65 1118.55 1136.15 1123.85 1139.8 1129.75 1140.9 1135.95 1142 1141.95 1140.1 1148.15 1138.1 1152.15 1133.55 1156 1129.15 1157.7 1122.25 1159 1117.05 1159.2 1109.4 1159.4 1104.35 1158.95 1100.85 1158.45 1096.2 1156.75 1092.7 1153.4 1085.65 1144.7 1080.9 1139.8 1078.25 1134.75 1077.3 1129.2 1076.3 1124.3 1077.5
M 1121.6 1108
Q 1120.5 1106.45 1121.4 1105.25 1125.3 1105.05 1129.2 1103.55 1130.4 1102.95 1131.15 1103.25 1131.55 1103.4 1132.2 1104.15 1133.75 1106.2 1133.7 1107.5
L 1133.5 1108.75
Q 1133.45 1109.4 1133.6 1110.3 1133.7 1110.8 1133.9 1111.85 1134.2 1113.9 1133 1114.65 1132.35 1115.1 1130.8 1115 1129.7 1114.9 1129.45 1114.75 1128.8 1114.45 1128.2 1113.65 1126.3 1111.6 1123.9 1109.9 1122.2 1108.8 1121.6 1108
M 547.6 785.4
Q 544.05 785.7 543.6 790.3 543.25 794.25 545.15 798.3 563.35 836.4 597.85 876.5 619.1 901.15 664.15 944.9 694.8 974.7 710.6 989.05 736.95 1013 759.9 1029.85 818.05 1072.65 874.35 1085.4 878.95 1086.45 881.9 1086.75 886.1 1087.1 889.45 1086.25 893.1703125 1085.29609375 895.85 1082.75 897.071875 1082.622265625 898.3 1082.2 900.95 1081.3 903.75 1079.05 905.5 1077.7 908.45 1074.65 918 1065.05 942 1042.65
L 988.6 999.7
Q 1002.15 987.25 1009.1 981.25 1020.7 971.25 1030.75 964.2 1034 961.9 1035.3 960.9 1037.75 958.9 1039.25 956.95 1041.05 954.55 1041.65 951.85 1042.35 948.9 1041.35 946.45 1040 942.9 1035.95 941.4 1032.1 939.95 1028.1 940.95 1024.75 941.8 1021.15 944.3 1018.95 945.85 1015.05 949.35 961.45 997.55 910 1045.6 903.2 1052 899.9 1055.35 894.915625 1060.4259765625 891.25 1064.95 887.0591796875 1062.7548828125 880.6 1061.2 843.95 1052.35 805.55 1030.3 774.75 1012.6 738.25 983.55 685.85 941.85 639.5 893.15 593.2 844.45 554.15 790 552.6 787.85 551.35 786.8 549.5 785.25 547.6 785.4
M 1400.9 670.5
Q 1399.05 672.15 1396.05 675.45 1376.05 698.55 1366 710 1348.1 730.4 1334.75 743.45 1292.5 784.55 1233.65 815.5 1182.5 842.4 1117.6 862.15 1040.6 885.5 972.6 889.8 893.85 894.8 827.75 874.2 761.3 853.45 707.2 806.8 653.05 760.1 622.85 697.45 621.1 693.8 619.95 692.1 618.05 689.3 615.7 687.95 612.95 686.4 609.8 687.25 606.45 688.2 605.8 691.05 605.5 692.45 606.05 694.2 606.35 695.35 607.3 697.2 620 722.95 628.55 738.3 633.3982421875 746.999609375 638.2 754.85 637.0642578125 754.9369140625 636.05 755.45 632.3 757.35 633.3 762.65 634.1 767.1 637.45 771.35 676.4 820.95 730.9 857.65 783.95 893.4 845.75 913.05 905.7 932.1 971.2 935.2 1034.55 938.2 1098.55 926.15 1148.9 916.65 1188.25 899.7 1230.65 881.4 1274.3 848.5 1308.3 822.85 1350.35 782.25 1362.95 770.05 1369.7 762.4 1379.75 750.9 1385.75 740 1390.5 731.35 1388.25 726 1387.8654296875 725.1109375 1387.3 724.35 1403.21015625 704.83125 1416 683.75 1418.25 680 1419.05 677.3 1420.15 673.5 1418.75 670.7 1417.25 667.7 1413.6 666.7 1410.15 665.75 1406.7 666.95 1403.8 668 1400.9 670.5 Z"/>
</g>

<g id="Layer2_0_FILL">
<path fill="#000000" stroke="none" d="
M 721 826.95
Q 719.6 828.15 719.1 828.7 718 829.9 716.4 832.6 715.4 834.25 714.75 835.7 714.45 836.4 713.8 838.1 713.2 839.65 712.8 840.5 712.1 842 710.7 844 708.4 847.2 708.3 847.35 706.65 850 707 851.8 707.2 853 708.3 853.75 709.4 854.55 710.45 854.05 711.1 853.7 711.6 852.85 711.8 852.45 712.25 851.25 713.05 849.05 715.1 845.35 718.25 839.8 719.95 837.15 722.8 832.7 725.65 829.6 727.7 827.35 728.05 826 728.35 824.9 727.75 823.85 727.15 822.8 726.1 822.75 725.15 822.7 724.25 823.55 724.05 823.7 722.85 825.2 722.25 825.9 721 826.95
M 796.85 860.6
Q 796.65 859.45 796 858.65 795.3 857.7 794.35 857.7 793.45 857.75 792.8 858.6 792.2 859.4 792.1 860.45 792.05 860.95 792.15 862.4 792.2 863.6 792.05 864.3 791.9 865.25 791.15 866.5 790.15 868.25 789.95 868.65 789.3 870.1 789.1 872.6 788.8 875.8 788.6 876.65 788.3 878.15 787.4 880.1 786.95 881.25 785.9 883.45 784.4 887 782.8 894.4 782.35 896.45 782.6 897.4 782.8 898.15 783.35 898.7 784 899.3 784.7 899.3 785.85 899.25 786.85 897.75 788.15 895.75 788.65 891.75 789.25 886.95 789.8 885.45 790.15 884.45 791.85 881.4 793.2 878.9 793.5 877.2 793.65 876.35 793.65 874.3 793.7 872.45 793.95 871.45 794.2 870.5 794.95 869.1 796 867.1 796.15 866.8 797.45 863.75 796.85 860.6
M 873.05 897.5
Q 872.65 896.75 871.95 896.35 871.2 895.85 870.45 896.05 868.7 896.55 868.7 899.9
L 868.7 925.7
Q 868.7 927.45 869 928.25 869.65 929.8 870.9 929.85 871.6 929.9 872.25 929.45 872.85 929 873.1 928.3 873.5 927.45 873.5 925.5
L 873.5 900.6
Q 873.5 898.45 873.05 897.5
M 1062.5 915.05
Q 1061.35 911.5 1061.1 910.8 1060.15 908.45 1058.8 907.1 1057.65 905.9 1056.4 905.75 1055.7 905.65 1055.05 906 1054.35 906.35 1054.15 906.95 1053.75 907.9 1054.6 909.55
L 1057.95 916.8
Q 1061.3 923.95 1062.15 925.9
L 1063.5 929.05
Q 1063.8 929.85 1064.35 931.5 1064.9 932.85 1065.65 933.6 1066.45 934.4 1067.55 934.55 1068.75 934.7 1069.45 933.95 1070.6 932.7 1069.15 929.85
L 1066.85 925.05
Q 1063.7 918.65 1062.5 915.05
M 974.35 910.4
Q 972.45 910.7 972.45 914.25
L 972.35 922.3
Q 972.25 928.6 972.5 932.75 972.8 938.2 974.35 941.35 975.35 943.3 976.6 943.85 977.4 944.25 978.3 944.05 979.2 943.9 979.65 943.15 980.25 942.2 979.65 940.85 979.65 940.8 978.35 938.55 977.5 937.05 977.25 934.9 977.1 933.65 977.1 931
L 977.2 914.8
Q 977.2 912.75 976.75 911.85 976.45 911.15 975.8 910.7 975.05 910.25 974.35 910.4
M 1137.55 886.6
Q 1136.7 886.45 1136.1 886.9 1134.6 888 1135.95 891 1137.6 894.6 1140.2 898.4 1143.75 903.6 1148.95 909.2 1150.35 910.7 1151.3 911.05 1152.05 911.35 1152.8 911.25 1153.65 911.15 1154.1 910.55 1154.9 909.6 1154.35 908.1 1154 907.25 1152.8 905.95 1148.25 901.1 1146.1 898.4 1142.6 894.05 1140.7 890 1139.7 887.95 1139 887.3 1138.35 886.75 1137.55 886.6
M 1226.8 880
Q 1225.65 878.6 1222.15 876.55 1211.55 870.15 1203.4 861.1 1201.3 858.7 1199.9 857.95 1198.8 857.35 1197.6 857.4 1196.3 857.4 1195.45 858.15 1194.55 858.9 1194.6 860.25 1194.65 861.6 1195.7 862.1 1196.35 862.4 1197.85 862.45 1199 862.65 1200.1 863.7 1200.7 864.25 1201.9 865.8 1204.45 868.95 1208.2 872.15 1210.9 874.5 1215.3 877.65 1220.55 881.5 1222.3 883.35 1224.1 885.15 1224.65 885.45 1225.35 885.85 1226.15 885.85 1227.05 885.85 1227.6 885.4 1228.3 884.2 1228 882.65 1227.75 881.2 1226.8 880
M 632 715.35
Q 631.55 714.6 630.05 714.3 626.3 713.5 622.75 714.65 622.3 714.8 620 715.7 618.35 716.4 617.2 716.6 614.5 716.75 613.15 716.9 610.6 717.15 609.45 718.45 608.4 719.6 608.85 720.75 609.3 721.75 611 722.15 614.1 722.75 619.05 721.25 625.35 719.3 627.15 719.1 628.9 718.95 629.05 718.95 630.1 718.8 630.8 718.45 631.7 717.95 632.1 717.05 632.5 716.1 632 715.35
M 692.75 790.8
Q 691.8 790.5 690.8 790.75 689.5 791.15 687.6 793.05 682.65 798.1 679.75 801.45 675.6 806.2 672.8 810.55 671.95 811.95 671.85 812.75 671.8 813.35 672.1 813.9 672.35 814.5 672.9 814.7 674.55 815.2 676.2 814.4 677.85 813.6 678.45 812 678.85 810.2 679.3 809.4 679.8 808.4 681.15 807.45 682.8 806.5 683.5 805.9 684.9 804.75 686.8 801.5 688.7 798.3 690.15 797.15 692.15 795.95 693.05 795.2 694.75 793.6 694.1 792.05 693.8 791.2 692.75 790.8
M 650.7 756.55
Q 649.4 757.55 649.15 757.7 648.6 758.05 647.25 758.4 645.95 758.75 645.35 759.15 644.7 759.55 643.6 760.6 643 761.05 642.05 761.35 640.9 761.7 640.3 761.85 638.3 762.45 636.55 763.65 635.45 764.45 635.25 765.1 634.95 766.1 635.7 767.05 636.45 767.95 637.6 768.1 638.55 768.25 639.75 767.95 640.45 767.8 641.85 767.35 642.5 767.2 643.75 766.85 644.85 766.55 645.5 766.05 646.65 765.05 647.25 764.6 648 764 649.3 763.4 650 763.05 651.45 762.4 654.1 761.1 654.65 759.1 654.95 757.9 654.25 756.8 653.5 755.65 652.35 755.75 651.6 755.8 650.7 756.55
M 1296.7 828.15
Q 1296.6 827.35 1296.1 826.65 1295.4 825.8 1293.5 824.9 1290.85 823.55 1288.85 821.95 1287.05 820.6 1283.9 817.45
L 1280.5 814
Q 1279.15 812.65 1278.2 812.1 1276.75 811.35 1273.5 811.35 1271.45 811.35 1270.6 811.8 1269.9 812.1 1269.5 812.75 1269.05 813.45 1269.2 814.15 1269.5 815.55 1271.45 815.85 1272.45 816 1274.45 816.1 1275.9 816.4 1278.05 818.35
L 1286.75 826
Q 1289.3 828.3 1291.05 829.15 1293.85 830.45 1296.2 829.55 1296.75 829 1296.7 828.15
M 1334.2 752.8
Q 1332.8 753.75 1333.1 755.1 1333.35 756.1 1334.7 756.6 1334.75 756.65 1337.15 757.25 1338.9 757.75 1340.7 759.35 1341.35 759.9 1343.65 762.4 1347.35 766.35 1351.8 769.3 1352.9 769.95 1353.4 770 1354.25 770.05 1354.95 769.35 1355.55 768.65 1355.6 767.75 1355.65 766.15 1354.15 764.7 1353.65 764.2 1352.75 763.65 1351.8 763.05 1351.3 762.7 1349.75 761.65 1347.85 759.8 1345.75 757.6 1344.65 756.55 1340.55 752.7 1336.85 752.35 1335.15 752.25 1334.2 752.8
M 1372.4 718.05
Q 1373.35 718.65 1375.25 718.65 1378.05 718.75 1378.85 718.85 1380.85 719.05 1382.3 719.65 1383.8 720.25 1386.15 722
L 1390.1 724.9
Q 1391.6 726 1392.5 726.25 1394.15 726.7 1395.1 725.6 1395.7 724.9 1395.55 723.85 1395.4 722.9 1394.75 722.05 1393.95 720.9 1392.35 719.8 1390.5 718.65 1389.55 718 1387.75 716.65 1386.8 716.05 1385.15 714.95 1383.75 714.55 1382.75 714.3 1380.65 714.2
L 1376.45 714.05
Q 1375.45 713.95 1374.45 714.05 1373.9 714.1 1372.9 714.4 1371.8 714.75 1371.45 715.5 1371.15 716.15 1371.45 716.9 1371.75 717.6 1372.4 718.05 Z"/>
</g>
</defs>

<g transform="matrix( 1, 0, 0, 1, 0,0) ">
<use xlink:href="#Layer7_0_FILL"/>
</g>

<g transform="matrix( 1, 0, 0, 1, 0,0) ">
<use xlink:href="#Layer6_0_FILL"/>
</g>

<g transform="matrix( 1, 0, 0, 1, 0,0) ">
<use xlink:href="#Layer3_0_FILL"/>
</g>

<g transform="matrix( 1, 0, 0, 1, 0,0) ">
<use xlink:href="#Layer2_0_FILL"/>
</g>
</svg>
