
<svg xmlns="http://www.w3.org/2000/svg" version="1.1" xmlns:xlink="http://www.w3.org/1999/xlink" preserveAspectRatio="none" x="0px" y="0px" width="2000px" height="2000px" viewBox="0 0 2000 2000">
<defs>
<g id="Layer5_0_FILL">
<path fill="#000000" stroke="none" d="
M 311.1 458.75
Q 304.4 462.6 298.35 469.75 285.1 485.45 278.95 508.25 273.7 527.9 273.95 551.95 264.6 544.95 259.7 541.7 251.5 536.3 244.35 533.25 235.8 529.6 227.4 528.65 218.15 527.65 210.15 530.1 201.5 532.8 195.45 539.5 189.15 546.55 188.4 555.05 187.85 561.2 190.65 570.45 195.05 585.15 202.9 598.6 206.41328125 604.574609375 210.5 610.1 210.4482421875 610.0943359375 210.4 610.1 204.95 610.75 201.1 612.9 196.55 615.35 194.45 620.1 192.2 625.1 194.35 629.35 194.5796875 629.809375 194.85 630.25 190.856640625 666.3294921875 194.45 702.7 198.15 740.2 209.65 775.8 220.4 808.8 235.95 834.1 255.95 866.6 286.55 890.75 317.1 914.9 353.4 926.85 389.7 938.8 428.65 937.5 467.55 936.25 503 922 516.85 916.45 516.8 908 516.7517578125 903.7076171875 513 900.5 513.114453125 899.1845703125 513.15 898.9 513.4 897 514.45 894.6 515.7 891.8 516.3 890.4 517.25 888.15 518.35 884.65 519.8 880.2 520.15 878.6 520.65 876.5 521.35 872.2 521.6 870.65 523.55 860.7 524.4 856.65 524.85 855.1 525.65 851.95 526.7 849.6 527.45 848 527.8 847.2 528.4 845.8 528.65 844.75 529 843.15 528.9 840.05 528.75 836.8 529 835.35 529.15 834.4 529.6 832.8 530.05 831 530.2 830.25 530.4 829.15 530.5 827 530.6 824.8 530.75 823.8 530.9 822.9 531.45 821 532 819.15 532.15 818.15 532.4 816.55 532.05 812.1 531.9767578125 810.972265625 531.95 810 536.0646484375 808.295703125 538.15 806.05 539.9 804.2 540.5 801.85 541.2 799.3 540.3 797.15 539.2 794.5 536.15 793.2 533.35 792.05 530.15 792.35 527.9 792.55 524.3 793.55 520 794.8 518.45 795.05 514.3 795.8 509.15 795.15 505.5 794.7 499.9 793.3 487.65 790.2 479.7 786.5 469.1 781.6 462.75 774.3 459.9 771.05 457.25 766.55 455.35 763.25 452.85 758.05 446.9 745.4 444.6 736.3 439.7 716.4 445.15 692 447.35 682.25 451.45 670.6 454.2 662.8 459.5 649.75 461.45 645.05 462.2 642.4 463.3 638.25 462.9 634.8 462.45 630.75 459.65 627.8 457.522265625 625.566015625 455.05 625.05 454.6833984375 624.7626953125 454.3 624.5 451.95 623 448.7 622 446.4 621.3 442.6 620.6 432.77890625 618.7697265625 421.85 617.35 423.0251953125 616.2626953125 424.15 615.1 432.45 606.5 438.2 595.25 446.9 578.2 444 564.75 441.55 553.65 431.55 545.65 422.1 538.15 409.95 536.35 399.2 534.75 386.65 537.35 376.6 539.45 364.15 544.65 367 522.9 363.7 504.45 359.85 483.15 348.1 468.5 343.65 462.9 338.6 459.5 332.75 455.55 326.7 454.95 319 454.2 311.1 458.75
M 226.95 548.4
Q 231.35 549.4 237.3 552 257.35 560.85 273.85 575.1 277.55 578.35 278.85 579.3 281.75 581.55 284.4 582.55 287.6 583.8 290.8 583.45 294.35 583 296.45 580.7 299.25 577.6 298.7 572.1 298.5 570.1 296.5 562.4 295.2 557.3 294.9 551 294.7 546.2 295.05 539.35 295.95 521.25 299.65 508.35 304.4 491.95 314.2 481.6 320.3 475.2 325.7 476.15 329.75 476.8 333.75 482.25 344.3 496.55 345.6 518.5 346.05 527.2 345 537.75 344.25 545.05 342.3 556.9 340 570.65 346.4 574.3 349.8 576.25 354.6 574.75 357.8 573.7 362.7 570.6 388.8 554.05 408.35 558.2 412.6 559.05 415.8 560.9 419.45 563.05 421.25 566.25 423.7 570.7 422.35 576.7 421.2 581.7 417.65 586.8 410.35 597.45 399.1 603.8 396.95 605.05 392.45 607.35 388.55 609.5 386.25 611.55 385.0025390625 612.67265625 384.05 613.9 367.55625 612.99375 343.2 612.3 289.9244140625 610.739453125 236.65 609.95 236.0830078125 609.3427734375 235.45 608.7 231.65 605.15 229.85 603.3 222.8 596.2 217.45 584.85 214.15 577.85 209.4 563.75 208.25 560.3 208 558.25 207.65 555.1 208.8 552.85 210.7 549.25 216.3 548.1 221.15 547.1 226.95 548.4
M 316.6 684.85
Q 295.2 684.85 262.5 684.15 215.037890625 683.0953125 208.85 682.95 207.722265625 659.592578125 209.35 636.05 210.1572265625 636.0578125 211 636 213.1 635.85 217.35 635.4 224.6 634.7 239.15 634.9 305.75 635.8 339 637 394.4 639 438.55 643.6 438.6986328125 643.616015625 438.85 643.6 436.3259765625 650.24375 433.25 659.5 428.3 674.5 426.15 682.6 425.6609375 684.4359375 425.2 686.2 424.3724609375 686.1150390625 423.45 686.05 401.35 684.6 370.05 684.6 334.4 684.9 316.6 684.85
M 216.9 745.35
Q 211.5130859375 719.710546875 209.5 693.85 267.040234375 697.0376953125 325.35 696.6 340.3 696.5 344.6 696.55 355.45 696.65 363.8 697.35 366.6 697.6 374.7 698.5 381.5 699.25 385.55 699.55 391.2 699.95 404.85 700.05
L 421.75 700.05
Q 422.159375 700.05 422.55 700.05 422.090234375 703.2615234375 421.85 706.3 420.1 727 426.65 749.05 429.55 758.65 433.4 766.6 439.9 779.8 450.05 790.25 460.5 800.95 473.4 807.15 486.65 813.5 501.35 814.55 514.97421875 815.5037109375 527.35 811.6 527.437890625 814.93125 527.4 815.5 527.3 816.95 526.8 819.25 526.15 822.25 526.05 823 525.95 823.85 525.75 826.15 525.55 828.15 525.35 829.3 525.25 829.75 524.65 832 524.2 833.65 524.1 834.7 523.95 836 524.1 839.45 524.25 842.4 523.8 844.1 523.5 845.4 522.5 847.3 521.25 849.75 521 850.35 520 852.75 519.45 857.35 518.85 862.45 518.25 864.45 518.1 864.95 517.1 867.7 516.4 869.65 516.2 870.95 516.05 871.9 516.1 874.3 516.15 876.4 515.85 877.6 515.55 878.85 514.6 880.75 513.4 883.05 513.1 883.8 512.7 884.85 512.2 887.15 511.7 889.4 511.25 890.45 511 891.05 509.75 893.35 508.8 895.1 508.5 896.3 508.374609375 896.8017578125 508.3 897.75 506.33046875 897.0849609375 504.15 896.95 500.1 896.7 495.1 898.2 492.85 898.85 486.4 901.4 451 915.35 412.1 915 373.2 914.7 338.1 900.1 303 885.55 275.25 858.25 247.5 830.95 232.4 796.05 222.95 774.1 216.9 745.35
M 1530.35 506.25
Q 1526.35 512.3 1527.05 522.2 1528.15 538.15 1539.3 553.3 1545.4013671875 561.53203125 1554.1 569.1 1553.467578125 569.91171875 1552.9 570.85 1550.65 574.55 1550.1 579.2 1549.65 583.1 1550.35 587.95 1550.75 590.65 1552.05 596.6 1559.2 629.75 1560.2 655.7 1561.5 687.9 1553.8 714.25 1545.1 744.1 1524.4 765.8 1502.3 789.05 1474.15 794.4 1468.75 795.3 1466.05 795.85 1461.4 796.85 1458.3 798.35 1454.35 800.3 1451.95 803.55 1449.25 807.15 1449.5 811.05 1449.9 817.85 1457.85 821.1 1459.38046875 821.7189453125 1461 822.15 1465.0740234375 829.456640625 1468.5 838.55 1471.7 847.1 1476.6 864.5 1477.6 867.95 1477.95 869.8 1478.55 872.75 1478.5 875.15 1478.4513671875 877.0947265625 1478.05 880.9 1473.6650390625 881.995703125 1471.25 885.15 1468.7 888.45 1468.95 893.15 1469.2 897.55 1471.7 901.3 1473.95 904.55 1477.75 907.35 1480.7 909.45 1485.25 911.7 1503.15 920.4 1527.25 923.95 1544.25 926.45 1571.45 927 1591.5 927.4 1604.4 926.75 1622.4 925.85 1636.95 922.7 1679.95 913.35 1715.7 880.8 1749.3 850.15 1768.15 806.95 1800.25 733.45 1789.35 628.5 1786.85 604.1 1782.55 588.25 1780.95 582.5 1779.2 579 1776.75 574.15 1773.2 571.5 1769.2 568.55 1763 567.8 1759.4181640625 567.3578125 1753.3 567.6 1763.0404296875 557.30078125 1769.15 549.1 1774.4 542.05 1777.5 535.85 1781.3 528.25 1782.4 521.1 1783.6 513 1781.3 505.5 1778.85 497.45 1773 492.65 1763.45 484.7 1745.45 486.1 1724.35 487.8 1706.4 498.75
L 1703 473.55
Q 1700.8 457.65 1698.8 449.75 1695.55 436.75 1689.7 427.8 1683.4 418.35 1676 417.7 1671.25 417.35 1666.35 420.7 1662.75 423.2 1658.55 428.15 1642.7 447.2 1632.2 469.95 1621.75 492.75 1617.7 517.2 1611 514.9 1600.2 509.85 1587.35 503.85 1582.8 502 1561.4 493.45 1545.7 496.95 1540.85 498 1537.05 500.2 1532.75 502.65 1530.35 506.25
M 1599 529.7
Q 1613.1 537.6 1615.35 538.75 1626.95 544.65 1632.75 540.2 1635.6 538 1636.6 533.45 1637.2 530.85 1637.4 525.1 1638.2 505 1647.6 483.3 1655.2 465.75 1669.3 445.35 1671.4 442.3 1673.35 442.3 1676.2 442.35 1677.4 447.3 1685.65 478.9 1686.7 511.9 1686.85 516.7 1687.05 518.55 1687.5 522.25 1688.6 524.9 1689.95 528.15 1692.55 530.25 1695.35 532.55 1698.55 532.5 1702.3 532.45 1706.1 529.05 1708.3 527.05 1712.25 522.4 1718.35 515.9 1728.2 512.05 1736 509 1747.05 507.3 1755.9 506 1758.75 510 1761.2 513.3 1758.85 520 1755.15 530.25 1746.95 540.35 1740.75 548.05 1730.25 557.5 1727.2 560.3 1726.05 561.5 1723.8 563.85 1722.5 566.05 1721.6685546875 567.5466796875 1721.2 569.05 1690.31796875 570.248828125 1659.4 570.55 1633.4 570.85 1617.35 570 1598.5478515625 569.0638671875 1582.75 566.4 1581.2900390625 565.234765625 1579.3 563.95 1571.7 559.05 1566.85 555.2 1560.35 550.05 1555.95 544.7 1550.85 538.55 1548.25 531.6 1545.4 524.05 1546 516.8 1562.05 512.75 1582.35 521.35 1589.1 524.15 1599 529.7
M 1616.15 655.3
Q 1599.5935546875 656.2001953125 1585.7 657.7 1585.370703125 628.8501953125 1579.25 593.6 1667.8 598.45 1755.35 594.4 1761.15 610.75 1763.75 630.9 1764.890625 639.9138671875 1765.45 650.55
L 1654.2 653.85
Q 1628.8 654.6 1616.15 655.3
M 1585.65 666.55
L 1616 666.5
Q 1633 666.5 1650 666.35 1711.15078125 665.908984375 1765.9 663 1765.973828125 665.7390625 1766 668.55 1766.3 706.75 1760.85 738.4 1754.5 775.2 1740.2 804.8 1724.35 837.55 1698.7 860.9 1671.25 885.85 1638.55 894.5 1621.4 899.05 1599.25 899.7 1585.3 900.05 1559.35 898.7 1540.2 897.65 1530.05 896.05 1513.95 893.5 1502.2 887.8 1497.15 885.15 1494.65 883.95 1490.2 881.75 1486.75 880.95 1484.8880859375 880.531640625 1483.05 880.45 1483.3501953125 877.3775390625 1483.1 873.95 1482.7 868.8 1480.95 861.65 1476.065234375 841.4767578125 1466.65 823.05 1469.7380859375 823.2443359375 1473.05 822.85 1507.1 818.85 1535.25 792.95 1561.65 768.7 1574.15 733.8 1584.9478515625 703.692578125 1585.65 666.55 Z"/>

<path fill="#003366" stroke="none" d="
M 209.5 693.85
Q 211.5130859375 719.710546875 216.9 745.35 222.95 774.1 232.4 796.05 247.5 830.95 275.25 858.25 303 885.55 338.1 900.1 373.2 914.7 412.1 915 451 915.35 486.4 901.4 492.85 898.85 495.1 898.2 500.1 896.7 504.15 896.95 506.33046875 897.0849609375 508.3 897.75 508.374609375 896.8017578125 508.5 896.3 508.8 895.1 509.75 893.35 511 891.05 511.25 890.45 511.7 889.4 512.2 887.15 512.7 884.85 513.1 883.8 513.4 883.05 514.6 880.75 515.55 878.85 515.85 877.6 516.15 876.4 516.1 874.3 516.05 871.9 516.2 870.95 516.4 869.65 517.1 867.7 518.1 864.95 518.25 864.45 518.85 862.45 519.45 857.35 520 852.75 521 850.35 521.25 849.75 522.5 847.3 523.5 845.4 523.8 844.1 524.25 842.4 524.1 839.45 523.95 836 524.1 834.7 524.2 833.65 524.65 832 525.25 829.75 525.35 829.3 525.55 828.15 525.75 826.15 525.95 823.85 526.05 823 526.15 822.25 526.8 819.25 527.3 816.95 527.4 815.5 527.437890625 814.93125 527.35 811.6 514.97421875 815.5037109375 501.35 814.55 486.65 813.5 473.4 807.15 460.5 800.95 450.05 790.25 439.9 779.8 433.4 766.6 429.55 758.65 426.65 749.05 420.1 727 421.85 706.3 422.090234375 703.2615234375 422.55 700.05 422.159375 700.05 421.75 700.05
L 404.85 700.05
Q 391.2 699.95 385.55 699.55 381.5 699.25 374.7 698.5 366.6 697.6 363.8 697.35 355.45 696.65 344.6 696.55 340.3 696.5 325.35 696.6 267.040234375 697.0376953125 209.5 693.85
M 1616 666.5
L 1585.65 666.55
Q 1584.9478515625 703.692578125 1574.15 733.8 1561.65 768.7 1535.25 792.95 1507.1 818.85 1473.05 822.85 1469.7380859375 823.2443359375 1466.65 823.05 1476.065234375 841.4767578125 1480.95 861.65 1482.7 868.8 1483.1 873.95 1483.3501953125 877.3775390625 1483.05 880.45 1484.8880859375 880.531640625 1486.75 880.95 1490.2 881.75 1494.65 883.95 1497.15 885.15 1502.2 887.8 1513.95 893.5 1530.05 896.05 1540.2 897.65 1559.35 898.7 1585.3 900.05 1599.25 899.7 1621.4 899.05 1638.55 894.5 1671.25 885.85 1698.7 860.9 1724.35 837.55 1740.2 804.8 1754.5 775.2 1760.85 738.4 1766.3 706.75 1766 668.55 1765.973828125 665.7390625 1765.9 663 1711.15078125 665.908984375 1650 666.35 1633 666.5 1616 666.5 Z"/>

<path fill="#7A5050" stroke="none" d="
M 262.5 684.15
Q 295.2 684.85 316.6 684.85 334.4 684.9 370.05 684.6 401.35 684.6 423.45 686.05 424.3724609375 686.1150390625 425.2 686.2 425.6609375 684.4359375 426.15 682.6 428.3 674.5 433.25 659.5 436.3259765625 650.24375 438.85 643.6 438.6986328125 643.616015625 438.55 643.6 394.4 639 339 637 305.75 635.8 239.15 634.9 224.6 634.7 217.35 635.4 213.1 635.85 211 636 210.1572265625 636.0578125 209.35 636.05 207.722265625 659.592578125 208.85 682.95 215.037890625 683.0953125 262.5 684.15
M 1585.7 657.7
Q 1599.5935546875 656.2001953125 1616.15 655.3 1628.8 654.6 1654.2 653.85
L 1765.45 650.55
Q 1764.890625 639.9138671875 1763.75 630.9 1761.15 610.75 1755.35 594.4 1667.8 598.45 1579.25 593.6 1585.370703125 628.8501953125 1585.7 657.7 Z"/>

<path fill="#85BE98" stroke="none" d="
M 237.3 552
Q 231.35 549.4 226.95 548.4 221.15 547.1 216.3 548.1 210.7 549.25 208.8 552.85 207.65 555.1 208 558.25 208.25 560.3 209.4 563.75 214.15 577.85 217.45 584.85 222.8 596.2 229.85 603.3 231.65 605.15 235.45 608.7 236.0830078125 609.3427734375 236.65 609.95 289.9244140625 610.739453125 343.2 612.3 367.55625 612.99375 384.05 613.9 385.0025390625 612.67265625 386.25 611.55 388.55 609.5 392.45 607.35 396.95 605.05 399.1 603.8 410.35 597.45 417.65 586.8 421.2 581.7 422.35 576.7 423.7 570.7 421.25 566.25 419.45 563.05 415.8 560.9 412.6 559.05 408.35 558.2 388.8 554.05 362.7 570.6 357.8 573.7 354.6 574.75 349.8 576.25 346.4 574.3 340 570.65 342.3 556.9 344.25 545.05 345 537.75 346.05 527.2 345.6 518.5 344.3 496.55 333.75 482.25 329.75 476.8 325.7 476.15 320.3 475.2 314.2 481.6 304.4 491.95 299.65 508.35 295.95 521.25 295.05 539.35 294.7 546.2 294.9 551 295.2 557.3 296.5 562.4 298.5 570.1 298.7 572.1 299.25 577.6 296.45 580.7 294.35 583 290.8 583.45 287.6 583.8 284.4 582.55 281.75 581.55 278.85 579.3 277.55 578.35 273.85 575.1 257.35 560.85 237.3 552
M 1615.35 538.75
Q 1613.1 537.6 1599 529.7 1589.1 524.15 1582.35 521.35 1562.05 512.75 1546 516.8 1545.4 524.05 1548.25 531.6 1550.85 538.55 1555.95 544.7 1560.35 550.05 1566.85 555.2 1571.7 559.05 1579.3 563.95 1581.2900390625 565.234765625 1582.75 566.4 1598.5478515625 569.0638671875 1617.35 570 1633.4 570.85 1659.4 570.55 1690.31796875 570.248828125 1721.2 569.05 1721.6685546875 567.5466796875 1722.5 566.05 1723.8 563.85 1726.05 561.5 1727.2 560.3 1730.25 557.5 1740.75 548.05 1746.95 540.35 1755.15 530.25 1758.85 520 1761.2 513.3 1758.75 510 1755.9 506 1747.05 507.3 1736 509 1728.2 512.05 1718.35 515.9 1712.25 522.4 1708.3 527.05 1706.1 529.05 1702.3 532.45 1698.55 532.5 1695.35 532.55 1692.55 530.25 1689.95 528.15 1688.6 524.9 1687.5 522.25 1687.05 518.55 1686.85 516.7 1686.7 511.9 1685.65 478.9 1677.4 447.3 1676.2 442.35 1673.35 442.3 1671.4 442.3 1669.3 445.35 1655.2 465.75 1647.6 483.3 1638.2 505 1637.4 525.1 1637.2 530.85 1636.6 533.45 1635.6 538 1632.75 540.2 1626.95 544.65 1615.35 538.75 Z"/>
</g>
</defs>

<g transform="matrix( 1, 0, 0, 1, 0,0) ">
<use xlink:href="#Layer5_0_FILL"/>
</g>
</svg>
