
<svg xmlns="http://www.w3.org/2000/svg" version="1.1" xmlns:xlink="http://www.w3.org/1999/xlink" preserveAspectRatio="none" x="0px" y="0px" width="2000px" height="2000px" viewBox="0 0 2000 2000">
<defs>
<g id="Layer19_0_FILL">
<path fill="#000000" fill-opacity="0.7490196078431373" stroke="none" d="
M 1082.25 789.75
Q 1078.75 788.3 1074.75 788.5 1071.35 788.65 1067.4 789.95 1064.85 790.8 1060.3 792.75 1022.95 808.75 999.8 822 967.9 840.3 946.4 861.75 940.45 867.65 933 876.3 921.35 889.9 915.2 900.6 907.05 914.7 903.9 930.45 900.6 946.65 903.05 962.2 905.6 978.25 914.15 992.1 922.85 1006.3 936 1015.05 949.45 1024.05 965.8 1026.05 982.45 1028.05 997.15 1022.2 1011.25 1016.55 1026.4 1002 1050.85 978.8 1061.9 952.7 1066.95 940.8 1070.4 925 1072.45 915.7 1075.55 896.3
L 1089.15 809.4
Q 1089.95 804.45 1089.85 801.65 1089.75 797.35 1087.9 794.45 1086 791.35 1082.25 789.75
M 1053.55 813.45
Q 1056 813.25 1061 813.1 1065.35 812.7 1068.05 811.25 1061.4 866.55 1050.2 920.7 1047.75 932.45 1045.65 938.6 1042.15 949.05 1035.35 959.65 1029.65 968.6 1021.1 978.45 1014.95 985.45 1009.7 990.2 1003.15 996.1 996.6 999.9 989.2 1004.2 981.4 1006 973 1007.85 965.25 1006.5 954.5 1004.65 944.7 996.5 936.4 989.55 929.4 978.65 923.75 969.75 921.85 962.4 918.75 950.4 923.3 932.8 926.5 920.2 931.5 910.7 935.95 902.25 943.45 893.05 948.05 887.4 957.75 877 963.45 870.9 966.45 867.95 971.4 863 975.75 859.5 980.35 855.85 988 850.95 998.9 843.95 1000.6 842.8 1001.1 842.45 1017.6 830.35 1027.8 822.85 1035.25 819.1 1045 814.2 1053.55 813.45 Z"/>

<path fill="#0033CC" fill-opacity="0.7490196078431373" stroke="none" d="
M 1061 813.1
Q 1056 813.25 1053.55 813.45 1045 814.2 1035.25 819.1 1027.8 822.85 1017.6 830.35 1001.1 842.45 1000.6 842.8 998.9 843.95 988 850.95 980.35 855.85 975.75 859.5 971.4 863 966.45 867.95 963.45 870.9 957.75 877 948.05 887.4 943.45 893.05 935.95 902.25 931.5 910.7 926.5 920.2 923.3 932.8 918.75 950.4 921.85 962.4 923.75 969.75 929.4 978.65 936.4 989.55 944.7 996.5 954.5 1004.65 965.25 1006.5 973 1007.85 981.4 1006 989.2 1004.2 996.6 999.9 1003.15 996.1 1009.7 990.2 1014.95 985.45 1021.1 978.45 1029.65 968.6 1035.35 959.65 1042.15 949.05 1045.65 938.6 1047.75 932.45 1050.2 920.7 1061.4 866.55 1068.05 811.25 1065.35 812.7 1061 813.1 Z"/>
</g>

<g id="Layer18_0_FILL">
<path fill="#000000" fill-opacity="0.2" stroke="none" d="
M 1076.5 824.35
Q 1077.55 819.55 1077.85 817.1 1078.4 813.05 1078 809.8 1077.55 805.95 1075.7 802.85 1073.7 799.45 1070.55 797.9 1066.25 795.8 1061.1 797.5 1056.25 799.15 1052.95 803.2 1050.15 806.7 1048.4 811.9 1047.2 815.4 1045.95 821.6 1043.7 832.6 1038.9 859.7 1034.55 884.2 1031.55 897.75 1022 941.5 1006.4 969.95 1001.8 978.4 997 983.35 990.75 989.75 983.5 991 975.2 992.45 963.95 986.75 950.45 979.85 940.3 968.1 930.2 956.4 925.35 942.05 924 938.25 923.3 936.85 921.85 934.05 919.7 932.9 916.7 931.25 913.1 932.9 909.65 934.5 908.05 937.8 905.65 942.8 907.35 951.7 911.15 971.2 923.45 987.7 935.7 1004.2 953.3 1013.5 966.55 1020.4 978.25 1020.75 989.9 1021.1 1001.45 1015.1 1012.05 1009.55 1020.4 999.85 1027.65 991.45 1033.6 979.55 1038 970.75 1043.05 957.1 1052.1 932.25 1057.95 908.55 1060.4 898.65 1063.65 883.55
L 1076.5 824.35 Z"/>
</g>
</defs>

<g transform="matrix( 1, 0, 0, 1, 0,0) ">
<use xlink:href="#Layer19_0_FILL"/>
</g>

<g transform="matrix( 1, 0, 0, 1, 0,0) ">
<use xlink:href="#Layer18_0_FILL"/>
</g>
</svg>
