
<svg xmlns="http://www.w3.org/2000/svg" version="1.1" xmlns:xlink="http://www.w3.org/1999/xlink" preserveAspectRatio="none" x="0px" y="0px" width="2000px" height="2000px" viewBox="0 0 2000 2000">
<defs>
<g id="Layer19_0_FILL">
<path fill="#000000" stroke="none" d="
M 884.45 577.5
Q 880.9408203125 584.45234375 876.25 589.8 835.3775390625 566.4875 784.2 561.95 728.6 557 674.05 575.1 645.75859375 584.5025390625 625.7 597.75 602.18984375 605.249609375 586.05 613.25 553.8 629.25 536.7 653 532.8203125 658.3884765625 529.3 664.8 528.871875 664.632421875 528.4 664.4 523.65 661.95 519.9 658.1 516.05 654.15 513.75 649.35 511.95 645.7 510.25 639.1 508.9 633.9 508.65 630.5 508.45 627.4 508.95 623.5 509.2 621.3 510.1 616.6
L 512.2 605.85
Q 513.75 597.55 515.25 593.2 516.9 588.35 521.55 579.65
L 528.3 566.85
Q 532.9 558.15 535.8 554.15
L 534.2 552.5
Q 518.15 564.05 508.35 581.05 504.55 587.8 502.7 593.55 501.3 597.8 499.95 605.5 498.9 611.75 498.15 618.2 497.2 626.95 497.4 633.05 497.7 641.15 499.95 647.45 501.85 652.9 506.5 660 511.191796875 667.0587890625 515.75 670.95 515.540625 670.937890625 515.3 670.9 495.65 667.75 480.85 656.6 473.2 650.9 467.4 643.45 461.5 635.8 458.2 627.15 456.2 621.4 455.1 618.55 453 613.15 452.75 612.35 451.95 609.85 451.45 606.35 451 602.25 450.75 600.2 449.85 593.3 447.9 586.65
L 445.9 586.7
Q 444.5 593.4 443 602.1 442.25 606.8 442.05 609.45 441.8 613.55 442.5 616.8 442.8 618.25 443.65 620.5 444.65 623.4 444.9 624.2 445.3 625.5 446.2 629.65 446.95 633.05 447.7 635.05 449.1 638.55 453.4 644.6 457.65 650.55 460 653.55 463.8 658.4 467.25 661.9 474.75 669.4 484.3 674.65 493.75 679.85 504.2 682.25 511.55 683.95 519.45 684.25 519.9845703125 684.2666015625 520.5 684.25 519.242578125 687.591015625 518.05 691.1 516.3 696.2 506 732.4 498.95 757.05 490.85 772.8 480.05 793.85 464.6 805.7 447.05 819.2 422 822.55 399.8 825.5 375 820.25 356.55 816.3 330.4 806.3 301.4 794.6 286.65 789.35 279.7 786.9 273.95 787.35 266.9 787.95 264.8 793.15 263.5 796.4 265 800.55 266.05 803.45 268.85 807.55 288.75 836.45 313.2 857.35 339.85 880.15 369.8 891.55 401.9 903.75 435.45 901.55 452.736328125 900.3958984375 468.1 895.5 450.04375 912.444921875 426.95 924.15 390.4 942.6 350.85 943.1 345 943.15 342.75 943.35 338.25 943.8 335 945.25 331.15 947 328.9 950.5 326.55 954.3 327.6 958 328.65 961.9 333.05 964.35 336.2 966.15 341.65 967.35 370.9 973.75 406.5 975.9 433.5 977.55 472.1 976.95 486.73984375 976.7111328125 499.6 976.05 499.846484375 988.7845703125 502.15 1007.95 505.5 1035.85 506 1041.95 507.5 1061.1 505.65 1076.25 503.4 1094.55 496.05 1108.6 489.5 1121.2 476.2 1134.65 475.75 1135.1 451.9 1157.35 441.5 1167.1 443.95 1174.5 445.45 1178.9 450.85 1181.15 454.75 1182.8 461.2 1183.45
L 500 1187.45
Q 487.25 1203.4 480.2 1210.85 468.45 1223.15 456.9 1230.2 451.25 1233.6 448.8 1236 444.9 1239.9 445.35 1244.1 445.85 1248.7 451.05 1251.45 455 1253.5 461.3 1254.35 484.2 1257.35 500.25 1258.85 521.4 1260.85 539.3 1261.1 540.438671875 1261.109765625 541.45 1261.05
L 541.5 1261.1 552.9 1293.85
Q 555 1299.85 556.3 1302.75 558.4375 1307.462109375 561.05 1310.65 531.1734375 1317.1751953125 498.8 1331.3 496.6 1332.3 495.5 1333 493.8 1334.15 493.1 1335.6 491.7 1338.4 493.7 1341.5 495.65 1344.45 498.95 1345.15 501.8 1345.8 505.3 1345 507.55 1344.5 511.5 1342.95 554.85 1326.4 592.15 1323.95 613.65 1322.55 633.65 1325.7 654.95 1329.05 673.35 1337.4 684.5 1342.45 697.5 1350.75 709.65 1358.45 717.6 1365.35 727.7 1374.15 733.75 1383.75 735.05 1385.75 737.55 1389.85 739.9 1393.25 742.3 1395.1 745.3 1397.35 749 1397.5 753 1397.65 755.25 1395.05 759.6 1389.95 753.25 1379.2 749.9 1373.55 748.25 1371 745.35 1366.5 742.65 1363.25 739.4 1359.4 734.85 1355.25 732.2544921875 1352.95234375 727.85 1349.4 735.5455078125 1344.8119140625 740.15 1342.25 751.6 1335.9 760.85 1332.85 768.75 1330.3 779.1 1328.8 785 1327.95 797.8 1326.75 813.65 1325.4 821.35 1325.15 834.45 1324.7 844.8 1326.1 869.5 1329.35 892.85 1344.1 914.2 1357.6 931.6 1378.75 933.7 1381.3 934.8 1382.4 936.7 1384.35 938.6 1385.3 940.9 1386.45 943.35 1386.25 946 1386 947.5 1384.25 949.85 1381.45 948.4 1376.25 946.8 1370.55 940.5 1362.9 926.7220703125 1345.90390625 909.8 1333.5 910.3470703125 1332.92421875 911 1332.2 915.7 1327 922.45 1321.7 927.2 1318 935.15 1312.7 950.35 1302.45 961.7 1296.05 976.55 1287.7 990 1282.75 1005.5 1277 1020.45 1275.3 1036.8 1273.4 1051.5 1276.45 1066.2 1279.45 1085.4 1289.35 1099.3 1296.4 1109.25 1303.55 1121.35 1312.25 1129.4 1322.25 1131.95 1325.45 1136.7 1332.1 1141.05 1338 1144.7 1341.25 1147.6 1343.85 1150.65 1344.8 1154.25 1345.95 1156.85 1344.25 1158.6 1343.1 1159.4 1340.85 1160.1 1338.8 1159.8 1336.55 1159.35 1333.45 1156.45 1328.6 1145.1 1309.85 1129.05 1295.05 1113.39453125 1280.6392578125 1094.9 1271.5 1095.9244140625 1270.39453125 1097.05 1268.8
L 1105.65 1256.6
Q 1110 1250.55 1112.4 1248.1 1114.75 1245.75 1118.15 1243.4 1120.25 1241.9 1124.45 1239.35 1137.15 1231.75 1145.35 1227.65 1157.15 1221.8 1167.55 1218.9 1179.7 1215.55 1191.3 1215.95 1203.95 1216.4 1214.25 1221.4 1220.3 1224.3 1226.85 1229.55 1230.85 1232.75 1238.15 1239.55 1246.45 1247.3 1250.8 1251.75 1257.55 1258.75 1262.15 1265.1 1264.8 1268.8 1269.95 1276.4 1274.7 1282.75 1279.45 1285.9 1283.55 1288.65 1286.4 1287.45 1289.15 1286.35 1289.5 1282.65 1289.75 1279.6 1288.45 1276.05 1284.2 1264.75 1275.15 1253.3 1268.5 1244.85 1256.95 1233.75 1242.85 1220.3 1231.7 1212.85 1216.75 1202.85 1202.2 1199.9 1188.05 1196.95 1172.1 1199.95 1166.522265625 1200.99453125 1160.8 1202.75 1161.2935546875 1199.5431640625 1160.4 1196.05 1159.9 1194.15 1157.65 1188.45 1155.8 1183.8 1155.45 1180.8 1175.2 1181.55 1194.3 1175.15 1213.45 1168.75 1228.75 1156.25 1234.75 1151.35 1237.5 1145.8 1240.85 1139.05 1237.9 1133.75 1235.7 1129.85 1230.35 1127.9 1227.15 1126.75 1220.35 1125.7 1184.85 1120.55 1153.8 1102.8 1168.6 1098.1 1181.9 1090.3 1186.6 1087.5 1189.5 1085.15 1193.35 1082 1195.45 1078.45 1197.95 1074.35 1198.05 1069.75 1198.15 1064.8 1195.4 1061.35 1192.45 1057.7 1186.35 1056.3 1184.5 1055.85 1175.35 1054.85 1157.75 1052.9 1141.35 1041.65 1126.5 1031.35 1115.15 1015.25 1105.7 1001.75 1097.6 982.7 1092.75 971.25 1084.7 947.8
L 1061.1 878.75
Q 1060.7486328125 877.726171875 1060.35 876.75 1100.2423828125 882.2919921875 1130.2 873.1 1139.3 870.35 1150.05 865.35 1156.6 862.3 1169.15 855.75
L 1189.6 845.1
Q 1193.25 843.25 1195.15 842.05 1198.05 840.15 1199.9 838 1202.05 835.5 1202.8 832.45 1203.6 829.1 1202.4 826.4 1200.95 823.05 1196.7 821.1 1193.95 819.85 1188.6 818.7 1166.4 814.05 1140.2 803.1 1124.2 796.45 1093.85 781.5
L 1092.05 780.6
Q 1105.3189453125 779.22109375 1118.5 776.4 1145.65 770.55 1170.65 759 1174.5 757.25 1176.6 755.6 1179.6 753.25 1180.35 750.3 1181.95 744.45 1175.65 740 1170.5 736.3 1162.7 734.9
L 1096.45 722.95
Q 1068.8 718 1054.65 714.4 1031.7 708.55 1014.8 700.05 1001.1 693.2 986.8 682.45 975.35 673.85 961.4 661.05 937.8 638.55 925.85 627.55 904.85 608.25 887.95 597.05 886.5998046875 596.1548828125 885.25 595.25 896.61875 579.9859375 900.75 560.95 906.1 536.5 897.15 515.45 896.4 513.75 895.25 512.75 893.85 511.6 892.6 512.3 893.25 527 893.15 534.45 893.05 546.75 891.3 556.45 889.2 568 884.45 577.5
M 738.65 583.35
Q 767.1 580.45 794 584.4 822.4 588.55 846.8 600.1 867.7 610 890.7 628.15 903.2 638 930.55 662.65 955.9 685.5 970.65 696.6 993.7 713.9 1015.3 722.9 1028.15 728.25 1044.4 732.3 1056.2 735.25 1074.4 738.5 1099.75 743.05 1149.95 750.4 1128.8 760.7 1105.15 764.35 1081.5 768.05 1058.2 764.65 1054.85 764.15 1053.05 764.2 1050.2 764.35 1048.4 765.7 1045.55 767.85 1046.1 772.05 1046.6 776.1 1049.65 778.5 1051.9130859375 780.2505859375 1055.2 781.1 1056.627734375 782.1158203125 1058.35 783.1 1111.15 813.6 1169.2 834.25 1149.4 844.6 1138.85 849.05 1121.55 856.25 1106.7 858.4 1097.55 859.7 1086.7 859.5 1078.2 859.35 1066.65 858.2 1051.5 856.7 1039.9 854.45 1002.4 847 970.45 826.25 964.8 822.6 961.25 819.55 957.2935546875 816.1041015625 954.7 812.4 954.672265625 811.203515625 954.65 810 954.6 805.7 954.4 803.95 954.05 800.55 952.9 798.2 951.55 795.35 948.85 793.75 945.95 792.05 943.2 792.95 939.9 794.05 938.45 798.15 937.35 801.35 937.45 806 937.7 822.45 940.4 838.9 944.4 862.6 953.1 880.9 956.6 888.35 965.4 903.15 972 914.1 975.4 918.85 976.8 920.8 979.6 924.55 982.05 927.9 983.45 930.45 968.25 929.1 952.05 922 938.65 916.1 923.4 905.75 906.95 894.55 891.9 880.8 876.673828125 866.877734375 868.1 854.25 869.5978515625 845.6865234375 870.45 837.6 870.8 834.25 870.8 832.1 870.75 829.05 869.95 826.7 869.05 824 867 822.1 864.8 820.1 862.15 820 859.7 819.9 857.4 821.45 855.3 822.85 854 825.15 852.9 827.1 852.2 829.9 851.85 831.3 851.25 834.9 848.9 849.8 846.95 859.75 844.25 873.2 840.95 884.2 838.85 891.3 834.25 904.35
L 816.15 956.2
Q 809.7 974.6 805.7 983.7 799.05 998.65 791.05 1008.95 790.7 974.6 777.9 941.95 765.05 909.3 741.95 883.9 740.0240234375 881.78515625 738.4 880.5
L 738.4 880.5
Q 736.6 876.65 731.8 875.7 727.2 874.8 723.35 877.15 721.1 878.55 719.05 881 717.6 882.75 715.65 885.8 692.5 921.8 681 972.65 676.3 993.5 673.05 1018.9 670.7 1037.8 668.4 1065.7 639.85 1041.55 626.3 993.45 619.5625 969.3943359375 618.15 946.6 622.2515625 943.8458984375 624.6 940.55 628.1 935.6 626.05 931.2 624.75 928.3 621.3 927 620.785546875 926.7958984375 620.25 926.65 619.5154296875 925.5 617.7 925.5 616.120703125 925.5404296875 614.75 926.3 614.694140625 926.3423828125 614.65 926.35 611.8 926.85 608.45 928.55 607.2 929.15 602.6 931.85 583 943.35 556.05 949 536.35 953.15 506.1 955.15 452.55 958.7 399.35 956.75 420.35 949.45 433.4 943.15 451.5 934.4 463.95 923.55 469.6 918.6 475.85 911.75 479.9 907.25 486.8 899 495.55 888.45 505.8 875.85 507.95 873.2 508.3 871.55 509.05 868 505.45 865.65 503.5791015625 864.3939453125 501.65 864.1 498.40546875 861.9587890625 494.45 862.1 491.05 862.25 486.85 864.05 485.6 864.6 479.7 867.6 458.3 878.75 432.6 880.35 408 881.85 383.8 874.45 360.95 867.4 339.8 852.85 319.95 839.25 303.05 820.05 333 830.9 340.4 833.35 361.65 840.3 378.6 843.25 399.55 846.85 418.2 845.1 439.15 843.15 455.95 834.65 470.1 827.45 482.3 815.1 493.45 803.7 502.2 788.7 509.9 775.45 516 758.8 521 745.3 525.75 727.2 531.8 704 532.6 701.35 536.95 686.8 542.35 676.7 551.1 660.3 566.45 646.8 580.45 634.5 598.8 625.5 607.4068359375 621.27890625 617.4 617.55 619.0353515625 618.3369140625 620.9 618.45 623.7 618.65 627.15 617.5 629.05 616.85 633.05 615 640.74140625 611.3208984375 648.3 608.05 658.905859375 605.33828125 672.5 602.35 675.95 601.6 678 600.25 680.75 598.45 680.65 595.9
L 680.65 595.85
Q 710.468359375 586.2412109375 738.65 583.35
M 511.4 977.7
Q 510.9048828125 976.6587890625 510.4 975.8 510.3703125 975.6302734375 510.35 975.45 531.1150390625 974.0376953125 546.75 971.45 581.471484375 965.67734375 607.65 952.45 608.49609375 986.790234375 618.7 1019.7 620.8 1026.5 622.75 1031.3 628.8 1045.9 640.55 1060.75 649.4 1071.95 664.15 1086.2 668.25 1090.2 671.6 1091.9 676.2 1094.25 680.05 1092.85 684.2 1091.35 686.05 1086.05 687.4 1082.2 687.65 1076 690.25 1011.6 703.9 961.8 709.1 942.85 715.4 928.25 722.95 910.8 732.9 897.55 733.023046875 897.3833984375 733.15 897.2 753.015234375 924.1162109375 763.2 956.8 774.2 992.1 772 1028.2 771.75 1032.45 771.75 1034.05 771.8 1037.35 772.55 1039.8 773.45 1042.75 775.5 1044.85 777.7 1047.1 780.5 1047.4 783.6 1047.75 786.8 1045.55 789.1 1043.95 791.85 1040.7 808.15 1021.45 821.55 993.65 830.75 974.55 842.7 941.6 854.1 910.3 859.8 890.35 862.27109375 881.63984375 864.2 873.3 868.2279296875 879.7046875 874.05 886.2 879.55 892.25 888.5 900.25 910.6 920 930.55 932.3 953.8 946.6 974.95 951 984.95 953.1 999 953.7 1001.9 953.85 1003.65 953.6 1006.2 953.25 1007.8 951.95 1009.5 950.65 1010.2 948.35 1010.9 946.25 1010.6 943.95 1010.15 940.55 1007.4 935.75 1003.1 928 995.95 917.3 987.75 905.4 983.75 899.35 977.75 890.25 973.5 882.4 964.6 865.75 959.8 847.3 957.83671875 839.773828125 956.6 832.15 969.753125 843.17578125 984.75 851.8 1004.45 863.1 1026 869.5 1035.112890625 872.2013671875 1045.2 874.2 1045.209765625 874.336328125 1045.2 874.45 1044.9 878.15 1046.4 882.85
L 1065.4 943.2
Q 1074.1 970.95 1079.65 985.1 1079.8095703125 985.5041015625 1079.95 985.9 1072.0705078125 979.5919921875 1065.35 971.7 1054.45 958.95 1048.1 943.7 1045 936.2 1042.05 932.45 1037.6 926.95 1032.25 927.55 1028.3 928 1025.1 931.8 1022.75 934.55 1020.5 939.55 1001.15 982.75 994.35 1029.45
L 917.9 959.65
Q 915.2 957.2 913.35 956.15 910.6 954.55 908.1 954.85 903.25 955.45 901.75 961.45 900.5 966.35 901.7 972.7 906.55 998.5 907.15 1013.55 908 1036.3 901.3 1053.35
L 869.15 993.95
Q 867.05 990.15 865.4 988.25 862.9 985.4 860 984.8 855.65 983.95 851.6 987.8 848.45 990.7 845.7 996.1 815.7 1054.35 792.7 1115.95 774.95 1097.3 761.6 1075.05 748.25 1052.8 740.15 1028.4 738.2 1022.6 736.05 1019.5 732.95 1015.1 728.75 1014.85 721.45 1014.45 716.25 1026.65 691.6 1084.2 684.65 1146.7 643.05 1103.6 609.85 1054.6 602.8 1044.4 596.55 1046 592.1 1047.15 590.8 1052.85 589.75 1057.3 590.75 1063.45
L 606.5 1158.25
Q 554.55 1070.05 511.4 977.7
M 515.55 1010.55
Q 515.422265625 1009.784375 515.3 1009 559.2595703125 1101.135546875 611.8 1189.2 614.45 1193.6 617.3 1195.85 621.05 1198.75 624.55 1197.45 627.95 1196.15 628.85 1191.6 629.55 1188.1 628.75 1183.15 620.2 1131.5 609.95 1081.85 641.85 1124.75 679.45 1164.6 682.2 1167.45 684.2 1168.8 687.1 1170.7 689.9 1170.55 694.3 1170.25 696.95 1165.2 698.9 1161.4 699.7 1155.25 707.3 1096.5 728.65 1041.05 737.8 1066.55 752.25 1089.8 766.7 1112.95 785.6 1132.45 788.55 1135.5 790.9 1137 794.1 1139.05 797.2 1138.8 801.25 1138.45 804.35 1134.25 806.55 1131.3 808.55 1125.85 829.85 1067.3 858.55 1012.75
L 895.1 1074.75
Q 898.4 1080.35 901.95 1083.3 906.6 1087.1 911.15 1085.65 914.85 1084.5 916.95 1080.1 918.45 1076.9 919.25 1071.6 925.55 1027.95 922.1 984
L 990.3 1048.1
Q 993.25 1050.9 995.25 1052.15 998.25 1054.05 1001.05 1054.1 1006.65 1054.15 1010.15 1047.95 1012.85 1043.2 1014 1035.6 1020.45 993.4 1034.25 953.8 1042.15 969.85 1053.95 983.55 1065.75 997.25 1080.45 1007.45 1085.85 1011.2 1091.65 1011.6 1091.7611328125 1011.6083984375 1091.85 1011.6 1095.542578125 1018.3984375 1099.45 1024.35 1112.3 1043.9 1129.5 1056.7 1148.45 1070.8 1169.25 1074.1
L 1126.6 1086.45
Q 1114.6 1089.85 1114.4 1096.65 1114.3 1099.6 1116.65 1102.4 1118.35 1104.45 1121.75 1106.8 1141 1120.2 1162.65 1129.8 1184.2 1139.35 1207.1 1144.6 1196.35 1153.9 1177.7 1157.05 1171 1158.15 1161 1158.85 1149.8 1159.55 1144.3 1159.95 1134 1160.7 1131.3 1165.7 1129.9 1168.3 1130.4 1171.95 1130.7 1174.45 1132.15 1178.4
L 1138.65 1196.2
Q 1140.1 1200.2 1141.05 1202.15 1142.6 1205.3 1144.55 1207.3 1145.16171875 1207.9384765625 1145.8 1208.45 1144.4681640625 1209.0912109375 1143.1 1209.75 1130.6 1215.75 1116.65 1225.5 1104.8 1233.75 1097.75 1241.35 1088.55 1251.15 1085.1 1261.8 1084.19453125 1264.54765625 1084.1 1266.75 1068.484765625 1260.6494140625 1051.7 1258.45 1029.6 1255.6 1008.5 1259.95 983.55 1265.05 956.6 1281.3 938.35 1292.25 910.3 1314.55 904.85 1318.9 902.3 1321.55 900.1326171875 1323.743359375 898.6 1325.95 895.566015625 1324.1166015625 892.45 1322.4 863.35 1306.3 832.8 1305.4 825 1305.2 815.45 1305.95 809.3 1306.45 798.15 1307.75 788.4 1308.85 783.1 1309.7 774.85 1310.95 768.3 1312.7 743.1240234375 1319.3859375 716.4 1340.45 713.803125 1338.5201171875 711.55 1336.9 703.35 1331 696.1 1326.8 674.6 1314.35 648.45 1308.95 623.85 1303.9 597.4 1305.5 586.5349609375 1306.1732421875 575.3 1307.95 575.2455078125 1307.5640625 575.15 1307.15 574.8 1305.6 573.85 1303.7 573.45 1302.8 572.1 1300.4 567.55 1292.25 563.5 1281.1 561.4 1275.15 557 1260.9 555.85 1257.25 555 1255.45 554.3671875 1254.090625 553.6 1253 553.634765625 1251.128125 552.6 1249.15 551.05 1246.15 548 1244.55 545.4 1243.2 541.75 1242.8 539.5 1242.5 535.2 1242.5 505.55 1242.2 475.2 1238 500.9 1213.75 522.65 1185.9 524.35 1183.75 525.1 1182.35 526.2 1180.2 526.15 1178.3 526.05 1175.95 524.3 1173.95 522.7 1172.1 520.3 1171.15 518.3 1170.4 515.55 1170.15 514.1 1170.05 510.65 1170.05 488.5 1169.95 467.45 1166.65 478.95 1156.35 489.75 1144.85 501.45 1132.45 507.1 1123.05 524.5 1094.5 520.75 1048.65 519.7 1035.25 515.55 1010.55 Z"/>

<path fill="#CCCCCC" stroke="none" d="
M 515.3 1009
Q 515.422265625 1009.784375 515.55 1010.55 519.7 1035.25 520.75 1048.65 524.5 1094.5 507.1 1123.05 501.45 1132.45 489.75 1144.85 478.95 1156.35 467.45 1166.65 488.5 1169.95 510.65 1170.05 514.1 1170.05 515.55 1170.15 518.3 1170.4 520.3 1171.15 522.7 1172.1 524.3 1173.95 526.05 1175.95 526.15 1178.3 526.2 1180.2 525.1 1182.35 524.35 1183.75 522.65 1185.9 500.9 1213.75 475.2 1238 505.55 1242.2 535.2 1242.5 539.5 1242.5 541.75 1242.8 545.4 1243.2 548 1244.55 551.05 1246.15 552.6 1249.15 553.634765625 1251.128125 553.6 1253 554.3671875 1254.090625 555 1255.45 555.85 1257.25 557 1260.9 561.4 1275.15 563.5 1281.1 567.55 1292.25 572.1 1300.4 573.45 1302.8 573.85 1303.7 574.8 1305.6 575.15 1307.15 575.2455078125 1307.5640625 575.3 1307.95 586.5349609375 1306.1732421875 597.4 1305.5 623.85 1303.9 648.45 1308.95 674.6 1314.35 696.1 1326.8 703.35 1331 711.55 1336.9 713.803125 1338.5201171875 716.4 1340.45 743.1240234375 1319.3859375 768.3 1312.7 774.85 1310.95 783.1 1309.7 788.4 1308.85 798.15 1307.75 809.3 1306.45 815.45 1305.95 825 1305.2 832.8 1305.4 863.35 1306.3 892.45 1322.4 895.566015625 1324.1166015625 898.6 1325.95 900.1326171875 1323.743359375 902.3 1321.55 904.85 1318.9 910.3 1314.55 938.35 1292.25 956.6 1281.3 983.55 1265.05 1008.5 1259.95 1029.6 1255.6 1051.7 1258.45 1068.484765625 1260.6494140625 1084.1 1266.75 1084.19453125 1264.54765625 1085.1 1261.8 1088.55 1251.15 1097.75 1241.35 1104.8 1233.75 1116.65 1225.5 1130.6 1215.75 1143.1 1209.75 1144.4681640625 1209.0912109375 1145.8 1208.45 1145.16171875 1207.9384765625 1144.55 1207.3 1142.6 1205.3 1141.05 1202.15 1140.1 1200.2 1138.65 1196.2
L 1132.15 1178.4
Q 1130.7 1174.45 1130.4 1171.95 1129.9 1168.3 1131.3 1165.7 1134 1160.7 1144.3 1159.95 1149.8 1159.55 1161 1158.85 1171 1158.15 1177.7 1157.05 1196.35 1153.9 1207.1 1144.6 1184.2 1139.35 1162.65 1129.8 1141 1120.2 1121.75 1106.8 1118.35 1104.45 1116.65 1102.4 1114.3 1099.6 1114.4 1096.65 1114.6 1089.85 1126.6 1086.45
L 1169.25 1074.1
Q 1148.45 1070.8 1129.5 1056.7 1112.3 1043.9 1099.45 1024.35 1095.542578125 1018.3984375 1091.85 1011.6 1091.7611328125 1011.6083984375 1091.65 1011.6 1085.85 1011.2 1080.45 1007.45 1065.75 997.25 1053.95 983.55 1042.15 969.85 1034.25 953.8 1020.45 993.4 1014 1035.6 1012.85 1043.2 1010.15 1047.95 1006.65 1054.15 1001.05 1054.1 998.25 1054.05 995.25 1052.15 993.25 1050.9 990.3 1048.1
L 922.1 984
Q 925.55 1027.95 919.25 1071.6 918.45 1076.9 916.95 1080.1 914.85 1084.5 911.15 1085.65 906.6 1087.1 901.95 1083.3 898.4 1080.35 895.1 1074.75
L 858.55 1012.75
Q 829.85 1067.3 808.55 1125.85 806.55 1131.3 804.35 1134.25 801.25 1138.45 797.2 1138.8 794.1 1139.05 790.9 1137 788.55 1135.5 785.6 1132.45 766.7 1112.95 752.25 1089.8 737.8 1066.55 728.65 1041.05 707.3 1096.5 699.7 1155.25 698.9 1161.4 696.95 1165.2 694.3 1170.25 689.9 1170.55 687.1 1170.7 684.2 1168.8 682.2 1167.45 679.45 1164.6 641.85 1124.75 609.95 1081.85 620.2 1131.5 628.75 1183.15 629.55 1188.1 628.85 1191.6 627.95 1196.15 624.55 1197.45 621.05 1198.75 617.3 1195.85 614.45 1193.6 611.8 1189.2 559.2595703125 1101.135546875 515.3 1009
M 794 584.4
Q 767.1 580.45 738.65 583.35 710.468359375 586.2412109375 680.65 595.85
L 680.65 595.9
Q 680.75 598.45 678 600.25 675.95 601.6 672.5 602.35 658.905859375 605.33828125 648.3 608.05 640.74140625 611.3208984375 633.05 615 629.05 616.85 627.15 617.5 623.7 618.65 620.9 618.45 619.0353515625 618.3369140625 617.4 617.55 607.4068359375 621.27890625 598.8 625.5 580.45 634.5 566.45 646.8 551.1 660.3 542.35 676.7 536.95 686.8 532.6 701.35 531.8 704 525.75 727.2 521 745.3 516 758.8 509.9 775.45 502.2 788.7 493.45 803.7 482.3 815.1 470.1 827.45 455.95 834.65 439.15 843.15 418.2 845.1 399.55 846.85 378.6 843.25 361.65 840.3 340.4 833.35 333 830.9 303.05 820.05 319.95 839.25 339.8 852.85 360.95 867.4 383.8 874.45 408 881.85 432.6 880.35 458.3 878.75 479.7 867.6 485.6 864.6 486.85 864.05 491.05 862.25 494.45 862.1 498.40546875 861.9587890625 501.65 864.1 503.5791015625 864.3939453125 505.45 865.65 509.05 868 508.3 871.55 507.95 873.2 505.8 875.85 495.55 888.45 486.8 899 479.9 907.25 475.85 911.75 469.6 918.6 463.95 923.55 451.5 934.4 433.4 943.15 420.35 949.45 399.35 956.75 452.55 958.7 506.1 955.15 536.35 953.15 556.05 949 583 943.35 602.6 931.85 607.2 929.15 608.45 928.55 611.8 926.85 614.65 926.35 614.694140625 926.3423828125 614.75 926.3 616.120703125 925.5404296875 617.7 925.5 619.5154296875 925.5 620.25 926.65 620.785546875 926.7958984375 621.3 927 624.75 928.3 626.05 931.2 628.1 935.6 624.6 940.55 622.2515625 943.8458984375 618.15 946.6 619.5625 969.3943359375 626.3 993.45 639.85 1041.55 668.4 1065.7 670.7 1037.8 673.05 1018.9 676.3 993.5 681 972.65 692.5 921.8 715.65 885.8 717.6 882.75 719.05 881 721.1 878.55 723.35 877.15 727.2 874.8 731.8 875.7 736.6 876.65 738.4 880.5
L 738.4 880.5
Q 740.0240234375 881.78515625 741.95 883.9 765.05 909.3 777.9 941.95 790.7 974.6 791.05 1008.95 799.05 998.65 805.7 983.7 809.7 974.6 816.15 956.2
L 834.25 904.35
Q 838.85 891.3 840.95 884.2 844.25 873.2 846.95 859.75 848.9 849.8 851.25 834.9 851.85 831.3 852.2 829.9 852.9 827.1 854 825.15 855.3 822.85 857.4 821.45 859.7 819.9 862.15 820 864.8 820.1 867 822.1 869.05 824 869.95 826.7 870.75 829.05 870.8 832.1 870.8 834.25 870.45 837.6 869.5978515625 845.6865234375 868.1 854.25 876.673828125 866.877734375 891.9 880.8 906.95 894.55 923.4 905.75 938.65 916.1 952.05 922 968.25 929.1 983.45 930.45 982.05 927.9 979.6 924.55 976.8 920.8 975.4 918.85 972 914.1 965.4 903.15 956.6 888.35 953.1 880.9 944.4 862.6 940.4 838.9 937.7 822.45 937.45 806 937.35 801.35 938.45 798.15 939.9 794.05 943.2 792.95 945.95 792.05 948.85 793.75 951.55 795.35 952.9 798.2 954.05 800.55 954.4 803.95 954.6 805.7 954.65 810 954.672265625 811.203515625 954.7 812.4 957.2935546875 816.1041015625 961.25 819.55 964.8 822.6 970.45 826.25 1002.4 847 1039.9 854.45 1051.5 856.7 1066.65 858.2 1078.2 859.35 1086.7 859.5 1097.55 859.7 1106.7 858.4 1121.55 856.25 1138.85 849.05 1149.4 844.6 1169.2 834.25 1111.15 813.6 1058.35 783.1 1056.627734375 782.1158203125 1055.2 781.1 1051.9130859375 780.2505859375 1049.65 778.5 1046.6 776.1 1046.1 772.05 1045.55 767.85 1048.4 765.7 1050.2 764.35 1053.05 764.2 1054.85 764.15 1058.2 764.65 1081.5 768.05 1105.15 764.35 1128.8 760.7 1149.95 750.4 1099.75 743.05 1074.4 738.5 1056.2 735.25 1044.4 732.3 1028.15 728.25 1015.3 722.9 993.7 713.9 970.65 696.6 955.9 685.5 930.55 662.65 903.2 638 890.7 628.15 867.7 610 846.8 600.1 822.4 588.55 794 584.4 Z"/>

<path fill="#6699CC" stroke="none" d="
M 510.4 975.8
Q 510.9048828125 976.6587890625 511.4 977.7 554.55 1070.05 606.5 1158.25
L 590.75 1063.45
Q 589.75 1057.3 590.8 1052.85 592.1 1047.15 596.55 1046 602.8 1044.4 609.85 1054.6 643.05 1103.6 684.65 1146.7 691.6 1084.2 716.25 1026.65 721.45 1014.45 728.75 1014.85 732.95 1015.1 736.05 1019.5 738.2 1022.6 740.15 1028.4 748.25 1052.8 761.6 1075.05 774.95 1097.3 792.7 1115.95 815.7 1054.35 845.7 996.1 848.45 990.7 851.6 987.8 855.65 983.95 860 984.8 862.9 985.4 865.4 988.25 867.05 990.15 869.15 993.95
L 901.3 1053.35
Q 908 1036.3 907.15 1013.55 906.55 998.5 901.7 972.7 900.5 966.35 901.75 961.45 903.25 955.45 908.1 954.85 910.6 954.55 913.35 956.15 915.2 957.2 917.9 959.65
L 994.35 1029.45
Q 1001.15 982.75 1020.5 939.55 1022.75 934.55 1025.1 931.8 1028.3 928 1032.25 927.55 1037.6 926.95 1042.05 932.45 1045 936.2 1048.1 943.7 1054.45 958.95 1065.35 971.7 1072.0705078125 979.5919921875 1079.95 985.9 1079.8095703125 985.5041015625 1079.65 985.1 1074.1 970.95 1065.4 943.2
L 1046.4 882.85
Q 1044.9 878.15 1045.2 874.45 1045.209765625 874.336328125 1045.2 874.2 1035.112890625 872.2013671875 1026 869.5 1004.45 863.1 984.75 851.8 969.753125 843.17578125 956.6 832.15 957.83671875 839.773828125 959.8 847.3 964.6 865.75 973.5 882.4 977.75 890.25 983.75 899.35 987.75 905.4 995.95 917.3 1003.1 928 1007.4 935.75 1010.15 940.55 1010.6 943.95 1010.9 946.25 1010.2 948.35 1009.5 950.65 1007.8 951.95 1006.2 953.25 1003.65 953.6 1001.9 953.85 999 953.7 984.95 953.1 974.95 951 953.8 946.6 930.55 932.3 910.6 920 888.5 900.25 879.55 892.25 874.05 886.2 868.2279296875 879.7046875 864.2 873.3 862.27109375 881.63984375 859.8 890.35 854.1 910.3 842.7 941.6 830.75 974.55 821.55 993.65 808.15 1021.45 791.85 1040.7 789.1 1043.95 786.8 1045.55 783.6 1047.75 780.5 1047.4 777.7 1047.1 775.5 1044.85 773.45 1042.75 772.55 1039.8 771.8 1037.35 771.75 1034.05 771.75 1032.45 772 1028.2 774.2 992.1 763.2 956.8 753.015234375 924.1162109375 733.15 897.2 733.023046875 897.3833984375 732.9 897.55 722.95 910.8 715.4 928.25 709.1 942.85 703.9 961.8 690.25 1011.6 687.65 1076 687.4 1082.2 686.05 1086.05 684.2 1091.35 680.05 1092.85 676.2 1094.25 671.6 1091.9 668.25 1090.2 664.15 1086.2 649.4 1071.95 640.55 1060.75 628.8 1045.9 622.75 1031.3 620.8 1026.5 618.7 1019.7 608.49609375 986.790234375 607.65 952.45 581.471484375 965.67734375 546.75 971.45 531.1150390625 974.0376953125 510.35 975.45 510.3703125 975.6302734375 510.4 975.8 Z"/>
</g>

<g id="Layer18_0_FILL">
<path fill="#000000" fill-opacity="0.2" stroke="none" d="
M 1131.65 1142.4
Q 1128.65 1143.7 1126.6 1145.9 1124.35 1148.35 1123.9 1151.2 1123.45 1154.45 1125.3 1157.65 1127 1160.6 1130.05 1162.4 1134.6 1165.15 1143.1 1165.6 1155.7 1166.35 1171.3 1164.05 1180.85 1162.6 1199.2 1158.55 1207.3 1156.8 1211.45 1155.4 1218.15 1153.15 1222.65 1149.8 1225.85 1147.4 1227.5 1144.5 1229.45 1141.1 1228.8 1137.85 1228.2 1135.1 1225.7 1132.9 1223.5 1131 1220.4 1130 1215.05 1128.25 1207.85 1129.15 1204.15 1129.6 1195.15 1131.75 1170 1138 1143.6 1140.2 1139.1 1140.6 1137.5 1140.85 1134.1 1141.35 1131.65 1142.4
M 1127.15 1071.7
Q 1120.1 1073.8 1116.95 1076.6 1114.7 1078.6 1113.7 1081.3 1112.65 1084.2 1113.5 1086.8 1114.25 1089.15 1116.5 1090.9 1118.55 1092.45 1121.25 1093.05 1123.55 1093.55 1126.45 1093.4 1128.35 1093.3 1131.6 1092.75 1143.9 1090.9 1152.75 1088.9 1164.05 1086.3 1173.25 1082.8 1178.95 1080.7 1181.5 1078.05 1183.25 1076.25 1183.9 1073.9 1184.6 1071.45 1183.7 1069.3 1182.45 1066.25 1178.2 1064.6 1173.8 1062.85 1167.9 1063.15 1164.05 1063.35 1157.35 1064.7 1137.55 1068.6 1127.15 1071.7
M 1074.65 890.85
Q 1077.55 887.85 1077.65 883.3 1077.75 878.75 1074.95 875.65 1072.3 872.7 1067.35 871.5 1064.4 870.75 1058.25 870.35 1043.3 869.35 1031.35 866.3 1015.95 862.45 998.2 853.4 987.55 848 967.1 835.6 960.7 831.75 957.55 829.05 954.9 826.6 953.5 825.5 951.05 823.65 948.8 823.3 945.6 822.8 942.7 824.9 939.85 827 938.95 830.25 938.1 833.25 938.95 836.7 939.75 839.85 941.75 842.65 944.5 846.55 951.4 851.5 959 856.85 966.4 861.35 977.75 868.3 995.65 877.4
L 1006.95 883.1
Q 1014.45 886.9 1018.3 888.5 1036.75 896 1060 895.35 1064.75 895.25 1067.9 894.45 1072.15 893.35 1074.65 890.85
M 1170.9 823.9
Q 1166 821.95 1159.35 823.85 1156.3 824.7 1147.9 828.55 1139.1 832.55 1128.1 835.5 1119.55 837.75 1107.5 839.95 1094.15 842.4 1085.45 842.95 1066.75 844.1 1044 838.85 1029.65 835.55 1003.55 826.75 988.25 821.6 980.55 818.1 968.1 812.45 959.95 805.25 956.9 802.55 956.8 802.5 954.95 800.95 953.35 800.2 951.35 799.2 949.3 799.2 947 799.2 945.4 800.4 943.5 801.8 943.05 804.45 942.65 806.9 943.65 809.3 945.1 812.65 950 816.65 976.45 838.35 1009.1 848.5 1011.2 849.15 1017.4 850.95 1022.55 852.45 1025.65 853.45 1030.6 855.05 1039.65 858.55 1049.2 862.25 1053.6 863.75 1066 867.9 1078.1 869.4 1098.85 871.95 1122.5 866.75 1142.25 862.35 1165.15 852.25 1169.15 850.45 1171.3 849.15 1174.5 847.2 1176.35 844.8 1180.15 839.8 1178.4 833 1176.65 826.2 1170.9 823.9
M 645.7 1292.45
Q 639.35 1291.9 627.25 1291.4 613.5 1290.9 607.5 1290.8 596.45 1290.65 587.7 1291.2 583.05 1291.45 580 1292.05 575.8 1292.9 572.7 1294.55 568.85 1296.6 567.9 1299.4 566.95 1302 568.35 1304.85 569.65 1307.55 572.25 1309.1 574.45 1310.4 577.6 1311 579.5 1311.35 583.4 1311.65 606.05 1313.4 630.55 1315.95 646.65 1317.7 655.2 1319.65 681.9 1325.75 710 1346.05 712.541796875 1347.865625 714.2 1348.95 714.862109375 1349.3853515625 715.35 1349.7 715.73984375 1349.9240234375 716.05 1350.1 719.55 1352.15 722.65 1352.65 728.3 1353.55 733.15 1349.65 735.16484375 1348.021875 736.3 1346.1 736.91953125 1345.8125 737.6 1345.45 757.9 1334.6 785.55 1330.15 805.6 1326.9 836.45 1326.4 845.1 1326.25 849.85 1326.7 857.25 1327.4 862.7 1329.75 865.65 1331 869.95 1333.65 875.95 1337.3 877 1337.9 885.85 1342.75 892.75 1341.35 896.5 1340.55 899.5 1337.95 902.5 1335.35 903.75 1331.75 904.64296875 1329.31171875 904.65 1326.65 907.9232421875 1324.3853515625 909.8 1323.05 915.65 1318.95 923.5 1314.9 928.55 1312.25 937.9 1307.95 972.6 1292 995.35 1284.25 1027.6 1273.25 1055.5 1271 1065.3 1270.25 1070.9 1271.7 1071.35 1271.8 1082.65 1276.25 1089.7 1279.05 1094.55 1278.1 1099.75 1277.1 1103 1272.35 1106.25 1267.6 1105.3 1262.4 1104.35 1256.85 1099.05 1252.6 1098.676171875 1252.294921875 1098.25 1252 1101.3443359375 1248.7697265625 1105.1 1245.45 1109.2 1241.8 1115.7 1236.7 1124.95 1229.35 1131.35 1225.05 1140.2 1219.05 1148.3 1215.45 1150.85 1214.35 1155.9 1212.1 1160.1 1210 1162.6 1207.5 1165.7 1204.45 1166.5 1200.25 1167.35 1195.75 1164.85 1192.65 1162.3 1189.5 1156.2 1188.55 1147.5 1187.25 1139.3 1190.05 1136.35 1191.05 1132.85 1192.85 1130.95 1193.85 1126.65 1196.3
L 1111.75 1204.95
Q 1104.3 1209.25 1100.8 1212.1 1098.55 1213.95 1095.7 1216.9 1094.05 1218.55 1090.8 1221.95 1087.25 1225.6 1079.7 1232.45 1073.655859375 1238.2193359375 1070.15 1242.9 1062.519921875 1242.066796875 1054.1 1242.4 1039.35 1243 1019.6 1247.45 958 1261.55 904.05 1294.1 893.5 1300.55 886.8 1305.55 886.0984375 1306.07734375 885.45 1306.6 879.8103515625 1303.6046875 876.3 1302 867.65 1298.05 860.2 1296.5 853.15 1295.1 841.1 1294.9 803.9 1294.3 777.4 1300.2 746.2869140625 1307.1189453125 724.3 1323.3 718.3474609375 1319.245703125 709.3 1314.2 696.65 1307.15 687.25 1303.05 674.95 1297.6 663.95 1295.15 655.95 1293.35 645.7 1292.45
M 544.25 1232.25
Q 541.15 1230.2 536.5 1229.3 528.5 1227.75 512.5 1227.65 496.2 1227.6 488.4 1226.15 483 1225.2 481.05 1225.1 476.9 1224.95 474.25 1226.7 471.4 1228.65 470.6 1232.4 469.85 1236 471.35 1239.3 472.75 1242.4 475.75 1244.65 478.45 1246.75 482.05 1247.8 486.65 1249.2 495.95 1249.3
L 529.85 1249.75
Q 534.05 1249.8 536.15 1249.6 539.65 1249.3 542.2 1248.15 545.2 1246.8 547.05 1244.15 549.05 1241.35 548.6 1238.35 548.05 1234.7 544.25 1232.25
M 476.95 1155.2
Q 473.3 1154.05 472.4 1153.8 469.8 1153.1 467.75 1153.05 465.2 1152.95 463.05 1153.8 460.65 1154.65 459.25 1156.45 457.45 1158.75 457.6 1162.1 457.75 1165.2 459.5 1167.85 462.1 1171.8 469 1175.25 488.25 1184.95 511.6 1184.7 521.95 1184.6 524.7 1179.3 526.3 1176.25 524.85 1172.5 523.5 1168.95 520.4 1166.8 517.8 1165 513.85 1163.95 511.9 1163.4 506.7 1162.55 491.35 1159.95 476.95 1155.2
M 512.05 967.2
Q 507.75 967.6 505.9 968.05 502.5 968.85 500.5 970.65 498.25 972.7 497.55 976.05 496.95 979.25 498.05 982.3 499.1 985.15 501.5 987.45 503.75 989.65 506.75 990.95 511.55 993.1 519.05 993.3 524.4 993.45 530.85 992.65 535.25 992.1 542.55 990.8 577.45 984.35 601.25 974.2 608.05 971.3 611.05 968.4 613.25 966.3 614.35 963.7 614.979296875 962.2052734375 615.15 960.75 616.041015625 964.163671875 617.25 967.95 619.274609375 974.391015625 621.65 980.65 620.4546875 981.7900390625 619.65 983.5 618.5 985.9 618.55 988.65 618.6 992.8 621.4 998.65 621.784375 999.468359375 622.2 1000.3 619.3978515625 1003.285546875 619.15 1007.3 618.95 1010.8 620.5 1014.8 621.6 1017.65 624.05 1021.8 636.4 1042.6 652.95 1060.4 656.45 1064.15 658.85 1066.05 662.4 1068.85 665.9 1069.85 671.15 1071.35 674.35 1068.75 676.3 1067.2 676.85 1064.45 677.35 1061.85 676.5 1059.3 676.04375 1057.8662109375 675.15 1056.35 676.3197265625 1055.780078125 677.15 1055 677.1892578125 1055.5640625 677.25 1056.1 677.3333984375 1062.18125 677.65 1066.85 678.15 1073.65 679.75 1077.05 680.95 1079.55 682.9 1081.25 685.1 1083.05 687.55 1083.35 690.7 1083.75 693.7 1081.7 696.45 1079.8 697.95 1076.65 699.2 1074 699.7 1070.35 700 1068.15 700.15 1063.7
L 700.35 1056.15
Q 700.4509765625 1055.64375 700.55 1055.05
L 704.1 1031.95
Q 709.3 997.85 712.95 980.25 718.9 951.8 727.3 930 728.474609375 927.0216796875 729.55 924.5 735.584375 943.0099609375 743.5 960.7 746.75 968.2 747.4 970.05 748.3 972.65 749.6 978.05
L 759.2 1017.1
Q 761.45 1026.6 762.4 1029.95 764.5 1037.1 767.25 1042.2 769.9 1046.95 772.85 1049 774.75 1050.35 776.9 1050.75 779.25 1051.2 781.25 1050.45 783.95 1048.2 785.45 1044.55 786.8 1041.25 786.9 1037.35 787.05 1034.1 786.35 1030.05 785.9 1027.55 784.7 1022.85
L 774.05 980.2
Q 771.5 969.9 769.8 964.65 767.05 956.05 759.9 940.05
L 752.15 922.5
Q 748.7 914.7 746.85 910.85 745.3453125 907.692578125 743.9 904.9 744.79765625 904.0978515625 745.45 903.5
L 754.9 925.55
Q 767.05 954 772.65 967.85 779.537109375 984.8166015625 784.8 999.5 783.9056640625 1001.8046875 783.65 1003.85 783.25 1007.25 784.7 1010.2 786.25 1013.4 789.2 1014.35 789.679296875 1014.5013671875 790.15 1014.55 790.4873046875 1015.3748046875 790.75 1015.9 792.05 1018.7 793.85 1020.3 796.65 1022.9 800.8 1023.05 804.95 1023.2 807.95 1020.8 810.55 1018.75 811.75 1015.3 812.9 1012.15 812.7 1008.5 812.55 1005.45 811.45 1001.8 810.8349609375 999.7658203125 809.3 995.8 819.2919921875 979.0244140625 828.85 958.15 836.85 940.65 849.7 908.05 854.4580078125 896.053515625 857.2 888.35 857.583984375 889.190625 858.05 890.05 859.15 892.05 861.3 895.2 881.9 924.85 909.65 941.8 915.8 945.55 928.7 952.05
L 947.05 961.35
Q 954.3 965.1 958.65 966.65 966.65 969.5 977.05 970.15 984.25 970.55 996 969.9 1000.1 969.65 1002.25 969.3 1005.7 968.7 1008.2 967.45 1011.15 965.9 1012.85 963.25 1014.75 960.4 1014.3 957.4 1013.9 954.5 1011.45 952.1 1009.3 950.05 1006.05 948.75 1000.7 946.65 991.75 946.3 979.25 945.8 977 945.5 971.35 944.7 964.65 942.25 960.45 940.7 952.8 937.2 937.65 930.35 930.3 926.5 918 920.05 909.25 913.3 903 908.5 892.35 898.25
L 878.2 884.75
Q 874.15 880.8 872.85 878.5 871.7 876.1 871.1 874.9 870.05 872.8 868.85 871.75 866.6 869.8 863.3 870.25 862.960546875 870.291796875 862.6 870.35 863.7861328125 865.66171875 864.55 861.3 864.802734375 859.7072265625 865 858.3 867.8220703125 861.3771484375 871.15 864.65 874.95 868.4 882.25 875.15 899.6 891.1 908.55 898.75 923.4 911.5 936.3 920.45 948.3 928.75 961.25 935.7 966.15 938.35 969.45 939.4 974.15 940.95 978.15 940.5 982.75 939.95 985.95 936.4 989.3 932.65 988.3 928.45 987.55 925.25 984.2 922.7 982.1 921.1 977.6 919 958.05 909.65 936 892.8 925.55 884.85 897.9 861.25 881.2 846.95 870.3 838.7 869.8779296875 838.3833984375 869.5 838.1 869.9103515625 836.816015625 870.45 835.15 871.9 830.7 872.3 827.65 872.85 823.5 871.75 819.85 870.55 815.8 867.55 813.65 864.55 811.45 860.5 811.9 856.45 812.3 853.95 815.1 851.85 817.5 851 821.45 850.5 823.85 850.25 828.7 849 851.6 842.4 873.65 839.8 882.35 834.7 896 824.3 923.6 814.2 945.3 807.484375 959.65078125 800.35 972.55
L 798.35 967.3
Q 791.5 949.75 788.65 942.9
L 782.85 929.5
Q 775.15 911.95 770.25 903.15 762.35 889.05 753.15 879.95 750.25 877.2 748.85 875.85 747.0517578125 874.122265625 745.75 872.7 746.5720703125 870.3580078125 746.25 868.15 745.65 864.4 742 862.05 738.5 859.8 734.4 860.05 730.85 860.25 727 862.2 724.1 863.6 720.3 866.4 706.8 876.3 695.65 890.3 685.15 903.4 677.25 919.45 663.45 947.45 657.3 985.2 655.95 993.35 655.05 1001.2 654.6169921875 1004.793359375 654.25 1008.5
L 645.05 994.75
Q 641.313671875 987.63046875 638.2 980.1 629.979296875 960.398828125 626.9 939.6 628.3041015625 939.243359375 629.7 938.85 642.3 935.4 643.4 928.4 644 924.45 640.75 921.05 637.75 917.85 633.4 917.15 629.75 916.55 625.2 917.55 622.7 918.1 617.15 919.95 566.8 936.95 504.25 939.7 493.9 940.15 477.05 940.4 455.9 940.75 449.85 940.9 436.55 941.25 419.95 942.25 410 942.8 390.1 944.15 384.95 944.5 384.5 947.25 384.25 949.3 387 951.25 390.75 953.9 396.35 955.2 399.95 956 406.55 956.6 432.75 958.85 467.3 959.55 493.25 960.1 511.5 959.5 535.45 958.7 555.5 955.85 572.65 953.4 592.85 948.6 601.4857421875 946.535546875 612.5 943.55 612.640234375 948.1453125 613.5 953.15 613.6158203125 953.8337890625 613.75 954.55 613.0265625 953.3859375 611.95 952.35 609.45 950 606.05 949.05 603.05 948.25 599.35 948.45 596.55 948.6 592.65 949.45 587.85 950.5 580.75 952.65 569.55 956.1 568.95 956.25 558.5 959.25 537.1 963.25 521.05 966.35 512.05 967.2
M 680.55 977
Q 680.2400390625 980.0505859375 680 983.35 679.6 988.3 679.1 998.25 678.1 1018.45 677.5 1034.3 677.3654296875 1038.591796875 677.3 1042.5 677.26796875 1042.797265625 677.25 1043.1 676.5892578125 1041.936328125 675.65 1040.55
L 673.1 1036.7
Q 672.8421875 1030.8775390625 673.3 1024.15 673.8 1017.45 675.3 1006.9 677.7685546875 989.9134765625 680.55 977
M 491.7 877.7
Q 495.4 876.65 497.65 875.45 500.7 873.8 502.2 871.35 504.75 867.15 502.4 861.9 500.1 856.9 495.25 854.65 491.15 852.75 485.45 852.65 481.8 852.6 475.15 853.45 462.3 855 454.1 855.75 442.55 856.75 432.95 856.8 401.75 857.05 371.35 847.75 341.05 838.45 315.25 820.75 311.95 818.45 309.55 817.65 306.15 816.5 303.65 817.85 301.55 819 300.8 821.65 300.1 824.15 300.85 826.65 301.95 830.15 306.65 834.65 321.45 849.1 339.65 859.6 357.8 870.05 377.75 875.6 392.85 879.8 410.6 881.55 425.6 883.1 444.05 883 457.75 882.95 468.1 881.95 481 880.7 491.7 877.7
M 1048.65 748.95
Q 1045.9 749.7 1044.1 751.85 1042.15 754.15 1042.6 756.7 1042.85 758.4 1044.2 760 1045.05 761.1 1046.9 762.7 1049.4 764.8 1050.65 765.75 1052.85 767.35 1054.85 768.1 1057.45 769.1 1062.95 770 1064.25 770.3 1067.25 771.25 1069.95 772.1 1071.5 772.4 1073.6 772.8 1077.2 772.9 1081.35 773 1082.9 773.2 1085.75 773.55 1091.25 774.85 1094.25 775.4 1098.15 775.65 1100.1 775.75 1105.05 775.85
L 1123.6 776.1
Q 1131.3 776.2 1135.15 775.75 1137.25 775.45 1143.1 774.15 1152.75 771.75 1158.4 769.1 1166.4 765.35 1170.55 759.5 1174.15 754.55 1172.6 750.65 1171.55 748.15 1168.6 746.6 1164.35 744.4 1158.25 745.15 1154.9 745.55 1147.45 747.75 1133.5 751.7 1122 752.1 1117.75 752.3 1111.65 752.05 1104.75 751.7 1101.3 751.55 1087.3 751.3 1080.25 751.1 1067.85 750.75 1059.35 749.4 1055.4 748.75 1054 748.6 1050.95 748.35 1048.65 748.95 Z"/>
</g>
</defs>

<g transform="matrix( 1, 0, 0, 1, 0,0) ">
<use xlink:href="#Layer19_0_FILL"/>
</g>

<g transform="matrix( 1, 0, 0, 1, 0,0) ">
<use xlink:href="#Layer18_0_FILL"/>
</g>
</svg>
